<svg width="503" height="496" viewBox="0 0 503 496" fill="none" xmlns="http://www.w3.org/2000/svg">
<path d="M264.653 125.354L215.696 114.318C215.306 114.233 214.936 114.073 214.609 113.845C214.282 113.618 214.004 113.328 213.791 112.993C213.578 112.659 213.435 112.285 213.37 111.895C213.305 111.505 213.319 111.107 213.412 110.722L213.819 108.956C213.905 108.57 214.067 108.205 214.298 107.882C214.528 107.559 214.821 107.284 215.16 107.074C215.499 106.864 215.876 106.723 216.271 106.658C216.666 106.594 217.07 106.608 217.459 106.7L266.411 117.736L264.653 125.354Z" fill="#C7B8F8"/>
<path d="M285.514 193.782L270.201 190.985C260.662 189.241 252.215 183.826 246.717 175.93C241.219 168.034 239.122 158.303 240.885 148.879L246.026 121.332C246.506 118.769 247.996 116.5 250.169 115.023C252.342 113.545 255.02 112.982 257.614 113.455L319.424 124.749C321.267 125.081 323.025 125.769 324.599 126.773C326.172 127.777 327.529 129.078 328.593 130.601C329.657 132.124 330.406 133.84 330.798 135.649C331.19 137.459 331.216 139.327 330.876 141.147L326.182 166.16C324.495 175.15 319.264 183.11 311.637 188.29C304.011 193.47 294.615 195.445 285.514 193.782Z" fill="black"/>
<path d="M255.234 118.152C251.871 117.954 249.902 118.866 248.833 119.561C242.221 123.836 245.906 134.976 237.923 146.449C237.134 147.582 236.272 148.664 235.342 149.688L233.515 151.637C233.054 152.13 232.791 152.772 232.777 153.442C232.762 154.113 232.996 154.766 233.435 155.278L235.915 158.155L234.66 173.332C234.544 174.651 233.816 184.482 241.071 190.762L241.573 191.188C244.447 193.444 247.99 194.709 251.66 194.789L263.293 195.141V211.926H301.827L302.208 176.938C302.208 176.938 310.989 175.45 312.586 166.914C312.989 164.779 312.898 162.581 312.319 160.486C311.74 158.391 310.688 156.453 309.242 154.816C306.365 151.597 301.294 148.864 292.945 152.713C290.152 153.811 287.107 154.127 284.144 153.626C281.181 153.126 278.416 151.828 276.151 149.876C270.452 144.837 270.869 137.63 270.934 136.752C270.934 136.752 264.468 134.857 261.36 132.725C258.709 130.904 255.822 127.075 255.234 118.152Z" fill="white"/>
<path d="M302.836 212.918H262.304V196.103L251.64 195.776C247.752 195.683 244.001 194.34 240.956 191.952C240.775 191.803 240.589 191.654 240.408 191.496C233.003 185.082 233.49 175.157 233.661 173.233L234.881 158.472L232.671 155.913C232.07 155.217 231.749 154.327 231.768 153.413C231.788 152.498 232.147 151.623 232.777 150.953L234.604 148.998C235.509 148.01 236.348 146.965 237.115 145.869C240.991 140.308 242.02 134.887 242.929 130.106C243.837 125.324 244.641 121.083 248.306 118.698C250.169 117.492 252.528 116.967 255.335 117.135L256.219 117.19L256.279 118.058C256.731 124.947 258.649 129.595 261.977 131.876C264.919 133.895 271.205 135.755 271.266 135.77L272.044 135.998L271.984 136.797C271.888 138.047 271.682 144.524 276.864 149.107C278.983 150.945 281.576 152.166 284.355 152.637C287.134 153.107 289.991 152.807 292.609 151.771C301.606 147.654 307.058 150.779 310.05 154.127C311.593 155.879 312.715 157.952 313.335 160.191C313.955 162.431 314.056 164.779 313.63 167.063C312.224 174.582 305.597 177.047 303.257 177.692L302.836 212.918ZM264.312 210.934H300.848L301.254 176.08L302.078 175.941C302.409 175.886 310.191 174.453 311.617 166.71C311.99 164.724 311.904 162.679 311.366 160.73C310.827 158.781 309.851 156.976 308.509 155.451C304.809 151.315 299.723 150.69 293.387 153.596L293.327 153.621C290.361 154.798 287.123 155.138 283.973 154.604C280.824 154.07 277.886 152.682 275.488 150.595C270.347 146.042 269.875 139.877 269.91 137.451C268.082 136.876 263.383 135.299 260.797 133.518C257.097 130.984 254.913 126.133 254.306 119.099C252.577 119.038 250.868 119.48 249.39 120.369C246.443 122.274 245.755 125.89 244.872 130.468C243.973 135.195 242.863 141.082 238.741 146.989C237.929 148.158 237.04 149.273 236.081 150.328L234.238 152.312C233.944 152.627 233.778 153.038 233.769 153.466C233.761 153.895 233.912 154.311 234.193 154.638L236.939 157.827L235.654 173.411C235.493 175.177 235.046 184.234 241.724 190.013C241.884 190.151 242.05 190.29 242.226 190.419C244.933 192.531 248.261 193.717 251.71 193.797L264.317 194.184L264.312 210.934Z" fill="black"/>
<path d="M299.587 170.574C298.793 170.574 298.016 170.341 297.356 169.905C296.695 169.469 296.18 168.85 295.876 168.125C295.572 167.4 295.493 166.602 295.648 165.832C295.803 165.062 296.185 164.355 296.747 163.8C297.309 163.245 298.025 162.868 298.804 162.714C299.583 162.561 300.39 162.64 301.124 162.94C301.858 163.241 302.486 163.749 302.927 164.402C303.368 165.054 303.604 165.821 303.604 166.606C303.604 167.659 303.181 168.668 302.427 169.412C301.674 170.156 300.653 170.574 299.587 170.574ZM299.587 164.592C299.19 164.592 298.802 164.709 298.472 164.927C298.141 165.145 297.884 165.455 297.732 165.817C297.58 166.18 297.54 166.579 297.618 166.963C297.695 167.348 297.886 167.702 298.167 167.979C298.448 168.257 298.806 168.446 299.196 168.522C299.585 168.599 299.989 168.56 300.356 168.409C300.723 168.259 301.036 168.005 301.257 167.679C301.478 167.352 301.596 166.969 301.596 166.576C301.596 166.05 301.384 165.546 301.007 165.174C300.631 164.801 300.12 164.592 299.587 164.592Z" fill="black"/>
<path d="M296.56 167.583C296.3 167.584 296.049 167.484 295.862 167.305C295.675 167.127 295.565 166.883 295.556 166.626C295.485 164.578 296.103 162.921 297.398 161.701C299.969 159.275 304.262 159.583 304.427 159.603C304.559 159.613 304.688 159.649 304.806 159.708C304.924 159.767 305.029 159.848 305.115 159.948C305.201 160.047 305.266 160.162 305.307 160.286C305.348 160.41 305.364 160.541 305.354 160.672C305.343 160.802 305.307 160.929 305.247 161.045C305.187 161.162 305.105 161.266 305.004 161.351C304.904 161.436 304.788 161.5 304.662 161.541C304.536 161.581 304.404 161.597 304.272 161.587C304.236 161.587 300.677 161.339 298.749 163.149C298.304 163.596 297.964 164.135 297.753 164.726C297.542 165.318 297.466 165.948 297.529 166.572C297.537 166.834 297.44 167.089 297.258 167.28C297.076 167.472 296.825 167.584 296.56 167.593V167.583Z" fill="black"/>
<path d="M257.338 152.684C258.65 152.684 259.713 151.633 259.713 150.338C259.713 149.042 258.65 147.992 257.338 147.992C256.027 147.992 254.963 149.042 254.963 150.338C254.963 151.633 256.027 152.684 257.338 152.684Z" fill="black"/>
<path d="M263.247 194.199H281.673C281.839 194.197 281.999 194.253 282.128 194.355C282.256 194.458 282.345 194.602 282.378 194.762C282.411 194.921 282.387 195.088 282.31 195.232C282.233 195.376 282.107 195.49 281.955 195.553L263.247 203.434V194.199Z" fill="black"/>
<path d="M246.172 172.023C244.1 171.993 242.068 171.45 240.263 170.445C240.148 170.38 240.048 170.294 239.968 170.19C239.887 170.087 239.828 169.969 239.794 169.843C239.76 169.717 239.751 169.585 239.768 169.456C239.785 169.327 239.828 169.202 239.894 169.089C239.96 168.976 240.047 168.877 240.152 168.797C240.257 168.718 240.376 168.66 240.504 168.626C240.631 168.592 240.764 168.583 240.895 168.6C241.026 168.617 241.152 168.659 241.267 168.724C241.548 168.883 247.949 172.415 251.504 167.236C251.578 167.129 251.673 167.036 251.783 166.965C251.894 166.893 252.017 166.844 252.147 166.819C252.276 166.795 252.41 166.796 252.539 166.822C252.668 166.849 252.791 166.9 252.9 166.973C253.009 167.047 253.102 167.141 253.175 167.249C253.247 167.358 253.297 167.48 253.322 167.608C253.347 167.736 253.346 167.868 253.319 167.996C253.292 168.123 253.24 168.245 253.166 168.352C252.416 169.505 251.38 170.448 250.155 171.091C248.93 171.734 247.559 172.055 246.172 172.023Z" fill="black"/>
<path d="M330.816 140.304L245.77 121.133C247.868 112.049 253.533 104.161 261.519 99.203C269.504 94.2452 279.156 92.6242 288.351 94.6966L304.056 98.2381C313.25 100.312 321.234 105.908 326.253 113.797C331.271 121.685 332.912 131.22 330.816 140.304Z" fill="#C7B8F8"/>
<path d="M303.069 202.026L260.54 204.942C253.849 205.401 248.801 211.131 249.265 217.742C249.729 224.352 255.53 229.339 262.222 228.881L304.75 225.965C311.442 225.506 316.49 219.775 316.025 213.165C315.561 206.554 309.76 201.567 303.069 202.026Z" fill="#6DC8C2"/>
<path d="M330.249 215.433H227.681V344.487H330.249V215.433Z" fill="#6DC8C2"/>
<path d="M234.137 257.697H71.6124C64.7579 257.697 59.2013 263.186 59.2013 269.958V353.301C59.2013 360.072 64.7579 365.562 71.6124 365.562H234.137C240.992 365.562 246.549 360.072 246.549 353.301V269.958C246.549 263.186 240.992 257.697 234.137 257.697Z" fill="#FFBB45"/>
<path d="M286.082 407.241H244.847L315.493 215.433H340.33C369.094 215.433 389.031 243.739 379.095 270.394L342.424 368.449C338.171 379.828 330.49 389.646 320.417 396.582C310.343 403.518 298.36 407.238 286.082 407.241Z" fill="#6DC8C2"/>
<path d="M211.976 366.544C211.71 366.544 211.454 366.439 211.266 366.253C211.078 366.067 210.972 365.815 210.972 365.552V307.897C210.972 307.634 211.078 307.381 211.266 307.195C211.454 307.009 211.71 306.905 211.976 306.905C212.242 306.905 212.498 307.009 212.686 307.195C212.874 307.381 212.98 307.634 212.98 307.897V365.552C212.98 365.815 212.874 366.067 212.686 366.253C212.498 366.439 212.242 366.544 211.976 366.544Z" fill="black"/>
<path d="M306.159 364.897C315.377 360.101 323.968 360.8 327.658 361.153C333.171 361.682 338.522 363.293 343.398 365.889C344.1 363.603 344.525 361.242 344.663 358.856C344.829 355.974 345.12 343.579 335.5 334.964C328.883 329.012 321.141 328.084 318.189 327.881H210.199C203.587 327.887 197.249 330.486 192.576 335.107C187.903 339.727 185.277 345.991 185.276 352.522V382.595C185.276 389.131 187.904 395.4 192.583 400.022C197.262 404.644 203.607 407.241 210.224 407.241H286.84C287.807 407.241 288.771 407.216 289.732 407.166C289.015 406.264 288.395 405.292 287.879 404.265C282.753 393.993 290.148 381.449 291.665 378.899C295.054 372.968 300.081 368.112 306.159 364.897Z" fill="#6DC8C2"/>
<path d="M343.398 365.889C341.691 364.991 323.185 355.652 306.159 364.897C291.158 373.042 281.985 393.06 287.854 404.265C288.391 405.28 289.011 406.25 289.707 407.166C301.826 406.439 313.44 402.108 323.022 394.741C332.604 387.374 339.707 377.317 343.398 365.889Z" fill="#FFC1EB"/>
<path d="M101.797 274.229H74.9361C71.7529 274.229 69.1724 276.778 69.1724 279.923V293.245C69.1724 296.39 71.7529 298.939 74.9361 298.939H101.797C104.98 298.939 107.561 296.39 107.561 293.245V279.923C107.561 276.778 104.98 274.229 101.797 274.229Z" fill="#FB6D6D"/>
<path d="M103.268 309.271H72.3103C72.044 309.271 71.7886 309.167 71.6003 308.981C71.412 308.795 71.3062 308.542 71.3062 308.279C71.3062 308.016 71.412 307.764 71.6003 307.578C71.7886 307.392 72.044 307.287 72.3103 307.287H103.253C103.519 307.287 103.775 307.392 103.963 307.578C104.151 307.764 104.257 308.016 104.257 308.279C104.257 308.542 104.151 308.795 103.963 308.981C103.775 309.167 103.519 309.271 103.253 309.271H103.268Z" fill="black"/>
<path d="M95.0892 318.61H72.3103C72.044 318.61 71.7886 318.506 71.6003 318.32C71.412 318.134 71.3062 317.882 71.3062 317.618C71.3062 317.355 71.412 317.103 71.6003 316.917C71.7886 316.731 72.044 316.626 72.3103 316.626H95.0742C95.3405 316.626 95.5959 316.731 95.7842 316.917C95.9725 317.103 96.0783 317.355 96.0783 317.618C96.0783 317.882 95.9725 318.134 95.7842 318.32C95.5959 318.506 95.3405 318.61 95.0742 318.61H95.0892Z" fill="black"/>
<path d="M211.78 308.889C210.083 308.89 208.41 308.485 206.906 307.707C205.402 306.93 204.111 305.803 203.145 304.425L171.514 262.716C171.435 262.612 171.378 262.493 171.345 262.367C171.312 262.241 171.305 262.11 171.324 261.981C171.342 261.852 171.386 261.728 171.454 261.615C171.521 261.503 171.61 261.405 171.715 261.327C171.821 261.249 171.941 261.192 172.068 261.16C172.196 261.128 172.329 261.12 172.46 261.139C172.59 261.157 172.716 261.201 172.829 261.267C172.943 261.334 173.042 261.421 173.121 261.526L204.781 303.264C205.587 304.419 206.672 305.357 207.938 305.993C209.204 306.628 210.611 306.94 212.03 306.9C213.449 306.861 214.836 306.471 216.064 305.767C217.292 305.062 218.322 304.066 219.06 302.867L242.818 261.63C242.884 261.517 242.972 261.418 243.077 261.338C243.181 261.259 243.301 261.2 243.428 261.167C243.556 261.133 243.689 261.124 243.82 261.141C243.951 261.158 244.077 261.2 244.191 261.265C244.306 261.33 244.406 261.417 244.487 261.521C244.567 261.624 244.626 261.742 244.66 261.868C244.695 261.994 244.703 262.125 244.686 262.255C244.669 262.384 244.626 262.509 244.56 262.622L220.792 303.884C219.885 305.37 218.615 306.607 217.099 307.482C215.582 308.357 213.867 308.843 212.112 308.894L211.78 308.889Z" fill="black"/>
<path d="M169.596 366.544C169.33 366.544 169.075 366.44 168.886 366.253C168.698 366.067 168.592 365.815 168.592 365.552V273.232C168.165 259.676 177.057 256.864 177.434 256.745C177.56 256.706 177.693 256.693 177.824 256.706C177.955 256.718 178.083 256.756 178.2 256.818C178.316 256.879 178.419 256.962 178.503 257.063C178.587 257.163 178.65 257.279 178.689 257.404C178.727 257.529 178.741 257.66 178.728 257.79C178.715 257.92 178.677 258.046 178.615 258.161C178.553 258.276 178.469 258.378 178.367 258.461C178.265 258.544 178.147 258.606 178.021 258.644C177.705 258.743 170.224 261.199 170.601 273.202V365.552C170.601 365.815 170.495 366.067 170.306 366.253C170.118 366.44 169.863 366.544 169.596 366.544Z" fill="black"/>
<path d="M226.225 206.832H98.4531C95.6192 206.832 93.3219 209.102 93.3219 211.901V252.424C93.3219 255.224 95.6192 257.493 98.4531 257.493H226.225C229.059 257.493 231.356 255.224 231.356 252.424V211.901C231.356 209.102 229.059 206.832 226.225 206.832Z" fill="#FFC1EB"/>
<path d="M231.356 229.688H93.3219V234.633H231.356V229.688Z" fill="#FB6D6D"/>
<path d="M218.147 165.024H138.644C135.106 165.024 132.237 167.858 132.237 171.353V200.701C132.237 204.197 135.106 207.03 138.644 207.03H218.147C221.685 207.03 224.553 204.197 224.553 200.701V171.353C224.553 167.858 221.685 165.024 218.147 165.024Z" fill="#FFBB45"/>
<path d="M224.553 182.672H132.237V186.03H224.553V182.672Z" fill="#6DC8C2"/>
<path d="M179.231 165.024H175.159V207.03H179.231V165.024Z" fill="#6DC8C2"/>
<path d="M212.242 127.016H173.779C170.371 127.016 167.608 129.745 167.608 133.111V158.933C167.608 162.3 170.371 165.029 173.779 165.029H212.242C215.65 165.029 218.413 162.3 218.413 158.933V133.111C218.413 129.745 215.65 127.016 212.242 127.016Z" fill="#C7B8F8"/>
<path d="M192.641 147.977C190.263 147.976 187.975 147.075 186.25 145.457L168.893 129.377C168.699 129.197 168.585 128.948 168.577 128.684C168.568 128.421 168.666 128.165 168.848 127.973C169.031 127.781 169.283 127.669 169.549 127.66C169.816 127.652 170.075 127.748 170.269 127.929L187.626 144.014C188.961 145.264 190.726 145.97 192.566 145.988C194.407 146.006 196.186 145.337 197.547 144.113L215.772 127.914C215.971 127.738 216.234 127.648 216.501 127.663C216.768 127.679 217.017 127.798 217.195 127.996C217.373 128.193 217.464 128.452 217.448 128.716C217.433 128.979 217.312 129.226 217.112 129.402L198.887 145.601C197.175 147.13 194.949 147.976 192.641 147.977Z" fill="black"/>
<path d="M174.527 349.467C174.592 350.786 152.104 349.605 150.382 349.516C146.737 349.333 143.097 349.129 139.457 348.886C135.571 348.628 131.655 347.726 127.769 347.835C125.956 347.889 124.184 348.39 123.25 350.082C121.142 353.995 128.889 356.738 131.409 357.596C136.264 359.243 139.899 359.292 139.894 359.848C139.894 360.205 138.388 360.577 135.777 360.81C128.969 361.425 116.036 359.997 104.021 355.498C101.25 354.461 98.4983 352.909 95.5311 352.482C94.7713 352.345 93.9883 352.41 93.2628 352.672C92.5372 352.934 91.8956 353.382 91.404 353.97C90.4802 355.195 90.2694 357.373 91.2835 358.608C91.8722 359.214 92.5491 359.731 93.2918 360.141C92.6237 360.43 91.9974 360.805 91.4291 361.257C89.9982 362.596 90.425 365.061 91.4291 366.514C92.7646 368.463 94.9938 369.728 96.9519 370.948C99.2503 372.378 101.625 373.685 104.066 374.862C104.43 375.018 104.777 375.211 105.101 375.437C105.682 375.902 106.19 376.45 106.607 377.064C107.097 377.673 107.632 378.245 108.208 378.775C112.576 382.942 118.481 385.466 124.249 387.063C130.018 388.661 136.073 389.469 142.098 390.188C150.719 391.225 159.726 390.833 167.955 387.912C169.004 387.54 176.389 384.936 176.329 383.785C175.727 372.344 175.126 360.904 174.527 349.467Z" fill="white"/>
<path d="M150.543 391.706C147.673 391.7 144.806 391.521 141.957 391.17C135.511 390.397 129.712 389.623 123.993 388.041C116.964 386.091 111.417 383.22 107.525 379.509C106.913 378.944 106.344 378.334 105.823 377.684L105.643 377.446C105.342 377.001 104.975 376.603 104.553 376.266C104.292 376.08 104.011 375.923 103.715 375.799C101.159 374.693 96.5051 371.831 96.4599 371.831L95.9578 371.534C94.0801 370.383 91.9412 369.054 90.6007 367.109C89.2602 365.165 88.9841 362.229 90.7463 360.577C90.9426 360.396 91.1524 360.231 91.3739 360.081C91.056 359.839 90.7648 359.565 90.5053 359.263C89.1598 357.621 89.4711 354.908 90.6057 353.405C91.2009 352.668 91.9858 352.104 92.8781 351.77C93.7704 351.437 94.7371 351.347 95.6766 351.51C97.8858 351.828 99.9392 352.716 101.927 353.569C102.771 353.936 103.574 354.278 104.383 354.561C116.327 359.025 128.984 360.418 135.692 359.813H135.812C134.213 359.48 132.635 359.053 131.088 358.534C125.931 356.788 123.009 354.893 122.151 352.74C121.95 352.236 121.865 351.694 121.903 351.153C121.941 350.613 122.101 350.087 122.372 349.616C123.321 347.85 125.123 346.917 127.719 346.843C130.18 346.837 132.638 347.026 135.069 347.408C136.54 347.602 138.081 347.8 139.542 347.904C142.936 348.132 146.501 348.341 150.447 348.539H150.608C165.354 349.293 172.945 349.199 173.929 348.767C173.801 348.846 173.696 348.957 173.627 349.09C173.558 349.223 173.527 349.372 173.538 349.521L175.546 349.422L177.338 383.735C177.378 384.484 177.439 385.615 168.301 388.849C162.593 390.807 156.585 391.774 150.543 391.706ZM94.8131 353.42C94.3187 353.4 93.8265 353.494 93.3757 353.696C92.925 353.897 92.5283 354.2 92.2174 354.581C91.5597 355.449 91.3538 357.135 92.0668 358.008C92.576 358.517 93.1579 358.95 93.7939 359.293L95.5361 360.255L93.7336 361.088C93.1675 361.332 92.6345 361.645 92.1471 362.021C91.143 362.988 91.5647 364.952 92.2827 365.989C93.3922 367.601 95.2449 368.741 97.0373 369.837L97.5393 370.14C99.7932 371.54 102.119 372.823 104.508 373.984C104.937 374.166 105.344 374.394 105.723 374.664C106.307 375.114 106.816 375.653 107.229 376.261L107.405 376.489C107.866 377.059 108.37 377.595 108.911 378.091C112.561 381.563 117.813 384.281 124.526 386.141C130.109 387.689 135.827 388.447 142.193 389.211C151.673 390.352 160.218 389.603 167.593 386.989C172.719 385.174 174.788 384.013 175.29 383.592L173.583 350.856C171.324 351.178 165.635 351.317 150.488 350.543H150.322C146.371 350.345 142.791 350.136 139.387 349.908C137.846 349.809 136.289 349.606 134.788 349.412C132.474 349.052 130.136 348.869 127.794 348.867C125.916 348.921 124.782 349.467 124.159 350.588C124.021 350.808 123.937 351.059 123.916 351.317C123.896 351.576 123.937 351.836 124.039 352.076C124.46 353.142 126.147 354.814 131.755 356.718C133.789 357.385 135.87 357.904 137.981 358.271C139.884 358.633 140.933 358.831 140.918 359.922C140.918 360.885 140.095 361.475 135.897 361.857C128.964 362.482 115.93 361.068 103.69 356.485C102.836 356.168 101.973 355.796 101.144 355.439C99.2765 354.635 97.3485 353.802 95.4105 353.524C95.2213 353.474 95.0282 353.439 94.8332 353.42H94.8131Z" fill="black"/>
<path d="M127.262 371.96C122.035 371.96 115.493 370.522 107.716 367.655C102.62 365.761 97.6512 363.547 92.8399 361.028C92.7242 360.966 92.6222 360.881 92.5396 360.779C92.4571 360.677 92.3956 360.56 92.3588 360.435C92.322 360.31 92.3105 360.179 92.325 360.049C92.3395 359.919 92.3797 359.794 92.4433 359.679C92.5069 359.565 92.5927 359.464 92.6958 359.383C92.7988 359.301 92.9172 359.24 93.044 359.204C93.1708 359.168 93.3036 359.156 93.4349 359.171C93.5661 359.185 93.6932 359.225 93.8089 359.287C94.065 359.426 119.696 373.175 132.654 369.267C132.909 369.19 133.185 369.216 133.42 369.34C133.655 369.464 133.831 369.675 133.909 369.927C133.987 370.179 133.961 370.451 133.835 370.683C133.71 370.916 133.496 371.09 133.241 371.167C131.299 371.72 129.284 371.988 127.262 371.96Z" fill="black"/>
<path d="M126.273 381.474C116.518 381.474 105.306 376.618 104.734 376.365C104.606 376.317 104.489 376.244 104.391 376.15C104.292 376.057 104.214 375.944 104.162 375.819C104.109 375.695 104.082 375.561 104.084 375.426C104.085 375.291 104.115 375.157 104.17 375.034C104.225 374.91 104.306 374.799 104.406 374.708C104.507 374.616 104.625 374.546 104.754 374.501C104.883 374.456 105.02 374.437 105.156 374.447C105.293 374.456 105.426 374.493 105.547 374.554C105.713 374.624 122.025 381.687 131.72 378.79C131.846 378.752 131.979 378.74 132.11 378.752C132.242 378.765 132.369 378.803 132.485 378.865C132.602 378.926 132.705 379.01 132.788 379.111C132.872 379.212 132.935 379.328 132.973 379.452C133.011 379.577 133.024 379.708 133.011 379.838C132.998 379.967 132.959 380.093 132.897 380.208C132.835 380.323 132.75 380.425 132.648 380.507C132.546 380.59 132.429 380.652 132.303 380.69C130.342 381.24 128.311 381.504 126.273 381.474Z" fill="black"/>
<path d="M125.7 128.652H104.001C100.477 128.652 97.6197 131.475 97.6197 134.956V200.647C97.6197 204.128 100.477 206.951 104.001 206.951H125.7C129.225 206.951 132.082 204.128 132.082 200.647V134.956C132.082 131.475 129.225 128.652 125.7 128.652Z" fill="#6DC8C2"/>
<path d="M114.861 155.287H114.785C110.538 155.263 106.19 153.189 102.856 149.593C100.868 147.414 99.3559 144.854 98.4127 142.072C97.4695 139.29 97.1158 136.346 97.3736 133.424C97.3844 133.294 97.421 133.167 97.4813 133.051C97.5417 132.935 97.6246 132.832 97.7253 132.748C97.8261 132.664 97.9426 132.6 98.0684 132.56C98.1941 132.52 98.3265 132.505 98.4581 132.516C98.5897 132.527 98.7178 132.563 98.8353 132.623C98.9527 132.682 99.057 132.764 99.1424 132.864C99.2277 132.963 99.2924 133.078 99.3326 133.202C99.3728 133.327 99.3879 133.458 99.3769 133.587C99.1408 136.237 99.4593 138.906 100.313 141.428C101.166 143.951 102.536 146.273 104.337 148.249C107.295 151.439 111.105 153.279 114.795 153.299H114.861C118.978 153.299 122.166 151.032 124.114 149.122C127.905 145.412 130.46 139.758 130.48 135.051C130.48 134.826 130.48 134.627 130.48 134.455C130.475 134.325 130.495 134.195 130.541 134.073C130.587 133.95 130.656 133.838 130.746 133.742C130.835 133.646 130.943 133.569 131.063 133.514C131.183 133.46 131.312 133.429 131.444 133.424C131.71 133.413 131.969 133.507 132.164 133.684C132.36 133.862 132.477 134.109 132.488 134.371C132.488 134.573 132.488 134.801 132.488 135.056C132.488 140.259 129.672 146.464 125.53 150.531C122.352 153.646 118.661 155.287 114.861 155.287Z" fill="black"/>
<path d="M100.12 206.544C99.9712 206.545 99.8242 206.513 99.6896 206.45C99.555 206.387 99.4362 206.296 99.3417 206.182C99.1737 205.979 99.0941 205.718 99.1205 205.457C99.1468 205.196 99.277 204.955 99.4823 204.789L114.454 192.622V154.256C114.454 153.993 114.56 153.741 114.748 153.555C114.936 153.369 115.192 153.264 115.458 153.264C115.724 153.264 115.98 153.369 116.168 153.555C116.357 153.741 116.462 153.993 116.462 154.256V193.574L100.758 206.336C100.576 206.476 100.35 206.549 100.12 206.544Z" fill="black"/>
<path d="M130.55 206.098C130.32 206.098 130.096 206.019 129.918 205.875L114.856 193.862C114.661 193.693 114.54 193.456 114.518 193.201C114.496 192.946 114.574 192.693 114.737 192.493C114.9 192.294 115.134 192.165 115.391 192.133C115.648 192.1 115.908 192.167 116.116 192.319L131.178 204.332C131.34 204.461 131.458 204.636 131.515 204.833C131.572 205.031 131.566 205.241 131.497 205.435C131.428 205.629 131.3 205.796 131.131 205.915C130.961 206.034 130.758 206.098 130.55 206.098Z" fill="black"/>
<path d="M193.013 166.016C192.747 166.016 192.491 165.912 192.303 165.726C192.115 165.54 192.009 165.287 192.009 165.024V146.955C192.009 146.692 192.115 146.439 192.303 146.253C192.491 146.067 192.747 145.963 193.013 145.963C193.279 145.963 193.535 146.067 193.723 146.253C193.911 146.439 194.017 146.692 194.017 146.955V165.024C194.017 165.287 193.911 165.54 193.723 165.726C193.535 165.912 193.279 166.016 193.013 166.016Z" fill="black"/>
<path d="M189.308 350.112C189.308 345.805 185.774 342.314 181.415 342.314C177.056 342.314 173.523 345.805 173.523 350.112V383.795C173.523 388.101 177.056 391.592 181.415 391.592C185.774 391.592 189.308 388.101 189.308 383.795V350.112Z" fill="#6DC8C2"/>
<path d="M189.293 382.56C189.026 382.56 188.771 382.455 188.583 382.269C188.394 382.083 188.288 381.831 188.288 381.568V350.112C188.288 349.849 188.394 349.596 188.583 349.41C188.771 349.224 189.026 349.12 189.293 349.12C189.559 349.12 189.814 349.224 190.003 349.41C190.191 349.596 190.297 349.849 190.297 350.112V381.568C190.297 381.831 190.191 382.083 190.003 382.269C189.814 382.455 189.559 382.56 189.293 382.56Z" fill="black"/>
<path d="M256.49 222.431C256.223 222.437 255.966 222.338 255.773 222.157C255.58 221.975 255.469 221.725 255.463 221.462C255.457 221.199 255.557 220.944 255.741 220.754C255.925 220.563 256.178 220.453 256.444 220.447L308.218 218.359C308.35 218.354 308.481 218.374 308.605 218.42C308.729 218.465 308.843 218.533 308.94 218.622C309.037 218.71 309.115 218.817 309.17 218.935C309.226 219.053 309.257 219.181 309.262 219.312C309.267 219.442 309.247 219.572 309.201 219.694C309.156 219.817 309.086 219.929 308.996 220.025C308.907 220.12 308.799 220.198 308.679 220.253C308.56 220.307 308.43 220.338 308.298 220.343L256.53 222.436L256.49 222.431Z" fill="black"/>
<path d="M274.78 328.873H246.529C246.262 328.873 246.007 328.768 245.819 328.582C245.63 328.396 245.524 328.144 245.524 327.881C245.524 327.618 245.63 327.365 245.819 327.179C246.007 326.993 246.262 326.889 246.529 326.889H273.354L292.875 273.886C292.966 273.639 293.153 273.437 293.394 273.326C293.636 273.215 293.912 273.203 294.162 273.293C294.413 273.383 294.617 273.568 294.729 273.807C294.842 274.045 294.854 274.318 294.762 274.566L274.78 328.873Z" fill="black"/>
<path d="M261.261 109.617C259.799 109.35 258.396 110.303 258.126 111.746C257.856 113.188 258.821 114.574 260.283 114.841L275.242 117.575C276.703 117.842 278.107 116.889 278.377 115.446C278.647 114.004 277.681 112.618 276.22 112.351L261.261 109.617Z" fill="black"/>
<path d="M408.235 121.222H367.869C361.336 121.222 356.04 126.454 356.04 132.908V172.786C356.04 179.24 361.336 184.472 367.869 184.472H408.235C414.768 184.472 420.064 179.24 420.064 172.786V132.908C420.064 126.454 414.768 121.222 408.235 121.222Z" fill="white"/>
<path d="M408.235 185.464H367.869C364.466 185.459 361.204 184.121 358.799 181.743C356.393 179.366 355.04 176.143 355.036 172.781V132.928C355.04 129.567 356.393 126.344 358.799 123.968C361.205 121.591 364.467 120.254 367.869 120.25H408.235C411.638 120.254 414.899 121.591 417.305 123.968C419.711 126.344 421.064 129.567 421.068 132.928V172.801C421.059 176.159 419.703 179.377 417.298 181.75C414.893 184.124 411.635 185.459 408.235 185.464ZM367.869 122.214C366.446 122.215 365.037 122.494 363.723 123.033C362.409 123.572 361.216 124.361 360.211 125.356C359.205 126.351 358.408 127.532 357.865 128.831C357.322 130.13 357.043 131.522 357.044 132.928V172.801C357.047 175.637 358.188 178.356 360.217 180.362C362.247 182.367 364.998 183.496 367.869 183.5H408.235C411.106 183.496 413.858 182.367 415.887 180.362C417.916 178.356 419.057 175.637 419.06 172.801V132.928C419.057 130.092 417.916 127.374 415.886 125.369C413.857 123.364 411.105 122.237 408.235 122.234L367.869 122.214Z" fill="black"/>
<path d="M402.446 140.527H373.663C371.245 140.527 369.285 142.463 369.285 144.852V168.943C369.285 171.331 371.245 173.268 373.663 173.268H402.446C404.864 173.268 406.824 171.331 406.824 168.943V144.852C406.824 142.463 404.864 140.527 402.446 140.527Z" fill="#FFC1EB"/>
<path d="M406.819 152.227H369.285C369.018 152.227 368.763 152.123 368.575 151.937C368.386 151.751 368.28 151.498 368.28 151.235C368.28 150.972 368.386 150.72 368.575 150.534C368.763 150.348 369.018 150.243 369.285 150.243H406.819C407.086 150.243 407.341 150.348 407.529 150.534C407.718 150.72 407.824 150.972 407.824 151.235C407.824 151.498 407.718 151.751 407.529 151.937C407.341 152.123 407.086 152.227 406.819 152.227Z" fill="#FB6D6D"/>
<path d="M389.618 141.519H388.062C378.814 141.519 376.163 138.339 375.571 135.671C375.459 135.182 375.456 134.676 375.562 134.186C375.667 133.697 375.879 133.235 376.181 132.834C376.484 132.433 376.871 132.101 377.316 131.861C377.761 131.621 378.253 131.479 378.759 131.445C384.733 131.038 388.8 139.743 388.976 140.115L389.618 141.519ZM379.14 133.424H378.884C378.67 133.439 378.461 133.5 378.272 133.602C378.083 133.704 377.919 133.844 377.79 134.014C377.658 134.188 377.566 134.388 377.519 134.6C377.473 134.812 377.472 135.032 377.519 135.244C378.081 137.749 381.204 139.237 386.375 139.495C384.934 137.015 382.168 133.424 379.14 133.424Z" fill="#FB6D6D"/>
<path d="M387.927 141.519H386.365L387.008 140.115C387.178 139.743 391.245 131.033 397.225 131.445C397.731 131.478 398.223 131.62 398.669 131.859C399.114 132.099 399.502 132.431 399.806 132.832C400.109 133.234 400.321 133.695 400.426 134.185C400.532 134.675 400.529 135.182 400.418 135.671C399.821 138.339 397.15 141.519 387.927 141.519ZM396.838 133.424C393.826 133.424 391.044 137.025 389.598 139.505C394.775 139.247 397.898 137.759 398.455 135.254C398.503 135.042 398.504 134.822 398.458 134.609C398.411 134.397 398.317 134.197 398.184 134.024C398.056 133.853 397.892 133.711 397.703 133.609C397.514 133.507 397.304 133.447 397.089 133.434L396.838 133.424Z" fill="#FB6D6D"/>
<path d="M398.053 158.938C397.877 158.938 397.704 158.892 397.552 158.805C397.399 158.718 397.273 158.593 397.185 158.442L387.831 142.511L378.919 157.862C378.786 158.09 378.567 158.257 378.309 158.325C378.052 158.394 377.777 158.358 377.546 158.227C377.315 158.095 377.147 157.878 377.077 157.624C377.008 157.369 377.044 157.098 377.177 156.87L387.821 138.518L398.922 157.426C399.055 157.653 399.092 157.923 399.024 158.176C398.957 158.43 398.79 158.647 398.56 158.78C398.409 158.877 398.234 158.931 398.053 158.938Z" fill="#FB6D6D"/>
<path d="M388.213 174.26C387.946 174.26 387.691 174.155 387.503 173.969C387.314 173.783 387.209 173.531 387.209 173.268V141.568C387.209 141.305 387.314 141.053 387.503 140.867C387.691 140.681 387.946 140.576 388.213 140.576C388.479 140.576 388.734 140.681 388.923 140.867C389.111 141.053 389.217 141.305 389.217 141.568V173.268C389.217 173.531 389.111 173.783 388.923 173.969C388.734 174.155 388.479 174.26 388.213 174.26Z" fill="#FB6D6D"/>
<path d="M122.316 190.067H68.349C60.524 190.067 54.1806 196.334 54.1806 204.065C54.1806 211.795 60.524 218.062 68.349 218.062H122.316C130.141 218.062 136.485 211.795 136.485 204.065C136.485 196.334 130.141 190.067 122.316 190.067Z" fill="white"/>
<path d="M122.311 219.053H68.349C64.325 219.053 60.4658 217.474 57.6204 214.663C54.775 211.852 53.1764 208.04 53.1764 204.064C53.1764 200.089 54.775 196.276 57.6204 193.465C60.4658 190.654 64.325 189.075 68.349 189.075H122.311C126.335 189.075 130.195 190.654 133.04 193.465C135.885 196.276 137.484 200.089 137.484 204.064C137.484 208.04 135.885 211.852 133.04 214.663C130.195 217.474 126.335 219.053 122.311 219.053ZM68.349 191.059C64.8576 191.059 61.5092 192.429 59.0404 194.868C56.5717 197.307 55.1847 200.615 55.1847 204.064C55.1847 207.513 56.5717 210.821 59.0404 213.26C61.5092 215.699 64.8576 217.069 68.349 217.069H122.311C125.803 217.069 129.151 215.699 131.62 213.26C134.089 210.821 135.476 207.513 135.476 204.064C135.476 200.615 134.089 197.307 131.62 194.868C129.151 192.429 125.803 191.059 122.311 191.059H68.349Z" fill="black"/>
<path d="M72.9078 208.622C75.456 208.622 77.5218 206.582 77.5218 204.064C77.5218 201.547 75.456 199.506 72.9078 199.506C70.3595 199.506 68.2938 201.547 68.2938 204.064C68.2938 206.582 70.3595 208.622 72.9078 208.622Z" fill="#6DC8C2"/>
<path d="M95.3302 208.622C97.8785 208.622 99.9442 206.582 99.9442 204.064C99.9442 201.547 97.8785 199.506 95.3302 199.506C92.782 199.506 90.7162 201.547 90.7162 204.064C90.7162 206.582 92.782 208.622 95.3302 208.622Z" fill="#6DC8C2"/>
<path d="M117.753 208.622C120.301 208.622 122.367 206.582 122.367 204.064C122.367 201.547 120.301 199.506 117.753 199.506C115.204 199.506 113.139 201.547 113.139 204.064C113.139 206.582 115.204 208.622 117.753 208.622Z" fill="#6DC8C2"/>
<path d="M432.159 249.513H334.23C324.908 249.513 317.351 256.979 317.351 266.188V372.099C317.351 381.309 324.908 388.775 334.23 388.775H432.159C441.481 388.775 449.038 381.309 449.038 372.099V266.188C449.038 256.979 441.481 249.513 432.159 249.513Z" fill="white"/>
<path d="M432.159 389.767H334.23C329.489 389.762 324.943 387.899 321.59 384.586C318.238 381.274 316.352 376.784 316.346 372.099V266.189C316.352 261.504 318.238 257.014 321.59 253.701C324.943 250.389 329.489 248.526 334.23 248.521H432.159C436.9 248.526 441.446 250.389 444.799 253.701C448.151 257.014 450.037 261.504 450.043 266.189V372.099C450.037 376.784 448.151 381.274 444.799 384.586C441.446 387.899 436.9 389.762 432.159 389.767ZM334.23 250.505C330.021 250.51 325.986 252.164 323.01 255.104C320.034 258.045 318.36 262.031 318.355 266.189V372.099C318.359 376.258 320.033 380.245 323.009 383.185C325.985 386.125 330.021 387.779 334.23 387.783H432.159C436.368 387.778 440.403 386.124 443.379 383.184C446.355 380.243 448.029 376.257 448.034 372.099V266.189C448.029 262.031 446.355 258.045 443.379 255.104C440.403 252.164 436.368 250.51 432.159 250.505H334.23Z" fill="black"/>
<path d="M350.281 301.886H337.182C333.381 301.886 330.299 304.93 330.299 308.686V321.627C330.299 325.382 333.381 328.427 337.182 328.427H350.281C354.083 328.427 357.165 325.382 357.165 321.627V308.686C357.165 304.93 354.083 301.886 350.281 301.886Z" fill="#C7B8F8"/>
<path d="M350.281 342.181H337.182C333.381 342.181 330.299 345.225 330.299 348.981V361.921C330.299 365.677 333.381 368.722 337.182 368.722H350.281C354.083 368.722 357.165 365.677 357.165 361.921V348.981C357.165 345.225 354.083 342.181 350.281 342.181Z" fill="#C7B8F8"/>
<path d="M434.358 308.7H373.718C373.452 308.7 373.196 308.596 373.008 308.41C372.82 308.224 372.714 307.971 372.714 307.708C372.714 307.445 372.82 307.193 373.008 307.007C373.196 306.821 373.452 306.716 373.718 306.716H434.358C434.624 306.716 434.88 306.821 435.068 307.007C435.256 307.193 435.362 307.445 435.362 307.708C435.362 307.971 435.256 308.224 435.068 308.41C434.88 308.596 434.624 308.7 434.358 308.7Z" fill="black"/>
<path d="M411.097 323.313H373.718C373.452 323.313 373.196 323.208 373.008 323.022C372.82 322.836 372.714 322.584 372.714 322.321C372.714 322.058 372.82 321.805 373.008 321.619C373.196 321.433 373.452 321.329 373.718 321.329H411.097C411.363 321.329 411.619 321.433 411.807 321.619C411.995 321.805 412.101 322.058 412.101 322.321C412.101 322.584 411.995 322.836 411.807 323.022C411.619 323.208 411.363 323.313 411.097 323.313Z" fill="black"/>
<path d="M434.358 349.134H373.718C373.452 349.134 373.196 349.03 373.008 348.844C372.82 348.658 372.714 348.405 372.714 348.142C372.714 347.879 372.82 347.627 373.008 347.441C373.196 347.255 373.452 347.15 373.718 347.15H434.358C434.624 347.15 434.88 347.255 435.068 347.441C435.256 347.627 435.362 347.879 435.362 348.142C435.362 348.405 435.256 348.658 435.068 348.844C434.88 349.03 434.624 349.134 434.358 349.134Z" fill="black"/>
<path d="M411.097 363.747H373.718C373.452 363.747 373.196 363.642 373.008 363.456C372.82 363.27 372.714 363.018 372.714 362.755C372.714 362.492 372.82 362.239 373.008 362.053C373.196 361.867 373.452 361.763 373.718 361.763H411.097C411.363 361.763 411.619 361.867 411.807 362.053C411.995 362.239 412.101 362.492 412.101 362.755C412.101 363.018 411.995 363.27 411.807 363.456C411.619 363.642 411.363 363.747 411.097 363.747Z" fill="black"/>
<path d="M343.393 264.125H344.071C346.209 264.125 348.26 264.964 349.772 266.458C351.284 267.952 352.134 269.978 352.134 272.091V280.736H335.33V272.091C335.33 269.978 336.179 267.952 337.691 266.458C339.203 264.964 341.254 264.125 343.393 264.125Z" fill="#FFBB45"/>
<path d="M353.299 279.124H334.165C332.656 279.124 331.434 280.332 331.434 281.822V282.045C331.434 283.536 332.656 284.744 334.165 284.744H353.299C354.807 284.744 356.03 283.536 356.03 282.045V281.822C356.03 280.332 354.807 279.124 353.299 279.124Z" fill="#FFBB45"/>
<path d="M343.734 288.067C345.592 288.067 347.098 286.579 347.098 284.744C347.098 282.908 345.592 281.42 343.734 281.42C341.877 281.42 340.37 282.908 340.37 284.744C340.37 286.579 341.877 288.067 343.734 288.067Z" fill="#FFBB45"/>
<path d="M343.639 260.47H343.83C344.426 260.47 344.998 260.704 345.42 261.121C345.842 261.537 346.079 262.102 346.079 262.692V267.567H341.395V262.692C341.395 262.103 341.631 261.539 342.052 261.122C342.472 260.706 343.043 260.471 343.639 260.47Z" fill="#FFBB45"/>
</svg>
