<svg width="107" height="20" viewBox="0 0 107 20" fill="none" xmlns="http://www.w3.org/2000/svg">
<path d="M0.517045 19V1.54545H7.40341C8.72727 1.54545 9.85511 1.7983 10.7869 2.30398C11.7188 2.80398 12.429 3.5 12.9176 4.39204C13.4119 5.27841 13.6591 6.30114 13.6591 7.46023C13.6591 8.61932 13.4091 9.64205 12.9091 10.5284C12.4091 11.4148 11.6847 12.1051 10.7358 12.5994C9.79261 13.0937 8.65057 13.3409 7.30966 13.3409H2.92045V10.3835H6.71307C7.4233 10.3835 8.00852 10.2614 8.46875 10.017C8.93466 9.76705 9.28125 9.4233 9.50852 8.9858C9.74148 8.54261 9.85795 8.03409 9.85795 7.46023C9.85795 6.88068 9.74148 6.375 9.50852 5.94318C9.28125 5.50568 8.93466 5.16761 8.46875 4.92898C8.00284 4.68466 7.41193 4.5625 6.69602 4.5625H4.20739V19H0.517045ZM19.3693 19.2472C18.5341 19.2472 17.7898 19.1023 17.1364 18.8125C16.483 18.517 15.9659 18.0824 15.5852 17.5085C15.2102 16.929 15.0227 16.2074 15.0227 15.3438C15.0227 14.6165 15.1563 14.0057 15.4233 13.5114C15.6903 13.017 16.054 12.6193 16.5142 12.3182C16.9744 12.017 17.4972 11.7898 18.0824 11.6364C18.6733 11.483 19.2926 11.375 19.9403 11.3125C20.7017 11.233 21.3153 11.1591 21.7812 11.0909C22.2472 11.017 22.5852 10.9091 22.7955 10.767C23.0057 10.625 23.1108 10.4148 23.1108 10.1364V10.0852C23.1108 9.54545 22.9403 9.12784 22.5994 8.83239C22.2642 8.53693 21.7869 8.3892 21.1676 8.3892C20.5142 8.3892 19.9943 8.53409 19.608 8.82386C19.2216 9.10795 18.9659 9.46591 18.8409 9.89773L15.483 9.625C15.6534 8.82955 15.9886 8.14205 16.4886 7.5625C16.9886 6.97727 17.6335 6.52841 18.4233 6.21591C19.2188 5.89773 20.1392 5.73864 21.1847 5.73864C21.9119 5.73864 22.608 5.82386 23.2727 5.99432C23.9432 6.16477 24.5369 6.42898 25.054 6.78693C25.5767 7.14489 25.9886 7.60511 26.2898 8.16761C26.5909 8.72443 26.7415 9.39205 26.7415 10.1705V19H23.2983V17.1847H23.196C22.9858 17.5938 22.7045 17.9545 22.3523 18.267C22 18.5739 21.5767 18.8153 21.0824 18.9915C20.5881 19.1619 20.017 19.2472 19.3693 19.2472ZM20.4091 16.7415C20.9432 16.7415 21.4148 16.6364 21.8239 16.4261C22.233 16.2102 22.554 15.9205 22.7869 15.5568C23.0199 15.1932 23.1364 14.7812 23.1364 14.321V12.9318C23.0227 13.0057 22.8665 13.0739 22.6676 13.1364C22.4744 13.1932 22.2557 13.2472 22.0114 13.2983C21.767 13.3437 21.5227 13.3864 21.2784 13.4261C21.0341 13.4602 20.8125 13.4915 20.6136 13.5199C20.1875 13.5824 19.8153 13.6818 19.4972 13.8182C19.179 13.9545 18.9318 14.1392 18.7557 14.3722C18.5795 14.5994 18.4915 14.8835 18.4915 15.2244C18.4915 15.7188 18.6705 16.0966 19.0284 16.358C19.392 16.6136 19.8523 16.7415 20.4091 16.7415ZM36.5213 5.90909V8.63636H28.6378V5.90909H36.5213ZM30.4276 2.77273H34.0582V14.9773C34.0582 15.3125 34.1094 15.5739 34.2116 15.7614C34.3139 15.9432 34.456 16.071 34.6378 16.1449C34.8253 16.2187 35.0412 16.2557 35.2855 16.2557C35.456 16.2557 35.6264 16.2415 35.7969 16.2131C35.9673 16.179 36.098 16.1534 36.1889 16.1364L36.7599 18.8381C36.5781 18.8949 36.3224 18.9602 35.9929 19.0341C35.6634 19.1136 35.2628 19.1619 34.7912 19.179C33.9162 19.2131 33.1491 19.0966 32.4901 18.8295C31.8366 18.5625 31.3281 18.1477 30.9645 17.5852C30.6009 17.0227 30.4219 16.3125 30.4276 15.4545V2.77273ZM38.8864 19V5.90909H42.4062V8.19318H42.5426C42.7813 7.38068 43.1818 6.76705 43.7443 6.35227C44.3068 5.93182 44.9545 5.72159 45.6875 5.72159C45.8693 5.72159 46.0653 5.73295 46.2756 5.75568C46.4858 5.77841 46.6705 5.80966 46.8295 5.84943V9.07102C46.6591 9.01989 46.4233 8.97443 46.1222 8.93466C45.821 8.89489 45.5455 8.875 45.2955 8.875C44.7614 8.875 44.2841 8.99148 43.8636 9.22443C43.4489 9.4517 43.1193 9.76989 42.875 10.179C42.6364 10.5881 42.517 11.0597 42.517 11.5938V19H38.8864ZM48.7067 19V5.90909H52.3374V19H48.7067ZM50.5305 4.22159C49.9908 4.22159 49.5277 4.04261 49.1413 3.68466C48.7607 3.32102 48.5703 2.88636 48.5703 2.38068C48.5703 1.88068 48.7607 1.4517 49.1413 1.09375C49.5277 0.730113 49.9908 0.548295 50.5305 0.548295C51.0703 0.548295 51.5305 0.730113 51.9112 1.09375C52.2976 1.4517 52.4908 1.88068 52.4908 2.38068C52.4908 2.88636 52.2976 3.32102 51.9112 3.68466C51.5305 4.04261 51.0703 4.22159 50.5305 4.22159ZM61.1605 19.2557C59.8196 19.2557 58.6662 18.9716 57.7003 18.4034C56.7401 17.8295 56.0014 17.0341 55.4844 16.017C54.973 15 54.7173 13.8295 54.7173 12.5057C54.7173 11.1648 54.9759 9.98864 55.4929 8.97727C56.0156 7.96023 56.7571 7.16761 57.7173 6.59943C58.6776 6.02557 59.8196 5.73864 61.1435 5.73864C62.2855 5.73864 63.2855 5.94602 64.1435 6.36079C65.0014 6.77557 65.6804 7.35795 66.1804 8.10795C66.6804 8.85795 66.956 9.73864 67.0071 10.75H63.581C63.4844 10.0966 63.2287 9.57102 62.8139 9.1733C62.4048 8.76989 61.8679 8.56818 61.2031 8.56818C60.6406 8.56818 60.1491 8.72159 59.7287 9.02841C59.3139 9.32955 58.9901 9.76989 58.7571 10.3494C58.5241 10.929 58.4077 11.6307 58.4077 12.4545C58.4077 13.2898 58.5213 14 58.7486 14.5852C58.9815 15.1705 59.3082 15.6165 59.7287 15.9233C60.1491 16.2301 60.6406 16.3835 61.2031 16.3835C61.6179 16.3835 61.9901 16.2983 62.3196 16.1278C62.6548 15.9574 62.9304 15.7102 63.1463 15.3864C63.3679 15.0568 63.5128 14.6619 63.581 14.2017H67.0071C66.9503 15.2017 66.6776 16.0824 66.1889 16.8438C65.706 17.5994 65.0384 18.1903 64.1861 18.6165C63.3338 19.0426 62.3253 19.2557 61.1605 19.2557ZM72.6214 15.233L72.63 10.8778H73.1584L77.3516 5.90909H81.5192L75.8857 12.4886H75.0249L72.6214 15.233ZM69.3317 19V1.54545H72.9624V19H69.3317ZM77.5135 19L73.6612 13.2983L76.0817 10.733L81.7663 19H77.5135ZM88.9233 19V1.54545H100.48V4.58807H92.6136V8.74716H99.7131V11.7898H92.6136V19H88.9233ZM104.196 19.2216C103.634 19.2216 103.151 19.0227 102.747 18.625C102.349 18.2216 102.151 17.7386 102.151 17.1761C102.151 16.6193 102.349 16.142 102.747 15.7443C103.151 15.3466 103.634 15.1477 104.196 15.1477C104.741 15.1477 105.219 15.3466 105.628 15.7443C106.037 16.142 106.241 16.6193 106.241 17.1761C106.241 17.5511 106.145 17.8949 105.952 18.2074C105.764 18.5142 105.517 18.7614 105.21 18.9489C104.903 19.1307 104.565 19.2216 104.196 19.2216Z" fill="white"/>
</svg>
