<svg width="513" height="572" viewBox="0 0 513 572" fill="none" xmlns="http://www.w3.org/2000/svg">
<rect width="513" height="572" fill="#553299"/>
<g clip-path="url(#clip0_103_1271)">
<path d="M365.51 87H329C322.373 87 317 92.3726 317 99V116.81C317 123.437 322.373 128.81 329 128.81H365.51C372.137 128.81 377.51 123.437 377.51 116.81V99C377.51 92.3726 372.137 87 365.51 87Z" fill="#D8D8D8"/>
<path d="M338.62 93.73H329.52V122.08H338.62V93.73Z" fill="#AB8DE5"/>
<path d="M351.81 112.58H342.71V122.08H351.81V112.58Z" fill="#AB8DE5"/>
<path d="M364.99 104.59H355.89V122.08H364.99V104.59Z" fill="#AB8DE5"/>
</g>
<g clip-path="url(#clip1_103_1271)">
<path d="M250.432 367.41C269.973 367.41 285.814 364.11 285.814 360.04C285.814 355.97 269.973 352.67 250.432 352.67C230.891 352.67 215.05 355.97 215.05 360.04C215.05 364.11 230.891 367.41 250.432 367.41Z" fill="black"/>
<path d="M250.432 360.04L230.552 418.65" stroke="black" stroke-width="2.60995" stroke-miterlimit="10" stroke-linecap="round"/>
<path d="M250.432 360.04L270.306 418.65" stroke="black" stroke-width="2.60995" stroke-miterlimit="10" stroke-linecap="round"/>
<path d="M237.078 399.409L259.239 386.022" stroke="black" stroke-width="1.30497" stroke-miterlimit="10" stroke-linecap="round"/>
<path d="M241.534 386.022L263.691 399.409" stroke="black" stroke-width="1.30497" stroke-miterlimit="10" stroke-linecap="round"/>
<path d="M343.363 409.272C343.363 410.524 342.584 418.422 344.137 419.151C345.69 419.88 362.756 420.324 363.535 419.589C364.314 418.855 364.774 417.323 364.096 416.885C363.417 416.446 356.807 415.205 355.91 414.618C355.013 414.032 353.774 410.92 354.228 409.272" fill="#1F161E"/>
<path d="M292.323 306.027L301.949 302.783C301.534 286.264 297.436 249.352 291.61 243.863C290.249 242.573 263.192 240.334 258.36 240.334C229.554 240.334 221.016 243.435 218.84 245.479C212.107 251.813 210.004 281.197 210.004 291.483C210.004 301.769 240.839 307.1 240.839 307.1L276.984 309.445C276.984 309.445 284.917 310.211 291.773 310.592C291.919 308.61 292.323 306.027 292.323 306.027Z" fill="#78E5E1"/>
<path d="M320.954 315.605C323.584 314.871 349.732 310.851 355.422 316.134C361.113 321.416 379.053 397.158 379.053 398.901H364.616L345.118 359.401" fill="#1F161E"/>
<path d="M225.753 308.869C225.097 311.96 221.155 315.278 221.155 332.115C221.155 355.402 241.389 355.888 248.661 355.888C271.293 355.888 307.925 349.548 310.398 348.391C312.04 350.975 342.276 409.145 342.41 410.439H356.331C356.331 410.439 347.702 323.461 332.139 313.576C327.082 310.407 237.358 306.989 225.753 308.869Z" fill="#55B79D"/>
<path d="M307.269 291.848C303.609 291.848 300.598 292.667 292.323 294.199L291.885 309.118C299.734 306.138 301.562 301.996 303.838 301.996C309.523 301.996 312.494 304.759 315.853 304.759C318.196 304.759 322.407 303.026 322.407 300.67C322.407 295.736 311.794 291.848 307.269 291.848Z" fill="#F8CDBA"/>
<path d="M365.435 397.855C365.435 399.113 364.656 407.005 366.209 407.74C367.762 408.475 384.828 408.908 385.607 408.178C386.386 407.45 386.846 405.912 386.168 405.474C385.489 405.035 378.879 403.789 377.982 403.207C377.086 402.626 375.846 399.509 376.3 397.855" fill="#1F161E"/>
<path d="M263.439 243.841C263.439 245.838 251.172 245.896 251.172 243.841V227.649H263.439V243.841Z" fill="#F8CDBA"/>
<path d="M259.447 232.969C258.326 232.969 251.172 235.943 251.172 237.608V228.843C252.955 228.843 259.447 232.969 259.447 232.969Z" fill="#1F161E"/>
<path d="M261.813 233.682C270.018 233.682 276.67 227.414 276.67 219.683C276.67 211.95 270.018 205.683 261.813 205.683C253.608 205.683 246.956 211.95 246.956 219.683C246.956 227.414 253.608 233.682 261.813 233.682Z" fill="#F8CDBA"/>
<path d="M277.152 208.71C275.313 211.462 271.467 212.725 267.302 212.725C263.753 212.725 258.584 211.753 254.9 213.729C252.916 214.785 250.634 217.189 250.168 222.001C250.168 222.826 249.182 226.022 249.182 227.052C249.182 227.76 248.341 228.22 246.939 228.22C246.216 228.22 244.792 227.111 244.792 225.425C244.792 223.475 245.611 222.783 245.611 221.13C245.611 219.476 243.424 217.865 243.424 213.269C243.424 206.65 247.909 202.571 251.083 202.571C253.97 202.571 254.883 203.205 255.248 203.474C255.248 197.457 263.657 194.71 267.021 194.71C270.834 194.71 272.628 196.189 272.628 198.059C272.628 201.055 271.119 203.59 270.352 204.161C272.089 202.688 274.345 201.876 276.681 201.884C281.054 201.884 282.523 204.589 282.523 206.438C282.523 210.464 277.399 214.188 275.492 214.188C275.015 213.23 274.452 212.31 273.81 211.441" fill="#1F161E"/>
<path d="M250.634 224.516C252.383 224.516 253.801 223.18 253.801 221.531C253.801 219.883 252.383 218.547 250.634 218.547C248.884 218.547 247.466 219.883 247.466 221.531C247.466 223.18 248.884 224.516 250.634 224.516Z" fill="#F8CDBA"/>
<path d="M276.815 222.25C278.172 222.25 279.271 221.711 279.271 221.046C279.271 220.38 278.172 219.841 276.815 219.841C275.46 219.841 274.36 220.38 274.36 221.046C274.36 221.711 275.46 222.25 276.815 222.25Z" fill="#FA9E9F"/>
<path d="M261.376 222.25C262.732 222.25 263.832 221.711 263.832 221.046C263.832 220.38 262.732 219.841 261.376 219.841C260.02 219.841 258.92 220.38 258.92 221.046C258.92 221.711 260.02 222.25 261.376 222.25Z" fill="#FA9E9F"/>
<path d="M270.822 218.547C271.282 219.159 273.626 221.753 271.147 222.805" stroke="#1F161E" stroke-width="0.652487" stroke-miterlimit="10" stroke-linecap="round"/>
<path d="M266.203 225.832C265.463 225.832 264.324 224.971 263.719 224.189" stroke="#1F161E" stroke-width="0.652487" stroke-miterlimit="10" stroke-linecap="round"/>
<path d="M285.791 263.431C286.912 265.681 292.323 287.336 292.323 294.199" stroke="#1F161E" stroke-width="0.652487" stroke-miterlimit="10" stroke-linecap="round"/>
<path d="M210.004 289.735C210.004 314.084 210.24 321.147 220.617 321.147C244.523 321.147 280.662 302.657 287.103 302.657C292.788 302.657 295.759 305.42 299.124 305.42C301.461 305.42 305.677 303.682 305.677 301.331C305.677 296.396 295.064 292.508 290.54 292.508C280.359 292.508 239.701 301.758 238.715 301.758C237.728 301.758 236.052 301.352 236.052 299.778C236.052 296.92 238.031 290.321 238.294 289.74L210.004 289.735Z" fill="#F8CDBA"/>
<path d="M244.26 268.497C243.576 270.351 238.244 289.518 237.622 291.848" stroke="#1F161E" stroke-width="0.652487" stroke-miterlimit="10" stroke-linecap="round"/>
<path d="M367.784 305.874H315.92L325.317 275.428C325.55 274.693 326.03 274.049 326.685 273.593C327.34 273.137 328.135 272.893 328.949 272.898H372.959C373.537 272.89 374.108 273.009 374.629 273.247C375.149 273.483 375.603 273.831 375.956 274.262C376.309 274.693 376.55 275.196 376.66 275.731C376.771 276.265 376.747 276.816 376.592 277.341L367.784 305.874Z" fill="black"/>
<path d="M348.218 292.376C349.971 292.376 351.392 291.037 351.392 289.386C351.392 287.735 349.971 286.396 348.218 286.396C346.466 286.396 345.045 287.735 345.045 289.386C345.045 291.037 346.466 292.376 348.218 292.376Z" fill="white"/>
<path d="M322.081 303.74H285.69V305.879H322.081V303.74Z" fill="black"/>
<path d="M321.431 234.427H324.795C325.148 234.426 325.487 234.293 325.737 234.058C325.986 233.822 326.127 233.503 326.129 233.17V213.729C326.13 213.564 326.095 213.4 326.028 213.247C325.96 213.095 325.861 212.957 325.737 212.841L321.504 208.816C321.381 208.698 321.234 208.604 321.072 208.541C320.911 208.478 320.737 208.445 320.562 208.446H307.992C307.639 208.447 307.3 208.58 307.051 208.816C306.801 209.051 306.66 209.37 306.658 209.703V211.583" fill="#FBDC8E"/>
<path d="M315.78 211.584H303.446C303.048 211.585 302.668 211.735 302.387 212C302.107 212.266 301.949 212.625 301.949 213V236.145C301.949 236.33 301.988 236.515 302.064 236.687C302.14 236.86 302.251 237.016 302.391 237.147C302.531 237.279 302.698 237.383 302.88 237.454C303.063 237.525 303.259 237.561 303.457 237.56H319.929C320.327 237.56 320.709 237.411 320.991 237.145C321.273 236.88 321.431 236.52 321.431 236.145V216.898C321.431 216.523 321.273 216.162 320.994 215.895L316.845 211.985C316.559 211.725 316.177 211.581 315.78 211.584Z" fill="#D8D8D8"/>
<path d="M321.431 216.37H317.243C317.02 216.37 316.806 216.287 316.648 216.138C316.491 215.989 316.402 215.788 316.402 215.578V211.583" fill="#969696"/>
<path d="M326.146 213.2H321.958C321.735 213.2 321.521 213.117 321.364 212.968C321.206 212.82 321.117 212.618 321.117 212.408V208.446" fill="#64CCC4"/>
<path d="M308.643 213.972H304.674C304.383 213.972 304.147 214.194 304.147 214.468C304.147 214.742 304.383 214.965 304.674 214.965H308.643C308.934 214.965 309.17 214.742 309.17 214.468C309.17 214.194 308.934 213.972 308.643 213.972Z" fill="#969696"/>
<path d="M308.643 216.36H304.674C304.383 216.36 304.147 216.582 304.147 216.856C304.147 217.13 304.383 217.353 304.674 217.353H308.643C308.934 217.353 309.17 217.13 309.17 216.856C309.17 216.582 308.934 216.36 308.643 216.36Z" fill="#969696"/>
<path d="M318.936 220.443H304.444C304.153 220.443 303.917 220.666 303.917 220.94C303.917 221.214 304.153 221.436 304.444 221.436H318.936C319.227 221.436 319.463 221.214 319.463 220.94C319.463 220.666 319.227 220.443 318.936 220.443Z" fill="#969696"/>
<path d="M318.936 222.789H304.444C304.153 222.789 303.917 223.011 303.917 223.285C303.917 223.56 304.153 223.782 304.444 223.782H318.936C319.227 223.782 319.463 223.56 319.463 223.285C319.463 223.011 319.227 222.789 318.936 222.789Z" fill="#969696"/>
<path d="M318.936 225.135H304.444C304.153 225.135 303.917 225.357 303.917 225.631C303.917 225.905 304.153 226.128 304.444 226.128H318.936C319.227 226.128 319.463 225.905 319.463 225.631C319.463 225.357 319.227 225.135 318.936 225.135Z" fill="#969696"/>
<path d="M366.697 198.197H347.725C346.904 198.197 346.239 198.824 346.239 199.597V210.406C346.239 211.179 346.904 211.806 347.725 211.806H366.697C367.517 211.806 368.182 211.179 368.182 210.406V199.597C368.182 198.824 367.517 198.197 366.697 198.197Z" fill="#D8D8D8"/>
<path d="M346.929 198.625L357.211 205.001" stroke="#969696" stroke-width="0.53504" stroke-linecap="round" stroke-linejoin="round"/>
<path d="M368.182 198.197L357.211 205.001" stroke="#969696" stroke-width="0.53504" stroke-linecap="round" stroke-linejoin="round"/>
<path d="M368.182 201.155C369.916 201.155 371.322 199.831 371.322 198.197C371.322 196.563 369.916 195.239 368.182 195.239C366.449 195.239 365.043 196.563 365.043 198.197C365.043 199.831 366.449 201.155 368.182 201.155Z" fill="#FBDC8E"/>
<path d="M368.634 196.212V199.016H368.274V196.567H368.256L367.53 197.022V196.677L368.274 196.212H368.634Z" fill="white"/>
<path d="M375.723 245.426H346.816C345.878 245.426 345.118 246.143 345.118 247.027V255.923C345.118 256.808 345.878 257.524 346.816 257.524H375.723C376.661 257.524 377.422 256.808 377.422 255.923V247.027C377.422 246.143 376.661 245.426 375.723 245.426Z" fill="#78E5E1"/>
<path d="M361.27 265.819L365.161 254.708H357.379L361.27 265.819Z" fill="#78E5E1"/>
<path d="M353.556 248.649L350.293 253.969H356.818L353.556 248.649Z" fill="white"/>
<path d="M368.979 253.969L372.242 248.649H365.721L368.979 253.969Z" fill="white"/>
<path d="M361.27 253.615C362.623 253.615 363.72 252.581 363.72 251.306C363.72 250.031 362.623 248.998 361.27 248.998C359.917 248.998 358.82 250.031 358.82 251.306C358.82 252.581 359.917 253.615 361.27 253.615Z" fill="white"/>
<path d="M137.065 216.898H20.5666C17.439 216.898 14.9031 219.287 14.9031 222.235V261.72C14.9031 264.667 17.439 267.057 20.5666 267.057H137.065C140.193 267.057 142.728 264.667 142.728 261.72V222.235C142.728 219.287 140.193 216.898 137.065 216.898Z" fill="#FADB93"/>
<path d="M31.4728 241.977C36.7381 241.977 41.0059 237.956 41.0059 232.995C41.0059 228.034 36.7381 224.012 31.4728 224.012C26.2082 224.012 21.9404 228.034 21.9404 232.995C21.9404 237.956 26.2082 241.977 31.4728 241.977Z" fill="#78E5E1"/>
<path d="M49.2585 228.413H91.3549" stroke="white" stroke-width="6.70122" stroke-miterlimit="10" stroke-linecap="round"/>
<path d="M49.2585 237.215H116.562" stroke="white" stroke-width="4.31856" stroke-miterlimit="10" stroke-linecap="round"/>
<path d="M49.2585 243.726H101.207" stroke="white" stroke-width="4.31856" stroke-miterlimit="10" stroke-linecap="round"/>
<path d="M49.2585 251.925H57.5756" stroke="#AB92DE" stroke-width="4.31856" stroke-miterlimit="10" stroke-linecap="round"/>
<path d="M63.8451 251.925H72.1622" stroke="#AB92DE" stroke-width="4.31856" stroke-miterlimit="10" stroke-linecap="round"/>
<path d="M128.418 224.871L133.859 229.999L129.335 234.262L123.894 229.134C123.294 228.569 122.957 227.802 122.957 227.003C122.957 226.203 123.294 225.437 123.894 224.871C124.494 224.306 125.307 223.988 126.155 223.988C127.004 223.988 127.818 224.306 128.418 224.871Z" fill="#AB92DE"/>
<path d="M134.79 229.133L129.349 234.26L124.825 229.998L130.266 224.87C130.866 224.305 131.68 223.987 132.528 223.987C133.377 223.987 134.19 224.305 134.79 224.87C135.39 225.435 135.727 226.202 135.727 227.001C135.727 227.801 135.39 228.568 134.79 229.133Z" fill="#AB92DE"/>
<path d="M432.707 418.504C433.109 419.949 434.679 420.812 436.212 420.432C437.746 420.052 438.662 418.573 438.259 417.128L409.555 314.247C409.152 312.802 407.582 311.939 406.049 312.319C404.516 312.698 403.6 314.177 404.002 315.622L432.707 418.504Z" fill="#969696"/>
<path d="M403.715 315.624C404.118 314.179 403.201 312.7 401.669 312.32C400.135 311.94 398.566 312.804 398.162 314.249L369.459 417.13C369.055 418.575 369.972 420.054 371.505 420.434C373.038 420.813 374.608 419.95 375.011 418.506L403.715 315.624Z" fill="#969696"/>
<path d="M364.113 315.629C364.515 314.184 363.599 312.704 362.066 312.324C360.533 311.945 358.963 312.808 358.56 314.253L329.856 417.134C329.453 418.579 330.37 420.059 331.902 420.438C333.436 420.818 335.006 419.955 335.408 418.51L364.113 315.629Z" fill="#D8D8D8"/>
<path d="M392.604 418.506C393.007 419.951 394.576 420.814 396.11 420.434C397.643 420.055 398.559 418.576 398.156 417.131L369.452 314.249C369.049 312.805 367.479 311.942 365.946 312.321C364.413 312.701 363.497 314.18 363.9 315.625L392.604 418.506Z" fill="#D8D8D8"/>
<path d="M202.615 315.404C203.011 313.955 202.086 312.477 200.548 312.104C199.01 311.73 197.443 312.602 197.046 314.051L168.824 417.237C168.428 418.687 169.352 420.164 170.89 420.538C172.428 420.911 173.996 420.039 174.392 418.59L202.615 315.404Z" fill="#969696"/>
<path d="M230.666 418.111C231.062 419.56 232.63 420.432 234.168 420.059C235.706 419.685 236.631 418.208 236.234 416.758L208.012 313.572C207.616 312.123 206.048 311.251 204.51 311.625C202.972 311.998 202.047 313.476 202.444 314.925L230.666 418.111Z" fill="#969696"/>
<path d="M421.398 307.237H143.788C142.385 307.237 141.248 308.308 141.248 309.63V312.847C141.248 314.169 142.385 315.24 143.788 315.24H421.398C422.8 315.24 423.938 314.169 423.938 312.847V309.63C423.938 308.308 422.8 307.237 421.398 307.237Z" fill="#D8D8D8"/>
<path d="M161.383 315.633C161.786 314.188 160.87 312.709 159.337 312.329C157.803 311.949 156.233 312.812 155.831 314.257L127.126 417.138C126.724 418.583 127.64 420.063 129.173 420.443C130.706 420.822 132.276 419.959 132.679 418.514L161.383 315.633Z" fill="#D8D8D8"/>
<path d="M189.881 418.507C190.285 419.951 191.854 420.815 193.387 420.435C194.92 420.055 195.837 418.576 195.433 417.131L166.73 314.25C166.326 312.805 164.757 311.942 163.224 312.322C161.69 312.702 160.774 314.18 161.178 315.625L189.881 418.507Z" fill="#D8D8D8"/>
<path d="M85.5767 334.376C96.2293 336.283 94.3283 396.186 73.8821 392.562C54.5737 389.123 72.5816 332.067 85.5767 334.376Z" fill="black"/>
<path d="M38.8086 341.803C47.2854 337.287 82.7684 379.36 66.5375 388.008C51.2044 396.181 28.4872 347.303 38.8086 341.803Z" fill="#FBDC8E"/>
<path d="M82.0058 421.518H60.6004C59.7382 421.518 58.9067 421.218 58.2643 420.676C57.6219 420.134 57.2142 419.388 57.1191 418.58L54.4166 395.71C54.3621 395.249 54.4116 394.782 54.5619 394.34C54.7122 393.898 54.9595 393.49 55.2882 393.144C55.6169 392.798 56.0189 392.521 56.4685 392.332C56.9187 392.143 57.4058 392.045 57.8986 392.044H84.5956C85.0871 392.044 85.573 392.141 86.0219 392.329C86.4709 392.518 86.8729 392.793 87.201 393.137C87.5297 393.482 87.7776 393.887 87.9285 394.328C88.0794 394.769 88.1302 395.234 88.0776 395.695L85.4928 418.565C85.4002 419.375 84.9932 420.125 84.3495 420.67C83.7058 421.216 82.8712 421.518 82.0058 421.518Z" fill="#969696"/>
<path d="M91.5928 311.057C99.7051 313.281 93.4875 359.538 77.9522 355.264C63.286 351.244 81.7197 308.352 91.5928 311.057Z" fill="#AB8DE5"/>
<path d="M104.969 347.847C110.576 352.406 87.7689 387.237 76.9935 378.488C66.8181 370.263 98.1241 342.3 104.969 347.847Z" fill="#FBDC8E"/>
<path d="M71.3595 315.869C83.5023 315.869 94.6202 388.927 71.3595 388.927C49.3937 388.927 56.5756 315.869 71.3595 315.869Z" fill="#78E5E1"/>
<path d="M92.669 387.073H49.9484C48.6942 387.073 47.678 388.031 47.678 389.212V393.111C47.678 394.293 48.6942 395.251 49.9484 395.251H92.669C93.9232 395.251 94.9394 394.293 94.9394 393.111V389.212C94.9394 388.031 93.9232 387.073 92.669 387.073Z" fill="#D8D8D8"/>
<path d="M191.857 182.01C191.857 180.163 190.268 178.666 188.308 178.666C186.348 178.666 184.759 180.163 184.759 182.01V193.553C184.759 195.4 186.348 196.897 188.308 196.897C190.268 196.897 191.857 195.4 191.857 193.553V182.01Z" fill="black"/>
<path d="M188.308 216.301C192.24 216.301 195.428 213.298 195.428 209.592C195.428 205.887 192.24 202.883 188.308 202.883C184.376 202.883 181.188 205.887 181.188 209.592C181.188 213.298 184.376 216.301 188.308 216.301Z" fill="#FBDC8E"/>
<path d="M188.308 189.364C185.488 189.363 182.696 189.886 180.091 190.902C177.486 191.918 175.119 193.408 173.125 195.286C171.131 197.165 169.549 199.395 168.47 201.85C167.391 204.304 166.835 206.935 166.835 209.592H209.775C209.775 206.936 209.219 204.305 208.141 201.851C207.062 199.396 205.48 197.167 203.487 195.288C201.494 193.41 199.128 191.92 196.523 190.904C193.919 189.887 191.127 189.364 188.308 189.364Z" fill="#AB8DE5"/>
<path d="M188.308 182.517V109.126" stroke="black" stroke-width="1.30497" stroke-linecap="round" stroke-linejoin="round"/>
<path d="M495.497 236.414H413.644C413.264 236.414 412.955 236.704 412.955 237.064V237.465C412.955 237.824 413.264 238.115 413.644 238.115H495.497C495.878 238.115 496.187 237.824 496.187 237.465V237.064C496.187 236.704 495.878 236.414 495.497 236.414Z" fill="#D8D8D8"/>
<path d="M448.219 202.635H443.246C442.453 202.635 441.811 203.24 441.811 203.987V235.061C441.811 235.808 442.453 236.414 443.246 236.414H448.219C449.011 236.414 449.654 235.808 449.654 235.061V203.987C449.654 203.24 449.011 202.635 448.219 202.635Z" fill="#969696"/>
<path d="M452.385 210.553H450.848C450.189 210.553 449.654 211.057 449.654 211.679V235.288C449.654 235.91 450.189 236.413 450.848 236.413H452.385C453.044 236.413 453.579 235.91 453.579 235.288V211.679C453.579 211.057 453.044 210.553 452.385 210.553Z" fill="#D8D8D8"/>
<path d="M456.348 210.553H454.733C454.096 210.553 453.579 211.041 453.579 211.642V235.325C453.579 235.926 454.096 236.413 454.733 236.413H456.348C456.986 236.413 457.503 235.926 457.503 235.325V211.642C457.503 211.041 456.986 210.553 456.348 210.553Z" fill="#969696"/>
<path d="M459.197 212.419L457.873 212.992C457.253 213.26 456.982 213.95 457.266 214.533L467.687 235.922C467.971 236.506 468.704 236.762 469.322 236.494L470.647 235.92C471.267 235.653 471.538 234.963 471.253 234.379L460.833 212.99C460.548 212.407 459.816 212.151 459.197 212.419Z" fill="#D8D8D8"/>
<path d="M445.73 227.866C446.94 227.866 447.922 226.941 447.922 225.8C447.922 224.66 446.94 223.734 445.73 223.734C444.519 223.734 443.538 224.66 443.538 225.8C443.538 226.941 444.519 227.866 445.73 227.866Z" fill="#D8D8D8"/>
<path d="M447.72 229.097H443.751C443.459 229.097 443.223 229.319 443.223 229.593C443.223 229.868 443.459 230.09 443.751 230.09H447.72C448.011 230.09 448.247 229.868 448.247 229.593C448.247 229.319 448.011 229.097 447.72 229.097Z" fill="#D8D8D8"/>
<path d="M447.72 231.643H443.751C443.459 231.643 443.223 231.866 443.223 232.14C443.223 232.414 443.459 232.636 443.751 232.636H447.72C448.011 232.636 448.247 232.414 448.247 232.14C448.247 231.866 448.011 231.643 447.72 231.643Z" fill="#D8D8D8"/>
<path d="M452.026 214.457C452.026 214.244 451.842 214.072 451.616 214.072C451.39 214.072 451.207 214.244 451.207 214.457V232.504C451.207 232.717 451.39 232.89 451.616 232.89C451.842 232.89 452.026 232.717 452.026 232.504V214.457Z" fill="#969696"/>
<path d="M434.809 237.264H431.299C430.528 237.264 429.903 237.853 429.903 238.58C429.903 239.306 430.528 239.895 431.299 239.895H434.809C435.579 239.895 436.204 239.306 436.204 238.58C436.204 237.853 435.579 237.264 434.809 237.264Z" fill="#D8D8D8"/>
<path d="M477.843 237.264H474.333C473.562 237.264 472.937 237.853 472.937 238.58C472.937 239.306 473.562 239.895 474.333 239.895H477.843C478.614 239.895 479.239 239.306 479.239 238.58C479.239 237.853 478.614 237.264 477.843 237.264Z" fill="#D8D8D8"/>
</g>
<defs>
<clipPath id="clip0_103_1271">
<rect width="60.51" height="41.81" fill="white" transform="translate(317 87)"/>
</clipPath>
<clipPath id="clip1_103_1271">
<rect width="482.132" height="313.894" fill="white" transform="translate(14.4729 108.082)"/>
</clipPath>
</defs>
</svg>
