<svg width="250" height="288" viewBox="0 0 250 288" fill="none" xmlns="http://www.w3.org/2000/svg">
<rect x="0.130402" width="249.695" height="288" rx="25" fill="#181823"/>
<path d="M44.4981 186V176.545H47.8035C48.4622 176.545 49.0054 176.659 49.4332 176.887C49.861 177.112 50.1795 177.415 50.3888 177.797C50.598 178.175 50.7027 178.595 50.7027 179.057C50.7027 179.463 50.6304 179.799 50.4857 180.063C50.3441 180.328 50.1564 180.537 49.9225 180.691C49.6917 180.845 49.4409 180.959 49.17 181.033V181.125C49.4593 181.143 49.7502 181.245 50.0425 181.43C50.3349 181.614 50.5796 181.879 50.7766 182.224C50.9735 182.568 51.072 182.99 51.072 183.489C51.072 183.963 50.9643 184.389 50.7489 184.767C50.5334 185.146 50.1933 185.446 49.7286 185.668C49.2639 185.889 48.6591 186 47.9143 186H44.4981ZM45.643 184.984H47.9143C48.6622 184.984 49.1931 184.84 49.507 184.55C49.824 184.258 49.9825 183.904 49.9825 183.489C49.9825 183.169 49.901 182.873 49.7378 182.602C49.5747 182.328 49.3424 182.11 49.0408 181.947C48.7391 181.781 48.3821 181.697 47.9697 181.697H45.643V184.984ZM45.643 180.7H47.7666C48.1113 180.7 48.4221 180.633 48.6991 180.497C48.9792 180.362 49.2008 180.171 49.3639 179.925C49.5301 179.679 49.6132 179.389 49.6132 179.057C49.6132 178.641 49.4685 178.289 49.1793 178C48.89 177.707 48.4314 177.561 47.8035 177.561H45.643V180.7ZM55.6862 186.148C55.046 186.148 54.4844 185.995 54.0012 185.691C53.521 185.386 53.1456 184.96 52.8747 184.412C52.607 183.864 52.4731 183.224 52.4731 182.491C52.4731 181.753 52.607 181.108 52.8747 180.557C53.1456 180.006 53.521 179.578 54.0012 179.274C54.4844 178.969 55.046 178.817 55.6862 178.817C56.3263 178.817 56.8865 178.969 57.3666 179.274C57.8498 179.578 58.2252 180.006 58.493 180.557C58.7638 181.108 58.8992 181.753 58.8992 182.491C58.8992 183.224 58.7638 183.864 58.493 184.412C58.2252 184.96 57.8498 185.386 57.3666 185.691C56.8865 185.995 56.3263 186.148 55.6862 186.148ZM55.6862 185.169C56.1724 185.169 56.5725 185.044 56.8865 184.795C57.2004 184.546 57.4327 184.218 57.5835 183.812C57.7344 183.406 57.8098 182.965 57.8098 182.491C57.8098 182.018 57.7344 181.576 57.5835 181.167C57.4327 180.757 57.2004 180.426 56.8865 180.174C56.5725 179.922 56.1724 179.795 55.6862 179.795C55.1999 179.795 54.7998 179.922 54.4859 180.174C54.172 180.426 53.9396 180.757 53.7888 181.167C53.638 181.576 53.5626 182.018 53.5626 182.491C53.5626 182.965 53.638 183.406 53.7888 183.812C53.9396 184.218 54.172 184.546 54.4859 184.795C54.7998 185.044 55.1999 185.169 55.6862 185.169ZM63.443 186.148C62.8029 186.148 62.2412 185.995 61.758 185.691C61.2779 185.386 60.9024 184.96 60.6316 184.412C60.3638 183.864 60.2299 183.224 60.2299 182.491C60.2299 181.753 60.3638 181.108 60.6316 180.557C60.9024 180.006 61.2779 179.578 61.758 179.274C62.2412 178.969 62.8029 178.817 63.443 178.817C64.0832 178.817 64.6433 178.969 65.1234 179.274C65.6066 179.578 65.9821 180.006 66.2498 180.557C66.5207 181.108 66.6561 181.753 66.6561 182.491C66.6561 183.224 66.5207 183.864 66.2498 184.412C65.9821 184.96 65.6066 185.386 65.1234 185.691C64.6433 185.995 64.0832 186.148 63.443 186.148ZM63.443 185.169C63.9293 185.169 64.3294 185.044 64.6433 184.795C64.9572 184.546 65.1896 184.218 65.3404 183.812C65.4912 183.406 65.5666 182.965 65.5666 182.491C65.5666 182.018 65.4912 181.576 65.3404 181.167C65.1896 180.757 64.9572 180.426 64.6433 180.174C64.3294 179.922 63.9293 179.795 63.443 179.795C62.9567 179.795 62.5566 179.922 62.2427 180.174C61.9288 180.426 61.6964 180.757 61.5456 181.167C61.3948 181.576 61.3194 182.018 61.3194 182.491C61.3194 182.965 61.3948 183.406 61.5456 183.812C61.6964 184.218 61.9288 184.546 62.2427 184.795C62.5566 185.044 62.9567 185.169 63.443 185.169ZM71.403 178.909V179.832H67.7283V178.909H71.403ZM68.7993 177.21H69.8888V183.969C69.8888 184.277 69.9334 184.507 70.0226 184.661C70.115 184.812 70.2319 184.914 70.3735 184.966C70.5181 185.015 70.6705 185.04 70.8305 185.04C70.9506 185.04 71.049 185.034 71.126 185.021C71.2029 185.006 71.2645 184.994 71.3106 184.984L71.5322 185.963C71.4584 185.991 71.3553 186.018 71.2229 186.046C71.0906 186.077 70.9229 186.092 70.7197 186.092C70.412 186.092 70.1104 186.026 69.8149 185.894C69.5225 185.761 69.2794 185.56 69.0855 185.289C68.8947 185.018 68.7993 184.677 68.7993 184.264V177.21ZM77.9376 180.497L76.9589 180.774C76.8973 180.611 76.8066 180.453 76.6865 180.299C76.5696 180.142 76.4095 180.012 76.2064 179.911C76.0033 179.809 75.7432 179.759 75.4262 179.759C74.9923 179.759 74.6307 179.859 74.3414 180.059C74.0551 180.256 73.912 180.506 73.912 180.811C73.912 181.082 74.0105 181.296 74.2075 181.453C74.4045 181.61 74.7122 181.741 75.1308 181.845L76.1833 182.104C76.8173 182.258 77.2898 182.493 77.6006 182.81C77.9114 183.124 78.0669 183.529 78.0669 184.024C78.0669 184.43 77.9499 184.794 77.716 185.114C77.4852 185.434 77.162 185.686 76.7465 185.871C76.3311 186.055 75.8479 186.148 75.297 186.148C74.5737 186.148 73.9751 185.991 73.5012 185.677C73.0272 185.363 72.7271 184.904 72.6009 184.301L73.635 184.043C73.7335 184.424 73.9197 184.71 74.1936 184.901C74.4706 185.092 74.8322 185.188 75.2785 185.188C75.7863 185.188 76.1895 185.08 76.488 184.864C76.7896 184.646 76.9404 184.384 76.9404 184.08C76.9404 183.833 76.8543 183.627 76.6819 183.461C76.5096 183.292 76.2449 183.165 75.8879 183.082L74.7061 182.805C74.0567 182.652 73.5796 182.413 73.275 182.09C72.9733 181.764 72.8225 181.356 72.8225 180.866C72.8225 180.466 72.9349 180.112 73.1595 179.805C73.3873 179.497 73.6966 179.255 74.0875 179.08C74.4814 178.904 74.9277 178.817 75.4262 178.817C76.1279 178.817 76.6788 178.971 77.0789 179.278C77.4821 179.586 77.7683 179.992 77.9376 180.497ZM82.7907 178.909V179.832H79.116V178.909H82.7907ZM80.187 177.21H81.2765V183.969C81.2765 184.277 81.3211 184.507 81.4103 184.661C81.5027 184.812 81.6196 184.914 81.7612 184.966C81.9058 185.015 82.0582 185.04 82.2182 185.04C82.3383 185.04 82.4367 185.034 82.5137 185.021C82.5906 185.006 82.6522 184.994 82.6983 184.984L82.9199 185.963C82.8461 185.991 82.743 186.018 82.6106 186.046C82.4783 186.077 82.3106 186.092 82.1074 186.092C81.7997 186.092 81.4981 186.026 81.2026 185.894C80.9102 185.761 80.6671 185.56 80.4732 185.289C80.2824 185.018 80.187 184.677 80.187 184.264V177.21ZM84.4295 186V178.909H85.4821V179.98H85.5559C85.6852 179.629 85.9191 179.345 86.2576 179.126C86.5962 178.908 86.9778 178.798 87.4025 178.798C87.4825 178.798 87.5826 178.8 87.7026 178.803C87.8226 178.806 87.9134 178.811 87.975 178.817V179.925C87.938 179.915 87.8534 179.902 87.7211 179.883C87.5918 179.862 87.4548 179.851 87.3102 179.851C86.9655 179.851 86.6577 179.923 86.3869 180.068C86.1191 180.209 85.9068 180.406 85.7498 180.659C85.5959 180.908 85.519 181.193 85.519 181.513V186H84.4295ZM91.3531 186.166C90.9037 186.166 90.496 186.082 90.1297 185.912C89.7635 185.74 89.4726 185.492 89.2572 185.169C89.0418 184.843 88.934 184.449 88.934 183.987C88.934 183.581 89.0141 183.252 89.1741 182.999C89.3341 182.744 89.548 182.544 89.8158 182.399C90.0835 182.254 90.379 182.147 90.7022 182.076C91.0284 182.002 91.3562 181.944 91.6855 181.901C92.1163 181.845 92.4656 181.804 92.7334 181.776C93.0042 181.745 93.2012 181.694 93.3243 181.624C93.4505 181.553 93.5136 181.43 93.5136 181.254V181.217C93.5136 180.762 93.3889 180.408 93.1397 180.156C92.8934 179.903 92.5195 179.777 92.0179 179.777C91.4977 179.777 91.0899 179.891 90.7945 180.119C90.499 180.346 90.2913 180.589 90.1713 180.848L89.1372 180.479C89.3218 180.048 89.568 179.712 89.8758 179.472C90.1866 179.229 90.5252 179.06 90.8914 178.964C91.2607 178.866 91.6239 178.817 91.9809 178.817C92.2087 178.817 92.4703 178.844 92.7657 178.9C93.0643 178.952 93.352 179.061 93.629 179.228C93.9091 179.394 94.1414 179.645 94.3261 179.98C94.5107 180.316 94.6031 180.765 94.6031 181.328V186H93.5136V185.04H93.4582C93.3843 185.194 93.2612 185.358 93.0889 185.534C92.9165 185.709 92.6872 185.858 92.401 185.982C92.1148 186.105 91.7655 186.166 91.3531 186.166ZM91.5193 185.188C91.9501 185.188 92.3133 185.103 92.6088 184.934C92.9073 184.764 93.132 184.546 93.2828 184.278C93.4366 184.01 93.5136 183.729 93.5136 183.433V182.436C93.4674 182.491 93.3659 182.542 93.2089 182.588C93.055 182.632 92.8765 182.67 92.6734 182.704C92.4733 182.735 92.2779 182.762 92.0871 182.787C91.8994 182.808 91.747 182.827 91.6301 182.842C91.3469 182.879 91.0822 182.939 90.836 183.022C90.5929 183.102 90.3959 183.224 90.2451 183.387C90.0974 183.547 90.0235 183.766 90.0235 184.043C90.0235 184.421 90.1636 184.707 90.4436 184.901C90.7268 185.092 91.0853 185.188 91.5193 185.188ZM96.5916 188.659V178.909H97.6442V180.036H97.7734C97.8535 179.912 97.9643 179.755 98.1058 179.565C98.2505 179.371 98.4567 179.198 98.7244 179.048C98.9953 178.894 99.3615 178.817 99.8232 178.817C100.42 178.817 100.947 178.966 101.402 179.265C101.857 179.563 102.213 179.986 102.468 180.534C102.724 181.082 102.852 181.728 102.852 182.473C102.852 183.224 102.724 183.875 102.468 184.426C102.213 184.974 101.859 185.398 101.407 185.7C100.954 185.998 100.433 186.148 99.8416 186.148C99.3861 186.148 99.0214 186.072 98.7475 185.922C98.4736 185.768 98.2628 185.594 98.1151 185.4C97.9673 185.203 97.8535 185.04 97.7734 184.911H97.6811V188.659H96.5916ZM97.6626 182.455C97.6626 182.99 97.7411 183.462 97.8981 183.872C98.055 184.278 98.2843 184.597 98.5859 184.827C98.8876 185.055 99.2569 185.169 99.6939 185.169C100.149 185.169 100.529 185.049 100.834 184.809C101.142 184.566 101.373 184.24 101.527 183.83C101.684 183.418 101.762 182.959 101.762 182.455C101.762 181.956 101.685 181.507 101.531 181.107C101.38 180.703 101.151 180.385 100.843 180.151C100.539 179.914 100.156 179.795 99.6939 179.795C99.2507 179.795 98.8783 179.908 98.5767 180.132C98.2751 180.354 98.0474 180.665 97.8935 181.065C97.7396 181.462 97.6626 181.925 97.6626 182.455ZM111.143 186.148C110.46 186.148 109.87 185.997 109.375 185.695C108.882 185.391 108.502 184.966 108.234 184.421C107.97 183.873 107.837 183.236 107.837 182.51C107.837 181.784 107.97 181.143 108.234 180.589C108.502 180.032 108.875 179.598 109.352 179.288C109.832 178.974 110.392 178.817 111.032 178.817C111.401 178.817 111.766 178.878 112.126 179.001C112.486 179.125 112.814 179.325 113.109 179.602C113.405 179.875 113.64 180.239 113.816 180.691C113.991 181.143 114.079 181.701 114.079 182.362V182.824H108.613V181.882H112.971C112.971 181.482 112.891 181.125 112.731 180.811C112.574 180.497 112.349 180.249 112.057 180.068C111.768 179.886 111.426 179.795 111.032 179.795C110.598 179.795 110.223 179.903 109.906 180.119C109.592 180.331 109.35 180.608 109.181 180.95C109.011 181.291 108.927 181.657 108.927 182.048V182.676C108.927 183.212 109.019 183.666 109.204 184.038C109.392 184.407 109.652 184.689 109.984 184.883C110.316 185.074 110.703 185.169 111.143 185.169C111.429 185.169 111.688 185.129 111.918 185.049C112.152 184.966 112.354 184.843 112.523 184.68C112.692 184.513 112.823 184.307 112.915 184.061L113.968 184.357C113.857 184.714 113.671 185.027 113.409 185.298C113.148 185.566 112.825 185.775 112.44 185.926C112.055 186.074 111.623 186.148 111.143 186.148ZM110.478 177.949L111.604 175.807H112.879L111.438 177.949H110.478ZM123.861 183.101V178.909H124.951V186H123.861V184.8H123.787C123.621 185.16 123.363 185.466 123.012 185.718C122.661 185.968 122.218 186.092 121.682 186.092C121.239 186.092 120.845 185.995 120.5 185.801C120.156 185.605 119.885 185.309 119.688 184.915C119.491 184.518 119.392 184.018 119.392 183.415V178.909H120.482V183.341C120.482 183.858 120.627 184.27 120.916 184.578C121.208 184.886 121.581 185.04 122.033 185.04C122.304 185.04 122.579 184.971 122.859 184.832C123.143 184.694 123.38 184.481 123.57 184.195C123.764 183.909 123.861 183.544 123.861 183.101ZM126.946 186V178.909H127.999V180.017H128.091C128.239 179.638 128.477 179.345 128.807 179.135C129.136 178.923 129.531 178.817 129.993 178.817C130.461 178.817 130.85 178.923 131.161 179.135C131.475 179.345 131.72 179.638 131.895 180.017H131.969C132.15 179.651 132.423 179.36 132.786 179.145C133.149 178.926 133.585 178.817 134.092 178.817C134.726 178.817 135.245 179.015 135.648 179.412C136.051 179.806 136.253 180.42 136.253 181.254V186H135.163V181.254C135.163 180.731 135.02 180.357 134.734 180.132C134.448 179.908 134.111 179.795 133.723 179.795C133.225 179.795 132.838 179.946 132.564 180.248C132.29 180.546 132.154 180.925 132.154 181.384V186H131.046V181.143C131.046 180.74 130.915 180.416 130.653 180.169C130.392 179.92 130.055 179.795 129.642 179.795C129.359 179.795 129.094 179.871 128.848 180.022C128.605 180.172 128.408 180.382 128.257 180.65C128.109 180.914 128.036 181.22 128.036 181.568V186H126.946ZM145.059 178.909V179.832H141.236V178.909H145.059ZM142.381 186V177.93C142.381 177.524 142.477 177.186 142.668 176.915C142.858 176.644 143.106 176.441 143.411 176.305C143.715 176.17 144.037 176.102 144.376 176.102C144.643 176.102 144.862 176.124 145.031 176.167C145.2 176.21 145.327 176.25 145.41 176.287L145.096 177.229C145.04 177.21 144.963 177.187 144.865 177.159C144.77 177.132 144.643 177.118 144.486 177.118C144.126 177.118 143.866 177.209 143.706 177.39C143.549 177.572 143.471 177.838 143.471 178.189V186H142.381ZM146.586 186V178.909H147.638V179.98H147.712C147.841 179.629 148.075 179.345 148.414 179.126C148.752 178.908 149.134 178.798 149.559 178.798C149.639 178.798 149.739 178.8 149.859 178.803C149.979 178.806 150.07 178.811 150.131 178.817V179.925C150.094 179.915 150.01 179.902 149.877 179.883C149.748 179.862 149.611 179.851 149.466 179.851C149.122 179.851 148.814 179.923 148.543 180.068C148.275 180.209 148.063 180.406 147.906 180.659C147.752 180.908 147.675 181.193 147.675 181.513V186H146.586ZM153.509 186.166C153.06 186.166 152.652 186.082 152.286 185.912C151.92 185.74 151.629 185.492 151.413 185.169C151.198 184.843 151.09 184.449 151.09 183.987C151.09 183.581 151.17 183.252 151.33 182.999C151.49 182.744 151.704 182.544 151.972 182.399C152.24 182.254 152.535 182.147 152.858 182.076C153.185 182.002 153.512 181.944 153.842 181.901C154.273 181.845 154.622 181.804 154.89 181.776C155.16 181.745 155.357 181.694 155.481 181.624C155.607 181.553 155.67 181.43 155.67 181.254V181.217C155.67 180.762 155.545 180.408 155.296 180.156C155.05 179.903 154.676 179.777 154.174 179.777C153.654 179.777 153.246 179.891 152.951 180.119C152.655 180.346 152.448 180.589 152.328 180.848L151.293 180.479C151.478 180.048 151.724 179.712 152.032 179.472C152.343 179.229 152.681 179.06 153.048 178.964C153.417 178.866 153.78 178.817 154.137 178.817C154.365 178.817 154.627 178.844 154.922 178.9C155.221 178.952 155.508 179.061 155.785 179.228C156.065 179.394 156.298 179.645 156.482 179.98C156.667 180.316 156.759 180.765 156.759 181.328V186H155.67V185.04H155.614C155.541 185.194 155.417 185.358 155.245 185.534C155.073 185.709 154.843 185.858 154.557 185.982C154.271 186.105 153.922 186.166 153.509 186.166ZM153.676 185.188C154.106 185.188 154.47 185.103 154.765 184.934C155.064 184.764 155.288 184.546 155.439 184.278C155.593 184.01 155.67 183.729 155.67 183.433V182.436C155.624 182.491 155.522 182.542 155.365 182.588C155.211 182.632 155.033 182.67 154.83 182.704C154.63 182.735 154.434 182.762 154.243 182.787C154.056 182.808 153.903 182.827 153.786 182.842C153.503 182.879 153.238 182.939 152.992 183.022C152.749 183.102 152.552 183.224 152.401 183.387C152.254 183.547 152.18 183.766 152.18 184.043C152.18 184.421 152.32 184.707 152.6 184.901C152.883 185.092 153.242 185.188 153.676 185.188ZM158.748 186V178.909H159.8V180.017H159.893C160.04 179.638 160.279 179.345 160.608 179.135C160.938 178.923 161.333 178.817 161.795 178.817C162.263 178.817 162.652 178.923 162.963 179.135C163.277 179.345 163.521 179.638 163.697 180.017H163.771C163.952 179.651 164.225 179.36 164.588 179.145C164.951 178.926 165.386 178.817 165.894 178.817C166.528 178.817 167.047 179.015 167.45 179.412C167.853 179.806 168.055 180.42 168.055 181.254V186H166.965V181.254C166.965 180.731 166.822 180.357 166.536 180.132C166.25 179.908 165.913 179.795 165.525 179.795C165.026 179.795 164.64 179.946 164.366 180.248C164.092 180.546 163.955 180.925 163.955 181.384V186H162.847V181.143C162.847 180.74 162.717 180.416 162.455 180.169C162.193 179.92 161.856 179.795 161.444 179.795C161.161 179.795 160.896 179.871 160.65 180.022C160.407 180.172 160.21 180.382 160.059 180.65C159.911 180.914 159.837 181.22 159.837 181.568V186H158.748ZM173.02 186.148C172.336 186.148 171.747 185.997 171.252 185.695C170.759 185.391 170.379 184.966 170.111 184.421C169.847 183.873 169.714 183.236 169.714 182.51C169.714 181.784 169.847 181.143 170.111 180.589C170.379 180.032 170.751 179.598 171.229 179.288C171.709 178.974 172.269 178.817 172.909 178.817C173.278 178.817 173.643 178.878 174.003 179.001C174.363 179.125 174.691 179.325 174.986 179.602C175.282 179.875 175.517 180.239 175.693 180.691C175.868 181.143 175.956 181.701 175.956 182.362V182.824H170.49V181.882H174.848C174.848 181.482 174.768 181.125 174.608 180.811C174.451 180.497 174.226 180.249 173.934 180.068C173.644 179.886 173.303 179.795 172.909 179.795C172.475 179.795 172.099 179.903 171.782 180.119C171.469 180.331 171.227 180.608 171.058 180.95C170.888 181.291 170.804 181.657 170.804 182.048V182.676C170.804 183.212 170.896 183.666 171.081 184.038C171.269 184.407 171.529 184.689 171.861 184.883C172.193 185.074 172.58 185.169 173.02 185.169C173.306 185.169 173.564 185.129 173.795 185.049C174.029 184.966 174.231 184.843 174.4 184.68C174.569 184.513 174.7 184.307 174.792 184.061L175.845 184.357C175.734 184.714 175.548 185.027 175.286 185.298C175.025 185.566 174.702 185.775 174.317 185.926C173.932 186.074 173.5 186.148 173.02 186.148ZM179.22 186L177.059 178.909H178.204L179.737 184.338H179.811L181.325 178.909H182.488L183.984 184.32H184.058L185.59 178.909H186.735L184.575 186H183.504L181.953 180.553H181.842L180.291 186H179.22ZM190.815 186.148C190.175 186.148 189.613 185.995 189.13 185.691C188.65 185.386 188.274 184.96 188.004 184.412C187.736 183.864 187.602 183.224 187.602 182.491C187.602 181.753 187.736 181.108 188.004 180.557C188.274 180.006 188.65 179.578 189.13 179.274C189.613 178.969 190.175 178.817 190.815 178.817C191.455 178.817 192.015 178.969 192.495 179.274C192.979 179.578 193.354 180.006 193.622 180.557C193.893 181.108 194.028 181.753 194.028 182.491C194.028 183.224 193.893 183.864 193.622 184.412C193.354 184.96 192.979 185.386 192.495 185.691C192.015 185.995 191.455 186.148 190.815 186.148ZM190.815 185.169C191.301 185.169 191.701 185.044 192.015 184.795C192.329 184.546 192.562 184.218 192.712 183.812C192.863 183.406 192.939 182.965 192.939 182.491C192.939 182.018 192.863 181.576 192.712 181.167C192.562 180.757 192.329 180.426 192.015 180.174C191.701 179.922 191.301 179.795 190.815 179.795C190.329 179.795 189.929 179.922 189.615 180.174C189.301 180.426 189.069 180.757 188.918 181.167C188.767 181.576 188.692 182.018 188.692 182.491C188.692 182.965 188.767 183.406 188.918 183.812C189.069 184.218 189.301 184.546 189.615 184.795C189.929 185.044 190.329 185.169 190.815 185.169ZM195.691 186V178.909H196.744V179.98H196.818C196.947 179.629 197.181 179.345 197.519 179.126C197.858 178.908 198.24 178.798 198.664 178.798C198.744 178.798 198.844 178.8 198.964 178.803C199.084 178.806 199.175 178.811 199.237 178.817V179.925C199.2 179.915 199.115 179.902 198.983 179.883C198.854 179.862 198.717 179.851 198.572 179.851C198.227 179.851 197.919 179.923 197.649 180.068C197.381 180.209 197.169 180.406 197.012 180.659C196.858 180.908 196.781 181.193 196.781 181.513V186H195.691ZM201.544 183.415L201.525 182.067H201.747L204.849 178.909H206.197L202.892 182.251H202.799L201.544 183.415ZM200.528 186V176.545H201.618V186H200.528ZM205.034 186L202.264 182.491L203.04 181.734L206.419 186H205.034ZM59.1278 199.101V194.909H60.2172V202H59.1278V200.8H59.0539C58.8877 201.16 58.6292 201.466 58.2783 201.718C57.9275 201.968 57.4843 202.092 56.9488 202.092C56.5056 202.092 56.1117 201.995 55.767 201.801C55.4223 201.605 55.1514 201.309 54.9545 200.915C54.7575 200.518 54.659 200.018 54.659 199.415V194.909H55.7485V199.341C55.7485 199.858 55.8931 200.27 56.1824 200.578C56.4748 200.886 56.8472 201.04 57.2996 201.04C57.5705 201.04 57.8459 200.971 58.126 200.832C58.4091 200.694 58.6461 200.481 58.8369 200.195C59.0308 199.909 59.1278 199.544 59.1278 199.101ZM65.2965 194.909V195.832H61.6218V194.909H65.2965ZM62.6928 193.21H63.7823V199.969C63.7823 200.277 63.8269 200.507 63.9162 200.661C64.0085 200.812 64.1255 200.914 64.2671 200.966C64.4117 201.015 64.564 201.04 64.7241 201.04C64.8441 201.04 64.9426 201.034 65.0195 201.021C65.0965 201.006 65.158 200.994 65.2042 200.984L65.4258 201.963C65.3519 201.991 65.2488 202.018 65.1165 202.046C64.9841 202.077 64.8164 202.092 64.6133 202.092C64.3055 202.092 64.0039 202.026 63.7085 201.894C63.4161 201.761 63.1729 201.56 62.9791 201.289C62.7882 201.018 62.6928 200.677 62.6928 200.264V193.21ZM66.9354 202V194.909H68.0249V202H66.9354ZM67.4894 193.727C67.277 193.727 67.0939 193.655 66.94 193.51C66.7892 193.366 66.7138 193.192 66.7138 192.989C66.7138 192.786 66.7892 192.612 66.94 192.467C67.0939 192.322 67.277 192.25 67.4894 192.25C67.7017 192.25 67.8833 192.322 68.0341 192.467C68.188 192.612 68.2649 192.786 68.2649 192.989C68.2649 193.192 68.188 193.366 68.0341 193.51C67.8833 193.655 67.7017 193.727 67.4894 193.727ZM71.1098 192.545V202H70.0203V192.545H71.1098ZM73.1053 202V194.909H74.1948V202H73.1053ZM73.6593 193.727C73.4469 193.727 73.2638 193.655 73.1099 193.51C72.9591 193.366 72.8837 193.192 72.8837 192.989C72.8837 192.786 72.9591 192.612 73.1099 192.467C73.2638 192.322 73.4469 192.25 73.6593 192.25C73.8716 192.25 74.0532 192.322 74.204 192.467C74.3579 192.612 74.4348 192.786 74.4348 192.989C74.4348 193.192 74.3579 193.366 74.204 193.51C74.0532 193.655 73.8716 193.727 73.6593 193.727ZM75.9871 202V201.169L80.0127 195.999V195.925H76.1164V194.909H81.4161V195.777L77.5013 200.911V200.984H81.5454V202H75.9871ZM85.3101 202.166C84.8608 202.166 84.453 202.082 84.0867 201.912C83.7205 201.74 83.4297 201.492 83.2142 201.169C82.9988 200.843 82.8911 200.449 82.8911 199.987C82.8911 199.581 82.9711 199.252 83.1311 198.999C83.2912 198.744 83.5051 198.544 83.7728 198.399C84.0406 198.254 84.336 198.147 84.6592 198.076C84.9854 198.002 85.3132 197.944 85.6425 197.901C86.0734 197.845 86.4227 197.804 86.6904 197.776C86.9613 197.745 87.1582 197.694 87.2813 197.624C87.4075 197.553 87.4706 197.43 87.4706 197.254V197.217C87.4706 196.762 87.346 196.408 87.0967 196.156C86.8505 195.903 86.4765 195.777 85.9749 195.777C85.4548 195.777 85.047 195.891 84.7515 196.119C84.4561 196.346 84.2483 196.589 84.1283 196.848L83.0942 196.479C83.2789 196.048 83.5251 195.712 83.8328 195.472C84.1437 195.229 84.4822 195.06 84.8485 194.964C85.2178 194.866 85.5809 194.817 85.938 194.817C86.1657 194.817 86.4273 194.844 86.7228 194.9C87.0213 194.952 87.309 195.061 87.586 195.228C87.8661 195.394 88.0985 195.645 88.2831 195.98C88.4678 196.316 88.5601 196.765 88.5601 197.328V202H87.4706V201.04H87.4152C87.3414 201.194 87.2183 201.358 87.0459 201.534C86.8736 201.709 86.6443 201.858 86.3581 201.982C86.0718 202.105 85.7225 202.166 85.3101 202.166ZM85.4763 201.188C85.9072 201.188 86.2703 201.103 86.5658 200.934C86.8643 200.764 87.089 200.546 87.2398 200.278C87.3937 200.01 87.4706 199.729 87.4706 199.433V198.436C87.4245 198.491 87.3229 198.542 87.1659 198.588C87.0121 198.632 86.8335 198.67 86.6304 198.704C86.4304 198.735 86.2349 198.762 86.0441 198.787C85.8564 198.808 85.704 198.827 85.5871 198.842C85.304 198.879 85.0393 198.939 84.7931 199.022C84.5499 199.102 84.353 199.224 84.2022 199.387C84.0544 199.547 83.9806 199.766 83.9806 200.043C83.9806 200.421 84.1206 200.707 84.4007 200.901C84.6838 201.092 85.0424 201.188 85.4763 201.188ZM93.2262 202.148C92.6353 202.148 92.1136 201.998 91.6612 201.7C91.2088 201.398 90.8549 200.974 90.5994 200.426C90.344 199.875 90.2163 199.224 90.2163 198.473C90.2163 197.728 90.344 197.082 90.5994 196.534C90.8549 195.986 91.2104 195.563 91.6658 195.265C92.1213 194.966 92.6476 194.817 93.2447 194.817C93.7063 194.817 94.071 194.894 94.3388 195.048C94.6096 195.198 94.8158 195.371 94.9574 195.565C95.102 195.755 95.2144 195.912 95.2944 196.036H95.3867V192.545H96.4762V202H95.4237V200.911H95.2944C95.2144 201.04 95.1005 201.203 94.9528 201.4C94.805 201.594 94.5942 201.768 94.3203 201.922C94.0464 202.072 93.6817 202.148 93.2262 202.148ZM93.3739 201.169C93.811 201.169 94.1803 201.055 94.4819 200.827C94.7835 200.597 95.0128 200.278 95.1698 199.872C95.3267 199.462 95.4052 198.99 95.4052 198.455C95.4052 197.925 95.3283 197.462 95.1744 197.065C95.0205 196.665 94.7927 196.354 94.4911 196.132C94.1895 195.908 93.8171 195.795 93.3739 195.795C92.9123 195.795 92.5276 195.914 92.2198 196.151C91.9151 196.385 91.6858 196.703 91.532 197.107C91.3812 197.507 91.3058 197.956 91.3058 198.455C91.3058 198.959 91.3827 199.418 91.5366 199.83C91.6935 200.24 91.9244 200.566 92.2291 200.809C92.5368 201.049 92.9184 201.169 93.3739 201.169ZM101.504 202.148C100.863 202.148 100.302 201.995 99.8185 201.691C99.3384 201.386 98.963 200.96 98.6921 200.412C98.4244 199.864 98.2905 199.224 98.2905 198.491C98.2905 197.753 98.4244 197.108 98.6921 196.557C98.963 196.006 99.3384 195.578 99.8185 195.274C100.302 194.969 100.863 194.817 101.504 194.817C102.144 194.817 102.704 194.969 103.184 195.274C103.667 195.578 104.043 196.006 104.31 196.557C104.581 197.108 104.717 197.753 104.717 198.491C104.717 199.224 104.581 199.864 104.31 200.412C104.043 200.96 103.667 201.386 103.184 201.691C102.704 201.995 102.144 202.148 101.504 202.148ZM101.504 201.169C101.99 201.169 102.39 201.044 102.704 200.795C103.018 200.546 103.25 200.218 103.401 199.812C103.552 199.406 103.627 198.965 103.627 198.491C103.627 198.018 103.552 197.576 103.401 197.167C103.25 196.757 103.018 196.426 102.704 196.174C102.39 195.922 101.99 195.795 101.504 195.795C101.017 195.795 100.617 195.922 100.303 196.174C99.9894 196.426 99.757 196.757 99.6062 197.167C99.4554 197.576 99.38 198.018 99.38 198.491C99.38 198.965 99.4554 199.406 99.6062 199.812C99.757 200.218 99.9894 200.546 100.303 200.795C100.617 201.044 101.017 201.169 101.504 201.169ZM110.036 204.659V194.909H111.089V196.036H111.218C111.298 195.912 111.409 195.755 111.55 195.565C111.695 195.371 111.901 195.198 112.169 195.048C112.44 194.894 112.806 194.817 113.267 194.817C113.865 194.817 114.391 194.966 114.846 195.265C115.302 195.563 115.657 195.986 115.913 196.534C116.168 197.082 116.296 197.728 116.296 198.473C116.296 199.224 116.168 199.875 115.913 200.426C115.657 200.974 115.303 201.398 114.851 201.7C114.399 201.998 113.877 202.148 113.286 202.148C112.83 202.148 112.466 202.072 112.192 201.922C111.918 201.768 111.707 201.594 111.559 201.4C111.412 201.203 111.298 201.04 111.218 200.911H111.125V204.659H110.036ZM111.107 198.455C111.107 198.99 111.185 199.462 111.342 199.872C111.499 200.278 111.729 200.597 112.03 200.827C112.332 201.055 112.701 201.169 113.138 201.169C113.594 201.169 113.974 201.049 114.279 200.809C114.586 200.566 114.817 200.24 114.971 199.83C115.128 199.418 115.206 198.959 115.206 198.455C115.206 197.956 115.129 197.507 114.976 197.107C114.825 196.703 114.596 196.385 114.288 196.151C113.983 195.914 113.6 195.795 113.138 195.795C112.695 195.795 112.323 195.908 112.021 196.132C111.719 196.354 111.492 196.665 111.338 197.065C111.184 197.462 111.107 197.925 111.107 198.455ZM120.044 202.166C119.595 202.166 119.187 202.082 118.821 201.912C118.455 201.74 118.164 201.492 117.949 201.169C117.733 200.843 117.625 200.449 117.625 199.987C117.625 199.581 117.705 199.252 117.866 198.999C118.026 198.744 118.239 198.544 118.507 198.399C118.775 198.254 119.07 198.147 119.394 198.076C119.72 198.002 120.048 197.944 120.377 197.901C120.808 197.845 121.157 197.804 121.425 197.776C121.696 197.745 121.893 197.694 122.016 197.624C122.142 197.553 122.205 197.43 122.205 197.254V197.217C122.205 196.762 122.08 196.408 121.831 196.156C121.585 195.903 121.211 195.777 120.709 195.777C120.189 195.777 119.781 195.891 119.486 196.119C119.19 196.346 118.983 196.589 118.863 196.848L117.829 196.479C118.013 196.048 118.259 195.712 118.567 195.472C118.878 195.229 119.217 195.06 119.583 194.964C119.952 194.866 120.315 194.817 120.672 194.817C120.9 194.817 121.162 194.844 121.457 194.9C121.756 194.952 122.043 195.061 122.32 195.228C122.6 195.394 122.833 195.645 123.017 195.98C123.202 196.316 123.294 196.765 123.294 197.328V202H122.205V201.04H122.15C122.076 201.194 121.953 201.358 121.78 201.534C121.608 201.709 121.379 201.858 121.092 201.982C120.806 202.105 120.457 202.166 120.044 202.166ZM120.211 201.188C120.642 201.188 121.005 201.103 121.3 200.934C121.599 200.764 121.823 200.546 121.974 200.278C122.128 200.01 122.205 199.729 122.205 199.433V198.436C122.159 198.491 122.057 198.542 121.9 198.588C121.746 198.632 121.568 198.67 121.365 198.704C121.165 198.735 120.969 198.762 120.779 198.787C120.591 198.808 120.438 198.827 120.321 198.842C120.038 198.879 119.774 198.939 119.527 199.022C119.284 199.102 119.087 199.224 118.937 199.387C118.789 199.547 118.715 199.766 118.715 200.043C118.715 200.421 118.855 200.707 119.135 200.901C119.418 201.092 119.777 201.188 120.211 201.188ZM125.283 202V194.909H126.336V195.98H126.409C126.539 195.629 126.773 195.345 127.111 195.126C127.45 194.908 127.831 194.798 128.256 194.798C128.336 194.798 128.436 194.8 128.556 194.803C128.676 194.806 128.767 194.811 128.828 194.817V195.925C128.792 195.915 128.707 195.902 128.575 195.883C128.445 195.862 128.308 195.851 128.164 195.851C127.819 195.851 127.511 195.923 127.24 196.068C126.973 196.209 126.76 196.406 126.603 196.659C126.449 196.908 126.373 197.193 126.373 197.513V202H125.283ZM132.207 202.166C131.757 202.166 131.349 202.082 130.983 201.912C130.617 201.74 130.326 201.492 130.111 201.169C129.895 200.843 129.788 200.449 129.788 199.987C129.788 199.581 129.868 199.252 130.028 198.999C130.188 198.744 130.402 198.544 130.669 198.399C130.937 198.254 131.233 198.147 131.556 198.076C131.882 198.002 132.21 197.944 132.539 197.901C132.97 197.845 133.319 197.804 133.587 197.776C133.858 197.745 134.055 197.694 134.178 197.624C134.304 197.553 134.367 197.43 134.367 197.254V197.217C134.367 196.762 134.242 196.408 133.993 196.156C133.747 195.903 133.373 195.777 132.871 195.777C132.351 195.777 131.943 195.891 131.648 196.119C131.353 196.346 131.145 196.589 131.025 196.848L129.991 196.479C130.175 196.048 130.422 195.712 130.729 195.472C131.04 195.229 131.379 195.06 131.745 194.964C132.114 194.866 132.477 194.817 132.834 194.817C133.062 194.817 133.324 194.844 133.619 194.9C133.918 194.952 134.206 195.061 134.483 195.228C134.763 195.394 134.995 195.645 135.18 195.98C135.364 196.316 135.457 196.765 135.457 197.328V202H134.367V201.04H134.312C134.238 201.194 134.115 201.358 133.942 201.534C133.77 201.709 133.541 201.858 133.255 201.982C132.968 202.105 132.619 202.166 132.207 202.166ZM132.373 201.188C132.804 201.188 133.167 201.103 133.462 200.934C133.761 200.764 133.985 200.546 134.136 200.278C134.29 200.01 134.367 199.729 134.367 199.433V198.436C134.321 198.491 134.219 198.542 134.062 198.588C133.909 198.632 133.73 198.67 133.527 198.704C133.327 198.735 133.131 198.762 132.941 198.787C132.753 198.808 132.601 198.827 132.484 198.842C132.2 198.879 131.936 198.939 131.69 199.022C131.446 199.102 131.249 199.224 131.099 199.387C130.951 199.547 130.877 199.766 130.877 200.043C130.877 200.421 131.017 200.707 131.297 200.901C131.58 201.092 131.939 201.188 132.373 201.188ZM144.259 194.909V195.832H140.437V194.909H144.259ZM141.582 202V193.93C141.582 193.524 141.677 193.186 141.868 192.915C142.059 192.644 142.306 192.441 142.611 192.305C142.916 192.17 143.237 192.102 143.576 192.102C143.844 192.102 144.062 192.124 144.231 192.167C144.401 192.21 144.527 192.25 144.61 192.287L144.296 193.229C144.241 193.21 144.164 193.187 144.065 193.159C143.97 193.132 143.844 193.118 143.687 193.118C143.327 193.118 143.066 193.209 142.906 193.39C142.749 193.572 142.671 193.838 142.671 194.189V202H141.582ZM147.669 202.166C147.22 202.166 146.812 202.082 146.446 201.912C146.08 201.74 145.789 201.492 145.574 201.169C145.358 200.843 145.25 200.449 145.25 199.987C145.25 199.581 145.33 199.252 145.491 198.999C145.651 198.744 145.864 198.544 146.132 198.399C146.4 198.254 146.695 198.147 147.019 198.076C147.345 198.002 147.673 197.944 148.002 197.901C148.433 197.845 148.782 197.804 149.05 197.776C149.321 197.745 149.518 197.694 149.641 197.624C149.767 197.553 149.83 197.43 149.83 197.254V197.217C149.83 196.762 149.705 196.408 149.456 196.156C149.21 195.903 148.836 195.777 148.334 195.777C147.814 195.777 147.406 195.891 147.111 196.119C146.815 196.346 146.608 196.589 146.488 196.848L145.454 196.479C145.638 196.048 145.884 195.712 146.192 195.472C146.503 195.229 146.842 195.06 147.208 194.964C147.577 194.866 147.94 194.817 148.297 194.817C148.525 194.817 148.787 194.844 149.082 194.9C149.381 194.952 149.668 195.061 149.945 195.228C150.225 195.394 150.458 195.645 150.642 195.98C150.827 196.316 150.919 196.765 150.919 197.328V202H149.83V201.04H149.775C149.701 201.194 149.578 201.358 149.405 201.534C149.233 201.709 149.004 201.858 148.717 201.982C148.431 202.105 148.082 202.166 147.669 202.166ZM147.836 201.188C148.267 201.188 148.63 201.103 148.925 200.934C149.224 200.764 149.448 200.546 149.599 200.278C149.753 200.01 149.83 199.729 149.83 199.433V198.436C149.784 198.491 149.682 198.542 149.525 198.588C149.371 198.632 149.193 198.67 148.99 198.704C148.79 198.735 148.594 198.762 148.404 198.787C148.216 198.808 148.063 198.827 147.946 198.842C147.663 198.879 147.399 198.939 147.152 199.022C146.909 199.102 146.712 199.224 146.562 199.387C146.414 199.547 146.34 199.766 146.34 200.043C146.34 200.421 146.48 200.707 146.76 200.901C147.043 201.092 147.402 201.188 147.836 201.188ZM155.789 202.148C155.124 202.148 154.551 201.991 154.071 201.677C153.591 201.363 153.222 200.931 152.963 200.38C152.705 199.829 152.576 199.199 152.576 198.491C152.576 197.771 152.708 197.136 152.973 196.585C153.24 196.031 153.613 195.598 154.09 195.288C154.57 194.974 155.13 194.817 155.77 194.817C156.269 194.817 156.718 194.909 157.118 195.094C157.518 195.278 157.846 195.537 158.102 195.869C158.357 196.202 158.516 196.589 158.577 197.033H157.488C157.404 196.71 157.22 196.423 156.934 196.174C156.65 195.922 156.269 195.795 155.789 195.795C155.364 195.795 154.992 195.906 154.672 196.128C154.355 196.346 154.107 196.656 153.928 197.056C153.753 197.453 153.665 197.919 153.665 198.455C153.665 199.002 153.751 199.479 153.924 199.886C154.099 200.292 154.345 200.607 154.662 200.832C154.982 201.057 155.358 201.169 155.789 201.169C156.072 201.169 156.329 201.12 156.56 201.021C156.79 200.923 156.986 200.781 157.146 200.597C157.306 200.412 157.42 200.19 157.488 199.932H158.577C158.516 200.35 158.363 200.727 158.12 201.063C157.88 201.395 157.561 201.66 157.164 201.857C156.77 202.051 156.312 202.148 155.789 202.148ZM160.17 202V194.909H161.259V202H160.17ZM160.724 193.727C160.511 193.727 160.328 193.655 160.174 193.51C160.024 193.366 159.948 193.192 159.948 192.989C159.948 192.786 160.024 192.612 160.174 192.467C160.328 192.322 160.511 192.25 160.724 192.25C160.936 192.25 161.118 192.322 161.268 192.467C161.422 192.612 161.499 192.786 161.499 192.989C161.499 193.192 161.422 193.366 161.268 193.51C161.118 193.655 160.936 193.727 160.724 193.727ZM164.344 192.545V202H163.255V192.545H164.344ZM166.34 202V194.909H167.429V202H166.34ZM166.894 193.727C166.681 193.727 166.498 193.655 166.344 193.51C166.193 193.366 166.118 193.192 166.118 192.989C166.118 192.786 166.193 192.612 166.344 192.467C166.498 192.322 166.681 192.25 166.894 192.25C167.106 192.25 167.288 192.322 167.438 192.467C167.592 192.612 167.669 192.786 167.669 192.989C167.669 193.192 167.592 193.366 167.438 193.51C167.288 193.655 167.106 193.727 166.894 193.727ZM172.508 194.909V195.832H168.834V194.909H172.508ZM169.905 193.21H170.994V199.969C170.994 200.277 171.039 200.507 171.128 200.661C171.22 200.812 171.337 200.914 171.479 200.966C171.624 201.015 171.776 201.04 171.936 201.04C172.056 201.04 172.155 201.034 172.231 201.021C172.308 201.006 172.37 200.994 172.416 200.984L172.638 201.963C172.564 201.991 172.461 202.018 172.328 202.046C172.196 202.077 172.028 202.092 171.825 202.092C171.517 202.092 171.216 202.026 170.92 201.894C170.628 201.761 170.385 201.56 170.191 201.289C170 201.018 169.905 200.677 169.905 200.264V193.21ZM176.234 202.166C175.785 202.166 175.377 202.082 175.011 201.912C174.644 201.74 174.353 201.492 174.138 201.169C173.923 200.843 173.815 200.449 173.815 199.987C173.815 199.581 173.895 199.252 174.055 198.999C174.215 198.744 174.429 198.544 174.697 198.399C174.964 198.254 175.26 198.147 175.583 198.076C175.909 198.002 176.237 197.944 176.566 197.901C176.997 197.845 177.347 197.804 177.614 197.776C177.885 197.745 178.082 197.694 178.205 197.624C178.331 197.553 178.394 197.43 178.394 197.254V197.217C178.394 196.762 178.27 196.408 178.021 196.156C177.774 195.903 177.4 195.777 176.899 195.777C176.379 195.777 175.971 195.891 175.675 196.119C175.38 196.346 175.172 196.589 175.052 196.848L174.018 196.479C174.203 196.048 174.449 195.712 174.757 195.472C175.068 195.229 175.406 195.06 175.772 194.964C176.142 194.866 176.505 194.817 176.862 194.817C177.09 194.817 177.351 194.844 177.647 194.9C177.945 194.952 178.233 195.061 178.51 195.228C178.79 195.394 179.022 195.645 179.207 195.98C179.392 196.316 179.484 196.765 179.484 197.328V202H178.394V201.04H178.339C178.265 201.194 178.142 201.358 177.97 201.534C177.797 201.709 177.568 201.858 177.282 201.982C176.996 202.105 176.646 202.166 176.234 202.166ZM176.4 201.188C176.831 201.188 177.194 201.103 177.49 200.934C177.788 200.764 178.013 200.546 178.164 200.278C178.318 200.01 178.394 199.729 178.394 199.433V198.436C178.348 198.491 178.247 198.542 178.09 198.588C177.936 198.632 177.757 198.67 177.554 198.704C177.354 198.735 177.159 198.762 176.968 198.787C176.78 198.808 176.628 198.827 176.511 198.842C176.228 198.879 175.963 198.939 175.717 199.022C175.474 199.102 175.277 199.224 175.126 199.387C174.978 199.547 174.904 199.766 174.904 200.043C174.904 200.421 175.044 200.707 175.324 200.901C175.608 201.092 175.966 201.188 176.4 201.188ZM181.472 202V194.909H182.525V195.98H182.599C182.728 195.629 182.962 195.345 183.301 195.126C183.639 194.908 184.021 194.798 184.445 194.798C184.526 194.798 184.626 194.8 184.746 194.803C184.866 194.806 184.956 194.811 185.018 194.817V195.925C184.981 195.915 184.896 195.902 184.764 195.883C184.635 195.862 184.498 195.851 184.353 195.851C184.008 195.851 183.701 195.923 183.43 196.068C183.162 196.209 182.95 196.406 182.793 196.659C182.639 196.908 182.562 197.193 182.562 197.513V202H181.472ZM192.052 202.166C191.603 202.166 191.195 202.082 190.829 201.912C190.463 201.74 190.172 201.492 189.956 201.169C189.741 200.843 189.633 200.449 189.633 199.987C189.633 199.581 189.713 199.252 189.873 198.999C190.033 198.744 190.247 198.544 190.515 198.399C190.783 198.254 191.078 198.147 191.401 198.076C191.728 198.002 192.055 197.944 192.385 197.901C192.816 197.845 193.165 197.804 193.433 197.776C193.703 197.745 193.9 197.694 194.024 197.624C194.15 197.553 194.213 197.43 194.213 197.254V197.217C194.213 196.762 194.088 196.408 193.839 196.156C193.593 195.903 193.219 195.777 192.717 195.777C192.197 195.777 191.789 195.891 191.494 196.119C191.198 196.346 190.991 196.589 190.87 196.848L189.836 196.479C190.021 196.048 190.267 195.712 190.575 195.472C190.886 195.229 191.224 195.06 191.591 194.964C191.96 194.866 192.323 194.817 192.68 194.817C192.908 194.817 193.169 194.844 193.465 194.9C193.763 194.952 194.051 195.061 194.328 195.228C194.608 195.394 194.841 195.645 195.025 195.98C195.21 196.316 195.302 196.765 195.302 197.328V202H194.213V201.04H194.157C194.084 201.194 193.96 201.358 193.788 201.534C193.616 201.709 193.386 201.858 193.1 201.982C192.814 202.105 192.465 202.166 192.052 202.166ZM192.218 201.188C192.649 201.188 193.013 201.103 193.308 200.934C193.607 200.764 193.831 200.546 193.982 200.278C194.136 200.01 194.213 199.729 194.213 199.433V198.436C194.167 198.491 194.065 198.542 193.908 198.588C193.754 198.632 193.576 198.67 193.373 198.704C193.173 198.735 192.977 198.762 192.786 198.787C192.599 198.808 192.446 198.827 192.329 198.842C192.046 198.879 191.781 198.939 191.535 199.022C191.292 199.102 191.095 199.224 190.944 199.387C190.797 199.547 190.723 199.766 190.723 200.043C190.723 200.421 190.863 200.707 191.143 200.901C191.426 201.092 191.785 201.188 192.218 201.188ZM53.7311 218.148C53.0663 218.148 52.4939 217.991 52.0138 217.677C51.5337 217.363 51.1643 216.931 50.9058 216.38C50.6473 215.829 50.518 215.199 50.518 214.491C50.518 213.771 50.6504 213.136 50.915 212.585C51.1828 212.031 51.5552 211.598 52.0322 211.288C52.5123 210.974 53.0725 210.817 53.7126 210.817C54.2112 210.817 54.6605 210.909 55.0606 211.094C55.4607 211.278 55.7885 211.537 56.044 211.869C56.2994 212.202 56.4579 212.589 56.5194 213.033H55.43C55.3469 212.71 55.1622 212.423 54.876 212.174C54.5928 211.922 54.2112 211.795 53.7311 211.795C53.3064 211.795 52.934 211.906 52.6139 212.128C52.2969 212.346 52.0492 212.656 51.8707 213.056C51.6952 213.453 51.6075 213.919 51.6075 214.455C51.6075 215.002 51.6937 215.479 51.866 215.886C52.0415 216.292 52.2877 216.607 52.6047 216.832C52.9248 217.057 53.3002 217.169 53.7311 217.169C54.0142 217.169 54.2712 217.12 54.502 217.021C54.7329 216.923 54.9283 216.781 55.0883 216.597C55.2484 216.412 55.3623 216.19 55.43 215.932H56.5194C56.4579 216.35 56.3056 216.727 56.0624 217.063C55.8224 217.395 55.5038 217.66 55.1068 217.857C54.7129 218.051 54.2543 218.148 53.7311 218.148ZM60.9928 218.148C60.3527 218.148 59.791 217.995 59.3078 217.691C58.8277 217.386 58.4522 216.96 58.1814 216.412C57.9136 215.864 57.7797 215.224 57.7797 214.491C57.7797 213.753 57.9136 213.108 58.1814 212.557C58.4522 212.006 58.8277 211.578 59.3078 211.274C59.791 210.969 60.3527 210.817 60.9928 210.817C61.633 210.817 62.1931 210.969 62.6732 211.274C63.1564 211.578 63.5319 212.006 63.7996 212.557C64.0705 213.108 64.2059 213.753 64.2059 214.491C64.2059 215.224 64.0705 215.864 63.7996 216.412C63.5319 216.96 63.1564 217.386 62.6732 217.691C62.1931 217.995 61.633 218.148 60.9928 218.148ZM60.9928 217.169C61.4791 217.169 61.8792 217.044 62.1931 216.795C62.507 216.546 62.7394 216.218 62.8902 215.812C63.041 215.406 63.1164 214.965 63.1164 214.491C63.1164 214.018 63.041 213.576 62.8902 213.167C62.7394 212.757 62.507 212.426 62.1931 212.174C61.8792 211.922 61.4791 211.795 60.9928 211.795C60.5065 211.795 60.1065 211.922 59.7925 212.174C59.4786 212.426 59.2462 212.757 59.0954 213.167C58.9446 213.576 58.8692 214.018 58.8692 214.491C58.8692 214.965 58.9446 215.406 59.0954 215.812C59.2462 216.218 59.4786 216.546 59.7925 216.795C60.1065 217.044 60.5065 217.169 60.9928 217.169ZM66.9585 213.734V218H65.869V210.909H66.9215V212.017H67.0139C67.18 211.657 67.4324 211.368 67.771 211.149C68.1095 210.928 68.5465 210.817 69.082 210.817C69.5622 210.817 69.9823 210.915 70.3423 211.112C70.7024 211.306 70.9825 211.602 71.1825 211.999C71.3826 212.393 71.4826 212.891 71.4826 213.494V218H70.3931V213.568C70.3931 213.011 70.2485 212.577 69.9592 212.266C69.6699 211.952 69.2729 211.795 68.7681 211.795C68.4203 211.795 68.1095 211.871 67.8356 212.022C67.5648 212.172 67.3509 212.393 67.1939 212.682C67.0369 212.971 66.9585 213.322 66.9585 213.734ZM78.4962 212.497L77.5175 212.774C77.4559 212.611 77.3652 212.453 77.2451 212.299C77.1282 212.142 76.9681 212.012 76.765 211.911C76.5619 211.809 76.3018 211.759 75.9848 211.759C75.5509 211.759 75.1893 211.859 74.9 212.059C74.6137 212.256 74.4706 212.506 74.4706 212.811C74.4706 213.082 74.5691 213.296 74.7661 213.453C74.963 213.61 75.2708 213.741 75.6894 213.845L76.7419 214.104C77.3759 214.258 77.8483 214.493 78.1592 214.81C78.47 215.124 78.6255 215.529 78.6255 216.024C78.6255 216.43 78.5085 216.794 78.2746 217.114C78.0438 217.434 77.7206 217.686 77.3051 217.871C76.8897 218.055 76.4065 218.148 75.8556 218.148C75.1323 218.148 74.5337 217.991 74.0598 217.677C73.5858 217.363 73.2857 216.904 73.1595 216.301L74.1936 216.043C74.2921 216.424 74.4783 216.71 74.7522 216.901C75.0292 217.092 75.3908 217.188 75.8371 217.188C76.3449 217.188 76.7481 217.08 77.0466 216.864C77.3482 216.646 77.499 216.384 77.499 216.08C77.499 215.833 77.4129 215.627 77.2405 215.461C77.0682 215.292 76.8035 215.165 76.4465 215.082L75.2647 214.805C74.6153 214.652 74.1382 214.413 73.8335 214.09C73.5319 213.764 73.3811 213.356 73.3811 212.866C73.3811 212.466 73.4935 212.112 73.7181 211.805C73.9459 211.497 74.2552 211.255 74.646 211.08C75.04 210.904 75.4862 210.817 75.9848 210.817C76.6865 210.817 77.2374 210.971 77.6375 211.278C78.0407 211.586 78.3269 211.992 78.4962 212.497ZM83.3493 210.909V211.832H79.6745V210.909H83.3493ZM80.7456 209.21H81.8351V215.969C81.8351 216.277 81.8797 216.507 81.9689 216.661C82.0613 216.812 82.1782 216.914 82.3198 216.966C82.4644 217.015 82.6168 217.04 82.7768 217.04C82.8968 217.04 82.9953 217.034 83.0723 217.021C83.1492 217.006 83.2108 216.994 83.2569 216.984L83.4785 217.963C83.4047 217.991 83.3016 218.018 83.1692 218.046C83.0369 218.077 82.8691 218.092 82.666 218.092C82.3583 218.092 82.0566 218.026 81.7612 217.894C81.4688 217.761 81.2257 217.56 81.0318 217.289C80.841 217.018 80.7456 216.677 80.7456 216.264V209.21ZM84.9881 218V210.909H86.0407V211.98H86.1145C86.2438 211.629 86.4777 211.345 86.8162 211.126C87.1548 210.908 87.5364 210.798 87.9611 210.798C88.0411 210.798 88.1412 210.8 88.2612 210.803C88.3812 210.806 88.472 210.811 88.5336 210.817V211.925C88.4966 211.915 88.412 211.902 88.2797 211.883C88.1504 211.862 88.0134 211.851 87.8688 211.851C87.5241 211.851 87.2163 211.923 86.9455 212.068C86.6777 212.209 86.4654 212.406 86.3084 212.659C86.1545 212.908 86.0776 213.193 86.0776 213.513V218H84.9881ZM94.2938 215.101V210.909H95.3833V218H94.2938V216.8H94.2199C94.0537 217.16 93.7952 217.466 93.4443 217.718C93.0935 217.968 92.6503 218.092 92.1148 218.092C91.6716 218.092 91.2777 217.995 90.933 217.801C90.5883 217.605 90.3174 217.309 90.1205 216.915C89.9235 216.518 89.825 216.018 89.825 215.415V210.909H90.9145V215.341C90.9145 215.858 91.0592 216.27 91.3485 216.578C91.6408 216.886 92.0132 217.04 92.4656 217.04C92.7365 217.04 93.0119 216.971 93.292 216.832C93.5751 216.694 93.8121 216.481 94.0029 216.195C94.1968 215.909 94.2938 215.544 94.2938 215.101ZM100.259 218.148C99.5946 218.148 99.0222 217.991 98.5421 217.677C98.062 217.363 97.6927 216.931 97.4341 216.38C97.1756 215.829 97.0463 215.199 97.0463 214.491C97.0463 213.771 97.1787 213.136 97.4434 212.585C97.7111 212.031 98.0835 211.598 98.5606 211.288C99.0407 210.974 99.6008 210.817 100.241 210.817C100.74 210.817 101.189 210.909 101.589 211.094C101.989 211.278 102.317 211.537 102.572 211.869C102.828 212.202 102.986 212.589 103.048 213.033H101.958C101.875 212.71 101.691 212.423 101.404 212.174C101.121 211.922 100.74 211.795 100.259 211.795C99.8347 211.795 99.4623 211.906 99.1422 212.128C98.8252 212.346 98.5775 212.656 98.399 213.056C98.2236 213.453 98.1358 213.919 98.1358 214.455C98.1358 215.002 98.222 215.479 98.3944 215.886C98.5698 216.292 98.816 216.607 99.133 216.832C99.4531 217.057 99.8285 217.169 100.259 217.169C100.543 217.169 100.8 217.12 101.03 217.021C101.261 216.923 101.457 216.781 101.617 216.597C101.777 216.412 101.891 216.19 101.958 215.932H103.048C102.986 216.35 102.834 216.727 102.591 217.063C102.351 217.395 102.032 217.66 101.635 217.857C101.241 218.051 100.783 218.148 100.259 218.148ZM99.7424 217.963H100.647L100.573 218.332C100.813 218.369 101.033 218.469 101.233 218.632C101.434 218.799 101.534 219.062 101.534 219.422C101.534 219.819 101.369 220.142 101.04 220.391C100.713 220.644 100.232 220.77 99.5946 220.77L99.5577 220.05C99.8439 220.05 100.081 220.004 100.269 219.911C100.459 219.822 100.555 219.671 100.555 219.459C100.555 219.246 100.476 219.102 100.319 219.025C100.162 218.948 99.9086 218.896 99.5577 218.868L99.7424 217.963ZM106.727 218.166C106.278 218.166 105.87 218.082 105.504 217.912C105.137 217.74 104.847 217.492 104.631 217.169C104.416 216.843 104.308 216.449 104.308 215.987C104.308 215.581 104.388 215.252 104.548 214.999C104.708 214.744 104.922 214.544 105.19 214.399C105.458 214.254 105.753 214.147 106.076 214.076C106.402 214.002 106.73 213.944 107.059 213.901C107.49 213.845 107.84 213.804 108.107 213.776C108.378 213.745 108.575 213.694 108.698 213.624C108.825 213.553 108.888 213.43 108.888 213.254V213.217C108.888 212.762 108.763 212.408 108.514 212.156C108.267 211.903 107.894 211.777 107.392 211.777C106.872 211.777 106.464 211.891 106.169 212.119C105.873 212.346 105.665 212.589 105.545 212.848L104.511 212.479C104.696 212.048 104.942 211.712 105.25 211.472C105.561 211.229 105.899 211.06 106.265 210.964C106.635 210.866 106.998 210.817 107.355 210.817C107.583 210.817 107.844 210.844 108.14 210.9C108.438 210.952 108.726 211.061 109.003 211.228C109.283 211.394 109.515 211.645 109.7 211.98C109.885 212.316 109.977 212.765 109.977 213.328V218H108.888V217.04H108.832C108.758 217.194 108.635 217.358 108.463 217.534C108.291 217.709 108.061 217.858 107.775 217.982C107.489 218.105 107.14 218.166 106.727 218.166ZM106.893 217.188C107.324 217.188 107.687 217.103 107.983 216.934C108.281 216.764 108.506 216.546 108.657 216.278C108.811 216.01 108.888 215.729 108.888 215.433V214.436C108.841 214.491 108.74 214.542 108.583 214.588C108.429 214.632 108.251 214.67 108.047 214.704C107.847 214.735 107.652 214.762 107.461 214.787C107.273 214.808 107.121 214.827 107.004 214.842C106.721 214.879 106.456 214.939 106.21 215.022C105.967 215.102 105.77 215.224 105.619 215.387C105.471 215.547 105.398 215.766 105.398 216.043C105.398 216.421 105.538 216.707 105.818 216.901C106.101 217.092 106.459 217.188 106.893 217.188ZM106.007 210.06L105.157 210.023C105.157 209.552 105.291 209.167 105.559 208.869C105.83 208.567 106.164 208.416 106.561 208.416C106.736 208.416 106.892 208.447 107.027 208.509C107.163 208.567 107.292 208.635 107.415 208.712C107.538 208.789 107.664 208.858 107.794 208.919C107.926 208.978 108.075 209.007 108.241 209.007C108.417 209.007 108.564 208.939 108.684 208.804C108.808 208.665 108.869 208.499 108.869 208.305L109.7 208.379C109.7 208.859 109.565 209.241 109.294 209.524C109.026 209.807 108.694 209.949 108.297 209.949C108.084 209.949 107.909 209.92 107.77 209.861C107.632 209.8 107.509 209.73 107.401 209.653C107.293 209.576 107.18 209.509 107.059 209.45C106.939 209.389 106.792 209.358 106.616 209.358C106.441 209.358 106.295 209.427 106.178 209.566C106.064 209.701 106.007 209.866 106.007 210.06ZM114.846 218.148C114.206 218.148 113.645 217.995 113.161 217.691C112.681 217.386 112.306 216.96 112.035 216.412C111.767 215.864 111.633 215.224 111.633 214.491C111.633 213.753 111.767 213.108 112.035 212.557C112.306 212.006 112.681 211.578 113.161 211.274C113.645 210.969 114.206 210.817 114.846 210.817C115.486 210.817 116.047 210.969 116.527 211.274C117.01 211.578 117.385 212.006 117.653 212.557C117.924 213.108 118.059 213.753 118.059 214.491C118.059 215.224 117.924 215.864 117.653 216.412C117.385 216.96 117.01 217.386 116.527 217.691C116.047 217.995 115.486 218.148 114.846 218.148ZM114.846 217.169C115.333 217.169 115.733 217.044 116.047 216.795C116.361 216.546 116.593 216.218 116.744 215.812C116.895 215.406 116.97 214.965 116.97 214.491C116.97 214.018 116.895 213.576 116.744 213.167C116.593 212.757 116.361 212.426 116.047 212.174C115.733 211.922 115.333 211.795 114.846 211.795C114.36 211.795 113.96 211.922 113.646 212.174C113.332 212.426 113.1 212.757 112.949 213.167C112.798 213.576 112.723 214.018 112.723 214.491C112.723 214.965 112.798 215.406 112.949 215.812C113.1 216.218 113.332 216.546 113.646 216.795C113.96 217.044 114.36 217.169 114.846 217.169ZM126.056 218.148C125.465 218.148 124.944 217.998 124.491 217.7C124.039 217.398 123.685 216.974 123.43 216.426C123.174 215.875 123.046 215.224 123.046 214.473C123.046 213.728 123.174 213.082 123.43 212.534C123.685 211.986 124.04 211.563 124.496 211.265C124.951 210.966 125.478 210.817 126.075 210.817C126.536 210.817 126.901 210.894 127.169 211.048C127.44 211.198 127.646 211.371 127.787 211.565C127.932 211.755 128.044 211.912 128.124 212.036H128.217V208.545H129.306V218H128.254V216.911H128.124C128.044 217.04 127.931 217.203 127.783 217.4C127.635 217.594 127.424 217.768 127.15 217.922C126.876 218.072 126.512 218.148 126.056 218.148ZM126.204 217.169C126.641 217.169 127.01 217.055 127.312 216.827C127.614 216.597 127.843 216.278 128 215.872C128.157 215.462 128.235 214.99 128.235 214.455C128.235 213.925 128.158 213.462 128.004 213.065C127.851 212.665 127.623 212.354 127.321 212.132C127.02 211.908 126.647 211.795 126.204 211.795C125.742 211.795 125.358 211.914 125.05 212.151C124.745 212.385 124.516 212.703 124.362 213.107C124.211 213.507 124.136 213.956 124.136 214.455C124.136 214.959 124.213 215.418 124.367 215.83C124.524 216.24 124.754 216.566 125.059 216.809C125.367 217.049 125.749 217.169 126.204 217.169ZM134.426 218.148C133.743 218.148 133.153 217.997 132.658 217.695C132.165 217.391 131.785 216.966 131.518 216.421C131.253 215.873 131.121 215.236 131.121 214.51C131.121 213.784 131.253 213.143 131.518 212.589C131.785 212.032 132.158 211.598 132.635 211.288C133.115 210.974 133.675 210.817 134.315 210.817C134.684 210.817 135.049 210.878 135.409 211.001C135.769 211.125 136.097 211.325 136.393 211.602C136.688 211.875 136.923 212.239 137.099 212.691C137.274 213.143 137.362 213.701 137.362 214.362V214.824H131.896V213.882H136.254C136.254 213.482 136.174 213.125 136.014 212.811C135.857 212.497 135.632 212.249 135.34 212.068C135.051 211.886 134.709 211.795 134.315 211.795C133.881 211.795 133.506 211.903 133.189 212.119C132.875 212.331 132.633 212.608 132.464 212.95C132.295 213.291 132.21 213.657 132.21 214.048V214.676C132.21 215.212 132.302 215.666 132.487 216.038C132.675 216.407 132.935 216.689 133.267 216.883C133.6 217.074 133.986 217.169 134.426 217.169C134.712 217.169 134.971 217.129 135.202 217.049C135.435 216.966 135.637 216.843 135.806 216.68C135.976 216.513 136.106 216.307 136.199 216.061L137.251 216.357C137.14 216.714 136.954 217.027 136.693 217.298C136.431 217.566 136.108 217.775 135.723 217.926C135.338 218.074 134.906 218.148 134.426 218.148ZM144.282 218L142.122 210.909H143.267L144.799 216.338H144.873L146.387 210.909H147.551L149.046 216.32H149.12L150.653 210.909H151.798L149.637 218H148.566L147.015 212.553H146.904L145.353 218H144.282ZM155.97 218.148C155.287 218.148 154.697 217.997 154.202 217.695C153.709 217.391 153.329 216.966 153.062 216.421C152.797 215.873 152.665 215.236 152.665 214.51C152.665 213.784 152.797 213.143 153.062 212.589C153.329 212.032 153.702 211.598 154.179 211.288C154.659 210.974 155.219 210.817 155.859 210.817C156.228 210.817 156.593 210.878 156.953 211.001C157.313 211.125 157.641 211.325 157.937 211.602C158.232 211.875 158.467 212.239 158.643 212.691C158.818 213.143 158.906 213.701 158.906 214.362V214.824H153.44V213.882H157.798C157.798 213.482 157.718 213.125 157.558 212.811C157.401 212.497 157.176 212.249 156.884 212.068C156.595 211.886 156.253 211.795 155.859 211.795C155.425 211.795 155.05 211.903 154.733 212.119C154.419 212.331 154.177 212.608 154.008 212.95C153.839 213.291 153.754 213.657 153.754 214.048V214.676C153.754 215.212 153.846 215.666 154.031 216.038C154.219 216.407 154.479 216.689 154.811 216.883C155.144 217.074 155.53 217.169 155.97 217.169C156.256 217.169 156.515 217.129 156.745 217.049C156.979 216.966 157.181 216.843 157.35 216.68C157.52 216.513 157.65 216.307 157.743 216.061L158.795 216.357C158.684 216.714 158.498 217.027 158.237 217.298C157.975 217.566 157.652 217.775 157.267 217.926C156.882 218.074 156.45 218.148 155.97 218.148ZM160.711 218V208.545H161.801V212.036H161.893C161.973 211.912 162.084 211.755 162.225 211.565C162.37 211.371 162.576 211.198 162.844 211.048C163.115 210.894 163.481 210.817 163.943 210.817C164.54 210.817 165.066 210.966 165.521 211.265C165.977 211.563 166.332 211.986 166.588 212.534C166.843 213.082 166.971 213.728 166.971 214.473C166.971 215.224 166.843 215.875 166.588 216.426C166.332 216.974 165.978 217.398 165.526 217.7C165.074 217.998 164.552 218.148 163.961 218.148C163.506 218.148 163.141 218.072 162.867 217.922C162.593 217.768 162.382 217.594 162.234 217.4C162.087 217.203 161.973 217.04 161.893 216.911H161.764V218H160.711ZM161.782 214.455C161.782 214.99 161.861 215.462 162.017 215.872C162.174 216.278 162.404 216.597 162.705 216.827C163.007 217.055 163.376 217.169 163.813 217.169C164.269 217.169 164.649 217.049 164.954 216.809C165.261 216.566 165.492 216.24 165.646 215.83C165.803 215.418 165.881 214.959 165.881 214.455C165.881 213.956 165.805 213.507 165.651 213.107C165.5 212.703 165.271 212.385 164.963 212.151C164.658 211.914 164.275 211.795 163.813 211.795C163.37 211.795 162.998 211.908 162.696 212.132C162.395 212.354 162.167 212.665 162.013 213.065C161.859 213.462 161.782 213.925 161.782 214.455ZM173.66 212.497L172.682 212.774C172.62 212.611 172.529 212.453 172.409 212.299C172.292 212.142 172.132 212.012 171.929 211.911C171.726 211.809 171.466 211.759 171.149 211.759C170.715 211.759 170.353 211.859 170.064 212.059C169.778 212.256 169.635 212.506 169.635 212.811C169.635 213.082 169.733 213.296 169.93 213.453C170.127 213.61 170.435 213.741 170.853 213.845L171.906 214.104C172.54 214.258 173.012 214.493 173.323 214.81C173.634 215.124 173.79 215.529 173.79 216.024C173.79 216.43 173.673 216.794 173.439 217.114C173.208 217.434 172.885 217.686 172.469 217.871C172.054 218.055 171.571 218.148 171.02 218.148C170.296 218.148 169.698 217.991 169.224 217.677C168.75 217.363 168.45 216.904 168.324 216.301L169.358 216.043C169.456 216.424 169.642 216.71 169.916 216.901C170.193 217.092 170.555 217.188 171.001 217.188C171.509 217.188 171.912 217.08 172.211 216.864C172.512 216.646 172.663 216.384 172.663 216.08C172.663 215.833 172.577 215.627 172.405 215.461C172.232 215.292 171.968 215.165 171.611 215.082L170.429 214.805C169.779 214.652 169.302 214.413 168.998 214.09C168.696 213.764 168.545 213.356 168.545 212.866C168.545 212.466 168.658 212.112 168.882 211.805C169.11 211.497 169.419 211.255 169.81 211.08C170.204 210.904 170.65 210.817 171.149 210.817C171.851 210.817 172.401 210.971 172.802 211.278C173.205 211.586 173.491 211.992 173.66 212.497ZM175.43 218V210.909H176.519V218H175.43ZM175.983 209.727C175.771 209.727 175.588 209.655 175.434 209.51C175.283 209.366 175.208 209.192 175.208 208.989C175.208 208.786 175.283 208.612 175.434 208.467C175.588 208.322 175.771 208.25 175.983 208.25C176.196 208.25 176.377 208.322 176.528 208.467C176.682 208.612 176.759 208.786 176.759 208.989C176.759 209.192 176.682 209.366 176.528 209.51C176.377 209.655 176.196 209.727 175.983 209.727ZM181.598 210.909V211.832H177.924V210.909H181.598ZM178.995 209.21H180.084V215.969C180.084 216.277 180.129 216.507 180.218 216.661C180.31 216.812 180.427 216.914 180.569 216.966C180.713 217.015 180.866 217.04 181.026 217.04C181.146 217.04 181.244 217.034 181.321 217.021C181.398 217.006 181.46 216.994 181.506 216.984L181.728 217.963C181.654 217.991 181.551 218.018 181.418 218.046C181.286 218.077 181.118 218.092 180.915 218.092C180.607 218.092 180.306 218.026 180.01 217.894C179.718 217.761 179.475 217.56 179.281 217.289C179.09 217.018 178.995 216.677 178.995 216.264V209.21ZM186.134 218.148C185.451 218.148 184.861 217.997 184.366 217.695C183.873 217.391 183.493 216.966 183.226 216.421C182.961 215.873 182.829 215.236 182.829 214.51C182.829 213.784 182.961 213.143 183.226 212.589C183.493 212.032 183.866 211.598 184.343 211.288C184.823 210.974 185.383 210.817 186.023 210.817C186.392 210.817 186.757 210.878 187.117 211.001C187.477 211.125 187.805 211.325 188.101 211.602C188.396 211.875 188.631 212.239 188.807 212.691C188.982 213.143 189.07 213.701 189.07 214.362V214.824H183.604V213.882H187.962C187.962 213.482 187.882 213.125 187.722 212.811C187.565 212.497 187.34 212.249 187.048 212.068C186.759 211.886 186.417 211.795 186.023 211.795C185.589 211.795 185.214 211.903 184.897 212.119C184.583 212.331 184.341 212.608 184.172 212.95C184.003 213.291 183.918 213.657 183.918 214.048V214.676C183.918 215.212 184.01 215.666 184.195 216.038C184.383 216.407 184.643 216.689 184.975 216.883C185.308 217.074 185.694 217.169 186.134 217.169C186.42 217.169 186.679 217.129 186.91 217.049C187.143 216.966 187.345 216.843 187.514 216.68C187.684 216.513 187.814 216.307 187.907 216.061L188.959 216.357C188.848 216.714 188.662 217.027 188.401 217.298C188.139 217.566 187.816 217.775 187.431 217.926C187.046 218.074 186.614 218.148 186.134 218.148ZM195.75 212.497L194.771 212.774C194.71 212.611 194.619 212.453 194.499 212.299C194.382 212.142 194.222 212.012 194.019 211.911C193.816 211.809 193.556 211.759 193.239 211.759C192.805 211.759 192.443 211.859 192.154 212.059C191.868 212.256 191.725 212.506 191.725 212.811C191.725 213.082 191.823 213.296 192.02 213.453C192.217 213.61 192.525 213.741 192.943 213.845L193.996 214.104C194.63 214.258 195.102 214.493 195.413 214.81C195.724 215.124 195.879 215.529 195.879 216.024C195.879 216.43 195.762 216.794 195.529 217.114C195.298 217.434 194.975 217.686 194.559 217.871C194.144 218.055 193.66 218.148 193.109 218.148C192.386 218.148 191.788 217.991 191.314 217.677C190.84 217.363 190.54 216.904 190.413 216.301L191.448 216.043C191.546 216.424 191.732 216.71 192.006 216.901C192.283 217.092 192.645 217.188 193.091 217.188C193.599 217.188 194.002 217.08 194.301 216.864C194.602 216.646 194.753 216.384 194.753 216.08C194.753 215.833 194.667 215.627 194.494 215.461C194.322 215.292 194.057 215.165 193.7 215.082L192.519 214.805C191.869 214.652 191.392 214.413 191.087 214.09C190.786 213.764 190.635 213.356 190.635 212.866C190.635 212.466 190.747 212.112 190.972 211.805C191.2 211.497 191.509 211.255 191.9 211.08C192.294 210.904 192.74 210.817 193.239 210.817C193.94 210.817 194.491 210.971 194.891 211.278C195.295 211.586 195.581 211.992 195.75 212.497ZM198.313 218.074C198.086 218.074 197.89 217.992 197.727 217.829C197.564 217.666 197.482 217.471 197.482 217.243C197.482 217.015 197.564 216.82 197.727 216.657C197.89 216.493 198.086 216.412 198.313 216.412C198.541 216.412 198.737 216.493 198.9 216.657C199.063 216.82 199.144 217.015 199.144 217.243C199.144 217.394 199.106 217.532 199.029 217.658C198.955 217.785 198.855 217.886 198.729 217.963C198.606 218.037 198.467 218.074 198.313 218.074Z" fill="white"/>
<path d="M90.5124 139V128.818H94.5891C95.3382 128.818 95.9629 128.929 96.4634 129.151C96.9639 129.373 97.34 129.682 97.5919 130.076C97.8438 130.467 97.9698 130.918 97.9698 131.428C97.9698 131.826 97.8902 132.176 97.7311 132.477C97.5721 132.776 97.3533 133.021 97.0749 133.213C96.7998 133.402 96.4849 133.536 96.1303 133.616V133.715C96.5181 133.732 96.881 133.841 97.2191 134.043C97.5605 134.246 97.8372 134.529 98.0493 134.893C98.2614 135.255 98.3675 135.686 98.3675 136.186C98.3675 136.726 98.2333 137.209 97.9648 137.633C97.6997 138.054 97.3069 138.387 96.7865 138.632C96.2662 138.877 95.6248 139 94.8625 139H90.5124ZM92.6651 137.24H94.4201C95.02 137.24 95.4575 137.126 95.7326 136.897C96.0077 136.665 96.1452 136.357 96.1452 135.972C96.1452 135.691 96.0773 135.442 95.9414 135.227C95.8055 135.011 95.6116 134.842 95.3597 134.719C95.1111 134.597 94.8145 134.536 94.4698 134.536H92.6651V137.24ZM92.6651 133.079H94.261C94.556 133.079 94.8178 133.027 95.0465 132.925C95.2785 132.819 95.4608 132.67 95.5934 132.477C95.7293 132.285 95.7972 132.055 95.7972 131.786C95.7972 131.418 95.6663 131.122 95.4044 130.896C95.1459 130.671 94.778 130.558 94.3007 130.558H92.6651V133.079ZM103.179 139.149C102.407 139.149 101.739 138.985 101.175 138.657C100.615 138.326 100.183 137.865 99.8776 137.275C99.5727 136.682 99.4202 135.994 99.4202 135.212C99.4202 134.423 99.5727 133.733 99.8776 133.143C100.183 132.55 100.615 132.089 101.175 131.761C101.739 131.43 102.407 131.264 103.179 131.264C103.951 131.264 104.617 131.43 105.177 131.761C105.741 132.089 106.175 132.55 106.48 133.143C106.785 133.733 106.937 134.423 106.937 135.212C106.937 135.994 106.785 136.682 106.48 137.275C106.175 137.865 105.741 138.326 105.177 138.657C104.617 138.985 103.951 139.149 103.179 139.149ZM103.189 137.509C103.54 137.509 103.833 137.409 104.069 137.21C104.304 137.008 104.481 136.733 104.601 136.385C104.723 136.037 104.785 135.641 104.785 135.197C104.785 134.753 104.723 134.357 104.601 134.009C104.481 133.661 104.304 133.385 104.069 133.183C103.833 132.981 103.54 132.88 103.189 132.88C102.834 132.88 102.536 132.981 102.294 133.183C102.055 133.385 101.875 133.661 101.752 134.009C101.633 134.357 101.573 134.753 101.573 135.197C101.573 135.641 101.633 136.037 101.752 136.385C101.875 136.733 102.055 137.008 102.294 137.21C102.536 137.409 102.834 137.509 103.189 137.509ZM111.765 139.149C110.992 139.149 110.325 138.985 109.761 138.657C109.201 138.326 108.768 137.865 108.464 137.275C108.159 136.682 108.006 135.994 108.006 135.212C108.006 134.423 108.159 133.733 108.464 133.143C108.768 132.55 109.201 132.089 109.761 131.761C110.325 131.43 110.992 131.264 111.765 131.264C112.537 131.264 113.203 131.43 113.763 131.761C114.327 132.089 114.761 132.55 115.066 133.143C115.371 133.733 115.523 134.423 115.523 135.212C115.523 135.994 115.371 136.682 115.066 137.275C114.761 137.865 114.327 138.326 113.763 138.657C113.203 138.985 112.537 139.149 111.765 139.149ZM111.775 137.509C112.126 137.509 112.419 137.409 112.655 137.21C112.89 137.008 113.067 136.733 113.187 136.385C113.309 136.037 113.371 135.641 113.371 135.197C113.371 134.753 113.309 134.357 113.187 134.009C113.067 133.661 112.89 133.385 112.655 133.183C112.419 132.981 112.126 132.88 111.775 132.88C111.42 132.88 111.122 132.981 110.88 133.183C110.641 133.385 110.46 133.661 110.338 134.009C110.219 134.357 110.159 134.753 110.159 135.197C110.159 135.641 110.219 136.037 110.338 136.385C110.46 136.733 110.641 137.008 110.88 137.21C111.122 137.409 111.42 137.509 111.775 137.509ZM120.962 131.364V132.955H116.363V131.364H120.962ZM117.407 129.534H119.525V136.653C119.525 136.849 119.555 137.001 119.615 137.111C119.675 137.217 119.757 137.291 119.863 137.335C119.973 137.378 120.099 137.399 120.241 137.399C120.341 137.399 120.44 137.391 120.54 137.374C120.639 137.354 120.715 137.339 120.768 137.33L121.101 138.906C120.995 138.939 120.846 138.977 120.654 139.02C120.462 139.066 120.228 139.094 119.953 139.104C119.442 139.124 118.995 139.056 118.611 138.901C118.229 138.745 117.933 138.503 117.721 138.175C117.509 137.847 117.404 137.432 117.407 136.932V129.534ZM128.6 133.541L126.661 133.661C126.628 133.495 126.556 133.346 126.447 133.213C126.338 133.077 126.194 132.969 126.015 132.89C125.839 132.807 125.628 132.766 125.383 132.766C125.055 132.766 124.778 132.835 124.553 132.974C124.328 133.11 124.215 133.293 124.215 133.521C124.215 133.704 124.288 133.858 124.434 133.984C124.579 134.11 124.83 134.211 125.184 134.287L126.566 134.565C127.309 134.718 127.862 134.963 128.227 135.301C128.591 135.639 128.774 136.083 128.774 136.634C128.774 137.134 128.626 137.573 128.331 137.951C128.04 138.329 127.639 138.624 127.128 138.836C126.621 139.045 126.036 139.149 125.373 139.149C124.362 139.149 123.557 138.939 122.957 138.518C122.36 138.094 122.011 137.517 121.908 136.788L123.991 136.678C124.054 136.987 124.207 137.222 124.448 137.384C124.69 137.543 125 137.623 125.378 137.623C125.749 137.623 126.048 137.552 126.273 137.409C126.502 137.263 126.618 137.076 126.621 136.847C126.618 136.655 126.537 136.498 126.377 136.375C126.218 136.249 125.973 136.153 125.642 136.087L124.319 135.823C123.573 135.674 123.018 135.415 122.654 135.048C122.292 134.68 122.112 134.211 122.112 133.641C122.112 133.15 122.244 132.728 122.51 132.373C122.778 132.018 123.154 131.745 123.638 131.553C124.125 131.36 124.695 131.264 125.348 131.264C126.313 131.264 127.072 131.468 127.625 131.876C128.182 132.283 128.507 132.839 128.6 133.541ZM134.169 131.364V132.955H129.57V131.364H134.169ZM130.614 129.534H132.732V136.653C132.732 136.849 132.762 137.001 132.822 137.111C132.882 137.217 132.964 137.291 133.07 137.335C133.18 137.378 133.306 137.399 133.448 137.399C133.548 137.399 133.647 137.391 133.747 137.374C133.846 137.354 133.922 137.339 133.975 137.33L134.308 138.906C134.202 138.939 134.053 138.977 133.861 139.02C133.669 139.066 133.435 139.094 133.16 139.104C132.65 139.124 132.202 139.056 131.818 138.901C131.436 138.745 131.14 138.503 130.928 138.175C130.716 137.847 130.611 137.432 130.614 136.932V129.534ZM135.549 139V131.364H137.602V132.696H137.682C137.821 132.222 138.054 131.864 138.383 131.622C138.711 131.377 139.089 131.254 139.516 131.254C139.622 131.254 139.737 131.261 139.859 131.274C139.982 131.287 140.09 131.306 140.182 131.329V133.208C140.083 133.178 139.945 133.152 139.77 133.129C139.594 133.105 139.433 133.094 139.287 133.094C138.976 133.094 138.697 133.162 138.452 133.298C138.21 133.43 138.018 133.616 137.875 133.854C137.736 134.093 137.667 134.368 137.667 134.68V139H135.549ZM143.236 139.144C142.749 139.144 142.315 139.06 141.934 138.891C141.552 138.718 141.251 138.465 141.029 138.13C140.81 137.792 140.701 137.371 140.701 136.867C140.701 136.443 140.778 136.087 140.934 135.798C141.09 135.51 141.302 135.278 141.571 135.102C141.839 134.927 142.144 134.794 142.485 134.705C142.83 134.615 143.191 134.552 143.569 134.516C144.013 134.469 144.371 134.426 144.643 134.386C144.915 134.343 145.112 134.28 145.235 134.197C145.357 134.115 145.419 133.992 145.419 133.83V133.8C145.419 133.485 145.319 133.241 145.12 133.069C144.925 132.897 144.646 132.81 144.285 132.81C143.904 132.81 143.601 132.895 143.375 133.064C143.15 133.23 143.001 133.438 142.928 133.69L140.969 133.531C141.069 133.067 141.264 132.666 141.556 132.328C141.847 131.987 142.224 131.725 142.684 131.543C143.148 131.357 143.685 131.264 144.295 131.264C144.719 131.264 145.125 131.314 145.513 131.413C145.904 131.513 146.251 131.667 146.552 131.876C146.857 132.085 147.097 132.353 147.273 132.681C147.449 133.006 147.537 133.395 147.537 133.849V139H145.528V137.941H145.468C145.346 138.18 145.182 138.39 144.976 138.572C144.771 138.751 144.524 138.892 144.235 138.995C143.947 139.094 143.614 139.144 143.236 139.144ZM143.843 137.683C144.154 137.683 144.429 137.621 144.668 137.499C144.907 137.373 145.094 137.204 145.23 136.991C145.366 136.779 145.434 136.539 145.434 136.271V135.46C145.367 135.503 145.276 135.543 145.16 135.58C145.047 135.613 144.92 135.644 144.777 135.674C144.635 135.701 144.492 135.725 144.35 135.749C144.207 135.768 144.078 135.787 143.962 135.803C143.713 135.84 143.496 135.898 143.311 135.977C143.125 136.057 142.981 136.165 142.878 136.3C142.775 136.433 142.724 136.599 142.724 136.798C142.724 137.086 142.828 137.306 143.037 137.459C143.249 137.608 143.518 137.683 143.843 137.683ZM149.18 141.864V131.364H151.268V132.646H151.362C151.455 132.441 151.589 132.232 151.765 132.02C151.944 131.804 152.176 131.625 152.461 131.483C152.749 131.337 153.107 131.264 153.535 131.264C154.092 131.264 154.605 131.41 155.076 131.702C155.547 131.99 155.923 132.426 156.205 133.009C156.486 133.589 156.627 134.317 156.627 135.192C156.627 136.044 156.49 136.763 156.214 137.349C155.943 137.933 155.571 138.375 155.101 138.677C154.633 138.975 154.11 139.124 153.53 139.124C153.119 139.124 152.769 139.056 152.481 138.92C152.196 138.785 151.962 138.614 151.78 138.408C151.598 138.2 151.458 137.989 151.362 137.777H151.298V141.864H149.18ZM151.253 135.182C151.253 135.636 151.316 136.032 151.442 136.37C151.568 136.708 151.75 136.972 151.989 137.161C152.227 137.346 152.517 137.439 152.859 137.439C153.203 137.439 153.495 137.344 153.734 137.156C153.972 136.963 154.153 136.698 154.276 136.36C154.401 136.019 154.464 135.626 154.464 135.182C154.464 134.741 154.403 134.353 154.281 134.018C154.158 133.684 153.977 133.422 153.739 133.233C153.5 133.044 153.207 132.95 152.859 132.95C152.514 132.95 152.222 133.041 151.984 133.223C151.748 133.405 151.568 133.664 151.442 133.999C151.316 134.333 151.253 134.728 151.253 135.182Z" fill="white"/>
<g clip-path="url(#clip0_103_1725)">
<path d="M105.366 86.2501H122.384C131.218 86.2501 136.527 81.9938 136.527 75.0188C136.527 69.8532 132.8 66.0375 127.203 65.4844V65.0157C131.277 64.3594 134.46 60.6563 134.46 56.5032C134.46 50.4094 129.784 46.6125 122.012 46.6125H105.366V86.2501ZM111.796 63.3985V51.8344H120.513C125.278 51.8344 128.065 53.9766 128.065 57.6329C128.065 61.3922 125.107 63.3985 119.426 63.3985H111.796ZM111.796 81.0329V68.2594H120.719C126.772 68.2594 129.96 70.4297 129.96 74.5782C129.96 78.7782 126.889 81.0329 121.091 81.0329H111.796V81.0329Z" fill="#602EEF"/>
<path d="M80.576 48.75C80.576 43.7772 82.6398 39.0081 86.3135 35.4917C89.9871 31.9754 94.9697 30 100.165 30H139.343C144.538 30 149.521 31.9754 153.195 35.4917C156.868 39.0081 158.932 43.7772 158.932 48.75V86.25C158.932 91.2228 156.868 95.9919 153.195 99.5083C149.521 103.025 144.538 105 139.343 105H100.165C94.9697 105 89.9871 103.025 86.3135 99.5083C82.6398 95.9919 80.576 91.2228 80.576 86.25V48.75ZM100.165 34.6875C96.2685 34.6875 92.5316 36.1691 89.7764 38.8063C87.0211 41.4435 85.4732 45.0204 85.4732 48.75V86.25C85.4732 89.9796 87.0211 93.5565 89.7764 96.1937C92.5316 98.8309 96.2685 100.312 100.165 100.312H139.343C143.24 100.312 146.976 98.8309 149.732 96.1937C152.487 93.5565 154.035 89.9796 154.035 86.25V48.75C154.035 45.0204 152.487 41.4435 149.732 38.8063C146.976 36.1691 143.24 34.6875 139.343 34.6875H100.165Z" fill="#602EEF"/>
</g>
<defs>
<clipPath id="clip0_103_1725">
<rect width="78.3561" height="75" fill="white" transform="translate(80.576 30)"/>
</clipPath>
</defs>
</svg>
