<svg width="250" height="288" viewBox="0 0 250 288" fill="none" xmlns="http://www.w3.org/2000/svg">
<rect x="0.169006" width="249.695" height="288" rx="25" fill="#181823"/>
<path d="M95.6328 29.6875L100.989 88.7529L124.981 95.3125L149.044 88.7427L154.4 29.6875H95.6328ZM140.118 78.7451L125.027 82.8613L109.959 78.7246L108.926 67.334H116.312L116.836 73.1289L125.038 75.3496L125.058 75.3906L133.241 73.2153L134.104 63.8184H116.905L116.293 56.4941H134.757L135.423 49.0234H107.264L106.652 41.8457H143.47L140.118 78.7451Z" fill="#602EEF"/>
<path d="M59.701 159.5H58.5562C58.4884 159.171 58.37 158.881 58.2007 158.632C58.0345 158.383 57.8314 158.174 57.5913 158.004C57.3543 157.832 57.0912 157.703 56.8019 157.616C56.5126 157.53 56.211 157.487 55.8971 157.487C55.3246 157.487 54.806 157.632 54.3413 157.921C53.8797 158.21 53.5119 158.637 53.238 159.2C52.9671 159.763 52.8317 160.454 52.8317 161.273C52.8317 162.091 52.9671 162.782 53.238 163.346C53.5119 163.909 53.8797 164.335 54.3413 164.624C54.806 164.914 55.3246 165.058 55.8971 165.058C56.211 165.058 56.5126 165.015 56.8019 164.929C57.0912 164.843 57.3543 164.715 57.5913 164.546C57.8314 164.373 58.0345 164.163 58.2007 163.913C58.37 163.661 58.4884 163.372 58.5562 163.045H59.701C59.6149 163.529 59.4579 163.961 59.2302 164.343C59.0024 164.724 58.7193 165.049 58.3807 165.317C58.0422 165.581 57.6621 165.783 57.2405 165.922C56.8219 166.06 56.3741 166.129 55.8971 166.129C55.0907 166.129 54.3736 165.932 53.7458 165.538C53.1179 165.144 52.624 164.584 52.2639 163.858C51.9038 163.132 51.7238 162.27 51.7238 161.273C51.7238 160.276 51.9038 159.414 52.2639 158.688C52.624 157.961 53.1179 157.401 53.7458 157.007C54.3736 156.613 55.0907 156.416 55.8971 156.416C56.3741 156.416 56.8219 156.485 57.2405 156.624C57.6621 156.762 58.0422 156.966 58.3807 157.233C58.7193 157.498 59.0024 157.821 59.2302 158.203C59.4579 158.581 59.6149 159.014 59.701 159.5ZM66.7215 158.909C66.6661 158.441 66.4415 158.078 66.0475 157.82C65.6536 157.561 65.1704 157.432 64.598 157.432C64.1794 157.432 63.8132 157.5 63.4992 157.635C63.1884 157.77 62.9453 157.957 62.7698 158.194C62.5975 158.431 62.5113 158.7 62.5113 159.001C62.5113 159.254 62.5713 159.471 62.6914 159.652C62.8145 159.831 62.9714 159.98 63.1622 160.1C63.3531 160.217 63.5531 160.314 63.7624 160.391C63.9717 160.465 64.164 160.525 64.3394 160.571L65.2997 160.83C65.5459 160.894 65.8198 160.983 66.1214 161.097C66.4261 161.211 66.7169 161.367 66.9939 161.564C67.274 161.757 67.5048 162.007 67.6864 162.311C67.868 162.616 67.9588 162.99 67.9588 163.433C67.9588 163.944 67.8249 164.406 67.5571 164.818C67.2924 165.231 66.9047 165.558 66.3938 165.801C65.886 166.045 65.2689 166.166 64.5426 166.166C63.8655 166.166 63.2792 166.057 62.7837 165.838C62.2913 165.62 61.9035 165.315 61.6203 164.924C61.3403 164.533 61.1818 164.08 61.1448 163.562H62.3267C62.3574 163.92 62.4775 164.215 62.6867 164.449C62.8991 164.68 63.1669 164.852 63.49 164.966C63.8162 165.077 64.1671 165.132 64.5426 165.132C64.9796 165.132 65.372 165.061 65.7198 164.92C66.0675 164.775 66.343 164.575 66.5461 164.32C66.7492 164.061 66.8508 163.759 66.8508 163.415C66.8508 163.101 66.7631 162.845 66.5877 162.648C66.4122 162.451 66.1814 162.291 65.8952 162.168C65.609 162.045 65.2997 161.937 64.9673 161.845L63.8039 161.513C63.0653 161.3 62.4805 160.997 62.0497 160.603C61.6188 160.209 61.4034 159.694 61.4034 159.057C61.4034 158.527 61.5465 158.066 61.8327 157.672C62.122 157.275 62.5098 156.967 62.996 156.749C63.4854 156.527 64.0317 156.416 64.6349 156.416C65.2443 156.416 65.7859 156.525 66.2599 156.744C66.7339 156.959 67.1093 157.255 67.3863 157.63C67.6664 158.006 67.8141 158.432 67.8295 158.909H66.7215ZM75.0116 158.909C74.9562 158.441 74.7315 158.078 74.3376 157.82C73.9436 157.561 73.4604 157.432 72.888 157.432C72.4694 157.432 72.1032 157.5 71.7893 157.635C71.4784 157.77 71.2353 157.957 71.0599 158.194C70.8875 158.431 70.8014 158.7 70.8014 159.001C70.8014 159.254 70.8614 159.471 70.9814 159.652C71.1045 159.831 71.2615 159.98 71.4523 160.1C71.6431 160.217 71.8431 160.314 72.0524 160.391C72.2617 160.465 72.4541 160.525 72.6295 160.571L73.5897 160.83C73.8359 160.894 74.1098 160.983 74.4114 161.097C74.7161 161.211 75.007 161.367 75.284 161.564C75.564 161.757 75.7948 162.007 75.9764 162.311C76.158 162.616 76.2488 162.99 76.2488 163.433C76.2488 163.944 76.1149 164.406 75.8472 164.818C75.5825 165.231 75.1947 165.558 74.6838 165.801C74.176 166.045 73.5589 166.166 72.8326 166.166C72.1555 166.166 71.5692 166.057 71.0737 165.838C70.5813 165.62 70.1935 165.315 69.9104 164.924C69.6303 164.533 69.4718 164.08 69.4349 163.562H70.6167C70.6475 163.92 70.7675 164.215 70.9768 164.449C71.1891 164.68 71.4569 164.852 71.7801 164.966C72.1063 165.077 72.4571 165.132 72.8326 165.132C73.2696 165.132 73.662 165.061 74.0098 164.92C74.3576 164.775 74.633 164.575 74.8362 164.32C75.0393 164.061 75.1408 163.759 75.1408 163.415C75.1408 163.101 75.0531 162.845 74.8777 162.648C74.7023 162.451 74.4715 162.291 74.1852 162.168C73.899 162.045 73.5897 161.937 73.2573 161.845L72.094 161.513C71.3553 161.3 70.7706 160.997 70.3397 160.603C69.9088 160.209 69.6934 159.694 69.6934 159.057C69.6934 158.527 69.8365 158.066 70.1227 157.672C70.412 157.275 70.7998 156.967 71.2861 156.749C71.7754 156.527 72.3217 156.416 72.9249 156.416C73.5343 156.416 74.076 156.525 74.5499 156.744C75.0239 156.959 75.3994 157.255 75.6764 157.63C75.9564 158.006 76.1042 158.432 76.1195 158.909H75.0116ZM82.0275 161.273C82.0275 160.109 82.1783 159.04 82.4799 158.064C82.7846 157.086 83.2185 156.185 83.7817 155.364H84.742C84.5204 155.668 84.3126 156.044 84.1187 156.49C83.9279 156.933 83.7602 157.421 83.6155 157.953C83.4709 158.483 83.357 159.031 83.2739 159.597C83.1939 160.163 83.1539 160.722 83.1539 161.273C83.1539 162.005 83.2247 162.748 83.3663 163.502C83.5078 164.257 83.6986 164.957 83.9387 165.603C84.1788 166.249 84.4465 166.776 84.742 167.182H83.7817C83.2185 166.36 82.7846 165.461 82.4799 164.486C82.1783 163.507 82.0275 162.436 82.0275 161.273ZM86.4974 166V156.545H92.1664V157.561H87.6423V160.756H91.7417V161.771H87.6423V166H86.4974ZM96.3397 166.148C95.6996 166.148 95.1379 165.995 94.6547 165.691C94.1746 165.386 93.7991 164.96 93.5283 164.412C93.2605 163.864 93.1266 163.224 93.1266 162.491C93.1266 161.753 93.2605 161.108 93.5283 160.557C93.7991 160.006 94.1746 159.578 94.6547 159.274C95.1379 158.969 95.6996 158.817 96.3397 158.817C96.9799 158.817 97.54 158.969 98.0201 159.274C98.5033 159.578 98.8788 160.006 99.1465 160.557C99.4174 161.108 99.5528 161.753 99.5528 162.491C99.5528 163.224 99.4174 163.864 99.1465 164.412C98.8788 164.96 98.5033 165.386 98.0201 165.691C97.54 165.995 96.9799 166.148 96.3397 166.148ZM96.3397 165.169C96.826 165.169 97.2261 165.044 97.54 164.795C97.8539 164.546 98.0863 164.218 98.2371 163.812C98.3879 163.406 98.4633 162.965 98.4633 162.491C98.4633 162.018 98.3879 161.576 98.2371 161.167C98.0863 160.757 97.8539 160.426 97.54 160.174C97.2261 159.922 96.826 159.795 96.3397 159.795C95.8534 159.795 95.4533 159.922 95.1394 160.174C94.8255 160.426 94.5931 160.757 94.4423 161.167C94.2915 161.576 94.2161 162.018 94.2161 162.491C94.2161 162.965 94.2915 163.406 94.4423 163.812C94.5931 164.218 94.8255 164.546 95.1394 164.795C95.4533 165.044 95.8534 165.169 96.3397 165.169ZM102.305 156.545V166H101.216V156.545H102.305ZM105.39 161.734V166H104.301V156.545H105.39V160.017H105.483C105.649 159.651 105.898 159.36 106.231 159.145C106.566 158.926 107.012 158.817 107.569 158.817C108.052 158.817 108.476 158.914 108.839 159.108C109.202 159.298 109.484 159.592 109.684 159.989C109.887 160.383 109.988 160.885 109.988 161.494V166H108.899V161.568C108.899 161.005 108.753 160.569 108.46 160.262C108.171 159.951 107.769 159.795 107.255 159.795C106.898 159.795 106.578 159.871 106.295 160.022C106.015 160.172 105.793 160.393 105.63 160.682C105.47 160.971 105.39 161.322 105.39 161.734ZM114.068 166.166C113.619 166.166 113.211 166.082 112.845 165.912C112.479 165.74 112.188 165.492 111.972 165.169C111.757 164.843 111.649 164.449 111.649 163.987C111.649 163.581 111.729 163.252 111.889 162.999C112.049 162.744 112.263 162.544 112.531 162.399C112.799 162.254 113.094 162.147 113.417 162.076C113.743 162.002 114.071 161.944 114.401 161.901C114.831 161.845 115.181 161.804 115.448 161.776C115.719 161.745 115.916 161.694 116.039 161.624C116.166 161.553 116.229 161.43 116.229 161.254V161.217C116.229 160.762 116.104 160.408 115.855 160.156C115.609 159.903 115.235 159.777 114.733 159.777C114.213 159.777 113.805 159.891 113.51 160.119C113.214 160.346 113.006 160.589 112.886 160.848L111.852 160.479C112.037 160.048 112.283 159.712 112.591 159.472C112.902 159.229 113.24 159.06 113.606 158.964C113.976 158.866 114.339 158.817 114.696 158.817C114.924 158.817 115.185 158.844 115.481 158.9C115.779 158.952 116.067 159.061 116.344 159.228C116.624 159.394 116.856 159.645 117.041 159.98C117.226 160.316 117.318 160.765 117.318 161.328V166H116.229V165.04H116.173C116.099 165.194 115.976 165.358 115.804 165.534C115.632 165.709 115.402 165.858 115.116 165.982C114.83 166.105 114.481 166.166 114.068 166.166ZM114.234 165.188C114.665 165.188 115.028 165.103 115.324 164.934C115.622 164.764 115.847 164.546 115.998 164.278C116.152 164.01 116.229 163.729 116.229 163.433V162.436C116.182 162.491 116.081 162.542 115.924 162.588C115.77 162.632 115.592 162.67 115.388 162.704C115.188 162.735 114.993 162.762 114.802 162.787C114.614 162.808 114.462 162.827 114.345 162.842C114.062 162.879 113.797 162.939 113.551 163.022C113.308 163.102 113.111 163.224 112.96 163.387C112.812 163.547 112.739 163.766 112.739 164.043C112.739 164.421 112.879 164.707 113.159 164.901C113.442 165.092 113.8 165.188 114.234 165.188ZM125.64 166.148C125.05 166.148 124.528 165.998 124.076 165.7C123.623 165.398 123.269 164.974 123.014 164.426C122.758 163.875 122.631 163.224 122.631 162.473C122.631 161.728 122.758 161.082 123.014 160.534C123.269 159.986 123.625 159.563 124.08 159.265C124.536 158.966 125.062 158.817 125.659 158.817C126.121 158.817 126.485 158.894 126.753 159.048C127.024 159.198 127.23 159.371 127.372 159.565C127.516 159.755 127.629 159.912 127.709 160.036H127.801V156.545H128.89V166H127.838V164.911H127.709C127.629 165.04 127.515 165.203 127.367 165.4C127.219 165.594 127.009 165.768 126.735 165.922C126.461 166.072 126.096 166.148 125.64 166.148ZM125.788 165.169C126.225 165.169 126.595 165.055 126.896 164.827C127.198 164.597 127.427 164.278 127.584 163.872C127.741 163.462 127.819 162.99 127.819 162.455C127.819 161.925 127.743 161.462 127.589 161.065C127.435 160.665 127.207 160.354 126.905 160.132C126.604 159.908 126.231 159.795 125.788 159.795C125.327 159.795 124.942 159.914 124.634 160.151C124.329 160.385 124.1 160.703 123.946 161.107C123.795 161.507 123.72 161.956 123.72 162.455C123.72 162.959 123.797 163.418 123.951 163.83C124.108 164.24 124.339 164.566 124.643 164.809C124.951 165.049 125.333 165.169 125.788 165.169ZM134.01 166.148C133.327 166.148 132.738 165.997 132.242 165.695C131.75 165.391 131.37 164.966 131.102 164.421C130.837 163.873 130.705 163.236 130.705 162.51C130.705 161.784 130.837 161.143 131.102 160.589C131.37 160.032 131.742 159.598 132.219 159.288C132.699 158.974 133.259 158.817 133.899 158.817C134.269 158.817 134.633 158.878 134.993 159.001C135.354 159.125 135.681 159.325 135.977 159.602C136.272 159.875 136.508 160.239 136.683 160.691C136.859 161.143 136.946 161.701 136.946 162.362V162.824H131.48V161.882H135.838C135.838 161.482 135.758 161.125 135.598 160.811C135.441 160.497 135.217 160.249 134.924 160.068C134.635 159.886 134.293 159.795 133.899 159.795C133.465 159.795 133.09 159.903 132.773 160.119C132.459 160.331 132.217 160.608 132.048 160.95C131.879 161.291 131.794 161.657 131.794 162.048V162.676C131.794 163.212 131.887 163.666 132.071 164.038C132.259 164.407 132.519 164.689 132.851 164.883C133.184 165.074 133.57 165.169 134.01 165.169C134.296 165.169 134.555 165.129 134.786 165.049C135.02 164.966 135.221 164.843 135.39 164.68C135.56 164.513 135.691 164.307 135.783 164.061L136.835 164.357C136.725 164.714 136.538 165.027 136.277 165.298C136.015 165.566 135.692 165.775 135.307 165.926C134.923 166.074 134.49 166.148 134.01 166.148ZM142.408 166V156.545H148.114V157.561H143.552V160.756H147.818V161.771H143.552V164.984H148.187V166H142.408ZM155.052 160.497L154.073 160.774C154.012 160.611 153.921 160.453 153.801 160.299C153.684 160.142 153.524 160.012 153.321 159.911C153.118 159.809 152.858 159.759 152.541 159.759C152.107 159.759 151.745 159.859 151.456 160.059C151.17 160.256 151.026 160.506 151.026 160.811C151.026 161.082 151.125 161.296 151.322 161.453C151.519 161.61 151.827 161.741 152.245 161.845L153.298 162.104C153.932 162.258 154.404 162.493 154.715 162.81C155.026 163.124 155.181 163.529 155.181 164.024C155.181 164.43 155.064 164.794 154.83 165.114C154.6 165.434 154.276 165.686 153.861 165.871C153.446 166.055 152.962 166.148 152.411 166.148C151.688 166.148 151.09 165.991 150.616 165.677C150.142 165.363 149.842 164.904 149.715 164.301L150.75 164.043C150.848 164.424 151.034 164.71 151.308 164.901C151.585 165.092 151.947 165.188 152.393 165.188C152.901 165.188 153.304 165.08 153.602 164.864C153.904 164.646 154.055 164.384 154.055 164.08C154.055 163.833 153.969 163.627 153.796 163.461C153.624 163.292 153.359 163.165 153.002 163.082L151.821 162.805C151.171 162.652 150.694 162.413 150.389 162.09C150.088 161.764 149.937 161.356 149.937 160.866C149.937 160.466 150.049 160.112 150.274 159.805C150.502 159.497 150.811 159.255 151.202 159.08C151.596 158.904 152.042 158.817 152.541 158.817C153.242 158.817 153.793 158.971 154.193 159.278C154.597 159.586 154.883 159.992 155.052 160.497ZM159.905 158.909V159.832H156.23V158.909H159.905ZM157.301 157.21H158.391V163.969C158.391 164.277 158.436 164.507 158.525 164.661C158.617 164.812 158.734 164.914 158.876 164.966C159.02 165.015 159.173 165.04 159.333 165.04C159.453 165.04 159.551 165.034 159.628 165.021C159.705 165.006 159.767 164.994 159.813 164.984L160.034 165.963C159.961 165.991 159.857 166.018 159.725 166.046C159.593 166.077 159.425 166.092 159.222 166.092C158.914 166.092 158.613 166.026 158.317 165.894C158.025 165.761 157.782 165.56 157.588 165.289C157.397 165.018 157.301 164.677 157.301 164.264V157.21ZM161.544 166V158.909H162.633V166H161.544ZM162.098 157.727C161.886 157.727 161.702 157.655 161.549 157.51C161.398 157.366 161.322 157.192 161.322 156.989C161.322 156.786 161.398 156.612 161.549 156.467C161.702 156.322 161.886 156.25 162.098 156.25C162.31 156.25 162.492 156.322 162.643 156.467C162.797 156.612 162.874 156.786 162.874 156.989C162.874 157.192 162.797 157.366 162.643 157.51C162.492 157.655 162.31 157.727 162.098 157.727ZM165.718 156.545V166H164.629V156.545H165.718ZM170.595 166.148C169.954 166.148 169.393 165.995 168.91 165.691C168.429 165.386 168.054 164.96 167.783 164.412C167.515 163.864 167.382 163.224 167.382 162.491C167.382 161.753 167.515 161.108 167.783 160.557C168.054 160.006 168.429 159.578 168.91 159.274C169.393 158.969 169.954 158.817 170.595 158.817C171.235 158.817 171.795 158.969 172.275 159.274C172.758 159.578 173.134 160.006 173.401 160.557C173.672 161.108 173.808 161.753 173.808 162.491C173.808 163.224 173.672 163.864 173.401 164.412C173.134 164.96 172.758 165.386 172.275 165.691C171.795 165.995 171.235 166.148 170.595 166.148ZM170.595 165.169C171.081 165.169 171.481 165.044 171.795 164.795C172.109 164.546 172.341 164.218 172.492 163.812C172.643 163.406 172.718 162.965 172.718 162.491C172.718 162.018 172.643 161.576 172.492 161.167C172.341 160.757 172.109 160.426 171.795 160.174C171.481 159.922 171.081 159.795 170.595 159.795C170.108 159.795 169.708 159.922 169.394 160.174C169.08 160.426 168.848 160.757 168.697 161.167C168.546 161.576 168.471 162.018 168.471 162.491C168.471 162.965 168.546 163.406 168.697 163.812C168.848 164.218 169.08 164.546 169.394 164.795C169.708 165.044 170.108 165.169 170.595 165.169ZM182.1 166.148C181.417 166.148 180.827 165.997 180.332 165.695C179.839 165.391 179.459 164.966 179.192 164.421C178.927 163.873 178.795 163.236 178.795 162.51C178.795 161.784 178.927 161.143 179.192 160.589C179.459 160.032 179.832 159.598 180.309 159.288C180.789 158.974 181.349 158.817 181.989 158.817C182.359 158.817 182.723 158.878 183.083 159.001C183.443 159.125 183.771 159.325 184.067 159.602C184.362 159.875 184.598 160.239 184.773 160.691C184.948 161.143 185.036 161.701 185.036 162.362V162.824H179.57V161.882H183.928C183.928 161.482 183.848 161.125 183.688 160.811C183.531 160.497 183.306 160.249 183.014 160.068C182.725 159.886 182.383 159.795 181.989 159.795C181.555 159.795 181.18 159.903 180.863 160.119C180.549 160.331 180.307 160.608 180.138 160.95C179.969 161.291 179.884 161.657 179.884 162.048V162.676C179.884 163.212 179.976 163.666 180.161 164.038C180.349 164.407 180.609 164.689 180.941 164.883C181.274 165.074 181.66 165.169 182.1 165.169C182.386 165.169 182.645 165.129 182.876 165.049C183.109 164.966 183.311 164.843 183.48 164.68C183.65 164.513 183.78 164.307 183.873 164.061L184.925 164.357C184.814 164.714 184.628 165.027 184.367 165.298C184.105 165.566 183.782 165.775 183.397 165.926C183.013 166.074 182.58 166.148 182.1 166.148ZM186.693 166V158.909H187.746V160.017H187.838C187.986 159.638 188.225 159.345 188.554 159.135C188.883 158.923 189.279 158.817 189.74 158.817C190.208 158.817 190.597 158.923 190.908 159.135C191.222 159.345 191.467 159.638 191.642 160.017H191.716C191.898 159.651 192.17 159.36 192.533 159.145C192.896 158.926 193.332 158.817 193.84 158.817C194.474 158.817 194.992 159.015 195.395 159.412C195.799 159.806 196 160.42 196 161.254V166H194.911V161.254C194.911 160.731 194.768 160.357 194.481 160.132C194.195 159.908 193.858 159.795 193.47 159.795C192.972 159.795 192.586 159.946 192.312 160.248C192.038 160.546 191.901 160.925 191.901 161.384V166H190.793V161.143C190.793 160.74 190.662 160.416 190.4 160.169C190.139 159.92 189.802 159.795 189.389 159.795C189.106 159.795 188.842 159.871 188.595 160.022C188.352 160.172 188.155 160.382 188.004 160.65C187.857 160.914 187.783 161.22 187.783 161.568V166H186.693ZM105.265 175.5H104.12C104.052 175.171 103.933 174.881 103.764 174.632C103.598 174.383 103.395 174.174 103.155 174.004C102.918 173.832 102.655 173.703 102.365 173.616C102.076 173.53 101.774 173.487 101.461 173.487C100.888 173.487 100.37 173.632 99.9048 173.921C99.4431 174.21 99.0754 174.637 98.8014 175.2C98.5306 175.763 98.3952 176.454 98.3952 177.273C98.3952 178.091 98.5306 178.782 98.8014 179.346C99.0754 179.909 99.4431 180.335 99.9048 180.624C100.37 180.914 100.888 181.058 101.461 181.058C101.774 181.058 102.076 181.015 102.365 180.929C102.655 180.843 102.918 180.715 103.155 180.546C103.395 180.373 103.598 180.163 103.764 179.913C103.933 179.661 104.052 179.372 104.12 179.045H105.265C105.178 179.529 105.021 179.961 104.794 180.343C104.566 180.724 104.283 181.049 103.944 181.317C103.606 181.581 103.226 181.783 102.804 181.922C102.385 182.06 101.938 182.129 101.461 182.129C100.654 182.129 99.9371 181.932 99.3093 181.538C98.6814 181.144 98.1875 180.584 97.8274 179.858C97.4673 179.132 97.2872 178.27 97.2872 177.273C97.2872 176.276 97.4673 175.414 97.8274 174.688C98.1875 173.961 98.6814 173.401 99.3093 173.007C99.9371 172.613 100.654 172.416 101.461 172.416C101.938 172.416 102.385 172.485 102.804 172.624C103.226 172.762 103.606 172.966 103.944 173.233C104.283 173.498 104.566 173.821 104.794 174.203C105.021 174.581 105.178 175.014 105.265 175.5ZM109.053 182.166C108.604 182.166 108.196 182.082 107.83 181.912C107.464 181.74 107.173 181.492 106.958 181.169C106.742 180.843 106.634 180.449 106.634 179.987C106.634 179.581 106.714 179.252 106.875 178.999C107.035 178.744 107.248 178.544 107.516 178.399C107.784 178.254 108.079 178.147 108.403 178.076C108.729 178.002 109.057 177.944 109.386 177.901C109.817 177.845 110.166 177.804 110.434 177.776C110.705 177.745 110.902 177.694 111.025 177.624C111.151 177.553 111.214 177.43 111.214 177.254V177.217C111.214 176.762 111.089 176.408 110.84 176.156C110.594 175.903 110.22 175.777 109.718 175.777C109.198 175.777 108.79 175.891 108.495 176.119C108.199 176.346 107.992 176.589 107.872 176.848L106.838 176.479C107.022 176.048 107.268 175.712 107.576 175.472C107.887 175.229 108.226 175.06 108.592 174.964C108.961 174.866 109.324 174.817 109.681 174.817C109.909 174.817 110.171 174.844 110.466 174.9C110.765 174.952 111.052 175.061 111.329 175.228C111.609 175.394 111.842 175.645 112.026 175.98C112.211 176.316 112.303 176.765 112.303 177.328V182H111.214V181.04H111.159C111.085 181.194 110.962 181.358 110.789 181.534C110.617 181.709 110.388 181.858 110.101 181.982C109.815 182.105 109.466 182.166 109.053 182.166ZM109.22 181.188C109.651 181.188 110.014 181.103 110.309 180.934C110.608 180.764 110.832 180.546 110.983 180.278C111.137 180.01 111.214 179.729 111.214 179.433V178.436C111.168 178.491 111.066 178.542 110.909 178.588C110.755 178.632 110.577 178.67 110.374 178.704C110.174 178.735 109.978 178.762 109.788 178.787C109.6 178.808 109.447 178.827 109.33 178.842C109.047 178.879 108.783 178.939 108.536 179.022C108.293 179.102 108.096 179.224 107.946 179.387C107.798 179.547 107.724 179.766 107.724 180.043C107.724 180.421 107.864 180.707 108.144 180.901C108.427 181.092 108.786 181.188 109.22 181.188ZM119.315 176.497L118.336 176.774C118.275 176.611 118.184 176.453 118.064 176.299C117.947 176.142 117.787 176.012 117.584 175.911C117.38 175.809 117.12 175.759 116.803 175.759C116.369 175.759 116.008 175.859 115.719 176.059C115.432 176.256 115.289 176.506 115.289 176.811C115.289 177.082 115.388 177.296 115.585 177.453C115.782 177.61 116.089 177.741 116.508 177.845L117.561 178.104C118.194 178.258 118.667 178.493 118.978 178.81C119.289 179.124 119.444 179.529 119.444 180.024C119.444 180.43 119.327 180.794 119.093 181.114C118.862 181.434 118.539 181.686 118.124 181.871C117.708 182.055 117.225 182.148 116.674 182.148C115.951 182.148 115.352 181.991 114.878 181.677C114.404 181.363 114.104 180.904 113.978 180.301L115.012 180.043C115.111 180.424 115.297 180.71 115.571 180.901C115.848 181.092 116.209 181.188 116.656 181.188C117.163 181.188 117.567 181.08 117.865 180.864C118.167 180.646 118.318 180.384 118.318 180.08C118.318 179.833 118.231 179.627 118.059 179.461C117.887 179.292 117.622 179.165 117.265 179.082L116.083 178.805C115.434 178.652 114.957 178.413 114.652 178.09C114.351 177.764 114.2 177.356 114.2 176.866C114.2 176.466 114.312 176.112 114.537 175.805C114.764 175.497 115.074 175.255 115.465 175.08C115.859 174.904 116.305 174.817 116.803 174.817C117.505 174.817 118.056 174.971 118.456 175.278C118.859 175.586 119.145 175.992 119.315 176.497ZM123.965 182.148C123.3 182.148 122.727 181.991 122.247 181.677C121.767 181.363 121.398 180.931 121.139 180.38C120.881 179.829 120.752 179.199 120.752 178.491C120.752 177.771 120.884 177.136 121.149 176.585C121.416 176.031 121.789 175.598 122.266 175.288C122.746 174.974 123.306 174.817 123.946 174.817C124.445 174.817 124.894 174.909 125.294 175.094C125.694 175.278 126.022 175.537 126.278 175.869C126.533 176.202 126.692 176.589 126.753 177.033H125.664C125.58 176.71 125.396 176.423 125.11 176.174C124.826 175.922 124.445 175.795 123.965 175.795C123.54 175.795 123.168 175.906 122.848 176.128C122.531 176.346 122.283 176.656 122.104 177.056C121.929 177.453 121.841 177.919 121.841 178.455C121.841 179.002 121.927 179.479 122.1 179.886C122.275 180.292 122.521 180.607 122.838 180.832C123.158 181.057 123.534 181.169 123.965 181.169C124.248 181.169 124.505 181.12 124.736 181.021C124.966 180.923 125.162 180.781 125.322 180.597C125.482 180.412 125.596 180.19 125.664 179.932H126.753C126.692 180.35 126.539 180.727 126.296 181.063C126.056 181.395 125.737 181.66 125.34 181.857C124.946 182.051 124.488 182.148 123.965 182.148ZM130.432 182.166C129.983 182.166 129.575 182.082 129.209 181.912C128.843 181.74 128.552 181.492 128.337 181.169C128.121 180.843 128.013 180.449 128.013 179.987C128.013 179.581 128.093 179.252 128.253 178.999C128.413 178.744 128.627 178.544 128.895 178.399C129.163 178.254 129.458 178.147 129.781 178.076C130.108 178.002 130.435 177.944 130.765 177.901C131.196 177.845 131.545 177.804 131.813 177.776C132.084 177.745 132.281 177.694 132.404 177.624C132.53 177.553 132.593 177.43 132.593 177.254V177.217C132.593 176.762 132.468 176.408 132.219 176.156C131.973 175.903 131.599 175.777 131.097 175.777C130.577 175.777 130.169 175.891 129.874 176.119C129.578 176.346 129.371 176.589 129.251 176.848L128.216 176.479C128.401 176.048 128.647 175.712 128.955 175.472C129.266 175.229 129.605 175.06 129.971 174.964C130.34 174.866 130.703 174.817 131.06 174.817C131.288 174.817 131.55 174.844 131.845 174.9C132.144 174.952 132.431 175.061 132.708 175.228C132.988 175.394 133.221 175.645 133.405 175.98C133.59 176.316 133.682 176.765 133.682 177.328V182H132.593V181.04H132.538C132.464 181.194 132.341 181.358 132.168 181.534C131.996 181.709 131.767 181.858 131.48 181.982C131.194 182.105 130.845 182.166 130.432 182.166ZM130.599 181.188C131.029 181.188 131.393 181.103 131.688 180.934C131.987 180.764 132.211 180.546 132.362 180.278C132.516 180.01 132.593 179.729 132.593 179.433V178.436C132.547 178.491 132.445 178.542 132.288 178.588C132.134 178.632 131.956 178.67 131.753 178.704C131.553 178.735 131.357 178.762 131.166 178.787C130.979 178.808 130.826 178.827 130.709 178.842C130.426 178.879 130.162 178.939 129.915 179.022C129.672 179.102 129.475 179.224 129.324 179.387C129.177 179.547 129.103 179.766 129.103 180.043C129.103 180.421 129.243 180.707 129.523 180.901C129.806 181.092 130.165 181.188 130.599 181.188ZM138.755 174.909V175.832H135.08V174.909H138.755ZM136.151 173.21H137.241V179.969C137.241 180.277 137.285 180.507 137.374 180.661C137.467 180.812 137.584 180.914 137.725 180.966C137.87 181.015 138.022 181.04 138.182 181.04C138.302 181.04 138.401 181.034 138.478 181.021C138.555 181.006 138.616 180.994 138.662 180.984L138.884 181.963C138.81 181.991 138.707 182.018 138.575 182.046C138.442 182.077 138.275 182.092 138.072 182.092C137.764 182.092 137.462 182.026 137.167 181.894C136.874 181.761 136.631 181.56 136.437 181.289C136.246 181.018 136.151 180.677 136.151 180.264V173.21ZM142.48 182.166C142.031 182.166 141.623 182.082 141.257 181.912C140.891 181.74 140.6 181.492 140.384 181.169C140.169 180.843 140.061 180.449 140.061 179.987C140.061 179.581 140.141 179.252 140.301 178.999C140.461 178.744 140.675 178.544 140.943 178.399C141.211 178.254 141.506 178.147 141.829 178.076C142.156 178.002 142.483 177.944 142.813 177.901C143.244 177.845 143.593 177.804 143.861 177.776C144.131 177.745 144.328 177.694 144.451 177.624C144.578 177.553 144.641 177.43 144.641 177.254V177.217C144.641 176.762 144.516 176.408 144.267 176.156C144.021 175.903 143.647 175.777 143.145 175.777C142.625 175.777 142.217 175.891 141.922 176.119C141.626 176.346 141.418 176.589 141.298 176.848L140.264 176.479C140.449 176.048 140.695 175.712 141.003 175.472C141.314 175.229 141.652 175.06 142.019 174.964C142.388 174.866 142.751 174.817 143.108 174.817C143.336 174.817 143.597 174.844 143.893 174.9C144.191 174.952 144.479 175.061 144.756 175.228C145.036 175.394 145.269 175.645 145.453 175.98C145.638 176.316 145.73 176.765 145.73 177.328V182H144.641V181.04H144.585C144.511 181.194 144.388 181.358 144.216 181.534C144.044 181.709 143.814 181.858 143.528 181.982C143.242 182.105 142.893 182.166 142.48 182.166ZM142.646 181.188C143.077 181.188 143.44 181.103 143.736 180.934C144.034 180.764 144.259 180.546 144.41 180.278C144.564 180.01 144.641 179.729 144.641 179.433V178.436C144.595 178.491 144.493 178.542 144.336 178.588C144.182 178.632 144.004 178.67 143.801 178.704C143.601 178.735 143.405 178.762 143.214 178.787C143.027 178.808 142.874 178.827 142.757 178.842C142.474 178.879 142.209 178.939 141.963 179.022C141.72 179.102 141.523 179.224 141.372 179.387C141.225 179.547 141.151 179.766 141.151 180.043C141.151 180.421 141.291 180.707 141.571 180.901C141.854 181.092 142.212 181.188 142.646 181.188ZM150.045 178.011C150.045 179.175 149.893 180.246 149.588 181.224C149.287 182.2 148.854 183.099 148.291 183.92H147.331C147.553 183.616 147.759 183.24 147.95 182.794C148.144 182.351 148.313 181.865 148.457 181.335C148.602 180.803 148.714 180.253 148.794 179.687C148.878 179.118 148.919 178.559 148.919 178.011C148.919 177.279 148.848 176.536 148.707 175.782C148.565 175.028 148.374 174.327 148.134 173.681C147.894 173.035 147.626 172.509 147.331 172.102H148.291C148.854 172.924 149.287 173.824 149.588 174.803C149.893 175.779 150.045 176.848 150.045 178.011ZM67.5629 198.148C66.8797 198.148 66.2903 197.997 65.7948 197.695C65.3024 197.391 64.9223 196.966 64.6545 196.421C64.3898 195.873 64.2575 195.236 64.2575 194.51C64.2575 193.784 64.3898 193.143 64.6545 192.589C64.9223 192.032 65.2947 191.598 65.7717 191.288C66.2518 190.974 66.812 190.817 67.4521 190.817C67.8214 190.817 68.1861 190.878 68.5462 191.001C68.9063 191.125 69.2341 191.325 69.5295 191.602C69.825 191.875 70.0604 192.239 70.2358 192.691C70.4113 193.143 70.499 193.701 70.499 194.362V194.824H65.0331V193.882H69.391C69.391 193.482 69.311 193.125 69.151 192.811C68.994 192.497 68.7693 192.249 68.477 192.068C68.1877 191.886 67.846 191.795 67.4521 191.795C67.0182 191.795 66.6427 191.903 66.3257 192.119C66.0118 192.331 65.7702 192.608 65.6009 192.95C65.4316 193.291 65.347 193.657 65.347 194.048V194.676C65.347 195.212 65.4393 195.666 65.624 196.038C65.8117 196.407 66.0718 196.689 66.4042 196.883C66.7365 197.074 67.1228 197.169 67.5629 197.169C67.8491 197.169 68.1076 197.129 68.3385 197.049C68.5724 196.966 68.774 196.843 68.9432 196.68C69.1125 196.513 69.2433 196.307 69.3356 196.061L70.3882 196.357C70.2774 196.714 70.0912 197.027 69.8296 197.298C69.568 197.566 69.2448 197.775 68.8601 197.926C68.4754 198.074 68.043 198.148 67.5629 198.148ZM66.8981 189.949L68.0245 187.807H69.2987L67.8584 189.949H66.8981ZM78.6932 198.148C78.0531 198.148 77.4914 197.995 77.0082 197.691C76.5281 197.386 76.1526 196.96 75.8818 196.412C75.614 195.864 75.4802 195.224 75.4802 194.491C75.4802 193.753 75.614 193.108 75.8818 192.557C76.1526 192.006 76.5281 191.578 77.0082 191.274C77.4914 190.969 78.0531 190.817 78.6932 190.817C79.3334 190.817 79.8935 190.969 80.3736 191.274C80.8568 191.578 81.2323 192.006 81.5 192.557C81.7709 193.108 81.9063 193.753 81.9063 194.491C81.9063 195.224 81.7709 195.864 81.5 196.412C81.2323 196.96 80.8568 197.386 80.3736 197.691C79.8935 197.995 79.3334 198.148 78.6932 198.148ZM78.6932 197.169C79.1795 197.169 79.5796 197.044 79.8935 196.795C80.2074 196.546 80.4398 196.218 80.5906 195.812C80.7414 195.406 80.8168 194.965 80.8168 194.491C80.8168 194.018 80.7414 193.576 80.5906 193.167C80.4398 192.757 80.2074 192.426 79.8935 192.174C79.5796 191.922 79.1795 191.795 78.6932 191.795C78.207 191.795 77.8069 191.922 77.4929 192.174C77.179 192.426 76.9467 192.757 76.7959 193.167C76.645 193.576 76.5696 194.018 76.5696 194.491C76.5696 194.965 76.645 195.406 76.7959 195.812C76.9467 196.218 77.179 196.546 77.4929 196.795C77.8069 197.044 78.207 197.169 78.6932 197.169ZM90.1063 198.148C89.4415 198.148 88.8691 197.991 88.389 197.677C87.9089 197.363 87.5395 196.931 87.281 196.38C87.0225 195.829 86.8932 195.199 86.8932 194.491C86.8932 193.771 87.0256 193.136 87.2903 192.585C87.558 192.031 87.9304 191.598 88.4074 191.288C88.8876 190.974 89.4477 190.817 90.0878 190.817C90.5864 190.817 91.0358 190.909 91.4359 191.094C91.836 191.278 92.1637 191.537 92.4192 191.869C92.6746 192.202 92.8331 192.589 92.8947 193.033H91.8052C91.7221 192.71 91.5374 192.423 91.2512 192.174C90.9681 191.922 90.5864 191.795 90.1063 191.795C89.6816 191.795 89.3092 191.906 88.9891 192.128C88.6721 192.346 88.4244 192.656 88.2459 193.056C88.0704 193.453 87.9827 193.919 87.9827 194.455C87.9827 195.002 88.0689 195.479 88.2413 195.886C88.4167 196.292 88.6629 196.607 88.9799 196.832C89.3 197.057 89.6754 197.169 90.1063 197.169C90.3895 197.169 90.6464 197.12 90.8773 197.021C91.1081 196.923 91.3035 196.781 91.4636 196.597C91.6236 196.412 91.7375 196.19 91.8052 195.932H92.8947C92.8331 196.35 92.6808 196.727 92.4376 197.063C92.1976 197.395 91.879 197.66 91.482 197.857C91.0881 198.051 90.6295 198.148 90.1063 198.148ZM97.368 198.148C96.7279 198.148 96.1662 197.995 95.683 197.691C95.2029 197.386 94.8274 196.96 94.5566 196.412C94.2888 195.864 94.155 195.224 94.155 194.491C94.155 193.753 94.2888 193.108 94.5566 192.557C94.8274 192.006 95.2029 191.578 95.683 191.274C96.1662 190.969 96.7279 190.817 97.368 190.817C98.0082 190.817 98.5683 190.969 99.0484 191.274C99.5316 191.578 99.9071 192.006 100.175 192.557C100.446 193.108 100.581 193.753 100.581 194.491C100.581 195.224 100.446 195.864 100.175 196.412C99.9071 196.96 99.5316 197.386 99.0484 197.691C98.5683 197.995 98.0082 198.148 97.368 198.148ZM97.368 197.169C97.8543 197.169 98.2544 197.044 98.5683 196.795C98.8822 196.546 99.1146 196.218 99.2654 195.812C99.4162 195.406 99.4916 194.965 99.4916 194.491C99.4916 194.018 99.4162 193.576 99.2654 193.167C99.1146 192.757 98.8822 192.426 98.5683 192.174C98.2544 191.922 97.8543 191.795 97.368 191.795C96.8818 191.795 96.4817 191.922 96.1677 192.174C95.8538 192.426 95.6215 192.757 95.4707 193.167C95.3199 193.576 95.2445 194.018 95.2445 194.491C95.2445 194.965 95.3199 195.406 95.4707 195.812C95.6215 196.218 95.8538 196.546 96.1677 196.795C96.4817 197.044 96.8818 197.169 97.368 197.169ZM96.8695 189.949L97.9959 187.807H99.27L97.8297 189.949H96.8695ZM104.922 198.148C104.331 198.148 103.809 197.998 103.357 197.7C102.904 197.398 102.55 196.974 102.295 196.426C102.04 195.875 101.912 195.224 101.912 194.473C101.912 193.728 102.04 193.082 102.295 192.534C102.55 191.986 102.906 191.563 103.361 191.265C103.817 190.966 104.343 190.817 104.94 190.817C105.402 190.817 105.767 190.894 106.034 191.048C106.305 191.198 106.511 191.371 106.653 191.565C106.798 191.755 106.91 191.912 106.99 192.036H107.082V188.545H108.172V198H107.119V196.911H106.99C106.91 197.04 106.796 197.203 106.648 197.4C106.501 197.594 106.29 197.768 106.016 197.922C105.742 198.072 105.377 198.148 104.922 198.148ZM105.069 197.169C105.506 197.169 105.876 197.055 106.177 196.827C106.479 196.597 106.708 196.278 106.865 195.872C107.022 195.462 107.101 194.99 107.101 194.455C107.101 193.925 107.024 193.462 106.87 193.065C106.716 192.665 106.488 192.354 106.187 192.132C105.885 191.908 105.513 191.795 105.069 191.795C104.608 191.795 104.223 191.914 103.915 192.151C103.611 192.385 103.381 192.703 103.227 193.107C103.077 193.507 103.001 193.956 103.001 194.455C103.001 194.959 103.078 195.418 103.232 195.83C103.389 196.24 103.62 196.566 103.925 196.809C104.232 197.049 104.614 197.169 105.069 197.169ZM110.318 198V190.909H111.408V198H110.318ZM110.872 189.727C110.66 189.727 110.477 189.655 110.323 189.51C110.172 189.366 110.097 189.192 110.097 188.989C110.097 188.786 110.172 188.612 110.323 188.467C110.477 188.322 110.66 188.25 110.872 188.25C111.085 188.25 111.266 188.322 111.417 188.467C111.571 188.612 111.648 188.786 111.648 188.989C111.648 189.192 111.571 189.366 111.417 189.51C111.266 189.655 111.085 189.727 110.872 189.727ZM116.266 200.807C115.739 200.807 115.287 200.739 114.908 200.604C114.53 200.471 114.214 200.296 113.962 200.077C113.713 199.862 113.514 199.631 113.366 199.385L114.234 198.776C114.333 198.905 114.457 199.053 114.608 199.219C114.759 199.388 114.965 199.534 115.227 199.657C115.492 199.783 115.838 199.847 116.266 199.847C116.838 199.847 117.31 199.708 117.683 199.431C118.055 199.154 118.241 198.72 118.241 198.129V196.689H118.149C118.069 196.818 117.955 196.978 117.807 197.169C117.663 197.357 117.454 197.525 117.18 197.672C116.909 197.817 116.543 197.889 116.081 197.889C115.508 197.889 114.995 197.754 114.539 197.483C114.087 197.212 113.728 196.818 113.463 196.301C113.202 195.784 113.071 195.156 113.071 194.418C113.071 193.691 113.199 193.059 113.454 192.52C113.71 191.979 114.065 191.56 114.521 191.265C114.976 190.966 115.502 190.817 116.099 190.817C116.561 190.817 116.927 190.894 117.198 191.048C117.472 191.198 117.681 191.371 117.826 191.565C117.974 191.755 118.088 191.912 118.168 192.036H118.278V190.909H119.331V198.203C119.331 198.812 119.192 199.308 118.915 199.69C118.642 200.074 118.272 200.356 117.807 200.534C117.346 200.716 116.832 200.807 116.266 200.807ZM116.229 196.911C116.666 196.911 117.035 196.81 117.337 196.61C117.638 196.41 117.867 196.123 118.024 195.747C118.181 195.372 118.26 194.922 118.26 194.399C118.26 193.888 118.183 193.437 118.029 193.047C117.875 192.656 117.647 192.349 117.346 192.128C117.044 191.906 116.672 191.795 116.229 191.795C115.767 191.795 115.382 191.912 115.075 192.146C114.77 192.38 114.541 192.694 114.387 193.088C114.236 193.482 114.16 193.919 114.16 194.399C114.16 194.892 114.237 195.327 114.391 195.706C114.548 196.081 114.779 196.377 115.084 196.592C115.392 196.804 115.773 196.911 116.229 196.911ZM124.206 198.148C123.566 198.148 123.004 197.995 122.521 197.691C122.041 197.386 121.665 196.96 121.394 196.412C121.127 195.864 120.993 195.224 120.993 194.491C120.993 193.753 121.127 193.108 121.394 192.557C121.665 192.006 122.041 191.578 122.521 191.274C123.004 190.969 123.566 190.817 124.206 190.817C124.846 190.817 125.406 190.969 125.886 191.274C126.37 191.578 126.745 192.006 127.013 192.557C127.284 193.108 127.419 193.753 127.419 194.491C127.419 195.224 127.284 195.864 127.013 196.412C126.745 196.96 126.37 197.386 125.886 197.691C125.406 197.995 124.846 198.148 124.206 198.148ZM124.206 197.169C124.692 197.169 125.092 197.044 125.406 196.795C125.72 196.546 125.952 196.218 126.103 195.812C126.254 195.406 126.329 194.965 126.329 194.491C126.329 194.018 126.254 193.576 126.103 193.167C125.952 192.757 125.72 192.426 125.406 192.174C125.092 191.922 124.692 191.795 124.206 191.795C123.72 191.795 123.32 191.922 123.006 192.174C122.692 192.426 122.459 192.757 122.309 193.167C122.158 193.576 122.082 194.018 122.082 194.491C122.082 194.965 122.158 195.406 122.309 195.812C122.459 196.218 122.692 196.546 123.006 196.795C123.32 197.044 123.72 197.169 124.206 197.169ZM137.576 200.659V196.911H137.484C137.404 197.04 137.29 197.203 137.142 197.4C136.995 197.594 136.784 197.768 136.51 197.922C136.236 198.072 135.871 198.148 135.416 198.148C134.825 198.148 134.303 197.998 133.851 197.7C133.398 197.398 133.045 196.974 132.789 196.426C132.534 195.875 132.406 195.224 132.406 194.473C132.406 193.728 132.534 193.082 132.789 192.534C133.045 191.986 133.4 191.563 133.856 191.265C134.311 190.966 134.837 190.817 135.434 190.817C135.896 190.817 136.261 190.894 136.528 191.048C136.799 191.198 137.005 191.371 137.147 191.565C137.292 191.755 137.404 191.912 137.484 192.036H137.613V190.909H138.666V200.659H137.576ZM135.564 197.169C136.001 197.169 136.37 197.055 136.672 196.827C136.973 196.597 137.202 196.278 137.359 195.872C137.516 195.462 137.595 194.99 137.595 194.455C137.595 193.925 137.518 193.462 137.364 193.065C137.21 192.665 136.982 192.354 136.681 192.132C136.379 191.908 136.007 191.795 135.564 191.795C135.102 191.795 134.717 191.914 134.409 192.151C134.105 192.385 133.876 192.703 133.722 193.107C133.571 193.507 133.495 193.956 133.495 194.455C133.495 194.959 133.572 195.418 133.726 195.83C133.883 196.24 134.114 196.566 134.419 196.809C134.726 197.049 135.108 197.169 135.564 197.169ZM145.129 195.101V190.909H146.218V198H145.129V196.8H145.055C144.889 197.16 144.63 197.466 144.28 197.718C143.929 197.968 143.485 198.092 142.95 198.092C142.507 198.092 142.113 197.995 141.768 197.801C141.423 197.605 141.153 197.309 140.956 196.915C140.759 196.518 140.66 196.018 140.66 195.415V190.909H141.75V195.341C141.75 195.858 141.894 196.27 142.184 196.578C142.476 196.886 142.848 197.04 143.301 197.04C143.572 197.04 143.847 196.971 144.127 196.832C144.41 196.694 144.647 196.481 144.838 196.195C145.032 195.909 145.129 195.544 145.129 195.101ZM151.187 198.148C150.504 198.148 149.914 197.997 149.419 197.695C148.926 197.391 148.546 196.966 148.279 196.421C148.014 195.873 147.882 195.236 147.882 194.51C147.882 193.784 148.014 193.143 148.279 192.589C148.546 192.032 148.919 191.598 149.396 191.288C149.876 190.974 150.436 190.817 151.076 190.817C151.445 190.817 151.81 190.878 152.17 191.001C152.53 191.125 152.858 191.325 153.154 191.602C153.449 191.875 153.684 192.239 153.86 192.691C154.035 193.143 154.123 193.701 154.123 194.362V194.824H148.657V193.882H153.015C153.015 193.482 152.935 193.125 152.775 192.811C152.618 192.497 152.393 192.249 152.101 192.068C151.812 191.886 151.47 191.795 151.076 191.795C150.642 191.795 150.267 191.903 149.95 192.119C149.636 192.331 149.394 192.608 149.225 192.95C149.056 193.291 148.971 193.657 148.971 194.048V194.676C148.971 195.212 149.063 195.666 149.248 196.038C149.436 196.407 149.696 196.689 150.028 196.883C150.361 197.074 150.747 197.169 151.187 197.169C151.473 197.169 151.732 197.129 151.962 197.049C152.196 196.966 152.398 196.843 152.567 196.68C152.737 196.513 152.867 196.307 152.96 196.061L154.012 196.357C153.901 196.714 153.715 197.027 153.454 197.298C153.192 197.566 152.869 197.775 152.484 197.926C152.099 198.074 151.667 198.148 151.187 198.148ZM165.235 190.909L162.613 198H161.505L158.883 190.909H160.064L162.022 196.56H162.096L164.053 190.909H165.235ZM169.3 198.148C168.66 198.148 168.098 197.995 167.615 197.691C167.135 197.386 166.759 196.96 166.488 196.412C166.22 195.864 166.087 195.224 166.087 194.491C166.087 193.753 166.22 193.108 166.488 192.557C166.759 192.006 167.135 191.578 167.615 191.274C168.098 190.969 168.66 190.817 169.3 190.817C169.94 190.817 170.5 190.969 170.98 191.274C171.463 191.578 171.839 192.006 172.106 192.557C172.377 193.108 172.513 193.753 172.513 194.491C172.513 195.224 172.377 195.864 172.106 196.412C171.839 196.96 171.463 197.386 170.98 197.691C170.5 197.995 169.94 198.148 169.3 198.148ZM169.3 197.169C169.786 197.169 170.186 197.044 170.5 196.795C170.814 196.546 171.046 196.218 171.197 195.812C171.348 195.406 171.423 194.965 171.423 194.491C171.423 194.018 171.348 193.576 171.197 193.167C171.046 192.757 170.814 192.426 170.5 192.174C170.186 191.922 169.786 191.795 169.3 191.795C168.813 191.795 168.413 191.922 168.099 192.174C167.785 192.426 167.553 192.757 167.402 193.167C167.251 193.576 167.176 194.018 167.176 194.491C167.176 194.965 167.251 195.406 167.402 195.812C167.553 196.218 167.785 196.546 168.099 196.795C168.413 197.044 168.813 197.169 169.3 197.169ZM177.057 198.148C176.392 198.148 175.819 197.991 175.339 197.677C174.859 197.363 174.49 196.931 174.231 196.38C173.973 195.829 173.843 195.199 173.843 194.491C173.843 193.771 173.976 193.136 174.24 192.585C174.508 192.031 174.881 191.598 175.358 191.288C175.838 190.974 176.398 190.817 177.038 190.817C177.537 190.817 177.986 190.909 178.386 191.094C178.786 191.278 179.114 191.537 179.369 191.869C179.625 192.202 179.783 192.589 179.845 193.033H178.755C178.672 192.71 178.488 192.423 178.201 192.174C177.918 191.922 177.537 191.795 177.057 191.795C176.632 191.795 176.259 191.906 175.939 192.128C175.622 192.346 175.375 192.656 175.196 193.056C175.021 193.453 174.933 193.919 174.933 194.455C174.933 195.002 175.019 195.479 175.191 195.886C175.367 196.292 175.613 196.607 175.93 196.832C176.25 197.057 176.626 197.169 177.057 197.169C177.34 197.169 177.597 197.12 177.827 197.021C178.058 196.923 178.254 196.781 178.414 196.597C178.574 196.412 178.688 196.19 178.755 195.932H179.845C179.783 196.35 179.631 196.727 179.388 197.063C179.148 197.395 178.829 197.66 178.432 197.857C178.038 198.051 177.58 198.148 177.057 198.148ZM184.411 198.148C183.727 198.148 183.138 197.997 182.642 197.695C182.15 197.391 181.77 196.966 181.502 196.421C181.237 195.873 181.105 195.236 181.105 194.51C181.105 193.784 181.237 193.143 181.502 192.589C181.77 192.032 182.142 191.598 182.619 191.288C183.099 190.974 183.66 190.817 184.3 190.817C184.669 190.817 185.034 190.878 185.394 191.001C185.754 191.125 186.082 191.325 186.377 191.602C186.673 191.875 186.908 192.239 187.083 192.691C187.259 193.143 187.347 193.701 187.347 194.362V194.824H181.881V193.882H186.239C186.239 193.482 186.159 193.125 185.999 192.811C185.842 192.497 185.617 192.249 185.325 192.068C185.035 191.886 184.694 191.795 184.3 191.795C183.866 191.795 183.49 191.903 183.173 192.119C182.859 192.331 182.618 192.608 182.449 192.95C182.279 193.291 182.195 193.657 182.195 194.048V194.676C182.195 195.212 182.287 195.666 182.472 196.038C182.659 196.407 182.919 196.689 183.252 196.883C183.584 197.074 183.97 197.169 184.411 197.169C184.697 197.169 184.955 197.129 185.186 197.049C185.42 196.966 185.622 196.843 185.791 196.68C185.96 196.513 186.091 196.307 186.183 196.061L187.236 196.357C187.125 196.714 186.939 197.027 186.677 197.298C186.416 197.566 186.092 197.775 185.708 197.926C185.323 198.074 184.891 198.148 184.411 198.148ZM185.205 190.06L184.244 188.767L183.284 190.06H182.25V189.986L183.746 188.065H184.743L186.239 189.986V190.06H185.205ZM54.6368 211.101V206.909H55.7263V214H54.6368V212.8H54.5629C54.3967 213.16 54.1382 213.466 53.7873 213.718C53.4365 213.968 52.9933 214.092 52.4578 214.092C52.0146 214.092 51.6207 213.995 51.276 213.801C50.9313 213.605 50.6604 213.309 50.4635 212.915C50.2665 212.518 50.168 212.018 50.168 211.415V206.909H51.2575V211.341C51.2575 211.858 51.4022 212.27 51.6914 212.578C51.9838 212.886 52.3562 213.04 52.8086 213.04C53.0795 213.04 53.3549 212.971 53.635 212.832C53.9181 212.694 54.1551 212.481 54.3459 212.195C54.5398 211.909 54.6368 211.544 54.6368 211.101ZM62.7445 208.497L61.7658 208.774C61.7042 208.611 61.6134 208.453 61.4934 208.299C61.3764 208.142 61.2164 208.012 61.0133 207.911C60.8101 207.809 60.5501 207.759 60.2331 207.759C59.7991 207.759 59.4375 207.859 59.1482 208.059C58.862 208.256 58.7189 208.506 58.7189 208.811C58.7189 209.082 58.8174 209.296 59.0143 209.453C59.2113 209.61 59.5191 209.741 59.9376 209.845L60.9902 210.104C61.6242 210.258 62.0966 210.493 62.4074 210.81C62.7183 211.124 62.8737 211.529 62.8737 212.024C62.8737 212.43 62.7568 212.794 62.5229 213.114C62.292 213.434 61.9689 213.686 61.5534 213.871C61.1379 214.055 60.6547 214.148 60.1038 214.148C59.3806 214.148 58.782 213.991 58.308 213.677C57.8341 213.363 57.534 212.904 57.4078 212.301L58.4419 212.043C58.5404 212.424 58.7266 212.71 59.0005 212.901C59.2775 213.092 59.6391 213.188 60.0854 213.188C60.5932 213.188 60.9963 213.08 61.2949 212.864C61.5965 212.646 61.7473 212.384 61.7473 212.08C61.7473 211.833 61.6611 211.627 61.4888 211.461C61.3164 211.292 61.0517 211.165 60.6947 211.082L59.5129 210.805C58.8635 210.652 58.3865 210.413 58.0818 210.09C57.7802 209.764 57.6294 209.356 57.6294 208.866C57.6294 208.466 57.7417 208.112 57.9664 207.805C58.1941 207.497 58.5034 207.255 58.8943 207.08C59.2882 206.904 59.7345 206.817 60.2331 206.817C60.9348 206.817 61.4857 206.971 61.8858 207.278C62.289 207.586 62.5752 207.992 62.7445 208.497ZM66.6004 214.166C66.151 214.166 65.7432 214.082 65.377 213.912C65.0108 213.74 64.7199 213.492 64.5045 213.169C64.289 212.843 64.1813 212.449 64.1813 211.987C64.1813 211.581 64.2613 211.252 64.4214 210.999C64.5814 210.744 64.7953 210.544 65.0631 210.399C65.3308 210.254 65.6263 210.147 65.9494 210.076C66.2757 210.002 66.6034 209.944 66.9327 209.901C67.3636 209.845 67.7129 209.804 67.9807 209.776C68.2515 209.745 68.4485 209.694 68.5716 209.624C68.6978 209.553 68.7609 209.43 68.7609 209.254V209.217C68.7609 208.762 68.6362 208.408 68.3869 208.156C68.1407 207.903 67.7668 207.777 67.2651 207.777C66.745 207.777 66.3372 207.891 66.0418 208.119C65.7463 208.346 65.5386 208.589 65.4185 208.848L64.3845 208.479C64.5691 208.048 64.8153 207.712 65.1231 207.472C65.4339 207.229 65.7725 207.06 66.1387 206.964C66.508 206.866 66.8712 206.817 67.2282 206.817C67.4559 206.817 67.7176 206.844 68.013 206.9C68.3115 206.952 68.5993 207.061 68.8763 207.228C69.1564 207.394 69.3887 207.645 69.5734 207.98C69.758 208.316 69.8504 208.765 69.8504 209.328V214H68.7609V213.04H68.7055C68.6316 213.194 68.5085 213.358 68.3362 213.534C68.1638 213.709 67.9345 213.858 67.6483 213.982C67.3621 214.105 67.0128 214.166 66.6004 214.166ZM66.7666 213.188C67.1974 213.188 67.5606 213.103 67.856 212.934C68.1546 212.764 68.3792 212.546 68.5301 212.278C68.6839 212.01 68.7609 211.729 68.7609 211.433V210.436C68.7147 210.491 68.6131 210.542 68.4562 210.588C68.3023 210.632 68.1238 210.67 67.9207 210.704C67.7206 210.735 67.5252 210.762 67.3344 210.787C67.1466 210.808 66.9943 210.827 66.8774 210.842C66.5942 210.879 66.3295 210.939 66.0833 211.022C65.8402 211.102 65.6432 211.224 65.4924 211.387C65.3447 211.547 65.2708 211.766 65.2708 212.043C65.2708 212.421 65.4109 212.707 65.6909 212.901C65.9741 213.092 66.3326 213.188 66.7666 213.188ZM75.4952 216.659V206.909H76.5477V208.036H76.677C76.757 207.912 76.8678 207.755 77.0094 207.565C77.154 207.371 77.3602 207.198 77.628 207.048C77.8988 206.894 78.265 206.817 78.7267 206.817C79.3238 206.817 79.85 206.966 80.3055 207.265C80.761 207.563 81.1165 207.986 81.3719 208.534C81.6274 209.082 81.7551 209.728 81.7551 210.473C81.7551 211.224 81.6274 211.875 81.3719 212.426C81.1165 212.974 80.7626 213.398 80.3101 213.7C79.8577 213.998 79.3361 214.148 78.7452 214.148C78.2897 214.148 77.925 214.072 77.6511 213.922C77.3771 213.768 77.1663 213.594 77.0186 213.4C76.8709 213.203 76.757 213.04 76.677 212.911H76.5846V216.659H75.4952ZM76.5662 210.455C76.5662 210.99 76.6447 211.462 76.8016 211.872C76.9586 212.278 77.1879 212.597 77.4895 212.827C77.7911 213.055 78.1604 213.169 78.5974 213.169C79.0529 213.169 79.433 213.049 79.7377 212.809C80.0455 212.566 80.2763 212.24 80.4302 211.83C80.5871 211.418 80.6656 210.959 80.6656 210.455C80.6656 209.956 80.5887 209.507 80.4348 209.107C80.284 208.703 80.0547 208.385 79.7469 208.151C79.4422 207.914 79.0591 207.795 78.5974 207.795C78.1543 207.795 77.7819 207.908 77.4802 208.132C77.1786 208.354 76.9509 208.665 76.797 209.065C76.6431 209.462 76.5662 209.925 76.5662 210.455ZM85.5037 214.166C85.0543 214.166 84.6466 214.082 84.2803 213.912C83.9141 213.74 83.6232 213.492 83.4078 213.169C83.1924 212.843 83.0846 212.449 83.0846 211.987C83.0846 211.581 83.1647 211.252 83.3247 210.999C83.4847 210.744 83.6986 210.544 83.9664 210.399C84.2342 210.254 84.5296 210.147 84.8528 210.076C85.179 210.002 85.5068 209.944 85.8361 209.901C86.2669 209.845 86.6163 209.804 86.884 209.776C87.1548 209.745 87.3518 209.694 87.4749 209.624C87.6011 209.553 87.6642 209.43 87.6642 209.254V209.217C87.6642 208.762 87.5395 208.408 87.2903 208.156C87.044 207.903 86.6701 207.777 86.1685 207.777C85.6483 207.777 85.2405 207.891 84.9451 208.119C84.6496 208.346 84.4419 208.589 84.3219 208.848L83.2878 208.479C83.4724 208.048 83.7186 207.712 84.0264 207.472C84.3373 207.229 84.6758 207.06 85.042 206.964C85.4114 206.866 85.7745 206.817 86.1315 206.817C86.3593 206.817 86.6209 206.844 86.9163 206.9C87.2149 206.952 87.5026 207.061 87.7796 207.228C88.0597 207.394 88.292 207.645 88.4767 207.98C88.6614 208.316 88.7537 208.765 88.7537 209.328V214H87.6642V213.04H87.6088C87.5349 213.194 87.4118 213.358 87.2395 213.534C87.0671 213.709 86.8378 213.858 86.5516 213.982C86.2654 214.105 85.9161 214.166 85.5037 214.166ZM85.6699 213.188C86.1007 213.188 86.4639 213.103 86.7594 212.934C87.0579 212.764 87.2826 212.546 87.4334 212.278C87.5873 212.01 87.6642 211.729 87.6642 211.433V210.436C87.618 210.491 87.5165 210.542 87.3595 210.588C87.2056 210.632 87.0271 210.67 86.824 210.704C86.6239 210.735 86.4285 210.762 86.2377 210.787C86.05 210.808 85.8976 210.827 85.7807 210.842C85.4975 210.879 85.2328 210.939 84.9866 211.022C84.7435 211.102 84.5465 211.224 84.3957 211.387C84.248 211.547 84.1741 211.766 84.1741 212.043C84.1741 212.421 84.3142 212.707 84.5942 212.901C84.8774 213.092 85.2359 213.188 85.6699 213.188ZM90.7422 214V206.909H91.7948V207.98H91.8687C91.9979 207.629 92.2318 207.345 92.5704 207.126C92.9089 206.908 93.2905 206.798 93.7152 206.798C93.7953 206.798 93.8953 206.8 94.0153 206.803C94.1353 206.806 94.2261 206.811 94.2877 206.817V207.925C94.2508 207.915 94.1661 207.902 94.0338 207.883C93.9045 207.862 93.7676 207.851 93.6229 207.851C93.2782 207.851 92.9705 207.923 92.6996 208.068C92.4319 208.209 92.2195 208.406 92.0625 208.659C91.9087 208.908 91.8317 209.193 91.8317 209.513V214H90.7422ZM97.6658 214.166C97.2165 214.166 96.8087 214.082 96.4424 213.912C96.0762 213.74 95.7853 213.492 95.5699 213.169C95.3545 212.843 95.2468 212.449 95.2468 211.987C95.2468 211.581 95.3268 211.252 95.4868 210.999C95.6469 210.744 95.8607 210.544 96.1285 210.399C96.3963 210.254 96.6917 210.147 97.0149 210.076C97.3411 210.002 97.6689 209.944 97.9982 209.901C98.429 209.845 98.7784 209.804 99.0461 209.776C99.317 209.745 99.5139 209.694 99.637 209.624C99.7632 209.553 99.8263 209.43 99.8263 209.254V209.217C99.8263 208.762 99.7017 208.408 99.4524 208.156C99.2062 207.903 98.8322 207.777 98.3306 207.777C97.8104 207.777 97.4027 207.891 97.1072 208.119C96.8117 208.346 96.604 208.589 96.484 208.848L95.4499 208.479C95.6345 208.048 95.8808 207.712 96.1885 207.472C96.4994 207.229 96.8379 207.06 97.2041 206.964C97.5735 206.866 97.9366 206.817 98.2936 206.817C98.5214 206.817 98.783 206.844 99.0784 206.9C99.377 206.952 99.6647 207.061 99.9417 207.228C100.222 207.394 100.454 207.645 100.639 207.98C100.823 208.316 100.916 208.765 100.916 209.328V214H99.8263V213.04H99.7709C99.697 213.194 99.5739 213.358 99.4016 213.534C99.2292 213.709 99 213.858 98.7137 213.982C98.4275 214.105 98.0782 214.166 97.6658 214.166ZM97.832 213.188C98.2629 213.188 98.626 213.103 98.9215 212.934C99.22 212.764 99.4447 212.546 99.5955 212.278C99.7494 212.01 99.8263 211.729 99.8263 211.433V210.436C99.7801 210.491 99.6786 210.542 99.5216 210.588C99.3677 210.632 99.1892 210.67 98.9861 210.704C98.7861 210.735 98.5906 210.762 98.3998 210.787C98.2121 210.808 98.0597 210.827 97.9428 210.842C97.6596 210.879 97.395 210.939 97.1487 211.022C96.9056 211.102 96.7086 211.224 96.5578 211.387C96.4101 211.547 96.3362 211.766 96.3362 212.043C96.3362 212.421 96.4763 212.707 96.7563 212.901C97.0395 213.092 97.398 213.188 97.832 213.188ZM109.238 214.148C108.647 214.148 108.126 213.998 107.673 213.7C107.221 213.398 106.867 212.974 106.611 212.426C106.356 211.875 106.228 211.224 106.228 210.473C106.228 209.728 106.356 209.082 106.611 208.534C106.867 207.986 107.222 207.563 107.678 207.265C108.133 206.966 108.66 206.817 109.257 206.817C109.718 206.817 110.083 206.894 110.351 207.048C110.622 207.198 110.828 207.371 110.969 207.565C111.114 207.755 111.226 207.912 111.306 208.036H111.399V204.545H112.488V214H111.436V212.911H111.306C111.226 213.04 111.112 213.203 110.965 213.4C110.817 213.594 110.606 213.768 110.332 213.922C110.058 214.072 109.694 214.148 109.238 214.148ZM109.386 213.169C109.823 213.169 110.192 213.055 110.494 212.827C110.795 212.597 111.025 212.278 111.182 211.872C111.339 211.462 111.417 210.99 111.417 210.455C111.417 209.925 111.34 209.462 111.186 209.065C111.032 208.665 110.805 208.354 110.503 208.132C110.201 207.908 109.829 207.795 109.386 207.795C108.924 207.795 108.54 207.914 108.232 208.151C107.927 208.385 107.698 208.703 107.544 209.107C107.393 209.507 107.318 209.956 107.318 210.455C107.318 210.959 107.395 211.418 107.549 211.83C107.705 212.24 107.936 212.566 108.241 212.809C108.549 213.049 108.93 213.169 109.386 213.169ZM116.721 214.166C116.272 214.166 115.864 214.082 115.498 213.912C115.132 213.74 114.841 213.492 114.626 213.169C114.41 212.843 114.302 212.449 114.302 211.987C114.302 211.581 114.382 211.252 114.542 210.999C114.703 210.744 114.916 210.544 115.184 210.399C115.452 210.254 115.747 210.147 116.071 210.076C116.397 210.002 116.725 209.944 117.054 209.901C117.485 209.845 117.834 209.804 118.102 209.776C118.373 209.745 118.57 209.694 118.693 209.624C118.819 209.553 118.882 209.43 118.882 209.254V209.217C118.882 208.762 118.757 208.408 118.508 208.156C118.262 207.903 117.888 207.777 117.386 207.777C116.866 207.777 116.458 207.891 116.163 208.119C115.867 208.346 115.66 208.589 115.54 208.848L114.506 208.479C114.69 208.048 114.936 207.712 115.244 207.472C115.555 207.229 115.894 207.06 116.26 206.964C116.629 206.866 116.992 206.817 117.349 206.817C117.577 206.817 117.839 206.844 118.134 206.9C118.433 206.952 118.72 207.061 118.997 207.228C119.277 207.394 119.51 207.645 119.694 207.98C119.879 208.316 119.971 208.765 119.971 209.328V214H118.882V213.04H118.827C118.753 213.194 118.63 213.358 118.457 213.534C118.285 213.709 118.056 213.858 117.769 213.982C117.483 214.105 117.134 214.166 116.721 214.166ZM116.888 213.188C117.319 213.188 117.682 213.103 117.977 212.934C118.276 212.764 118.5 212.546 118.651 212.278C118.805 212.01 118.882 211.729 118.882 211.433V210.436C118.836 210.491 118.734 210.542 118.577 210.588C118.423 210.632 118.245 210.67 118.042 210.704C117.842 210.735 117.646 210.762 117.455 210.787C117.268 210.808 117.115 210.827 116.998 210.842C116.715 210.879 116.451 210.939 116.204 211.022C115.961 211.102 115.764 211.224 115.614 211.387C115.466 211.547 115.392 211.766 115.392 212.043C115.392 212.421 115.532 212.707 115.812 212.901C116.095 213.092 116.454 213.188 116.888 213.188ZM121.96 214V206.909H123.013V207.98H123.086C123.216 207.629 123.45 207.345 123.788 207.126C124.127 206.908 124.508 206.798 124.933 206.798C125.013 206.798 125.113 206.8 125.233 206.803C125.353 206.806 125.444 206.811 125.505 206.817V207.925C125.469 207.915 125.384 207.902 125.252 207.883C125.122 207.862 124.985 207.851 124.841 207.851C124.496 207.851 124.188 207.923 123.917 208.068C123.65 208.209 123.437 208.406 123.28 208.659C123.126 208.908 123.049 209.193 123.049 209.513V214H121.96ZM133.426 214.148C132.743 214.148 132.154 213.997 131.658 213.695C131.166 213.391 130.786 212.966 130.518 212.421C130.253 211.873 130.121 211.236 130.121 210.51C130.121 209.784 130.253 209.143 130.518 208.589C130.786 208.032 131.158 207.598 131.635 207.288C132.115 206.974 132.675 206.817 133.315 206.817C133.685 206.817 134.049 206.878 134.409 207.001C134.77 207.125 135.097 207.325 135.393 207.602C135.688 207.875 135.924 208.239 136.099 208.691C136.275 209.143 136.362 209.701 136.362 210.362V210.824H130.896V209.882H135.254C135.254 209.482 135.174 209.125 135.014 208.811C134.857 208.497 134.633 208.249 134.34 208.068C134.051 207.886 133.709 207.795 133.315 207.795C132.881 207.795 132.506 207.903 132.189 208.119C131.875 208.331 131.633 208.608 131.464 208.95C131.295 209.291 131.21 209.657 131.21 210.048V210.676C131.21 211.212 131.303 211.666 131.487 212.038C131.675 212.407 131.935 212.689 132.267 212.883C132.6 213.074 132.986 213.169 133.426 213.169C133.712 213.169 133.971 213.129 134.202 213.049C134.436 212.966 134.637 212.843 134.807 212.68C134.976 212.513 135.107 212.307 135.199 212.061L136.251 212.357C136.141 212.714 135.954 213.027 135.693 213.298C135.431 213.566 135.108 213.775 134.723 213.926C134.339 214.074 133.906 214.148 133.426 214.148ZM143.042 208.497L142.064 208.774C142.002 208.611 141.911 208.453 141.791 208.299C141.674 208.142 141.514 208.012 141.311 207.911C141.108 207.809 140.848 207.759 140.531 207.759C140.097 207.759 139.735 207.859 139.446 208.059C139.16 208.256 139.017 208.506 139.017 208.811C139.017 209.082 139.115 209.296 139.312 209.453C139.509 209.61 139.817 209.741 140.235 209.845L141.288 210.104C141.922 210.258 142.394 210.493 142.705 210.81C143.016 211.124 143.172 211.529 143.172 212.024C143.172 212.43 143.055 212.794 142.821 213.114C142.59 213.434 142.267 213.686 141.851 213.871C141.436 214.055 140.953 214.148 140.402 214.148C139.678 214.148 139.08 213.991 138.606 213.677C138.132 213.363 137.832 212.904 137.706 212.301L138.74 212.043C138.838 212.424 139.024 212.71 139.298 212.901C139.575 213.092 139.937 213.188 140.383 213.188C140.891 213.188 141.294 213.08 141.593 212.864C141.894 212.646 142.045 212.384 142.045 212.08C142.045 211.833 141.959 211.627 141.787 211.461C141.614 211.292 141.35 211.165 140.993 211.082L139.811 210.805C139.161 210.652 138.684 210.413 138.38 210.09C138.078 209.764 137.927 209.356 137.927 208.866C137.927 208.466 138.04 208.112 138.264 207.805C138.492 207.497 138.801 207.255 139.192 207.08C139.586 206.904 140.032 206.817 140.531 206.817C141.233 206.817 141.784 206.971 142.184 207.278C142.587 207.586 142.873 207.992 143.042 208.497ZM147.895 206.909V207.832H144.221V206.909H147.895ZM145.292 205.21H146.381V211.969C146.381 212.277 146.426 212.507 146.515 212.661C146.607 212.812 146.724 212.914 146.866 212.966C147.011 213.015 147.163 213.04 147.323 213.04C147.443 213.04 147.541 213.034 147.618 213.021C147.695 213.006 147.757 212.994 147.803 212.984L148.025 213.963C147.951 213.991 147.848 214.018 147.715 214.046C147.583 214.077 147.415 214.092 147.212 214.092C146.904 214.092 146.603 214.026 146.307 213.894C146.015 213.761 145.772 213.56 145.578 213.289C145.387 213.018 145.292 212.677 145.292 212.264V205.21ZM149.534 214V206.909H150.624V214H149.534ZM150.088 205.727C149.876 205.727 149.693 205.655 149.539 205.51C149.388 205.366 149.313 205.192 149.313 204.989C149.313 204.786 149.388 204.612 149.539 204.467C149.693 204.322 149.876 204.25 150.088 204.25C150.301 204.25 150.482 204.322 150.633 204.467C150.787 204.612 150.864 204.786 150.864 204.989C150.864 205.192 150.787 205.366 150.633 205.51C150.482 205.655 150.301 205.727 150.088 205.727ZM153.709 204.545V214H152.619V204.545H153.709ZM158.585 214.148C157.945 214.148 157.383 213.995 156.9 213.691C156.42 213.386 156.044 212.96 155.773 212.412C155.506 211.864 155.372 211.224 155.372 210.491C155.372 209.753 155.506 209.108 155.773 208.557C156.044 208.006 156.42 207.578 156.9 207.274C157.383 206.969 157.945 206.817 158.585 206.817C159.225 206.817 159.785 206.969 160.265 207.274C160.748 207.578 161.124 208.006 161.392 208.557C161.662 209.108 161.798 209.753 161.798 210.491C161.798 211.224 161.662 211.864 161.392 212.412C161.124 212.96 160.748 213.386 160.265 213.691C159.785 213.995 159.225 214.148 158.585 214.148ZM158.585 213.169C159.071 213.169 159.471 213.044 159.785 212.795C160.099 212.546 160.331 212.218 160.482 211.812C160.633 211.406 160.708 210.965 160.708 210.491C160.708 210.018 160.633 209.576 160.482 209.167C160.331 208.757 160.099 208.426 159.785 208.174C159.471 207.922 159.071 207.795 158.585 207.795C158.099 207.795 157.698 207.922 157.385 208.174C157.071 208.426 156.838 208.757 156.687 209.167C156.537 209.576 156.461 210.018 156.461 210.491C156.461 210.965 156.537 211.406 156.687 211.812C156.838 212.218 157.071 212.546 157.385 212.795C157.698 213.044 158.099 213.169 158.585 213.169ZM169.204 214.166C168.755 214.166 168.347 214.082 167.981 213.912C167.614 213.74 167.323 213.492 167.108 213.169C166.893 212.843 166.785 212.449 166.785 211.987C166.785 211.581 166.865 211.252 167.025 210.999C167.185 210.744 167.399 210.544 167.667 210.399C167.934 210.254 168.23 210.147 168.553 210.076C168.879 210.002 169.207 209.944 169.536 209.901C169.967 209.845 170.316 209.804 170.584 209.776C170.855 209.745 171.052 209.694 171.175 209.624C171.301 209.553 171.364 209.43 171.364 209.254V209.217C171.364 208.762 171.24 208.408 170.99 208.156C170.744 207.903 170.37 207.777 169.869 207.777C169.349 207.777 168.941 207.891 168.645 208.119C168.35 208.346 168.142 208.589 168.022 208.848L166.988 208.479C167.173 208.048 167.419 207.712 167.727 207.472C168.037 207.229 168.376 207.06 168.742 206.964C169.112 206.866 169.475 206.817 169.832 206.817C170.059 206.817 170.321 206.844 170.617 206.9C170.915 206.952 171.203 207.061 171.48 207.228C171.76 207.394 171.992 207.645 172.177 207.98C172.362 208.316 172.454 208.765 172.454 209.328V214H171.364V213.04H171.309C171.235 213.194 171.112 213.358 170.94 213.534C170.767 213.709 170.538 213.858 170.252 213.982C169.966 214.105 169.616 214.166 169.204 214.166ZM169.37 213.188C169.801 213.188 170.164 213.103 170.46 212.934C170.758 212.764 170.983 212.546 171.134 212.278C171.287 212.01 171.364 211.729 171.364 211.433V210.436C171.318 210.491 171.217 210.542 171.06 210.588C170.906 210.632 170.727 210.67 170.524 210.704C170.324 210.735 170.129 210.762 169.938 210.787C169.75 210.808 169.598 210.827 169.481 210.842C169.198 210.879 168.933 210.939 168.687 211.022C168.444 211.102 168.247 211.224 168.096 211.387C167.948 211.547 167.874 211.766 167.874 212.043C167.874 212.421 168.014 212.707 168.294 212.901C168.578 213.092 168.936 213.188 169.37 213.188ZM169.444 205.949L168.004 203.807H169.278L170.404 205.949H169.444ZM183.121 208.497L182.143 208.774C182.081 208.611 181.99 208.453 181.87 208.299C181.753 208.142 181.593 208.012 181.39 207.911C181.187 207.809 180.927 207.759 180.61 207.759C180.176 207.759 179.814 207.859 179.525 208.059C179.239 208.256 179.096 208.506 179.096 208.811C179.096 209.082 179.194 209.296 179.391 209.453C179.588 209.61 179.896 209.741 180.315 209.845L181.367 210.104C182.001 210.258 182.474 210.493 182.784 210.81C183.095 211.124 183.251 211.529 183.251 212.024C183.251 212.43 183.134 212.794 182.9 213.114C182.669 213.434 182.346 213.686 181.93 213.871C181.515 214.055 181.032 214.148 180.481 214.148C179.758 214.148 179.159 213.991 178.685 213.677C178.211 213.363 177.911 212.904 177.785 212.301L178.819 212.043C178.917 212.424 179.104 212.71 179.377 212.901C179.654 213.092 180.016 213.188 180.462 213.188C180.97 213.188 181.373 213.08 181.672 212.864C181.973 212.646 182.124 212.384 182.124 212.08C182.124 211.833 182.038 211.627 181.866 211.461C181.693 211.292 181.429 211.165 181.072 211.082L179.89 210.805C179.24 210.652 178.763 210.413 178.459 210.09C178.157 209.764 178.006 209.356 178.006 208.866C178.006 208.466 178.119 208.112 178.343 207.805C178.571 207.497 178.88 207.255 179.271 207.08C179.665 206.904 180.111 206.817 180.61 206.817C181.312 206.817 181.863 206.971 182.263 207.278C182.666 207.586 182.952 207.992 183.121 208.497ZM189.359 211.101V206.909H190.449V214H189.359V212.8H189.286C189.119 213.16 188.861 213.466 188.51 213.718C188.159 213.968 187.716 214.092 187.18 214.092C186.737 214.092 186.343 213.995 185.999 213.801C185.654 213.605 185.383 213.309 185.186 212.915C184.989 212.518 184.891 212.018 184.891 211.415V206.909H185.98V211.341C185.98 211.858 186.125 212.27 186.414 212.578C186.706 212.886 187.079 213.04 187.531 213.04C187.802 213.04 188.078 212.971 188.358 212.832C188.641 212.694 188.878 212.481 189.069 212.195C189.262 211.909 189.359 211.544 189.359 211.101ZM194.531 214.166C194.082 214.166 193.674 214.082 193.308 213.912C192.941 213.74 192.651 213.492 192.435 213.169C192.22 212.843 192.112 212.449 192.112 211.987C192.112 211.581 192.192 211.252 192.352 210.999C192.512 210.744 192.726 210.544 192.994 210.399C193.261 210.254 193.557 210.147 193.88 210.076C194.206 210.002 194.534 209.944 194.863 209.901C195.294 209.845 195.644 209.804 195.911 209.776C196.182 209.745 196.379 209.694 196.502 209.624C196.628 209.553 196.692 209.43 196.692 209.254V209.217C196.692 208.762 196.567 208.408 196.318 208.156C196.071 207.903 195.697 207.777 195.196 207.777C194.676 207.777 194.268 207.891 193.972 208.119C193.677 208.346 193.469 208.589 193.349 208.848L192.315 208.479C192.5 208.048 192.746 207.712 193.054 207.472C193.365 207.229 193.703 207.06 194.069 206.964C194.439 206.866 194.802 206.817 195.159 206.817C195.387 206.817 195.648 206.844 195.944 206.9C196.242 206.952 196.53 207.061 196.807 207.228C197.087 207.394 197.319 207.645 197.504 207.98C197.689 208.316 197.781 208.765 197.781 209.328V214H196.692V213.04H196.636C196.562 213.194 196.439 213.358 196.267 213.534C196.094 213.709 195.865 213.858 195.579 213.982C195.293 214.105 194.943 214.166 194.531 214.166ZM194.697 213.188C195.128 213.188 195.491 213.103 195.787 212.934C196.085 212.764 196.31 212.546 196.461 212.278C196.615 212.01 196.692 211.729 196.692 211.433V210.436C196.645 210.491 196.544 210.542 196.387 210.588C196.233 210.632 196.054 210.67 195.851 210.704C195.651 210.735 195.456 210.762 195.265 210.787C195.077 210.808 194.925 210.827 194.808 210.842C194.525 210.879 194.26 210.939 194.014 211.022C193.771 211.102 193.574 211.224 193.423 211.387C193.275 211.547 193.201 211.766 193.201 212.043C193.201 212.421 193.342 212.707 193.622 212.901C193.905 213.092 194.263 213.188 194.697 213.188ZM88.8887 232.659V222.909H89.9413V224.036H90.0705C90.1506 223.912 90.2613 223.755 90.4029 223.565C90.5476 223.371 90.7538 223.198 91.0215 223.048C91.2924 222.894 91.6586 222.817 92.1202 222.817C92.7173 222.817 93.2436 222.966 93.6991 223.265C94.1546 223.563 94.51 223.986 94.7655 224.534C95.0209 225.082 95.1487 225.728 95.1487 226.473C95.1487 227.224 95.0209 227.875 94.7655 228.426C94.51 228.974 94.1561 229.398 93.7037 229.7C93.2513 229.998 92.7296 230.148 92.1387 230.148C91.6832 230.148 91.3185 230.072 91.0446 229.922C90.7707 229.768 90.5599 229.594 90.4122 229.4C90.2644 229.203 90.1506 229.04 90.0705 228.911H89.9782V232.659H88.8887ZM89.9597 226.455C89.9597 226.99 90.0382 227.462 90.1952 227.872C90.3521 228.278 90.5814 228.597 90.883 228.827C91.1846 229.055 91.554 229.169 91.991 229.169C92.4465 229.169 92.8266 229.049 93.1313 228.809C93.439 228.566 93.6698 228.24 93.8237 227.83C93.9807 227.418 94.0592 226.959 94.0592 226.455C94.0592 225.956 93.9822 225.507 93.8283 225.107C93.6775 224.703 93.4483 224.385 93.1405 224.151C92.8358 223.914 92.4526 223.795 91.991 223.795C91.5478 223.795 91.1754 223.908 90.8738 224.132C90.5722 224.354 90.3444 224.665 90.1906 225.065C90.0367 225.462 89.9597 225.925 89.9597 226.455ZM98.8972 230.166C98.4479 230.166 98.0401 230.082 97.6739 229.912C97.3076 229.74 97.0168 229.492 96.8014 229.169C96.5859 228.843 96.4782 228.449 96.4782 227.987C96.4782 227.581 96.5582 227.252 96.7183 226.999C96.8783 226.744 97.0922 226.544 97.36 226.399C97.6277 226.254 97.9232 226.147 98.2463 226.076C98.5725 226.002 98.9003 225.944 99.2296 225.901C99.6605 225.845 100.01 225.804 100.278 225.776C100.548 225.745 100.745 225.694 100.868 225.624C100.995 225.553 101.058 225.43 101.058 225.254V225.217C101.058 224.762 100.933 224.408 100.684 224.156C100.438 223.903 100.064 223.777 99.562 223.777C99.0419 223.777 98.6341 223.891 98.3386 224.119C98.0432 224.346 97.8354 224.589 97.7154 224.848L96.6813 224.479C96.866 224.048 97.1122 223.712 97.42 223.472C97.7308 223.229 98.0693 223.06 98.4356 222.964C98.8049 222.866 99.1681 222.817 99.5251 222.817C99.7528 222.817 100.014 222.844 100.31 222.9C100.608 222.952 100.896 223.061 101.173 223.228C101.453 223.394 101.686 223.645 101.87 223.98C102.055 224.316 102.147 224.765 102.147 225.328V230H101.058V229.04H101.002C100.928 229.194 100.805 229.358 100.633 229.534C100.461 229.709 100.231 229.858 99.9452 229.982C99.659 230.105 99.3096 230.166 98.8972 230.166ZM99.0634 229.188C99.4943 229.188 99.8575 229.103 100.153 228.934C100.451 228.764 100.676 228.546 100.827 228.278C100.981 228.01 101.058 227.729 101.058 227.433V226.436C101.012 226.491 100.91 226.542 100.753 226.588C100.599 226.632 100.421 226.67 100.218 226.704C100.018 226.735 99.8221 226.762 99.6313 226.787C99.4435 226.808 99.2912 226.827 99.1742 226.842C98.8911 226.879 98.6264 226.939 98.3802 227.022C98.1371 227.102 97.9401 227.224 97.7893 227.387C97.6416 227.547 97.5677 227.766 97.5677 228.043C97.5677 228.421 97.7077 228.707 97.9878 228.901C98.2709 229.092 98.6295 229.188 99.0634 229.188ZM99.1004 221.949L100.227 219.807H101.501L100.061 221.949H99.1004ZM106.998 232.807C106.472 232.807 106.019 232.739 105.641 232.604C105.262 232.471 104.947 232.296 104.694 232.077C104.445 231.862 104.247 231.631 104.099 231.385L104.967 230.776C105.065 230.905 105.19 231.053 105.341 231.219C105.491 231.388 105.698 231.534 105.959 231.657C106.224 231.783 106.57 231.847 106.998 231.847C107.57 231.847 108.043 231.708 108.415 231.431C108.788 231.154 108.974 230.72 108.974 230.129V228.689H108.882C108.802 228.818 108.688 228.978 108.54 229.169C108.395 229.357 108.186 229.525 107.912 229.672C107.641 229.817 107.275 229.889 106.813 229.889C106.241 229.889 105.727 229.754 105.271 229.483C104.819 229.212 104.46 228.818 104.196 228.301C103.934 227.784 103.803 227.156 103.803 226.418C103.803 225.691 103.931 225.059 104.187 224.52C104.442 223.979 104.797 223.56 105.253 223.265C105.708 222.966 106.235 222.817 106.832 222.817C107.293 222.817 107.66 222.894 107.931 223.048C108.204 223.198 108.414 223.371 108.558 223.565C108.706 223.755 108.82 223.912 108.9 224.036H109.011V222.909H110.063V230.203C110.063 230.812 109.925 231.308 109.648 231.69C109.374 232.074 109.005 232.356 108.54 232.534C108.078 232.716 107.564 232.807 106.998 232.807ZM106.961 228.911C107.398 228.911 107.767 228.81 108.069 228.61C108.371 228.41 108.6 228.123 108.757 227.747C108.914 227.372 108.992 226.922 108.992 226.399C108.992 225.888 108.915 225.437 108.761 225.047C108.608 224.656 108.38 224.349 108.078 224.128C107.777 223.906 107.404 223.795 106.961 223.795C106.499 223.795 106.115 223.912 105.807 224.146C105.502 224.38 105.273 224.694 105.119 225.088C104.968 225.482 104.893 225.919 104.893 226.399C104.893 226.892 104.97 227.327 105.124 227.706C105.281 228.081 105.511 228.377 105.816 228.592C106.124 228.804 106.506 228.911 106.961 228.911ZM112.058 230V222.909H113.147V230H112.058ZM112.612 221.727C112.399 221.727 112.216 221.655 112.062 221.51C111.911 221.366 111.836 221.192 111.836 220.989C111.836 220.786 111.911 220.612 112.062 220.467C112.216 220.322 112.399 220.25 112.612 220.25C112.824 220.25 113.006 220.322 113.156 220.467C113.31 220.612 113.387 220.786 113.387 220.989C113.387 221.192 113.31 221.366 113.156 221.51C113.006 221.655 112.824 221.727 112.612 221.727ZM116.232 225.734V230H115.143V222.909H116.195V224.017H116.288C116.454 223.657 116.706 223.368 117.045 223.149C117.383 222.928 117.82 222.817 118.356 222.817C118.836 222.817 119.256 222.915 119.616 223.112C119.976 223.306 120.256 223.602 120.456 223.999C120.656 224.393 120.756 224.891 120.756 225.494V230H119.667V225.568C119.667 225.011 119.522 224.577 119.233 224.266C118.944 223.952 118.547 223.795 118.042 223.795C117.694 223.795 117.383 223.871 117.109 224.022C116.838 224.172 116.625 224.393 116.468 224.682C116.311 224.971 116.232 225.322 116.232 225.734ZM124.834 230.166C124.384 230.166 123.977 230.082 123.61 229.912C123.244 229.74 122.953 229.492 122.738 229.169C122.522 228.843 122.415 228.449 122.415 227.987C122.415 227.581 122.495 227.252 122.655 226.999C122.815 226.744 123.029 226.544 123.296 226.399C123.564 226.254 123.86 226.147 124.183 226.076C124.509 226.002 124.837 225.944 125.166 225.901C125.597 225.845 125.946 225.804 126.214 225.776C126.485 225.745 126.682 225.694 126.805 225.624C126.931 225.553 126.994 225.43 126.994 225.254V225.217C126.994 224.762 126.87 224.408 126.62 224.156C126.374 223.903 126 223.777 125.499 223.777C124.978 223.777 124.571 223.891 124.275 224.119C123.98 224.346 123.772 224.589 123.652 224.848L122.618 224.479C122.803 224.048 123.049 223.712 123.356 223.472C123.667 223.229 124.006 223.06 124.372 222.964C124.741 222.866 125.105 222.817 125.462 222.817C125.689 222.817 125.951 222.844 126.246 222.9C126.545 222.952 126.833 223.061 127.11 223.228C127.39 223.394 127.622 223.645 127.807 223.98C127.991 224.316 128.084 224.765 128.084 225.328V230H126.994V229.04H126.939C126.865 229.194 126.742 229.358 126.57 229.534C126.397 229.709 126.168 229.858 125.882 229.982C125.595 230.105 125.246 230.166 124.834 230.166ZM125 229.188C125.431 229.188 125.794 229.103 126.089 228.934C126.388 228.764 126.613 228.546 126.763 228.278C126.917 228.01 126.994 227.729 126.994 227.433V226.436C126.948 226.491 126.847 226.542 126.69 226.588C126.536 226.632 126.357 226.67 126.154 226.704C125.954 226.735 125.759 226.762 125.568 226.787C125.38 226.808 125.228 226.827 125.111 226.842C124.828 226.879 124.563 226.939 124.317 227.022C124.074 227.102 123.877 227.224 123.726 227.387C123.578 227.547 123.504 227.766 123.504 228.043C123.504 228.421 123.644 228.707 123.924 228.901C124.207 229.092 124.566 229.188 125 229.188ZM135.594 230L133.008 220.545H134.172L136.148 228.246H136.24L138.253 220.545H139.545L141.558 228.246H141.65L143.626 220.545H144.79L142.204 230H141.023L138.936 222.466H138.862L136.775 230H135.594ZM148.381 230.148C147.698 230.148 147.109 229.997 146.613 229.695C146.121 229.391 145.741 228.966 145.473 228.421C145.208 227.873 145.076 227.236 145.076 226.51C145.076 225.784 145.208 225.143 145.473 224.589C145.741 224.032 146.113 223.598 146.59 223.288C147.07 222.974 147.63 222.817 148.27 222.817C148.64 222.817 149.004 222.878 149.365 223.001C149.725 223.125 150.052 223.325 150.348 223.602C150.643 223.875 150.879 224.239 151.054 224.691C151.23 225.143 151.317 225.701 151.317 226.362V226.824H145.851V225.882H150.209C150.209 225.482 150.129 225.125 149.969 224.811C149.812 224.497 149.588 224.249 149.295 224.068C149.006 223.886 148.664 223.795 148.27 223.795C147.837 223.795 147.461 223.903 147.144 224.119C146.83 224.331 146.589 224.608 146.419 224.95C146.25 225.291 146.165 225.657 146.165 226.048V226.676C146.165 227.212 146.258 227.666 146.442 228.038C146.63 228.407 146.89 228.689 147.223 228.883C147.555 229.074 147.941 229.169 148.381 229.169C148.667 229.169 148.926 229.129 149.157 229.049C149.391 228.966 149.592 228.843 149.762 228.68C149.931 228.513 150.062 228.307 150.154 228.061L151.207 228.357C151.096 228.714 150.91 229.027 150.648 229.298C150.386 229.566 150.063 229.775 149.678 229.926C149.294 230.074 148.861 230.148 148.381 230.148ZM153.122 230V220.545H154.212V224.036H154.304C154.384 223.912 154.495 223.755 154.637 223.565C154.781 223.371 154.987 223.198 155.255 223.048C155.526 222.894 155.892 222.817 156.354 222.817C156.951 222.817 157.477 222.966 157.933 223.265C158.388 223.563 158.744 223.986 158.999 224.534C159.255 225.082 159.382 225.728 159.382 226.473C159.382 227.224 159.255 227.875 158.999 228.426C158.744 228.974 158.39 229.398 157.937 229.7C157.485 229.998 156.963 230.148 156.372 230.148C155.917 230.148 155.552 230.072 155.278 229.922C155.004 229.768 154.794 229.594 154.646 229.4C154.498 229.203 154.384 229.04 154.304 228.911H154.175V230H153.122ZM154.193 226.455C154.193 226.99 154.272 227.462 154.429 227.872C154.586 228.278 154.815 228.597 155.117 228.827C155.418 229.055 155.788 229.169 156.225 229.169C156.68 229.169 157.06 229.049 157.365 228.809C157.673 228.566 157.904 228.24 158.057 227.83C158.214 227.418 158.293 226.959 158.293 226.455C158.293 225.956 158.216 225.507 158.062 225.107C157.911 224.703 157.682 224.385 157.374 224.151C157.069 223.914 156.686 223.795 156.225 223.795C155.781 223.795 155.409 223.908 155.107 224.132C154.806 224.354 154.578 224.665 154.424 225.065C154.27 225.462 154.193 225.925 154.193 226.455Z" fill="white"/>
<path d="M120.447 124.383H118.27C118.23 124.101 118.149 123.851 118.026 123.632C117.904 123.41 117.746 123.221 117.554 123.065C117.362 122.91 117.14 122.79 116.888 122.707C116.639 122.625 116.369 122.583 116.077 122.583C115.55 122.583 115.091 122.714 114.7 122.976C114.309 123.234 114.006 123.612 113.791 124.109C113.575 124.603 113.467 125.203 113.467 125.909C113.467 126.635 113.575 127.245 113.791 127.739C114.009 128.232 114.314 128.605 114.705 128.857C115.096 129.109 115.549 129.235 116.063 129.235C116.351 129.235 116.618 129.197 116.863 129.121C117.112 129.045 117.332 128.933 117.524 128.788C117.716 128.638 117.876 128.458 118.001 128.246C118.131 128.034 118.22 127.792 118.27 127.52L120.447 127.53C120.391 127.997 120.25 128.448 120.025 128.882C119.803 129.313 119.503 129.699 119.125 130.04C118.751 130.379 118.303 130.647 117.783 130.846C117.266 131.041 116.681 131.139 116.028 131.139C115.12 131.139 114.308 130.934 113.592 130.523C112.879 130.112 112.316 129.517 111.901 128.738C111.49 127.959 111.285 127.016 111.285 125.909C111.285 124.799 111.494 123.854 111.911 123.075C112.329 122.296 112.896 121.703 113.612 121.295C114.327 120.884 115.133 120.679 116.028 120.679C116.618 120.679 117.165 120.762 117.668 120.928C118.175 121.093 118.625 121.335 119.016 121.653C119.407 121.968 119.725 122.354 119.97 122.812C120.219 123.269 120.378 123.793 120.447 124.383ZM127.515 123.746C127.475 123.345 127.304 123.034 127.003 122.812C126.701 122.59 126.292 122.479 125.775 122.479C125.423 122.479 125.127 122.528 124.885 122.628C124.643 122.724 124.457 122.858 124.328 123.031C124.202 123.203 124.139 123.398 124.139 123.617C124.132 123.799 124.17 123.959 124.253 124.094C124.339 124.23 124.457 124.348 124.606 124.447C124.755 124.544 124.928 124.628 125.123 124.701C125.319 124.771 125.528 124.83 125.75 124.88L126.664 125.099C127.109 125.198 127.516 125.331 127.887 125.496C128.259 125.662 128.58 125.866 128.852 126.108C129.124 126.35 129.334 126.635 129.483 126.963C129.636 127.291 129.714 127.667 129.717 128.092C129.714 128.715 129.555 129.255 129.24 129.712C128.928 130.166 128.477 130.519 127.887 130.771C127.301 131.02 126.593 131.144 125.765 131.144C124.943 131.144 124.227 131.018 123.617 130.766C123.01 130.514 122.536 130.142 122.195 129.648C121.857 129.151 121.68 128.536 121.663 127.803H123.746C123.769 128.145 123.867 128.43 124.039 128.658C124.215 128.884 124.449 129.054 124.74 129.17C125.035 129.283 125.369 129.339 125.74 129.339C126.104 129.339 126.421 129.286 126.689 129.18C126.961 129.074 127.172 128.927 127.321 128.738C127.47 128.549 127.544 128.332 127.544 128.087C127.544 127.858 127.476 127.666 127.341 127.51C127.208 127.354 127.012 127.222 126.754 127.112C126.499 127.003 126.186 126.903 125.814 126.814L124.706 126.536C123.847 126.327 123.169 126 122.672 125.556C122.175 125.112 121.928 124.514 121.932 123.761C121.928 123.145 122.092 122.606 122.424 122.146C122.758 121.685 123.217 121.325 123.801 121.067C124.384 120.808 125.047 120.679 125.789 120.679C126.545 120.679 127.205 120.808 127.768 121.067C128.335 121.325 128.776 121.685 129.091 122.146C129.405 122.606 129.568 123.14 129.578 123.746H127.515ZM136.688 123.746C136.649 123.345 136.478 123.034 136.176 122.812C135.875 122.59 135.465 122.479 134.948 122.479C134.597 122.479 134.3 122.528 134.058 122.628C133.817 122.724 133.631 122.858 133.502 123.031C133.376 123.203 133.313 123.398 133.313 123.617C133.306 123.799 133.344 123.959 133.427 124.094C133.513 124.23 133.631 124.348 133.78 124.447C133.929 124.544 134.102 124.628 134.297 124.701C134.493 124.771 134.701 124.83 134.924 124.88L135.838 125.099C136.282 125.198 136.69 125.331 137.061 125.496C137.433 125.662 137.754 125.866 138.026 126.108C138.298 126.35 138.508 126.635 138.657 126.963C138.81 127.291 138.888 127.667 138.891 128.092C138.888 128.715 138.728 129.255 138.414 129.712C138.102 130.166 137.651 130.519 137.061 130.771C136.475 131.02 135.767 131.144 134.938 131.144C134.116 131.144 133.401 131.018 132.791 130.766C132.184 130.514 131.71 130.142 131.369 129.648C131.031 129.151 130.853 128.536 130.837 127.803H132.92C132.943 128.145 133.041 128.43 133.213 128.658C133.389 128.884 133.623 129.054 133.914 129.17C134.209 129.283 134.542 129.339 134.914 129.339C135.278 129.339 135.595 129.286 135.863 129.18C136.135 129.074 136.345 128.927 136.495 128.738C136.644 128.549 136.718 128.332 136.718 128.087C136.718 127.858 136.65 127.666 136.514 127.51C136.382 127.354 136.186 127.222 135.928 127.112C135.673 127.003 135.359 126.903 134.988 126.814L133.879 126.536C133.021 126.327 132.343 126 131.846 125.556C131.349 125.112 131.102 124.514 131.105 123.761C131.102 123.145 131.266 122.606 131.598 122.146C131.932 121.685 132.391 121.325 132.975 121.067C133.558 120.808 134.221 120.679 134.963 120.679C135.719 120.679 136.379 120.808 136.942 121.067C137.509 121.325 137.95 121.685 138.264 122.146C138.579 122.606 138.742 123.14 138.752 123.746H136.688Z" fill="white"/>
</svg>
