<svg width="250" height="288" viewBox="0 0 250 288" fill="none" xmlns="http://www.w3.org/2000/svg">
<rect x="0.169006" width="249.695" height="288" rx="25" fill="#181823"/>
<g clip-path="url(#clip0_103_1724)">
<path d="M109.276 83.9062C113.159 83.9062 116.307 87.0542 116.307 90.9375C116.307 94.8208 113.159 97.9688 109.276 97.9688C105.393 97.9688 102.245 94.8208 102.245 90.9375C102.245 87.0542 105.393 83.9062 109.276 83.9062Z" stroke="#602EEF" stroke-width="4.6875" stroke-linecap="round" stroke-linejoin="round"/>
<path d="M109.276 37.0312C113.159 37.0312 116.307 40.1792 116.307 44.0625C116.307 47.9458 113.159 51.0938 109.276 51.0938C105.393 51.0938 102.245 47.9458 102.245 44.0625C102.245 40.1792 105.393 37.0312 109.276 37.0312Z" stroke="#602EEF" stroke-width="4.6875" stroke-linecap="round" stroke-linejoin="round"/>
<path d="M109.276 51.0938V83.9062" stroke="#602EEF" stroke-width="4.6875" stroke-linecap="round" stroke-linejoin="round"/>
<path d="M137.401 74.5312C141.284 74.5312 144.432 77.6792 144.432 81.5625C144.432 85.4458 141.284 88.5938 137.401 88.5938C133.518 88.5938 130.37 85.4458 130.37 81.5625C130.37 77.6792 133.518 74.5312 137.401 74.5312Z" stroke="#602EEF" stroke-width="4.6875" stroke-linecap="round" stroke-linejoin="round"/>
<path d="M137.401 74.5312C137.401 55.7812 109.276 67.5 109.276 51.0938" stroke="#602EEF" stroke-width="4.6875" stroke-linecap="round" stroke-linejoin="round"/>
</g>
<path d="M35.3809 174.5C35.2793 174.189 35.1454 173.911 34.9792 173.664C34.8161 173.415 34.6207 173.203 34.3929 173.027C34.1683 172.852 33.9128 172.718 33.6266 172.626C33.3404 172.533 33.0265 172.487 32.6848 172.487C32.1247 172.487 31.6154 172.632 31.1568 172.921C30.6982 173.21 30.3335 173.637 30.0627 174.2C29.7918 174.763 29.6564 175.454 29.6564 176.273C29.6564 177.091 29.7934 177.782 30.0673 178.346C30.3412 178.909 30.7121 179.335 31.1799 179.624C31.6477 179.914 32.1739 180.058 32.7587 180.058C33.3004 180.058 33.7774 179.943 34.1898 179.712C34.6053 179.478 34.9284 179.149 35.1593 178.724C35.3932 178.296 35.5101 177.793 35.5101 177.214L35.861 177.288H33.0172V176.273H36.6181V177.288C36.6181 178.067 36.4519 178.744 36.1195 179.32C35.7902 179.895 35.3347 180.341 34.753 180.658C34.1744 180.972 33.5096 181.129 32.7587 181.129C31.9216 181.129 31.186 180.932 30.552 180.538C29.9211 180.144 29.4287 179.584 29.0748 178.858C28.7239 178.132 28.5485 177.27 28.5485 176.273C28.5485 175.525 28.6485 174.852 28.8485 174.255C29.0517 173.655 29.3379 173.144 29.7072 172.723C30.0765 172.301 30.5136 171.978 31.0183 171.753C31.523 171.529 32.0785 171.416 32.6848 171.416C33.1834 171.416 33.6481 171.492 34.079 171.642C34.513 171.79 34.8992 172.001 35.2377 172.275C35.5794 172.546 35.864 172.87 36.0918 173.249C36.3195 173.624 36.4765 174.041 36.5627 174.5H35.3809ZM38.8755 181V173.909H39.965V181H38.8755ZM39.4295 172.727C39.2172 172.727 39.034 172.655 38.8801 172.51C38.7293 172.366 38.6539 172.192 38.6539 171.989C38.6539 171.786 38.7293 171.612 38.8801 171.467C39.034 171.322 39.2172 171.25 39.4295 171.25C39.6419 171.25 39.8234 171.322 39.9743 171.467C40.1281 171.612 40.2051 171.786 40.2051 171.989C40.2051 172.192 40.1281 172.366 39.9743 172.51C39.8234 172.655 39.6419 172.727 39.4295 172.727ZM45.0443 173.909V174.832H41.3696V173.909H45.0443ZM42.4406 172.21H43.5301V178.969C43.5301 179.277 43.5747 179.507 43.664 179.661C43.7563 179.812 43.8733 179.914 44.0148 179.966C44.1595 180.015 44.3118 180.04 44.4719 180.04C44.5919 180.04 44.6904 180.034 44.7673 180.021C44.8443 180.006 44.9058 179.994 44.952 179.984L45.1736 180.963C45.0997 180.991 44.9966 181.018 44.8643 181.046C44.7319 181.077 44.5642 181.092 44.3611 181.092C44.0533 181.092 43.7517 181.026 43.4562 180.894C43.1639 180.761 42.9207 180.56 42.7268 180.289C42.536 180.018 42.4406 179.677 42.4406 179.264V172.21ZM53.3124 181.148C52.6292 181.148 52.0398 180.997 51.5443 180.695C51.0519 180.391 50.6718 179.966 50.404 179.421C50.1394 178.873 50.007 178.236 50.007 177.51C50.007 176.784 50.1394 176.143 50.404 175.589C50.6718 175.032 51.0442 174.598 51.5212 174.288C52.0013 173.974 52.5615 173.817 53.2016 173.817C53.5709 173.817 53.9356 173.878 54.2957 174.001C54.6558 174.125 54.9836 174.325 55.279 174.602C55.5745 174.875 55.8099 175.239 55.9854 175.691C56.1608 176.143 56.2485 176.701 56.2485 177.362V177.824H50.7826V176.882H55.1405C55.1405 176.482 55.0605 176.125 54.9005 175.811C54.7435 175.497 54.5188 175.249 54.2265 175.068C53.9372 174.886 53.5956 174.795 53.2016 174.795C52.7677 174.795 52.3922 174.903 52.0752 175.119C51.7613 175.331 51.5197 175.608 51.3504 175.95C51.1811 176.291 51.0965 176.657 51.0965 177.048V177.676C51.0965 178.212 51.1888 178.666 51.3735 179.038C51.5612 179.407 51.8213 179.689 52.1537 179.883C52.4861 180.074 52.8723 180.169 53.3124 180.169C53.5986 180.169 53.8572 180.129 54.088 180.049C54.3219 179.966 54.5235 179.843 54.6927 179.68C54.862 179.513 54.9928 179.307 55.0851 179.061L56.1377 179.357C56.0269 179.714 55.8407 180.027 55.5791 180.298C55.3175 180.566 54.9943 180.775 54.6096 180.926C54.2249 181.074 53.7925 181.148 53.3124 181.148ZM52.6476 172.949L53.7741 170.807H55.0482L53.6079 172.949H52.6476ZM66.0308 178.101V173.909H67.1203V181H66.0308V179.8H65.9569C65.7907 180.16 65.5322 180.466 65.1814 180.718C64.8305 180.968 64.3873 181.092 63.8518 181.092C63.4086 181.092 63.0147 180.995 62.67 180.801C62.3253 180.605 62.0545 180.309 61.8575 179.915C61.6605 179.518 61.5621 179.018 61.5621 178.415V173.909H62.6515V178.341C62.6515 178.858 62.7962 179.27 63.0855 179.578C63.3779 179.886 63.7503 180.04 64.2027 180.04C64.4735 180.04 64.749 179.971 65.029 179.832C65.3122 179.694 65.5492 179.481 65.74 179.195C65.9339 178.909 66.0308 178.544 66.0308 178.101ZM69.1158 181V173.909H70.1683V175.017H70.2607C70.4084 174.638 70.6469 174.345 70.9762 174.135C71.3055 173.923 71.701 173.817 72.1626 173.817C72.6304 173.817 73.0198 173.923 73.3306 174.135C73.6445 174.345 73.8892 174.638 74.0646 175.017H74.1385C74.3201 174.651 74.5924 174.36 74.9556 174.145C75.3188 173.926 75.7543 173.817 76.2621 173.817C76.8961 173.817 77.4147 174.015 77.8178 174.412C78.221 174.806 78.4226 175.42 78.4226 176.254V181H77.3331V176.254C77.3331 175.731 77.19 175.357 76.9038 175.132C76.6175 174.908 76.2805 174.795 75.8928 174.795C75.3942 174.795 75.0079 174.946 74.734 175.248C74.4601 175.546 74.3232 175.925 74.3232 176.384V181H73.2152V176.143C73.2152 175.74 73.0844 175.416 72.8228 175.169C72.5612 174.92 72.2242 174.795 71.8118 174.795C71.5286 174.795 71.264 174.871 71.0178 175.022C70.7746 175.172 70.5777 175.382 70.4268 175.65C70.2791 175.914 70.2053 176.22 70.2053 176.568V181H69.1158ZM82.5012 181.166C82.0519 181.166 81.6441 181.082 81.2779 180.912C80.9116 180.74 80.6208 180.492 80.4054 180.169C80.1899 179.843 80.0822 179.449 80.0822 178.987C80.0822 178.581 80.1622 178.252 80.3223 177.999C80.4823 177.744 80.6962 177.544 80.964 177.399C81.2317 177.254 81.5272 177.147 81.8503 177.076C82.1765 177.002 82.5043 176.944 82.8336 176.901C83.2645 176.845 83.6138 176.804 83.8816 176.776C84.1524 176.745 84.3494 176.694 84.4725 176.624C84.5987 176.553 84.6618 176.43 84.6618 176.254V176.217C84.6618 175.762 84.5371 175.408 84.2878 175.156C84.0416 174.903 83.6677 174.777 83.166 174.777C82.6459 174.777 82.2381 174.891 81.9426 175.119C81.6472 175.346 81.4395 175.589 81.3194 175.848L80.2853 175.479C80.47 175.048 80.7162 174.712 81.024 174.472C81.3348 174.229 81.6734 174.06 82.0396 173.964C82.4089 173.866 82.7721 173.817 83.1291 173.817C83.3568 173.817 83.6184 173.844 83.9139 173.9C84.2124 173.952 84.5002 174.061 84.7772 174.228C85.0572 174.394 85.2896 174.645 85.4743 174.98C85.6589 175.316 85.7512 175.765 85.7512 176.328V181H84.6618V180.04H84.6064C84.5325 180.194 84.4094 180.358 84.237 180.534C84.0647 180.709 83.8354 180.858 83.5492 180.982C83.263 181.105 82.9136 181.166 82.5012 181.166ZM82.6674 180.188C83.0983 180.188 83.4615 180.103 83.7569 179.934C84.0555 179.764 84.2801 179.546 84.4309 179.278C84.5848 179.01 84.6618 178.729 84.6618 178.433V177.436C84.6156 177.491 84.514 177.542 84.3571 177.588C84.2032 177.632 84.0247 177.67 83.8216 177.704C83.6215 177.735 83.4261 177.762 83.2353 177.787C83.0475 177.808 82.8952 177.827 82.7782 177.842C82.4951 177.879 82.2304 177.939 81.9842 178.022C81.7411 178.102 81.5441 178.224 81.3933 178.387C81.2456 178.547 81.1717 178.766 81.1717 179.043C81.1717 179.421 81.3117 179.707 81.5918 179.901C81.8749 180.092 82.2335 180.188 82.6674 180.188ZM94.4798 173.909V174.832H90.8051V173.909H94.4798ZM91.8762 172.21H92.9656V178.969C92.9656 179.277 93.0103 179.507 93.0995 179.661C93.1918 179.812 93.3088 179.914 93.4504 179.966C93.595 180.015 93.7474 180.04 93.9074 180.04C94.0274 180.04 94.1259 180.034 94.2029 180.021C94.2798 180.006 94.3414 179.994 94.3875 179.984L94.6091 180.963C94.5352 180.991 94.4321 181.018 94.2998 181.046C94.1675 181.077 93.9997 181.092 93.7966 181.092C93.4888 181.092 93.1872 181.026 92.8918 180.894C92.5994 180.761 92.3563 180.56 92.1624 180.289C91.9716 180.018 91.8762 179.677 91.8762 179.264V172.21ZM99.0155 181.148C98.3323 181.148 97.7429 180.997 97.2474 180.695C96.755 180.391 96.3749 179.966 96.1072 179.421C95.8425 178.873 95.7101 178.236 95.7101 177.51C95.7101 176.784 95.8425 176.143 96.1072 175.589C96.3749 175.032 96.7473 174.598 97.2243 174.288C97.7045 173.974 98.2646 173.817 98.9047 173.817C99.2741 173.817 99.6388 173.878 99.9988 174.001C100.359 174.125 100.687 174.325 100.982 174.602C101.278 174.875 101.513 175.239 101.688 175.691C101.864 176.143 101.952 176.701 101.952 177.362V177.824H96.4857V176.882H100.844C100.844 176.482 100.764 176.125 100.604 175.811C100.447 175.497 100.222 175.249 99.9296 175.068C99.6403 174.886 99.2987 174.795 98.9047 174.795C98.4708 174.795 98.0953 174.903 97.7783 175.119C97.4644 175.331 97.2228 175.608 97.0535 175.95C96.8843 176.291 96.7996 176.657 96.7996 177.048V177.676C96.7996 178.212 96.892 178.666 97.0766 179.038C97.2644 179.407 97.5244 179.689 97.8568 179.883C98.1892 180.074 98.5754 180.169 99.0155 180.169C99.3018 180.169 99.5603 180.129 99.7911 180.049C100.025 179.966 100.227 179.843 100.396 179.68C100.565 179.513 100.696 179.307 100.788 179.061L101.841 179.357C101.73 179.714 101.544 180.027 101.282 180.298C101.021 180.566 100.697 180.775 100.313 180.926C99.9281 181.074 99.4956 181.148 99.0155 181.148ZM106.49 181.148C105.825 181.148 105.252 180.991 104.772 180.677C104.292 180.363 103.923 179.931 103.664 179.38C103.406 178.829 103.277 178.199 103.277 177.491C103.277 176.771 103.409 176.136 103.674 175.585C103.941 175.031 104.314 174.598 104.791 174.288C105.271 173.974 105.831 173.817 106.471 173.817C106.97 173.817 107.419 173.909 107.819 174.094C108.219 174.278 108.547 174.537 108.802 174.869C109.058 175.202 109.216 175.589 109.278 176.033H108.188C108.105 175.71 107.921 175.423 107.634 175.174C107.351 174.922 106.97 174.795 106.49 174.795C106.065 174.795 105.692 174.906 105.372 175.128C105.055 175.346 104.808 175.656 104.629 176.056C104.454 176.453 104.366 176.919 104.366 177.455C104.366 178.002 104.452 178.479 104.625 178.886C104.8 179.292 105.046 179.607 105.363 179.832C105.683 180.057 106.059 180.169 106.49 180.169C106.773 180.169 107.03 180.12 107.261 180.021C107.491 179.923 107.687 179.781 107.847 179.597C108.007 179.412 108.121 179.19 108.188 178.932H109.278C109.216 179.35 109.064 179.727 108.821 180.063C108.581 180.395 108.262 180.66 107.865 180.857C107.471 181.051 107.013 181.148 106.49 181.148ZM111.96 176.734V181H110.871V173.909H111.923V175.017H112.016C112.182 174.657 112.434 174.368 112.773 174.149C113.111 173.928 113.548 173.817 114.084 173.817C114.564 173.817 114.984 173.915 115.344 174.112C115.704 174.306 115.984 174.602 116.184 174.999C116.384 175.393 116.484 175.891 116.484 176.494V181H115.395V176.568C115.395 176.011 115.25 175.577 114.961 175.266C114.672 174.952 114.275 174.795 113.77 174.795C113.422 174.795 113.111 174.871 112.837 175.022C112.566 175.172 112.353 175.393 112.196 175.682C112.039 175.971 111.96 176.322 111.96 176.734ZM121.356 181.148C120.716 181.148 120.154 180.995 119.671 180.691C119.191 180.386 118.815 179.96 118.544 179.412C118.277 178.864 118.143 178.224 118.143 177.491C118.143 176.753 118.277 176.108 118.544 175.557C118.815 175.006 119.191 174.578 119.671 174.274C120.154 173.969 120.716 173.817 121.356 173.817C121.996 173.817 122.556 173.969 123.036 174.274C123.519 174.578 123.895 175.006 124.163 175.557C124.433 176.108 124.569 176.753 124.569 177.491C124.569 178.224 124.433 178.864 124.163 179.412C123.895 179.96 123.519 180.386 123.036 180.691C122.556 180.995 121.996 181.148 121.356 181.148ZM121.356 180.169C121.842 180.169 122.242 180.044 122.556 179.795C122.87 179.546 123.102 179.218 123.253 178.812C123.404 178.406 123.479 177.965 123.479 177.491C123.479 177.018 123.404 176.576 123.253 176.167C123.102 175.757 122.87 175.426 122.556 175.174C122.242 174.922 121.842 174.795 121.356 174.795C120.87 174.795 120.469 174.922 120.156 175.174C119.842 175.426 119.609 175.757 119.458 176.167C119.308 176.576 119.232 177.018 119.232 177.491C119.232 177.965 119.308 178.406 119.458 178.812C119.609 179.218 119.842 179.546 120.156 179.795C120.469 180.044 120.87 180.169 121.356 180.169ZM127.321 171.545V181H126.232V171.545H127.321ZM132.198 181.148C131.557 181.148 130.996 180.995 130.513 180.691C130.032 180.386 129.657 179.96 129.386 179.412C129.118 178.864 128.985 178.224 128.985 177.491C128.985 176.753 129.118 176.108 129.386 175.557C129.657 175.006 130.032 174.578 130.513 174.274C130.996 173.969 131.557 173.817 132.198 173.817C132.838 173.817 133.398 173.969 133.878 174.274C134.361 174.578 134.737 175.006 135.004 175.557C135.275 176.108 135.411 176.753 135.411 177.491C135.411 178.224 135.275 178.864 135.004 179.412C134.737 179.96 134.361 180.386 133.878 180.691C133.398 180.995 132.838 181.148 132.198 181.148ZM132.198 180.169C132.684 180.169 133.084 180.044 133.398 179.795C133.712 179.546 133.944 179.218 134.095 178.812C134.246 178.406 134.321 177.965 134.321 177.491C134.321 177.018 134.246 176.576 134.095 176.167C133.944 175.757 133.712 175.426 133.398 175.174C133.084 174.922 132.684 174.795 132.198 174.795C131.711 174.795 131.311 174.922 130.997 175.174C130.683 175.426 130.451 175.757 130.3 176.167C130.149 176.576 130.074 177.018 130.074 177.491C130.074 177.965 130.149 178.406 130.3 178.812C130.451 179.218 130.683 179.546 130.997 179.795C131.311 180.044 131.711 180.169 132.198 180.169ZM139.936 183.807C139.41 183.807 138.957 183.739 138.579 183.604C138.2 183.471 137.885 183.296 137.632 183.077C137.383 182.862 137.185 182.631 137.037 182.385L137.905 181.776C138.003 181.905 138.128 182.053 138.279 182.219C138.429 182.388 138.636 182.534 138.897 182.657C139.162 182.783 139.508 182.847 139.936 182.847C140.508 182.847 140.981 182.708 141.353 182.431C141.726 182.154 141.912 181.72 141.912 181.129V179.689H141.82C141.739 179.818 141.626 179.978 141.478 180.169C141.333 180.357 141.124 180.525 140.85 180.672C140.579 180.817 140.213 180.889 139.751 180.889C139.179 180.889 138.665 180.754 138.209 180.483C137.757 180.212 137.398 179.818 137.134 179.301C136.872 178.784 136.741 178.156 136.741 177.418C136.741 176.691 136.869 176.059 137.125 175.52C137.38 174.979 137.735 174.56 138.191 174.265C138.646 173.966 139.173 173.817 139.77 173.817C140.231 173.817 140.598 173.894 140.869 174.048C141.142 174.198 141.352 174.371 141.496 174.565C141.644 174.755 141.758 174.912 141.838 175.036H141.949V173.909H143.001V181.203C143.001 181.812 142.863 182.308 142.586 182.69C142.312 183.074 141.943 183.356 141.478 183.534C141.016 183.716 140.502 183.807 139.936 183.807ZM139.899 179.911C140.336 179.911 140.705 179.81 141.007 179.61C141.309 179.41 141.538 179.123 141.695 178.747C141.852 178.372 141.93 177.922 141.93 177.399C141.93 176.888 141.853 176.437 141.699 176.047C141.546 175.656 141.318 175.349 141.016 175.128C140.715 174.906 140.342 174.795 139.899 174.795C139.437 174.795 139.053 174.912 138.745 175.146C138.44 175.38 138.211 175.694 138.057 176.088C137.906 176.482 137.831 176.919 137.831 177.399C137.831 177.892 137.908 178.327 138.062 178.706C138.219 179.081 138.449 179.377 138.754 179.592C139.062 179.804 139.444 179.911 139.899 179.911ZM144.996 181V173.909H146.085V181H144.996ZM145.55 172.727C145.337 172.727 145.154 172.655 145 172.51C144.849 172.366 144.774 172.192 144.774 171.989C144.774 171.786 144.849 171.612 145 171.467C145.154 171.322 145.337 171.25 145.55 171.25C145.762 171.25 145.944 171.322 146.094 171.467C146.248 171.612 146.325 171.786 146.325 171.989C146.325 172.192 146.248 172.366 146.094 172.51C145.944 172.655 145.762 172.727 145.55 172.727ZM150.167 181.166C149.718 181.166 149.31 181.082 148.944 180.912C148.578 180.74 148.287 180.492 148.071 180.169C147.856 179.843 147.748 179.449 147.748 178.987C147.748 178.581 147.828 178.252 147.988 177.999C148.148 177.744 148.362 177.544 148.63 177.399C148.898 177.254 149.193 177.147 149.516 177.076C149.843 177.002 150.17 176.944 150.5 176.901C150.931 176.845 151.28 176.804 151.548 176.776C151.818 176.745 152.015 176.694 152.138 176.624C152.265 176.553 152.328 176.43 152.328 176.254V176.217C152.328 175.762 152.203 175.408 151.954 175.156C151.708 174.903 151.334 174.777 150.832 174.777C150.312 174.777 149.904 174.891 149.609 175.119C149.313 175.346 149.105 175.589 148.985 175.848L147.951 175.479C148.136 175.048 148.382 174.712 148.69 174.472C149.001 174.229 149.339 174.06 149.706 173.964C150.075 173.866 150.438 173.817 150.795 173.817C151.023 173.817 151.284 173.844 151.58 173.9C151.878 173.952 152.166 174.061 152.443 174.228C152.723 174.394 152.956 174.645 153.14 174.98C153.325 175.316 153.417 175.765 153.417 176.328V181H152.328V180.04H152.272C152.199 180.194 152.075 180.358 151.903 180.534C151.731 180.709 151.501 180.858 151.215 180.982C150.929 181.105 150.58 181.166 150.167 181.166ZM150.333 180.188C150.764 180.188 151.127 180.103 151.423 179.934C151.721 179.764 151.946 179.546 152.097 179.278C152.251 179.01 152.328 178.729 152.328 178.433V177.436C152.282 177.491 152.18 177.542 152.023 177.588C151.869 177.632 151.691 177.67 151.488 177.704C151.288 177.735 151.092 177.762 150.901 177.787C150.714 177.808 150.561 177.827 150.444 177.842C150.161 177.879 149.896 177.939 149.65 178.022C149.407 178.102 149.21 178.224 149.059 178.387C148.912 178.547 148.838 178.766 148.838 179.043C148.838 179.421 148.978 179.707 149.258 179.901C149.541 180.092 149.9 180.188 150.333 180.188ZM159.062 183.659V173.909H160.115V175.036H160.244C160.324 174.912 160.435 174.755 160.576 174.565C160.721 174.371 160.927 174.198 161.195 174.048C161.466 173.894 161.832 173.817 162.294 173.817C162.891 173.817 163.417 173.966 163.872 174.265C164.328 174.563 164.683 174.986 164.939 175.534C165.194 176.082 165.322 176.728 165.322 177.473C165.322 178.224 165.194 178.875 164.939 179.426C164.683 179.974 164.329 180.398 163.877 180.7C163.425 180.998 162.903 181.148 162.312 181.148C161.857 181.148 161.492 181.072 161.218 180.922C160.944 180.768 160.733 180.594 160.585 180.4C160.438 180.203 160.324 180.04 160.244 179.911H160.152V183.659H159.062ZM160.133 177.455C160.133 177.99 160.212 178.462 160.369 178.872C160.525 179.278 160.755 179.597 161.056 179.827C161.358 180.055 161.727 180.169 162.164 180.169C162.62 180.169 163 180.049 163.305 179.809C163.612 179.566 163.843 179.24 163.997 178.83C164.154 178.418 164.233 177.959 164.233 177.455C164.233 176.956 164.156 176.507 164.002 176.107C163.851 175.703 163.622 175.385 163.314 175.151C163.009 174.914 162.626 174.795 162.164 174.795C161.721 174.795 161.349 174.908 161.047 175.132C160.746 175.354 160.518 175.665 160.364 176.065C160.21 176.462 160.133 176.925 160.133 177.455ZM169.071 181.166C168.621 181.166 168.213 181.082 167.847 180.912C167.481 180.74 167.19 180.492 166.975 180.169C166.759 179.843 166.652 179.449 166.652 178.987C166.652 178.581 166.732 178.252 166.892 177.999C167.052 177.744 167.266 177.544 167.533 177.399C167.801 177.254 168.097 177.147 168.42 177.076C168.746 177.002 169.074 176.944 169.403 176.901C169.834 176.845 170.183 176.804 170.451 176.776C170.722 176.745 170.919 176.694 171.042 176.624C171.168 176.553 171.231 176.43 171.231 176.254V176.217C171.231 175.762 171.106 175.408 170.857 175.156C170.611 174.903 170.237 174.777 169.735 174.777C169.215 174.777 168.807 174.891 168.512 175.119C168.217 175.346 168.009 175.589 167.889 175.848L166.855 175.479C167.039 175.048 167.286 174.712 167.593 174.472C167.904 174.229 168.243 174.06 168.609 173.964C168.978 173.866 169.341 173.817 169.698 173.817C169.926 173.817 170.188 173.844 170.483 173.9C170.782 173.952 171.07 174.061 171.347 174.228C171.627 174.394 171.859 174.645 172.044 174.98C172.228 175.316 172.321 175.765 172.321 176.328V181H171.231V180.04H171.176C171.102 180.194 170.979 180.358 170.806 180.534C170.634 180.709 170.405 180.858 170.119 180.982C169.832 181.105 169.483 181.166 169.071 181.166ZM169.237 180.188C169.668 180.188 170.031 180.103 170.326 179.934C170.625 179.764 170.849 179.546 171 179.278C171.154 179.01 171.231 178.729 171.231 178.433V177.436C171.185 177.491 171.083 177.542 170.926 177.588C170.773 177.632 170.594 177.67 170.391 177.704C170.191 177.735 169.995 177.762 169.805 177.787C169.617 177.808 169.465 177.827 169.348 177.842C169.064 177.879 168.8 177.939 168.554 178.022C168.31 178.102 168.113 178.224 167.963 178.387C167.815 178.547 167.741 178.766 167.741 179.043C167.741 179.421 167.881 179.707 168.161 179.901C168.444 180.092 168.803 180.188 169.237 180.188ZM174.309 181V173.909H175.362V174.98H175.436C175.565 174.629 175.799 174.345 176.137 174.126C176.476 173.908 176.857 173.798 177.282 173.798C177.362 173.798 177.462 173.8 177.582 173.803C177.702 173.806 177.793 173.811 177.855 173.817V174.925C177.818 174.915 177.733 174.902 177.601 174.883C177.471 174.862 177.334 174.851 177.19 174.851C176.845 174.851 176.537 174.923 176.267 175.068C175.999 175.209 175.786 175.406 175.629 175.659C175.476 175.908 175.399 176.193 175.399 176.513V181H174.309ZM181.233 181.166C180.783 181.166 180.376 181.082 180.009 180.912C179.643 180.74 179.352 180.492 179.137 180.169C178.921 179.843 178.814 179.449 178.814 178.987C178.814 178.581 178.894 178.252 179.054 177.999C179.214 177.744 179.428 177.544 179.695 177.399C179.963 177.254 180.259 177.147 180.582 177.076C180.908 177.002 181.236 176.944 181.565 176.901C181.996 176.845 182.345 176.804 182.613 176.776C182.884 176.745 183.081 176.694 183.204 176.624C183.33 176.553 183.393 176.43 183.393 176.254V176.217C183.393 175.762 183.269 175.408 183.019 175.156C182.773 174.903 182.399 174.777 181.897 174.777C181.377 174.777 180.97 174.891 180.674 175.119C180.379 175.346 180.171 175.589 180.051 175.848L179.017 175.479C179.201 175.048 179.448 174.712 179.755 174.472C180.066 174.229 180.405 174.06 180.771 173.964C181.14 173.866 181.504 173.817 181.861 173.817C182.088 173.817 182.35 173.844 182.645 173.9C182.944 173.952 183.232 174.061 183.509 174.228C183.789 174.394 184.021 174.645 184.206 174.98C184.39 175.316 184.483 175.765 184.483 176.328V181H183.393V180.04H183.338C183.264 180.194 183.141 180.358 182.968 180.534C182.796 180.709 182.567 180.858 182.281 180.982C181.994 181.105 181.645 181.166 181.233 181.166ZM181.399 180.188C181.83 180.188 182.193 180.103 182.488 179.934C182.787 179.764 183.012 179.546 183.162 179.278C183.316 179.01 183.393 178.729 183.393 178.433V177.436C183.347 177.491 183.245 177.542 183.089 177.588C182.935 177.632 182.756 177.67 182.553 177.704C182.353 177.735 182.158 177.762 181.967 177.787C181.779 177.808 181.627 177.827 181.51 177.842C181.227 177.879 180.962 177.939 180.716 178.022C180.473 178.102 180.276 178.224 180.125 178.387C179.977 178.547 179.903 178.766 179.903 179.043C179.903 179.421 180.043 179.707 180.323 179.901C180.606 180.092 180.965 180.188 181.399 180.188ZM193.285 173.909V174.832H189.463V173.909H193.285ZM190.608 181V172.93C190.608 172.524 190.703 172.186 190.894 171.915C191.085 171.644 191.332 171.441 191.637 171.305C191.942 171.17 192.263 171.102 192.602 171.102C192.87 171.102 193.088 171.124 193.257 171.167C193.427 171.21 193.553 171.25 193.636 171.287L193.322 172.229C193.267 172.21 193.19 172.187 193.091 172.159C192.996 172.132 192.87 172.118 192.713 172.118C192.353 172.118 192.093 172.209 191.933 172.39C191.776 172.572 191.697 172.838 191.697 173.189V181H190.608ZM196.696 181.166C196.246 181.166 195.838 181.082 195.472 180.912C195.106 180.74 194.815 180.492 194.6 180.169C194.384 179.843 194.277 179.449 194.277 178.987C194.277 178.581 194.357 178.252 194.517 177.999C194.677 177.744 194.891 177.544 195.158 177.399C195.426 177.254 195.722 177.147 196.045 177.076C196.371 177.002 196.699 176.944 197.028 176.901C197.459 176.845 197.808 176.804 198.076 176.776C198.347 176.745 198.544 176.694 198.667 176.624C198.793 176.553 198.856 176.43 198.856 176.254V176.217C198.856 175.762 198.731 175.408 198.482 175.156C198.236 174.903 197.862 174.777 197.36 174.777C196.84 174.777 196.432 174.891 196.137 175.119C195.842 175.346 195.634 175.589 195.514 175.848L194.48 175.479C194.664 175.048 194.911 174.712 195.218 174.472C195.529 174.229 195.868 174.06 196.234 173.964C196.603 173.866 196.966 173.817 197.323 173.817C197.551 173.817 197.813 173.844 198.108 173.9C198.407 173.952 198.695 174.061 198.972 174.228C199.252 174.394 199.484 174.645 199.669 174.98C199.853 175.316 199.946 175.765 199.946 176.328V181H198.856V180.04H198.801C198.727 180.194 198.604 180.358 198.431 180.534C198.259 180.709 198.03 180.858 197.744 180.982C197.457 181.105 197.108 181.166 196.696 181.166ZM196.862 180.188C197.293 180.188 197.656 180.103 197.951 179.934C198.25 179.764 198.474 179.546 198.625 179.278C198.779 179.01 198.856 178.729 198.856 178.433V177.436C198.81 177.491 198.708 177.542 198.551 177.588C198.398 177.632 198.219 177.67 198.016 177.704C197.816 177.735 197.62 177.762 197.43 177.787C197.242 177.808 197.09 177.827 196.973 177.842C196.689 177.879 196.425 177.939 196.179 178.022C195.935 178.102 195.738 178.224 195.588 178.387C195.44 178.547 195.366 178.766 195.366 179.043C195.366 179.421 195.506 179.707 195.786 179.901C196.069 180.092 196.428 180.188 196.862 180.188ZM201.731 181V180.169L205.757 174.999V174.925H201.86V173.909H207.16V174.777L203.245 179.911V179.984H207.289V181H201.731ZM211.737 181.148C211.054 181.148 210.465 180.997 209.969 180.695C209.477 180.391 209.097 179.966 208.829 179.421C208.564 178.873 208.432 178.236 208.432 177.51C208.432 176.784 208.564 176.143 208.829 175.589C209.097 175.032 209.469 174.598 209.946 174.288C210.426 173.974 210.986 173.817 211.626 173.817C211.996 173.817 212.36 173.878 212.721 174.001C213.081 174.125 213.408 174.325 213.704 174.602C213.999 174.875 214.235 175.239 214.41 175.691C214.586 176.143 214.673 176.701 214.673 177.362V177.824H209.207V176.882H213.565C213.565 176.482 213.485 176.125 213.325 175.811C213.168 175.497 212.944 175.249 212.651 175.068C212.362 174.886 212.02 174.795 211.626 174.795C211.192 174.795 210.817 174.903 210.5 175.119C210.186 175.331 209.944 175.608 209.775 175.95C209.606 176.291 209.521 176.657 209.521 177.048V177.676C209.521 178.212 209.614 178.666 209.798 179.038C209.986 179.407 210.246 179.689 210.578 179.883C210.911 180.074 211.297 180.169 211.737 180.169C212.023 180.169 212.282 180.129 212.513 180.049C212.747 179.966 212.948 179.843 213.118 179.68C213.287 179.513 213.418 179.307 213.51 179.061L214.562 179.357C214.452 179.714 214.266 180.027 214.004 180.298C213.742 180.566 213.419 180.775 213.034 180.926C212.65 181.074 212.217 181.148 211.737 181.148ZM216.331 181V173.909H217.383V174.98H217.457C217.586 174.629 217.82 174.345 218.159 174.126C218.497 173.908 218.879 173.798 219.304 173.798C219.384 173.798 219.484 173.8 219.604 173.803C219.724 173.806 219.815 173.811 219.876 173.817V174.925C219.839 174.915 219.754 174.902 219.622 174.883C219.493 174.862 219.356 174.851 219.211 174.851C218.867 174.851 218.559 174.923 218.288 175.068C218.02 175.209 217.808 175.406 217.651 175.659C217.497 175.908 217.42 176.193 217.42 176.513V181H216.331ZM51.2563 189.909L48.6342 197H47.5262L44.9041 189.909H46.0859L48.0433 195.56H48.1171L50.0745 189.909H51.2563ZM55.4135 197.148C54.7302 197.148 54.1409 196.997 53.6454 196.695C53.1529 196.391 52.7729 195.966 52.5051 195.421C52.2404 194.873 52.1081 194.236 52.1081 193.51C52.1081 192.784 52.2404 192.143 52.5051 191.589C52.7729 191.032 53.1453 190.598 53.6223 190.288C54.1024 189.974 54.6625 189.817 55.3027 189.817C55.672 189.817 56.0367 189.878 56.3968 190.001C56.7569 190.125 57.0846 190.325 57.3801 190.602C57.6756 190.875 57.911 191.239 58.0864 191.691C58.2619 192.143 58.3496 192.701 58.3496 193.362V193.824H52.8837V192.882H57.2416C57.2416 192.482 57.1616 192.125 57.0016 191.811C56.8446 191.497 56.6199 191.249 56.3275 191.068C56.0382 190.886 55.6966 190.795 55.3027 190.795C54.8687 190.795 54.4933 190.903 54.1763 191.119C53.8623 191.331 53.6208 191.608 53.4515 191.95C53.2822 192.291 53.1976 192.657 53.1976 193.048V193.676C53.1976 194.212 53.2899 194.666 53.4746 195.038C53.6623 195.407 53.9224 195.689 54.2547 195.883C54.5871 196.074 54.9734 196.169 55.4135 196.169C55.6997 196.169 55.9582 196.129 56.1891 196.049C56.423 195.966 56.6245 195.843 56.7938 195.68C56.9631 195.513 57.0939 195.307 57.1862 195.061L58.2388 195.357C58.128 195.714 57.9418 196.027 57.6802 196.298C57.4186 196.566 57.0954 196.775 56.7107 196.926C56.326 197.074 55.8936 197.148 55.4135 197.148ZM60.0069 197V189.909H61.0594V190.98H61.1333C61.2626 190.629 61.4965 190.345 61.835 190.126C62.1735 189.908 62.5552 189.798 62.9799 189.798C63.0599 189.798 63.1599 189.8 63.28 189.803C63.4 189.806 63.4908 189.811 63.5523 189.817V190.925C63.5154 190.915 63.4308 190.902 63.2984 190.883C63.1692 190.862 63.0322 190.851 62.8876 190.851C62.5429 190.851 62.2351 190.923 61.9643 191.068C61.6965 191.209 61.4842 191.406 61.3272 191.659C61.1733 191.908 61.0964 192.193 61.0964 192.513V197H60.0069ZM69.8665 191.497L68.8878 191.774C68.8263 191.611 68.7355 191.453 68.6155 191.299C68.4985 191.142 68.3385 191.012 68.1353 190.911C67.9322 190.809 67.6722 190.759 67.3552 190.759C66.9212 190.759 66.5596 190.859 66.2703 191.059C65.9841 191.256 65.841 191.506 65.841 191.811C65.841 192.082 65.9394 192.296 66.1364 192.453C66.3334 192.61 66.6411 192.741 67.0597 192.845L68.1123 193.104C68.7463 193.258 69.2187 193.493 69.5295 193.81C69.8404 194.124 69.9958 194.529 69.9958 195.024C69.9958 195.43 69.8788 195.794 69.6449 196.114C69.4141 196.434 69.091 196.686 68.6755 196.871C68.26 197.055 67.7768 197.148 67.2259 197.148C66.5026 197.148 65.904 196.991 65.4301 196.677C64.9561 196.363 64.6561 195.904 64.5299 195.301L65.564 195.043C65.6624 195.424 65.8486 195.71 66.1226 195.901C66.3995 196.092 66.7612 196.188 67.2074 196.188C67.7152 196.188 68.1184 196.08 68.4169 195.864C68.7186 195.646 68.8694 195.384 68.8694 195.08C68.8694 194.833 68.7832 194.627 68.6108 194.461C68.4385 194.292 68.1738 194.165 67.8168 194.082L66.635 193.805C65.9856 193.652 65.5086 193.413 65.2039 193.09C64.9023 192.764 64.7515 192.356 64.7515 191.866C64.7515 191.466 64.8638 191.112 65.0885 190.805C65.3162 190.497 65.6255 190.255 66.0164 190.08C66.4103 189.904 66.8566 189.817 67.3552 189.817C68.0569 189.817 68.6078 189.971 69.0079 190.278C69.411 190.586 69.6972 190.992 69.8665 191.497ZM71.6358 197V189.909H72.7253V197H71.6358ZM72.1898 188.727C71.9774 188.727 71.7943 188.655 71.6404 188.51C71.4896 188.366 71.4142 188.192 71.4142 187.989C71.4142 187.786 71.4896 187.612 71.6404 187.467C71.7943 187.322 71.9774 187.25 72.1898 187.25C72.4021 187.25 72.5837 187.322 72.7345 187.467C72.8884 187.612 72.9653 187.786 72.9653 187.989C72.9653 188.192 72.8884 188.366 72.7345 188.51C72.5837 188.655 72.4021 188.727 72.1898 188.727ZM77.6014 197.148C76.9613 197.148 76.3996 196.995 75.9164 196.691C75.4363 196.386 75.0608 195.96 74.79 195.412C74.5222 194.864 74.3884 194.224 74.3884 193.491C74.3884 192.753 74.5222 192.108 74.79 191.557C75.0608 191.006 75.4363 190.578 75.9164 190.274C76.3996 189.969 76.9613 189.817 77.6014 189.817C78.2416 189.817 78.8017 189.969 79.2818 190.274C79.765 190.578 80.1405 191.006 80.4082 191.557C80.6791 192.108 80.8145 192.753 80.8145 193.491C80.8145 194.224 80.6791 194.864 80.4082 195.412C80.1405 195.96 79.765 196.386 79.2818 196.691C78.8017 196.995 78.2416 197.148 77.6014 197.148ZM77.6014 196.169C78.0877 196.169 78.4878 196.044 78.8017 195.795C79.1156 195.546 79.348 195.218 79.4988 194.812C79.6496 194.406 79.725 193.965 79.725 193.491C79.725 193.018 79.6496 192.576 79.4988 192.167C79.348 191.757 79.1156 191.426 78.8017 191.174C78.4878 190.922 78.0877 190.795 77.6014 190.795C77.1152 190.795 76.7151 190.922 76.4011 191.174C76.0872 191.426 75.8549 191.757 75.7041 192.167C75.5533 192.576 75.4778 193.018 75.4778 193.491C75.4778 193.965 75.5533 194.406 75.7041 194.812C75.8549 195.218 76.0872 195.546 76.4011 195.795C76.7151 196.044 77.1152 196.169 77.6014 196.169ZM83.5671 192.734V197H82.4776V189.909H83.5301V191.017H83.6225C83.7887 190.657 84.041 190.368 84.3796 190.149C84.7181 189.928 85.1551 189.817 85.6907 189.817C86.1708 189.817 86.5909 189.915 86.9509 190.112C87.311 190.306 87.5911 190.602 87.7911 190.999C87.9912 191.393 88.0912 191.891 88.0912 192.494V197H87.0017V192.568C87.0017 192.011 86.8571 191.577 86.5678 191.266C86.2785 190.952 85.8815 190.795 85.3767 190.795C85.029 190.795 84.7181 190.871 84.4442 191.022C84.1734 191.172 83.9595 191.393 83.8025 191.682C83.6456 191.971 83.5671 192.322 83.5671 192.734ZM92.1687 197.166C91.7194 197.166 91.3116 197.082 90.9454 196.912C90.5791 196.74 90.2883 196.492 90.0728 196.169C89.8574 195.843 89.7497 195.449 89.7497 194.987C89.7497 194.581 89.8297 194.252 89.9897 193.999C90.1498 193.744 90.3637 193.544 90.6314 193.399C90.8992 193.254 91.1946 193.147 91.5178 193.076C91.844 193.002 92.1718 192.944 92.5011 192.901C92.932 192.845 93.2813 192.804 93.549 192.776C93.8199 192.745 94.0169 192.694 94.14 192.624C94.2661 192.553 94.3292 192.43 94.3292 192.254V192.217C94.3292 191.762 94.2046 191.408 93.9553 191.156C93.7091 190.903 93.3352 190.777 92.8335 190.777C92.3134 190.777 91.9056 190.891 91.6101 191.119C91.3147 191.346 91.1069 191.589 90.9869 191.848L89.9528 191.479C90.1375 191.048 90.3837 190.712 90.6914 190.472C91.0023 190.229 91.3408 190.06 91.7071 189.964C92.0764 189.866 92.4396 189.817 92.7966 189.817C93.0243 189.817 93.2859 189.844 93.5814 189.9C93.8799 189.952 94.1677 190.061 94.4446 190.228C94.7247 190.394 94.9571 190.645 95.1417 190.98C95.3264 191.316 95.4187 191.765 95.4187 192.328V197H94.3292V196.04H94.2738C94.2 196.194 94.0769 196.358 93.9045 196.534C93.7322 196.709 93.5029 196.858 93.2167 196.982C92.9304 197.105 92.5811 197.166 92.1687 197.166ZM92.3349 196.188C92.7658 196.188 93.1289 196.103 93.4244 195.934C93.7229 195.764 93.9476 195.546 94.0984 195.278C94.2523 195.01 94.3292 194.729 94.3292 194.433V193.436C94.2831 193.491 94.1815 193.542 94.0245 193.588C93.8707 193.632 93.6922 193.67 93.489 193.704C93.289 193.735 93.0936 193.762 92.9027 193.787C92.715 193.808 92.5627 193.827 92.4457 193.842C92.1626 193.879 91.8979 193.939 91.6517 194.022C91.4085 194.102 91.2116 194.224 91.0608 194.387C90.913 194.547 90.8392 194.766 90.8392 195.043C90.8392 195.421 90.9792 195.707 91.2593 195.901C91.5424 196.092 91.901 196.188 92.3349 196.188ZM97.4073 197V189.909H98.4598V191.017H98.5522C98.6999 190.638 98.9384 190.345 99.2677 190.135C99.597 189.923 99.9925 189.817 100.454 189.817C100.922 189.817 101.311 189.923 101.622 190.135C101.936 190.345 102.181 190.638 102.356 191.017H102.43C102.612 190.651 102.884 190.36 103.247 190.145C103.61 189.926 104.046 189.817 104.554 189.817C105.188 189.817 105.706 190.015 106.109 190.412C106.513 190.806 106.714 191.42 106.714 192.254V197H105.625V192.254C105.625 191.731 105.481 191.357 105.195 191.132C104.909 190.908 104.572 190.795 104.184 190.795C103.686 190.795 103.299 190.946 103.026 191.248C102.752 191.546 102.615 191.925 102.615 192.384V197H101.507V192.143C101.507 191.74 101.376 191.416 101.114 191.169C100.853 190.92 100.516 190.795 100.103 190.795C99.8201 190.795 99.5555 190.871 99.3093 191.022C99.0661 191.172 98.8692 191.382 98.7183 191.65C98.5706 191.914 98.4968 192.22 98.4968 192.568V197H97.4073ZM111.679 197.148C110.996 197.148 110.407 196.997 109.911 196.695C109.419 196.391 109.038 195.966 108.771 195.421C108.506 194.873 108.374 194.236 108.374 193.51C108.374 192.784 108.506 192.143 108.771 191.589C109.038 191.032 109.411 190.598 109.888 190.288C110.368 189.974 110.928 189.817 111.568 189.817C111.938 189.817 112.302 189.878 112.662 190.001C113.023 190.125 113.35 190.325 113.646 190.602C113.941 190.875 114.177 191.239 114.352 191.691C114.527 192.143 114.615 192.701 114.615 193.362V193.824H109.149V192.882H113.507C113.507 192.482 113.427 192.125 113.267 191.811C113.11 191.497 112.886 191.249 112.593 191.068C112.304 190.886 111.962 190.795 111.568 190.795C111.134 190.795 110.759 190.903 110.442 191.119C110.128 191.331 109.886 191.608 109.717 191.95C109.548 192.291 109.463 192.657 109.463 193.048V193.676C109.463 194.212 109.556 194.666 109.74 195.038C109.928 195.407 110.188 195.689 110.52 195.883C110.853 196.074 111.239 196.169 111.679 196.169C111.965 196.169 112.224 196.129 112.455 196.049C112.689 195.966 112.89 195.843 113.059 195.68C113.229 195.513 113.36 195.307 113.452 195.061L114.504 195.357C114.394 195.714 114.207 196.027 113.946 196.298C113.684 196.566 113.361 196.775 112.976 196.926C112.592 197.074 112.159 197.148 111.679 197.148ZM117.362 192.734V197H116.273V189.909H117.325V191.017H117.417C117.584 190.657 117.836 190.368 118.174 190.149C118.513 189.928 118.95 189.817 119.486 189.817C119.966 189.817 120.386 189.915 120.746 190.112C121.106 190.306 121.386 190.602 121.586 190.999C121.786 191.393 121.886 191.891 121.886 192.494V197H120.797V192.568C120.797 192.011 120.652 191.577 120.363 191.266C120.073 190.952 119.676 190.795 119.172 190.795C118.824 190.795 118.513 190.871 118.239 191.022C117.968 191.172 117.754 191.393 117.597 191.682C117.44 191.971 117.362 192.322 117.362 192.734ZM126.961 189.909V190.832H123.286V189.909H126.961ZM124.357 188.21H125.447V194.969C125.447 195.277 125.491 195.507 125.58 195.661C125.673 195.812 125.79 195.914 125.931 195.966C126.076 196.015 126.228 196.04 126.388 196.04C126.508 196.04 126.607 196.034 126.684 196.021C126.761 196.006 126.822 195.994 126.868 195.984L127.09 196.963C127.016 196.991 126.913 197.018 126.781 197.046C126.648 197.077 126.481 197.092 126.278 197.092C125.97 197.092 125.668 197.026 125.373 196.894C125.08 196.761 124.837 196.56 124.643 196.289C124.453 196.018 124.357 195.677 124.357 195.264V188.21ZM131.496 197.148C130.813 197.148 130.224 196.997 129.728 196.695C129.236 196.391 128.856 195.966 128.588 195.421C128.323 194.873 128.191 194.236 128.191 193.51C128.191 192.784 128.323 192.143 128.588 191.589C128.856 191.032 129.228 190.598 129.705 190.288C130.185 189.974 130.746 189.817 131.386 189.817C131.755 189.817 132.12 189.878 132.48 190.001C132.84 190.125 133.168 190.325 133.463 190.602C133.759 190.875 133.994 191.239 134.169 191.691C134.345 192.143 134.433 192.701 134.433 193.362V193.824H128.967V192.882H133.325C133.325 192.482 133.245 192.125 133.085 191.811C132.928 191.497 132.703 191.249 132.411 191.068C132.121 190.886 131.78 190.795 131.386 190.795C130.952 190.795 130.576 190.903 130.259 191.119C129.945 191.331 129.704 191.608 129.534 191.95C129.365 192.291 129.281 192.657 129.281 193.048V193.676C129.281 194.212 129.373 194.666 129.558 195.038C129.745 195.407 130.005 195.689 130.338 195.883C130.67 196.074 131.056 196.169 131.496 196.169C131.783 196.169 132.041 196.129 132.272 196.049C132.506 195.966 132.708 195.843 132.877 195.68C133.046 195.513 133.177 195.307 133.269 195.061L134.322 195.357C134.211 195.714 134.025 196.027 133.763 196.298C133.502 196.566 133.178 196.775 132.794 196.926C132.409 197.074 131.977 197.148 131.496 197.148ZM142.424 197.148C141.833 197.148 141.311 196.998 140.859 196.7C140.406 196.398 140.052 195.974 139.797 195.426C139.541 194.875 139.414 194.224 139.414 193.473C139.414 192.728 139.541 192.082 139.797 191.534C140.052 190.986 140.408 190.563 140.863 190.265C141.319 189.966 141.845 189.817 142.442 189.817C142.904 189.817 143.269 189.894 143.536 190.048C143.807 190.198 144.013 190.371 144.155 190.565C144.3 190.755 144.412 190.912 144.492 191.036H144.584V187.545H145.674V197H144.621V195.911H144.492C144.412 196.04 144.298 196.203 144.15 196.4C144.003 196.594 143.792 196.768 143.518 196.922C143.244 197.072 142.879 197.148 142.424 197.148ZM142.571 196.169C143.008 196.169 143.378 196.055 143.679 195.827C143.981 195.597 144.21 195.278 144.367 194.872C144.524 194.462 144.603 193.99 144.603 193.455C144.603 192.925 144.526 192.462 144.372 192.065C144.218 191.665 143.99 191.354 143.689 191.132C143.387 190.908 143.015 190.795 142.571 190.795C142.11 190.795 141.725 190.914 141.417 191.151C141.113 191.385 140.883 191.703 140.729 192.107C140.579 192.507 140.503 192.956 140.503 193.455C140.503 193.959 140.58 194.418 140.734 194.83C140.891 195.24 141.122 195.566 141.427 195.809C141.734 196.049 142.116 196.169 142.571 196.169ZM150.793 197.148C150.11 197.148 149.521 196.997 149.025 196.695C148.533 196.391 148.153 195.966 147.885 195.421C147.62 194.873 147.488 194.236 147.488 193.51C147.488 192.784 147.62 192.143 147.885 191.589C148.153 191.032 148.525 190.598 149.002 190.288C149.482 189.974 150.042 189.817 150.683 189.817C151.052 189.817 151.417 189.878 151.777 190.001C152.137 190.125 152.465 190.325 152.76 190.602C153.055 190.875 153.291 191.239 153.466 191.691C153.642 192.143 153.729 192.701 153.729 193.362V193.824H148.264V192.882H152.621C152.621 192.482 152.541 192.125 152.381 191.811C152.224 191.497 152 191.249 151.707 191.068C151.418 190.886 151.077 190.795 150.683 190.795C150.249 190.795 149.873 190.903 149.556 191.119C149.242 191.331 149.001 191.608 148.831 191.95C148.662 192.291 148.577 192.657 148.577 193.048V193.676C148.577 194.212 148.67 194.666 148.854 195.038C149.042 195.407 149.302 195.689 149.635 195.883C149.967 196.074 150.353 196.169 150.793 196.169C151.08 196.169 151.338 196.129 151.569 196.049C151.803 195.966 152.004 195.843 152.174 195.68C152.343 195.513 152.474 195.307 152.566 195.061L153.619 195.357C153.508 195.714 153.322 196.027 153.06 196.298C152.798 196.566 152.475 196.775 152.091 196.926C151.706 197.074 151.273 197.148 150.793 197.148ZM161.924 197.148C161.259 197.148 160.686 196.991 160.206 196.677C159.726 196.363 159.357 195.931 159.098 195.38C158.84 194.829 158.711 194.199 158.711 193.491C158.711 192.771 158.843 192.136 159.108 191.585C159.375 191.031 159.748 190.598 160.225 190.288C160.705 189.974 161.265 189.817 161.905 189.817C162.404 189.817 162.853 189.909 163.253 190.094C163.653 190.278 163.981 190.537 164.237 190.869C164.492 191.202 164.65 191.589 164.712 192.033H163.623C163.539 191.71 163.355 191.423 163.069 191.174C162.785 190.922 162.404 190.795 161.924 190.795C161.499 190.795 161.127 190.906 160.807 191.128C160.49 191.346 160.242 191.656 160.063 192.056C159.888 192.453 159.8 192.919 159.8 193.455C159.8 194.002 159.886 194.479 160.059 194.886C160.234 195.292 160.48 195.607 160.797 195.832C161.117 196.057 161.493 196.169 161.924 196.169C162.207 196.169 162.464 196.12 162.695 196.021C162.925 195.923 163.121 195.781 163.281 195.597C163.441 195.412 163.555 195.19 163.623 194.932H164.712C164.65 195.35 164.498 195.727 164.255 196.063C164.015 196.395 163.696 196.66 163.299 196.857C162.905 197.051 162.447 197.148 161.924 197.148ZM169.185 197.148C168.545 197.148 167.984 196.995 167.5 196.691C167.02 196.386 166.645 195.96 166.374 195.412C166.106 194.864 165.972 194.224 165.972 193.491C165.972 192.753 166.106 192.108 166.374 191.557C166.645 191.006 167.02 190.578 167.5 190.274C167.984 189.969 168.545 189.817 169.185 189.817C169.826 189.817 170.386 189.969 170.866 190.274C171.349 190.578 171.724 191.006 171.992 191.557C172.263 192.108 172.398 192.753 172.398 193.491C172.398 194.224 172.263 194.864 171.992 195.412C171.724 195.96 171.349 196.386 170.866 196.691C170.386 196.995 169.826 197.148 169.185 197.148ZM169.185 196.169C169.672 196.169 170.072 196.044 170.386 195.795C170.7 195.546 170.932 195.218 171.083 194.812C171.234 194.406 171.309 193.965 171.309 193.491C171.309 193.018 171.234 192.576 171.083 192.167C170.932 191.757 170.7 191.426 170.386 191.174C170.072 190.922 169.672 190.795 169.185 190.795C168.699 190.795 168.299 190.922 167.985 191.174C167.671 191.426 167.439 191.757 167.288 192.167C167.137 192.576 167.062 193.018 167.062 193.491C167.062 193.965 167.137 194.406 167.288 194.812C167.439 195.218 167.671 195.546 167.985 195.795C168.299 196.044 168.699 196.169 169.185 196.169ZM168.687 188.949L169.813 186.807H171.087L169.647 188.949H168.687ZM176.739 197.148C176.148 197.148 175.627 196.998 175.174 196.7C174.722 196.398 174.368 195.974 174.112 195.426C173.857 194.875 173.729 194.224 173.729 193.473C173.729 192.728 173.857 192.082 174.112 191.534C174.368 190.986 174.723 190.563 175.179 190.265C175.634 189.966 176.161 189.817 176.758 189.817C177.219 189.817 177.584 189.894 177.852 190.048C178.123 190.198 178.329 190.371 178.47 190.565C178.615 190.755 178.727 190.912 178.807 191.036H178.9V187.545H179.989V197H178.937V195.911H178.807C178.727 196.04 178.613 196.203 178.466 196.4C178.318 196.594 178.107 196.768 177.833 196.922C177.559 197.072 177.195 197.148 176.739 197.148ZM176.887 196.169C177.324 196.169 177.693 196.055 177.995 195.827C178.296 195.597 178.526 195.278 178.683 194.872C178.84 194.462 178.918 193.99 178.918 193.455C178.918 192.925 178.841 192.462 178.687 192.065C178.533 191.665 178.306 191.354 178.004 191.132C177.702 190.908 177.33 190.795 176.887 190.795C176.425 190.795 176.04 190.914 175.733 191.151C175.428 191.385 175.199 191.703 175.045 192.107C174.894 192.507 174.819 192.956 174.819 193.455C174.819 193.959 174.896 194.418 175.049 194.83C175.206 195.24 175.437 195.566 175.742 195.809C176.05 196.049 176.431 196.169 176.887 196.169ZM182.136 197V189.909H183.225V197H182.136ZM182.69 188.727C182.477 188.727 182.294 188.655 182.14 188.51C181.99 188.366 181.914 188.192 181.914 187.989C181.914 187.786 181.99 187.612 182.14 187.467C182.294 187.322 182.477 187.25 182.69 187.25C182.902 187.25 183.084 187.322 183.235 187.467C183.388 187.612 183.465 187.786 183.465 187.989C183.465 188.192 183.388 188.366 183.235 188.51C183.084 188.655 182.902 188.727 182.69 188.727ZM188.083 199.807C187.557 199.807 187.104 199.739 186.726 199.604C186.347 199.471 186.032 199.296 185.779 199.077C185.53 198.862 185.332 198.631 185.184 198.385L186.052 197.776C186.15 197.905 186.275 198.053 186.426 198.219C186.576 198.388 186.783 198.534 187.044 198.657C187.309 198.783 187.655 198.847 188.083 198.847C188.655 198.847 189.128 198.708 189.5 198.431C189.873 198.154 190.059 197.72 190.059 197.129V195.689H189.966C189.886 195.818 189.773 195.978 189.625 196.169C189.48 196.357 189.271 196.525 188.997 196.672C188.726 196.817 188.36 196.889 187.898 196.889C187.326 196.889 186.812 196.754 186.356 196.483C185.904 196.212 185.545 195.818 185.281 195.301C185.019 194.784 184.888 194.156 184.888 193.418C184.888 192.691 185.016 192.059 185.272 191.52C185.527 190.979 185.882 190.56 186.338 190.265C186.793 189.966 187.32 189.817 187.917 189.817C188.378 189.817 188.745 189.894 189.015 190.048C189.289 190.198 189.499 190.371 189.643 190.565C189.791 190.755 189.905 190.912 189.985 191.036H190.096V189.909H191.148V197.203C191.148 197.812 191.01 198.308 190.733 198.69C190.459 199.074 190.09 199.356 189.625 199.534C189.163 199.716 188.649 199.807 188.083 199.807ZM188.046 195.911C188.483 195.911 188.852 195.81 189.154 195.61C189.456 195.41 189.685 195.123 189.842 194.747C189.999 194.372 190.077 193.922 190.077 193.399C190.077 192.888 190 192.437 189.846 192.047C189.693 191.656 189.465 191.349 189.163 191.128C188.862 190.906 188.489 190.795 188.046 190.795C187.584 190.795 187.2 190.912 186.892 191.146C186.587 191.38 186.358 191.694 186.204 192.088C186.053 192.482 185.978 192.919 185.978 193.399C185.978 193.892 186.055 194.327 186.209 194.706C186.366 195.081 186.596 195.377 186.901 195.592C187.209 195.804 187.591 195.911 188.046 195.911ZM196.023 197.148C195.383 197.148 194.821 196.995 194.338 196.691C193.858 196.386 193.483 195.96 193.212 195.412C192.944 194.864 192.81 194.224 192.81 193.491C192.81 192.753 192.944 192.108 193.212 191.557C193.483 191.006 193.858 190.578 194.338 190.274C194.821 189.969 195.383 189.817 196.023 189.817C196.663 189.817 197.224 189.969 197.704 190.274C198.187 190.578 198.562 191.006 198.83 191.557C199.101 192.108 199.236 192.753 199.236 193.491C199.236 194.224 199.101 194.864 198.83 195.412C198.562 195.96 198.187 196.386 197.704 196.691C197.224 196.995 196.663 197.148 196.023 197.148ZM196.023 196.169C196.51 196.169 196.91 196.044 197.224 195.795C197.538 195.546 197.77 195.218 197.921 194.812C198.071 194.406 198.147 193.965 198.147 193.491C198.147 193.018 198.071 192.576 197.921 192.167C197.77 191.757 197.538 191.426 197.224 191.174C196.91 190.922 196.51 190.795 196.023 190.795C195.537 190.795 195.137 190.922 194.823 191.174C194.509 191.426 194.277 191.757 194.126 192.167C193.975 192.576 193.9 193.018 193.9 193.491C193.9 193.965 193.975 194.406 194.126 194.812C194.277 195.218 194.509 195.546 194.823 195.795C195.137 196.044 195.537 196.169 196.023 196.169ZM201.693 197.074C201.466 197.074 201.27 196.992 201.107 196.829C200.944 196.666 200.863 196.471 200.863 196.243C200.863 196.015 200.944 195.82 201.107 195.657C201.27 195.493 201.466 195.412 201.693 195.412C201.921 195.412 202.117 195.493 202.28 195.657C202.443 195.82 202.524 196.015 202.524 196.243C202.524 196.394 202.486 196.532 202.409 196.658C202.335 196.785 202.235 196.886 202.109 196.963C201.986 197.037 201.847 197.074 201.693 197.074ZM27.8641 213V203.545H31.0587C31.8004 203.545 32.4067 203.679 32.8776 203.947C33.3515 204.212 33.7024 204.57 33.9301 205.023C34.1579 205.475 34.2717 205.98 34.2717 206.537C34.2717 207.094 34.1579 207.6 33.9301 208.056C33.7055 208.511 33.3577 208.874 32.8868 209.145C32.4159 209.413 31.8127 209.547 31.0771 209.547H28.7874V208.531H31.0402C31.548 208.531 31.9558 208.444 32.2636 208.268C32.5713 208.093 32.7945 207.856 32.933 207.557C33.0745 207.256 33.1453 206.915 33.1453 206.537C33.1453 206.158 33.0745 205.82 32.933 205.521C32.7945 205.223 32.5698 204.989 32.259 204.82C31.9481 204.647 31.5357 204.561 31.0217 204.561H29.009V213H27.8641ZM38.8651 213.148C38.1819 213.148 37.5925 212.997 37.097 212.695C36.6046 212.391 36.2245 211.966 35.9568 211.421C35.6921 210.873 35.5597 210.236 35.5597 209.51C35.5597 208.784 35.6921 208.143 35.9568 207.589C36.2245 207.032 36.5969 206.598 37.074 206.288C37.5541 205.974 38.1142 205.817 38.7543 205.817C39.1237 205.817 39.4884 205.878 39.8485 206.001C40.2085 206.125 40.5363 206.325 40.8318 206.602C41.1272 206.875 41.3627 207.239 41.5381 207.691C41.7135 208.143 41.8012 208.701 41.8012 209.362V209.824H36.3353V208.882H40.6933C40.6933 208.482 40.6133 208.125 40.4532 207.811C40.2963 207.497 40.0716 207.249 39.7792 207.068C39.4899 206.886 39.1483 206.795 38.7543 206.795C38.3204 206.795 37.9449 206.903 37.6279 207.119C37.314 207.331 37.0724 207.608 36.9031 207.95C36.7339 208.291 36.6492 208.657 36.6492 209.048V209.676C36.6492 210.212 36.7416 210.666 36.9262 211.038C37.114 211.407 37.374 211.689 37.7064 211.883C38.0388 212.074 38.425 212.169 38.8651 212.169C39.1514 212.169 39.4099 212.129 39.6407 212.049C39.8746 211.966 40.0762 211.843 40.2455 211.68C40.4147 211.513 40.5455 211.307 40.6379 211.061L41.6904 211.357C41.5796 211.714 41.3934 212.027 41.1318 212.298C40.8702 212.566 40.5471 212.775 40.1624 212.926C39.7777 213.074 39.3453 213.148 38.8651 213.148ZM43.4585 213V205.909H44.5111V206.98H44.585C44.7142 206.629 44.9481 206.345 45.2867 206.126C45.6252 205.908 46.0068 205.798 46.4316 205.798C46.5116 205.798 46.6116 205.8 46.7316 205.803C46.8517 205.806 46.9424 205.811 47.004 205.817V206.925C46.9671 206.915 46.8824 206.902 46.7501 206.883C46.6208 206.862 46.4839 206.851 46.3392 206.851C45.9945 206.851 45.6868 206.923 45.4159 207.068C45.1482 207.209 44.9358 207.406 44.7789 207.659C44.625 207.908 44.548 208.193 44.548 208.513V213H43.4585ZM51.8975 205.909V206.832H48.075V205.909H51.8975ZM49.2199 213V204.93C49.2199 204.524 49.3153 204.186 49.5061 203.915C49.6969 203.644 49.9447 203.441 50.2494 203.305C50.5541 203.17 50.8757 203.102 51.2142 203.102C51.482 203.102 51.7005 203.124 51.8698 203.167C52.039 203.21 52.1652 203.25 52.2483 203.287L51.9344 204.229C51.879 204.21 51.8021 204.187 51.7036 204.159C51.6082 204.132 51.482 204.118 51.325 204.118C50.9649 204.118 50.7049 204.209 50.5448 204.39C50.3879 204.572 50.3094 204.838 50.3094 205.189V213H49.2199ZM56.1054 213.148C55.4221 213.148 54.8328 212.997 54.3373 212.695C53.8448 212.391 53.4648 211.966 53.197 211.421C52.9323 210.873 52.8 210.236 52.8 209.51C52.8 208.784 52.9323 208.143 53.197 207.589C53.4648 207.032 53.8371 206.598 54.3142 206.288C54.7943 205.974 55.3544 205.817 55.9946 205.817C56.3639 205.817 56.7286 205.878 57.0887 206.001C57.4488 206.125 57.7765 206.325 58.072 206.602C58.3675 206.875 58.6029 207.239 58.7783 207.691C58.9537 208.143 59.0415 208.701 59.0415 209.362V209.824H53.5755V208.882H57.9335C57.9335 208.482 57.8535 208.125 57.6934 207.811C57.5365 207.497 57.3118 207.249 57.0194 207.068C56.7301 206.886 56.3885 206.795 55.9946 206.795C55.5606 206.795 55.1852 206.903 54.8682 207.119C54.5542 207.331 54.3126 207.608 54.1434 207.95C53.9741 208.291 53.8895 208.657 53.8895 209.048V209.676C53.8895 210.212 53.9818 210.666 54.1665 211.038C54.3542 211.407 54.6143 211.689 54.9466 211.883C55.279 212.074 55.6653 212.169 56.1054 212.169C56.3916 212.169 56.6501 212.129 56.8809 212.049C57.1148 211.966 57.3164 211.843 57.4857 211.68C57.655 211.513 57.7858 211.307 57.8781 211.061L58.9307 211.357C58.8199 211.714 58.6337 212.027 58.3721 212.298C58.1105 212.566 57.7873 212.775 57.4026 212.926C57.0179 213.074 56.5855 213.148 56.1054 213.148ZM60.6988 213V205.909H61.7883V213H60.6988ZM61.2528 204.727C61.0404 204.727 60.8573 204.655 60.7034 204.51C60.5526 204.366 60.4772 204.192 60.4772 203.989C60.4772 203.786 60.5526 203.612 60.7034 203.467C60.8573 203.322 61.0404 203.25 61.2528 203.25C61.4651 203.25 61.6467 203.322 61.7975 203.467C61.9514 203.612 62.0283 203.786 62.0283 203.989C62.0283 204.192 61.9514 204.366 61.7975 204.51C61.6467 204.655 61.4651 204.727 61.2528 204.727ZM66.8675 205.909V206.832H63.1928V205.909H66.8675ZM64.2638 204.21H65.3533V210.969C65.3533 211.277 65.398 211.507 65.4872 211.661C65.5795 211.812 65.6965 211.914 65.8381 211.966C65.9827 212.015 66.1351 212.04 66.2951 212.04C66.4151 212.04 66.5136 212.034 66.5906 212.021C66.6675 212.006 66.729 211.994 66.7752 211.984L66.9968 212.963C66.9229 212.991 66.8198 213.018 66.6875 213.046C66.5552 213.077 66.3874 213.092 66.1843 213.092C65.8765 213.092 65.5749 213.026 65.2795 212.894C64.9871 212.761 64.744 212.56 64.5501 212.289C64.3593 212.018 64.2638 211.677 64.2638 211.264V204.21ZM71.3109 213.148C70.6707 213.148 70.1091 212.995 69.6259 212.691C69.1458 212.386 68.7703 211.96 68.4995 211.412C68.2317 210.864 68.0978 210.224 68.0978 209.491C68.0978 208.753 68.2317 208.108 68.4995 207.557C68.7703 207.006 69.1458 206.578 69.6259 206.274C70.1091 205.969 70.6707 205.817 71.3109 205.817C71.9511 205.817 72.5112 205.969 72.9913 206.274C73.4745 206.578 73.85 207.006 74.1177 207.557C74.3886 208.108 74.524 208.753 74.524 209.491C74.524 210.224 74.3886 210.864 74.1177 211.412C73.85 211.96 73.4745 212.386 72.9913 212.691C72.5112 212.995 71.9511 213.148 71.3109 213.148ZM71.3109 212.169C71.7972 212.169 72.1973 212.044 72.5112 211.795C72.8251 211.546 73.0575 211.218 73.2083 210.812C73.3591 210.406 73.4345 209.965 73.4345 209.491C73.4345 209.018 73.3591 208.576 73.2083 208.167C73.0575 207.757 72.8251 207.426 72.5112 207.174C72.1973 206.922 71.7972 206.795 71.3109 206.795C70.8246 206.795 70.4245 206.922 70.1106 207.174C69.7967 207.426 69.5643 207.757 69.4135 208.167C69.2627 208.576 69.1873 209.018 69.1873 209.491C69.1873 209.965 69.2627 210.406 69.4135 210.812C69.5643 211.218 69.7967 211.546 70.1106 211.795C70.4245 212.044 70.8246 212.169 71.3109 212.169ZM79.8433 215.659V205.909H80.8959V207.036H81.0251C81.1051 206.912 81.2159 206.755 81.3575 206.565C81.5022 206.371 81.7084 206.198 81.9761 206.048C82.247 205.894 82.6132 205.817 83.0748 205.817C83.6719 205.817 84.1982 205.966 84.6537 206.265C85.1092 206.563 85.4646 206.986 85.7201 207.534C85.9755 208.082 86.1032 208.728 86.1032 209.473C86.1032 210.224 85.9755 210.875 85.7201 211.426C85.4646 211.974 85.1107 212.398 84.6583 212.7C84.2059 212.998 83.6842 213.148 83.0933 213.148C82.6378 213.148 82.2731 213.072 81.9992 212.922C81.7253 212.768 81.5145 212.594 81.3667 212.4C81.219 212.203 81.1051 212.04 81.0251 211.911H80.9328V215.659H79.8433ZM80.9143 209.455C80.9143 209.99 80.9928 210.462 81.1498 210.872C81.3067 211.278 81.536 211.597 81.8376 211.827C82.1392 212.055 82.5086 212.169 82.9456 212.169C83.4011 212.169 83.7812 212.049 84.0858 211.809C84.3936 211.566 84.6244 211.24 84.7783 210.83C84.9353 210.418 85.0138 209.959 85.0138 209.455C85.0138 208.956 84.9368 208.507 84.7829 208.107C84.6321 207.703 84.4028 207.385 84.0951 207.151C83.7904 206.914 83.4072 206.795 82.9456 206.795C82.5024 206.795 82.13 206.908 81.8284 207.132C81.5268 207.354 81.299 207.665 81.1452 208.065C80.9913 208.462 80.9143 208.925 80.9143 209.455ZM89.8518 213.166C89.4025 213.166 88.9947 213.082 88.6285 212.912C88.2622 212.74 87.9714 212.492 87.7559 212.169C87.5405 211.843 87.4328 211.449 87.4328 210.987C87.4328 210.581 87.5128 210.252 87.6729 209.999C87.8329 209.744 88.0468 209.544 88.3145 209.399C88.5823 209.254 88.8778 209.147 89.2009 209.076C89.5271 209.002 89.8549 208.944 90.1842 208.901C90.6151 208.845 90.9644 208.804 91.2322 208.776C91.503 208.745 91.7 208.694 91.8231 208.624C91.9492 208.553 92.0123 208.43 92.0123 208.254V208.217C92.0123 207.762 91.8877 207.408 91.6384 207.156C91.3922 206.903 91.0183 206.777 90.5166 206.777C89.9965 206.777 89.5887 206.891 89.2932 207.119C88.9978 207.346 88.79 207.589 88.67 207.848L87.6359 207.479C87.8206 207.048 88.0668 206.712 88.3746 206.472C88.6854 206.229 89.0239 206.06 89.3902 205.964C89.7595 205.866 90.1227 205.817 90.4797 205.817C90.7074 205.817 90.969 205.844 91.2645 205.9C91.563 205.952 91.8508 206.061 92.1278 206.228C92.4078 206.394 92.6402 206.645 92.8248 206.98C93.0095 207.316 93.1018 207.765 93.1018 208.328V213H92.0123V212.04H91.9569C91.8831 212.194 91.76 212.358 91.5876 212.534C91.4153 212.709 91.186 212.858 90.8998 212.982C90.6135 213.105 90.2642 213.166 89.8518 213.166ZM90.018 212.188C90.4489 212.188 90.8121 212.103 91.1075 211.934C91.406 211.764 91.6307 211.546 91.7815 211.278C91.9354 211.01 92.0123 210.729 92.0123 210.433V209.436C91.9662 209.491 91.8646 209.542 91.7077 209.588C91.5538 209.632 91.3753 209.67 91.1721 209.704C90.9721 209.735 90.7767 209.762 90.5858 209.787C90.3981 209.808 90.2458 209.827 90.1288 209.842C89.8457 209.879 89.581 209.939 89.3348 210.022C89.0916 210.102 88.8947 210.224 88.7439 210.387C88.5961 210.547 88.5223 210.766 88.5223 211.043C88.5223 211.421 88.6623 211.707 88.9424 211.901C89.2255 212.092 89.5841 212.188 90.018 212.188ZM95.0904 213V205.909H96.1429V206.98H96.2168C96.3461 206.629 96.58 206.345 96.9185 206.126C97.257 205.908 97.6387 205.798 98.0634 205.798C98.1434 205.798 98.2434 205.8 98.3635 205.803C98.4835 205.806 98.5743 205.811 98.6358 205.817V206.925C98.5989 206.915 98.5143 206.902 98.3819 206.883C98.2527 206.862 98.1157 206.851 97.9711 206.851C97.6264 206.851 97.3186 206.923 97.0478 207.068C96.78 207.209 96.5676 207.406 96.4107 207.659C96.2568 207.908 96.1799 208.193 96.1799 208.513V213H95.0904ZM102.014 213.166C101.565 213.166 101.157 213.082 100.791 212.912C100.424 212.74 100.133 212.492 99.9181 212.169C99.7026 211.843 99.5949 211.449 99.5949 210.987C99.5949 210.581 99.6749 210.252 99.835 209.999C99.995 209.744 100.209 209.544 100.477 209.399C100.744 209.254 101.04 209.147 101.363 209.076C101.689 209.002 102.017 208.944 102.346 208.901C102.777 208.845 103.127 208.804 103.394 208.776C103.665 208.745 103.862 208.694 103.985 208.624C104.111 208.553 104.174 208.43 104.174 208.254V208.217C104.174 207.762 104.05 207.408 103.801 207.156C103.554 206.903 103.18 206.777 102.679 206.777C102.159 206.777 101.751 206.891 101.455 207.119C101.16 207.346 100.952 207.589 100.832 207.848L99.798 207.479C99.9827 207.048 100.229 206.712 100.537 206.472C100.848 206.229 101.186 206.06 101.552 205.964C101.922 205.866 102.285 205.817 102.642 205.817C102.87 205.817 103.131 205.844 103.427 205.9C103.725 205.952 104.013 206.061 104.29 206.228C104.57 206.394 104.802 206.645 104.987 206.98C105.172 207.316 105.264 207.765 105.264 208.328V213H104.174V212.04H104.119C104.045 212.194 103.922 212.358 103.75 212.534C103.577 212.709 103.348 212.858 103.062 212.982C102.776 213.105 102.426 213.166 102.014 213.166ZM102.18 212.188C102.611 212.188 102.974 212.103 103.27 211.934C103.568 211.764 103.793 211.546 103.944 211.278C104.098 211.01 104.174 210.729 104.174 210.433V209.436C104.128 209.491 104.027 209.542 103.87 209.588C103.716 209.632 103.537 209.67 103.334 209.704C103.134 209.735 102.939 209.762 102.748 209.787C102.56 209.808 102.408 209.827 102.291 209.842C102.008 209.879 101.743 209.939 101.497 210.022C101.254 210.102 101.057 210.224 100.906 210.387C100.758 210.547 100.684 210.766 100.684 211.043C100.684 211.421 100.824 211.707 101.104 211.901C101.388 212.092 101.746 212.188 102.18 212.188ZM113.789 213.148C113.149 213.148 112.588 212.995 112.104 212.691C111.624 212.386 111.249 211.96 110.978 211.412C110.71 210.864 110.576 210.224 110.576 209.491C110.576 208.753 110.71 208.108 110.978 207.557C111.249 207.006 111.624 206.578 112.104 206.274C112.588 205.969 113.149 205.817 113.789 205.817C114.43 205.817 114.99 205.969 115.47 206.274C115.953 206.578 116.328 207.006 116.596 207.557C116.867 208.108 117.002 208.753 117.002 209.491C117.002 210.224 116.867 210.864 116.596 211.412C116.328 211.96 115.953 212.386 115.47 212.691C114.99 212.995 114.43 213.148 113.789 213.148ZM113.789 212.169C114.276 212.169 114.676 212.044 114.99 211.795C115.304 211.546 115.536 211.218 115.687 210.812C115.838 210.406 115.913 209.965 115.913 209.491C115.913 209.018 115.838 208.576 115.687 208.167C115.536 207.757 115.304 207.426 114.99 207.174C114.676 206.922 114.276 206.795 113.789 206.795C113.303 206.795 112.903 206.922 112.589 207.174C112.275 207.426 112.043 207.757 111.892 208.167C111.741 208.576 111.666 209.018 111.666 209.491C111.666 209.965 111.741 210.406 111.892 210.812C112.043 211.218 112.275 211.546 112.589 211.795C112.903 212.044 113.303 212.169 113.789 212.169ZM118.666 213V205.909H119.718V206.98H119.792C119.921 206.629 120.155 206.345 120.494 206.126C120.832 205.908 121.214 205.798 121.639 205.798C121.719 205.798 121.819 205.8 121.939 205.803C122.059 205.806 122.149 205.811 122.211 205.817V206.925C122.174 206.915 122.089 206.902 121.957 206.883C121.828 206.862 121.691 206.851 121.546 206.851C121.202 206.851 120.894 206.923 120.623 207.068C120.355 207.209 120.143 207.406 119.986 207.659C119.832 207.908 119.755 208.193 119.755 208.513V213H118.666ZM126.149 215.807C125.623 215.807 125.17 215.739 124.792 215.604C124.413 215.471 124.098 215.296 123.845 215.077C123.596 214.862 123.397 214.631 123.25 214.385L124.118 213.776C124.216 213.905 124.341 214.053 124.492 214.219C124.642 214.388 124.849 214.534 125.11 214.657C125.375 214.783 125.721 214.847 126.149 214.847C126.721 214.847 127.194 214.708 127.566 214.431C127.939 214.154 128.125 213.72 128.125 213.129V211.689H128.032C127.952 211.818 127.839 211.978 127.691 212.169C127.546 212.357 127.337 212.525 127.063 212.672C126.792 212.817 126.426 212.889 125.964 212.889C125.392 212.889 124.878 212.754 124.422 212.483C123.97 212.212 123.611 211.818 123.347 211.301C123.085 210.784 122.954 210.156 122.954 209.418C122.954 208.691 123.082 208.059 123.337 207.52C123.593 206.979 123.948 206.56 124.404 206.265C124.859 205.966 125.386 205.817 125.983 205.817C126.444 205.817 126.811 205.894 127.081 206.048C127.355 206.198 127.565 206.371 127.709 206.565C127.857 206.755 127.971 206.912 128.051 207.036H128.162V205.909H129.214V213.203C129.214 213.812 129.076 214.308 128.799 214.69C128.525 215.074 128.156 215.356 127.691 215.534C127.229 215.716 126.715 215.807 126.149 215.807ZM126.112 211.911C126.549 211.911 126.918 211.81 127.22 211.61C127.522 211.41 127.751 211.123 127.908 210.747C128.065 210.372 128.143 209.922 128.143 209.399C128.143 208.888 128.066 208.437 127.912 208.047C127.758 207.656 127.531 207.349 127.229 207.128C126.928 206.906 126.555 206.795 126.112 206.795C125.65 206.795 125.266 206.912 124.958 207.146C124.653 207.38 124.424 207.694 124.27 208.088C124.119 208.482 124.044 208.919 124.044 209.399C124.044 209.892 124.121 210.327 124.275 210.706C124.432 211.081 124.662 211.377 124.967 211.592C125.275 211.804 125.656 211.911 126.112 211.911ZM133.295 213.166C132.846 213.166 132.438 213.082 132.072 212.912C131.706 212.74 131.415 212.492 131.199 212.169C130.984 211.843 130.876 211.449 130.876 210.987C130.876 210.581 130.956 210.252 131.116 209.999C131.276 209.744 131.49 209.544 131.758 209.399C132.026 209.254 132.321 209.147 132.644 209.076C132.97 209.002 133.298 208.944 133.628 208.901C134.058 208.845 134.408 208.804 134.676 208.776C134.946 208.745 135.143 208.694 135.266 208.624C135.393 208.553 135.456 208.43 135.456 208.254V208.217C135.456 207.762 135.331 207.408 135.082 207.156C134.836 206.903 134.462 206.777 133.96 206.777C133.44 206.777 133.032 206.891 132.737 207.119C132.441 207.346 132.233 207.589 132.113 207.848L131.079 207.479C131.264 207.048 131.51 206.712 131.818 206.472C132.129 206.229 132.467 206.06 132.834 205.964C133.203 205.866 133.566 205.817 133.923 205.817C134.151 205.817 134.412 205.844 134.708 205.9C135.006 205.952 135.294 206.061 135.571 206.228C135.851 206.394 136.084 206.645 136.268 206.98C136.453 207.316 136.545 207.765 136.545 208.328V213H135.456V212.04H135.4C135.326 212.194 135.203 212.358 135.031 212.534C134.859 212.709 134.629 212.858 134.343 212.982C134.057 213.105 133.708 213.166 133.295 213.166ZM133.461 212.188C133.892 212.188 134.255 212.103 134.551 211.934C134.849 211.764 135.074 211.546 135.225 211.278C135.379 211.01 135.456 210.729 135.456 210.433V209.436C135.41 209.491 135.308 209.542 135.151 209.588C134.997 209.632 134.819 209.67 134.615 209.704C134.415 209.735 134.22 209.762 134.029 209.787C133.841 209.808 133.689 209.827 133.572 209.842C133.289 209.879 133.024 209.939 132.778 210.022C132.535 210.102 132.338 210.224 132.187 210.387C132.04 210.547 131.966 210.766 131.966 211.043C131.966 211.421 132.106 211.707 132.386 211.901C132.669 212.092 133.027 212.188 133.461 212.188ZM139.623 208.734V213H138.534V205.909H139.586V207.017H139.679C139.845 206.657 140.097 206.368 140.436 206.149C140.774 205.928 141.211 205.817 141.747 205.817C142.227 205.817 142.647 205.915 143.007 206.112C143.367 206.306 143.647 206.602 143.847 206.999C144.047 207.393 144.147 207.891 144.147 208.494V213H143.058V208.568C143.058 208.011 142.913 207.577 142.624 207.266C142.335 206.952 141.938 206.795 141.433 206.795C141.085 206.795 140.774 206.871 140.5 207.022C140.23 207.172 140.016 207.393 139.859 207.682C139.702 207.971 139.623 208.322 139.623 208.734ZM146.138 213V205.909H147.228V213H146.138ZM146.692 204.727C146.48 204.727 146.297 204.655 146.143 204.51C145.992 204.366 145.917 204.192 145.917 203.989C145.917 203.786 145.992 203.612 146.143 203.467C146.297 203.322 146.48 203.25 146.692 203.25C146.905 203.25 147.086 203.322 147.237 203.467C147.391 203.612 147.468 203.786 147.468 203.989C147.468 204.192 147.391 204.366 147.237 204.51C147.086 204.655 146.905 204.727 146.692 204.727ZM149.02 213V212.169L153.046 206.999V206.925H149.149V205.909H154.449V206.777L150.534 211.911V211.984H154.578V213H149.02ZM158.343 213.166C157.894 213.166 157.486 213.082 157.12 212.912C156.753 212.74 156.463 212.492 156.247 212.169C156.032 211.843 155.924 211.449 155.924 210.987C155.924 210.581 156.004 210.252 156.164 209.999C156.324 209.744 156.538 209.544 156.806 209.399C157.074 209.254 157.369 209.147 157.692 209.076C158.018 209.002 158.346 208.944 158.675 208.901C159.106 208.845 159.456 208.804 159.723 208.776C159.994 208.745 160.191 208.694 160.314 208.624C160.44 208.553 160.504 208.43 160.504 208.254V208.217C160.504 207.762 160.379 207.408 160.13 207.156C159.883 206.903 159.509 206.777 159.008 206.777C158.488 206.777 158.08 206.891 157.784 207.119C157.489 207.346 157.281 207.589 157.161 207.848L156.127 207.479C156.312 207.048 156.558 206.712 156.866 206.472C157.177 206.229 157.515 206.06 157.881 205.964C158.251 205.866 158.614 205.817 158.971 205.817C159.199 205.817 159.46 205.844 159.756 205.9C160.054 205.952 160.342 206.061 160.619 206.228C160.899 206.394 161.131 206.645 161.316 206.98C161.501 207.316 161.593 207.765 161.593 208.328V213H160.504V212.04H160.448C160.374 212.194 160.251 212.358 160.079 212.534C159.906 212.709 159.677 212.858 159.391 212.982C159.105 213.105 158.755 213.166 158.343 213.166ZM158.509 212.188C158.94 212.188 159.303 212.103 159.599 211.934C159.897 211.764 160.122 211.546 160.273 211.278C160.427 211.01 160.504 210.729 160.504 210.433V209.436C160.457 209.491 160.356 209.542 160.199 209.588C160.045 209.632 159.866 209.67 159.663 209.704C159.463 209.735 159.268 209.762 159.077 209.787C158.889 209.808 158.737 209.827 158.62 209.842C158.337 209.879 158.072 209.939 157.826 210.022C157.583 210.102 157.386 210.224 157.235 210.387C157.087 210.547 157.013 210.766 157.013 211.043C157.013 211.421 157.154 211.707 157.434 211.901C157.717 212.092 158.075 212.188 158.509 212.188ZM163.582 213V205.909H164.634V206.98H164.708C164.837 206.629 165.071 206.345 165.41 206.126C165.748 205.908 166.13 205.798 166.555 205.798C166.635 205.798 166.735 205.8 166.855 205.803C166.975 205.806 167.065 205.811 167.127 205.817V206.925C167.09 206.915 167.005 206.902 166.873 206.883C166.744 206.862 166.607 206.851 166.462 206.851C166.118 206.851 165.81 206.923 165.539 207.068C165.271 207.209 165.059 207.406 164.902 207.659C164.748 207.908 164.671 208.193 164.671 208.513V213H163.582ZM172.075 215.659V205.909H173.127V207.036H173.257C173.337 206.912 173.447 206.755 173.589 206.565C173.734 206.371 173.94 206.198 174.208 206.048C174.478 205.894 174.845 205.817 175.306 205.817C175.903 205.817 176.43 205.966 176.885 206.265C177.341 206.563 177.696 206.986 177.952 207.534C178.207 208.082 178.335 208.728 178.335 209.473C178.335 210.224 178.207 210.875 177.952 211.426C177.696 211.974 177.342 212.398 176.89 212.7C176.437 212.998 175.916 213.148 175.325 213.148C174.869 213.148 174.505 213.072 174.231 212.922C173.957 212.768 173.746 212.594 173.598 212.4C173.45 212.203 173.337 212.04 173.257 211.911H173.164V215.659H172.075ZM173.146 209.455C173.146 209.99 173.224 210.462 173.381 210.872C173.538 211.278 173.767 211.597 174.069 211.827C174.371 212.055 174.74 212.169 175.177 212.169C175.633 212.169 176.013 212.049 176.317 211.809C176.625 211.566 176.856 211.24 177.01 210.83C177.167 210.418 177.245 209.959 177.245 209.455C177.245 208.956 177.168 208.507 177.014 208.107C176.864 207.703 176.634 207.385 176.327 207.151C176.022 206.914 175.639 206.795 175.177 206.795C174.734 206.795 174.361 206.908 174.06 207.132C173.758 207.354 173.53 207.665 173.377 208.065C173.223 208.462 173.146 208.925 173.146 209.455ZM179.997 213V205.909H181.049V206.98H181.123C181.252 206.629 181.486 206.345 181.825 206.126C182.163 205.908 182.545 205.798 182.97 205.798C183.05 205.798 183.15 205.8 183.27 205.803C183.39 205.806 183.481 205.811 183.542 205.817V206.925C183.505 206.915 183.421 206.902 183.288 206.883C183.159 206.862 183.022 206.851 182.877 206.851C182.533 206.851 182.225 206.923 181.954 207.068C181.686 207.209 181.474 207.406 181.317 207.659C181.163 207.908 181.086 208.193 181.086 208.513V213H179.997ZM187.498 213.148C186.858 213.148 186.297 212.995 185.813 212.691C185.333 212.386 184.958 211.96 184.687 211.412C184.419 210.864 184.285 210.224 184.285 209.491C184.285 208.753 184.419 208.108 184.687 207.557C184.958 207.006 185.333 206.578 185.813 206.274C186.297 205.969 186.858 205.817 187.498 205.817C188.139 205.817 188.699 205.969 189.179 206.274C189.662 206.578 190.037 207.006 190.305 207.557C190.576 208.108 190.711 208.753 190.711 209.491C190.711 210.224 190.576 210.864 190.305 211.412C190.037 211.96 189.662 212.386 189.179 212.691C188.699 212.995 188.139 213.148 187.498 213.148ZM187.498 212.169C187.985 212.169 188.385 212.044 188.699 211.795C189.013 211.546 189.245 211.218 189.396 210.812C189.547 210.406 189.622 209.965 189.622 209.491C189.622 209.018 189.547 208.576 189.396 208.167C189.245 207.757 189.013 207.426 188.699 207.174C188.385 206.922 187.985 206.795 187.498 206.795C187.012 206.795 186.612 206.922 186.298 207.174C185.984 207.426 185.752 207.757 185.601 208.167C185.45 208.576 185.375 209.018 185.375 209.491C185.375 209.965 185.45 210.406 185.601 210.812C185.752 211.218 185.984 211.546 186.298 211.795C186.612 212.044 187.012 212.169 187.498 212.169ZM192.375 205.909H193.464V213.517C193.464 213.954 193.389 214.333 193.238 214.653C193.09 214.973 192.865 215.221 192.564 215.396C192.265 215.571 191.888 215.659 191.433 215.659C191.396 215.659 191.359 215.659 191.322 215.659C191.285 215.659 191.248 215.659 191.211 215.659V214.643C191.248 214.643 191.282 214.643 191.313 214.643C191.344 214.643 191.377 214.643 191.414 214.643C191.747 214.643 191.99 214.545 192.144 214.348C192.298 214.154 192.375 213.877 192.375 213.517V205.909ZM192.91 204.727C192.698 204.727 192.515 204.655 192.361 204.51C192.21 204.366 192.134 204.192 192.134 203.989C192.134 203.786 192.21 203.612 192.361 203.467C192.515 203.322 192.698 203.25 192.91 203.25C193.122 203.25 193.304 203.322 193.455 203.467C193.609 203.612 193.686 203.786 193.686 203.989C193.686 204.192 193.609 204.366 193.455 204.51C193.304 204.655 193.122 204.727 192.91 204.727ZM198.433 213.148C197.749 213.148 197.16 212.997 196.664 212.695C196.172 212.391 195.792 211.966 195.524 211.421C195.259 210.873 195.127 210.236 195.127 209.51C195.127 208.784 195.259 208.143 195.524 207.589C195.792 207.032 196.164 206.598 196.641 206.288C197.121 205.974 197.682 205.817 198.322 205.817C198.691 205.817 199.056 205.878 199.416 206.001C199.776 206.125 200.104 206.325 200.399 206.602C200.695 206.875 200.93 207.239 201.105 207.691C201.281 208.143 201.369 208.701 201.369 209.362V209.824H195.903V208.882H200.261C200.261 208.482 200.181 208.125 200.021 207.811C199.864 207.497 199.639 207.249 199.347 207.068C199.057 206.886 198.716 206.795 198.322 206.795C197.888 206.795 197.512 206.903 197.195 207.119C196.881 207.331 196.64 207.608 196.471 207.95C196.301 208.291 196.217 208.657 196.217 209.048V209.676C196.217 210.212 196.309 210.666 196.494 211.038C196.681 211.407 196.941 211.689 197.274 211.883C197.606 212.074 197.992 212.169 198.433 212.169C198.719 212.169 198.977 212.129 199.208 212.049C199.442 211.966 199.644 211.843 199.813 211.68C199.982 211.513 200.113 211.307 200.205 211.061L201.258 211.357C201.147 211.714 200.961 212.027 200.699 212.298C200.438 212.566 200.114 212.775 199.73 212.926C199.345 213.074 198.913 213.148 198.433 213.148ZM206.11 205.909V206.832H202.435V205.909H206.11ZM203.506 204.21H204.596V210.969C204.596 211.277 204.64 211.507 204.729 211.661C204.822 211.812 204.939 211.914 205.08 211.966C205.225 212.015 205.377 212.04 205.537 212.04C205.657 212.04 205.756 212.034 205.833 212.021C205.91 212.006 205.971 211.994 206.017 211.984L206.239 212.963C206.165 212.991 206.062 213.018 205.93 213.046C205.797 213.077 205.63 213.092 205.426 213.092C205.119 213.092 204.817 213.026 204.522 212.894C204.229 212.761 203.986 212.56 203.792 212.289C203.601 212.018 203.506 211.677 203.506 211.264V204.21ZM210.553 213.148C209.913 213.148 209.351 212.995 208.868 212.691C208.388 212.386 208.012 211.96 207.742 211.412C207.474 210.864 207.34 210.224 207.34 209.491C207.34 208.753 207.474 208.108 207.742 207.557C208.012 207.006 208.388 206.578 208.868 206.274C209.351 205.969 209.913 205.817 210.553 205.817C211.193 205.817 211.753 205.969 212.233 206.274C212.717 206.578 213.092 207.006 213.36 207.557C213.631 208.108 213.766 208.753 213.766 209.491C213.766 210.224 213.631 210.864 213.36 211.412C213.092 211.96 212.717 212.386 212.233 212.691C211.753 212.995 211.193 213.148 210.553 213.148ZM210.553 212.169C211.039 212.169 211.439 212.044 211.753 211.795C212.067 211.546 212.3 211.218 212.45 210.812C212.601 210.406 212.677 209.965 212.677 209.491C212.677 209.018 212.601 208.576 212.45 208.167C212.3 207.757 212.067 207.426 211.753 207.174C211.439 206.922 211.039 206.795 210.553 206.795C210.067 206.795 209.667 206.922 209.353 207.174C209.039 207.426 208.807 207.757 208.656 208.167C208.505 208.576 208.43 209.018 208.43 209.491C208.43 209.965 208.505 210.406 208.656 210.812C208.807 211.218 209.039 211.546 209.353 211.795C209.667 212.044 210.067 212.169 210.553 212.169ZM220.452 207.497L219.473 207.774C219.412 207.611 219.321 207.453 219.201 207.299C219.084 207.142 218.924 207.012 218.721 206.911C218.518 206.809 218.258 206.759 217.941 206.759C217.507 206.759 217.145 206.859 216.856 207.059C216.57 207.256 216.426 207.506 216.426 207.811C216.426 208.082 216.525 208.296 216.722 208.453C216.919 208.61 217.227 208.741 217.645 208.845L218.698 209.104C219.332 209.258 219.804 209.493 220.115 209.81C220.426 210.124 220.581 210.529 220.581 211.024C220.581 211.43 220.464 211.794 220.23 212.114C220 212.434 219.676 212.686 219.261 212.871C218.845 213.055 218.362 213.148 217.811 213.148C217.088 213.148 216.489 212.991 216.016 212.677C215.542 212.363 215.242 211.904 215.115 211.301L216.149 211.043C216.248 211.424 216.434 211.71 216.708 211.901C216.985 212.092 217.347 212.188 217.793 212.188C218.301 212.188 218.704 212.08 219.002 211.864C219.304 211.646 219.455 211.384 219.455 211.08C219.455 210.833 219.369 210.627 219.196 210.461C219.024 210.292 218.759 210.165 218.402 210.082L217.22 209.805C216.571 209.652 216.094 209.413 215.789 209.09C215.488 208.764 215.337 208.356 215.337 207.866C215.337 207.466 215.449 207.112 215.674 206.805C215.902 206.497 216.211 206.255 216.602 206.08C216.996 205.904 217.442 205.817 217.941 205.817C218.642 205.817 219.193 205.971 219.593 206.278C219.996 206.586 220.283 206.992 220.452 207.497ZM59.038 229.148C58.3548 229.148 57.7654 228.997 57.2699 228.695C56.7775 228.391 56.3974 227.966 56.1296 227.421C55.8649 226.873 55.7326 226.236 55.7326 225.51C55.7326 224.784 55.8649 224.143 56.1296 223.589C56.3974 223.032 56.7698 222.598 57.2468 222.288C57.7269 221.974 58.287 221.817 58.9272 221.817C59.2965 221.817 59.6612 221.878 60.0213 222.001C60.3814 222.125 60.7092 222.325 61.0046 222.602C61.3001 222.875 61.5355 223.239 61.7109 223.691C61.8864 224.143 61.9741 224.701 61.9741 225.362V225.824H56.5082V224.882H60.8661C60.8661 224.482 60.7861 224.125 60.6261 223.811C60.4691 223.497 60.2444 223.249 59.9521 223.068C59.6628 222.886 59.3211 222.795 58.9272 222.795C58.4933 222.795 58.1178 222.903 57.8008 223.119C57.4869 223.331 57.2453 223.608 57.076 223.95C56.9067 224.291 56.8221 224.657 56.8221 225.048V225.676C56.8221 226.212 56.9144 226.666 57.0991 227.038C57.2868 227.407 57.5469 227.689 57.8793 227.883C58.2116 228.074 58.5979 228.169 59.038 228.169C59.3242 228.169 59.5827 228.129 59.8136 228.049C60.0475 227.966 60.2491 227.843 60.4183 227.68C60.5876 227.513 60.7184 227.307 60.8107 227.061L61.8633 227.357C61.7525 227.714 61.5663 228.027 61.3047 228.298C61.0431 228.566 60.7199 228.775 60.3352 228.926C59.9505 229.074 59.5181 229.148 59.038 229.148ZM70.3714 221.909V222.832H66.6967V221.909H70.3714ZM67.7678 220.21H68.8572V226.969C68.8572 227.277 68.9019 227.507 68.9911 227.661C69.0835 227.812 69.2004 227.914 69.342 227.966C69.4866 228.015 69.639 228.04 69.799 228.04C69.919 228.04 70.0175 228.034 70.0945 228.021C70.1714 228.006 70.233 227.994 70.2791 227.984L70.5007 228.963C70.4268 228.991 70.3237 229.018 70.1914 229.046C70.0591 229.077 69.8913 229.092 69.6882 229.092C69.3804 229.092 69.0788 229.026 68.7834 228.894C68.491 228.761 68.2479 228.56 68.054 228.289C67.8632 228.018 67.7678 227.677 67.7678 227.264V220.21ZM72.0103 229V221.909H73.0629V222.98H73.1367C73.266 222.629 73.4999 222.345 73.8384 222.126C74.177 221.908 74.5586 221.798 74.9833 221.798C75.0633 221.798 75.1634 221.8 75.2834 221.803C75.4034 221.806 75.4942 221.811 75.5558 221.817V222.925C75.5188 222.915 75.4342 222.902 75.3018 222.883C75.1726 222.862 75.0356 222.851 74.891 222.851C74.5463 222.851 74.2385 222.923 73.9677 223.068C73.6999 223.209 73.4876 223.406 73.3306 223.659C73.1767 223.908 73.0998 224.193 73.0998 224.513V229H72.0103ZM78.9339 229.166C78.4845 229.166 78.0767 229.082 77.7105 228.912C77.3443 228.74 77.0534 228.492 76.838 228.169C76.6225 227.843 76.5148 227.449 76.5148 226.987C76.5148 226.581 76.5948 226.252 76.7549 225.999C76.9149 225.744 77.1288 225.544 77.3966 225.399C77.6643 225.254 77.9598 225.147 78.2829 225.076C78.6092 225.002 78.9369 224.944 79.2662 224.901C79.6971 224.845 80.0464 224.804 80.3142 224.776C80.585 224.745 80.782 224.694 80.9051 224.624C81.0313 224.553 81.0944 224.43 81.0944 224.254V224.217C81.0944 223.762 80.9697 223.408 80.7204 223.156C80.4742 222.903 80.1003 222.777 79.5986 222.777C79.0785 222.777 78.6707 222.891 78.3753 223.119C78.0798 223.346 77.8721 223.589 77.752 223.848L76.7179 223.479C76.9026 223.048 77.1488 222.712 77.4566 222.472C77.7674 222.229 78.106 222.06 78.4722 221.964C78.8415 221.866 79.2047 221.817 79.5617 221.817C79.7894 221.817 80.051 221.844 80.3465 221.9C80.645 221.952 80.9328 222.061 81.2098 222.228C81.4898 222.394 81.7222 222.645 81.9069 222.98C82.0915 223.316 82.1839 223.765 82.1839 224.328V229H81.0944V228.04H81.039C80.9651 228.194 80.842 228.358 80.6697 228.534C80.4973 228.709 80.268 228.858 79.9818 228.982C79.6956 229.105 79.3463 229.166 78.9339 229.166ZM79.1001 228.188C79.5309 228.188 79.8941 228.103 80.1895 227.934C80.4881 227.764 80.7127 227.546 80.8635 227.278C81.0174 227.01 81.0944 226.729 81.0944 226.433V225.436C81.0482 225.491 80.9466 225.542 80.7897 225.588C80.6358 225.632 80.4573 225.67 80.2542 225.704C80.0541 225.735 79.8587 225.762 79.6679 225.787C79.4801 225.808 79.3278 225.827 79.2108 225.842C78.9277 225.879 78.663 225.939 78.4168 226.022C78.1737 226.102 77.9767 226.224 77.8259 226.387C77.6782 226.547 77.6043 226.766 77.6043 227.043C77.6043 227.421 77.7443 227.707 78.0244 227.901C78.3076 228.092 78.6661 228.188 79.1001 228.188ZM84.3201 229V219.545H85.4096V223.036H85.502C85.582 222.912 85.6928 222.755 85.8343 222.565C85.979 222.371 86.1852 222.198 86.4529 222.048C86.7238 221.894 87.09 221.817 87.5517 221.817C88.1487 221.817 88.675 221.966 89.1305 222.265C89.586 222.563 89.9415 222.986 90.1969 223.534C90.4524 224.082 90.5801 224.728 90.5801 225.473C90.5801 226.224 90.4524 226.875 90.1969 227.426C89.9415 227.974 89.5875 228.398 89.1351 228.7C88.6827 228.998 88.161 229.148 87.5701 229.148C87.1146 229.148 86.7499 229.072 86.476 228.922C86.2021 228.768 85.9913 228.594 85.8436 228.4C85.6958 228.203 85.582 228.04 85.502 227.911H85.3727V229H84.3201ZM85.3912 225.455C85.3912 225.99 85.4696 226.462 85.6266 226.872C85.7836 227.278 86.0128 227.597 86.3145 227.827C86.6161 228.055 86.9854 228.169 87.4224 228.169C87.8779 228.169 88.258 228.049 88.5627 227.809C88.8704 227.566 89.1013 227.24 89.2551 226.83C89.4121 226.418 89.4906 225.959 89.4906 225.455C89.4906 224.956 89.4136 224.507 89.2598 224.107C89.109 223.703 88.8797 223.385 88.5719 223.151C88.2672 222.914 87.8841 222.795 87.4224 222.795C86.9792 222.795 86.6068 222.908 86.3052 223.132C86.0036 223.354 85.7759 223.665 85.622 224.065C85.4681 224.462 85.3912 224.925 85.3912 225.455ZM94.3333 229.166C93.8839 229.166 93.4761 229.082 93.1099 228.912C92.7437 228.74 92.4528 228.492 92.2374 228.169C92.022 227.843 91.9142 227.449 91.9142 226.987C91.9142 226.581 91.9943 226.252 92.1543 225.999C92.3143 225.744 92.5282 225.544 92.796 225.399C93.0637 225.254 93.3592 225.147 93.6823 225.076C94.0086 225.002 94.3364 224.944 94.6657 224.901C95.0965 224.845 95.4458 224.804 95.7136 224.776C95.9844 224.745 96.1814 224.694 96.3045 224.624C96.4307 224.553 96.4938 224.43 96.4938 224.254V224.217C96.4938 223.762 96.3691 223.408 96.1198 223.156C95.8736 222.903 95.4997 222.777 94.998 222.777C94.4779 222.777 94.0701 222.891 93.7747 223.119C93.4792 223.346 93.2715 223.589 93.1515 223.848L92.1174 223.479C92.302 223.048 92.5482 222.712 92.856 222.472C93.1668 222.229 93.5054 222.06 93.8716 221.964C94.2409 221.866 94.6041 221.817 94.9611 221.817C95.1889 221.817 95.4505 221.844 95.7459 221.9C96.0444 221.952 96.3322 222.061 96.6092 222.228C96.8893 222.394 97.1216 222.645 97.3063 222.98C97.4909 223.316 97.5833 223.765 97.5833 224.328V229H96.4938V228.04H96.4384C96.3645 228.194 96.2414 228.358 96.0691 228.534C95.8967 228.709 95.6674 228.858 95.3812 228.982C95.095 229.105 94.7457 229.166 94.3333 229.166ZM94.4995 228.188C94.9303 228.188 95.2935 228.103 95.589 227.934C95.8875 227.764 96.1122 227.546 96.263 227.278C96.4168 227.01 96.4938 226.729 96.4938 226.433V225.436C96.4476 225.491 96.3461 225.542 96.1891 225.588C96.0352 225.632 95.8567 225.67 95.6536 225.704C95.4535 225.735 95.2581 225.762 95.0673 225.787C94.8796 225.808 94.7272 225.827 94.6103 225.842C94.3271 225.879 94.0624 225.939 93.8162 226.022C93.5731 226.102 93.3761 226.224 93.2253 226.387C93.0776 226.547 93.0037 226.766 93.0037 227.043C93.0037 227.421 93.1438 227.707 93.4238 227.901C93.707 228.092 94.0655 228.188 94.4995 228.188ZM100.661 219.545V229H99.5718V219.545H100.661ZM103.746 224.734V229H102.657V219.545H103.746V223.017H103.839C104.005 222.651 104.254 222.36 104.586 222.145C104.922 221.926 105.368 221.817 105.925 221.817C106.408 221.817 106.832 221.914 107.195 222.108C107.558 222.298 107.84 222.592 108.04 222.989C108.243 223.383 108.344 223.885 108.344 224.494V229H107.255V224.568C107.255 224.005 107.109 223.569 106.816 223.262C106.527 222.951 106.125 222.795 105.611 222.795C105.254 222.795 104.934 222.871 104.651 223.022C104.371 223.172 104.149 223.393 103.986 223.682C103.826 223.971 103.746 224.322 103.746 224.734ZM112.424 229.166C111.975 229.166 111.567 229.082 111.201 228.912C110.834 228.74 110.544 228.492 110.328 228.169C110.113 227.843 110.005 227.449 110.005 226.987C110.005 226.581 110.085 226.252 110.245 225.999C110.405 225.744 110.619 225.544 110.887 225.399C111.155 225.254 111.45 225.147 111.773 225.076C112.099 225.002 112.427 224.944 112.756 224.901C113.187 224.845 113.537 224.804 113.804 224.776C114.075 224.745 114.272 224.694 114.395 224.624C114.522 224.553 114.585 224.43 114.585 224.254V224.217C114.585 223.762 114.46 223.408 114.211 223.156C113.964 222.903 113.591 222.777 113.089 222.777C112.569 222.777 112.161 222.891 111.865 223.119C111.57 223.346 111.362 223.589 111.242 223.848L110.208 223.479C110.393 223.048 110.639 222.712 110.947 222.472C111.258 222.229 111.596 222.06 111.962 221.964C112.332 221.866 112.695 221.817 113.052 221.817C113.28 221.817 113.541 221.844 113.837 221.9C114.135 221.952 114.423 222.061 114.7 222.228C114.98 222.394 115.212 222.645 115.397 222.98C115.582 223.316 115.674 223.765 115.674 224.328V229H114.585V228.04H114.529C114.455 228.194 114.332 228.358 114.16 228.534C113.988 228.709 113.758 228.858 113.472 228.982C113.186 229.105 112.836 229.166 112.424 229.166ZM112.59 228.188C113.021 228.188 113.384 228.103 113.68 227.934C113.978 227.764 114.203 227.546 114.354 227.278C114.508 227.01 114.585 226.729 114.585 226.433V225.436C114.538 225.491 114.437 225.542 114.28 225.588C114.126 225.632 113.948 225.67 113.744 225.704C113.544 225.735 113.349 225.762 113.158 225.787C112.97 225.808 112.818 225.827 112.701 225.842C112.418 225.879 112.153 225.939 111.907 226.022C111.664 226.102 111.467 226.224 111.316 226.387C111.168 226.547 111.095 226.766 111.095 227.043C111.095 227.421 111.235 227.707 111.515 227.901C111.798 228.092 112.156 228.188 112.59 228.188ZM117.663 229V221.909H118.715V222.98H118.789C118.918 222.629 119.152 222.345 119.491 222.126C119.829 221.908 120.211 221.798 120.636 221.798C120.716 221.798 120.816 221.8 120.936 221.803C121.056 221.806 121.147 221.811 121.208 221.817V222.925C121.171 222.915 121.087 222.902 120.954 222.883C120.825 222.862 120.688 222.851 120.543 222.851C120.199 222.851 119.891 222.923 119.62 223.068C119.352 223.209 119.14 223.406 118.983 223.659C118.829 223.908 118.752 224.193 118.752 224.513V229H117.663ZM129.129 229.148C128.446 229.148 127.856 228.997 127.361 228.695C126.868 228.391 126.488 227.966 126.22 227.421C125.956 226.873 125.823 226.236 125.823 225.51C125.823 224.784 125.956 224.143 126.22 223.589C126.488 223.032 126.861 222.598 127.338 222.288C127.818 221.974 128.378 221.817 129.018 221.817C129.387 221.817 129.752 221.878 130.112 222.001C130.472 222.125 130.8 222.325 131.095 222.602C131.391 222.875 131.626 223.239 131.802 223.691C131.977 224.143 132.065 224.701 132.065 225.362V225.824H126.599V224.882H130.957C130.957 224.482 130.877 224.125 130.717 223.811C130.56 223.497 130.335 223.249 130.043 223.068C129.754 222.886 129.412 222.795 129.018 222.795C128.584 222.795 128.209 222.903 127.892 223.119C127.578 223.331 127.336 223.608 127.167 223.95C126.998 224.291 126.913 224.657 126.913 225.048V225.676C126.913 226.212 127.005 226.666 127.19 227.038C127.378 227.407 127.638 227.689 127.97 227.883C128.302 228.074 128.689 228.169 129.129 228.169C129.415 228.169 129.674 228.129 129.904 228.049C130.138 227.966 130.34 227.843 130.509 227.68C130.678 227.513 130.809 227.307 130.902 227.061L131.954 227.357C131.843 227.714 131.657 228.027 131.396 228.298C131.134 228.566 130.811 228.775 130.426 228.926C130.041 229.074 129.609 229.148 129.129 229.148ZM133.722 229V221.909H134.775V223.017H134.867C135.015 222.638 135.253 222.345 135.583 222.135C135.912 221.923 136.307 221.817 136.769 221.817C137.237 221.817 137.626 221.923 137.937 222.135C138.251 222.345 138.496 222.638 138.671 223.017H138.745C138.927 222.651 139.199 222.36 139.562 222.145C139.925 221.926 140.361 221.817 140.869 221.817C141.503 221.817 142.021 222.015 142.424 222.412C142.827 222.806 143.029 223.42 143.029 224.254V229H141.94V224.254C141.94 223.731 141.796 223.357 141.51 223.132C141.224 222.908 140.887 222.795 140.499 222.795C140.001 222.795 139.614 222.946 139.34 223.248C139.067 223.546 138.93 223.925 138.93 224.384V229H137.822V224.143C137.822 223.74 137.691 223.416 137.429 223.169C137.168 222.92 136.831 222.795 136.418 222.795C136.135 222.795 135.87 222.871 135.624 223.022C135.381 223.172 135.184 223.382 135.033 223.65C134.886 223.914 134.812 224.22 134.812 224.568V229H133.722ZM151.65 229.148C150.967 229.148 150.378 228.997 149.882 228.695C149.39 228.391 149.01 227.966 148.742 227.421C148.477 226.873 148.345 226.236 148.345 225.51C148.345 224.784 148.477 224.143 148.742 223.589C149.01 223.032 149.382 222.598 149.859 222.288C150.339 221.974 150.899 221.817 151.54 221.817C151.909 221.817 152.274 221.878 152.634 222.001C152.994 222.125 153.321 222.325 153.617 222.602C153.912 222.875 154.148 223.239 154.323 223.691C154.499 224.143 154.586 224.701 154.586 225.362V225.824H149.12V224.882H153.478C153.478 224.482 153.398 224.125 153.238 223.811C153.081 223.497 152.857 223.249 152.564 223.068C152.275 222.886 151.933 222.795 151.54 222.795C151.106 222.795 150.73 222.903 150.413 223.119C150.099 223.331 149.858 223.608 149.688 223.95C149.519 224.291 149.434 224.657 149.434 225.048V225.676C149.434 226.212 149.527 226.666 149.711 227.038C149.899 227.407 150.159 227.689 150.492 227.883C150.824 228.074 151.21 228.169 151.65 228.169C151.937 228.169 152.195 228.129 152.426 228.049C152.66 227.966 152.861 227.843 153.031 227.68C153.2 227.513 153.331 227.307 153.423 227.061L154.476 227.357C154.365 227.714 154.179 228.027 153.917 228.298C153.655 228.566 153.332 228.775 152.948 228.926C152.563 229.074 152.13 229.148 151.65 229.148ZM161.082 231.659V227.911H160.989C160.909 228.04 160.796 228.203 160.648 228.4C160.5 228.594 160.289 228.768 160.015 228.922C159.741 229.072 159.377 229.148 158.921 229.148C158.33 229.148 157.809 228.998 157.356 228.7C156.904 228.398 156.55 227.974 156.294 227.426C156.039 226.875 155.911 226.224 155.911 225.473C155.911 224.728 156.039 224.082 156.294 223.534C156.55 222.986 156.905 222.563 157.361 222.265C157.816 221.966 158.343 221.817 158.94 221.817C159.401 221.817 159.766 221.894 160.034 222.048C160.305 222.198 160.511 222.371 160.652 222.565C160.797 222.755 160.909 222.912 160.989 223.036H161.119V221.909H162.171V231.659H161.082ZM159.069 228.169C159.506 228.169 159.875 228.055 160.177 227.827C160.479 227.597 160.708 227.278 160.865 226.872C161.022 226.462 161.1 225.99 161.1 225.455C161.1 224.925 161.023 224.462 160.869 224.065C160.716 223.665 160.488 223.354 160.186 223.132C159.885 222.908 159.512 222.795 159.069 222.795C158.607 222.795 158.223 222.914 157.915 223.151C157.61 223.385 157.381 223.703 157.227 224.107C157.076 224.507 157.001 224.956 157.001 225.455C157.001 225.959 157.078 226.418 157.232 226.83C157.389 227.24 157.619 227.566 157.924 227.809C158.232 228.049 158.613 228.169 159.069 228.169ZM168.634 226.101V221.909H169.724V229H168.634V227.8H168.56C168.394 228.16 168.136 228.466 167.785 228.718C167.434 228.968 166.991 229.092 166.455 229.092C166.012 229.092 165.618 228.995 165.274 228.801C164.929 228.605 164.658 228.309 164.461 227.915C164.264 227.518 164.166 227.018 164.166 226.415V221.909H165.255V226.341C165.255 226.858 165.4 227.27 165.689 227.578C165.981 227.886 166.354 228.04 166.806 228.04C167.077 228.04 167.352 227.971 167.633 227.832C167.916 227.694 168.153 227.481 168.343 227.195C168.537 226.909 168.634 226.544 168.634 226.101ZM171.719 229V221.909H172.809V229H171.719ZM172.273 220.727C172.061 220.727 171.878 220.655 171.724 220.51C171.573 220.366 171.498 220.192 171.498 219.989C171.498 219.786 171.573 219.612 171.724 219.467C171.878 219.322 172.061 219.25 172.273 219.25C172.486 219.25 172.667 219.322 172.818 219.467C172.972 219.612 173.049 219.786 173.049 219.989C173.049 220.192 172.972 220.366 172.818 220.51C172.667 220.655 172.486 220.727 172.273 220.727ZM174.804 231.659V221.909H175.857V223.036H175.986C176.066 222.912 176.177 222.755 176.318 222.565C176.463 222.371 176.669 222.198 176.937 222.048C177.208 221.894 177.574 221.817 178.036 221.817C178.633 221.817 179.159 221.966 179.615 222.265C180.07 222.563 180.426 222.986 180.681 223.534C180.936 224.082 181.064 224.728 181.064 225.473C181.064 226.224 180.936 226.875 180.681 227.426C180.426 227.974 180.072 228.398 179.619 228.7C179.167 228.998 178.645 229.148 178.054 229.148C177.599 229.148 177.234 229.072 176.96 228.922C176.686 228.768 176.475 228.594 176.328 228.4C176.18 228.203 176.066 228.04 175.986 227.911H175.894V231.659H174.804ZM175.875 225.455C175.875 225.99 175.954 226.462 176.111 226.872C176.268 227.278 176.497 227.597 176.799 227.827C177.1 228.055 177.469 228.169 177.907 228.169C178.362 228.169 178.742 228.049 179.047 227.809C179.355 227.566 179.585 227.24 179.739 226.83C179.896 226.418 179.975 225.959 179.975 225.455C179.975 224.956 179.898 224.507 179.744 224.107C179.593 223.703 179.364 223.385 179.056 223.151C178.751 222.914 178.368 222.795 177.907 222.795C177.463 222.795 177.091 222.908 176.789 223.132C176.488 223.354 176.26 223.665 176.106 224.065C175.952 224.462 175.875 224.925 175.875 225.455ZM185.699 229.148C185.016 229.148 184.427 228.997 183.931 228.695C183.439 228.391 183.059 227.966 182.791 227.421C182.526 226.873 182.394 226.236 182.394 225.51C182.394 224.784 182.526 224.143 182.791 223.589C183.059 223.032 183.431 222.598 183.908 222.288C184.388 221.974 184.948 221.817 185.588 221.817C185.958 221.817 186.322 221.878 186.682 222.001C187.043 222.125 187.37 222.325 187.666 222.602C187.961 222.875 188.197 223.239 188.372 223.691C188.547 224.143 188.635 224.701 188.635 225.362V225.824H183.169V224.882H187.527C187.527 224.482 187.447 224.125 187.287 223.811C187.13 223.497 186.906 223.249 186.613 223.068C186.324 222.886 185.982 222.795 185.588 222.795C185.154 222.795 184.779 222.903 184.462 223.119C184.148 223.331 183.906 223.608 183.737 223.95C183.568 224.291 183.483 224.657 183.483 225.048V225.676C183.483 226.212 183.576 226.666 183.76 227.038C183.948 227.407 184.208 227.689 184.54 227.883C184.873 228.074 185.259 228.169 185.699 228.169C185.985 228.169 186.244 228.129 186.475 228.049C186.709 227.966 186.91 227.843 187.079 227.68C187.249 227.513 187.38 227.307 187.472 227.061L188.524 227.357C188.414 227.714 188.227 228.027 187.966 228.298C187.704 228.566 187.381 228.775 186.996 228.926C186.612 229.074 186.179 229.148 185.699 229.148ZM191.087 229.074C190.859 229.074 190.663 228.992 190.5 228.829C190.337 228.666 190.256 228.471 190.256 228.243C190.256 228.015 190.337 227.82 190.5 227.657C190.663 227.493 190.859 227.412 191.087 227.412C191.314 227.412 191.51 227.493 191.673 227.657C191.836 227.82 191.918 228.015 191.918 228.243C191.918 228.394 191.879 228.532 191.802 228.658C191.728 228.785 191.628 228.886 191.502 228.963C191.379 229.037 191.24 229.074 191.087 229.074Z" fill="white"/>
<path d="M121.416 129.109C121.346 128.867 121.248 128.654 121.122 128.468C120.996 128.279 120.842 128.12 120.66 127.991C120.481 127.858 120.275 127.757 120.043 127.688C119.815 127.618 119.561 127.583 119.283 127.583C118.762 127.583 118.305 127.712 117.911 127.971C117.52 128.229 117.215 128.606 116.996 129.099C116.777 129.59 116.668 130.19 116.668 130.899C116.668 131.608 116.775 132.212 116.991 132.709C117.206 133.206 117.511 133.585 117.906 133.847C118.3 134.106 118.766 134.235 119.303 134.235C119.79 134.235 120.206 134.149 120.551 133.977C120.899 133.801 121.164 133.554 121.346 133.236C121.532 132.918 121.624 132.541 121.624 132.107L122.062 132.172H119.437V130.551H123.698V131.834C123.698 132.729 123.509 133.498 123.131 134.141C122.753 134.78 122.233 135.274 121.57 135.622C120.907 135.967 120.148 136.139 119.293 136.139C118.338 136.139 117.5 135.929 116.777 135.508C116.055 135.084 115.491 134.482 115.087 133.703C114.686 132.921 114.485 131.993 114.485 130.919C114.485 130.094 114.605 129.358 114.843 128.712C115.085 128.062 115.423 127.512 115.857 127.061C116.292 126.61 116.797 126.267 117.374 126.032C117.95 125.797 118.575 125.679 119.248 125.679C119.825 125.679 120.362 125.763 120.859 125.933C121.356 126.098 121.797 126.334 122.181 126.638C122.569 126.943 122.886 127.306 123.131 127.727C123.376 128.145 123.534 128.606 123.603 129.109H121.416ZM125.753 136V128.364H127.871V136H125.753ZM126.817 127.379C126.502 127.379 126.232 127.275 126.007 127.066C125.785 126.854 125.674 126.6 125.674 126.305C125.674 126.014 125.785 125.763 126.007 125.555C126.232 125.343 126.502 125.237 126.817 125.237C127.132 125.237 127.401 125.343 127.623 125.555C127.848 125.763 127.961 126.014 127.961 126.305C127.961 126.6 127.848 126.854 127.623 127.066C127.401 127.275 127.132 127.379 126.817 127.379ZM133.63 128.364V129.955H129.031V128.364H133.63ZM130.075 126.534H132.193V133.653C132.193 133.849 132.223 134.001 132.282 134.111C132.342 134.217 132.425 134.291 132.531 134.335C132.64 134.378 132.766 134.399 132.909 134.399C133.008 134.399 133.108 134.391 133.207 134.374C133.306 134.354 133.383 134.339 133.436 134.33L133.769 135.906C133.663 135.939 133.514 135.977 133.321 136.02C133.129 136.066 132.895 136.094 132.62 136.104C132.11 136.124 131.662 136.056 131.278 135.901C130.897 135.745 130.6 135.503 130.388 135.175C130.176 134.847 130.072 134.432 130.075 133.932V126.534Z" fill="white"/>
<defs>
<clipPath id="clip0_103_1724">
<rect width="78.3561" height="75" fill="white" transform="translate(85.8383 30)"/>
</clipPath>
</defs>
</svg>
