<svg width="249" height="288" viewBox="0 0 249 288" fill="none" xmlns="http://www.w3.org/2000/svg">
<rect x="0.207611" width="248.65" height="288" rx="19" fill="#181823"/>
<path d="M53.7414 179V169.545H54.8863V173.756H59.9275V169.545H61.0723V179H59.9275V174.771H54.8863V179H53.7414ZM62.8474 170.561V169.545H69.9383V170.561H66.9653V179H65.8204V170.561H62.8474ZM71.7053 169.545H73.0717L76.2848 177.393H76.3956L79.6087 169.545H80.9751V179H79.9041V171.817H79.8118L76.8572 179H75.8231L72.8686 171.817H72.7763V179H71.7053V169.545ZM83.2707 179V169.545H84.4156V177.984H88.8105V179H83.2707ZM97.0647 179.148C96.3815 179.148 95.7921 178.997 95.2966 178.695C94.8042 178.391 94.4241 177.966 94.1563 177.421C93.8917 176.873 93.7593 176.236 93.7593 175.51C93.7593 174.784 93.8917 174.143 94.1563 173.589C94.4241 173.032 94.7965 172.598 95.2735 172.288C95.7536 171.974 96.3138 171.817 96.9539 171.817C97.3232 171.817 97.6879 171.878 98.048 172.001C98.4081 172.125 98.7359 172.325 99.0313 172.602C99.3268 172.875 99.5622 173.239 99.7377 173.691C99.9131 174.143 100.001 174.701 100.001 175.362V175.824H94.5349V174.882H98.8928C98.8928 174.482 98.8128 174.125 98.6528 173.811C98.4958 173.497 98.2712 173.249 97.9788 173.068C97.6895 172.886 97.3479 172.795 96.9539 172.795C96.52 172.795 96.1445 172.903 95.8275 173.119C95.5136 173.331 95.272 173.608 95.1027 173.95C94.9334 174.291 94.8488 174.657 94.8488 175.048V175.676C94.8488 176.212 94.9411 176.666 95.1258 177.038C95.3135 177.407 95.5736 177.689 95.906 177.883C96.2384 178.074 96.6246 178.169 97.0647 178.169C97.3509 178.169 97.6095 178.129 97.8403 178.049C98.0742 177.966 98.2758 177.843 98.445 177.68C98.6143 177.513 98.7451 177.307 98.8374 177.061L99.89 177.357C99.7792 177.714 99.593 178.027 99.3314 178.298C99.0698 178.566 98.7467 178.775 98.3619 178.926C97.9772 179.074 97.5448 179.148 97.0647 179.148ZM96.3999 170.949L97.5264 168.807H98.8005L97.3602 170.949H96.3999ZM109.783 176.101V171.909H110.873V179H109.783V177.8H109.709C109.543 178.16 109.285 178.466 108.934 178.718C108.583 178.968 108.14 179.092 107.604 179.092C107.161 179.092 106.767 178.995 106.422 178.801C106.078 178.605 105.807 178.309 105.61 177.915C105.413 177.518 105.314 177.018 105.314 176.415V171.909H106.404V176.341C106.404 176.858 106.548 177.27 106.838 177.578C107.13 177.886 107.503 178.04 107.955 178.04C108.226 178.04 108.501 177.971 108.781 177.832C109.064 177.694 109.301 177.481 109.492 177.195C109.686 176.909 109.783 176.544 109.783 176.101ZM112.868 179V171.909H113.921V173.017H114.013C114.161 172.638 114.399 172.345 114.729 172.135C115.058 171.923 115.453 171.817 115.915 171.817C116.383 171.817 116.772 171.923 117.083 172.135C117.397 172.345 117.642 172.638 117.817 173.017H117.891C118.072 172.651 118.345 172.36 118.708 172.145C119.071 171.926 119.507 171.817 120.014 171.817C120.648 171.817 121.167 172.015 121.57 172.412C121.973 172.806 122.175 173.42 122.175 174.254V179H121.085V174.254C121.085 173.731 120.942 173.357 120.656 173.132C120.37 172.908 120.033 172.795 119.645 172.795C119.146 172.795 118.76 172.946 118.486 173.248C118.212 173.546 118.075 173.925 118.075 174.384V179H116.968V174.143C116.968 173.74 116.837 173.416 116.575 173.169C116.314 172.92 115.976 172.795 115.564 172.795C115.281 172.795 115.016 172.871 114.77 173.022C114.527 173.172 114.33 173.382 114.179 173.65C114.031 173.914 113.958 174.22 113.958 174.568V179H112.868ZM126.254 179.166C125.804 179.166 125.396 179.082 125.03 178.912C124.664 178.74 124.373 178.492 124.158 178.169C123.942 177.843 123.835 177.449 123.835 176.987C123.835 176.581 123.915 176.252 124.075 175.999C124.235 175.744 124.449 175.544 124.716 175.399C124.984 175.254 125.279 175.147 125.603 175.076C125.929 175.002 126.257 174.944 126.586 174.901C127.017 174.845 127.366 174.804 127.634 174.776C127.905 174.745 128.102 174.694 128.225 174.624C128.351 174.553 128.414 174.43 128.414 174.254V174.217C128.414 173.762 128.289 173.408 128.04 173.156C127.794 172.903 127.42 172.777 126.918 172.777C126.398 172.777 125.99 172.891 125.695 173.119C125.399 173.346 125.192 173.589 125.072 173.848L124.038 173.479C124.222 173.048 124.469 172.712 124.776 172.472C125.087 172.229 125.426 172.06 125.792 171.964C126.161 171.866 126.524 171.817 126.881 171.817C127.109 171.817 127.371 171.844 127.666 171.9C127.965 171.952 128.252 172.061 128.529 172.228C128.81 172.394 129.042 172.645 129.227 172.98C129.411 173.316 129.504 173.765 129.504 174.328V179H128.414V178.04H128.359C128.285 178.194 128.162 178.358 127.989 178.534C127.817 178.709 127.588 178.858 127.301 178.982C127.015 179.105 126.666 179.166 126.254 179.166ZM126.42 178.188C126.851 178.188 127.214 178.103 127.509 177.934C127.808 177.764 128.032 177.546 128.183 177.278C128.337 177.01 128.414 176.729 128.414 176.433V175.436C128.368 175.491 128.266 175.542 128.109 175.588C127.955 175.632 127.777 175.67 127.574 175.704C127.374 175.735 127.178 175.762 126.988 175.787C126.8 175.808 126.647 175.827 126.531 175.842C126.247 175.879 125.983 175.939 125.737 176.022C125.493 176.102 125.296 176.224 125.146 176.387C124.998 176.547 124.924 176.766 124.924 177.043C124.924 177.421 125.064 177.707 125.344 177.901C125.627 178.092 125.986 178.188 126.42 178.188ZM136.238 169.545V179H135.148V169.545H136.238ZM138.233 179V171.909H139.323V179H138.233ZM138.787 170.727C138.575 170.727 138.392 170.655 138.238 170.51C138.087 170.366 138.012 170.192 138.012 169.989C138.012 169.786 138.087 169.612 138.238 169.467C138.392 169.322 138.575 169.25 138.787 169.25C139 169.25 139.181 169.322 139.332 169.467C139.486 169.612 139.563 169.786 139.563 169.989C139.563 170.192 139.486 170.366 139.332 170.51C139.181 170.655 139 170.727 138.787 170.727ZM142.408 174.734V179H141.318V171.909H142.371V173.017H142.463C142.629 172.657 142.882 172.368 143.22 172.149C143.559 171.928 143.996 171.817 144.531 171.817C145.011 171.817 145.432 171.915 145.792 172.112C146.152 172.306 146.432 172.602 146.632 172.999C146.832 173.393 146.932 173.891 146.932 174.494V179H145.842V174.568C145.842 174.011 145.698 173.577 145.408 173.266C145.119 172.952 144.722 172.795 144.217 172.795C143.87 172.795 143.559 172.871 143.285 173.022C143.014 173.172 142.8 173.393 142.643 173.682C142.486 173.971 142.408 174.322 142.408 174.734ZM151.785 181.807C151.259 181.807 150.806 181.739 150.428 181.604C150.049 181.471 149.734 181.296 149.481 181.077C149.232 180.862 149.034 180.631 148.886 180.385L149.754 179.776C149.852 179.905 149.977 180.053 150.128 180.219C150.278 180.388 150.485 180.534 150.746 180.657C151.011 180.783 151.357 180.847 151.785 180.847C152.357 180.847 152.83 180.708 153.202 180.431C153.575 180.154 153.761 179.72 153.761 179.129V177.689H153.668C153.588 177.818 153.475 177.978 153.327 178.169C153.182 178.357 152.973 178.525 152.699 178.672C152.428 178.817 152.062 178.889 151.6 178.889C151.028 178.889 150.514 178.754 150.058 178.483C149.606 178.212 149.247 177.818 148.983 177.301C148.721 176.784 148.59 176.156 148.59 175.418C148.59 174.691 148.718 174.059 148.974 173.52C149.229 172.979 149.584 172.56 150.04 172.265C150.495 171.966 151.022 171.817 151.619 171.817C152.08 171.817 152.447 171.894 152.718 172.048C152.991 172.198 153.201 172.371 153.345 172.565C153.493 172.755 153.607 172.912 153.687 173.036H153.798V171.909H154.85V179.203C154.85 179.812 154.712 180.308 154.435 180.69C154.161 181.074 153.792 181.356 153.327 181.534C152.865 181.716 152.351 181.807 151.785 181.807ZM151.748 177.911C152.185 177.911 152.554 177.81 152.856 177.61C153.158 177.41 153.387 177.123 153.544 176.747C153.701 176.372 153.779 175.922 153.779 175.399C153.779 174.888 153.702 174.437 153.548 174.047C153.395 173.656 153.167 173.349 152.865 173.128C152.564 172.906 152.191 172.795 151.748 172.795C151.286 172.795 150.902 172.912 150.594 173.146C150.289 173.38 150.06 173.694 149.906 174.088C149.755 174.482 149.68 174.919 149.68 175.399C149.68 175.892 149.757 176.327 149.911 176.706C150.068 177.081 150.298 177.377 150.603 177.592C150.911 177.804 151.293 177.911 151.748 177.911ZM161.313 176.101V171.909H162.403V179H161.313V177.8H161.24C161.073 178.16 160.815 178.466 160.464 178.718C160.113 178.968 159.67 179.092 159.134 179.092C158.691 179.092 158.297 178.995 157.953 178.801C157.608 178.605 157.337 178.309 157.14 177.915C156.943 177.518 156.845 177.018 156.845 176.415V171.909H157.934V176.341C157.934 176.858 158.079 177.27 158.368 177.578C158.66 177.886 159.033 178.04 159.485 178.04C159.756 178.04 160.032 177.971 160.312 177.832C160.595 177.694 160.832 177.481 161.023 177.195C161.216 176.909 161.313 176.544 161.313 176.101ZM166.485 179.166C166.036 179.166 165.628 179.082 165.262 178.912C164.895 178.74 164.605 178.492 164.389 178.169C164.174 177.843 164.066 177.449 164.066 176.987C164.066 176.581 164.146 176.252 164.306 175.999C164.466 175.744 164.68 175.544 164.948 175.399C165.215 175.254 165.511 175.147 165.834 175.076C166.16 175.002 166.488 174.944 166.817 174.901C167.248 174.845 167.598 174.804 167.865 174.776C168.136 174.745 168.333 174.694 168.456 174.624C168.582 174.553 168.646 174.43 168.646 174.254V174.217C168.646 173.762 168.521 173.408 168.272 173.156C168.025 172.903 167.651 172.777 167.15 172.777C166.63 172.777 166.222 172.891 165.926 173.119C165.631 173.346 165.423 173.589 165.303 173.848L164.269 173.479C164.454 173.048 164.7 172.712 165.008 172.472C165.319 172.229 165.657 172.06 166.023 171.964C166.393 171.866 166.756 171.817 167.113 171.817C167.341 171.817 167.602 171.844 167.898 171.9C168.196 171.952 168.484 172.061 168.761 172.228C169.041 172.394 169.273 172.645 169.458 172.98C169.643 173.316 169.735 173.765 169.735 174.328V179H168.646V178.04H168.59C168.516 178.194 168.393 178.358 168.221 178.534C168.048 178.709 167.819 178.858 167.533 178.982C167.247 179.105 166.897 179.166 166.485 179.166ZM166.651 178.188C167.082 178.188 167.445 178.103 167.741 177.934C168.039 177.764 168.264 177.546 168.415 177.278C168.569 177.01 168.646 176.729 168.646 176.433V175.436C168.599 175.491 168.498 175.542 168.341 175.588C168.187 175.632 168.008 175.67 167.805 175.704C167.605 175.735 167.41 175.762 167.219 175.787C167.031 175.808 166.879 175.827 166.762 175.842C166.479 175.879 166.214 175.939 165.968 176.022C165.725 176.102 165.528 176.224 165.377 176.387C165.229 176.547 165.155 176.766 165.155 177.043C165.155 177.421 165.295 177.707 165.576 177.901C165.859 178.092 166.217 178.188 166.651 178.188ZM174.586 181.807C174.059 181.807 173.607 181.739 173.229 181.604C172.85 181.471 172.534 181.296 172.282 181.077C172.033 180.862 171.834 180.631 171.687 180.385L172.555 179.776C172.653 179.905 172.778 180.053 172.928 180.219C173.079 180.388 173.285 180.534 173.547 180.657C173.812 180.783 174.158 180.847 174.586 180.847C175.158 180.847 175.631 180.708 176.003 180.431C176.375 180.154 176.562 179.72 176.562 179.129V177.689H176.469C176.389 177.818 176.275 177.978 176.128 178.169C175.983 178.357 175.774 178.525 175.5 178.672C175.229 178.817 174.863 178.889 174.401 178.889C173.829 178.889 173.315 178.754 172.859 178.483C172.407 178.212 172.048 177.818 171.784 177.301C171.522 176.784 171.391 176.156 171.391 175.418C171.391 174.691 171.519 174.059 171.774 173.52C172.03 172.979 172.385 172.56 172.841 172.265C173.296 171.966 173.822 171.817 174.42 171.817C174.881 171.817 175.247 171.894 175.518 172.048C175.792 172.198 176.001 172.371 176.146 172.565C176.294 172.755 176.408 172.912 176.488 173.036H176.599V171.909H177.651V179.203C177.651 179.812 177.513 180.308 177.236 180.69C176.962 181.074 176.592 181.356 176.128 181.534C175.666 181.716 175.152 181.807 174.586 181.807ZM174.549 177.911C174.986 177.911 175.355 177.81 175.657 177.61C175.958 177.41 176.188 177.123 176.345 176.747C176.502 176.372 176.58 175.922 176.58 175.399C176.58 174.888 176.503 174.437 176.349 174.047C176.195 173.656 175.968 173.349 175.666 173.128C175.364 172.906 174.992 172.795 174.549 172.795C174.087 172.795 173.702 172.912 173.395 173.146C173.09 173.38 172.861 173.694 172.707 174.088C172.556 174.482 172.481 174.919 172.481 175.399C172.481 175.892 172.558 176.327 172.711 176.706C172.868 177.081 173.099 177.377 173.404 177.592C173.712 177.804 174.093 177.911 174.549 177.911ZM182.618 179.148C181.935 179.148 181.346 178.997 180.85 178.695C180.358 178.391 179.978 177.966 179.71 177.421C179.445 176.873 179.313 176.236 179.313 175.51C179.313 174.784 179.445 174.143 179.71 173.589C179.978 173.032 180.35 172.598 180.827 172.288C181.307 171.974 181.867 171.817 182.508 171.817C182.877 171.817 183.242 171.878 183.602 172.001C183.962 172.125 184.29 172.325 184.585 172.602C184.88 172.875 185.116 173.239 185.291 173.691C185.467 174.143 185.555 174.701 185.555 175.362V175.824H180.089V174.882H184.447C184.447 174.482 184.367 174.125 184.206 173.811C184.05 173.497 183.825 173.249 183.532 173.068C183.243 172.886 182.902 172.795 182.508 172.795C182.074 172.795 181.698 172.903 181.381 173.119C181.067 173.331 180.826 173.608 180.656 173.95C180.487 174.291 180.403 174.657 180.403 175.048V175.676C180.403 176.212 180.495 176.666 180.68 177.038C180.867 177.407 181.127 177.689 181.46 177.883C181.792 178.074 182.178 178.169 182.618 178.169C182.905 178.169 183.163 178.129 183.394 178.049C183.628 177.966 183.829 177.843 183.999 177.68C184.168 177.513 184.299 177.307 184.391 177.061L185.444 177.357C185.333 177.714 185.147 178.027 184.885 178.298C184.624 178.566 184.3 178.775 183.916 178.926C183.531 179.074 183.099 179.148 182.618 179.148ZM187.212 179V171.909H188.264V173.017H188.357C188.504 172.638 188.743 172.345 189.072 172.135C189.402 171.923 189.797 171.817 190.259 171.817C190.726 171.817 191.116 171.923 191.427 172.135C191.741 172.345 191.985 172.638 192.161 173.017H192.235C192.416 172.651 192.689 172.36 193.052 172.145C193.415 171.926 193.85 171.817 194.358 171.817C194.992 171.817 195.511 172.015 195.914 172.412C196.317 172.806 196.519 173.42 196.519 174.254V179H195.429V174.254C195.429 173.731 195.286 173.357 195 173.132C194.714 172.908 194.377 172.795 193.989 172.795C193.49 172.795 193.104 172.946 192.83 173.248C192.556 173.546 192.419 173.925 192.419 174.384V179H191.311V174.143C191.311 173.74 191.18 173.416 190.919 173.169C190.657 172.92 190.32 172.795 189.908 172.795C189.625 172.795 189.36 172.871 189.114 173.022C188.871 173.172 188.674 173.382 188.523 173.65C188.375 173.914 188.301 174.22 188.301 174.568V179H187.212ZM61.5207 195.148C60.9298 195.148 60.4082 194.998 59.9557 194.7C59.5033 194.398 59.1494 193.974 58.8939 193.426C58.6385 192.875 58.5108 192.224 58.5108 191.473C58.5108 190.728 58.6385 190.082 58.8939 189.534C59.1494 188.986 59.5049 188.563 59.9604 188.265C60.4158 187.966 60.9421 187.817 61.5392 187.817C62.0008 187.817 62.3655 187.894 62.6333 188.048C62.9041 188.198 63.1103 188.371 63.2519 188.565C63.3966 188.755 63.5089 188.912 63.5889 189.036H63.6812V185.545H64.7707V195H63.7182V193.911H63.5889C63.5089 194.04 63.395 194.203 63.2473 194.4C63.0996 194.594 62.8887 194.768 62.6148 194.922C62.3409 195.072 61.9762 195.148 61.5207 195.148ZM61.6685 194.169C62.1055 194.169 62.4748 194.055 62.7764 193.827C63.078 193.597 63.3073 193.278 63.4643 192.872C63.6212 192.462 63.6997 191.99 63.6997 191.455C63.6997 190.925 63.6228 190.462 63.4689 190.065C63.315 189.665 63.0872 189.354 62.7856 189.132C62.484 188.908 62.1116 188.795 61.6685 188.795C61.2068 188.795 60.8221 188.914 60.5143 189.151C60.2096 189.385 59.9804 189.703 59.8265 190.107C59.6757 190.507 59.6003 190.956 59.6003 191.455C59.6003 191.959 59.6772 192.418 59.8311 192.83C59.9881 193.24 60.2189 193.566 60.5236 193.809C60.8313 194.049 61.213 194.169 61.6685 194.169ZM69.8904 195.148C69.2072 195.148 68.6178 194.997 68.1223 194.695C67.6299 194.391 67.2498 193.966 66.982 193.421C66.7173 192.873 66.585 192.236 66.585 191.51C66.585 190.784 66.7173 190.143 66.982 189.589C67.2498 189.032 67.6222 188.598 68.0992 188.288C68.5793 187.974 69.1395 187.817 69.7796 187.817C70.1489 187.817 70.5136 187.878 70.8737 188.001C71.2338 188.125 71.5616 188.325 71.857 188.602C72.1525 188.875 72.3879 189.239 72.5633 189.691C72.7388 190.143 72.8265 190.701 72.8265 191.362V191.824H67.3606V190.882H71.7185C71.7185 190.482 71.6385 190.125 71.4785 189.811C71.3215 189.497 71.0968 189.249 70.8045 189.068C70.5152 188.886 70.1735 188.795 69.7796 188.795C69.3457 188.795 68.9702 188.903 68.6532 189.119C68.3393 189.331 68.0977 189.608 67.9284 189.95C67.7591 190.291 67.6745 190.657 67.6745 191.048V191.676C67.6745 192.212 67.7668 192.666 67.9515 193.038C68.1392 193.407 68.3993 193.689 68.7317 193.883C69.064 194.074 69.4503 194.169 69.8904 194.169C70.1766 194.169 70.4351 194.129 70.666 194.049C70.8999 193.966 71.1015 193.843 71.2707 193.68C71.44 193.513 71.5708 193.307 71.6631 193.061L72.7157 193.357C72.6049 193.714 72.4187 194.027 72.1571 194.298C71.8955 194.566 71.5723 194.775 71.1876 194.926C70.8029 195.074 70.3705 195.148 69.8904 195.148ZM78.14 195V187.909H79.1926V189.017H79.2849C79.4327 188.638 79.6712 188.345 80.0005 188.135C80.3298 187.923 80.7253 187.817 81.1869 187.817C81.6547 187.817 82.044 187.923 82.3549 188.135C82.6688 188.345 82.9135 188.638 83.0889 189.017H83.1628C83.3444 188.651 83.6167 188.36 83.9799 188.145C84.343 187.926 84.7785 187.817 85.2863 187.817C85.9203 187.817 86.4389 188.015 86.8421 188.412C87.2453 188.806 87.4469 189.42 87.4469 190.254V195H86.3574V190.254C86.3574 189.731 86.2143 189.357 85.928 189.132C85.6418 188.908 85.3048 188.795 84.917 188.795C84.4185 188.795 84.0322 188.946 83.7583 189.248C83.4844 189.546 83.3474 189.925 83.3474 190.384V195H82.2395V190.143C82.2395 189.74 82.1087 189.416 81.8471 189.169C81.5855 188.92 81.2485 188.795 80.8361 188.795C80.5529 188.795 80.2882 188.871 80.042 189.022C79.7989 189.172 79.6019 189.382 79.4511 189.65C79.3034 189.914 79.2295 190.22 79.2295 190.568V195H78.14ZM91.5255 195.166C91.0762 195.166 90.6684 195.082 90.3022 194.912C89.9359 194.74 89.6451 194.492 89.4296 194.169C89.2142 193.843 89.1065 193.449 89.1065 192.987C89.1065 192.581 89.1865 192.252 89.3465 191.999C89.5066 191.744 89.7205 191.544 89.9882 191.399C90.256 191.254 90.5514 191.147 90.8746 191.076C91.2008 191.002 91.5286 190.944 91.8579 190.901C92.2888 190.845 92.6381 190.804 92.9058 190.776C93.1767 190.745 93.3736 190.694 93.4968 190.624C93.6229 190.553 93.686 190.43 93.686 190.254V190.217C93.686 189.762 93.5614 189.408 93.3121 189.156C93.0659 188.903 92.6919 188.777 92.1903 188.777C91.6702 188.777 91.2624 188.891 90.9669 189.119C90.6715 189.346 90.4637 189.589 90.3437 189.848L89.3096 189.479C89.4943 189.048 89.7405 188.712 90.0482 188.472C90.3591 188.229 90.6976 188.06 91.0639 187.964C91.4332 187.866 91.7964 187.817 92.1534 187.817C92.3811 187.817 92.6427 187.844 92.9382 187.9C93.2367 187.952 93.5245 188.061 93.8014 188.228C94.0815 188.394 94.3139 188.645 94.4985 188.98C94.6832 189.316 94.7755 189.765 94.7755 190.328V195H93.686V194.04H93.6306C93.5568 194.194 93.4337 194.358 93.2613 194.534C93.089 194.709 92.8597 194.858 92.5735 194.982C92.2872 195.105 91.9379 195.166 91.5255 195.166ZM91.6917 194.188C92.1226 194.188 92.4857 194.103 92.7812 193.934C93.0797 193.764 93.3044 193.546 93.4552 193.278C93.6091 193.01 93.686 192.729 93.686 192.433V191.436C93.6399 191.491 93.5383 191.542 93.3813 191.588C93.2275 191.632 93.049 191.67 92.8458 191.704C92.6458 191.735 92.4504 191.762 92.2595 191.787C92.0718 191.808 91.9195 191.827 91.8025 191.842C91.5194 191.879 91.2547 191.939 91.0085 192.022C90.7653 192.102 90.5684 192.224 90.4176 192.387C90.2698 192.547 90.196 192.766 90.196 193.043C90.196 193.421 90.336 193.707 90.6161 193.901C90.8992 194.092 91.2578 194.188 91.6917 194.188ZM96.7641 195V187.909H97.8166V188.98H97.8905C98.0197 188.629 98.2536 188.345 98.5922 188.126C98.9307 187.908 99.3124 187.798 99.7371 187.798C99.8171 187.798 99.9171 187.8 100.037 187.803C100.157 187.806 100.248 187.811 100.31 187.817V188.925C100.273 188.915 100.188 188.902 100.056 188.883C99.9264 188.862 99.7894 188.851 99.6447 188.851C99.3001 188.851 98.9923 188.923 98.7215 189.068C98.4537 189.209 98.2413 189.406 98.0844 189.659C97.9305 189.908 97.8536 190.193 97.8536 190.513V195H96.7641ZM104.266 195.148C103.601 195.148 103.029 194.991 102.549 194.677C102.068 194.363 101.699 193.931 101.441 193.38C101.182 192.829 101.053 192.199 101.053 191.491C101.053 190.771 101.185 190.136 101.45 189.585C101.718 189.031 102.09 188.598 102.567 188.288C103.047 187.974 103.607 187.817 104.247 187.817C104.746 187.817 105.195 187.909 105.595 188.094C105.995 188.278 106.323 188.537 106.579 188.869C106.834 189.202 106.993 189.589 107.054 190.033H105.965C105.882 189.71 105.697 189.423 105.411 189.174C105.128 188.922 104.746 188.795 104.266 188.795C103.841 188.795 103.469 188.906 103.149 189.128C102.832 189.346 102.584 189.656 102.405 190.056C102.23 190.453 102.142 190.919 102.142 191.455C102.142 192.002 102.228 192.479 102.401 192.886C102.576 193.292 102.822 193.607 103.139 193.832C103.459 194.057 103.835 194.169 104.266 194.169C104.549 194.169 104.806 194.12 105.037 194.021C105.268 193.923 105.463 193.781 105.623 193.597C105.783 193.412 105.897 193.19 105.965 192.932H107.054C106.993 193.35 106.84 193.727 106.597 194.063C106.357 194.395 106.039 194.66 105.642 194.857C105.248 195.051 104.789 195.148 104.266 195.148ZM110.734 195.166C110.284 195.166 109.876 195.082 109.51 194.912C109.144 194.74 108.853 194.492 108.638 194.169C108.422 193.843 108.314 193.449 108.314 192.987C108.314 192.581 108.395 192.252 108.555 191.999C108.715 191.744 108.928 191.544 109.196 191.399C109.464 191.254 109.759 191.147 110.083 191.076C110.409 191.002 110.737 190.944 111.066 190.901C111.497 190.845 111.846 190.804 112.114 190.776C112.385 190.745 112.582 190.694 112.705 190.624C112.831 190.553 112.894 190.43 112.894 190.254V190.217C112.894 189.762 112.769 189.408 112.52 189.156C112.274 188.903 111.9 188.777 111.398 188.777C110.878 188.777 110.47 188.891 110.175 189.119C109.879 189.346 109.672 189.589 109.552 189.848L108.518 189.479C108.702 189.048 108.948 188.712 109.256 188.472C109.567 188.229 109.906 188.06 110.272 187.964C110.641 187.866 111.004 187.817 111.361 187.817C111.589 187.817 111.851 187.844 112.146 187.9C112.445 187.952 112.732 188.061 113.009 188.228C113.29 188.394 113.522 188.645 113.707 188.98C113.891 189.316 113.984 189.765 113.984 190.328V195H112.894V194.04H112.839C112.765 194.194 112.642 194.358 112.469 194.534C112.297 194.709 112.068 194.858 111.781 194.982C111.495 195.105 111.146 195.166 110.734 195.166ZM110.9 194.188C111.331 194.188 111.694 194.103 111.989 193.934C112.288 193.764 112.512 193.546 112.663 193.278C112.817 193.01 112.894 192.729 112.894 192.433V191.436C112.848 191.491 112.746 191.542 112.589 191.588C112.435 191.632 112.257 191.67 112.054 191.704C111.854 191.735 111.658 191.762 111.468 191.787C111.28 191.808 111.127 191.827 111.011 191.842C110.727 191.879 110.463 191.939 110.216 192.022C109.973 192.102 109.776 192.224 109.626 192.387C109.478 192.547 109.404 192.766 109.404 193.043C109.404 193.421 109.544 193.707 109.824 193.901C110.107 194.092 110.466 194.188 110.9 194.188ZM118.853 195.148C118.188 195.148 117.616 194.991 117.135 194.677C116.655 194.363 116.286 193.931 116.027 193.38C115.769 192.829 115.64 192.199 115.64 191.491C115.64 190.771 115.772 190.136 116.037 189.585C116.304 189.031 116.677 188.598 117.154 188.288C117.634 187.974 118.194 187.817 118.834 187.817C119.333 187.817 119.782 187.909 120.182 188.094C120.582 188.278 120.91 188.537 121.166 188.869C121.421 189.202 121.58 189.589 121.641 190.033H120.552C120.469 189.71 120.284 189.423 119.998 189.174C119.714 188.922 119.333 188.795 118.853 188.795C118.428 188.795 118.056 188.906 117.736 189.128C117.419 189.346 117.171 189.656 116.992 190.056C116.817 190.453 116.729 190.919 116.729 191.455C116.729 192.002 116.815 192.479 116.988 192.886C117.163 193.292 117.409 193.607 117.726 193.832C118.046 194.057 118.422 194.169 118.853 194.169C119.136 194.169 119.393 194.12 119.624 194.021C119.855 193.923 120.05 193.781 120.21 193.597C120.37 193.412 120.484 193.19 120.552 192.932H121.641C121.58 193.35 121.427 193.727 121.184 194.063C120.944 194.395 120.625 194.66 120.228 194.857C119.835 195.051 119.376 195.148 118.853 195.148ZM118.336 194.963H119.241L119.167 195.332C119.407 195.369 119.627 195.469 119.827 195.632C120.027 195.799 120.127 196.062 120.127 196.422C120.127 196.819 119.962 197.142 119.633 197.391C119.307 197.644 118.825 197.77 118.188 197.77L118.151 197.05C118.437 197.05 118.674 197.004 118.862 196.911C119.053 196.822 119.148 196.671 119.148 196.459C119.148 196.246 119.07 196.102 118.913 196.025C118.756 195.948 118.502 195.896 118.151 195.868L118.336 194.963ZM125.32 195.166C124.871 195.166 124.463 195.082 124.097 194.912C123.731 194.74 123.44 194.492 123.225 194.169C123.009 193.843 122.901 193.449 122.901 192.987C122.901 192.581 122.981 192.252 123.141 191.999C123.302 191.744 123.515 191.544 123.783 191.399C124.051 191.254 124.346 191.147 124.67 191.076C124.996 191.002 125.324 190.944 125.653 190.901C126.084 190.845 126.433 190.804 126.701 190.776C126.972 190.745 127.169 190.694 127.292 190.624C127.418 190.553 127.481 190.43 127.481 190.254V190.217C127.481 189.762 127.356 189.408 127.107 189.156C126.861 188.903 126.487 188.777 125.985 188.777C125.465 188.777 125.057 188.891 124.762 189.119C124.466 189.346 124.259 189.589 124.139 189.848L123.105 189.479C123.289 189.048 123.535 188.712 123.843 188.472C124.154 188.229 124.493 188.06 124.859 187.964C125.228 187.866 125.591 187.817 125.948 187.817C126.176 187.817 126.438 187.844 126.733 187.9C127.032 187.952 127.319 188.061 127.596 188.228C127.876 188.394 128.109 188.645 128.293 188.98C128.478 189.316 128.57 189.765 128.57 190.328V195H127.481V194.04H127.426C127.352 194.194 127.229 194.358 127.056 194.534C126.884 194.709 126.655 194.858 126.368 194.982C126.082 195.105 125.733 195.166 125.32 195.166ZM125.487 194.188C125.918 194.188 126.281 194.103 126.576 193.934C126.875 193.764 127.099 193.546 127.25 193.278C127.404 193.01 127.481 192.729 127.481 192.433V191.436C127.435 191.491 127.333 191.542 127.176 191.588C127.022 191.632 126.844 191.67 126.641 191.704C126.441 191.735 126.245 191.762 126.054 191.787C125.867 191.808 125.714 191.827 125.597 191.842C125.314 191.879 125.05 191.939 124.803 192.022C124.56 192.102 124.363 192.224 124.212 192.387C124.065 192.547 123.991 192.766 123.991 193.043C123.991 193.421 124.131 193.707 124.411 193.901C124.694 194.092 125.053 194.188 125.487 194.188ZM124.6 187.06L123.751 187.023C123.751 186.552 123.885 186.167 124.152 185.869C124.423 185.567 124.757 185.416 125.154 185.416C125.33 185.416 125.485 185.447 125.621 185.509C125.756 185.567 125.885 185.635 126.008 185.712C126.131 185.789 126.258 185.858 126.387 185.919C126.519 185.978 126.668 186.007 126.835 186.007C127.01 186.007 127.158 185.939 127.278 185.804C127.401 185.665 127.462 185.499 127.462 185.305L128.293 185.379C128.293 185.859 128.158 186.241 127.887 186.524C127.619 186.807 127.287 186.949 126.89 186.949C126.678 186.949 126.502 186.92 126.364 186.861C126.225 186.8 126.102 186.73 125.994 186.653C125.887 186.576 125.773 186.509 125.653 186.45C125.533 186.389 125.385 186.358 125.21 186.358C125.034 186.358 124.888 186.427 124.771 186.566C124.657 186.701 124.6 186.866 124.6 187.06ZM133.44 195.148C132.8 195.148 132.238 194.995 131.755 194.691C131.275 194.386 130.899 193.96 130.628 193.412C130.36 192.864 130.227 192.224 130.227 191.491C130.227 190.753 130.36 190.108 130.628 189.557C130.899 189.006 131.275 188.578 131.755 188.274C132.238 187.969 132.8 187.817 133.44 187.817C134.08 187.817 134.64 187.969 135.12 188.274C135.603 188.578 135.979 189.006 136.246 189.557C136.517 190.108 136.653 190.753 136.653 191.491C136.653 192.224 136.517 192.864 136.246 193.412C135.979 193.96 135.603 194.386 135.12 194.691C134.64 194.995 134.08 195.148 133.44 195.148ZM133.44 194.169C133.926 194.169 134.326 194.044 134.64 193.795C134.954 193.546 135.186 193.218 135.337 192.812C135.488 192.406 135.563 191.965 135.563 191.491C135.563 191.018 135.488 190.576 135.337 190.167C135.186 189.757 134.954 189.426 134.64 189.174C134.326 188.922 133.926 188.795 133.44 188.795C132.953 188.795 132.553 188.922 132.239 189.174C131.925 189.426 131.693 189.757 131.542 190.167C131.391 190.576 131.316 191.018 131.316 191.491C131.316 191.965 131.391 192.406 131.542 192.812C131.693 193.218 131.925 193.546 132.239 193.795C132.553 194.044 132.953 194.169 133.44 194.169ZM146.441 192.101V187.909H147.53V195H146.441V193.8H146.367C146.201 194.16 145.942 194.466 145.591 194.718C145.241 194.968 144.797 195.092 144.262 195.092C143.819 195.092 143.425 194.995 143.08 194.801C142.735 194.605 142.464 194.309 142.268 193.915C142.071 193.518 141.972 193.018 141.972 192.415V187.909H143.062V192.341C143.062 192.858 143.206 193.27 143.496 193.578C143.788 193.886 144.16 194.04 144.613 194.04C144.884 194.04 145.159 193.971 145.439 193.832C145.722 193.694 145.959 193.481 146.15 193.195C146.344 192.909 146.441 192.544 146.441 192.101ZM152.61 187.909V188.832H148.935V187.909H152.61ZM150.006 186.21H151.095V192.969C151.095 193.277 151.14 193.507 151.229 193.661C151.322 193.812 151.439 193.914 151.58 193.966C151.725 194.015 151.877 194.04 152.037 194.04C152.157 194.04 152.256 194.034 152.333 194.021C152.41 194.006 152.471 193.994 152.517 193.984L152.739 194.963C152.665 194.991 152.562 195.018 152.43 195.046C152.297 195.077 152.129 195.092 151.926 195.092C151.619 195.092 151.317 195.026 151.022 194.894C150.729 194.761 150.486 194.56 150.292 194.289C150.101 194.018 150.006 193.677 150.006 193.264V186.21ZM154.248 195V187.909H155.338V195H154.248ZM154.802 186.727C154.59 186.727 154.407 186.655 154.253 186.51C154.102 186.366 154.027 186.192 154.027 185.989C154.027 185.786 154.102 185.612 154.253 185.467C154.407 185.322 154.59 185.25 154.802 185.25C155.015 185.25 155.196 185.322 155.347 185.467C155.501 185.612 155.578 185.786 155.578 185.989C155.578 186.192 155.501 186.366 155.347 186.51C155.196 186.655 155.015 186.727 154.802 186.727ZM158.423 185.545V195H157.333V185.545H158.423ZM160.418 195V187.909H161.508V195H160.418ZM160.972 186.727C160.76 186.727 160.577 186.655 160.423 186.51C160.272 186.366 160.197 186.192 160.197 185.989C160.197 185.786 160.272 185.612 160.423 185.467C160.577 185.322 160.76 185.25 160.972 185.25C161.185 185.25 161.366 185.322 161.517 185.467C161.671 185.612 161.748 185.786 161.748 185.989C161.748 186.192 161.671 186.366 161.517 186.51C161.366 186.655 161.185 186.727 160.972 186.727ZM163.3 195V194.169L167.326 188.999V188.925H163.429V187.909H168.729V188.777L164.814 193.911V193.984H168.858V195H163.3ZM172.623 195.166C172.174 195.166 171.766 195.082 171.4 194.912C171.034 194.74 170.743 194.492 170.527 194.169C170.312 193.843 170.204 193.449 170.204 192.987C170.204 192.581 170.284 192.252 170.444 191.999C170.604 191.744 170.818 191.544 171.086 191.399C171.354 191.254 171.649 191.147 171.972 191.076C172.298 191.002 172.626 190.944 172.956 190.901C173.386 190.845 173.736 190.804 174.004 190.776C174.274 190.745 174.471 190.694 174.594 190.624C174.721 190.553 174.784 190.43 174.784 190.254V190.217C174.784 189.762 174.659 189.408 174.41 189.156C174.164 188.903 173.79 188.777 173.288 188.777C172.768 188.777 172.36 188.891 172.065 189.119C171.769 189.346 171.561 189.589 171.441 189.848L170.407 189.479C170.592 189.048 170.838 188.712 171.146 188.472C171.457 188.229 171.795 188.06 172.162 187.964C172.531 187.866 172.894 187.817 173.251 187.817C173.479 187.817 173.74 187.844 174.036 187.9C174.334 187.952 174.622 188.061 174.899 188.228C175.179 188.394 175.412 188.645 175.596 188.98C175.781 189.316 175.873 189.765 175.873 190.328V195H174.784V194.04H174.728C174.654 194.194 174.531 194.358 174.359 194.534C174.187 194.709 173.957 194.858 173.671 194.982C173.385 195.105 173.036 195.166 172.623 195.166ZM172.789 194.188C173.22 194.188 173.583 194.103 173.879 193.934C174.177 193.764 174.402 193.546 174.553 193.278C174.707 193.01 174.784 192.729 174.784 192.433V191.436C174.738 191.491 174.636 191.542 174.479 191.588C174.325 191.632 174.147 191.67 173.943 191.704C173.743 191.735 173.548 191.762 173.357 191.787C173.169 191.808 173.017 191.827 172.9 191.842C172.617 191.879 172.352 191.939 172.106 192.022C171.863 192.102 171.666 192.224 171.515 192.387C171.367 192.547 171.294 192.766 171.294 193.043C171.294 193.421 171.434 193.707 171.714 193.901C171.997 194.092 172.355 194.188 172.789 194.188ZM180.539 195.148C179.948 195.148 179.427 194.998 178.974 194.7C178.522 194.398 178.168 193.974 177.913 193.426C177.657 192.875 177.529 192.224 177.529 191.473C177.529 190.728 177.657 190.082 177.913 189.534C178.168 188.986 178.523 188.563 178.979 188.265C179.434 187.966 179.961 187.817 180.558 187.817C181.019 187.817 181.384 187.894 181.652 188.048C181.923 188.198 182.129 188.371 182.27 188.565C182.415 188.755 182.527 188.912 182.607 189.036H182.7V185.545H183.789V195H182.737V193.911H182.607C182.527 194.04 182.414 194.203 182.266 194.4C182.118 194.594 181.907 194.768 181.633 194.922C181.359 195.072 180.995 195.148 180.539 195.148ZM180.687 194.169C181.124 194.169 181.493 194.055 181.795 193.827C182.097 193.597 182.326 193.278 182.483 192.872C182.64 192.462 182.718 191.99 182.718 191.455C182.718 190.925 182.641 190.462 182.487 190.065C182.334 189.665 182.106 189.354 181.804 189.132C181.503 188.908 181.13 188.795 180.687 188.795C180.225 188.795 179.841 188.914 179.533 189.151C179.228 189.385 178.999 189.703 178.845 190.107C178.694 190.507 178.619 190.956 178.619 191.455C178.619 191.959 178.696 192.418 178.85 192.83C179.007 193.24 179.237 193.566 179.542 193.809C179.85 194.049 180.232 194.169 180.687 194.169ZM188.023 195.166C187.573 195.166 187.165 195.082 186.799 194.912C186.433 194.74 186.142 194.492 185.927 194.169C185.711 193.843 185.604 193.449 185.604 192.987C185.604 192.581 185.684 192.252 185.844 191.999C186.004 191.744 186.218 191.544 186.485 191.399C186.753 191.254 187.049 191.147 187.372 191.076C187.698 191.002 188.026 190.944 188.355 190.901C188.786 190.845 189.135 190.804 189.403 190.776C189.674 190.745 189.871 190.694 189.994 190.624C190.12 190.553 190.183 190.43 190.183 190.254V190.217C190.183 189.762 190.058 189.408 189.809 189.156C189.563 188.903 189.189 188.777 188.687 188.777C188.167 188.777 187.759 188.891 187.464 189.119C187.169 189.346 186.961 189.589 186.841 189.848L185.807 189.479C185.991 189.048 186.238 188.712 186.545 188.472C186.856 188.229 187.195 188.06 187.561 187.964C187.93 187.866 188.293 187.817 188.65 187.817C188.878 187.817 189.14 187.844 189.435 187.9C189.734 187.952 190.022 188.061 190.299 188.228C190.579 188.394 190.811 188.645 190.996 188.98C191.18 189.316 191.273 189.765 191.273 190.328V195H190.183V194.04H190.128C190.054 194.194 189.931 194.358 189.758 194.534C189.586 194.709 189.357 194.858 189.071 194.982C188.784 195.105 188.435 195.166 188.023 195.166ZM188.189 194.188C188.62 194.188 188.983 194.103 189.278 193.934C189.577 193.764 189.801 193.546 189.952 193.278C190.106 193.01 190.183 192.729 190.183 192.433V191.436C190.137 191.491 190.035 191.542 189.878 191.588C189.725 191.632 189.546 191.67 189.343 191.704C189.143 191.735 188.947 191.762 188.757 191.787C188.569 191.808 188.417 191.827 188.3 191.842C188.016 191.879 187.752 191.939 187.506 192.022C187.262 192.102 187.065 192.224 186.915 192.387C186.767 192.547 186.693 192.766 186.693 193.043C186.693 193.421 186.833 193.707 187.113 193.901C187.396 194.092 187.755 194.188 188.189 194.188ZM81.5845 206.734V211H80.495V203.909H81.5476V205.017H81.6399C81.8061 204.657 82.0585 204.368 82.397 204.149C82.7356 203.928 83.1726 203.817 83.7081 203.817C84.1882 203.817 84.6083 203.915 84.9684 204.112C85.3285 204.306 85.6085 204.602 85.8086 204.999C86.0086 205.393 86.1087 205.891 86.1087 206.494V211H85.0192V206.568C85.0192 206.011 84.8745 205.577 84.5852 205.266C84.2959 204.952 83.8989 204.795 83.3942 204.795C83.0464 204.795 82.7356 204.871 82.4616 205.022C82.1908 205.172 81.9769 205.393 81.82 205.682C81.663 205.971 81.5845 206.322 81.5845 206.734ZM90.1862 211.166C89.7368 211.166 89.329 211.082 88.9628 210.912C88.5966 210.74 88.3057 210.492 88.0903 210.169C87.8748 209.843 87.7671 209.449 87.7671 208.987C87.7671 208.581 87.8471 208.252 88.0072 207.999C88.1672 207.744 88.3811 207.544 88.6489 207.399C88.9166 207.254 89.2121 207.147 89.5352 207.076C89.8615 207.002 90.1892 206.944 90.5185 206.901C90.9494 206.845 91.2987 206.804 91.5665 206.776C91.8373 206.745 92.0343 206.694 92.1574 206.624C92.2836 206.553 92.3467 206.43 92.3467 206.254V206.217C92.3467 205.762 92.222 205.408 91.9727 205.156C91.7265 204.903 91.3526 204.777 90.8509 204.777C90.3308 204.777 89.923 204.891 89.6276 205.119C89.3321 205.346 89.1244 205.589 89.0043 205.848L87.9703 205.479C88.1549 205.048 88.4011 204.712 88.7089 204.472C89.0197 204.229 89.3583 204.06 89.7245 203.964C90.0938 203.866 90.457 203.817 90.814 203.817C91.0418 203.817 91.3034 203.844 91.5988 203.9C91.8973 203.952 92.1851 204.061 92.4621 204.228C92.7422 204.394 92.9745 204.645 93.1592 204.98C93.3438 205.316 93.4362 205.765 93.4362 206.328V211H92.3467V210.04H92.2913C92.2174 210.194 92.0943 210.358 91.922 210.534C91.7496 210.709 91.5203 210.858 91.2341 210.982C90.9479 211.105 90.5986 211.166 90.1862 211.166ZM90.3524 210.188C90.7832 210.188 91.1464 210.103 91.4418 209.934C91.7404 209.764 91.965 209.546 92.1159 209.278C92.2697 209.01 92.3467 208.729 92.3467 208.433V207.436C92.3005 207.491 92.1989 207.542 92.042 207.588C91.8881 207.632 91.7096 207.67 91.5065 207.704C91.3064 207.735 91.111 207.762 90.9202 207.787C90.7324 207.808 90.5801 207.827 90.4632 207.842C90.18 207.879 89.9153 207.939 89.6691 208.022C89.426 208.102 89.229 208.224 89.0782 208.387C88.9305 208.547 88.8566 208.766 88.8566 209.043C88.8566 209.421 88.9967 209.707 89.2767 209.901C89.5599 210.092 89.9184 210.188 90.3524 210.188ZM101.962 211.148C101.297 211.148 100.724 210.991 100.244 210.677C99.7642 210.363 99.3949 209.931 99.1364 209.38C98.8778 208.829 98.7486 208.199 98.7486 207.491C98.7486 206.771 98.8809 206.136 99.1456 205.585C99.4133 205.031 99.7857 204.598 100.263 204.288C100.743 203.974 101.303 203.817 101.943 203.817C102.442 203.817 102.891 203.909 103.291 204.094C103.691 204.278 104.019 204.537 104.274 204.869C104.53 205.202 104.688 205.589 104.75 206.033H103.661C103.577 205.71 103.393 205.423 103.107 205.174C102.823 204.922 102.442 204.795 101.962 204.795C101.537 204.795 101.165 204.906 100.844 205.128C100.527 205.346 100.28 205.656 100.101 206.056C99.9258 206.453 99.8381 206.919 99.8381 207.455C99.8381 208.002 99.9242 208.479 100.097 208.886C100.272 209.292 100.518 209.607 100.835 209.832C101.155 210.057 101.531 210.169 101.962 210.169C102.245 210.169 102.502 210.12 102.733 210.021C102.963 209.923 103.159 209.781 103.319 209.597C103.479 209.412 103.593 209.19 103.661 208.932H104.75C104.688 209.35 104.536 209.727 104.293 210.063C104.053 210.395 103.734 210.66 103.337 210.857C102.943 211.051 102.485 211.148 101.962 211.148ZM109.223 211.148C108.583 211.148 108.022 210.995 107.538 210.691C107.058 210.386 106.683 209.96 106.412 209.412C106.144 208.864 106.01 208.224 106.01 207.491C106.01 206.753 106.144 206.108 106.412 205.557C106.683 205.006 107.058 204.578 107.538 204.274C108.022 203.969 108.583 203.817 109.223 203.817C109.864 203.817 110.424 203.969 110.904 204.274C111.387 204.578 111.762 205.006 112.03 205.557C112.301 206.108 112.436 206.753 112.436 207.491C112.436 208.224 112.301 208.864 112.03 209.412C111.762 209.96 111.387 210.386 110.904 210.691C110.424 210.995 109.864 211.148 109.223 211.148ZM109.223 210.169C109.71 210.169 110.11 210.044 110.424 209.795C110.738 209.546 110.97 209.218 111.121 208.812C111.272 208.406 111.347 207.965 111.347 207.491C111.347 207.018 111.272 206.576 111.121 206.167C110.97 205.757 110.738 205.426 110.424 205.174C110.11 204.922 109.71 204.795 109.223 204.795C108.737 204.795 108.337 204.922 108.023 205.174C107.709 205.426 107.477 205.757 107.326 206.167C107.175 206.576 107.1 207.018 107.1 207.491C107.1 207.965 107.175 208.406 107.326 208.812C107.477 209.218 107.709 209.546 108.023 209.795C108.337 210.044 108.737 210.169 109.223 210.169ZM115.189 206.734V211H114.1V203.909H115.152V205.017H115.244C115.411 204.657 115.663 204.368 116.002 204.149C116.34 203.928 116.777 203.817 117.313 203.817C117.793 203.817 118.213 203.915 118.573 204.112C118.933 204.306 119.213 204.602 119.413 204.999C119.613 205.393 119.713 205.891 119.713 206.494V211H118.624V206.568C118.624 206.011 118.479 205.577 118.19 205.266C117.9 204.952 117.503 204.795 116.999 204.795C116.651 204.795 116.34 204.871 116.066 205.022C115.795 205.172 115.581 205.393 115.424 205.682C115.267 205.971 115.189 206.322 115.189 206.734ZM126.727 205.497L125.748 205.774C125.686 205.611 125.596 205.453 125.476 205.299C125.359 205.142 125.199 205.012 124.996 204.911C124.792 204.809 124.532 204.759 124.215 204.759C123.781 204.759 123.42 204.859 123.13 205.059C122.844 205.256 122.701 205.506 122.701 205.811C122.701 206.082 122.8 206.296 122.997 206.453C123.194 206.61 123.501 206.741 123.92 206.845L124.972 207.104C125.606 207.258 126.079 207.493 126.39 207.81C126.701 208.124 126.856 208.529 126.856 209.024C126.856 209.43 126.739 209.794 126.505 210.114C126.274 210.434 125.951 210.686 125.536 210.871C125.12 211.055 124.637 211.148 124.086 211.148C123.363 211.148 122.764 210.991 122.29 210.677C121.816 210.363 121.516 209.904 121.39 209.301L122.424 209.043C122.523 209.424 122.709 209.71 122.983 209.901C123.26 210.092 123.621 210.188 124.068 210.188C124.575 210.188 124.979 210.08 125.277 209.864C125.579 209.646 125.73 209.384 125.73 209.08C125.73 208.833 125.643 208.627 125.471 208.461C125.299 208.292 125.034 208.165 124.677 208.082L123.495 207.805C122.846 207.652 122.369 207.413 122.064 207.09C121.762 206.764 121.612 206.356 121.612 205.866C121.612 205.466 121.724 205.112 121.949 204.805C122.176 204.497 122.486 204.255 122.877 204.08C123.271 203.904 123.717 203.817 124.215 203.817C124.917 203.817 125.468 203.971 125.868 204.278C126.271 204.586 126.557 204.992 126.727 205.497ZM131.58 203.909V204.832H127.905V203.909H131.58ZM128.976 202.21H130.066V208.969C130.066 209.277 130.11 209.507 130.199 209.661C130.292 209.812 130.409 209.914 130.55 209.966C130.695 210.015 130.847 210.04 131.007 210.04C131.127 210.04 131.226 210.034 131.303 210.021C131.38 210.006 131.441 209.994 131.487 209.984L131.709 210.963C131.635 210.991 131.532 211.018 131.4 211.046C131.267 211.077 131.1 211.092 130.897 211.092C130.589 211.092 130.287 211.026 129.992 210.894C129.699 210.761 129.456 210.56 129.262 210.289C129.072 210.018 128.976 209.677 128.976 209.264V202.21ZM133.219 211V203.909H134.271V204.98H134.345C134.474 204.629 134.708 204.345 135.047 204.126C135.385 203.908 135.767 203.798 136.192 203.798C136.272 203.798 136.372 203.8 136.492 203.803C136.612 203.806 136.703 203.811 136.764 203.817V204.925C136.727 204.915 136.643 204.902 136.51 204.883C136.381 204.862 136.244 204.851 136.099 204.851C135.755 204.851 135.447 204.923 135.176 205.068C134.908 205.209 134.696 205.406 134.539 205.659C134.385 205.908 134.308 206.193 134.308 206.513V211H133.219ZM142.524 208.101V203.909H143.614V211H142.524V209.8H142.45C142.284 210.16 142.026 210.466 141.675 210.718C141.324 210.968 140.881 211.092 140.345 211.092C139.902 211.092 139.508 210.995 139.164 210.801C138.819 210.605 138.548 210.309 138.351 209.915C138.154 209.518 138.056 209.018 138.056 208.415V203.909H139.145V208.341C139.145 208.858 139.29 209.27 139.579 209.578C139.871 209.886 140.244 210.04 140.696 210.04C140.967 210.04 141.242 209.971 141.523 209.832C141.806 209.694 142.043 209.481 142.233 209.195C142.427 208.909 142.524 208.544 142.524 208.101ZM148.49 211.148C147.825 211.148 147.253 210.991 146.773 210.677C146.293 210.363 145.923 209.931 145.665 209.38C145.406 208.829 145.277 208.199 145.277 207.491C145.277 206.771 145.409 206.136 145.674 205.585C145.942 205.031 146.314 204.598 146.791 204.288C147.271 203.974 147.831 203.817 148.471 203.817C148.97 203.817 149.419 203.909 149.82 204.094C150.22 204.278 150.547 204.537 150.803 204.869C151.058 205.202 151.217 205.589 151.278 206.033H150.189C150.106 205.71 149.921 205.423 149.635 205.174C149.352 204.922 148.97 204.795 148.49 204.795C148.065 204.795 147.693 204.906 147.373 205.128C147.056 205.346 146.808 205.656 146.63 206.056C146.454 206.453 146.366 206.919 146.366 207.455C146.366 208.002 146.453 208.479 146.625 208.886C146.8 209.292 147.047 209.607 147.364 209.832C147.684 210.057 148.059 210.169 148.49 210.169C148.773 210.169 149.03 210.12 149.261 210.021C149.492 209.923 149.687 209.781 149.847 209.597C150.007 209.412 150.121 209.19 150.189 208.932H151.278C151.217 209.35 151.064 209.727 150.821 210.063C150.581 210.395 150.263 210.66 149.866 210.857C149.472 211.051 149.013 211.148 148.49 211.148ZM147.973 210.963H148.878L148.804 211.332C149.044 211.369 149.264 211.469 149.464 211.632C149.664 211.799 149.764 212.062 149.764 212.422C149.764 212.819 149.599 213.142 149.27 213.391C148.944 213.644 148.462 213.77 147.825 213.77L147.788 213.05C148.074 213.05 148.311 213.004 148.499 212.911C148.69 212.822 148.785 212.671 148.785 212.459C148.785 212.246 148.707 212.102 148.55 212.025C148.393 211.948 148.139 211.896 147.788 211.868L147.973 210.963ZM154.958 211.166C154.508 211.166 154.101 211.082 153.734 210.912C153.368 210.74 153.077 210.492 152.862 210.169C152.646 209.843 152.539 209.449 152.539 208.987C152.539 208.581 152.619 208.252 152.779 207.999C152.939 207.744 153.153 207.544 153.42 207.399C153.688 207.254 153.984 207.147 154.307 207.076C154.633 207.002 154.961 206.944 155.29 206.901C155.721 206.845 156.07 206.804 156.338 206.776C156.609 206.745 156.806 206.694 156.929 206.624C157.055 206.553 157.118 206.43 157.118 206.254V206.217C157.118 205.762 156.994 205.408 156.744 205.156C156.498 204.903 156.124 204.777 155.622 204.777C155.102 204.777 154.695 204.891 154.399 205.119C154.104 205.346 153.896 205.589 153.776 205.848L152.742 205.479C152.926 205.048 153.173 204.712 153.48 204.472C153.791 204.229 154.13 204.06 154.496 203.964C154.865 203.866 155.228 203.817 155.585 203.817C155.813 203.817 156.075 203.844 156.37 203.9C156.669 203.952 156.957 204.061 157.234 204.228C157.514 204.394 157.746 204.645 157.931 204.98C158.115 205.316 158.208 205.765 158.208 206.328V211H157.118V210.04H157.063C156.989 210.194 156.866 210.358 156.693 210.534C156.521 210.709 156.292 210.858 156.006 210.982C155.719 211.105 155.37 211.166 154.958 211.166ZM155.124 210.188C155.555 210.188 155.918 210.103 156.213 209.934C156.512 209.764 156.737 209.546 156.887 209.278C157.041 209.01 157.118 208.729 157.118 208.433V207.436C157.072 207.491 156.97 207.542 156.813 207.588C156.66 207.632 156.481 207.67 156.278 207.704C156.078 207.735 155.882 207.762 155.692 207.787C155.504 207.808 155.352 207.827 155.235 207.842C154.951 207.879 154.687 207.939 154.441 208.022C154.197 208.102 154 208.224 153.85 208.387C153.702 208.547 153.628 208.766 153.628 209.043C153.628 209.421 153.768 209.707 154.048 209.901C154.331 210.092 154.69 210.188 155.124 210.188ZM154.237 203.06L153.388 203.023C153.388 202.552 153.522 202.167 153.79 201.869C154.061 201.567 154.394 201.416 154.791 201.416C154.967 201.416 155.122 201.447 155.258 201.509C155.393 201.567 155.522 201.635 155.646 201.712C155.769 201.789 155.895 201.858 156.024 201.919C156.156 201.978 156.306 202.007 156.472 202.007C156.647 202.007 156.795 201.939 156.915 201.804C157.038 201.665 157.1 201.499 157.1 201.305L157.931 201.379C157.931 201.859 157.795 202.241 157.524 202.524C157.257 202.807 156.924 202.949 156.527 202.949C156.315 202.949 156.139 202.92 156.001 202.861C155.862 202.8 155.739 202.73 155.632 202.653C155.524 202.576 155.41 202.509 155.29 202.45C155.17 202.389 155.022 202.358 154.847 202.358C154.671 202.358 154.525 202.427 154.408 202.566C154.294 202.701 154.237 202.866 154.237 203.06ZM163.077 211.148C162.437 211.148 161.875 210.995 161.392 210.691C160.912 210.386 160.536 209.96 160.265 209.412C159.998 208.864 159.864 208.224 159.864 207.491C159.864 206.753 159.998 206.108 160.265 205.557C160.536 205.006 160.912 204.578 161.392 204.274C161.875 203.969 162.437 203.817 163.077 203.817C163.717 203.817 164.277 203.969 164.757 204.274C165.24 204.578 165.616 205.006 165.884 205.557C166.155 206.108 166.29 206.753 166.29 207.491C166.29 208.224 166.155 208.864 165.884 209.412C165.616 209.96 165.24 210.386 164.757 210.691C164.277 210.995 163.717 211.148 163.077 211.148ZM163.077 210.169C163.563 210.169 163.963 210.044 164.277 209.795C164.591 209.546 164.823 209.218 164.974 208.812C165.125 208.406 165.2 207.965 165.2 207.491C165.2 207.018 165.125 206.576 164.974 206.167C164.823 205.757 164.591 205.426 164.277 205.174C163.963 204.922 163.563 204.795 163.077 204.795C162.591 204.795 162.191 204.922 161.877 205.174C161.563 205.426 161.33 205.757 161.18 206.167C161.029 206.576 160.953 207.018 160.953 207.491C160.953 207.965 161.029 208.406 161.18 208.812C161.33 209.218 161.563 209.546 161.877 209.795C162.191 210.044 162.591 210.169 163.077 210.169ZM78.4944 227.148C77.9034 227.148 77.3818 226.998 76.9294 226.7C76.477 226.398 76.123 225.974 75.8676 225.426C75.6121 224.875 75.4844 224.224 75.4844 223.473C75.4844 222.728 75.6121 222.082 75.8676 221.534C76.123 220.986 76.4785 220.563 76.934 220.265C77.3895 219.966 77.9158 219.817 78.5128 219.817C78.9745 219.817 79.3392 219.894 79.6069 220.048C79.8778 220.198 80.084 220.371 80.2255 220.565C80.3702 220.755 80.4825 220.912 80.5625 221.036H80.6549V217.545H81.7444V227H80.6918V225.911H80.5625C80.4825 226.04 80.3686 226.203 80.2209 226.4C80.0732 226.594 79.8624 226.768 79.5885 226.922C79.3146 227.072 78.9498 227.148 78.4944 227.148ZM78.6421 226.169C79.0791 226.169 79.4484 226.055 79.75 225.827C80.0516 225.597 80.2809 225.278 80.4379 224.872C80.5949 224.462 80.6733 223.99 80.6733 223.455C80.6733 222.925 80.5964 222.462 80.4425 222.065C80.2886 221.665 80.0609 221.354 79.7593 221.132C79.4577 220.908 79.0853 220.795 78.6421 220.795C78.1804 220.795 77.7957 220.914 77.488 221.151C77.1833 221.385 76.954 221.703 76.8001 222.107C76.6493 222.507 76.5739 222.956 76.5739 223.455C76.5739 223.959 76.6508 224.418 76.8047 224.83C76.9617 225.24 77.1925 225.566 77.4972 225.809C77.805 226.049 78.1866 226.169 78.6421 226.169ZM86.864 227.148C86.1808 227.148 85.5914 226.997 85.0959 226.695C84.6035 226.391 84.2234 225.966 83.9556 225.421C83.691 224.873 83.5586 224.236 83.5586 223.51C83.5586 222.784 83.691 222.143 83.9556 221.589C84.2234 221.032 84.5958 220.598 85.0728 220.288C85.553 219.974 86.1131 219.817 86.7532 219.817C87.1226 219.817 87.4873 219.878 87.8473 220.001C88.2074 220.125 88.5352 220.325 88.8306 220.602C89.1261 220.875 89.3615 221.239 89.537 221.691C89.7124 222.143 89.8001 222.701 89.8001 223.362V223.824H84.3342V222.882H88.6922C88.6922 222.482 88.6121 222.125 88.4521 221.811C88.2951 221.497 88.0705 221.249 87.7781 221.068C87.4888 220.886 87.1472 220.795 86.7532 220.795C86.3193 220.795 85.9438 220.903 85.6268 221.119C85.3129 221.331 85.0713 221.608 84.902 221.95C84.7328 222.291 84.6481 222.657 84.6481 223.048V223.676C84.6481 224.212 84.7405 224.666 84.9251 225.038C85.1128 225.407 85.3729 225.689 85.7053 225.883C86.0377 226.074 86.4239 226.169 86.864 226.169C87.1503 226.169 87.4088 226.129 87.6396 226.049C87.8735 225.966 88.0751 225.843 88.2444 225.68C88.4136 225.513 88.5444 225.307 88.6368 225.061L89.6893 225.357C89.5785 225.714 89.3923 226.027 89.1307 226.298C88.8691 226.566 88.546 226.775 88.1613 226.926C87.7766 227.074 87.3441 227.148 86.864 227.148ZM95.1137 229.659V219.909H96.1662V221.036H96.2955C96.3755 220.912 96.4863 220.755 96.6279 220.565C96.7725 220.371 96.9787 220.198 97.2465 220.048C97.5173 219.894 97.8836 219.817 98.3452 219.817C98.9423 219.817 99.4686 219.966 99.924 220.265C100.38 220.563 100.735 220.986 100.99 221.534C101.246 222.082 101.374 222.728 101.374 223.473C101.374 224.224 101.246 224.875 100.99 225.426C100.735 225.974 100.381 226.398 99.9287 226.7C99.4762 226.998 98.9546 227.148 98.3637 227.148C97.9082 227.148 97.5435 227.072 97.2696 226.922C96.9957 226.768 96.7848 226.594 96.6371 226.4C96.4894 226.203 96.3755 226.04 96.2955 225.911H96.2032V229.659H95.1137ZM96.1847 223.455C96.1847 223.99 96.2632 224.462 96.4201 224.872C96.5771 225.278 96.8064 225.597 97.108 225.827C97.4096 226.055 97.7789 226.169 98.2159 226.169C98.6714 226.169 99.0515 226.049 99.3562 225.809C99.664 225.566 99.8948 225.24 100.049 224.83C100.206 224.418 100.284 223.959 100.284 223.455C100.284 222.956 100.207 222.507 100.053 222.107C99.9025 221.703 99.6732 221.385 99.3655 221.151C99.0608 220.914 98.6776 220.795 98.2159 220.795C97.7728 220.795 97.4004 220.908 97.0988 221.132C96.7972 221.354 96.5694 221.665 96.4155 222.065C96.2616 222.462 96.1847 222.925 96.1847 223.455ZM105.122 227.166C104.673 227.166 104.265 227.082 103.899 226.912C103.533 226.74 103.242 226.492 103.026 226.169C102.811 225.843 102.703 225.449 102.703 224.987C102.703 224.581 102.783 224.252 102.943 223.999C103.103 223.744 103.317 223.544 103.585 223.399C103.853 223.254 104.148 223.147 104.471 223.076C104.798 223.002 105.125 222.944 105.455 222.901C105.885 222.845 106.235 222.804 106.503 222.776C106.773 222.745 106.97 222.694 107.093 222.624C107.22 222.553 107.283 222.43 107.283 222.254V222.217C107.283 221.762 107.158 221.408 106.909 221.156C106.663 220.903 106.289 220.777 105.787 220.777C105.267 220.777 104.859 220.891 104.564 221.119C104.268 221.346 104.06 221.589 103.94 221.848L102.906 221.479C103.091 221.048 103.337 220.712 103.645 220.472C103.956 220.229 104.294 220.06 104.661 219.964C105.03 219.866 105.393 219.817 105.75 219.817C105.978 219.817 106.239 219.844 106.535 219.9C106.833 219.952 107.121 220.061 107.398 220.228C107.678 220.394 107.911 220.645 108.095 220.98C108.28 221.316 108.372 221.765 108.372 222.328V227H107.283V226.04H107.227C107.153 226.194 107.03 226.358 106.858 226.534C106.686 226.709 106.456 226.858 106.17 226.982C105.884 227.105 105.535 227.166 105.122 227.166ZM105.288 226.188C105.719 226.188 106.082 226.103 106.378 225.934C106.676 225.764 106.901 225.546 107.052 225.278C107.206 225.01 107.283 224.729 107.283 224.433V223.436C107.237 223.491 107.135 223.542 106.978 223.588C106.824 223.632 106.646 223.67 106.443 223.704C106.242 223.735 106.047 223.762 105.856 223.787C105.668 223.808 105.516 223.827 105.399 223.842C105.116 223.879 104.851 223.939 104.605 224.022C104.362 224.102 104.165 224.224 104.014 224.387C103.867 224.547 103.793 224.766 103.793 225.043C103.793 225.421 103.933 225.707 104.213 225.901C104.496 226.092 104.854 226.188 105.288 226.188ZM105.325 218.949L106.452 216.807H107.726L106.286 218.949H105.325ZM113.223 229.807C112.697 229.807 112.244 229.739 111.866 229.604C111.487 229.471 111.172 229.296 110.919 229.077C110.67 228.862 110.472 228.631 110.324 228.385L111.192 227.776C111.29 227.905 111.415 228.053 111.566 228.219C111.716 228.388 111.923 228.534 112.184 228.657C112.449 228.783 112.795 228.847 113.223 228.847C113.795 228.847 114.268 228.708 114.64 228.431C115.013 228.154 115.199 227.72 115.199 227.129V225.689H115.106C115.026 225.818 114.913 225.978 114.765 226.169C114.62 226.357 114.411 226.525 114.137 226.672C113.866 226.817 113.5 226.889 113.038 226.889C112.466 226.889 111.952 226.754 111.496 226.483C111.044 226.212 110.685 225.818 110.421 225.301C110.159 224.784 110.028 224.156 110.028 223.418C110.028 222.691 110.156 222.059 110.412 221.52C110.667 220.979 111.022 220.56 111.478 220.265C111.933 219.966 112.46 219.817 113.057 219.817C113.518 219.817 113.885 219.894 114.155 220.048C114.429 220.198 114.639 220.371 114.783 220.565C114.931 220.755 115.045 220.912 115.125 221.036H115.236V219.909H116.288V227.203C116.288 227.812 116.15 228.308 115.873 228.69C115.599 229.074 115.23 229.356 114.765 229.534C114.303 229.716 113.789 229.807 113.223 229.807ZM113.186 225.911C113.623 225.911 113.992 225.81 114.294 225.61C114.596 225.41 114.825 225.123 114.982 224.747C115.139 224.372 115.217 223.922 115.217 223.399C115.217 222.888 115.14 222.437 114.986 222.047C114.833 221.656 114.605 221.349 114.303 221.128C114.002 220.906 113.629 220.795 113.186 220.795C112.724 220.795 112.34 220.912 112.032 221.146C111.727 221.38 111.498 221.694 111.344 222.088C111.193 222.482 111.118 222.919 111.118 223.399C111.118 223.892 111.195 224.327 111.349 224.706C111.506 225.081 111.736 225.377 112.041 225.592C112.349 225.804 112.731 225.911 113.186 225.911ZM118.283 227V219.909H119.372V227H118.283ZM118.837 218.727C118.624 218.727 118.441 218.655 118.287 218.51C118.136 218.366 118.061 218.192 118.061 217.989C118.061 217.786 118.136 217.612 118.287 217.467C118.441 217.322 118.624 217.25 118.837 217.25C119.049 217.25 119.231 217.322 119.381 217.467C119.535 217.612 119.612 217.786 119.612 217.989C119.612 218.192 119.535 218.366 119.381 218.51C119.231 218.655 119.049 218.727 118.837 218.727ZM122.457 222.734V227H121.368V219.909H122.42V221.017H122.512C122.679 220.657 122.931 220.368 123.27 220.149C123.608 219.928 124.045 219.817 124.581 219.817C125.061 219.817 125.481 219.915 125.841 220.112C126.201 220.306 126.481 220.602 126.681 220.999C126.881 221.393 126.981 221.891 126.981 222.494V227H125.892V222.568C125.892 222.011 125.747 221.577 125.458 221.266C125.168 220.952 124.771 220.795 124.267 220.795C123.919 220.795 123.608 220.871 123.334 221.022C123.063 221.172 122.849 221.393 122.693 221.682C122.536 221.971 122.457 222.322 122.457 222.734ZM131.059 227.166C130.609 227.166 130.202 227.082 129.835 226.912C129.469 226.74 129.178 226.492 128.963 226.169C128.747 225.843 128.64 225.449 128.64 224.987C128.64 224.581 128.72 224.252 128.88 223.999C129.04 223.744 129.254 223.544 129.521 223.399C129.789 223.254 130.085 223.147 130.408 223.076C130.734 223.002 131.062 222.944 131.391 222.901C131.822 222.845 132.171 222.804 132.439 222.776C132.71 222.745 132.907 222.694 133.03 222.624C133.156 222.553 133.219 222.43 133.219 222.254V222.217C133.219 221.762 133.095 221.408 132.845 221.156C132.599 220.903 132.225 220.777 131.723 220.777C131.203 220.777 130.796 220.891 130.5 221.119C130.205 221.346 129.997 221.589 129.877 221.848L128.843 221.479C129.027 221.048 129.274 220.712 129.581 220.472C129.892 220.229 130.231 220.06 130.597 219.964C130.966 219.866 131.33 219.817 131.687 219.817C131.914 219.817 132.176 219.844 132.471 219.9C132.77 219.952 133.058 220.061 133.335 220.228C133.615 220.394 133.847 220.645 134.032 220.98C134.216 221.316 134.309 221.765 134.309 222.328V227H133.219V226.04H133.164C133.09 226.194 132.967 226.358 132.795 226.534C132.622 226.709 132.393 226.858 132.107 226.982C131.82 227.105 131.471 227.166 131.059 227.166ZM131.225 226.188C131.656 226.188 132.019 226.103 132.314 225.934C132.613 225.764 132.838 225.546 132.988 225.278C133.142 225.01 133.219 224.729 133.219 224.433V223.436C133.173 223.491 133.072 223.542 132.915 223.588C132.761 223.632 132.582 223.67 132.379 223.704C132.179 223.735 131.984 223.762 131.793 223.787C131.605 223.808 131.453 223.827 131.336 223.842C131.053 223.879 130.788 223.939 130.542 224.022C130.299 224.102 130.102 224.224 129.951 224.387C129.803 224.547 129.729 224.766 129.729 225.043C129.729 225.421 129.869 225.707 130.149 225.901C130.432 226.092 130.791 226.188 131.225 226.188ZM141.32 221.497L140.341 221.774C140.28 221.611 140.189 221.453 140.069 221.299C139.952 221.142 139.792 221.012 139.589 220.911C139.386 220.809 139.126 220.759 138.809 220.759C138.375 220.759 138.013 220.859 137.724 221.059C137.438 221.256 137.294 221.506 137.294 221.811C137.294 222.082 137.393 222.296 137.59 222.453C137.787 222.61 138.095 222.741 138.513 222.845L139.566 223.104C140.2 223.258 140.672 223.493 140.983 223.81C141.294 224.124 141.449 224.529 141.449 225.024C141.449 225.43 141.332 225.794 141.098 226.114C140.868 226.434 140.544 226.686 140.129 226.871C139.713 227.055 139.23 227.148 138.679 227.148C137.956 227.148 137.358 226.991 136.884 226.677C136.41 226.363 136.11 225.904 135.983 225.301L137.017 225.043C137.116 225.424 137.302 225.71 137.576 225.901C137.853 226.092 138.215 226.188 138.661 226.188C139.169 226.188 139.572 226.08 139.87 225.864C140.172 225.646 140.323 225.384 140.323 225.08C140.323 224.833 140.237 224.627 140.064 224.461C139.892 224.292 139.627 224.165 139.27 224.082L138.088 223.805C137.439 223.652 136.962 223.413 136.657 223.09C136.356 222.764 136.205 222.356 136.205 221.866C136.205 221.466 136.317 221.112 136.542 220.805C136.77 220.497 137.079 220.255 137.47 220.08C137.864 219.904 138.31 219.817 138.809 219.817C139.51 219.817 140.061 219.971 140.461 220.278C140.865 220.586 141.151 220.992 141.32 221.497ZM148.352 227L146.192 219.909H147.336L148.869 225.338H148.943L150.457 219.909H151.621L153.116 225.32H153.19L154.723 219.909H155.868L153.707 227H152.636L151.085 221.553H150.974L149.423 227H148.352ZM160.04 227.148C159.357 227.148 158.767 226.997 158.272 226.695C157.779 226.391 157.399 225.966 157.131 225.421C156.867 224.873 156.734 224.236 156.734 223.51C156.734 222.784 156.867 222.143 157.131 221.589C157.399 221.032 157.772 220.598 158.249 220.288C158.729 219.974 159.289 219.817 159.929 219.817C160.298 219.817 160.663 219.878 161.023 220.001C161.383 220.125 161.711 220.325 162.006 220.602C162.302 220.875 162.537 221.239 162.713 221.691C162.888 222.143 162.976 222.701 162.976 223.362V223.824H157.51V222.882H161.868C161.868 222.482 161.788 222.125 161.628 221.811C161.471 221.497 161.246 221.249 160.954 221.068C160.665 220.886 160.323 220.795 159.929 220.795C159.495 220.795 159.12 220.903 158.803 221.119C158.489 221.331 158.247 221.608 158.078 221.95C157.909 222.291 157.824 222.657 157.824 223.048V223.676C157.824 224.212 157.916 224.666 158.101 225.038C158.289 225.407 158.549 225.689 158.881 225.883C159.213 226.074 159.6 226.169 160.04 226.169C160.326 226.169 160.585 226.129 160.815 226.049C161.049 225.966 161.251 225.843 161.42 225.68C161.589 225.513 161.72 225.307 161.813 225.061L162.865 225.357C162.754 225.714 162.568 226.027 162.307 226.298C162.045 226.566 161.722 226.775 161.337 226.926C160.952 227.074 160.52 227.148 160.04 227.148ZM164.781 227V217.545H165.87V221.036H165.963C166.043 220.912 166.154 220.755 166.295 220.565C166.44 220.371 166.646 220.198 166.914 220.048C167.185 219.894 167.551 219.817 168.012 219.817C168.61 219.817 169.136 219.966 169.591 220.265C170.047 220.563 170.402 220.986 170.658 221.534C170.913 222.082 171.041 222.728 171.041 223.473C171.041 224.224 170.913 224.875 170.658 225.426C170.402 225.974 170.048 226.398 169.596 226.7C169.144 226.998 168.622 227.148 168.031 227.148C167.575 227.148 167.211 227.072 166.937 226.922C166.663 226.768 166.452 226.594 166.304 226.4C166.157 226.203 166.043 226.04 165.963 225.911H165.833V227H164.781ZM165.852 223.455C165.852 223.99 165.93 224.462 166.087 224.872C166.244 225.278 166.474 225.597 166.775 225.827C167.077 226.055 167.446 226.169 167.883 226.169C168.339 226.169 168.719 226.049 169.023 225.809C169.331 225.566 169.562 225.24 169.716 224.83C169.873 224.418 169.951 223.959 169.951 223.455C169.951 222.956 169.874 222.507 169.721 222.107C169.57 221.703 169.34 221.385 169.033 221.151C168.728 220.914 168.345 220.795 167.883 220.795C167.44 220.795 167.068 220.908 166.766 221.132C166.464 221.354 166.237 221.665 166.083 222.065C165.929 222.462 165.852 222.925 165.852 223.455ZM173.501 227.074C173.274 227.074 173.078 226.992 172.915 226.829C172.752 226.666 172.67 226.471 172.67 226.243C172.67 226.015 172.752 225.82 172.915 225.657C173.078 225.493 173.274 225.412 173.501 225.412C173.729 225.412 173.925 225.493 174.088 225.657C174.251 225.82 174.332 226.015 174.332 226.243C174.332 226.394 174.294 226.532 174.217 226.658C174.143 226.785 174.043 226.886 173.917 226.963C173.794 227.037 173.655 227.074 173.501 227.074Z" fill="white"/>
<path d="M94.6267 29.6875L99.9739 88.7515L123.975 95.3125L148.037 88.7427L153.394 29.6875H94.6267ZM141.763 49.0234H113.604L114.216 56.4941H141.151L139.083 78.6704L124.01 82.7852L108.908 78.6836L107.871 67.334H115.256L115.78 73.0894L124.01 75.2544L132.186 73.0688L133.04 63.6719H107.482L105.555 41.7593H142.406L141.763 49.0234Z" fill="#602EEF"/>
<path d="M105.665 134V123.818H107.817V128.019H112.187V123.818H114.335V134H112.187V129.794H107.817V134H105.665ZM115.722 125.593V123.818H124.084V125.593H120.967V134H118.839V125.593H115.722ZM125.461 123.818H128.116L130.92 130.659H131.04L133.844 123.818H136.498V134H134.41V127.373H134.326L131.691 133.95H130.269L127.634 127.348H127.549V134H125.461V123.818ZM138.272 134V123.818H140.425V132.225H144.79V134H138.272Z" fill="white"/>
</svg>
