<svg width="250" height="288" viewBox="0 0 250 288" fill="none" xmlns="http://www.w3.org/2000/svg">
<rect x="0.130402" width="249.695" height="288" rx="25" fill="#181823"/>
<path d="M90.697 34.6875V100.312H159.259V34.6875H90.697ZM127.426 85.6641C127.426 92.0522 123.484 95.1665 117.777 95.1665C112.623 95.1665 109.631 92.6118 108.113 89.5283L113.359 86.4888C114.371 88.207 115.139 89.6602 117.347 89.6602C119.184 89.6602 120.693 88.8677 120.693 85.7842V65.1562H127.426V85.6641ZM142.631 95.02C136.649 95.02 132.783 92.436 130.896 88.8677L136.15 85.957C137.527 88.1162 139.325 89.5547 142.501 89.5547C145.17 89.5547 146.72 88.4238 146.72 86.6616C146.72 84.5479 145.124 83.7993 142.178 82.5601L140.568 81.898C135.919 80.0054 132.836 77.6265 132.836 72.6035C132.836 67.979 136.517 64.6011 142.27 64.6011C146.367 64.6011 149.309 65.8198 151.429 69.3882L146.403 72.4805C145.298 70.5864 144.108 69.8438 142.262 69.8438C140.375 69.8438 139.178 70.9893 139.178 72.4805C139.178 74.3306 140.375 75.0791 143.136 76.2246L144.746 76.8853C150.223 79.1323 153.307 81.4263 153.307 86.5767C153.308 92.1284 148.752 95.02 142.631 95.02Z" fill="#602EEF"/>
<path d="M57.0948 156.545H58.2397V162.805C58.2397 163.452 58.0873 164.029 57.7826 164.537C57.481 165.041 57.0548 165.44 56.5039 165.732C55.953 166.022 55.3067 166.166 54.565 166.166C53.8232 166.166 53.1769 166.022 52.626 165.732C52.0751 165.44 51.6474 165.041 51.3427 164.537C51.0411 164.029 50.8902 163.452 50.8902 162.805V156.545H52.0351V162.713C52.0351 163.175 52.1367 163.586 52.3398 163.946C52.5429 164.303 52.8322 164.584 53.2077 164.79C53.5863 164.994 54.0387 165.095 54.565 165.095C55.0912 165.095 55.5437 164.994 55.9222 164.79C56.3008 164.584 56.5901 164.303 56.7901 163.946C56.9932 163.586 57.0948 163.175 57.0948 162.713V156.545ZM60.3783 166V158.909H61.4308V160.017H61.5231C61.6709 159.638 61.9094 159.345 62.2387 159.135C62.568 158.923 62.9635 158.817 63.4251 158.817C63.8929 158.817 64.2823 158.923 64.5931 159.135C64.907 159.345 65.1517 159.638 65.3271 160.017H65.401C65.5826 159.651 65.8549 159.36 66.2181 159.145C66.5813 158.926 67.0168 158.817 67.5246 158.817C68.1586 158.817 68.6772 159.015 69.0803 159.412C69.4835 159.806 69.6851 160.42 69.6851 161.254V166H68.5956V161.254C68.5956 160.731 68.4525 160.357 68.1663 160.132C67.88 159.908 67.543 159.795 67.1553 159.795C66.6567 159.795 66.2704 159.946 65.9965 160.248C65.7226 160.546 65.5856 160.925 65.5856 161.384V166H64.4777V161.143C64.4777 160.74 64.3469 160.416 64.0853 160.169C63.8237 159.92 63.4867 159.795 63.0743 159.795C62.7911 159.795 62.5265 159.871 62.2803 160.022C62.0371 160.172 61.8401 160.382 61.6893 160.65C61.5416 160.914 61.4678 161.22 61.4678 161.568V166H60.3783ZM73.7637 166.166C73.3144 166.166 72.9066 166.082 72.5404 165.912C72.1741 165.74 71.8833 165.492 71.6679 165.169C71.4524 164.843 71.3447 164.449 71.3447 163.987C71.3447 163.581 71.4247 163.252 71.5848 162.999C71.7448 162.744 71.9587 162.544 72.2265 162.399C72.4942 162.254 72.7897 162.147 73.1128 162.076C73.439 162.002 73.7668 161.944 74.0961 161.901C74.527 161.845 74.8763 161.804 75.1441 161.776C75.4149 161.745 75.6119 161.694 75.735 161.624C75.8612 161.553 75.9242 161.43 75.9242 161.254V161.217C75.9242 160.762 75.7996 160.408 75.5503 160.156C75.3041 159.903 74.9302 159.777 74.4285 159.777C73.9084 159.777 73.5006 159.891 73.2051 160.119C72.9097 160.346 72.7019 160.589 72.5819 160.848L71.5478 160.479C71.7325 160.048 71.9787 159.712 72.2865 159.472C72.5973 159.229 72.9359 159.06 73.3021 158.964C73.6714 158.866 74.0346 158.817 74.3916 158.817C74.6193 158.817 74.8809 158.844 75.1764 158.9C75.4749 158.952 75.7627 159.061 76.0397 159.228C76.3197 159.394 76.5521 159.645 76.7367 159.98C76.9214 160.316 77.0137 160.765 77.0137 161.328V166H75.9242V165.04H75.8689C75.795 165.194 75.6719 165.358 75.4995 165.534C75.3272 165.709 75.0979 165.858 74.8117 165.982C74.5255 166.105 74.1761 166.166 73.7637 166.166ZM73.9299 165.188C74.3608 165.188 74.724 165.103 75.0194 164.934C75.318 164.764 75.5426 164.546 75.6934 164.278C75.8473 164.01 75.9242 163.729 75.9242 163.433V162.436C75.8781 162.491 75.7765 162.542 75.6196 162.588C75.4657 162.632 75.2872 162.67 75.0841 162.704C74.884 162.735 74.6886 162.762 74.4978 162.787C74.31 162.808 74.1577 162.827 74.0407 162.842C73.7576 162.879 73.4929 162.939 73.2467 163.022C73.0036 163.102 72.8066 163.224 72.6558 163.387C72.5081 163.547 72.4342 163.766 72.4342 164.043C72.4342 164.421 72.5742 164.707 72.8543 164.901C73.1374 165.092 73.496 165.188 73.9299 165.188ZM85.3361 166.148C84.7452 166.148 84.2235 165.998 83.7711 165.7C83.3187 165.398 82.9648 164.974 82.7093 164.426C82.4539 163.875 82.3261 163.224 82.3261 162.473C82.3261 161.728 82.4539 161.082 82.7093 160.534C82.9648 159.986 83.3202 159.563 83.7757 159.265C84.2312 158.966 84.7575 158.817 85.3546 158.817C85.8162 158.817 86.1809 158.894 86.4487 159.048C86.7195 159.198 86.9257 159.371 87.0673 159.565C87.2119 159.755 87.3243 159.912 87.4043 160.036H87.4966V156.545H88.5861V166H87.5335V164.911H87.4043C87.3243 165.04 87.2104 165.203 87.0627 165.4C86.9149 165.594 86.7041 165.768 86.4302 165.922C86.1563 166.072 85.7916 166.148 85.3361 166.148ZM85.4838 165.169C85.9208 165.169 86.2902 165.055 86.5918 164.827C86.8934 164.597 87.1227 164.278 87.2796 163.872C87.4366 163.462 87.5151 162.99 87.5151 162.455C87.5151 161.925 87.4381 161.462 87.2842 161.065C87.1304 160.665 86.9026 160.354 86.601 160.132C86.2994 159.908 85.927 159.795 85.4838 159.795C85.0222 159.795 84.6375 159.914 84.3297 160.151C84.025 160.385 83.7957 160.703 83.6418 161.107C83.491 161.507 83.4156 161.956 83.4156 162.455C83.4156 162.959 83.4926 163.418 83.6465 163.83C83.8034 164.24 84.0342 164.566 84.3389 164.809C84.6467 165.049 85.0283 165.169 85.4838 165.169ZM92.8194 166.166C92.3701 166.166 91.9623 166.082 91.596 165.912C91.2298 165.74 90.939 165.492 90.7235 165.169C90.5081 164.843 90.4004 164.449 90.4004 163.987C90.4004 163.581 90.4804 163.252 90.6404 162.999C90.8005 162.744 91.0144 162.544 91.2821 162.399C91.5499 162.254 91.8453 162.147 92.1685 162.076C92.4947 162.002 92.8225 161.944 93.1518 161.901C93.5827 161.845 93.932 161.804 94.1997 161.776C94.4706 161.745 94.6675 161.694 94.7906 161.624C94.9168 161.553 94.9799 161.43 94.9799 161.254V161.217C94.9799 160.762 94.8553 160.408 94.606 160.156C94.3598 159.903 93.9858 159.777 93.4842 159.777C92.9641 159.777 92.5563 159.891 92.2608 160.119C91.9654 160.346 91.7576 160.589 91.6376 160.848L90.6035 160.479C90.7882 160.048 91.0344 159.712 91.3421 159.472C91.653 159.229 91.9915 159.06 92.3578 158.964C92.7271 158.866 93.0902 158.817 93.4472 158.817C93.675 158.817 93.9366 158.844 94.232 158.9C94.5306 158.952 94.8183 159.061 95.0953 159.228C95.3754 159.394 95.6078 159.645 95.7924 159.98C95.9771 160.316 96.0694 160.765 96.0694 161.328V166H94.9799V165.04H94.9245C94.8507 165.194 94.7275 165.358 94.5552 165.534C94.3828 165.709 94.1536 165.858 93.8673 165.982C93.5811 166.105 93.2318 166.166 92.8194 166.166ZM92.9856 165.188C93.4165 165.188 93.7796 165.103 94.0751 164.934C94.3736 164.764 94.5983 164.546 94.7491 164.278C94.903 164.01 94.9799 163.729 94.9799 163.433V162.436C94.9337 162.491 94.8322 162.542 94.6752 162.588C94.5213 162.632 94.3428 162.67 94.1397 162.704C93.9397 162.735 93.7442 162.762 93.5534 162.787C93.3657 162.808 93.2133 162.827 93.0964 162.842C92.8132 162.879 92.5486 162.939 92.3024 163.022C92.0592 163.102 91.8623 163.224 91.7114 163.387C91.5637 163.547 91.4899 163.766 91.4899 164.043C91.4899 164.421 91.6299 164.707 91.91 164.901C92.1931 165.092 92.5516 165.188 92.9856 165.188ZM103.081 160.497L102.102 160.774C102.04 160.611 101.95 160.453 101.83 160.299C101.713 160.142 101.553 160.012 101.349 159.911C101.146 159.809 100.886 159.759 100.569 159.759C100.135 159.759 99.7737 159.859 99.4844 160.059C99.1982 160.256 99.0551 160.506 99.0551 160.811C99.0551 161.082 99.1536 161.296 99.3506 161.453C99.5475 161.61 99.8553 161.741 100.274 161.845L101.326 162.104C101.96 162.258 102.433 162.493 102.744 162.81C103.055 163.124 103.21 163.529 103.21 164.024C103.21 164.43 103.093 164.794 102.859 165.114C102.628 165.434 102.305 165.686 101.89 165.871C101.474 166.055 100.991 166.148 100.44 166.148C99.7168 166.148 99.1182 165.991 98.6442 165.677C98.1703 165.363 97.8702 164.904 97.744 164.301L98.7781 164.043C98.8766 164.424 99.0628 164.71 99.3367 164.901C99.6137 165.092 99.9753 165.188 100.422 165.188C100.929 165.188 101.333 165.08 101.631 164.864C101.933 164.646 102.084 164.384 102.084 164.08C102.084 163.833 101.997 163.627 101.825 163.461C101.653 163.292 101.388 163.165 101.031 163.082L99.8491 162.805C99.1998 162.652 98.7227 162.413 98.418 162.09C98.1164 161.764 97.9656 161.356 97.9656 160.866C97.9656 160.466 98.078 160.112 98.3026 159.805C98.5304 159.497 98.8397 159.255 99.2305 159.08C99.6245 158.904 100.071 158.817 100.569 158.817C101.271 158.817 101.822 158.971 102.222 159.278C102.625 159.586 102.911 159.992 103.081 160.497ZM108.506 166V158.909H109.559V160.017H109.651C109.799 159.638 110.037 159.345 110.367 159.135C110.696 158.923 111.091 158.817 111.553 158.817C112.021 158.817 112.41 158.923 112.721 159.135C113.035 159.345 113.28 159.638 113.455 160.017H113.529C113.711 159.651 113.983 159.36 114.346 159.145C114.709 158.926 115.145 158.817 115.652 158.817C116.286 158.817 116.805 159.015 117.208 159.412C117.611 159.806 117.813 160.42 117.813 161.254V166H116.724V161.254C116.724 160.731 116.58 160.357 116.294 160.132C116.008 159.908 115.671 159.795 115.283 159.795C114.785 159.795 114.398 159.946 114.124 160.248C113.851 160.546 113.714 160.925 113.714 161.384V166H112.606V161.143C112.606 160.74 112.475 160.416 112.213 160.169C111.952 159.92 111.615 159.795 111.202 159.795C110.919 159.795 110.654 159.871 110.408 160.022C110.165 160.172 109.968 160.382 109.817 160.65C109.67 160.914 109.596 161.22 109.596 161.568V166H108.506ZM121.892 166.166C121.442 166.166 121.035 166.082 120.668 165.912C120.302 165.74 120.011 165.492 119.796 165.169C119.58 164.843 119.473 164.449 119.473 163.987C119.473 163.581 119.553 163.252 119.713 162.999C119.873 162.744 120.087 162.544 120.354 162.399C120.622 162.254 120.918 162.147 121.241 162.076C121.567 162.002 121.895 161.944 122.224 161.901C122.655 161.845 123.004 161.804 123.272 161.776C123.543 161.745 123.74 161.694 123.863 161.624C123.989 161.553 124.052 161.43 124.052 161.254V161.217C124.052 160.762 123.928 160.408 123.678 160.156C123.432 159.903 123.058 159.777 122.556 159.777C122.036 159.777 121.629 159.891 121.333 160.119C121.038 160.346 120.83 160.589 120.71 160.848L119.676 160.479C119.86 160.048 120.107 159.712 120.414 159.472C120.725 159.229 121.064 159.06 121.43 158.964C121.799 158.866 122.163 158.817 122.52 158.817C122.747 158.817 123.009 158.844 123.304 158.9C123.603 158.952 123.891 159.061 124.168 159.228C124.448 159.394 124.68 159.645 124.865 159.98C125.049 160.316 125.142 160.765 125.142 161.328V166H124.052V165.04H123.997C123.923 165.194 123.8 165.358 123.627 165.534C123.455 165.709 123.226 165.858 122.94 165.982C122.653 166.105 122.304 166.166 121.892 166.166ZM122.058 165.188C122.489 165.188 122.852 165.103 123.147 164.934C123.446 164.764 123.671 164.546 123.821 164.278C123.975 164.01 124.052 163.729 124.052 163.433V162.436C124.006 162.491 123.904 162.542 123.747 162.588C123.594 162.632 123.415 162.67 123.212 162.704C123.012 162.735 122.817 162.762 122.626 162.787C122.438 162.808 122.286 162.827 122.169 162.842C121.886 162.879 121.621 162.939 121.375 163.022C121.131 163.102 120.935 163.224 120.784 163.387C120.636 163.547 120.562 163.766 120.562 164.043C120.562 164.421 120.702 164.707 120.982 164.901C121.265 165.092 121.624 165.188 122.058 165.188ZM127.13 166V158.909H128.22V166H127.13ZM127.684 157.727C127.472 157.727 127.289 157.655 127.135 157.51C126.984 157.366 126.909 157.192 126.909 156.989C126.909 156.786 126.984 156.612 127.135 156.467C127.289 156.322 127.472 156.25 127.684 156.25C127.897 156.25 128.078 156.322 128.229 156.467C128.383 156.612 128.46 156.786 128.46 156.989C128.46 157.192 128.383 157.366 128.229 157.51C128.078 157.655 127.897 157.727 127.684 157.727ZM135.238 160.497L134.259 160.774C134.198 160.611 134.107 160.453 133.987 160.299C133.87 160.142 133.71 160.012 133.507 159.911C133.304 159.809 133.044 159.759 132.727 159.759C132.293 159.759 131.931 159.859 131.642 160.059C131.355 160.256 131.212 160.506 131.212 160.811C131.212 161.082 131.311 161.296 131.508 161.453C131.705 161.61 132.013 161.741 132.431 161.845L133.484 162.104C134.118 162.258 134.59 162.493 134.901 162.81C135.212 163.124 135.367 163.529 135.367 164.024C135.367 164.43 135.25 164.794 135.016 165.114C134.785 165.434 134.462 165.686 134.047 165.871C133.631 166.055 133.148 166.148 132.597 166.148C131.874 166.148 131.275 165.991 130.801 165.677C130.328 165.363 130.027 164.904 129.901 164.301L130.935 164.043C131.034 164.424 131.22 164.71 131.494 164.901C131.771 165.092 132.133 165.188 132.579 165.188C133.087 165.188 133.49 165.08 133.788 164.864C134.09 164.646 134.241 164.384 134.241 164.08C134.241 163.833 134.155 163.627 133.982 163.461C133.81 163.292 133.545 163.165 133.188 163.082L132.006 162.805C131.357 162.652 130.88 162.413 130.575 162.09C130.274 161.764 130.123 161.356 130.123 160.866C130.123 160.466 130.235 160.112 130.46 159.805C130.688 159.497 130.997 159.255 131.388 159.08C131.782 158.904 132.228 158.817 132.727 158.817C133.428 158.817 133.979 158.971 134.379 159.278C134.782 159.586 135.069 159.992 135.238 160.497ZM140.663 168.659V158.909H141.716V160.036H141.845C141.925 159.912 142.036 159.755 142.178 159.565C142.322 159.371 142.528 159.198 142.796 159.048C143.067 158.894 143.433 158.817 143.895 158.817C144.492 158.817 145.018 158.966 145.474 159.265C145.929 159.563 146.285 159.986 146.54 160.534C146.796 161.082 146.923 161.728 146.923 162.473C146.923 163.224 146.796 163.875 146.54 164.426C146.285 164.974 145.931 165.398 145.478 165.7C145.026 165.998 144.504 166.148 143.913 166.148C143.458 166.148 143.093 166.072 142.819 165.922C142.545 165.768 142.335 165.594 142.187 165.4C142.039 165.203 141.925 165.04 141.845 164.911H141.753V168.659H140.663ZM141.734 162.455C141.734 162.99 141.813 163.462 141.97 163.872C142.127 164.278 142.356 164.597 142.658 164.827C142.959 165.055 143.329 165.169 143.766 165.169C144.221 165.169 144.601 165.049 144.906 164.809C145.214 164.566 145.445 164.24 145.598 163.83C145.755 163.418 145.834 162.959 145.834 162.455C145.834 161.956 145.757 161.507 145.603 161.107C145.452 160.703 145.223 160.385 144.915 160.151C144.611 159.914 144.227 159.795 143.766 159.795C143.323 159.795 142.95 159.908 142.649 160.132C142.347 160.354 142.119 160.665 141.965 161.065C141.811 161.462 141.734 161.925 141.734 162.455ZM151.466 166.148C150.826 166.148 150.264 165.995 149.781 165.691C149.301 165.386 148.925 164.96 148.655 164.412C148.387 163.864 148.253 163.224 148.253 162.491C148.253 161.753 148.387 161.108 148.655 160.557C148.925 160.006 149.301 159.578 149.781 159.274C150.264 158.969 150.826 158.817 151.466 158.817C152.106 158.817 152.666 158.969 153.146 159.274C153.63 159.578 154.005 160.006 154.273 160.557C154.544 161.108 154.679 161.753 154.679 162.491C154.679 163.224 154.544 163.864 154.273 164.412C154.005 164.96 153.63 165.386 153.146 165.691C152.666 165.995 152.106 166.148 151.466 166.148ZM151.466 165.169C151.952 165.169 152.352 165.044 152.666 164.795C152.98 164.546 153.213 164.218 153.363 163.812C153.514 163.406 153.59 162.965 153.59 162.491C153.59 162.018 153.514 161.576 153.363 161.167C153.213 160.757 152.98 160.426 152.666 160.174C152.352 159.922 151.952 159.795 151.466 159.795C150.98 159.795 150.58 159.922 150.266 160.174C149.952 160.426 149.719 160.757 149.569 161.167C149.418 161.576 149.342 162.018 149.342 162.491C149.342 162.965 149.418 163.406 149.569 163.812C149.719 164.218 149.952 164.546 150.266 164.795C150.58 165.044 150.98 165.169 151.466 165.169ZM156.342 168.659V158.909H157.395V160.036H157.524C157.604 159.912 157.715 159.755 157.856 159.565C158.001 159.371 158.207 159.198 158.475 159.048C158.746 158.894 159.112 158.817 159.574 158.817C160.171 158.817 160.697 158.966 161.152 159.265C161.608 159.563 161.963 159.986 162.219 160.534C162.474 161.082 162.602 161.728 162.602 162.473C162.602 163.224 162.474 163.875 162.219 164.426C161.963 164.974 161.61 165.398 161.157 165.7C160.705 165.998 160.183 166.148 159.592 166.148C159.137 166.148 158.772 166.072 158.498 165.922C158.224 165.768 158.013 165.594 157.866 165.4C157.718 165.203 157.604 165.04 157.524 164.911H157.432V168.659H156.342ZM157.413 162.455C157.413 162.99 157.492 163.462 157.649 163.872C157.806 164.278 158.035 164.597 158.336 164.827C158.638 165.055 159.007 165.169 159.444 165.169C159.9 165.169 160.28 165.049 160.585 164.809C160.892 164.566 161.123 164.24 161.277 163.83C161.434 163.418 161.513 162.959 161.513 162.455C161.513 161.956 161.436 161.507 161.282 161.107C161.131 160.703 160.902 160.385 160.594 160.151C160.289 159.914 159.906 159.795 159.444 159.795C159.001 159.795 158.629 159.908 158.327 160.132C158.026 160.354 157.798 160.665 157.644 161.065C157.49 161.462 157.413 161.925 157.413 162.455ZM168.733 163.101V158.909H169.822V166H168.733V164.8H168.659C168.493 165.16 168.234 165.466 167.883 165.718C167.532 165.968 167.089 166.092 166.554 166.092C166.111 166.092 165.717 165.995 165.372 165.801C165.027 165.605 164.756 165.309 164.559 164.915C164.362 164.518 164.264 164.018 164.264 163.415V158.909H165.353V163.341C165.353 163.858 165.498 164.27 165.787 164.578C166.08 164.886 166.452 165.04 166.905 165.04C167.175 165.04 167.451 164.971 167.731 164.832C168.014 164.694 168.251 164.481 168.442 164.195C168.636 163.909 168.733 163.544 168.733 163.101ZM172.907 156.545V166H171.818V156.545H172.907ZM176.989 166.166C176.54 166.166 176.132 166.082 175.766 165.912C175.4 165.74 175.109 165.492 174.893 165.169C174.678 164.843 174.57 164.449 174.57 163.987C174.57 163.581 174.65 163.252 174.81 162.999C174.97 162.744 175.184 162.544 175.452 162.399C175.72 162.254 176.015 162.147 176.338 162.076C176.665 162.002 176.992 161.944 177.322 161.901C177.753 161.845 178.102 161.804 178.37 161.776C178.64 161.745 178.837 161.694 178.961 161.624C179.087 161.553 179.15 161.43 179.15 161.254V161.217C179.15 160.762 179.025 160.408 178.776 160.156C178.53 159.903 178.156 159.777 177.654 159.777C177.134 159.777 176.726 159.891 176.431 160.119C176.135 160.346 175.928 160.589 175.808 160.848L174.773 160.479C174.958 160.048 175.204 159.712 175.512 159.472C175.823 159.229 176.161 159.06 176.528 158.964C176.897 158.866 177.26 158.817 177.617 158.817C177.845 158.817 178.107 158.844 178.402 158.9C178.7 158.952 178.988 159.061 179.265 159.228C179.545 159.394 179.778 159.645 179.962 159.98C180.147 160.316 180.239 160.765 180.239 161.328V166H179.15V165.04H179.094C179.021 165.194 178.897 165.358 178.725 165.534C178.553 165.709 178.323 165.858 178.037 165.982C177.751 166.105 177.402 166.166 176.989 166.166ZM177.156 165.188C177.586 165.188 177.95 165.103 178.245 164.934C178.544 164.764 178.768 164.546 178.919 164.278C179.073 164.01 179.15 163.729 179.15 163.433V162.436C179.104 162.491 179.002 162.542 178.845 162.588C178.691 162.632 178.513 162.67 178.31 162.704C178.11 162.735 177.914 162.762 177.723 162.787C177.536 162.808 177.383 162.827 177.266 162.842C176.983 162.879 176.718 162.939 176.472 163.022C176.229 163.102 176.032 163.224 175.881 163.387C175.734 163.547 175.66 163.766 175.66 164.043C175.66 164.421 175.8 164.707 176.08 164.901C176.363 165.092 176.722 165.188 177.156 165.188ZM182.228 166V158.909H183.28V159.98H183.354C183.484 159.629 183.717 159.345 184.056 159.126C184.395 158.908 184.776 158.798 185.201 158.798C185.281 158.798 185.381 158.8 185.501 158.803C185.621 158.806 185.712 158.811 185.773 158.817V159.925C185.736 159.915 185.652 159.902 185.519 159.883C185.39 159.862 185.253 159.851 185.109 159.851C184.764 159.851 184.456 159.923 184.185 160.068C183.918 160.209 183.705 160.406 183.548 160.659C183.394 160.908 183.317 161.193 183.317 161.513V166H182.228ZM189.822 166.148C189.139 166.148 188.549 165.997 188.054 165.695C187.561 165.391 187.181 164.966 186.914 164.421C186.649 163.873 186.517 163.236 186.517 162.51C186.517 161.784 186.649 161.143 186.914 160.589C187.181 160.032 187.554 159.598 188.031 159.288C188.511 158.974 189.071 158.817 189.711 158.817C190.08 158.817 190.445 158.878 190.805 159.001C191.165 159.125 191.493 159.325 191.789 159.602C192.084 159.875 192.319 160.239 192.495 160.691C192.67 161.143 192.758 161.701 192.758 162.362V162.824H187.292V161.882H191.65C191.65 161.482 191.57 161.125 191.41 160.811C191.253 160.497 191.028 160.249 190.736 160.068C190.447 159.886 190.105 159.795 189.711 159.795C189.277 159.795 188.902 159.903 188.585 160.119C188.271 160.331 188.029 160.608 187.86 160.95C187.691 161.291 187.606 161.657 187.606 162.048V162.676C187.606 163.212 187.698 163.666 187.883 164.038C188.071 164.407 188.331 164.689 188.663 164.883C188.996 165.074 189.382 165.169 189.822 165.169C190.108 165.169 190.367 165.129 190.598 165.049C190.831 164.966 191.033 164.843 191.202 164.68C191.372 164.513 191.502 164.307 191.595 164.061L192.647 164.357C192.536 164.714 192.35 165.027 192.089 165.298C191.827 165.566 191.504 165.775 191.119 165.926C190.735 166.074 190.302 166.148 189.822 166.148ZM199.438 160.497L198.459 160.774C198.398 160.611 198.307 160.453 198.187 160.299C198.07 160.142 197.91 160.012 197.707 159.911C197.504 159.809 197.244 159.759 196.927 159.759C196.493 159.759 196.131 159.859 195.842 160.059C195.556 160.256 195.413 160.506 195.413 160.811C195.413 161.082 195.511 161.296 195.708 161.453C195.905 161.61 196.213 161.741 196.631 161.845L197.684 162.104C198.318 162.258 198.79 162.493 199.101 162.81C199.412 163.124 199.567 163.529 199.567 164.024C199.567 164.43 199.45 164.794 199.217 165.114C198.986 165.434 198.663 165.686 198.247 165.871C197.832 166.055 197.348 166.148 196.797 166.148C196.074 166.148 195.476 165.991 195.002 165.677C194.528 165.363 194.228 164.904 194.101 164.301L195.136 164.043C195.234 164.424 195.42 164.71 195.694 164.901C195.971 165.092 196.333 165.188 196.779 165.188C197.287 165.188 197.69 165.08 197.989 164.864C198.29 164.646 198.441 164.384 198.441 164.08C198.441 163.833 198.355 163.627 198.182 163.461C198.01 163.292 197.745 163.165 197.388 163.082L196.207 162.805C195.557 162.652 195.08 162.413 194.775 162.09C194.474 161.764 194.323 161.356 194.323 160.866C194.323 160.466 194.435 160.112 194.66 159.805C194.888 159.497 195.197 159.255 195.588 159.08C195.982 158.904 196.428 158.817 196.927 158.817C197.628 158.817 198.179 158.971 198.579 159.278C198.983 159.586 199.269 159.992 199.438 160.497ZM84.186 172.545V182H83.0965V172.545H84.186ZM86.1815 182V174.909H87.271V182H86.1815ZM86.7355 173.727C86.5231 173.727 86.34 173.655 86.1861 173.51C86.0353 173.366 85.9599 173.192 85.9599 172.989C85.9599 172.786 86.0353 172.612 86.1861 172.467C86.34 172.322 86.5231 172.25 86.7355 172.25C86.9478 172.25 87.1294 172.322 87.2802 172.467C87.4341 172.612 87.511 172.786 87.511 172.989C87.511 173.192 87.4341 173.366 87.2802 173.51C87.1294 173.655 86.9478 173.727 86.7355 173.727ZM90.3559 177.734V182H89.2664V174.909H90.319V176.017H90.4113C90.5775 175.657 90.8299 175.368 91.1684 175.149C91.507 174.928 91.944 174.817 92.4795 174.817C92.9596 174.817 93.3797 174.915 93.7398 175.112C94.0999 175.306 94.38 175.602 94.58 175.999C94.7801 176.393 94.8801 176.891 94.8801 177.494V182H93.7906V177.568C93.7906 177.011 93.6459 176.577 93.3566 176.266C93.0673 175.952 92.6703 175.795 92.1656 175.795C91.8178 175.795 91.507 175.871 91.2331 176.022C90.9622 176.172 90.7483 176.393 90.5914 176.682C90.4344 176.971 90.3559 177.322 90.3559 177.734ZM99.7332 184.807C99.2069 184.807 98.7545 184.739 98.3759 184.604C97.9974 184.471 97.6819 184.296 97.4295 184.077C97.1802 183.862 96.9817 183.631 96.834 183.385L97.7019 182.776C97.8004 182.905 97.925 183.053 98.0758 183.219C98.2266 183.388 98.4328 183.534 98.6944 183.657C98.9591 183.783 99.3054 183.847 99.7332 183.847C100.306 183.847 100.778 183.708 101.15 183.431C101.523 183.154 101.709 182.72 101.709 182.129V180.689H101.617C101.537 180.818 101.423 180.978 101.275 181.169C101.13 181.357 100.921 181.525 100.647 181.672C100.376 181.817 100.01 181.889 99.5485 181.889C98.9761 181.889 98.4621 181.754 98.0066 181.483C97.5542 181.212 97.1956 180.818 96.931 180.301C96.6694 179.784 96.5386 179.156 96.5386 178.418C96.5386 177.691 96.6663 177.059 96.9217 176.52C97.1772 175.979 97.5326 175.56 97.9881 175.265C98.4436 174.966 98.9699 174.817 99.567 174.817C100.029 174.817 100.395 174.894 100.666 175.048C100.94 175.198 101.149 175.371 101.294 175.565C101.441 175.755 101.555 175.912 101.635 176.036H101.746V174.909H102.798V182.203C102.798 182.812 102.66 183.308 102.383 183.69C102.109 184.074 101.74 184.356 101.275 184.534C100.813 184.716 100.299 184.807 99.7332 184.807ZM99.6962 180.911C100.133 180.911 100.503 180.81 100.804 180.61C101.106 180.41 101.335 180.123 101.492 179.747C101.649 179.372 101.727 178.922 101.727 178.399C101.727 177.888 101.651 177.437 101.497 177.047C101.343 176.656 101.115 176.349 100.813 176.128C100.512 175.906 100.139 175.795 99.6962 175.795C99.2346 175.795 98.8499 175.912 98.5421 176.146C98.2374 176.38 98.0081 176.694 97.8542 177.088C97.7034 177.482 97.628 177.919 97.628 178.399C97.628 178.892 97.705 179.327 97.8589 179.706C98.0158 180.081 98.2466 180.377 98.5513 180.592C98.8591 180.804 99.2407 180.911 99.6962 180.911ZM109.262 179.101V174.909H110.351V182H109.262V180.8H109.188C109.022 181.16 108.763 181.466 108.412 181.718C108.061 181.968 107.618 182.092 107.083 182.092C106.639 182.092 106.245 181.995 105.901 181.801C105.556 181.605 105.285 181.309 105.088 180.915C104.891 180.518 104.793 180.018 104.793 179.415V174.909H105.882V179.341C105.882 179.858 106.027 180.27 106.316 180.578C106.609 180.886 106.981 181.04 107.433 181.04C107.704 181.04 107.98 180.971 108.26 180.832C108.543 180.694 108.78 180.481 108.971 180.195C109.165 179.909 109.262 179.544 109.262 179.101ZM114.433 182.166C113.984 182.166 113.576 182.082 113.21 181.912C112.844 181.74 112.553 181.492 112.337 181.169C112.122 180.843 112.014 180.449 112.014 179.987C112.014 179.581 112.094 179.252 112.254 178.999C112.414 178.744 112.628 178.544 112.896 178.399C113.164 178.254 113.459 178.147 113.782 178.076C114.108 178.002 114.436 177.944 114.766 177.901C115.196 177.845 115.546 177.804 115.813 177.776C116.084 177.745 116.281 177.694 116.404 177.624C116.531 177.553 116.594 177.43 116.594 177.254V177.217C116.594 176.762 116.469 176.408 116.22 176.156C115.974 175.903 115.6 175.777 115.098 175.777C114.578 175.777 114.17 175.891 113.875 176.119C113.579 176.346 113.371 176.589 113.251 176.848L112.217 176.479C112.402 176.048 112.648 175.712 112.956 175.472C113.267 175.229 113.605 175.06 113.972 174.964C114.341 174.866 114.704 174.817 115.061 174.817C115.289 174.817 115.55 174.844 115.846 174.9C116.144 174.952 116.432 175.061 116.709 175.228C116.989 175.394 117.222 175.645 117.406 175.98C117.591 176.316 117.683 176.765 117.683 177.328V182H116.594V181.04H116.538C116.464 181.194 116.341 181.358 116.169 181.534C115.997 181.709 115.767 181.858 115.481 181.982C115.195 182.105 114.846 182.166 114.433 182.166ZM114.599 181.188C115.03 181.188 115.393 181.103 115.689 180.934C115.987 180.764 116.212 180.546 116.363 180.278C116.517 180.01 116.594 179.729 116.594 179.433V178.436C116.548 178.491 116.446 178.542 116.289 178.588C116.135 178.632 115.957 178.67 115.753 178.704C115.553 178.735 115.358 178.762 115.167 178.787C114.979 178.808 114.827 178.827 114.71 178.842C114.427 178.879 114.162 178.939 113.916 179.022C113.673 179.102 113.476 179.224 113.325 179.387C113.177 179.547 113.104 179.766 113.104 180.043C113.104 180.421 113.244 180.707 113.524 180.901C113.807 181.092 114.165 181.188 114.599 181.188ZM122.534 184.807C122.008 184.807 121.555 184.739 121.177 184.604C120.798 184.471 120.483 184.296 120.23 184.077C119.981 183.862 119.783 183.631 119.635 183.385L120.503 182.776C120.601 182.905 120.726 183.053 120.877 183.219C121.027 183.388 121.234 183.534 121.495 183.657C121.76 183.783 122.106 183.847 122.534 183.847C123.106 183.847 123.579 183.708 123.951 183.431C124.324 183.154 124.51 182.72 124.51 182.129V180.689H124.417C124.337 180.818 124.224 180.978 124.076 181.169C123.931 181.357 123.722 181.525 123.448 181.672C123.177 181.817 122.811 181.889 122.349 181.889C121.777 181.889 121.263 181.754 120.807 181.483C120.355 181.212 119.996 180.818 119.732 180.301C119.47 179.784 119.339 179.156 119.339 178.418C119.339 177.691 119.467 177.059 119.723 176.52C119.978 175.979 120.333 175.56 120.789 175.265C121.244 174.966 121.771 174.817 122.368 174.817C122.829 174.817 123.196 174.894 123.466 175.048C123.74 175.198 123.95 175.371 124.094 175.565C124.242 175.755 124.356 175.912 124.436 176.036H124.547V174.909H125.599V182.203C125.599 182.812 125.461 183.308 125.184 183.69C124.91 184.074 124.541 184.356 124.076 184.534C123.614 184.716 123.1 184.807 122.534 184.807ZM122.497 180.911C122.934 180.911 123.303 180.81 123.605 180.61C123.907 180.41 124.136 180.123 124.293 179.747C124.45 179.372 124.528 178.922 124.528 178.399C124.528 177.888 124.451 177.437 124.297 177.047C124.144 176.656 123.916 176.349 123.614 176.128C123.313 175.906 122.94 175.795 122.497 175.795C122.035 175.795 121.651 175.912 121.343 176.146C121.038 176.38 120.809 176.694 120.655 177.088C120.504 177.482 120.429 177.919 120.429 178.399C120.429 178.892 120.506 179.327 120.66 179.706C120.817 180.081 121.047 180.377 121.352 180.592C121.66 180.804 122.042 180.911 122.497 180.911ZM130.567 182.148C129.883 182.148 129.294 181.997 128.798 181.695C128.306 181.391 127.926 180.966 127.658 180.421C127.394 179.873 127.261 179.236 127.261 178.51C127.261 177.784 127.394 177.143 127.658 176.589C127.926 176.032 128.298 175.598 128.775 175.288C129.256 174.974 129.816 174.817 130.456 174.817C130.825 174.817 131.19 174.878 131.55 175.001C131.91 175.125 132.238 175.325 132.533 175.602C132.829 175.875 133.064 176.239 133.24 176.691C133.415 177.143 133.503 177.701 133.503 178.362V178.824H128.037V177.882H132.395C132.395 177.482 132.315 177.125 132.155 176.811C131.998 176.497 131.773 176.249 131.481 176.068C131.191 175.886 130.85 175.795 130.456 175.795C130.022 175.795 129.646 175.903 129.329 176.119C129.015 176.331 128.774 176.608 128.605 176.95C128.435 177.291 128.351 177.657 128.351 178.048V178.676C128.351 179.212 128.443 179.666 128.628 180.038C128.815 180.407 129.075 180.689 129.408 180.883C129.74 181.074 130.127 181.169 130.567 181.169C130.853 181.169 131.111 181.129 131.342 181.049C131.576 180.966 131.778 180.843 131.947 180.68C132.116 180.513 132.247 180.307 132.339 180.061L133.392 180.357C133.281 180.714 133.095 181.027 132.833 181.298C132.572 181.566 132.249 181.775 131.864 181.926C131.479 182.074 131.047 182.148 130.567 182.148ZM136.249 177.734V182H135.16V174.909H136.213V176.017H136.305C136.471 175.657 136.723 175.368 137.062 175.149C137.401 174.928 137.838 174.817 138.373 174.817C138.853 174.817 139.273 174.915 139.633 175.112C139.993 175.306 140.274 175.602 140.474 175.999C140.674 176.393 140.774 176.891 140.774 177.494V182H139.684V177.568C139.684 177.011 139.539 176.577 139.25 176.266C138.961 175.952 138.564 175.795 138.059 175.795C137.711 175.795 137.401 175.871 137.127 176.022C136.856 176.172 136.642 176.393 136.485 176.682C136.328 176.971 136.249 177.322 136.249 177.734ZM147.787 176.497L146.809 176.774C146.747 176.611 146.656 176.453 146.536 176.299C146.419 176.142 146.259 176.012 146.056 175.911C145.853 175.809 145.593 175.759 145.276 175.759C144.842 175.759 144.48 175.859 144.191 176.059C143.905 176.256 143.762 176.506 143.762 176.811C143.762 177.082 143.86 177.296 144.057 177.453C144.254 177.61 144.562 177.741 144.98 177.845L146.033 178.104C146.667 178.258 147.139 178.493 147.45 178.81C147.761 179.124 147.916 179.529 147.916 180.024C147.916 180.43 147.8 180.794 147.566 181.114C147.335 181.434 147.012 181.686 146.596 181.871C146.181 182.055 145.697 182.148 145.147 182.148C144.423 182.148 143.825 181.991 143.351 181.677C142.877 181.363 142.577 180.904 142.451 180.301L143.485 180.043C143.583 180.424 143.769 180.71 144.043 180.901C144.32 181.092 144.682 181.188 145.128 181.188C145.636 181.188 146.039 181.08 146.338 180.864C146.639 180.646 146.79 180.384 146.79 180.08C146.79 179.833 146.704 179.627 146.532 179.461C146.359 179.292 146.095 179.165 145.738 179.082L144.556 178.805C143.906 178.652 143.429 178.413 143.125 178.09C142.823 177.764 142.672 177.356 142.672 176.866C142.672 176.466 142.784 176.112 143.009 175.805C143.237 175.497 143.546 175.255 143.937 175.08C144.331 174.904 144.777 174.817 145.276 174.817C145.978 174.817 146.528 174.971 146.929 175.278C147.332 175.586 147.618 175.992 147.787 176.497ZM155.89 182.148C155.299 182.148 154.778 181.998 154.325 181.7C153.873 181.398 153.519 180.974 153.264 180.426C153.008 179.875 152.88 179.224 152.88 178.473C152.88 177.728 153.008 177.082 153.264 176.534C153.519 175.986 153.874 175.563 154.33 175.265C154.785 174.966 155.312 174.817 155.909 174.817C156.37 174.817 156.735 174.894 157.003 175.048C157.274 175.198 157.48 175.371 157.621 175.565C157.766 175.755 157.878 175.912 157.958 176.036H158.051V172.545H159.14V182H158.088V180.911H157.958C157.878 181.04 157.765 181.203 157.617 181.4C157.469 181.594 157.258 181.768 156.984 181.922C156.71 182.072 156.346 182.148 155.89 182.148ZM156.038 181.169C156.475 181.169 156.844 181.055 157.146 180.827C157.448 180.597 157.677 180.278 157.834 179.872C157.991 179.462 158.069 178.99 158.069 178.455C158.069 177.925 157.992 177.462 157.838 177.065C157.685 176.665 157.457 176.354 157.155 176.132C156.854 175.908 156.481 175.795 156.038 175.795C155.576 175.795 155.192 175.914 154.884 176.151C154.579 176.385 154.35 176.703 154.196 177.107C154.045 177.507 153.97 177.956 153.97 178.455C153.97 178.959 154.047 179.418 154.201 179.83C154.358 180.24 154.588 180.566 154.893 180.809C155.201 181.049 155.583 181.169 156.038 181.169ZM164.26 182.148C163.577 182.148 162.987 181.997 162.492 181.695C161.999 181.391 161.619 180.966 161.352 180.421C161.087 179.873 160.955 179.236 160.955 178.51C160.955 177.784 161.087 177.143 161.352 176.589C161.619 176.032 161.992 175.598 162.469 175.288C162.949 174.974 163.509 174.817 164.149 174.817C164.518 174.817 164.883 174.878 165.243 175.001C165.603 175.125 165.931 175.325 166.227 175.602C166.522 175.875 166.757 176.239 166.933 176.691C167.108 177.143 167.196 177.701 167.196 178.362V178.824H161.73V177.882H166.088C166.088 177.482 166.008 177.125 165.848 176.811C165.691 176.497 165.466 176.249 165.174 176.068C164.885 175.886 164.543 175.795 164.149 175.795C163.715 175.795 163.34 175.903 163.023 176.119C162.709 176.331 162.467 176.608 162.298 176.95C162.129 177.291 162.044 177.657 162.044 178.048V178.676C162.044 179.212 162.136 179.666 162.321 180.038C162.509 180.407 162.769 180.689 163.101 180.883C163.434 181.074 163.82 181.169 164.26 181.169C164.546 181.169 164.805 181.129 165.036 181.049C165.269 180.966 165.471 180.843 165.64 180.68C165.81 180.513 165.94 180.307 166.033 180.061L167.085 180.357C166.974 180.714 166.788 181.027 166.527 181.298C166.265 181.566 165.942 181.775 165.557 181.926C165.172 182.074 164.74 182.148 164.26 182.148ZM59.7308 200.659V190.909H60.7834V192.036H60.9126C60.9926 191.912 61.1034 191.755 61.245 191.565C61.3897 191.371 61.5959 191.198 61.8636 191.048C62.1344 190.894 62.5007 190.817 62.9623 190.817C63.5594 190.817 64.0857 190.966 64.5412 191.265C64.9967 191.563 65.3521 191.986 65.6076 192.534C65.863 193.082 65.9907 193.728 65.9907 194.473C65.9907 195.224 65.863 195.875 65.6076 196.426C65.3521 196.974 64.9982 197.398 64.5458 197.7C64.0934 197.998 63.5717 198.148 62.9808 198.148C62.5253 198.148 62.1606 198.072 61.8867 197.922C61.6128 197.768 61.402 197.594 61.2542 197.4C61.1065 197.203 60.9926 197.04 60.9126 196.911H60.8203V200.659H59.7308ZM60.8018 194.455C60.8018 194.99 60.8803 195.462 61.0373 195.872C61.1942 196.278 61.4235 196.597 61.7251 196.827C62.0267 197.055 62.396 197.169 62.8331 197.169C63.2886 197.169 63.6687 197.049 63.9733 196.809C64.2811 196.566 64.5119 196.24 64.6658 195.83C64.8228 195.418 64.9013 194.959 64.9013 194.455C64.9013 193.956 64.8243 193.507 64.6704 193.107C64.5196 192.703 64.2903 192.385 63.9826 192.151C63.6779 191.914 63.2947 191.795 62.8331 191.795C62.3899 191.795 62.0175 191.908 61.7159 192.132C61.4143 192.354 61.1865 192.665 61.0326 193.065C60.8788 193.462 60.8018 193.925 60.8018 194.455ZM67.6527 198V190.909H68.7052V191.98H68.7791C68.9084 191.629 69.1423 191.345 69.4808 191.126C69.8193 190.908 70.201 190.798 70.6257 190.798C70.7057 190.798 70.8057 190.8 70.9258 190.803C71.0458 190.806 71.1366 190.811 71.1981 190.817V191.925C71.1612 191.915 71.0766 191.902 70.9442 191.883C70.815 191.862 70.678 191.851 70.5334 191.851C70.1887 191.851 69.8809 191.923 69.6101 192.068C69.3423 192.209 69.1299 192.406 68.973 192.659C68.8191 192.908 68.7422 193.193 68.7422 193.513V198H67.6527ZM75.1545 198.148C74.5143 198.148 73.9526 197.995 73.4694 197.691C72.9893 197.386 72.6139 196.96 72.343 196.412C72.0753 195.864 71.9414 195.224 71.9414 194.491C71.9414 193.753 72.0753 193.108 72.343 192.557C72.6139 192.006 72.9893 191.578 73.4694 191.274C73.9526 190.969 74.5143 190.817 75.1545 190.817C75.7946 190.817 76.3547 190.969 76.8349 191.274C77.318 191.578 77.6935 192.006 77.9613 192.557C78.2321 193.108 78.3675 193.753 78.3675 194.491C78.3675 195.224 78.2321 195.864 77.9613 196.412C77.6935 196.96 77.318 197.386 76.8349 197.691C76.3547 197.995 75.7946 198.148 75.1545 198.148ZM75.1545 197.169C75.6407 197.169 76.0408 197.044 76.3547 196.795C76.6687 196.546 76.901 196.218 77.0518 195.812C77.2026 195.406 77.278 194.965 77.278 194.491C77.278 194.018 77.2026 193.576 77.0518 193.167C76.901 192.757 76.6687 192.426 76.3547 192.174C76.0408 191.922 75.6407 191.795 75.1545 191.795C74.6682 191.795 74.2681 191.922 73.9542 192.174C73.6402 192.426 73.4079 192.757 73.2571 193.167C73.1063 193.576 73.0309 194.018 73.0309 194.491C73.0309 194.965 73.1063 195.406 73.2571 195.812C73.4079 196.218 73.6402 196.546 73.9542 196.795C74.2681 197.044 74.6682 197.169 75.1545 197.169ZM82.8928 200.807C82.3665 200.807 81.9141 200.739 81.5356 200.604C81.157 200.471 80.8416 200.296 80.5892 200.077C80.3399 199.862 80.1414 199.631 79.9937 199.385L80.8616 198.776C80.9601 198.905 81.0847 199.053 81.2355 199.219C81.3863 199.388 81.5925 199.534 81.8541 199.657C82.1188 199.783 82.465 199.847 82.8928 199.847C83.4653 199.847 83.9377 199.708 84.3101 199.431C84.6825 199.154 84.8687 198.72 84.8687 198.129V196.689H84.7763C84.6963 196.818 84.5825 196.978 84.4347 197.169C84.2901 197.357 84.0808 197.525 83.8069 197.672C83.5361 197.817 83.1698 197.889 82.7082 197.889C82.1357 197.889 81.6218 197.754 81.1663 197.483C80.7138 197.212 80.3553 196.818 80.0906 196.301C79.829 195.784 79.6982 195.156 79.6982 194.418C79.6982 193.691 79.8259 193.059 80.0814 192.52C80.3368 191.979 80.6923 191.56 81.1478 191.265C81.6033 190.966 82.1296 190.817 82.7266 190.817C83.1883 190.817 83.5545 190.894 83.8254 191.048C84.0993 191.198 84.3085 191.371 84.4532 191.565C84.6009 191.755 84.7148 191.912 84.7948 192.036H84.9056V190.909H85.9582V198.203C85.9582 198.812 85.8197 199.308 85.5427 199.69C85.2688 200.074 84.8995 200.356 84.4347 200.534C83.9731 200.716 83.4591 200.807 82.8928 200.807ZM82.8559 196.911C83.2929 196.911 83.6622 196.81 83.9638 196.61C84.2655 196.41 84.4947 196.123 84.6517 195.747C84.8087 195.372 84.8871 194.922 84.8871 194.399C84.8871 193.888 84.8102 193.437 84.6563 193.047C84.5024 192.656 84.2747 192.349 83.9731 192.128C83.6715 191.906 83.2991 191.795 82.8559 191.795C82.3942 191.795 82.0095 191.912 81.7018 192.146C81.3971 192.38 81.1678 192.694 81.0139 193.088C80.8631 193.482 80.7877 193.919 80.7877 194.399C80.7877 194.892 80.8647 195.327 81.0185 195.706C81.1755 196.081 81.4063 196.377 81.711 196.592C82.0188 196.804 82.4004 196.911 82.8559 196.911ZM87.9525 198V190.909H89.005V191.98H89.0789C89.2082 191.629 89.4421 191.345 89.7806 191.126C90.1191 190.908 90.5008 190.798 90.9255 190.798C91.0055 190.798 91.1055 190.8 91.2256 190.803C91.3456 190.806 91.4364 190.811 91.4979 190.817V191.925C91.461 191.915 91.3764 191.902 91.244 191.883C91.1148 191.862 90.9778 191.851 90.8332 191.851C90.4885 191.851 90.1807 191.923 89.9099 192.068C89.6421 192.209 89.4298 192.406 89.2728 192.659C89.1189 192.908 89.042 193.193 89.042 193.513V198H87.9525ZM94.876 198.166C94.4267 198.166 94.0189 198.082 93.6527 197.912C93.2864 197.74 92.9956 197.492 92.7802 197.169C92.5647 196.843 92.457 196.449 92.457 195.987C92.457 195.581 92.537 195.252 92.6971 194.999C92.8571 194.744 93.071 194.544 93.3388 194.399C93.6065 194.254 93.902 194.147 94.2251 194.076C94.5514 194.002 94.8791 193.944 95.2084 193.901C95.6393 193.845 95.9886 193.804 96.2564 193.776C96.5272 193.745 96.7242 193.694 96.8473 193.624C96.9735 193.553 97.0366 193.43 97.0366 193.254V193.217C97.0366 192.762 96.9119 192.408 96.6626 192.156C96.4164 191.903 96.0425 191.777 95.5408 191.777C95.0207 191.777 94.6129 191.891 94.3174 192.119C94.022 192.346 93.8143 192.589 93.6942 192.848L92.6601 192.479C92.8448 192.048 93.091 191.712 93.3988 191.472C93.7096 191.229 94.0482 191.06 94.4144 190.964C94.7837 190.866 95.1469 190.817 95.5039 190.817C95.7316 190.817 95.9932 190.844 96.2887 190.9C96.5872 190.952 96.875 191.061 97.152 191.228C97.432 191.394 97.6644 191.645 97.8491 191.98C98.0337 192.316 98.126 192.765 98.126 193.328V198H97.0366V197.04H96.9812C96.9073 197.194 96.7842 197.358 96.6118 197.534C96.4395 197.709 96.2102 197.858 95.924 197.982C95.6378 198.105 95.2884 198.166 94.876 198.166ZM95.0422 197.188C95.4731 197.188 95.8363 197.103 96.1317 196.934C96.4303 196.764 96.6549 196.546 96.8057 196.278C96.9596 196.01 97.0366 195.729 97.0366 195.433V194.436C96.9904 194.491 96.8888 194.542 96.7319 194.588C96.578 194.632 96.3995 194.67 96.1964 194.704C95.9963 194.735 95.8009 194.762 95.6101 194.787C95.4223 194.808 95.27 194.827 95.153 194.842C94.8699 194.879 94.6052 194.939 94.359 195.022C94.1159 195.102 93.9189 195.224 93.7681 195.387C93.6204 195.547 93.5465 195.766 93.5465 196.043C93.5465 196.421 93.6865 196.707 93.9666 196.901C94.2497 197.092 94.6083 197.188 95.0422 197.188ZM100.115 198V190.909H101.167V192.017H101.259C101.407 191.638 101.646 191.345 101.975 191.135C102.304 190.923 102.7 190.817 103.161 190.817C103.629 190.817 104.019 190.923 104.329 191.135C104.643 191.345 104.888 191.638 105.063 192.017H105.137C105.319 191.651 105.591 191.36 105.954 191.145C106.318 190.926 106.753 190.817 107.261 190.817C107.895 190.817 108.413 191.015 108.817 191.412C109.22 191.806 109.421 192.42 109.421 193.254V198H108.332V193.254C108.332 192.731 108.189 192.357 107.903 192.132C107.616 191.908 107.279 191.795 106.892 191.795C106.393 191.795 106.007 191.946 105.733 192.248C105.459 192.546 105.322 192.925 105.322 193.384V198H104.214V193.143C104.214 192.74 104.083 192.416 103.822 192.169C103.56 191.92 103.223 191.795 102.811 191.795C102.527 191.795 102.263 191.871 102.017 192.022C101.773 192.172 101.576 192.382 101.426 192.65C101.278 192.914 101.204 193.22 101.204 193.568V198H100.115ZM113.5 198.166C113.051 198.166 112.643 198.082 112.277 197.912C111.91 197.74 111.62 197.492 111.404 197.169C111.189 196.843 111.081 196.449 111.081 195.987C111.081 195.581 111.161 195.252 111.321 194.999C111.481 194.744 111.695 194.544 111.963 194.399C112.231 194.254 112.526 194.147 112.849 194.076C113.175 194.002 113.503 193.944 113.832 193.901C114.263 193.845 114.613 193.804 114.88 193.776C115.151 193.745 115.348 193.694 115.471 193.624C115.597 193.553 115.661 193.43 115.661 193.254V193.217C115.661 192.762 115.536 192.408 115.287 192.156C115.04 191.903 114.666 191.777 114.165 191.777C113.645 191.777 113.237 191.891 112.941 192.119C112.646 192.346 112.438 192.589 112.318 192.848L111.284 192.479C111.469 192.048 111.715 191.712 112.023 191.472C112.334 191.229 112.672 191.06 113.038 190.964C113.408 190.866 113.771 190.817 114.128 190.817C114.356 190.817 114.617 190.844 114.913 190.9C115.211 190.952 115.499 191.061 115.776 191.228C116.056 191.394 116.288 191.645 116.473 191.98C116.658 192.316 116.75 192.765 116.75 193.328V198H115.661V197.04H115.605C115.531 197.194 115.408 197.358 115.236 197.534C115.064 197.709 114.834 197.858 114.548 197.982C114.262 198.105 113.912 198.166 113.5 198.166ZM113.666 197.188C114.097 197.188 114.46 197.103 114.756 196.934C115.054 196.764 115.279 196.546 115.43 196.278C115.584 196.01 115.661 195.729 115.661 195.433V194.436C115.614 194.491 115.513 194.542 115.356 194.588C115.202 194.632 115.024 194.67 114.82 194.704C114.62 194.735 114.425 194.762 114.234 194.787C114.046 194.808 113.894 194.827 113.777 194.842C113.494 194.879 113.229 194.939 112.983 195.022C112.74 195.102 112.543 195.224 112.392 195.387C112.244 195.547 112.171 195.766 112.171 196.043C112.171 196.421 112.311 196.707 112.591 196.901C112.874 197.092 113.232 197.188 113.666 197.188ZM121.619 198.148C120.955 198.148 120.382 197.991 119.902 197.677C119.422 197.363 119.053 196.931 118.794 196.38C118.535 195.829 118.406 195.199 118.406 194.491C118.406 193.771 118.539 193.136 118.803 192.585C119.071 192.031 119.443 191.598 119.92 191.288C120.401 190.974 120.961 190.817 121.601 190.817C122.099 190.817 122.549 190.909 122.949 191.094C123.349 191.278 123.677 191.537 123.932 191.869C124.188 192.202 124.346 192.589 124.408 193.033H123.318C123.235 192.71 123.05 192.423 122.764 192.174C122.481 191.922 122.099 191.795 121.619 191.795C121.195 191.795 120.822 191.906 120.502 192.128C120.185 192.346 119.937 192.656 119.759 193.056C119.583 193.453 119.496 193.919 119.496 194.455C119.496 195.002 119.582 195.479 119.754 195.886C119.93 196.292 120.176 196.607 120.493 196.832C120.813 197.057 121.188 197.169 121.619 197.169C121.902 197.169 122.159 197.12 122.39 197.021C122.621 196.923 122.817 196.781 122.977 196.597C123.137 196.412 123.25 196.19 123.318 195.932H124.408C124.346 196.35 124.194 196.727 123.951 197.063C123.711 197.395 123.392 197.66 122.995 197.857C122.601 198.051 122.142 198.148 121.619 198.148ZM121.102 197.963H122.007L121.933 198.332C122.173 198.369 122.393 198.469 122.593 198.632C122.793 198.799 122.893 199.062 122.893 199.422C122.893 199.819 122.729 200.142 122.399 200.391C122.073 200.644 121.592 200.77 120.955 200.77L120.918 200.05C121.204 200.05 121.441 200.004 121.629 199.911C121.819 199.822 121.915 199.671 121.915 199.459C121.915 199.246 121.836 199.102 121.679 199.025C121.522 198.948 121.268 198.896 120.918 198.868L121.102 197.963ZM128.881 198.148C128.241 198.148 127.679 197.995 127.196 197.691C126.716 197.386 126.34 196.96 126.07 196.412C125.802 195.864 125.668 195.224 125.668 194.491C125.668 193.753 125.802 193.108 126.07 192.557C126.34 192.006 126.716 191.578 127.196 191.274C127.679 190.969 128.241 190.817 128.881 190.817C129.521 190.817 130.081 190.969 130.561 191.274C131.045 191.578 131.42 192.006 131.688 192.557C131.959 193.108 132.094 193.753 132.094 194.491C132.094 195.224 131.959 195.864 131.688 196.412C131.42 196.96 131.045 197.386 130.561 197.691C130.081 197.995 129.521 198.148 128.881 198.148ZM128.881 197.169C129.367 197.169 129.767 197.044 130.081 196.795C130.395 196.546 130.628 196.218 130.778 195.812C130.929 195.406 131.005 194.965 131.005 194.491C131.005 194.018 130.929 193.576 130.778 193.167C130.628 192.757 130.395 192.426 130.081 192.174C129.767 191.922 129.367 191.795 128.881 191.795C128.395 191.795 127.995 191.922 127.681 192.174C127.367 192.426 127.134 192.757 126.984 193.167C126.833 193.576 126.757 194.018 126.757 194.491C126.757 194.965 126.833 195.406 126.984 195.812C127.134 196.218 127.367 196.546 127.681 196.795C127.995 197.044 128.395 197.169 128.881 197.169ZM127.459 190.06L126.61 190.023C126.61 189.552 126.744 189.167 127.011 188.869C127.282 188.567 127.616 188.416 128.013 188.416C128.189 188.416 128.344 188.447 128.479 188.509C128.615 188.567 128.744 188.635 128.867 188.712C128.99 188.789 129.116 188.858 129.246 188.919C129.378 188.978 129.527 189.007 129.694 189.007C129.869 189.007 130.017 188.939 130.137 188.804C130.26 188.665 130.321 188.499 130.321 188.305L131.152 188.379C131.152 188.859 131.017 189.241 130.746 189.524C130.478 189.807 130.146 189.949 129.749 189.949C129.537 189.949 129.361 189.92 129.223 189.861C129.084 189.8 128.961 189.73 128.853 189.653C128.746 189.576 128.632 189.509 128.512 189.45C128.392 189.389 128.244 189.358 128.069 189.358C127.893 189.358 127.747 189.427 127.63 189.566C127.516 189.701 127.459 189.866 127.459 190.06ZM136.73 198.148C136.047 198.148 135.458 197.997 134.962 197.695C134.47 197.391 134.09 196.966 133.822 196.421C133.557 195.873 133.425 195.236 133.425 194.51C133.425 193.784 133.557 193.143 133.822 192.589C134.09 192.032 134.462 191.598 134.939 191.288C135.419 190.974 135.979 190.817 136.619 190.817C136.989 190.817 137.353 190.878 137.713 191.001C138.074 191.125 138.401 191.325 138.697 191.602C138.992 191.875 139.228 192.239 139.403 192.691C139.579 193.143 139.666 193.701 139.666 194.362V194.824H134.2V193.882H138.558C138.558 193.482 138.478 193.125 138.318 192.811C138.161 192.497 137.937 192.249 137.644 192.068C137.355 191.886 137.013 191.795 136.619 191.795C136.185 191.795 135.81 191.903 135.493 192.119C135.179 192.331 134.937 192.608 134.768 192.95C134.599 193.291 134.514 193.657 134.514 194.048V194.676C134.514 195.212 134.607 195.666 134.791 196.038C134.979 196.407 135.239 196.689 135.571 196.883C135.904 197.074 136.29 197.169 136.73 197.169C137.016 197.169 137.275 197.129 137.506 197.049C137.74 196.966 137.941 196.843 138.111 196.68C138.28 196.513 138.411 196.307 138.503 196.061L139.555 196.357C139.445 196.714 139.258 197.027 138.997 197.298C138.735 197.566 138.412 197.775 138.027 197.926C137.643 198.074 137.21 198.148 136.73 198.148ZM146.346 192.497L145.368 192.774C145.306 192.611 145.215 192.453 145.095 192.299C144.978 192.142 144.818 192.012 144.615 191.911C144.412 191.809 144.152 191.759 143.835 191.759C143.401 191.759 143.039 191.859 142.75 192.059C142.464 192.256 142.321 192.506 142.321 192.811C142.321 193.082 142.419 193.296 142.616 193.453C142.813 193.61 143.121 193.741 143.539 193.845L144.592 194.104C145.226 194.258 145.698 194.493 146.009 194.81C146.32 195.124 146.476 195.529 146.476 196.024C146.476 196.43 146.359 196.794 146.125 197.114C145.894 197.434 145.571 197.686 145.155 197.871C144.74 198.055 144.257 198.148 143.706 198.148C142.982 198.148 142.384 197.991 141.91 197.677C141.436 197.363 141.136 196.904 141.01 196.301L142.044 196.043C142.142 196.424 142.328 196.71 142.602 196.901C142.879 197.092 143.241 197.188 143.687 197.188C144.195 197.188 144.598 197.08 144.897 196.864C145.198 196.646 145.349 196.384 145.349 196.08C145.349 195.833 145.263 195.627 145.091 195.461C144.918 195.292 144.654 195.165 144.297 195.082L143.115 194.805C142.465 194.652 141.988 194.413 141.684 194.09C141.382 193.764 141.231 193.356 141.231 192.866C141.231 192.466 141.344 192.112 141.568 191.805C141.796 191.497 142.105 191.255 142.496 191.08C142.89 190.904 143.336 190.817 143.835 190.817C144.537 190.817 145.088 190.971 145.488 191.278C145.891 191.586 146.177 191.992 146.346 192.497ZM153.858 198.166C153.409 198.166 153.001 198.082 152.635 197.912C152.269 197.74 151.978 197.492 151.763 197.169C151.547 196.843 151.439 196.449 151.439 195.987C151.439 195.581 151.519 195.252 151.679 194.999C151.84 194.744 152.053 194.544 152.321 194.399C152.589 194.254 152.884 194.147 153.208 194.076C153.534 194.002 153.862 193.944 154.191 193.901C154.622 193.845 154.971 193.804 155.239 193.776C155.51 193.745 155.707 193.694 155.83 193.624C155.956 193.553 156.019 193.43 156.019 193.254V193.217C156.019 192.762 155.894 192.408 155.645 192.156C155.399 191.903 155.025 191.777 154.523 191.777C154.003 191.777 153.595 191.891 153.3 192.119C153.004 192.346 152.797 192.589 152.677 192.848L151.643 192.479C151.827 192.048 152.073 191.712 152.381 191.472C152.692 191.229 153.031 191.06 153.397 190.964C153.766 190.866 154.129 190.817 154.486 190.817C154.714 190.817 154.976 190.844 155.271 190.9C155.57 190.952 155.857 191.061 156.134 191.228C156.414 191.394 156.647 191.645 156.831 191.98C157.016 192.316 157.108 192.765 157.108 193.328V198H156.019V197.04H155.964C155.89 197.194 155.767 197.358 155.594 197.534C155.422 197.709 155.193 197.858 154.906 197.982C154.62 198.105 154.271 198.166 153.858 198.166ZM154.025 197.188C154.456 197.188 154.819 197.103 155.114 196.934C155.413 196.764 155.637 196.546 155.788 196.278C155.942 196.01 156.019 195.729 156.019 195.433V194.436C155.973 194.491 155.871 194.542 155.714 194.588C155.56 194.632 155.382 194.67 155.179 194.704C154.979 194.735 154.783 194.762 154.592 194.787C154.405 194.808 154.252 194.827 154.135 194.842C153.852 194.879 153.588 194.939 153.341 195.022C153.098 195.102 152.901 195.224 152.751 195.387C152.603 195.547 152.529 195.766 152.529 196.043C152.529 196.421 152.669 196.707 152.949 196.901C153.232 197.092 153.591 197.188 154.025 197.188ZM162.181 190.909V191.832H158.506V190.909H162.181ZM159.577 189.21H160.667V195.969C160.667 196.277 160.711 196.507 160.8 196.661C160.893 196.812 161.01 196.914 161.151 196.966C161.296 197.015 161.448 197.04 161.608 197.04C161.728 197.04 161.827 197.034 161.904 197.021C161.981 197.006 162.042 196.994 162.088 196.984L162.31 197.963C162.236 197.991 162.133 198.018 162.001 198.046C161.868 198.077 161.701 198.092 161.498 198.092C161.19 198.092 160.888 198.026 160.593 197.894C160.3 197.761 160.057 197.56 159.863 197.289C159.673 197.018 159.577 196.677 159.577 196.264V189.21ZM168.288 195.101V190.909H169.378V198H168.288V196.8H168.215C168.048 197.16 167.79 197.466 167.439 197.718C167.088 197.968 166.645 198.092 166.109 198.092C165.666 198.092 165.272 197.995 164.928 197.801C164.583 197.605 164.312 197.309 164.115 196.915C163.918 196.518 163.82 196.018 163.82 195.415V190.909H164.909V195.341C164.909 195.858 165.054 196.27 165.343 196.578C165.635 196.886 166.008 197.04 166.46 197.04C166.731 197.04 167.007 196.971 167.287 196.832C167.57 196.694 167.807 196.481 167.998 196.195C168.191 195.909 168.288 195.544 168.288 195.101ZM173.46 198.166C173.011 198.166 172.603 198.082 172.237 197.912C171.87 197.74 171.58 197.492 171.364 197.169C171.149 196.843 171.041 196.449 171.041 195.987C171.041 195.581 171.121 195.252 171.281 194.999C171.441 194.744 171.655 194.544 171.923 194.399C172.19 194.254 172.486 194.147 172.809 194.076C173.135 194.002 173.463 193.944 173.792 193.901C174.223 193.845 174.573 193.804 174.84 193.776C175.111 193.745 175.308 193.694 175.431 193.624C175.557 193.553 175.621 193.43 175.621 193.254V193.217C175.621 192.762 175.496 192.408 175.247 192.156C175 191.903 174.626 191.777 174.125 191.777C173.605 191.777 173.197 191.891 172.901 192.119C172.606 192.346 172.398 192.589 172.278 192.848L171.244 192.479C171.429 192.048 171.675 191.712 171.983 191.472C172.294 191.229 172.632 191.06 172.998 190.964C173.368 190.866 173.731 190.817 174.088 190.817C174.316 190.817 174.577 190.844 174.873 190.9C175.171 190.952 175.459 191.061 175.736 191.228C176.016 191.394 176.248 191.645 176.433 191.98C176.618 192.316 176.71 192.765 176.71 193.328V198H175.621V197.04H175.565C175.491 197.194 175.368 197.358 175.196 197.534C175.023 197.709 174.794 197.858 174.508 197.982C174.222 198.105 173.872 198.166 173.46 198.166ZM173.626 197.188C174.057 197.188 174.42 197.103 174.716 196.934C175.014 196.764 175.239 196.546 175.39 196.278C175.544 196.01 175.621 195.729 175.621 195.433V194.436C175.574 194.491 175.473 194.542 175.316 194.588C175.162 194.632 174.983 194.67 174.78 194.704C174.58 194.735 174.385 194.762 174.194 194.787C174.006 194.808 173.854 194.827 173.737 194.842C173.454 194.879 173.189 194.939 172.943 195.022C172.7 195.102 172.503 195.224 172.352 195.387C172.204 195.547 172.13 195.766 172.13 196.043C172.13 196.421 172.271 196.707 172.551 196.901C172.834 197.092 173.192 197.188 173.626 197.188ZM178.699 198V190.909H179.788V198H178.699ZM179.253 189.727C179.04 189.727 178.857 189.655 178.703 189.51C178.552 189.366 178.477 189.192 178.477 188.989C178.477 188.786 178.552 188.612 178.703 188.467C178.857 188.322 179.04 188.25 179.253 188.25C179.465 188.25 179.646 188.322 179.797 188.467C179.951 188.612 180.028 188.786 180.028 188.989C180.028 189.192 179.951 189.366 179.797 189.51C179.646 189.655 179.465 189.727 179.253 189.727ZM186.806 192.497L185.828 192.774C185.766 192.611 185.675 192.453 185.555 192.299C185.438 192.142 185.278 192.012 185.075 191.911C184.872 191.809 184.612 191.759 184.295 191.759C183.861 191.759 183.499 191.859 183.21 192.059C182.924 192.256 182.781 192.506 182.781 192.811C182.781 193.082 182.879 193.296 183.076 193.453C183.273 193.61 183.581 193.741 183.999 193.845L185.052 194.104C185.686 194.258 186.158 194.493 186.469 194.81C186.78 195.124 186.936 195.529 186.936 196.024C186.936 196.43 186.819 196.794 186.585 197.114C186.354 197.434 186.031 197.686 185.615 197.871C185.2 198.055 184.717 198.148 184.166 198.148C183.442 198.148 182.844 197.991 182.37 197.677C181.896 197.363 181.596 196.904 181.47 196.301L182.504 196.043C182.602 196.424 182.788 196.71 183.062 196.901C183.339 197.092 183.701 197.188 184.147 197.188C184.655 197.188 185.058 197.08 185.357 196.864C185.658 196.646 185.809 196.384 185.809 196.08C185.809 195.833 185.723 195.627 185.551 195.461C185.378 195.292 185.114 195.165 184.757 195.082L183.575 194.805C182.925 194.652 182.448 194.413 182.144 194.09C181.842 193.764 181.691 193.356 181.691 192.866C181.691 192.466 181.804 192.112 182.028 191.805C182.256 191.497 182.565 191.255 182.956 191.08C183.35 190.904 183.796 190.817 184.295 190.817C184.997 190.817 185.548 190.971 185.948 191.278C186.351 191.586 186.637 191.992 186.806 192.497ZM190.201 196.707L190.127 197.206C190.074 197.557 189.994 197.932 189.887 198.332C189.782 198.732 189.673 199.109 189.559 199.463C189.445 199.817 189.351 200.099 189.277 200.308H188.446C188.486 200.111 188.539 199.851 188.603 199.528C188.668 199.205 188.732 198.843 188.797 198.443C188.865 198.046 188.92 197.64 188.963 197.224L189.019 196.707H190.201ZM70.0457 211.101V206.909H71.1352V214H70.0457V212.8H69.9719C69.8057 213.16 69.5472 213.466 69.1963 213.718C68.8455 213.968 68.4023 214.092 67.8668 214.092C67.4236 214.092 67.0296 213.995 66.6849 213.801C66.3403 213.605 66.0694 213.309 65.8724 212.915C65.6755 212.518 65.577 212.018 65.577 211.415V206.909H66.6665V211.341C66.6665 211.858 66.8111 212.27 67.1004 212.578C67.3928 212.886 67.7652 213.04 68.2176 213.04C68.4885 213.04 68.7639 212.971 69.044 212.832C69.3271 212.694 69.5641 212.481 69.7549 212.195C69.9488 211.909 70.0457 211.544 70.0457 211.101ZM76.2145 206.909V207.832H72.5398V206.909H76.2145ZM73.6108 205.21H74.7003V211.969C74.7003 212.277 74.7449 212.507 74.8342 212.661C74.9265 212.812 75.0435 212.914 75.185 212.966C75.3297 213.015 75.482 213.04 75.6421 213.04C75.7621 213.04 75.8606 213.034 75.9375 213.021C76.0145 213.006 76.076 212.994 76.1222 212.984L76.3438 213.963C76.2699 213.991 76.1668 214.018 76.0345 214.046C75.9021 214.077 75.7344 214.092 75.5313 214.092C75.2235 214.092 74.9219 214.026 74.6264 213.894C74.3341 213.761 74.0909 213.56 73.897 213.289C73.7062 213.018 73.6108 212.677 73.6108 212.264V205.21ZM77.8534 214V206.909H78.9428V214H77.8534ZM78.4073 205.727C78.195 205.727 78.0119 205.655 77.858 205.51C77.7072 205.366 77.6318 205.192 77.6318 204.989C77.6318 204.786 77.7072 204.612 77.858 204.467C78.0119 204.322 78.195 204.25 78.4073 204.25C78.6197 204.25 78.8013 204.322 78.9521 204.467C79.106 204.612 79.1829 204.786 79.1829 204.989C79.1829 205.192 79.106 205.366 78.9521 205.51C78.8013 205.655 78.6197 205.727 78.4073 205.727ZM82.0278 204.545V214H80.9383V204.545H82.0278ZM84.0233 214V206.909H85.1128V214H84.0233ZM84.5773 205.727C84.3649 205.727 84.1818 205.655 84.0279 205.51C83.8771 205.366 83.8017 205.192 83.8017 204.989C83.8017 204.786 83.8771 204.612 84.0279 204.467C84.1818 204.322 84.3649 204.25 84.5773 204.25C84.7896 204.25 84.9712 204.322 85.122 204.467C85.2759 204.612 85.3528 204.786 85.3528 204.989C85.3528 205.192 85.2759 205.366 85.122 205.51C84.9712 205.655 84.7896 205.727 84.5773 205.727ZM86.9051 214V213.169L90.9307 207.999V207.925H87.0344V206.909H92.3341V207.777L88.4193 212.911V212.984H92.4634V214H86.9051ZM96.2281 214.166C95.7788 214.166 95.371 214.082 95.0047 213.912C94.6385 213.74 94.3476 213.492 94.1322 213.169C93.9168 212.843 93.8091 212.449 93.8091 211.987C93.8091 211.581 93.8891 211.252 94.0491 210.999C94.2092 210.744 94.4231 210.544 94.6908 210.399C94.9586 210.254 95.254 210.147 95.5772 210.076C95.9034 210.002 96.2312 209.944 96.5605 209.901C96.9914 209.845 97.3407 209.804 97.6084 209.776C97.8793 209.745 98.0762 209.694 98.1993 209.624C98.3255 209.553 98.3886 209.43 98.3886 209.254V209.217C98.3886 208.762 98.264 208.408 98.0147 208.156C97.7685 207.903 97.3945 207.777 96.8929 207.777C96.3727 207.777 95.965 207.891 95.6695 208.119C95.374 208.346 95.1663 208.589 95.0463 208.848L94.0122 208.479C94.1968 208.048 94.4431 207.712 94.7508 207.472C95.0617 207.229 95.4002 207.06 95.7664 206.964C96.1358 206.866 96.4989 206.817 96.8559 206.817C97.0837 206.817 97.3453 206.844 97.6407 206.9C97.9393 206.952 98.227 207.061 98.504 207.228C98.7841 207.394 99.0164 207.645 99.2011 207.98C99.3858 208.316 99.4781 208.765 99.4781 209.328V214H98.3886V213.04H98.3332C98.2593 213.194 98.1362 213.358 97.9639 213.534C97.7915 213.709 97.5623 213.858 97.276 213.982C96.9898 214.105 96.6405 214.166 96.2281 214.166ZM96.3943 213.188C96.8252 213.188 97.1883 213.103 97.4838 212.934C97.7823 212.764 98.007 212.546 98.1578 212.278C98.3117 212.01 98.3886 211.729 98.3886 211.433V210.436C98.3424 210.491 98.2409 210.542 98.0839 210.588C97.93 210.632 97.7515 210.67 97.5484 210.704C97.3484 210.735 97.1529 210.762 96.9621 210.787C96.7744 210.808 96.622 210.827 96.5051 210.842C96.2219 210.879 95.9573 210.939 95.711 211.022C95.4679 211.102 95.2709 211.224 95.1201 211.387C94.9724 211.547 94.8985 211.766 94.8985 212.043C94.8985 212.421 95.0386 212.707 95.3186 212.901C95.6018 213.092 95.9603 213.188 96.3943 213.188ZM104.144 214.148C103.553 214.148 103.032 213.998 102.579 213.7C102.127 213.398 101.773 212.974 101.517 212.426C101.262 211.875 101.134 211.224 101.134 210.473C101.134 209.728 101.262 209.082 101.517 208.534C101.773 207.986 102.128 207.563 102.584 207.265C103.039 206.966 103.566 206.817 104.163 206.817C104.624 206.817 104.989 206.894 105.257 207.048C105.528 207.198 105.734 207.371 105.875 207.565C106.02 207.755 106.132 207.912 106.212 208.036H106.305V204.545H107.394V214H106.342V212.911H106.212C106.132 213.04 106.018 213.203 105.871 213.4C105.723 213.594 105.512 213.768 105.238 213.922C104.964 214.072 104.6 214.148 104.144 214.148ZM104.292 213.169C104.729 213.169 105.098 213.055 105.4 212.827C105.701 212.597 105.931 212.278 106.088 211.872C106.245 211.462 106.323 210.99 106.323 210.455C106.323 209.925 106.246 209.462 106.092 209.065C105.938 208.665 105.711 208.354 105.409 208.132C105.108 207.908 104.735 207.795 104.292 207.795C103.83 207.795 103.446 207.914 103.138 208.151C102.833 208.385 102.604 208.703 102.45 209.107C102.299 209.507 102.224 209.956 102.224 210.455C102.224 210.959 102.301 211.418 102.455 211.83C102.612 212.24 102.842 212.566 103.147 212.809C103.455 213.049 103.836 213.169 104.292 213.169ZM111.628 214.166C111.178 214.166 110.77 214.082 110.404 213.912C110.038 213.74 109.747 213.492 109.532 213.169C109.316 212.843 109.208 212.449 109.208 211.987C109.208 211.581 109.288 211.252 109.449 210.999C109.609 210.744 109.822 210.544 110.09 210.399C110.358 210.254 110.653 210.147 110.977 210.076C111.303 210.002 111.631 209.944 111.96 209.901C112.391 209.845 112.74 209.804 113.008 209.776C113.279 209.745 113.476 209.694 113.599 209.624C113.725 209.553 113.788 209.43 113.788 209.254V209.217C113.788 208.762 113.663 208.408 113.414 208.156C113.168 207.903 112.794 207.777 112.292 207.777C111.772 207.777 111.364 207.891 111.069 208.119C110.773 208.346 110.566 208.589 110.446 208.848L109.412 208.479C109.596 208.048 109.842 207.712 110.15 207.472C110.461 207.229 110.8 207.06 111.166 206.964C111.535 206.866 111.898 206.817 112.255 206.817C112.483 206.817 112.745 206.844 113.04 206.9C113.339 206.952 113.626 207.061 113.903 207.228C114.183 207.394 114.416 207.645 114.601 207.98C114.785 208.316 114.878 208.765 114.878 209.328V214H113.788V213.04H113.733C113.659 213.194 113.536 213.358 113.363 213.534C113.191 213.709 112.962 213.858 112.675 213.982C112.389 214.105 112.04 214.166 111.628 214.166ZM111.794 213.188C112.225 213.188 112.588 213.103 112.883 212.934C113.182 212.764 113.406 212.546 113.557 212.278C113.711 212.01 113.788 211.729 113.788 211.433V210.436C113.742 210.491 113.64 210.542 113.483 210.588C113.329 210.632 113.151 210.67 112.948 210.704C112.748 210.735 112.552 210.762 112.362 210.787C112.174 210.808 112.021 210.827 111.904 210.842C111.621 210.879 111.357 210.939 111.11 211.022C110.867 211.102 110.67 211.224 110.52 211.387C110.372 211.547 110.298 211.766 110.298 212.043C110.298 212.421 110.438 212.707 110.718 212.901C111.001 213.092 111.36 213.188 111.794 213.188ZM123.495 214.148C122.812 214.148 122.223 213.997 121.727 213.695C121.235 213.391 120.855 212.966 120.587 212.421C120.322 211.873 120.19 211.236 120.19 210.51C120.19 209.784 120.322 209.143 120.587 208.589C120.855 208.032 121.227 207.598 121.704 207.288C122.184 206.974 122.744 206.817 123.385 206.817C123.754 206.817 124.119 206.878 124.479 207.001C124.839 207.125 125.166 207.325 125.462 207.602C125.757 207.875 125.993 208.239 126.168 208.691C126.344 209.143 126.431 209.701 126.431 210.362V210.824H120.965V209.882H125.323C125.323 209.482 125.243 209.125 125.083 208.811C124.926 208.497 124.702 208.249 124.409 208.068C124.12 207.886 123.778 207.795 123.385 207.795C122.951 207.795 122.575 207.903 122.258 208.119C121.944 208.331 121.703 208.608 121.533 208.95C121.364 209.291 121.279 209.657 121.279 210.048V210.676C121.279 211.212 121.372 211.666 121.556 212.038C121.744 212.407 122.004 212.689 122.337 212.883C122.669 213.074 123.055 213.169 123.495 213.169C123.782 213.169 124.04 213.129 124.271 213.049C124.505 212.966 124.706 212.843 124.876 212.68C125.045 212.513 125.176 212.307 125.268 212.061L126.321 212.357C126.21 212.714 126.024 213.027 125.762 213.298C125.5 213.566 125.177 213.775 124.793 213.926C124.408 214.074 123.975 214.148 123.495 214.148ZM128.089 214V206.909H129.141V208.017H129.234C129.381 207.638 129.62 207.345 129.949 207.135C130.278 206.923 130.674 206.817 131.136 206.817C131.603 206.817 131.993 206.923 132.304 207.135C132.617 207.345 132.862 207.638 133.038 208.017H133.111C133.293 207.651 133.565 207.36 133.929 207.145C134.292 206.926 134.727 206.817 135.235 206.817C135.869 206.817 136.388 207.015 136.791 207.412C137.194 207.806 137.396 208.42 137.396 209.254V214H136.306V209.254C136.306 208.731 136.163 208.357 135.877 208.132C135.59 207.908 135.253 207.795 134.866 207.795C134.367 207.795 133.981 207.946 133.707 208.248C133.433 208.546 133.296 208.925 133.296 209.384V214H132.188V209.143C132.188 208.74 132.057 208.416 131.796 208.169C131.534 207.92 131.197 207.795 130.785 207.795C130.502 207.795 130.237 207.871 129.991 208.022C129.748 208.172 129.551 208.382 129.4 208.65C129.252 208.914 129.178 209.22 129.178 209.568V214H128.089ZM145.906 216.807C145.38 216.807 144.927 216.739 144.549 216.604C144.17 216.471 143.855 216.296 143.602 216.077C143.353 215.862 143.155 215.631 143.007 215.385L143.875 214.776C143.973 214.905 144.098 215.053 144.249 215.219C144.399 215.388 144.606 215.534 144.867 215.657C145.132 215.783 145.478 215.847 145.906 215.847C146.478 215.847 146.951 215.708 147.323 215.431C147.696 215.154 147.882 214.72 147.882 214.129V212.689H147.79C147.71 212.818 147.596 212.978 147.448 213.169C147.303 213.357 147.094 213.525 146.82 213.672C146.549 213.817 146.183 213.889 145.721 213.889C145.149 213.889 144.635 213.754 144.179 213.483C143.727 213.212 143.368 212.818 143.104 212.301C142.842 211.784 142.711 211.156 142.711 210.418C142.711 209.691 142.839 209.059 143.095 208.52C143.35 207.979 143.705 207.56 144.161 207.265C144.616 206.966 145.143 206.817 145.74 206.817C146.201 206.817 146.568 206.894 146.839 207.048C147.112 207.198 147.322 207.371 147.466 207.565C147.614 207.755 147.728 207.912 147.808 208.036H147.919V206.909H148.971V214.203C148.971 214.812 148.833 215.308 148.556 215.69C148.282 216.074 147.913 216.356 147.448 216.534C146.986 216.716 146.472 216.807 145.906 216.807ZM145.869 212.911C146.306 212.911 146.675 212.81 146.977 212.61C147.279 212.41 147.508 212.123 147.665 211.747C147.822 211.372 147.9 210.922 147.9 210.399C147.9 209.888 147.823 209.437 147.67 209.047C147.516 208.656 147.288 208.349 146.986 208.128C146.685 207.906 146.312 207.795 145.869 207.795C145.407 207.795 145.023 207.912 144.715 208.146C144.41 208.38 144.181 208.694 144.027 209.088C143.876 209.482 143.801 209.919 143.801 210.399C143.801 210.892 143.878 211.327 144.032 211.706C144.189 212.081 144.42 212.377 144.724 212.592C145.032 212.804 145.414 212.911 145.869 212.911ZM150.966 214V206.909H152.018V207.98H152.092C152.221 207.629 152.455 207.345 152.794 207.126C153.132 206.908 153.514 206.798 153.939 206.798C154.019 206.798 154.119 206.8 154.239 206.803C154.359 206.806 154.45 206.811 154.511 206.817V207.925C154.474 207.915 154.39 207.902 154.257 207.883C154.128 207.862 153.991 207.851 153.846 207.851C153.502 207.851 153.194 207.923 152.923 208.068C152.655 208.209 152.443 208.406 152.286 208.659C152.132 208.908 152.055 209.193 152.055 209.513V214H150.966ZM157.889 214.166C157.44 214.166 157.032 214.082 156.666 213.912C156.3 213.74 156.009 213.492 155.793 213.169C155.578 212.843 155.47 212.449 155.47 211.987C155.47 211.581 155.55 211.252 155.71 210.999C155.87 210.744 156.084 210.544 156.352 210.399C156.62 210.254 156.915 210.147 157.238 210.076C157.565 210.002 157.892 209.944 158.222 209.901C158.652 209.845 159.002 209.804 159.27 209.776C159.54 209.745 159.737 209.694 159.86 209.624C159.987 209.553 160.05 209.43 160.05 209.254V209.217C160.05 208.762 159.925 208.408 159.676 208.156C159.43 207.903 159.056 207.777 158.554 207.777C158.034 207.777 157.626 207.891 157.331 208.119C157.035 208.346 156.827 208.589 156.707 208.848L155.673 208.479C155.858 208.048 156.104 207.712 156.412 207.472C156.723 207.229 157.061 207.06 157.428 206.964C157.797 206.866 158.16 206.817 158.517 206.817C158.745 206.817 159.006 206.844 159.302 206.9C159.6 206.952 159.888 207.061 160.165 207.228C160.445 207.394 160.678 207.645 160.862 207.98C161.047 208.316 161.139 208.765 161.139 209.328V214H160.05V213.04H159.994C159.92 213.194 159.797 213.358 159.625 213.534C159.453 213.709 159.223 213.858 158.937 213.982C158.651 214.105 158.302 214.166 157.889 214.166ZM158.055 213.188C158.486 213.188 158.849 213.103 159.145 212.934C159.443 212.764 159.668 212.546 159.819 212.278C159.973 212.01 160.05 211.729 160.05 211.433V210.436C160.004 210.491 159.902 210.542 159.745 210.588C159.591 210.632 159.413 210.67 159.21 210.704C159.009 210.735 158.814 210.762 158.623 210.787C158.436 210.808 158.283 210.827 158.166 210.842C157.883 210.879 157.618 210.939 157.372 211.022C157.129 211.102 156.932 211.224 156.781 211.387C156.634 211.547 156.56 211.766 156.56 212.043C156.56 212.421 156.7 212.707 156.98 212.901C157.263 213.092 157.621 213.188 158.055 213.188ZM164.217 209.734V214H163.128V206.909H164.18V208.017H164.273C164.439 207.657 164.691 207.368 165.03 207.149C165.368 206.928 165.805 206.817 166.341 206.817C166.821 206.817 167.241 206.915 167.601 207.112C167.961 207.306 168.241 207.602 168.441 207.999C168.641 208.393 168.741 208.891 168.741 209.494V214H167.652V209.568C167.652 209.011 167.507 208.577 167.218 208.266C166.929 207.952 166.532 207.795 166.027 207.795C165.679 207.795 165.368 207.871 165.094 208.022C164.824 208.172 164.61 208.393 164.453 208.682C164.296 208.971 164.217 209.322 164.217 209.734ZM173.41 214.148C172.819 214.148 172.297 213.998 171.845 213.7C171.392 213.398 171.038 212.974 170.783 212.426C170.528 211.875 170.4 211.224 170.4 210.473C170.4 209.728 170.528 209.082 170.783 208.534C171.038 207.986 171.394 207.563 171.849 207.265C172.305 206.966 172.831 206.817 173.428 206.817C173.89 206.817 174.255 206.894 174.522 207.048C174.793 207.198 174.999 207.371 175.141 207.565C175.286 207.755 175.398 207.912 175.478 208.036H175.57V204.545H176.66V214H175.607V212.911H175.478C175.398 213.04 175.284 213.203 175.136 213.4C174.989 213.594 174.778 213.768 174.504 213.922C174.23 214.072 173.865 214.148 173.41 214.148ZM173.558 213.169C173.995 213.169 174.364 213.055 174.666 212.827C174.967 212.597 175.196 212.278 175.353 211.872C175.51 211.462 175.589 210.99 175.589 210.455C175.589 209.925 175.512 209.462 175.358 209.065C175.204 208.665 174.976 208.354 174.675 208.132C174.373 207.908 174.001 207.795 173.558 207.795C173.096 207.795 172.711 207.914 172.403 208.151C172.099 208.385 171.869 208.703 171.716 209.107C171.565 209.507 171.489 209.956 171.489 210.455C171.489 210.959 171.566 211.418 171.72 211.83C171.877 212.24 172.108 212.566 172.413 212.809C172.72 213.049 173.102 213.169 173.558 213.169ZM181.779 214.148C181.096 214.148 180.507 213.997 180.011 213.695C179.519 213.391 179.139 212.966 178.871 212.421C178.606 211.873 178.474 211.236 178.474 210.51C178.474 209.784 178.606 209.143 178.871 208.589C179.139 208.032 179.511 207.598 179.988 207.288C180.468 206.974 181.029 206.817 181.669 206.817C182.038 206.817 182.403 206.878 182.763 207.001C183.123 207.125 183.451 207.325 183.746 207.602C184.042 207.875 184.277 208.239 184.452 208.691C184.628 209.143 184.716 209.701 184.716 210.362V210.824H179.25V209.882H183.608C183.608 209.482 183.528 209.125 183.368 208.811C183.211 208.497 182.986 208.249 182.694 208.068C182.404 207.886 182.063 207.795 181.669 207.795C181.235 207.795 180.859 207.903 180.542 208.119C180.228 208.331 179.987 208.608 179.817 208.95C179.648 209.291 179.564 209.657 179.564 210.048V210.676C179.564 211.212 179.656 211.666 179.841 212.038C180.028 212.407 180.288 212.689 180.621 212.883C180.953 213.074 181.339 213.169 181.779 213.169C182.066 213.169 182.324 213.129 182.555 213.049C182.789 212.966 182.991 212.843 183.16 212.68C183.329 212.513 183.46 212.307 183.552 212.061L184.605 212.357C184.494 212.714 184.308 213.027 184.046 213.298C183.785 213.566 183.461 213.775 183.077 213.926C182.692 214.074 182.26 214.148 181.779 214.148ZM83.7122 232.659V222.909H84.7648V224.036H84.8941C84.9741 223.912 85.0849 223.755 85.2265 223.565C85.3711 223.371 85.5773 223.198 85.8451 223.048C86.1159 222.894 86.4821 222.817 86.9438 222.817C87.5408 222.817 88.0671 222.966 88.5226 223.265C88.9781 223.563 89.3336 223.986 89.589 224.534C89.8445 225.082 89.9722 225.728 89.9722 226.473C89.9722 227.224 89.8445 227.875 89.589 228.426C89.3336 228.974 88.9796 229.398 88.5272 229.7C88.0748 229.998 87.5532 230.148 86.9622 230.148C86.5068 230.148 86.1421 230.072 85.8681 229.922C85.5942 229.768 85.3834 229.594 85.2357 229.4C85.088 229.203 84.9741 229.04 84.8941 228.911H84.8017V232.659H83.7122ZM84.7833 226.455C84.7833 226.99 84.8617 227.462 85.0187 227.872C85.1757 228.278 85.405 228.597 85.7066 228.827C86.0082 229.055 86.3775 229.169 86.8145 229.169C87.27 229.169 87.6501 229.049 87.9548 228.809C88.2626 228.566 88.4934 228.24 88.6473 227.83C88.8042 227.418 88.8827 226.959 88.8827 226.455C88.8827 225.956 88.8058 225.507 88.6519 225.107C88.5011 224.703 88.2718 224.385 87.964 224.151C87.6593 223.914 87.2762 223.795 86.8145 223.795C86.3713 223.795 85.9989 223.908 85.6973 224.132C85.3957 224.354 85.168 224.665 85.0141 225.065C84.8602 225.462 84.7833 225.925 84.7833 226.455ZM93.7208 230.166C93.2714 230.166 92.8636 230.082 92.4974 229.912C92.1312 229.74 91.8403 229.492 91.6249 229.169C91.4095 228.843 91.3017 228.449 91.3017 227.987C91.3017 227.581 91.3818 227.252 91.5418 226.999C91.7018 226.744 91.9157 226.544 92.1835 226.399C92.4512 226.254 92.7467 226.147 93.0698 226.076C93.3961 226.002 93.7238 225.944 94.0532 225.901C94.484 225.845 94.8333 225.804 95.1011 225.776C95.3719 225.745 95.5689 225.694 95.692 225.624C95.8182 225.553 95.8813 225.43 95.8813 225.254V225.217C95.8813 224.762 95.7566 224.408 95.5073 224.156C95.2611 223.903 94.8872 223.777 94.3855 223.777C93.8654 223.777 93.4576 223.891 93.1622 224.119C92.8667 224.346 92.659 224.589 92.539 224.848L91.5049 224.479C91.6895 224.048 91.9357 223.712 92.2435 223.472C92.5543 223.229 92.8929 223.06 93.2591 222.964C93.6284 222.866 93.9916 222.817 94.3486 222.817C94.5764 222.817 94.838 222.844 95.1334 222.9C95.4319 222.952 95.7197 223.061 95.9967 223.228C96.2768 223.394 96.5091 223.645 96.6938 223.98C96.8784 224.316 96.9708 224.765 96.9708 225.328V230H95.8813V229.04H95.8259C95.752 229.194 95.6289 229.358 95.4566 229.534C95.2842 229.709 95.0549 229.858 94.7687 229.982C94.4825 230.105 94.1332 230.166 93.7208 230.166ZM93.887 229.188C94.3178 229.188 94.681 229.103 94.9765 228.934C95.275 228.764 95.4997 228.546 95.6505 228.278C95.8043 228.01 95.8813 227.729 95.8813 227.433V226.436C95.8351 226.491 95.7336 226.542 95.5766 226.588C95.4227 226.632 95.2442 226.67 95.0411 226.704C94.841 226.735 94.6456 226.762 94.4548 226.787C94.2671 226.808 94.1147 226.827 93.9978 226.842C93.7146 226.879 93.4499 226.939 93.2037 227.022C92.9606 227.102 92.7636 227.224 92.6128 227.387C92.4651 227.547 92.3912 227.766 92.3912 228.043C92.3912 228.421 92.5313 228.707 92.8113 228.901C93.0945 229.092 93.453 229.188 93.887 229.188ZM98.9593 230V222.909H100.012V223.98H100.086C100.215 223.629 100.449 223.345 100.787 223.126C101.126 222.908 101.508 222.798 101.932 222.798C102.012 222.798 102.112 222.8 102.232 222.803C102.352 222.806 102.443 222.811 102.505 222.817V223.925C102.468 223.915 102.383 223.902 102.251 223.883C102.122 223.862 101.985 223.851 101.84 223.851C101.495 223.851 101.188 223.923 100.917 224.068C100.649 224.209 100.437 224.406 100.28 224.659C100.126 224.908 100.049 225.193 100.049 225.513V230H98.9593ZM107.324 222.909V223.832H103.65V222.909H107.324ZM104.721 221.21H105.81V227.969C105.81 228.277 105.855 228.507 105.944 228.661C106.036 228.812 106.153 228.914 106.295 228.966C106.44 229.015 106.592 229.04 106.752 229.04C106.872 229.04 106.97 229.034 107.047 229.021C107.124 229.006 107.186 228.994 107.232 228.984L107.454 229.963C107.38 229.991 107.277 230.018 107.144 230.046C107.012 230.077 106.844 230.092 106.641 230.092C106.333 230.092 106.032 230.026 105.736 229.894C105.444 229.761 105.201 229.56 105.007 229.289C104.816 229.018 104.721 228.677 104.721 228.264V221.21ZM111.86 230.148C111.177 230.148 110.587 229.997 110.092 229.695C109.6 229.391 109.219 228.966 108.952 228.421C108.687 227.873 108.555 227.236 108.555 226.51C108.555 225.784 108.687 225.143 108.952 224.589C109.219 224.032 109.592 223.598 110.069 223.288C110.549 222.974 111.109 222.817 111.749 222.817C112.119 222.817 112.483 222.878 112.843 223.001C113.203 223.125 113.531 223.325 113.827 223.602C114.122 223.875 114.358 224.239 114.533 224.691C114.708 225.143 114.796 225.701 114.796 226.362V226.824H109.33V225.882H113.688C113.688 225.482 113.608 225.125 113.448 224.811C113.291 224.497 113.067 224.249 112.774 224.068C112.485 223.886 112.143 223.795 111.749 223.795C111.315 223.795 110.94 223.903 110.623 224.119C110.309 224.331 110.067 224.608 109.898 224.95C109.729 225.291 109.644 225.657 109.644 226.048V226.676C109.644 227.212 109.736 227.666 109.921 228.038C110.109 228.407 110.369 228.689 110.701 228.883C111.034 229.074 111.42 229.169 111.86 229.169C112.146 229.169 112.405 229.129 112.636 229.049C112.87 228.966 113.071 228.843 113.24 228.68C113.41 228.513 113.54 228.307 113.633 228.061L114.685 228.357C114.575 228.714 114.388 229.027 114.127 229.298C113.865 229.566 113.542 229.775 113.157 229.926C112.773 230.074 112.34 230.148 111.86 230.148ZM121.199 225.734V230H120.11V222.909H121.162V224.017H121.255C121.421 223.657 121.673 223.368 122.012 223.149C122.35 222.928 122.787 222.817 123.323 222.817C123.803 222.817 124.223 222.915 124.583 223.112C124.943 223.306 125.223 223.602 125.423 223.999C125.623 224.393 125.723 224.891 125.723 225.494V230H124.634V225.568C124.634 225.011 124.489 224.577 124.2 224.266C123.911 223.952 123.514 223.795 123.009 223.795C122.661 223.795 122.35 223.871 122.076 224.022C121.805 224.172 121.592 224.393 121.435 224.682C121.278 224.971 121.199 225.322 121.199 225.734ZM129.801 230.166C129.352 230.166 128.944 230.082 128.577 229.912C128.211 229.74 127.92 229.492 127.705 229.169C127.49 228.843 127.382 228.449 127.382 227.987C127.382 227.581 127.462 227.252 127.622 226.999C127.782 226.744 127.996 226.544 128.264 226.399C128.531 226.254 128.827 226.147 129.15 226.076C129.476 226.002 129.804 225.944 130.133 225.901C130.564 225.845 130.913 225.804 131.181 225.776C131.452 225.745 131.649 225.694 131.772 225.624C131.898 225.553 131.961 225.43 131.961 225.254V225.217C131.961 224.762 131.837 224.408 131.587 224.156C131.341 223.903 130.967 223.777 130.466 223.777C129.945 223.777 129.538 223.891 129.242 224.119C128.947 224.346 128.739 224.589 128.619 224.848L127.585 224.479C127.77 224.048 128.016 223.712 128.324 223.472C128.634 223.229 128.973 223.06 129.339 222.964C129.709 222.866 130.072 222.817 130.429 222.817C130.656 222.817 130.918 222.844 131.213 222.9C131.512 222.952 131.8 223.061 132.077 223.228C132.357 223.394 132.589 223.645 132.774 223.98C132.959 224.316 133.051 224.765 133.051 225.328V230H131.961V229.04H131.906C131.832 229.194 131.709 229.358 131.537 229.534C131.364 229.709 131.135 229.858 130.849 229.982C130.563 230.105 130.213 230.166 129.801 230.166ZM129.967 229.188C130.398 229.188 130.761 229.103 131.057 228.934C131.355 228.764 131.58 228.546 131.731 228.278C131.884 228.01 131.961 227.729 131.961 227.433V226.436C131.915 226.491 131.814 226.542 131.657 226.588C131.503 226.632 131.324 226.67 131.121 226.704C130.921 226.735 130.726 226.762 130.535 226.787C130.347 226.808 130.195 226.827 130.078 226.842C129.795 226.879 129.53 226.939 129.284 227.022C129.041 227.102 128.844 227.224 128.693 227.387C128.545 227.547 128.471 227.766 128.471 228.043C128.471 228.421 128.611 228.707 128.891 228.901C129.175 229.092 129.533 229.188 129.967 229.188ZM140.302 230L138.142 222.909H139.287L140.819 228.338H140.893L142.407 222.909H143.571L145.066 228.32H145.14L146.673 222.909H147.818L145.657 230H144.586L143.035 224.553H142.924L141.373 230H140.302ZM151.99 230.148C151.307 230.148 150.717 229.997 150.222 229.695C149.729 229.391 149.349 228.966 149.082 228.421C148.817 227.873 148.685 227.236 148.685 226.51C148.685 225.784 148.817 225.143 149.082 224.589C149.349 224.032 149.722 223.598 150.199 223.288C150.679 222.974 151.239 222.817 151.879 222.817C152.248 222.817 152.613 222.878 152.973 223.001C153.333 223.125 153.661 223.325 153.957 223.602C154.252 223.875 154.487 224.239 154.663 224.691C154.838 225.143 154.926 225.701 154.926 226.362V226.824H149.46V225.882H153.818C153.818 225.482 153.738 225.125 153.578 224.811C153.421 224.497 153.196 224.249 152.904 224.068C152.615 223.886 152.273 223.795 151.879 223.795C151.445 223.795 151.07 223.903 150.753 224.119C150.439 224.331 150.197 224.608 150.028 224.95C149.859 225.291 149.774 225.657 149.774 226.048V226.676C149.774 227.212 149.866 227.666 150.051 228.038C150.239 228.407 150.499 228.689 150.831 228.883C151.164 229.074 151.55 229.169 151.99 229.169C152.276 229.169 152.535 229.129 152.766 229.049C152.999 228.966 153.201 228.843 153.37 228.68C153.54 228.513 153.67 228.307 153.763 228.061L154.815 228.357C154.704 228.714 154.518 229.027 154.257 229.298C153.995 229.566 153.672 229.775 153.287 229.926C152.902 230.074 152.47 230.148 151.99 230.148ZM156.731 230V220.545H157.821V224.036H157.913C157.993 223.912 158.104 223.755 158.245 223.565C158.39 223.371 158.596 223.198 158.864 223.048C159.135 222.894 159.501 222.817 159.963 222.817C160.56 222.817 161.086 222.966 161.541 223.265C161.997 223.563 162.352 223.986 162.608 224.534C162.863 225.082 162.991 225.728 162.991 226.473C162.991 227.224 162.863 227.875 162.608 228.426C162.352 228.974 161.998 229.398 161.546 229.7C161.094 229.998 160.572 230.148 159.981 230.148C159.526 230.148 159.161 230.072 158.887 229.922C158.613 229.768 158.402 229.594 158.255 229.4C158.107 229.203 157.993 229.04 157.913 228.911H157.784V230H156.731ZM157.802 226.455C157.802 226.99 157.881 227.462 158.038 227.872C158.194 228.278 158.424 228.597 158.725 228.827C159.027 229.055 159.396 229.169 159.833 229.169C160.289 229.169 160.669 229.049 160.974 228.809C161.281 228.566 161.512 228.24 161.666 227.83C161.823 227.418 161.902 226.959 161.902 226.455C161.902 225.956 161.825 225.507 161.671 225.107C161.52 224.703 161.291 224.385 160.983 224.151C160.678 223.914 160.295 223.795 159.833 223.795C159.39 223.795 159.018 223.908 158.716 224.132C158.415 224.354 158.187 224.665 158.033 225.065C157.879 225.462 157.802 225.925 157.802 226.455ZM165.452 230.074C165.224 230.074 165.028 229.992 164.865 229.829C164.702 229.666 164.621 229.471 164.621 229.243C164.621 229.015 164.702 228.82 164.865 228.657C165.028 228.493 165.224 228.412 165.452 228.412C165.679 228.412 165.875 228.493 166.038 228.657C166.201 228.82 166.283 229.015 166.283 229.243C166.283 229.394 166.244 229.532 166.167 229.658C166.093 229.785 165.993 229.886 165.867 229.963C165.744 230.037 165.605 230.074 165.452 230.074Z" fill="white"/>
<path d="M93.869 120.818H95.9968V127.918C95.9968 128.574 95.8494 129.144 95.5544 129.628C95.2627 130.112 94.8567 130.485 94.3363 130.746C93.816 131.008 93.2111 131.139 92.5217 131.139C91.9085 131.139 91.3517 131.031 90.8512 130.816C90.3541 130.597 89.9597 130.266 89.668 129.822C89.3763 129.374 89.2322 128.812 89.2355 128.136H91.3782C91.3849 128.405 91.4396 128.635 91.5423 128.827C91.6484 129.016 91.7925 129.162 91.9748 129.265C92.1604 129.364 92.3792 129.414 92.6311 129.414C92.8962 129.414 93.12 129.358 93.3022 129.245C93.4878 129.129 93.6287 128.96 93.7248 128.738C93.8209 128.516 93.869 128.242 93.869 127.918V120.818ZM99.9145 131.144C99.4272 131.144 98.9931 131.06 98.6119 130.891C98.2307 130.718 97.9291 130.465 97.7071 130.13C97.4883 129.792 97.3789 129.371 97.3789 128.867C97.3789 128.443 97.4568 128.087 97.6126 127.798C97.7684 127.51 97.9805 127.278 98.249 127.102C98.5174 126.927 98.8224 126.794 99.1637 126.705C99.5084 126.615 99.8697 126.552 100.248 126.516C100.692 126.469 101.05 126.426 101.321 126.386C101.593 126.343 101.79 126.28 101.913 126.197C102.036 126.115 102.097 125.992 102.097 125.83V125.8C102.097 125.485 101.998 125.241 101.799 125.069C101.603 124.897 101.325 124.81 100.963 124.81C100.582 124.81 100.279 124.895 100.054 125.064C99.8283 125.23 99.6791 125.438 99.6062 125.69L97.6474 125.531C97.7468 125.067 97.9424 124.666 98.2341 124.328C98.5257 123.987 98.9019 123.725 99.3626 123.543C99.8266 123.357 100.364 123.264 100.973 123.264C101.398 123.264 101.804 123.314 102.191 123.413C102.583 123.513 102.929 123.667 103.231 123.876C103.535 124.085 103.776 124.353 103.951 124.681C104.127 125.006 104.215 125.395 104.215 125.849V131H102.206V129.941H102.147C102.024 130.18 101.86 130.39 101.655 130.572C101.449 130.751 101.202 130.892 100.914 130.995C100.625 131.094 100.292 131.144 99.9145 131.144ZM100.521 129.683C100.833 129.683 101.108 129.621 101.346 129.499C101.585 129.373 101.772 129.204 101.908 128.991C102.044 128.779 102.112 128.539 102.112 128.271V127.46C102.046 127.503 101.954 127.543 101.838 127.58C101.726 127.613 101.598 127.644 101.456 127.674C101.313 127.701 101.171 127.725 101.028 127.749C100.886 127.768 100.756 127.787 100.64 127.803C100.392 127.84 100.175 127.898 99.989 127.977C99.8034 128.057 99.6593 128.165 99.5565 128.3C99.4538 128.433 99.4024 128.599 99.4024 128.798C99.4024 129.086 99.5068 129.306 99.7156 129.459C99.9277 129.608 100.196 129.683 100.521 129.683ZM112.704 123.364L110.034 131H107.648L104.978 123.364H107.215L108.801 128.827H108.881L110.462 123.364H112.704ZM115.76 131.144C115.273 131.144 114.839 131.06 114.458 130.891C114.076 130.718 113.775 130.465 113.553 130.13C113.334 129.792 113.225 129.371 113.225 128.867C113.225 128.443 113.303 128.087 113.458 127.798C113.614 127.51 113.826 127.278 114.095 127.102C114.363 126.927 114.668 126.794 115.009 126.705C115.354 126.615 115.715 126.552 116.093 126.516C116.537 126.469 116.895 126.426 117.167 126.386C117.439 126.343 117.636 126.28 117.759 126.197C117.881 126.115 117.943 125.992 117.943 125.83V125.8C117.943 125.485 117.843 125.241 117.644 125.069C117.449 124.897 117.17 124.81 116.809 124.81C116.428 124.81 116.125 124.895 115.899 125.064C115.674 125.23 115.525 125.438 115.452 125.69L113.493 125.531C113.593 125.067 113.788 124.666 114.08 124.328C114.371 123.987 114.748 123.725 115.208 123.543C115.672 123.357 116.209 123.264 116.819 123.264C117.243 123.264 117.649 123.314 118.037 123.413C118.428 123.513 118.775 123.667 119.076 123.876C119.381 124.085 119.621 124.353 119.797 124.681C119.973 125.006 120.061 125.395 120.061 125.849V131H118.052V129.941H117.992C117.87 130.18 117.706 130.39 117.5 130.572C117.295 130.751 117.048 130.892 116.759 130.995C116.471 131.094 116.138 131.144 115.76 131.144ZM116.367 129.683C116.678 129.683 116.953 129.621 117.192 129.499C117.431 129.373 117.618 129.204 117.754 128.991C117.89 128.779 117.958 128.539 117.958 128.271V127.46C117.891 127.503 117.8 127.543 117.684 127.58C117.571 127.613 117.444 127.644 117.301 127.674C117.159 127.701 117.016 127.725 116.874 127.749C116.731 127.768 116.602 127.787 116.486 127.803C116.237 127.84 116.02 127.898 115.835 127.977C115.649 128.057 115.505 128.165 115.402 128.3C115.299 128.433 115.248 128.599 115.248 128.798C115.248 129.086 115.352 129.306 115.561 129.459C115.773 129.608 116.042 129.683 116.367 129.683ZM127.267 123.746C127.227 123.345 127.056 123.034 126.755 122.812C126.453 122.59 126.044 122.479 125.527 122.479C125.176 122.479 124.879 122.528 124.637 122.628C124.395 122.724 124.209 122.858 124.08 123.031C123.954 123.203 123.891 123.398 123.891 123.617C123.885 123.799 123.923 123.959 124.006 124.094C124.092 124.23 124.209 124.348 124.359 124.447C124.508 124.544 124.68 124.628 124.876 124.701C125.071 124.771 125.28 124.83 125.502 124.88L126.417 125.099C126.861 125.198 127.269 125.331 127.64 125.496C128.011 125.662 128.332 125.866 128.604 126.108C128.876 126.35 129.087 126.635 129.236 126.963C129.388 127.291 129.466 127.667 129.469 128.092C129.466 128.715 129.307 129.255 128.992 129.712C128.68 130.166 128.23 130.519 127.64 130.771C127.053 131.02 126.346 131.144 125.517 131.144C124.695 131.144 123.979 131.018 123.369 130.766C122.763 130.514 122.289 130.142 121.947 129.648C121.609 129.151 121.432 128.536 121.415 127.803H123.498C123.522 128.145 123.619 128.43 123.792 128.658C123.967 128.884 124.201 129.054 124.493 129.17C124.788 129.283 125.121 129.339 125.492 129.339C125.857 129.339 126.173 129.286 126.442 129.18C126.713 129.074 126.924 128.927 127.073 128.738C127.222 128.549 127.297 128.332 127.297 128.087C127.297 127.858 127.229 127.666 127.093 127.51C126.96 127.354 126.765 127.222 126.506 127.112C126.251 127.003 125.938 126.903 125.567 126.814L124.458 126.536C123.6 126.327 122.922 126 122.425 125.556C121.927 125.112 121.68 124.514 121.684 123.761C121.68 123.145 121.845 122.606 122.176 122.146C122.511 121.685 122.97 121.325 123.553 121.067C124.136 120.808 124.799 120.679 125.542 120.679C126.297 120.679 126.957 120.808 127.52 121.067C128.087 121.325 128.528 121.685 128.843 122.146C129.158 122.606 129.32 123.14 129.33 123.746H127.267ZM134.328 131.149C133.546 131.149 132.873 130.983 132.309 130.652C131.749 130.317 131.318 129.853 131.017 129.26C130.718 128.667 130.569 127.984 130.569 127.212C130.569 126.429 130.72 125.743 131.022 125.153C131.327 124.56 131.759 124.098 132.319 123.766C132.879 123.432 133.546 123.264 134.318 123.264C134.984 123.264 135.567 123.385 136.068 123.627C136.568 123.869 136.964 124.209 137.256 124.646C137.548 125.084 137.708 125.598 137.738 126.188H135.74C135.683 125.806 135.534 125.5 135.292 125.268C135.054 125.032 134.74 124.915 134.353 124.915C134.025 124.915 133.738 125.004 133.493 125.183C133.251 125.359 133.062 125.616 132.926 125.954C132.79 126.292 132.722 126.701 132.722 127.182C132.722 127.669 132.788 128.083 132.921 128.425C133.057 128.766 133.247 129.026 133.493 129.205C133.738 129.384 134.025 129.474 134.353 129.474C134.595 129.474 134.812 129.424 135.004 129.325C135.199 129.225 135.36 129.081 135.486 128.892C135.615 128.7 135.7 128.469 135.74 128.201H137.738C137.705 128.784 137.546 129.298 137.261 129.742C136.979 130.183 136.59 130.528 136.093 130.776C135.596 131.025 135.007 131.149 134.328 131.149ZM139.094 131V123.364H141.148V124.696H141.227C141.366 124.222 141.6 123.864 141.928 123.622C142.256 123.377 142.634 123.254 143.062 123.254C143.168 123.254 143.282 123.261 143.405 123.274C143.527 123.287 143.635 123.306 143.728 123.329V125.208C143.628 125.178 143.491 125.152 143.315 125.129C143.14 125.105 142.979 125.094 142.833 125.094C142.521 125.094 142.243 125.162 141.998 125.298C141.756 125.43 141.564 125.616 141.421 125.854C141.282 126.093 141.212 126.368 141.212 126.68V131H139.094ZM144.823 131V123.364H146.941V131H144.823ZM145.887 122.379C145.572 122.379 145.302 122.275 145.076 122.066C144.854 121.854 144.743 121.6 144.743 121.305C144.743 121.014 144.854 120.763 145.076 120.555C145.302 120.343 145.572 120.237 145.887 120.237C146.202 120.237 146.47 120.343 146.692 120.555C146.918 120.763 147.03 121.014 147.03 121.305C147.03 121.6 146.918 121.854 146.692 122.066C146.47 122.275 146.202 122.379 145.887 122.379ZM148.637 133.864V123.364H150.725V124.646H150.82C150.913 124.441 151.047 124.232 151.223 124.02C151.401 123.804 151.634 123.625 151.919 123.483C152.207 123.337 152.565 123.264 152.992 123.264C153.549 123.264 154.063 123.41 154.534 123.702C155.004 123.99 155.38 124.426 155.662 125.009C155.944 125.589 156.085 126.317 156.085 127.192C156.085 128.044 155.947 128.763 155.672 129.349C155.4 129.933 155.029 130.375 154.558 130.677C154.091 130.975 153.567 131.124 152.987 131.124C152.576 131.124 152.227 131.056 151.938 130.92C151.653 130.785 151.42 130.614 151.237 130.408C151.055 130.2 150.916 129.989 150.82 129.777H150.755V133.864H148.637ZM150.71 127.182C150.71 127.636 150.773 128.032 150.899 128.37C151.025 128.708 151.208 128.972 151.446 129.161C151.685 129.346 151.975 129.439 152.316 129.439C152.661 129.439 152.953 129.344 153.191 129.156C153.43 128.963 153.611 128.698 153.733 128.36C153.859 128.019 153.922 127.626 153.922 127.182C153.922 126.741 153.861 126.353 153.738 126.018C153.616 125.684 153.435 125.422 153.196 125.233C152.958 125.044 152.664 124.95 152.316 124.95C151.972 124.95 151.68 125.041 151.441 125.223C151.206 125.405 151.025 125.664 150.899 125.999C150.773 126.333 150.71 126.728 150.71 127.182ZM161.558 123.364V124.955H156.96V123.364H161.558ZM158.004 121.534H160.122V128.653C160.122 128.849 160.151 129.001 160.211 129.111C160.271 129.217 160.354 129.291 160.46 129.335C160.569 129.378 160.695 129.399 160.838 129.399C160.937 129.399 161.036 129.391 161.136 129.374C161.235 129.354 161.312 129.339 161.365 129.33L161.698 130.906C161.592 130.939 161.442 130.977 161.25 131.02C161.058 131.066 160.824 131.094 160.549 131.104C160.039 131.124 159.591 131.056 159.207 130.901C158.826 130.745 158.529 130.503 158.317 130.175C158.105 129.847 158 129.432 158.004 128.932V121.534Z" fill="white"/>
</svg>
