<svg width="250" height="288" viewBox="0 0 250 288" fill="none" xmlns="http://www.w3.org/2000/svg">
<rect x="0.0917664" width="249.695" height="288" rx="25" fill="#181823"/>
<path d="M54.0782 173.273C54.0782 174.27 53.8982 175.132 53.5381 175.858C53.178 176.584 52.6841 177.144 52.0562 177.538C51.4284 177.932 50.7113 178.129 49.9049 178.129C49.0986 178.129 48.3815 177.932 47.7537 177.538C47.1258 177.144 46.6319 176.584 46.2718 175.858C45.9117 175.132 45.7316 174.27 45.7316 173.273C45.7316 172.276 45.9117 171.414 46.2718 170.688C46.6319 169.961 47.1258 169.401 47.7537 169.007C48.3815 168.613 49.0986 168.416 49.9049 168.416C50.7113 168.416 51.4284 168.613 52.0562 169.007C52.6841 169.401 53.178 169.961 53.5381 170.688C53.8982 171.414 54.0782 172.276 54.0782 173.273ZM52.9703 173.273C52.9703 172.454 52.8333 171.763 52.5594 171.2C52.2886 170.637 51.9208 170.21 51.4561 169.921C50.9944 169.632 50.4774 169.487 49.9049 169.487C49.3325 169.487 48.8139 169.632 48.3492 169.921C47.8875 170.21 47.5198 170.637 47.2458 171.2C46.975 171.763 46.8396 172.454 46.8396 173.273C46.8396 174.091 46.975 174.782 47.2458 175.346C47.5198 175.909 47.8875 176.335 48.3492 176.624C48.8139 176.914 49.3325 177.058 49.9049 177.058C50.4774 177.058 50.9944 176.914 51.4561 176.624C51.9208 176.335 52.2886 175.909 52.5594 175.346C52.8333 174.782 52.9703 174.091 52.9703 173.273ZM59.6596 168.545H61.026L64.2391 176.393H64.3499L67.563 168.545H68.9294V178H67.8584V170.817H67.7661L64.8115 178H63.7774L60.8229 170.817H60.7306V178H59.6596V168.545ZM71.779 180.659C71.5943 180.659 71.4296 180.644 71.285 180.613C71.1403 180.585 71.0403 180.558 70.9849 180.53L71.2619 179.57C71.5266 179.637 71.7605 179.662 71.9636 179.643C72.1667 179.625 72.3468 179.534 72.5037 179.371C72.6638 179.211 72.81 178.951 72.9423 178.591L73.1454 178.037L70.5233 170.909H71.7051L73.6625 176.56H73.7363L75.6937 170.909H76.8755L73.8656 179.034C73.7302 179.4 73.5625 179.703 73.3624 179.944C73.1624 180.187 72.93 180.367 72.6653 180.484C72.4037 180.601 72.1083 180.659 71.779 180.659ZM83.6318 170.909C83.5764 170.441 83.3517 170.078 82.9578 169.82C82.5638 169.561 82.0806 169.432 81.5082 169.432C81.0896 169.432 80.7234 169.5 80.4095 169.635C80.0986 169.77 79.8555 169.957 79.6801 170.194C79.5077 170.431 79.4215 170.7 79.4215 171.001C79.4215 171.254 79.4815 171.471 79.6016 171.652C79.7247 171.831 79.8816 171.98 80.0725 172.1C80.2633 172.217 80.4633 172.314 80.6726 172.391C80.8819 172.465 81.0742 172.525 81.2497 172.571L82.2099 172.83C82.4561 172.894 82.73 172.983 83.0316 173.097C83.3363 173.211 83.6271 173.367 83.9041 173.564C84.1842 173.757 84.415 174.007 84.5966 174.311C84.7782 174.616 84.869 174.99 84.869 175.433C84.869 175.944 84.7351 176.406 84.4673 176.818C84.2027 177.231 83.8149 177.558 83.304 177.801C82.7962 178.045 82.1791 178.166 81.4528 178.166C80.7757 178.166 80.1894 178.057 79.6939 177.838C79.2015 177.62 78.8137 177.315 78.5306 176.924C78.2505 176.533 78.092 176.08 78.0551 175.562H79.2369C79.2677 175.92 79.3877 176.215 79.597 176.449C79.8093 176.68 80.0771 176.852 80.4002 176.966C80.7265 177.077 81.0773 177.132 81.4528 177.132C81.8898 177.132 82.2822 177.061 82.63 176.92C82.9778 176.775 83.2532 176.575 83.4563 176.32C83.6595 176.061 83.761 175.759 83.761 175.415C83.761 175.101 83.6733 174.845 83.4979 174.648C83.3225 174.451 83.0916 174.291 82.8054 174.168C82.5192 174.045 82.2099 173.937 81.8775 173.845L80.7141 173.513C79.9755 173.3 79.3908 172.997 78.9599 172.603C78.529 172.209 78.3136 171.694 78.3136 171.057C78.3136 170.527 78.4567 170.066 78.7429 169.672C79.0322 169.275 79.42 168.967 79.9063 168.749C80.3956 168.527 80.9419 168.416 81.5451 168.416C82.1545 168.416 82.6962 168.525 83.1701 168.744C83.6441 168.959 84.0195 169.255 84.2965 169.63C84.5766 170.006 84.7243 170.432 84.7397 170.909H83.6318ZM90.186 175.045H91.4417L92.4942 176.43L92.7712 176.8L94.3408 178.886H93.0852L92.0511 177.501L91.7925 177.151L90.186 175.045ZM94.7286 173.273C94.7286 174.27 94.5486 175.132 94.1885 175.858C93.8284 176.584 93.3344 177.144 92.7066 177.538C92.0788 177.932 91.3617 178.129 90.5553 178.129C89.749 178.129 89.0319 177.932 88.404 177.538C87.7762 177.144 87.2822 176.584 86.9222 175.858C86.5621 175.132 86.382 174.27 86.382 173.273C86.382 172.276 86.5621 171.414 86.9222 170.688C87.2822 169.961 87.7762 169.401 88.404 169.007C89.0319 168.613 89.749 168.416 90.5553 168.416C91.3617 168.416 92.0788 168.613 92.7066 169.007C93.3344 169.401 93.8284 169.961 94.1885 170.688C94.5486 171.414 94.7286 172.276 94.7286 173.273ZM93.6207 173.273C93.6207 172.454 93.4837 171.763 93.2098 171.2C92.939 170.637 92.5712 170.21 92.1065 169.921C91.6448 169.632 91.1278 169.487 90.5553 169.487C89.9829 169.487 89.4643 169.632 88.9996 169.921C88.5379 170.21 88.1701 170.637 87.8962 171.2C87.6254 171.763 87.49 172.454 87.49 173.273C87.49 174.091 87.6254 174.782 87.8962 175.346C88.1701 175.909 88.5379 176.335 88.9996 176.624C89.4643 176.914 89.9829 177.058 90.5553 177.058C91.1278 177.058 91.6448 176.914 92.1065 176.624C92.5712 176.335 92.939 175.909 93.2098 175.346C93.4837 174.782 93.6207 174.091 93.6207 173.273ZM96.6537 178V168.545H97.7986V176.984H102.193V178H96.6537ZM110.448 178.148C109.764 178.148 109.175 177.997 108.68 177.695C108.187 177.391 107.807 176.966 107.539 176.421C107.275 175.873 107.142 175.236 107.142 174.51C107.142 173.784 107.275 173.143 107.539 172.589C107.807 172.032 108.179 171.598 108.657 171.288C109.137 170.974 109.697 170.817 110.337 170.817C110.706 170.817 111.071 170.878 111.431 171.001C111.791 171.125 112.119 171.325 112.414 171.602C112.71 171.875 112.945 172.239 113.121 172.691C113.296 173.143 113.384 173.701 113.384 174.362V174.824H107.918V173.882H112.276C112.276 173.482 112.196 173.125 112.036 172.811C111.879 172.497 111.654 172.249 111.362 172.068C111.072 171.886 110.731 171.795 110.337 171.795C109.903 171.795 109.528 171.903 109.211 172.119C108.897 172.331 108.655 172.608 108.486 172.95C108.316 173.291 108.232 173.657 108.232 174.048V174.676C108.232 175.212 108.324 175.666 108.509 176.038C108.697 176.407 108.957 176.689 109.289 176.883C109.621 177.074 110.008 177.169 110.448 177.169C110.734 177.169 110.992 177.129 111.223 177.049C111.457 176.966 111.659 176.843 111.828 176.68C111.997 176.513 112.128 176.307 112.22 176.061L113.273 176.357C113.162 176.714 112.976 177.027 112.714 177.298C112.453 177.566 112.13 177.775 111.745 177.926C111.36 178.074 110.928 178.148 110.448 178.148ZM109.783 169.949L110.909 167.807H112.184L110.743 169.949H109.783ZM123.166 175.101V170.909H124.256V178H123.166V176.8H123.092C122.926 177.16 122.668 177.466 122.317 177.718C121.966 177.968 121.523 178.092 120.987 178.092C120.544 178.092 120.15 177.995 119.805 177.801C119.461 177.605 119.19 177.309 118.993 176.915C118.796 176.518 118.697 176.018 118.697 175.415V170.909H119.787V175.341C119.787 175.858 119.932 176.27 120.221 176.578C120.513 176.886 120.886 177.04 121.338 177.04C121.609 177.04 121.884 176.971 122.164 176.832C122.447 176.694 122.684 176.481 122.875 176.195C123.069 175.909 123.166 175.544 123.166 175.101ZM126.251 178V170.909H127.304V172.017H127.396C127.544 171.638 127.782 171.345 128.112 171.135C128.441 170.923 128.836 170.817 129.298 170.817C129.766 170.817 130.155 170.923 130.466 171.135C130.78 171.345 131.025 171.638 131.2 172.017H131.274C131.455 171.651 131.728 171.36 132.091 171.145C132.454 170.926 132.89 170.817 133.397 170.817C134.031 170.817 134.55 171.015 134.953 171.412C135.356 171.806 135.558 172.42 135.558 173.254V178H134.468V173.254C134.468 172.731 134.325 172.357 134.039 172.132C133.753 171.908 133.416 171.795 133.028 171.795C132.529 171.795 132.143 171.946 131.869 172.248C131.595 172.546 131.458 172.925 131.458 173.384V178H130.351V173.143C130.351 172.74 130.22 172.416 129.958 172.169C129.697 171.92 129.36 171.795 128.947 171.795C128.664 171.795 128.399 171.871 128.153 172.022C127.91 172.172 127.713 172.382 127.562 172.65C127.414 172.914 127.341 173.22 127.341 173.568V178H126.251ZM146.229 172.497L145.25 172.774C145.189 172.611 145.098 172.453 144.978 172.299C144.861 172.142 144.701 172.012 144.498 171.911C144.295 171.809 144.035 171.759 143.718 171.759C143.284 171.759 142.922 171.859 142.633 172.059C142.346 172.256 142.203 172.506 142.203 172.811C142.203 173.082 142.302 173.296 142.499 173.453C142.696 173.61 143.004 173.741 143.422 173.845L144.475 174.104C145.109 174.258 145.581 174.493 145.892 174.81C146.203 175.124 146.358 175.529 146.358 176.024C146.358 176.43 146.241 176.794 146.007 177.114C145.776 177.434 145.453 177.686 145.038 177.871C144.622 178.055 144.139 178.148 143.588 178.148C142.865 178.148 142.266 177.991 141.792 177.677C141.318 177.363 141.018 176.904 140.892 176.301L141.926 176.043C142.025 176.424 142.211 176.71 142.485 176.901C142.762 177.092 143.124 177.188 143.57 177.188C144.078 177.188 144.481 177.08 144.779 176.864C145.081 176.646 145.232 176.384 145.232 176.08C145.232 175.833 145.146 175.627 144.973 175.461C144.801 175.292 144.536 175.165 144.179 175.082L142.997 174.805C142.348 174.652 141.871 174.413 141.566 174.09C141.265 173.764 141.114 173.356 141.114 172.866C141.114 172.466 141.226 172.112 141.451 171.805C141.679 171.497 141.988 171.255 142.379 171.08C142.773 170.904 143.219 170.817 143.718 170.817C144.419 170.817 144.97 170.971 145.37 171.278C145.773 171.586 146.06 171.992 146.229 172.497ZM147.998 178V170.909H149.088V178H147.998ZM148.552 169.727C148.34 169.727 148.157 169.655 148.003 169.51C147.852 169.366 147.777 169.192 147.777 168.989C147.777 168.786 147.852 168.612 148.003 168.467C148.157 168.322 148.34 168.25 148.552 168.25C148.764 168.25 148.946 168.322 149.097 168.467C149.251 168.612 149.328 168.786 149.328 168.989C149.328 169.192 149.251 169.366 149.097 169.51C148.946 169.655 148.764 169.727 148.552 169.727ZM156.106 172.497L155.127 172.774C155.066 172.611 154.975 172.453 154.855 172.299C154.738 172.142 154.578 172.012 154.375 171.911C154.172 171.809 153.911 171.759 153.594 171.759C153.161 171.759 152.799 171.859 152.51 172.059C152.223 172.256 152.08 172.506 152.08 172.811C152.08 173.082 152.179 173.296 152.376 173.453C152.573 173.61 152.88 173.741 153.299 173.845L154.352 174.104C154.986 174.258 155.458 174.493 155.769 174.81C156.08 175.124 156.235 175.529 156.235 176.024C156.235 176.43 156.118 176.794 155.884 177.114C155.653 177.434 155.33 177.686 154.915 177.871C154.499 178.055 154.016 178.148 153.465 178.148C152.742 178.148 152.143 177.991 151.669 177.677C151.195 177.363 150.895 176.904 150.769 176.301L151.803 176.043C151.902 176.424 152.088 176.71 152.362 176.901C152.639 177.092 153 177.188 153.447 177.188C153.955 177.188 154.358 177.08 154.656 176.864C154.958 176.646 155.109 176.384 155.109 176.08C155.109 175.833 155.023 175.627 154.85 175.461C154.678 175.292 154.413 175.165 154.056 175.082L152.874 174.805C152.225 174.652 151.748 174.413 151.443 174.09C151.142 173.764 150.991 173.356 150.991 172.866C150.991 172.466 151.103 172.112 151.328 171.805C151.556 171.497 151.865 171.255 152.256 171.08C152.65 170.904 153.096 170.817 153.594 170.817C154.296 170.817 154.847 170.971 155.247 171.278C155.65 171.586 155.937 171.992 156.106 172.497ZM160.959 170.909V171.832H157.284V170.909H160.959ZM158.355 169.21H159.445V175.969C159.445 176.277 159.489 176.507 159.579 176.661C159.671 176.812 159.788 176.914 159.929 176.966C160.074 177.015 160.226 177.04 160.386 177.04C160.506 177.04 160.605 177.034 160.682 177.021C160.759 177.006 160.82 176.994 160.867 176.984L161.088 177.963C161.014 177.991 160.911 178.018 160.779 178.046C160.647 178.077 160.479 178.092 160.276 178.092C159.968 178.092 159.666 178.026 159.371 177.894C159.078 177.761 158.835 177.56 158.641 177.289C158.451 177.018 158.355 176.677 158.355 176.264V169.21ZM165.495 178.148C164.811 178.148 164.222 177.997 163.726 177.695C163.234 177.391 162.854 176.966 162.586 176.421C162.322 175.873 162.189 175.236 162.189 174.51C162.189 173.784 162.322 173.143 162.586 172.589C162.854 172.032 163.226 171.598 163.703 171.288C164.184 170.974 164.744 170.817 165.384 170.817C165.753 170.817 166.118 170.878 166.478 171.001C166.838 171.125 167.166 171.325 167.461 171.602C167.757 171.875 167.992 172.239 168.168 172.691C168.343 173.143 168.431 173.701 168.431 174.362V174.824H162.965V173.882H167.323C167.323 173.482 167.243 173.125 167.083 172.811C166.926 172.497 166.701 172.249 166.409 172.068C166.119 171.886 165.778 171.795 165.384 171.795C164.95 171.795 164.574 171.903 164.257 172.119C163.943 172.331 163.702 172.608 163.533 172.95C163.363 173.291 163.279 173.657 163.279 174.048V174.676C163.279 175.212 163.371 175.666 163.556 176.038C163.743 176.407 164.003 176.689 164.336 176.883C164.668 177.074 165.054 177.169 165.495 177.169C165.781 177.169 166.039 177.129 166.27 177.049C166.504 176.966 166.706 176.843 166.875 176.68C167.044 176.513 167.175 176.307 167.267 176.061L168.32 176.357C168.209 176.714 168.023 177.027 167.761 177.298C167.5 177.566 167.177 177.775 166.792 177.926C166.407 178.074 165.975 178.148 165.495 178.148ZM170.088 178V170.909H171.141V172.017H171.233C171.381 171.638 171.619 171.345 171.948 171.135C172.278 170.923 172.673 170.817 173.135 170.817C173.603 170.817 173.992 170.923 174.303 171.135C174.617 171.345 174.861 171.638 175.037 172.017H175.111C175.292 171.651 175.565 171.36 175.928 171.145C176.291 170.926 176.726 170.817 177.234 170.817C177.868 170.817 178.387 171.015 178.79 171.412C179.193 171.806 179.395 172.42 179.395 173.254V178H178.305V173.254C178.305 172.731 178.162 172.357 177.876 172.132C177.59 171.908 177.253 171.795 176.865 171.795C176.366 171.795 175.98 171.946 175.706 172.248C175.432 172.546 175.295 172.925 175.295 173.384V178H174.187V173.143C174.187 172.74 174.057 172.416 173.795 172.169C173.533 171.92 173.196 171.795 172.784 171.795C172.501 171.795 172.236 171.871 171.99 172.022C171.747 172.172 171.55 172.382 171.399 172.65C171.251 172.914 171.177 173.22 171.177 173.568V178H170.088ZM183.473 178.166C183.024 178.166 182.616 178.082 182.25 177.912C181.884 177.74 181.593 177.492 181.378 177.169C181.162 176.843 181.054 176.449 181.054 175.987C181.054 175.581 181.134 175.252 181.294 174.999C181.455 174.744 181.668 174.544 181.936 174.399C182.204 174.254 182.499 174.147 182.823 174.076C183.149 174.002 183.477 173.944 183.806 173.901C184.237 173.845 184.586 173.804 184.854 173.776C185.125 173.745 185.322 173.694 185.445 173.624C185.571 173.553 185.634 173.43 185.634 173.254V173.217C185.634 172.762 185.509 172.408 185.26 172.156C185.014 171.903 184.64 171.777 184.138 171.777C183.618 171.777 183.21 171.891 182.915 172.119C182.619 172.346 182.412 172.589 182.292 172.848L181.258 172.479C181.442 172.048 181.688 171.712 181.996 171.472C182.307 171.229 182.646 171.06 183.012 170.964C183.381 170.866 183.744 170.817 184.101 170.817C184.329 170.817 184.591 170.844 184.886 170.9C185.185 170.952 185.472 171.061 185.749 171.228C186.029 171.394 186.262 171.645 186.446 171.98C186.631 172.316 186.723 172.765 186.723 173.328V178H185.634V177.04H185.579C185.505 177.194 185.382 177.358 185.209 177.534C185.037 177.709 184.808 177.858 184.521 177.982C184.235 178.105 183.886 178.166 183.473 178.166ZM183.64 177.188C184.071 177.188 184.434 177.103 184.729 176.934C185.028 176.764 185.252 176.546 185.403 176.278C185.557 176.01 185.634 175.729 185.634 175.433V174.436C185.588 174.491 185.486 174.542 185.329 174.588C185.175 174.632 184.997 174.67 184.794 174.704C184.594 174.735 184.398 174.762 184.207 174.787C184.02 174.808 183.867 174.827 183.75 174.842C183.467 174.879 183.203 174.939 182.956 175.022C182.713 175.102 182.516 175.224 182.366 175.387C182.218 175.547 182.144 175.766 182.144 176.043C182.144 176.421 182.284 176.707 182.564 176.901C182.847 177.092 183.206 177.188 183.64 177.188ZM195.046 178.148C194.455 178.148 193.933 177.998 193.481 177.7C193.028 177.398 192.674 176.974 192.419 176.426C192.164 175.875 192.036 175.224 192.036 174.473C192.036 173.728 192.164 173.082 192.419 172.534C192.674 171.986 193.03 171.563 193.485 171.265C193.941 170.966 194.467 170.817 195.064 170.817C195.526 170.817 195.891 170.894 196.158 171.048C196.429 171.198 196.635 171.371 196.777 171.565C196.922 171.755 197.034 171.912 197.114 172.036H197.206V168.545H198.296V178H197.243V176.911H197.114C197.034 177.04 196.92 177.203 196.772 177.4C196.625 177.594 196.414 177.768 196.14 177.922C195.866 178.072 195.501 178.148 195.046 178.148ZM195.194 177.169C195.631 177.169 196 177.055 196.302 176.827C196.603 176.597 196.832 176.278 196.989 175.872C197.146 175.462 197.225 174.99 197.225 174.455C197.225 173.925 197.148 173.462 196.994 173.065C196.84 172.665 196.612 172.354 196.311 172.132C196.009 171.908 195.637 171.795 195.194 171.795C194.732 171.795 194.347 171.914 194.039 172.151C193.735 172.385 193.505 172.703 193.352 173.107C193.201 173.507 193.125 173.956 193.125 174.455C193.125 174.959 193.202 175.418 193.356 175.83C193.513 176.24 193.744 176.566 194.049 176.809C194.356 177.049 194.738 177.169 195.194 177.169ZM203.415 178.148C202.732 178.148 202.143 177.997 201.647 177.695C201.155 177.391 200.775 176.966 200.507 176.421C200.242 175.873 200.11 175.236 200.11 174.51C200.11 173.784 200.242 173.143 200.507 172.589C200.775 172.032 201.147 171.598 201.624 171.288C202.104 170.974 202.665 170.817 203.305 170.817C203.674 170.817 204.039 170.878 204.399 171.001C204.759 171.125 205.087 171.325 205.382 171.602C205.678 171.875 205.913 172.239 206.088 172.691C206.264 173.143 206.352 173.701 206.352 174.362V174.824H200.886V173.882H205.244C205.244 173.482 205.164 173.125 205.004 172.811C204.847 172.497 204.622 172.249 204.33 172.068C204.04 171.886 203.699 171.795 203.305 171.795C202.871 171.795 202.495 171.903 202.178 172.119C201.864 172.331 201.623 172.608 201.453 172.95C201.284 173.291 201.2 173.657 201.2 174.048V174.676C201.2 175.212 201.292 175.666 201.477 176.038C201.664 176.407 201.924 176.689 202.257 176.883C202.589 177.074 202.975 177.169 203.415 177.169C203.702 177.169 203.96 177.129 204.191 177.049C204.425 176.966 204.627 176.843 204.796 176.68C204.965 176.513 205.096 176.307 205.188 176.061L206.241 176.357C206.13 176.714 205.944 177.027 205.682 177.298C205.421 177.566 205.097 177.775 204.713 177.926C204.328 178.074 203.896 178.148 203.415 178.148ZM43.7944 196.807C43.2682 196.807 42.8158 196.739 42.4372 196.604C42.0587 196.471 41.7432 196.296 41.4908 196.077C41.2415 195.862 41.043 195.631 40.8953 195.385L41.7632 194.776C41.8617 194.905 41.9863 195.053 42.1371 195.219C42.2879 195.388 42.4941 195.534 42.7557 195.657C43.0204 195.783 43.3667 195.847 43.7944 195.847C44.3669 195.847 44.8393 195.708 45.2117 195.431C45.5841 195.154 45.7703 194.72 45.7703 194.129V192.689H45.678C45.598 192.818 45.4841 192.978 45.3364 193.169C45.1917 193.357 44.9824 193.525 44.7085 193.672C44.4377 193.817 44.0714 193.889 43.6098 193.889C43.0373 193.889 42.5234 193.754 42.0679 193.483C41.6155 193.212 41.2569 192.818 40.9922 192.301C40.7306 191.784 40.5998 191.156 40.5998 190.418C40.5998 189.691 40.7276 189.059 40.983 188.52C41.2385 187.979 41.5939 187.56 42.0494 187.265C42.5049 186.966 43.0312 186.817 43.6283 186.817C44.0899 186.817 44.4561 186.894 44.727 187.048C45.0009 187.198 45.2102 187.371 45.3548 187.565C45.5025 187.755 45.6164 187.912 45.6964 188.036H45.8072V186.909H46.8598V194.203C46.8598 194.812 46.7213 195.308 46.4443 195.69C46.1704 196.074 45.8011 196.356 45.3364 196.534C44.8747 196.716 44.3607 196.807 43.7944 196.807ZM43.7575 192.911C44.1945 192.911 44.5639 192.81 44.8655 192.61C45.1671 192.41 45.3964 192.123 45.5533 191.747C45.7103 191.372 45.7888 190.922 45.7888 190.399C45.7888 189.888 45.7118 189.437 45.5579 189.047C45.4041 188.656 45.1763 188.349 44.8747 188.128C44.5731 187.906 44.2007 187.795 43.7575 187.795C43.2959 187.795 42.9112 187.912 42.6034 188.146C42.2987 188.38 42.0694 188.694 41.9155 189.088C41.7647 189.482 41.6893 189.919 41.6893 190.399C41.6893 190.892 41.7663 191.327 41.9202 191.706C42.0771 192.081 42.3079 192.377 42.6126 192.592C42.9204 192.804 43.302 192.911 43.7575 192.911ZM51.8271 194.148C51.1439 194.148 50.5545 193.997 50.059 193.695C49.5666 193.391 49.1865 192.966 48.9187 192.421C48.6541 191.873 48.5217 191.236 48.5217 190.51C48.5217 189.784 48.6541 189.143 48.9187 188.589C49.1865 188.032 49.5589 187.598 50.0359 187.288C50.516 186.974 51.0762 186.817 51.7163 186.817C52.0856 186.817 52.4503 186.878 52.8104 187.001C53.1705 187.125 53.4983 187.325 53.7937 187.602C54.0892 187.875 54.3246 188.239 54.5001 188.691C54.6755 189.143 54.7632 189.701 54.7632 190.362V190.824H49.2973V189.882H53.6552C53.6552 189.482 53.5752 189.125 53.4152 188.811C53.2582 188.497 53.0336 188.249 52.7412 188.068C52.4519 187.886 52.1103 187.795 51.7163 187.795C51.2824 187.795 50.9069 187.903 50.5899 188.119C50.276 188.331 50.0344 188.608 49.8651 188.95C49.6958 189.291 49.6112 189.657 49.6112 190.048V190.676C49.6112 191.212 49.7035 191.666 49.8882 192.038C50.0759 192.407 50.336 192.689 50.6684 192.883C51.0008 193.074 51.387 193.169 51.8271 193.169C52.1133 193.169 52.3719 193.129 52.6027 193.049C52.8366 192.966 53.0382 192.843 53.2074 192.68C53.3767 192.513 53.5075 192.307 53.5998 192.061L54.6524 192.357C54.5416 192.714 54.3554 193.027 54.0938 193.298C53.8322 193.566 53.5091 193.775 53.1243 193.926C52.7396 194.074 52.3072 194.148 51.8271 194.148ZM56.4205 194V186.909H57.4731V187.98H57.5469C57.6762 187.629 57.9101 187.345 58.2486 187.126C58.5872 186.908 58.9688 186.798 59.3935 186.798C59.4735 186.798 59.5736 186.8 59.6936 186.803C59.8136 186.806 59.9044 186.811 59.966 186.817V187.925C59.929 187.915 59.8444 187.902 59.7121 187.883C59.5828 187.862 59.4458 187.851 59.3012 187.851C58.9565 187.851 58.6487 187.923 58.3779 188.068C58.1101 188.209 57.8978 188.406 57.7408 188.659C57.5869 188.908 57.51 189.193 57.51 189.513V194H56.4205ZM64.0146 194.148C63.3314 194.148 62.742 193.997 62.2465 193.695C61.7541 193.391 61.374 192.966 61.1062 192.421C60.8416 191.873 60.7092 191.236 60.7092 190.51C60.7092 189.784 60.8416 189.143 61.1062 188.589C61.374 188.032 61.7464 187.598 62.2234 187.288C62.7035 186.974 63.2637 186.817 63.9038 186.817C64.2731 186.817 64.6378 186.878 64.9979 187.001C65.358 187.125 65.6858 187.325 65.9812 187.602C66.2767 187.875 66.5121 188.239 66.6876 188.691C66.863 189.143 66.9507 189.701 66.9507 190.362V190.824H61.4848V189.882H65.8427C65.8427 189.482 65.7627 189.125 65.6027 188.811C65.4457 188.497 65.2211 188.249 64.9287 188.068C64.6394 187.886 64.2978 187.795 63.9038 187.795C63.4699 187.795 63.0944 187.903 62.7774 188.119C62.4635 188.331 62.2219 188.608 62.0526 188.95C61.8833 189.291 61.7987 189.657 61.7987 190.048V190.676C61.7987 191.212 61.891 191.666 62.0757 192.038C62.2634 192.407 62.5235 192.689 62.8559 192.883C63.1883 193.074 63.5745 193.169 64.0146 193.169C64.3008 193.169 64.5594 193.129 64.7902 193.049C65.0241 192.966 65.2257 192.843 65.3949 192.68C65.5642 192.513 65.695 192.307 65.7873 192.061L66.8399 192.357C66.7291 192.714 66.5429 193.027 66.2813 193.298C66.0197 193.566 65.6966 193.775 65.3118 193.926C64.9271 194.074 64.4947 194.148 64.0146 194.148ZM69.6975 189.734V194H68.608V186.909H69.6606V188.017H69.7529C69.9191 187.657 70.1715 187.368 70.51 187.149C70.8485 186.928 71.2856 186.817 71.8211 186.817C72.3012 186.817 72.7213 186.915 73.0814 187.112C73.4415 187.306 73.7215 187.602 73.9216 187.999C74.1216 188.393 74.2217 188.891 74.2217 189.494V194H73.1322V189.568C73.1322 189.011 72.9875 188.577 72.6982 188.266C72.4089 187.952 72.0119 187.795 71.5072 187.795C71.1594 187.795 70.8485 187.871 70.5746 188.022C70.3038 188.172 70.0899 188.393 69.9329 188.682C69.776 188.971 69.6975 189.322 69.6975 189.734ZM79.0932 194.148C78.4284 194.148 77.856 193.991 77.3759 193.677C76.8957 193.363 76.5264 192.931 76.2679 192.38C76.0094 191.829 75.8801 191.199 75.8801 190.491C75.8801 189.771 76.0125 189.136 76.2771 188.585C76.5449 188.031 76.9173 187.598 77.3943 187.288C77.8744 186.974 78.4346 186.817 79.0747 186.817C79.5733 186.817 80.0226 186.909 80.4227 187.094C80.8228 187.278 81.1506 187.537 81.406 187.869C81.6615 188.202 81.82 188.589 81.8815 189.033H80.7921C80.709 188.71 80.5243 188.423 80.2381 188.174C79.9549 187.922 79.5733 187.795 79.0932 187.795C78.6685 187.795 78.2961 187.906 77.976 188.128C77.659 188.346 77.4113 188.656 77.2327 189.056C77.0573 189.453 76.9696 189.919 76.9696 190.455C76.9696 191.002 77.0558 191.479 77.2281 191.886C77.4036 192.292 77.6498 192.607 77.9668 192.832C78.2868 193.057 78.6623 193.169 79.0932 193.169C79.3763 193.169 79.6333 193.12 79.8641 193.021C80.095 192.923 80.2904 192.781 80.4504 192.597C80.6105 192.412 80.7243 192.19 80.7921 191.932H81.8815C81.82 192.35 81.6676 192.727 81.4245 193.063C81.1845 193.395 80.8659 193.66 80.4689 193.857C80.075 194.051 79.6164 194.148 79.0932 194.148ZM83.4742 194V186.909H84.5637V194H83.4742ZM84.0282 185.727C83.8158 185.727 83.6327 185.655 83.4788 185.51C83.328 185.366 83.2526 185.192 83.2526 184.989C83.2526 184.786 83.328 184.612 83.4788 184.467C83.6327 184.322 83.8158 184.25 84.0282 184.25C84.2406 184.25 84.4221 184.322 84.5729 184.467C84.7268 184.612 84.8038 184.786 84.8038 184.989C84.8038 185.192 84.7268 185.366 84.5729 185.51C84.4221 185.655 84.2406 185.727 84.0282 185.727ZM88.6458 194.166C88.1965 194.166 87.7887 194.082 87.4225 193.912C87.0562 193.74 86.7654 193.492 86.55 193.169C86.3345 192.843 86.2268 192.449 86.2268 191.987C86.2268 191.581 86.3068 191.252 86.4669 190.999C86.6269 190.744 86.8408 190.544 87.1085 190.399C87.3763 190.254 87.6718 190.147 87.9949 190.076C88.3211 190.002 88.6489 189.944 88.9782 189.901C89.4091 189.845 89.7584 189.804 90.0262 189.776C90.297 189.745 90.494 189.694 90.6171 189.624C90.7433 189.553 90.8063 189.43 90.8063 189.254V189.217C90.8063 188.762 90.6817 188.408 90.4324 188.156C90.1862 187.903 89.8123 187.777 89.3106 187.777C88.7905 187.777 88.3827 187.891 88.0872 188.119C87.7918 188.346 87.584 188.589 87.464 188.848L86.4299 188.479C86.6146 188.048 86.8608 187.712 87.1686 187.472C87.4794 187.229 87.8179 187.06 88.1842 186.964C88.5535 186.866 88.9167 186.817 89.2737 186.817C89.5014 186.817 89.763 186.844 90.0585 186.9C90.357 186.952 90.6448 187.061 90.9218 187.228C91.2018 187.394 91.4342 187.645 91.6188 187.98C91.8035 188.316 91.8958 188.765 91.8958 189.328V194H90.8063V193.04H90.7509C90.6771 193.194 90.554 193.358 90.3816 193.534C90.2093 193.709 89.98 193.858 89.6938 193.982C89.4076 194.105 89.0582 194.166 88.6458 194.166ZM88.812 193.188C89.2429 193.188 89.6061 193.103 89.9015 192.934C90.2 192.764 90.4247 192.546 90.5755 192.278C90.7294 192.01 90.8063 191.729 90.8063 191.433V190.436C90.7602 190.491 90.6586 190.542 90.5017 190.588C90.3478 190.632 90.1693 190.67 89.9661 190.704C89.7661 190.735 89.5707 190.762 89.3799 190.787C89.1921 190.808 89.0398 190.827 88.9228 190.842C88.6397 190.879 88.375 190.939 88.1288 191.022C87.8857 191.102 87.6887 191.224 87.5379 191.387C87.3902 191.547 87.3163 191.766 87.3163 192.043C87.3163 192.421 87.4563 192.707 87.7364 192.901C88.0195 193.092 88.3781 193.188 88.812 193.188ZM93.8844 194V186.909H94.9369V188.017H95.0293C95.177 187.638 95.4155 187.345 95.7448 187.135C96.0741 186.923 96.4696 186.817 96.9313 186.817C97.3991 186.817 97.7884 186.923 98.0992 187.135C98.4131 187.345 98.6578 187.638 98.8332 188.017H98.9071C99.0887 187.651 99.3611 187.36 99.7242 187.145C100.087 186.926 100.523 186.817 101.031 186.817C101.665 186.817 102.183 187.015 102.586 187.412C102.99 187.806 103.191 188.42 103.191 189.254V194H102.102V189.254C102.102 188.731 101.959 188.357 101.672 188.132C101.386 187.908 101.049 187.795 100.661 187.795C100.163 187.795 99.7765 187.946 99.5026 188.248C99.2287 188.546 99.0918 188.925 99.0918 189.384V194H97.9838V189.143C97.9838 188.74 97.853 188.416 97.5914 188.169C97.3298 187.92 96.9928 187.795 96.5804 187.795C96.2973 187.795 96.0326 187.871 95.7864 188.022C95.5432 188.172 95.3463 188.382 95.1955 188.65C95.0477 188.914 94.9739 189.22 94.9739 189.568V194H93.8844ZM108.156 194.148C107.473 194.148 106.884 193.997 106.388 193.695C105.896 193.391 105.516 192.966 105.248 192.421C104.983 191.873 104.851 191.236 104.851 190.51C104.851 189.784 104.983 189.143 105.248 188.589C105.516 188.032 105.888 187.598 106.365 187.288C106.845 186.974 107.405 186.817 108.045 186.817C108.415 186.817 108.779 186.878 109.14 187.001C109.5 187.125 109.827 187.325 110.123 187.602C110.418 187.875 110.654 188.239 110.829 188.691C111.005 189.143 111.092 189.701 111.092 190.362V190.824H105.626V189.882H109.984C109.984 189.482 109.904 189.125 109.744 188.811C109.587 188.497 109.363 188.249 109.07 188.068C108.781 187.886 108.439 187.795 108.045 187.795C107.611 187.795 107.236 187.903 106.919 188.119C106.605 188.331 106.363 188.608 106.194 188.95C106.025 189.291 105.94 189.657 105.94 190.048V190.676C105.94 191.212 106.033 191.666 106.217 192.038C106.405 192.407 106.665 192.689 106.997 192.883C107.33 193.074 107.716 193.169 108.156 193.169C108.442 193.169 108.701 193.129 108.932 193.049C109.166 192.966 109.367 192.843 109.537 192.68C109.706 192.513 109.837 192.307 109.929 192.061L110.982 192.357C110.871 192.714 110.685 193.027 110.423 193.298C110.161 193.566 109.838 193.775 109.453 193.926C109.069 194.074 108.636 194.148 108.156 194.148ZM113.839 189.734V194H112.75V186.909H113.802V188.017H113.895C114.061 187.657 114.313 187.368 114.652 187.149C114.99 186.928 115.427 186.817 115.963 186.817C116.443 186.817 116.863 186.915 117.223 187.112C117.583 187.306 117.863 187.602 118.063 187.999C118.263 188.393 118.363 188.891 118.363 189.494V194H117.274V189.568C117.274 189.011 117.129 188.577 116.84 188.266C116.551 187.952 116.153 187.795 115.649 187.795C115.301 187.795 114.99 187.871 114.716 188.022C114.445 188.172 114.232 188.393 114.075 188.682C113.918 188.971 113.839 189.322 113.839 189.734ZM123.438 186.909V187.832H119.763V186.909H123.438ZM120.834 185.21H121.924V191.969C121.924 192.277 121.968 192.507 122.058 192.661C122.15 192.812 122.267 192.914 122.408 192.966C122.553 193.015 122.705 193.04 122.865 193.04C122.986 193.04 123.084 193.034 123.161 193.021C123.238 193.006 123.299 192.994 123.346 192.984L123.567 193.963C123.493 193.991 123.39 194.018 123.258 194.046C123.126 194.077 122.958 194.092 122.755 194.092C122.447 194.092 122.145 194.026 121.85 193.894C121.557 193.761 121.314 193.56 121.12 193.289C120.93 193.018 120.834 192.677 120.834 192.264V185.21ZM127.881 194.148C127.241 194.148 126.679 193.995 126.196 193.691C125.716 193.386 125.341 192.96 125.07 192.412C124.802 191.864 124.668 191.224 124.668 190.491C124.668 189.753 124.802 189.108 125.07 188.557C125.341 188.006 125.716 187.578 126.196 187.274C126.679 186.969 127.241 186.817 127.881 186.817C128.521 186.817 129.082 186.969 129.562 187.274C130.045 187.578 130.42 188.006 130.688 188.557C130.959 189.108 131.094 189.753 131.094 190.491C131.094 191.224 130.959 191.864 130.688 192.412C130.42 192.96 130.045 193.386 129.562 193.691C129.082 193.995 128.521 194.148 127.881 194.148ZM127.881 193.169C128.368 193.169 128.768 193.044 129.082 192.795C129.395 192.546 129.628 192.218 129.779 191.812C129.929 191.406 130.005 190.965 130.005 190.491C130.005 190.018 129.929 189.576 129.779 189.167C129.628 188.757 129.395 188.426 129.082 188.174C128.768 187.922 128.368 187.795 127.881 187.795C127.395 187.795 126.995 187.922 126.681 188.174C126.367 188.426 126.135 188.757 125.984 189.167C125.833 189.576 125.758 190.018 125.758 190.491C125.758 190.965 125.833 191.406 125.984 191.812C126.135 192.218 126.367 192.546 126.681 192.795C126.995 193.044 127.395 193.169 127.881 193.169ZM139.091 194.148C138.5 194.148 137.979 193.998 137.526 193.7C137.074 193.398 136.72 192.974 136.464 192.426C136.209 191.875 136.081 191.224 136.081 190.473C136.081 189.728 136.209 189.082 136.464 188.534C136.72 187.986 137.075 187.563 137.531 187.265C137.986 186.966 138.513 186.817 139.11 186.817C139.571 186.817 139.936 186.894 140.204 187.048C140.475 187.198 140.681 187.371 140.822 187.565C140.967 187.755 141.079 187.912 141.159 188.036H141.252V184.545H142.341V194H141.289V192.911H141.159C141.079 193.04 140.966 193.203 140.818 193.4C140.67 193.594 140.459 193.768 140.185 193.922C139.911 194.072 139.547 194.148 139.091 194.148ZM139.239 193.169C139.676 193.169 140.045 193.055 140.347 192.827C140.649 192.597 140.878 192.278 141.035 191.872C141.192 191.462 141.27 190.99 141.27 190.455C141.27 189.925 141.193 189.462 141.039 189.065C140.886 188.665 140.658 188.354 140.356 188.132C140.055 187.908 139.682 187.795 139.239 187.795C138.777 187.795 138.393 187.914 138.085 188.151C137.78 188.385 137.551 188.703 137.397 189.107C137.246 189.507 137.171 189.956 137.171 190.455C137.171 190.959 137.248 191.418 137.402 191.83C137.559 192.24 137.789 192.566 138.094 192.809C138.402 193.049 138.783 193.169 139.239 193.169ZM147.461 194.148C146.778 194.148 146.188 193.997 145.693 193.695C145.2 193.391 144.82 192.966 144.553 192.421C144.288 191.873 144.156 191.236 144.156 190.51C144.156 189.784 144.288 189.143 144.553 188.589C144.82 188.032 145.193 187.598 145.67 187.288C146.15 186.974 146.71 186.817 147.35 186.817C147.719 186.817 148.084 186.878 148.444 187.001C148.804 187.125 149.132 187.325 149.428 187.602C149.723 187.875 149.958 188.239 150.134 188.691C150.309 189.143 150.397 189.701 150.397 190.362V190.824H144.931V189.882H149.289C149.289 189.482 149.209 189.125 149.049 188.811C148.892 188.497 148.667 188.249 148.375 188.068C148.086 187.886 147.744 187.795 147.35 187.795C146.916 187.795 146.541 187.903 146.224 188.119C145.91 188.331 145.668 188.608 145.499 188.95C145.33 189.291 145.245 189.657 145.245 190.048V190.676C145.245 191.212 145.337 191.666 145.522 192.038C145.71 192.407 145.97 192.689 146.302 192.883C146.635 193.074 147.021 193.169 147.461 193.169C147.747 193.169 148.006 193.129 148.236 193.049C148.47 192.966 148.672 192.843 148.841 192.68C149.011 192.513 149.141 192.307 149.234 192.061L150.286 192.357C150.175 192.714 149.989 193.027 149.728 193.298C149.466 193.566 149.143 193.775 148.758 193.926C148.373 194.074 147.941 194.148 147.461 194.148ZM155.858 194V184.545H156.948V188.036H157.04C157.12 187.912 157.231 187.755 157.372 187.565C157.517 187.371 157.723 187.198 157.991 187.048C158.262 186.894 158.628 186.817 159.09 186.817C159.687 186.817 160.213 186.966 160.669 187.265C161.124 187.563 161.48 187.986 161.735 188.534C161.991 189.082 162.118 189.728 162.118 190.473C162.118 191.224 161.991 191.875 161.735 192.426C161.48 192.974 161.126 193.398 160.673 193.7C160.221 193.998 159.699 194.148 159.108 194.148C158.653 194.148 158.288 194.072 158.014 193.922C157.74 193.768 157.529 193.594 157.382 193.4C157.234 193.203 157.12 193.04 157.04 192.911H156.911V194H155.858ZM156.929 190.455C156.929 190.99 157.008 191.462 157.165 191.872C157.322 192.278 157.551 192.597 157.853 192.827C158.154 193.055 158.524 193.169 158.961 193.169C159.416 193.169 159.796 193.049 160.101 192.809C160.409 192.566 160.639 192.24 160.793 191.83C160.95 191.418 161.029 190.959 161.029 190.455C161.029 189.956 160.952 189.507 160.798 189.107C160.647 188.703 160.418 188.385 160.11 188.151C159.805 187.914 159.422 187.795 158.961 187.795C158.517 187.795 158.145 187.908 157.843 188.132C157.542 188.354 157.314 188.665 157.16 189.065C157.006 189.462 156.929 189.925 156.929 190.455ZM165.871 194.166C165.422 194.166 165.014 194.082 164.648 193.912C164.282 193.74 163.991 193.492 163.776 193.169C163.56 192.843 163.452 192.449 163.452 191.987C163.452 191.581 163.532 191.252 163.692 190.999C163.852 190.744 164.066 190.544 164.334 190.399C164.602 190.254 164.897 190.147 165.22 190.076C165.547 190.002 165.874 189.944 166.204 189.901C166.635 189.845 166.984 189.804 167.252 189.776C167.523 189.745 167.72 189.694 167.843 189.624C167.969 189.553 168.032 189.43 168.032 189.254V189.217C168.032 188.762 167.907 188.408 167.658 188.156C167.412 187.903 167.038 187.777 166.536 187.777C166.016 187.777 165.608 187.891 165.313 188.119C165.017 188.346 164.81 188.589 164.69 188.848L163.656 188.479C163.84 188.048 164.086 187.712 164.394 187.472C164.705 187.229 165.044 187.06 165.41 186.964C165.779 186.866 166.142 186.817 166.499 186.817C166.727 186.817 166.989 186.844 167.284 186.9C167.583 186.952 167.87 187.061 168.147 187.228C168.427 187.394 168.66 187.645 168.844 187.98C169.029 188.316 169.121 188.765 169.121 189.328V194H168.032V193.04H167.977C167.903 193.194 167.78 193.358 167.607 193.534C167.435 193.709 167.206 193.858 166.919 193.982C166.633 194.105 166.284 194.166 165.871 194.166ZM166.038 193.188C166.468 193.188 166.832 193.103 167.127 192.934C167.426 192.764 167.65 192.546 167.801 192.278C167.955 192.01 168.032 191.729 168.032 191.433V190.436C167.986 190.491 167.884 190.542 167.727 190.588C167.573 190.632 167.395 190.67 167.192 190.704C166.992 190.735 166.796 190.762 166.605 190.787C166.418 190.808 166.265 190.827 166.148 190.842C165.865 190.879 165.601 190.939 165.354 191.022C165.111 191.102 164.914 191.224 164.763 191.387C164.616 191.547 164.542 191.766 164.542 192.043C164.542 192.421 164.682 192.707 164.962 192.901C165.245 193.092 165.604 193.188 166.038 193.188ZM172.199 189.734V194H171.11V186.909H172.163V188.017H172.255C172.421 187.657 172.673 187.368 173.012 187.149C173.35 186.928 173.788 186.817 174.323 186.817C174.803 186.817 175.223 186.915 175.583 187.112C175.943 187.306 176.223 187.602 176.424 187.999C176.624 188.393 176.724 188.891 176.724 189.494V194H175.634V189.568C175.634 189.011 175.489 188.577 175.2 188.266C174.911 187.952 174.514 187.795 174.009 187.795C173.661 187.795 173.35 187.871 173.077 188.022C172.806 188.172 172.592 188.393 172.435 188.682C172.278 188.971 172.199 189.322 172.199 189.734ZM181.595 194.148C180.93 194.148 180.358 193.991 179.878 193.677C179.398 193.363 179.028 192.931 178.77 192.38C178.511 191.829 178.382 191.199 178.382 190.491C178.382 189.771 178.514 189.136 178.779 188.585C179.047 188.031 179.419 187.598 179.896 187.288C180.376 186.974 180.937 186.817 181.577 186.817C182.075 186.817 182.525 186.909 182.925 187.094C183.325 187.278 183.653 187.537 183.908 187.869C184.163 188.202 184.322 188.589 184.383 189.033H183.294C183.211 188.71 183.026 188.423 182.74 188.174C182.457 187.922 182.075 187.795 181.595 187.795C181.17 187.795 180.798 187.906 180.478 188.128C180.161 188.346 179.913 188.656 179.735 189.056C179.559 189.453 179.472 189.919 179.472 190.455C179.472 191.002 179.558 191.479 179.73 191.886C179.906 192.292 180.152 192.607 180.469 192.832C180.789 193.057 181.164 193.169 181.595 193.169C181.878 193.169 182.135 193.12 182.366 193.021C182.597 192.923 182.792 192.781 182.952 192.597C183.112 192.412 183.226 192.19 183.294 191.932H184.383C184.322 192.35 184.17 192.727 183.926 193.063C183.686 193.395 183.368 193.66 182.971 193.857C182.577 194.051 182.118 194.148 181.595 194.148ZM188.857 194.148C188.217 194.148 187.655 193.995 187.172 193.691C186.692 193.386 186.316 192.96 186.045 192.412C185.778 191.864 185.644 191.224 185.644 190.491C185.644 189.753 185.778 189.108 186.045 188.557C186.316 188.006 186.692 187.578 187.172 187.274C187.655 186.969 188.217 186.817 188.857 186.817C189.497 186.817 190.057 186.969 190.537 187.274C191.02 187.578 191.396 188.006 191.664 188.557C191.935 189.108 192.07 189.753 192.07 190.491C192.07 191.224 191.935 191.864 191.664 192.412C191.396 192.96 191.02 193.386 190.537 193.691C190.057 193.995 189.497 194.148 188.857 194.148ZM188.857 193.169C189.343 193.169 189.743 193.044 190.057 192.795C190.371 192.546 190.603 192.218 190.754 191.812C190.905 191.406 190.98 190.965 190.98 190.491C190.98 190.018 190.905 189.576 190.754 189.167C190.603 188.757 190.371 188.426 190.057 188.174C189.743 187.922 189.343 187.795 188.857 187.795C188.371 187.795 187.97 187.922 187.657 188.174C187.343 188.426 187.11 188.757 186.959 189.167C186.809 189.576 186.733 190.018 186.733 190.491C186.733 190.965 186.809 191.406 186.959 191.812C187.11 192.218 187.343 192.546 187.657 192.795C187.97 193.044 188.371 193.169 188.857 193.169ZM200.067 194.148C199.476 194.148 198.954 193.998 198.502 193.7C198.049 193.398 197.695 192.974 197.44 192.426C197.185 191.875 197.057 191.224 197.057 190.473C197.057 189.728 197.185 189.082 197.44 188.534C197.695 187.986 198.051 187.563 198.506 187.265C198.962 186.966 199.488 186.817 200.085 186.817C200.547 186.817 200.912 186.894 201.179 187.048C201.45 187.198 201.656 187.371 201.798 187.565C201.943 187.755 202.055 187.912 202.135 188.036H202.227V184.545H203.317V194H202.264V192.911H202.135C202.055 193.04 201.941 193.203 201.793 193.4C201.646 193.594 201.435 193.768 201.161 193.922C200.887 194.072 200.522 194.148 200.067 194.148ZM200.215 193.169C200.652 193.169 201.021 193.055 201.323 192.827C201.624 192.597 201.853 192.278 202.01 191.872C202.167 191.462 202.246 190.99 202.246 190.455C202.246 189.925 202.169 189.462 202.015 189.065C201.861 188.665 201.633 188.354 201.332 188.132C201.03 187.908 200.658 187.795 200.215 187.795C199.753 187.795 199.368 187.914 199.06 188.151C198.756 188.385 198.526 188.703 198.373 189.107C198.222 189.507 198.146 189.956 198.146 190.455C198.146 190.959 198.223 191.418 198.377 191.83C198.534 192.24 198.765 192.566 199.07 192.809C199.377 193.049 199.759 193.169 200.215 193.169ZM208.436 194.148C207.753 194.148 207.164 193.997 206.668 193.695C206.176 193.391 205.796 192.966 205.528 192.421C205.263 191.873 205.131 191.236 205.131 190.51C205.131 189.784 205.263 189.143 205.528 188.589C205.796 188.032 206.168 187.598 206.645 187.288C207.125 186.974 207.686 186.817 208.326 186.817C208.695 186.817 209.06 186.878 209.42 187.001C209.78 187.125 210.108 187.325 210.403 187.602C210.699 187.875 210.934 188.239 211.109 188.691C211.285 189.143 211.373 189.701 211.373 190.362V190.824H205.907V189.882H210.265C210.265 189.482 210.185 189.125 210.025 188.811C209.868 188.497 209.643 188.249 209.351 188.068C209.061 187.886 208.72 187.795 208.326 187.795C207.892 187.795 207.516 187.903 207.199 188.119C206.885 188.331 206.644 188.608 206.474 188.95C206.305 189.291 206.221 189.657 206.221 190.048V190.676C206.221 191.212 206.313 191.666 206.498 192.038C206.685 192.407 206.945 192.689 207.278 192.883C207.61 193.074 207.996 193.169 208.436 193.169C208.723 193.169 208.981 193.129 209.212 193.049C209.446 192.966 209.648 192.843 209.817 192.68C209.986 192.513 210.117 192.307 210.209 192.061L211.262 192.357C211.151 192.714 210.965 193.027 210.703 193.298C210.442 193.566 210.118 193.775 209.734 193.926C209.349 194.074 208.917 194.148 208.436 194.148ZM36.7035 210.148C36.1126 210.148 35.591 209.998 35.1386 209.7C34.6861 209.398 34.3322 208.974 34.0768 208.426C33.8213 207.875 33.6936 207.224 33.6936 206.473C33.6936 205.728 33.8213 205.082 34.0768 204.534C34.3322 203.986 34.6877 203.563 35.1432 203.265C35.5987 202.966 36.1249 202.817 36.722 202.817C37.1837 202.817 37.5484 202.894 37.8161 203.048C38.0869 203.198 38.2931 203.371 38.4347 203.565C38.5794 203.755 38.6917 203.912 38.7717 204.036H38.8641V200.545H39.9535V210H38.901V208.911H38.7717C38.6917 209.04 38.5778 209.203 38.4301 209.4C38.2824 209.594 38.0716 209.768 37.7976 209.922C37.5237 210.072 37.159 210.148 36.7035 210.148ZM36.8513 209.169C37.2883 209.169 37.6576 209.055 37.9592 208.827C38.2608 208.597 38.4901 208.278 38.6471 207.872C38.804 207.462 38.8825 206.99 38.8825 206.455C38.8825 205.925 38.8056 205.462 38.6517 205.065C38.4978 204.665 38.2701 204.354 37.9685 204.132C37.6668 203.908 37.2944 203.795 36.8513 203.795C36.3896 203.795 36.0049 203.914 35.6971 204.151C35.3925 204.385 35.1632 204.703 35.0093 205.107C34.8585 205.507 34.7831 205.956 34.7831 206.455C34.7831 206.959 34.86 207.418 35.0139 207.83C35.1709 208.24 35.4017 208.566 35.7064 208.809C36.0141 209.049 36.3958 209.169 36.8513 209.169ZM44.1868 210.166C43.7375 210.166 43.3297 210.082 42.9635 209.912C42.5972 209.74 42.3064 209.492 42.091 209.169C41.8755 208.843 41.7678 208.449 41.7678 207.987C41.7678 207.581 41.8478 207.252 42.0079 206.999C42.1679 206.744 42.3818 206.544 42.6496 206.399C42.9173 206.254 43.2128 206.147 43.5359 206.076C43.8622 206.002 44.1899 205.944 44.5192 205.901C44.9501 205.845 45.2994 205.804 45.5672 205.776C45.838 205.745 46.035 205.694 46.1581 205.624C46.2843 205.553 46.3474 205.43 46.3474 205.254V205.217C46.3474 204.762 46.2227 204.408 45.9734 204.156C45.7272 203.903 45.3533 203.777 44.8516 203.777C44.3315 203.777 43.9237 203.891 43.6283 204.119C43.3328 204.346 43.1251 204.589 43.005 204.848L41.9709 204.479C42.1556 204.048 42.4018 203.712 42.7096 203.472C43.0204 203.229 43.359 203.06 43.7252 202.964C44.0945 202.866 44.4577 202.817 44.8147 202.817C45.0424 202.817 45.304 202.844 45.5995 202.9C45.898 202.952 46.1858 203.061 46.4628 203.228C46.7428 203.394 46.9752 203.645 47.1599 203.98C47.3445 204.316 47.4368 204.765 47.4368 205.328V210H46.3474V209.04H46.292C46.2181 209.194 46.095 209.358 45.9226 209.534C45.7503 209.709 45.521 209.858 45.2348 209.982C44.9486 210.105 44.5993 210.166 44.1868 210.166ZM44.353 209.188C44.7839 209.188 45.1471 209.103 45.4425 208.934C45.7411 208.764 45.9657 208.546 46.1165 208.278C46.2704 208.01 46.3474 207.729 46.3474 207.433V206.436C46.3012 206.491 46.1996 206.542 46.0427 206.588C45.8888 206.632 45.7103 206.67 45.5072 206.704C45.3071 206.735 45.1117 206.762 44.9209 206.787C44.7331 206.808 44.5808 206.827 44.4638 206.842C44.1807 206.879 43.916 206.939 43.6698 207.022C43.4267 207.102 43.2297 207.224 43.0789 207.387C42.9312 207.547 42.8573 207.766 42.8573 208.043C42.8573 208.421 42.9973 208.707 43.2774 208.901C43.5605 209.092 43.9191 209.188 44.353 209.188ZM52.103 210.148C51.512 210.148 50.9904 209.998 50.538 209.7C50.0856 209.398 49.7316 208.974 49.4762 208.426C49.2207 207.875 49.093 207.224 49.093 206.473C49.093 205.728 49.2207 205.082 49.4762 204.534C49.7316 203.986 50.0871 203.563 50.5426 203.265C50.9981 202.966 51.5244 202.817 52.1214 202.817C52.5831 202.817 52.9478 202.894 53.2155 203.048C53.4864 203.198 53.6926 203.371 53.8341 203.565C53.9788 203.755 54.0911 203.912 54.1711 204.036H54.2635V200.545H55.353V210H54.3004V208.911H54.1711C54.0911 209.04 53.9772 209.203 53.8295 209.4C53.6818 209.594 53.471 209.768 53.1971 209.922C52.9231 210.072 52.5584 210.148 52.103 210.148ZM52.2507 209.169C52.6877 209.169 53.057 209.055 53.3586 208.827C53.6602 208.597 53.8895 208.278 54.0465 207.872C54.2035 207.462 54.2819 206.99 54.2819 206.455C54.2819 205.925 54.205 205.462 54.0511 205.065C53.8972 204.665 53.6695 204.354 53.3679 204.132C53.0663 203.908 52.6939 203.795 52.2507 203.795C51.789 203.795 51.4043 203.914 51.0966 204.151C50.7919 204.385 50.5626 204.703 50.4087 205.107C50.2579 205.507 50.1825 205.956 50.1825 206.455C50.1825 206.959 50.2594 207.418 50.4133 207.83C50.5703 208.24 50.8011 208.566 51.1058 208.809C51.4136 209.049 51.7952 209.169 52.2507 209.169ZM60.3803 210.148C59.7401 210.148 59.1785 209.995 58.6953 209.691C58.2152 209.386 57.8397 208.96 57.5689 208.412C57.3011 207.864 57.1672 207.224 57.1672 206.491C57.1672 205.753 57.3011 205.108 57.5689 204.557C57.8397 204.006 58.2152 203.578 58.6953 203.274C59.1785 202.969 59.7401 202.817 60.3803 202.817C61.0204 202.817 61.5806 202.969 62.0607 203.274C62.5439 203.578 62.9194 204.006 63.1871 204.557C63.4579 205.108 63.5934 205.753 63.5934 206.491C63.5934 207.224 63.4579 207.864 63.1871 208.412C62.9194 208.96 62.5439 209.386 62.0607 209.691C61.5806 209.995 61.0204 210.148 60.3803 210.148ZM60.3803 209.169C60.8666 209.169 61.2667 209.044 61.5806 208.795C61.8945 208.546 62.1269 208.218 62.2777 207.812C62.4285 207.406 62.5039 206.965 62.5039 206.491C62.5039 206.018 62.4285 205.576 62.2777 205.167C62.1269 204.757 61.8945 204.426 61.5806 204.174C61.2667 203.922 60.8666 203.795 60.3803 203.795C59.894 203.795 59.4939 203.922 59.18 204.174C58.8661 204.426 58.6337 204.757 58.4829 205.167C58.3321 205.576 58.2567 206.018 58.2567 206.491C58.2567 206.965 58.3321 207.406 58.4829 207.812C58.6337 208.218 58.8661 208.546 59.18 208.795C59.4939 209.044 59.894 209.169 60.3803 209.169ZM70.2792 204.497L69.3005 204.774C69.2389 204.611 69.1481 204.453 69.0281 204.299C68.9112 204.142 68.7511 204.012 68.548 203.911C68.3449 203.809 68.0848 203.759 67.7678 203.759C67.3339 203.759 66.9722 203.859 66.6829 204.059C66.3967 204.256 66.2536 204.506 66.2536 204.811C66.2536 205.082 66.3521 205.296 66.5491 205.453C66.746 205.61 67.0538 205.741 67.4724 205.845L68.5249 206.104C69.1589 206.258 69.6313 206.493 69.9422 206.81C70.253 207.124 70.4084 207.529 70.4084 208.024C70.4084 208.43 70.2915 208.794 70.0576 209.114C69.8268 209.434 69.5036 209.686 69.0881 209.871C68.6726 210.055 68.1895 210.148 67.6386 210.148C66.9153 210.148 66.3167 209.991 65.8427 209.677C65.3688 209.363 65.0687 208.904 64.9425 208.301L65.9766 208.043C66.0751 208.424 66.2613 208.71 66.5352 208.901C66.8122 209.092 67.1738 209.188 67.6201 209.188C68.1279 209.188 68.5311 209.08 68.8296 208.864C69.1312 208.646 69.282 208.384 69.282 208.08C69.282 207.833 69.1958 207.627 69.0235 207.461C68.8511 207.292 68.5865 207.165 68.2295 207.082L67.0476 206.805C66.3983 206.652 65.9212 206.413 65.6165 206.09C65.3149 205.764 65.1641 205.356 65.1641 204.866C65.1641 204.466 65.2765 204.112 65.5011 203.805C65.7289 203.497 66.0382 203.255 66.429 203.08C66.823 202.904 67.2692 202.817 67.7678 202.817C68.4695 202.817 69.0204 202.971 69.4205 203.278C69.8237 203.586 70.1099 203.992 70.2792 204.497ZM73.6734 208.707L73.5996 209.206C73.5473 209.557 73.4672 209.932 73.3595 210.332C73.2549 210.732 73.1456 211.109 73.0318 211.463C72.9179 211.817 72.824 212.099 72.7501 212.308H71.9192C71.9592 212.111 72.0115 211.851 72.0761 211.528C72.1408 211.205 72.2054 210.843 72.27 210.443C72.3377 210.046 72.3931 209.64 72.4362 209.224L72.4916 208.707H73.6734ZM84.1863 212.659V208.911H84.094C84.014 209.04 83.9001 209.203 83.7524 209.4C83.6046 209.594 83.3938 209.768 83.1199 209.922C82.846 210.072 82.4813 210.148 82.0258 210.148C81.4349 210.148 80.9132 209.998 80.4608 209.7C80.0084 209.398 79.6545 208.974 79.399 208.426C79.1436 207.875 79.0159 207.224 79.0159 206.473C79.0159 205.728 79.1436 205.082 79.399 204.534C79.6545 203.986 80.0099 203.563 80.4654 203.265C80.9209 202.966 81.4472 202.817 82.0443 202.817C82.5059 202.817 82.8706 202.894 83.1384 203.048C83.4092 203.198 83.6154 203.371 83.757 203.565C83.9016 203.755 84.014 203.912 84.094 204.036H84.2232V202.909H85.2758V212.659H84.1863ZM82.1735 209.169C82.6106 209.169 82.9799 209.055 83.2815 208.827C83.5831 208.597 83.8124 208.278 83.9693 207.872C84.1263 207.462 84.2048 206.99 84.2048 206.455C84.2048 205.925 84.1278 205.462 83.974 205.065C83.8201 204.665 83.5923 204.354 83.2907 204.132C82.9891 203.908 82.6167 203.795 82.1735 203.795C81.7119 203.795 81.3272 203.914 81.0194 204.151C80.7147 204.385 80.4854 204.703 80.3316 205.107C80.1808 205.507 80.1054 205.956 80.1054 206.455C80.1054 206.959 80.1823 207.418 80.3362 207.83C80.4931 208.24 80.724 208.566 81.0286 208.809C81.3364 209.049 81.718 209.169 82.1735 209.169ZM91.7389 207.101V202.909H92.8284V210H91.7389V208.8H91.665C91.4988 209.16 91.2403 209.466 90.8894 209.718C90.5386 209.968 90.0954 210.092 89.5599 210.092C89.1167 210.092 88.7228 209.995 88.3781 209.801C88.0334 209.605 87.7625 209.309 87.5656 208.915C87.3686 208.518 87.2701 208.018 87.2701 207.415V202.909H88.3596V207.341C88.3596 207.858 88.5043 208.27 88.7936 208.578C89.0859 208.886 89.4583 209.04 89.9107 209.04C90.1816 209.04 90.457 208.971 90.7371 208.832C91.0202 208.694 91.2572 208.481 91.448 208.195C91.6419 207.909 91.7389 207.544 91.7389 207.101ZM97.7968 210.148C97.1136 210.148 96.5242 209.997 96.0287 209.695C95.5363 209.391 95.1562 208.966 94.8885 208.421C94.6238 207.873 94.4914 207.236 94.4914 206.51C94.4914 205.784 94.6238 205.143 94.8885 204.589C95.1562 204.032 95.5286 203.598 96.0057 203.288C96.4858 202.974 97.0459 202.817 97.6861 202.817C98.0554 202.817 98.4201 202.878 98.7802 203.001C99.1402 203.125 99.468 203.325 99.7635 203.602C100.059 203.875 100.294 204.239 100.47 204.691C100.645 205.143 100.733 205.701 100.733 206.362V206.824H95.267V205.882H99.625C99.625 205.482 99.545 205.125 99.3849 204.811C99.228 204.497 99.0033 204.249 98.7109 204.068C98.4216 203.886 98.08 203.795 97.6861 203.795C97.2521 203.795 96.8766 203.903 96.5596 204.119C96.2457 204.331 96.0041 204.608 95.8348 204.95C95.6656 205.291 95.5809 205.657 95.5809 206.048V206.676C95.5809 207.212 95.6733 207.666 95.8579 208.038C96.0457 208.407 96.3057 208.689 96.6381 208.883C96.9705 209.074 97.3567 209.169 97.7968 209.169C98.0831 209.169 98.3416 209.129 98.5724 209.049C98.8063 208.966 99.0079 208.843 99.1772 208.68C99.3464 208.513 99.4772 208.307 99.5696 208.061L100.622 208.357C100.511 208.714 100.325 209.027 100.064 209.298C99.8019 209.566 99.4788 209.775 99.0941 209.926C98.7094 210.074 98.277 210.148 97.7968 210.148ZM110.515 207.101V202.909H111.605V210H110.515V208.8H110.441C110.275 209.16 110.017 209.466 109.666 209.718C109.315 209.968 108.872 210.092 108.336 210.092C107.893 210.092 107.499 209.995 107.154 209.801C106.81 209.605 106.539 209.309 106.342 208.915C106.145 208.518 106.046 208.018 106.046 207.415V202.909H107.136V207.341C107.136 207.858 107.281 208.27 107.57 208.578C107.862 208.886 108.235 209.04 108.687 209.04C108.958 209.04 109.233 208.971 109.513 208.832C109.797 208.694 110.034 208.481 110.224 208.195C110.418 207.909 110.515 207.544 110.515 207.101ZM116.684 202.909V203.832H113.009V202.909H116.684ZM114.08 201.21H115.17V207.969C115.17 208.277 115.214 208.507 115.304 208.661C115.396 208.812 115.513 208.914 115.655 208.966C115.799 209.015 115.952 209.04 116.112 209.04C116.232 209.04 116.33 209.034 116.407 209.021C116.484 209.006 116.546 208.994 116.592 208.984L116.813 209.963C116.739 209.991 116.636 210.018 116.504 210.046C116.372 210.077 116.204 210.092 116.001 210.092C115.693 210.092 115.391 210.026 115.096 209.894C114.804 209.761 114.56 209.56 114.367 209.289C114.176 209.018 114.08 208.677 114.08 208.264V201.21ZM118.323 210V202.909H119.412V210H118.323ZM118.877 201.727C118.664 201.727 118.481 201.655 118.327 201.51C118.177 201.366 118.101 201.192 118.101 200.989C118.101 200.786 118.177 200.612 118.327 200.467C118.481 200.322 118.664 200.25 118.877 200.25C119.089 200.25 119.271 200.322 119.422 200.467C119.575 200.612 119.652 200.786 119.652 200.989C119.652 201.192 119.575 201.366 119.422 201.51C119.271 201.655 119.089 201.727 118.877 201.727ZM122.497 200.545V210H121.408V200.545H122.497ZM124.493 210V202.909H125.582V210H124.493ZM125.047 201.727C124.834 201.727 124.651 201.655 124.497 201.51C124.347 201.366 124.271 201.192 124.271 200.989C124.271 200.786 124.347 200.612 124.497 200.467C124.651 200.322 124.834 200.25 125.047 200.25C125.259 200.25 125.441 200.322 125.592 200.467C125.745 200.612 125.822 200.786 125.822 200.989C125.822 201.192 125.745 201.366 125.592 201.51C125.441 201.655 125.259 201.727 125.047 201.727ZM127.375 210V209.169L131.4 203.999V203.925H127.504V202.909H132.804V203.777L128.889 208.911V208.984H132.933V210H127.375ZM136.698 210.166C136.248 210.166 135.84 210.082 135.474 209.912C135.108 209.74 134.817 209.492 134.602 209.169C134.386 208.843 134.279 208.449 134.279 207.987C134.279 207.581 134.359 207.252 134.519 206.999C134.679 206.744 134.893 206.544 135.16 206.399C135.428 206.254 135.724 206.147 136.047 206.076C136.373 206.002 136.701 205.944 137.03 205.901C137.461 205.845 137.81 205.804 138.078 205.776C138.349 205.745 138.546 205.694 138.669 205.624C138.795 205.553 138.858 205.43 138.858 205.254V205.217C138.858 204.762 138.733 204.408 138.484 204.156C138.238 203.903 137.864 203.777 137.362 203.777C136.842 203.777 136.434 203.891 136.139 204.119C135.844 204.346 135.636 204.589 135.516 204.848L134.482 204.479C134.666 204.048 134.913 203.712 135.22 203.472C135.531 203.229 135.87 203.06 136.236 202.964C136.605 202.866 136.968 202.817 137.325 202.817C137.553 202.817 137.815 202.844 138.11 202.9C138.409 202.952 138.697 203.061 138.974 203.228C139.254 203.394 139.486 203.645 139.671 203.98C139.855 204.316 139.948 204.765 139.948 205.328V210H138.858V209.04H138.803C138.729 209.194 138.606 209.358 138.433 209.534C138.261 209.709 138.032 209.858 137.746 209.982C137.459 210.105 137.11 210.166 136.698 210.166ZM136.864 209.188C137.295 209.188 137.658 209.103 137.953 208.934C138.252 208.764 138.476 208.546 138.627 208.278C138.781 208.01 138.858 207.729 138.858 207.433V206.436C138.812 206.491 138.71 206.542 138.553 206.588C138.4 206.632 138.221 206.67 138.018 206.704C137.818 206.735 137.622 206.762 137.432 206.787C137.244 206.808 137.092 206.827 136.975 206.842C136.691 206.879 136.427 206.939 136.181 207.022C135.937 207.102 135.74 207.224 135.59 207.387C135.442 207.547 135.368 207.766 135.368 208.043C135.368 208.421 135.508 208.707 135.788 208.901C136.071 209.092 136.43 209.188 136.864 209.188ZM147.679 210.166C147.23 210.166 146.822 210.082 146.456 209.912C146.089 209.74 145.799 209.492 145.583 209.169C145.368 208.843 145.26 208.449 145.26 207.987C145.26 207.581 145.34 207.252 145.5 206.999C145.66 206.744 145.874 206.544 146.142 206.399C146.41 206.254 146.705 206.147 147.028 206.076C147.354 206.002 147.682 205.944 148.011 205.901C148.442 205.845 148.792 205.804 149.059 205.776C149.33 205.745 149.527 205.694 149.65 205.624C149.776 205.553 149.84 205.43 149.84 205.254V205.217C149.84 204.762 149.715 204.408 149.466 204.156C149.219 203.903 148.845 203.777 148.344 203.777C147.824 203.777 147.416 203.891 147.12 204.119C146.825 204.346 146.617 204.589 146.497 204.848L145.463 204.479C145.648 204.048 145.894 203.712 146.202 203.472C146.513 203.229 146.851 203.06 147.217 202.964C147.587 202.866 147.95 202.817 148.307 202.817C148.535 202.817 148.796 202.844 149.092 202.9C149.39 202.952 149.678 203.061 149.955 203.228C150.235 203.394 150.467 203.645 150.652 203.98C150.837 204.316 150.929 204.765 150.929 205.328V210H149.84V209.04H149.784C149.71 209.194 149.587 209.358 149.415 209.534C149.242 209.709 149.013 209.858 148.727 209.982C148.441 210.105 148.091 210.166 147.679 210.166ZM147.845 209.188C148.276 209.188 148.639 209.103 148.935 208.934C149.233 208.764 149.458 208.546 149.609 208.278C149.763 208.01 149.84 207.729 149.84 207.433V206.436C149.793 206.491 149.692 206.542 149.535 206.588C149.381 206.632 149.202 206.67 148.999 206.704C148.799 206.735 148.604 206.762 148.413 206.787C148.225 206.808 148.073 206.827 147.956 206.842C147.673 206.879 147.408 206.939 147.162 207.022C146.919 207.102 146.722 207.224 146.571 207.387C146.423 207.547 146.349 207.766 146.349 208.043C146.349 208.421 146.49 208.707 146.77 208.901C147.053 209.092 147.411 209.188 147.845 209.188ZM157.663 200.545V210H156.574V200.545H157.663ZM159.659 210V202.909H160.748V210H159.659ZM160.213 201.727C160 201.727 159.817 201.655 159.663 201.51C159.513 201.366 159.437 201.192 159.437 200.989C159.437 200.786 159.513 200.612 159.663 200.467C159.817 200.322 160 200.25 160.213 200.25C160.425 200.25 160.607 200.322 160.758 200.467C160.911 200.612 160.988 200.786 160.988 200.989C160.988 201.192 160.911 201.366 160.758 201.51C160.607 201.655 160.425 201.727 160.213 201.727ZM163.833 205.734V210H162.744V202.909H163.796V204.017H163.889C164.055 203.657 164.307 203.368 164.646 203.149C164.984 202.928 165.421 202.817 165.957 202.817C166.437 202.817 166.857 202.915 167.217 203.112C167.577 203.306 167.857 203.602 168.057 203.999C168.257 204.393 168.357 204.891 168.357 205.494V210H167.268V205.568C167.268 205.011 167.123 204.577 166.834 204.266C166.545 203.952 166.148 203.795 165.643 203.795C165.295 203.795 164.984 203.871 164.71 204.022C164.44 204.172 164.226 204.393 164.069 204.682C163.912 204.971 163.833 205.322 163.833 205.734ZM173.21 212.807C172.684 212.807 172.232 212.739 171.853 212.604C171.475 212.471 171.159 212.296 170.907 212.077C170.658 211.862 170.459 211.631 170.311 211.385L171.179 210.776C171.278 210.905 171.402 211.053 171.553 211.219C171.704 211.388 171.91 211.534 172.172 211.657C172.436 211.783 172.783 211.847 173.21 211.847C173.783 211.847 174.255 211.708 174.628 211.431C175 211.154 175.186 210.72 175.186 210.129V208.689H175.094C175.014 208.818 174.9 208.978 174.752 209.169C174.608 209.357 174.398 209.525 174.125 209.672C173.854 209.817 173.487 209.889 173.026 209.889C172.453 209.889 171.939 209.754 171.484 209.483C171.031 209.212 170.673 208.818 170.408 208.301C170.147 207.784 170.016 207.156 170.016 206.418C170.016 205.691 170.144 205.059 170.399 204.52C170.654 203.979 171.01 203.56 171.465 203.265C171.921 202.966 172.447 202.817 173.044 202.817C173.506 202.817 173.872 202.894 174.143 203.048C174.417 203.198 174.626 203.371 174.771 203.565C174.919 203.755 175.032 203.912 175.112 204.036H175.223V202.909H176.276V210.203C176.276 210.812 176.137 211.308 175.86 211.69C175.586 212.074 175.217 212.356 174.752 212.534C174.291 212.716 173.777 212.807 173.21 212.807ZM173.174 208.911C173.611 208.911 173.98 208.81 174.281 208.61C174.583 208.41 174.812 208.123 174.969 207.747C175.126 207.372 175.205 206.922 175.205 206.399C175.205 205.888 175.128 205.437 174.974 205.047C174.82 204.656 174.592 204.349 174.291 204.128C173.989 203.906 173.617 203.795 173.174 203.795C172.712 203.795 172.327 203.912 172.019 204.146C171.715 204.38 171.485 204.694 171.332 205.088C171.181 205.482 171.105 205.919 171.105 206.399C171.105 206.892 171.182 207.327 171.336 207.706C171.493 208.081 171.724 208.377 172.029 208.592C172.336 208.804 172.718 208.911 173.174 208.911ZM182.739 207.101V202.909H183.828V210H182.739V208.8H182.665C182.499 209.16 182.24 209.466 181.889 209.718C181.539 209.968 181.095 210.092 180.56 210.092C180.117 210.092 179.723 209.995 179.378 209.801C179.033 209.605 178.763 209.309 178.566 208.915C178.369 208.518 178.27 208.018 178.27 207.415V202.909H179.36V207.341C179.36 207.858 179.504 208.27 179.794 208.578C180.086 208.886 180.458 209.04 180.911 209.04C181.182 209.04 181.457 208.971 181.737 208.832C182.02 208.694 182.257 208.481 182.448 208.195C182.642 207.909 182.739 207.544 182.739 207.101ZM187.91 210.166C187.461 210.166 187.053 210.082 186.687 209.912C186.321 209.74 186.03 209.492 185.815 209.169C185.599 208.843 185.491 208.449 185.491 207.987C185.491 207.581 185.571 207.252 185.732 206.999C185.892 206.744 186.105 206.544 186.373 206.399C186.641 206.254 186.936 206.147 187.26 206.076C187.586 206.002 187.914 205.944 188.243 205.901C188.674 205.845 189.023 205.804 189.291 205.776C189.562 205.745 189.759 205.694 189.882 205.624C190.008 205.553 190.071 205.43 190.071 205.254V205.217C190.071 204.762 189.946 204.408 189.697 204.156C189.451 203.903 189.077 203.777 188.575 203.777C188.055 203.777 187.647 203.891 187.352 204.119C187.056 204.346 186.849 204.589 186.729 204.848L185.695 204.479C185.879 204.048 186.125 203.712 186.433 203.472C186.744 203.229 187.083 203.06 187.449 202.964C187.818 202.866 188.181 202.817 188.538 202.817C188.766 202.817 189.028 202.844 189.323 202.9C189.622 202.952 189.909 203.061 190.186 203.228C190.466 203.394 190.699 203.645 190.883 203.98C191.068 204.316 191.16 204.765 191.16 205.328V210H190.071V209.04H190.016C189.942 209.194 189.819 209.358 189.646 209.534C189.474 209.709 189.245 209.858 188.958 209.982C188.672 210.105 188.323 210.166 187.91 210.166ZM188.077 209.188C188.508 209.188 188.871 209.103 189.166 208.934C189.465 208.764 189.689 208.546 189.84 208.278C189.994 208.01 190.071 207.729 190.071 207.433V206.436C190.025 206.491 189.923 206.542 189.766 206.588C189.612 206.632 189.434 206.67 189.231 206.704C189.031 206.735 188.835 206.762 188.645 206.787C188.457 206.808 188.304 206.827 188.187 206.842C187.904 206.879 187.64 206.939 187.393 207.022C187.15 207.102 186.953 207.224 186.803 207.387C186.655 207.547 186.581 207.766 186.581 208.043C186.581 208.421 186.721 208.707 187.001 208.901C187.284 209.092 187.643 209.188 188.077 209.188ZM196.011 212.807C195.485 212.807 195.033 212.739 194.654 212.604C194.275 212.471 193.96 212.296 193.708 212.077C193.458 211.862 193.26 211.631 193.112 211.385L193.98 210.776C194.078 210.905 194.203 211.053 194.354 211.219C194.505 211.388 194.711 211.534 194.973 211.657C195.237 211.783 195.583 211.847 196.011 211.847C196.584 211.847 197.056 211.708 197.429 211.431C197.801 211.154 197.987 210.72 197.987 210.129V208.689H197.895C197.815 208.818 197.701 208.978 197.553 209.169C197.408 209.357 197.199 209.525 196.925 209.672C196.654 209.817 196.288 209.889 195.827 209.889C195.254 209.889 194.74 209.754 194.285 209.483C193.832 209.212 193.474 208.818 193.209 208.301C192.947 207.784 192.817 207.156 192.817 206.418C192.817 205.691 192.944 205.059 193.2 204.52C193.455 203.979 193.811 203.56 194.266 203.265C194.722 202.966 195.248 202.817 195.845 202.817C196.307 202.817 196.673 202.894 196.944 203.048C197.218 203.198 197.427 203.371 197.572 203.565C197.719 203.755 197.833 203.912 197.913 204.036H198.024V202.909H199.077V210.203C199.077 210.812 198.938 211.308 198.661 211.69C198.387 212.074 198.018 212.356 197.553 212.534C197.092 212.716 196.578 212.807 196.011 212.807ZM195.974 208.911C196.411 208.911 196.781 208.81 197.082 208.61C197.384 208.41 197.613 208.123 197.77 207.747C197.927 207.372 198.006 206.922 198.006 206.399C198.006 205.888 197.929 205.437 197.775 205.047C197.621 204.656 197.393 204.349 197.092 204.128C196.79 203.906 196.417 203.795 195.974 203.795C195.513 203.795 195.128 203.912 194.82 204.146C194.516 204.38 194.286 204.694 194.132 205.088C193.982 205.482 193.906 205.919 193.906 206.399C193.906 206.892 193.983 207.327 194.137 207.706C194.294 208.081 194.525 208.377 194.829 208.592C195.137 208.804 195.519 208.911 195.974 208.911ZM204.044 210.148C203.361 210.148 202.771 209.997 202.276 209.695C201.783 209.391 201.403 208.966 201.136 208.421C200.871 207.873 200.739 207.236 200.739 206.51C200.739 205.784 200.871 205.143 201.136 204.589C201.403 204.032 201.776 203.598 202.253 203.288C202.733 202.974 203.293 202.817 203.933 202.817C204.302 202.817 204.667 202.878 205.027 203.001C205.387 203.125 205.715 203.325 206.011 203.602C206.306 203.875 206.541 204.239 206.717 204.691C206.892 205.143 206.98 205.701 206.98 206.362V206.824H201.514V205.882H205.872C205.872 205.482 205.792 205.125 205.632 204.811C205.475 204.497 205.25 204.249 204.958 204.068C204.669 203.886 204.327 203.795 203.933 203.795C203.499 203.795 203.124 203.903 202.807 204.119C202.493 204.331 202.251 204.608 202.082 204.95C201.913 205.291 201.828 205.657 201.828 206.048V206.676C201.828 207.212 201.92 207.666 202.105 208.038C202.293 208.407 202.553 208.689 202.885 208.883C203.218 209.074 203.604 209.169 204.044 209.169C204.33 209.169 204.589 209.129 204.819 209.049C205.053 208.966 205.255 208.843 205.424 208.68C205.594 208.513 205.724 208.307 205.817 208.061L206.869 208.357C206.758 208.714 206.572 209.027 206.311 209.298C206.049 209.566 205.726 209.775 205.341 209.926C204.956 210.074 204.524 210.148 204.044 210.148ZM208.637 210V202.909H209.69V204.017H209.782C209.93 203.638 210.168 203.345 210.498 203.135C210.827 202.923 211.223 202.817 211.684 202.817C212.152 202.817 212.541 202.923 212.852 203.135C213.166 203.345 213.411 203.638 213.586 204.017H213.66C213.842 203.651 214.114 203.36 214.477 203.145C214.84 202.926 215.276 202.817 215.784 202.817C216.418 202.817 216.936 203.015 217.339 203.412C217.743 203.806 217.944 204.42 217.944 205.254V210H216.855V205.254C216.855 204.731 216.712 204.357 216.425 204.132C216.139 203.908 215.802 203.795 215.414 203.795C214.916 203.795 214.529 203.946 214.256 204.248C213.982 204.546 213.845 204.925 213.845 205.384V210H212.737V205.143C212.737 204.74 212.606 204.416 212.344 204.169C212.083 203.92 211.746 203.795 211.333 203.795C211.05 203.795 210.786 203.871 210.539 204.022C210.296 204.172 210.099 204.382 209.948 204.65C209.801 204.914 209.727 205.22 209.727 205.568V210H208.637ZM71.4443 218.909C71.3889 218.441 71.1642 218.078 70.7703 217.82C70.3763 217.561 69.8931 217.432 69.3207 217.432C68.9021 217.432 68.5359 217.5 68.222 217.635C67.9111 217.77 67.668 217.957 67.4926 218.194C67.3202 218.431 67.234 218.7 67.234 219.001C67.234 219.254 67.294 219.471 67.4141 219.652C67.5372 219.831 67.6941 219.98 67.885 220.1C68.0758 220.217 68.2758 220.314 68.4851 220.391C68.6944 220.465 68.8867 220.525 69.0622 220.571L70.0224 220.83C70.2686 220.894 70.5425 220.983 70.8441 221.097C71.1488 221.211 71.4396 221.367 71.7166 221.564C71.9967 221.757 72.2275 222.007 72.4091 222.311C72.5907 222.616 72.6815 222.99 72.6815 223.433C72.6815 223.944 72.5476 224.406 72.2798 224.818C72.0152 225.231 71.6274 225.558 71.1165 225.801C70.6087 226.045 69.9916 226.166 69.2653 226.166C68.5882 226.166 68.0019 226.057 67.5064 225.838C67.014 225.62 66.6262 225.315 66.3431 224.924C66.063 224.533 65.9045 224.08 65.8676 223.562H67.0494C67.0802 223.92 67.2002 224.215 67.4095 224.449C67.6218 224.68 67.8896 224.852 68.2127 224.966C68.539 225.077 68.8898 225.132 69.2653 225.132C69.7023 225.132 70.0947 225.061 70.4425 224.92C70.7903 224.775 71.0657 224.575 71.2688 224.32C71.472 224.061 71.5735 223.759 71.5735 223.415C71.5735 223.101 71.4858 222.845 71.3104 222.648C71.135 222.451 70.9041 222.291 70.6179 222.168C70.3317 222.045 70.0224 221.937 69.69 221.845L68.5266 221.513C67.788 221.3 67.2033 220.997 66.7724 220.603C66.3415 220.209 66.1261 219.694 66.1261 219.057C66.1261 218.527 66.2692 218.066 66.5554 217.672C66.8447 217.275 67.2325 216.967 67.7188 216.749C68.2081 216.527 68.7544 216.416 69.3576 216.416C69.967 216.416 70.5087 216.525 70.9826 216.744C71.4566 216.959 71.832 217.255 72.109 217.63C72.3891 218.006 72.5368 218.432 72.5522 218.909H71.4443ZM77.9985 223.045H79.2542L80.3067 224.43L80.5837 224.8L82.1533 226.886H80.8977L79.8636 225.501L79.605 225.151L77.9985 223.045ZM82.5411 221.273C82.5411 222.27 82.3611 223.132 82.001 223.858C81.6409 224.584 81.1469 225.144 80.5191 225.538C79.8913 225.932 79.1742 226.129 78.3678 226.129C77.5615 226.129 76.8444 225.932 76.2165 225.538C75.5887 225.144 75.0947 224.584 74.7347 223.858C74.3746 223.132 74.1945 222.27 74.1945 221.273C74.1945 220.276 74.3746 219.414 74.7347 218.688C75.0947 217.961 75.5887 217.401 76.2165 217.007C76.8444 216.613 77.5615 216.416 78.3678 216.416C79.1742 216.416 79.8913 216.613 80.5191 217.007C81.1469 217.401 81.6409 217.961 82.001 218.688C82.3611 219.414 82.5411 220.276 82.5411 221.273ZM81.4332 221.273C81.4332 220.454 81.2962 219.763 81.0223 219.2C80.7515 218.637 80.3837 218.21 79.919 217.921C79.4573 217.632 78.9403 217.487 78.3678 217.487C77.7954 217.487 77.2768 217.632 76.8121 217.921C76.3504 218.21 75.9826 218.637 75.7087 219.2C75.4379 219.763 75.3025 220.454 75.3025 221.273C75.3025 222.091 75.4379 222.782 75.7087 223.346C75.9826 223.909 76.3504 224.335 76.8121 224.624C77.2768 224.914 77.7954 225.058 78.3678 225.058C78.9403 225.058 79.4573 224.914 79.919 224.624C80.3837 224.335 80.7515 223.909 81.0223 223.346C81.2962 222.782 81.4332 222.091 81.4332 221.273ZM84.4662 226V216.545H85.6111V224.984H90.006V226H84.4662ZM98.1679 226.148C97.5031 226.148 96.9307 225.991 96.4506 225.677C95.9705 225.363 95.6011 224.931 95.3426 224.38C95.0841 223.829 94.9548 223.199 94.9548 222.491C94.9548 221.771 95.0872 221.136 95.3518 220.585C95.6196 220.031 95.992 219.598 96.469 219.288C96.9491 218.974 97.5093 218.817 98.1494 218.817C98.648 218.817 99.0973 218.909 99.4974 219.094C99.8975 219.278 100.225 219.537 100.481 219.869C100.736 220.202 100.895 220.589 100.956 221.033H99.8668C99.7837 220.71 99.599 220.423 99.3128 220.174C99.0296 219.922 98.648 219.795 98.1679 219.795C97.7432 219.795 97.3708 219.906 97.0507 220.128C96.7337 220.346 96.486 220.656 96.3075 221.056C96.132 221.453 96.0443 221.919 96.0443 222.455C96.0443 223.002 96.1305 223.479 96.3028 223.886C96.4783 224.292 96.7245 224.607 97.0415 224.832C97.3616 225.057 97.737 225.169 98.1679 225.169C98.451 225.169 98.708 225.12 98.9388 225.021C99.1697 224.923 99.3651 224.781 99.5251 224.597C99.6852 224.412 99.7991 224.19 99.8668 223.932H100.956C100.895 224.35 100.742 224.727 100.499 225.063C100.259 225.395 99.9406 225.66 99.5436 225.857C99.1497 226.051 98.6911 226.148 98.1679 226.148ZM105.43 226.148C104.789 226.148 104.228 225.995 103.745 225.691C103.264 225.386 102.889 224.96 102.618 224.412C102.35 223.864 102.217 223.224 102.217 222.491C102.217 221.753 102.35 221.108 102.618 220.557C102.889 220.006 103.264 219.578 103.745 219.274C104.228 218.969 104.789 218.817 105.43 218.817C106.07 218.817 106.63 218.969 107.11 219.274C107.593 219.578 107.969 220.006 108.236 220.557C108.507 221.108 108.643 221.753 108.643 222.491C108.643 223.224 108.507 223.864 108.236 224.412C107.969 224.96 107.593 225.386 107.11 225.691C106.63 225.995 106.07 226.148 105.43 226.148ZM105.43 225.169C105.916 225.169 106.316 225.044 106.63 224.795C106.944 224.546 107.176 224.218 107.327 223.812C107.478 223.406 107.553 222.965 107.553 222.491C107.553 222.018 107.478 221.576 107.327 221.167C107.176 220.757 106.944 220.426 106.63 220.174C106.316 219.922 105.916 219.795 105.43 219.795C104.943 219.795 104.543 219.922 104.229 220.174C103.915 220.426 103.683 220.757 103.532 221.167C103.381 221.576 103.306 222.018 103.306 222.491C103.306 222.965 103.381 223.406 103.532 223.812C103.683 224.218 103.915 224.546 104.229 224.795C104.543 225.044 104.943 225.169 105.43 225.169ZM110.306 226V218.909H111.358V220.017H111.451C111.598 219.638 111.837 219.345 112.166 219.135C112.496 218.923 112.891 218.817 113.353 218.817C113.82 218.817 114.21 218.923 114.521 219.135C114.835 219.345 115.079 219.638 115.255 220.017H115.328C115.51 219.651 115.782 219.36 116.146 219.145C116.509 218.926 116.944 218.817 117.452 218.817C118.086 218.817 118.605 219.015 119.008 219.412C119.411 219.806 119.613 220.42 119.613 221.254V226H118.523V221.254C118.523 220.731 118.38 220.357 118.094 220.132C117.808 219.908 117.471 219.795 117.083 219.795C116.584 219.795 116.198 219.946 115.924 220.248C115.65 220.546 115.513 220.925 115.513 221.384V226H114.405V221.143C114.405 220.74 114.274 220.416 114.013 220.169C113.751 219.92 113.414 219.795 113.002 219.795C112.719 219.795 112.454 219.871 112.208 220.022C111.965 220.172 111.768 220.382 111.617 220.65C111.469 220.914 111.395 221.22 111.395 221.568V226H110.306ZM124.485 226.148C123.845 226.148 123.283 225.995 122.8 225.691C122.32 225.386 121.945 224.96 121.674 224.412C121.406 223.864 121.272 223.224 121.272 222.491C121.272 221.753 121.406 221.108 121.674 220.557C121.945 220.006 122.32 219.578 122.8 219.274C123.283 218.969 123.845 218.817 124.485 218.817C125.125 218.817 125.686 218.969 126.166 219.274C126.649 219.578 127.024 220.006 127.292 220.557C127.563 221.108 127.698 221.753 127.698 222.491C127.698 223.224 127.563 223.864 127.292 224.412C127.024 224.96 126.649 225.386 126.166 225.691C125.686 225.995 125.125 226.148 124.485 226.148ZM124.485 225.169C124.972 225.169 125.372 225.044 125.686 224.795C125.999 224.546 126.232 224.218 126.383 223.812C126.533 223.406 126.609 222.965 126.609 222.491C126.609 222.018 126.533 221.576 126.383 221.167C126.232 220.757 125.999 220.426 125.686 220.174C125.372 219.922 124.972 219.795 124.485 219.795C123.999 219.795 123.599 219.922 123.285 220.174C122.971 220.426 122.739 220.757 122.588 221.167C122.437 221.576 122.362 222.018 122.362 222.491C122.362 222.965 122.437 223.406 122.588 223.812C122.739 224.218 122.971 224.546 123.285 224.795C123.599 225.044 123.999 225.169 124.485 225.169ZM133.018 226V218.909H134.107V226H133.018ZM133.572 217.727C133.359 217.727 133.176 217.655 133.022 217.51C132.871 217.366 132.796 217.192 132.796 216.989C132.796 216.786 132.871 216.612 133.022 216.467C133.176 216.322 133.359 216.25 133.572 216.25C133.784 216.25 133.966 216.322 134.116 216.467C134.27 216.612 134.347 216.786 134.347 216.989C134.347 217.192 134.27 217.366 134.116 217.51C133.966 217.655 133.784 217.727 133.572 217.727ZM137.192 221.734V226H136.103V218.909H137.155V220.017H137.248C137.414 219.657 137.666 219.368 138.005 219.149C138.343 218.928 138.78 218.817 139.316 218.817C139.796 218.817 140.216 218.915 140.576 219.112C140.936 219.306 141.216 219.602 141.416 219.999C141.616 220.393 141.716 220.891 141.716 221.494V226H140.627V221.568C140.627 221.011 140.482 220.577 140.193 220.266C139.904 219.952 139.507 219.795 139.002 219.795C138.654 219.795 138.343 219.871 138.069 220.022C137.798 220.172 137.585 220.393 137.428 220.682C137.271 220.971 137.192 221.322 137.192 221.734ZM146.791 218.909V219.832H143.116V218.909H146.791ZM144.187 217.21H145.277V223.969C145.277 224.277 145.321 224.507 145.411 224.661C145.503 224.812 145.62 224.914 145.761 224.966C145.906 225.015 146.058 225.04 146.218 225.04C146.339 225.04 146.437 225.034 146.514 225.021C146.591 225.006 146.652 224.994 146.699 224.984L146.92 225.963C146.846 225.991 146.743 226.018 146.611 226.046C146.479 226.077 146.311 226.092 146.108 226.092C145.8 226.092 145.498 226.026 145.203 225.894C144.91 225.761 144.667 225.56 144.473 225.289C144.283 225.018 144.187 224.677 144.187 224.264V217.21ZM151.327 226.148C150.643 226.148 150.054 225.997 149.559 225.695C149.066 225.391 148.686 224.966 148.418 224.421C148.154 223.873 148.021 223.236 148.021 222.51C148.021 221.784 148.154 221.143 148.418 220.589C148.686 220.032 149.058 219.598 149.535 219.288C150.016 218.974 150.576 218.817 151.216 218.817C151.585 218.817 151.95 218.878 152.31 219.001C152.67 219.125 152.998 219.325 153.293 219.602C153.589 219.875 153.824 220.239 154 220.691C154.175 221.143 154.263 221.701 154.263 222.362V222.824H148.797V221.882H153.155C153.155 221.482 153.075 221.125 152.915 220.811C152.758 220.497 152.533 220.249 152.241 220.068C151.951 219.886 151.61 219.795 151.216 219.795C150.782 219.795 150.406 219.903 150.089 220.119C149.775 220.331 149.534 220.608 149.365 220.95C149.195 221.291 149.111 221.657 149.111 222.048V222.676C149.111 223.212 149.203 223.666 149.388 224.038C149.575 224.407 149.836 224.689 150.168 224.883C150.5 225.074 150.887 225.169 151.327 225.169C151.613 225.169 151.871 225.129 152.102 225.049C152.336 224.966 152.538 224.843 152.707 224.68C152.876 224.513 153.007 224.307 153.099 224.061L154.152 224.357C154.041 224.714 153.855 225.027 153.593 225.298C153.332 225.566 153.009 225.775 152.624 225.926C152.239 226.074 151.807 226.148 151.327 226.148ZM155.92 226V218.909H156.973V219.98H157.046C157.176 219.629 157.41 219.345 157.748 219.126C158.087 218.908 158.468 218.798 158.893 218.798C158.973 218.798 159.073 218.8 159.193 218.803C159.313 218.806 159.404 218.811 159.465 218.817V219.925C159.429 219.915 159.344 219.902 159.212 219.883C159.082 219.862 158.945 219.851 158.801 219.851C158.456 219.851 158.148 219.923 157.877 220.068C157.61 220.209 157.397 220.406 157.24 220.659C157.086 220.908 157.01 221.193 157.01 221.513V226H155.92ZM164.359 218.909V219.832H160.537V218.909H164.359ZM161.681 226V217.93C161.681 217.524 161.777 217.186 161.968 216.915C162.158 216.644 162.406 216.441 162.711 216.305C163.016 216.17 163.337 216.102 163.676 216.102C163.943 216.102 164.162 216.124 164.331 216.167C164.501 216.21 164.627 216.25 164.71 216.287L164.396 217.229C164.34 217.21 164.264 217.187 164.165 217.159C164.07 217.132 163.943 217.118 163.787 217.118C163.426 217.118 163.166 217.209 163.006 217.39C162.849 217.572 162.771 217.838 162.771 218.189V226H161.681ZM167.769 226.166C167.32 226.166 166.912 226.082 166.546 225.912C166.18 225.74 165.889 225.492 165.673 225.169C165.458 224.843 165.35 224.449 165.35 223.987C165.35 223.581 165.43 223.252 165.59 222.999C165.75 222.744 165.964 222.544 166.232 222.399C166.5 222.254 166.795 222.147 167.118 222.076C167.445 222.002 167.772 221.944 168.102 221.901C168.533 221.845 168.882 221.804 169.15 221.776C169.421 221.745 169.617 221.694 169.741 221.624C169.867 221.553 169.93 221.43 169.93 221.254V221.217C169.93 220.762 169.805 220.408 169.556 220.156C169.31 219.903 168.936 219.777 168.434 219.777C167.914 219.777 167.506 219.891 167.211 220.119C166.915 220.346 166.708 220.589 166.588 220.848L165.553 220.479C165.738 220.048 165.984 219.712 166.292 219.472C166.603 219.229 166.941 219.06 167.308 218.964C167.677 218.866 168.04 218.817 168.397 218.817C168.625 218.817 168.887 218.844 169.182 218.9C169.481 218.952 169.768 219.061 170.045 219.228C170.325 219.394 170.558 219.645 170.742 219.98C170.927 220.316 171.019 220.765 171.019 221.328V226H169.93V225.04H169.874C169.801 225.194 169.678 225.358 169.505 225.534C169.333 225.709 169.104 225.858 168.817 225.982C168.531 226.105 168.182 226.166 167.769 226.166ZM167.936 225.188C168.366 225.188 168.73 225.103 169.025 224.934C169.324 224.764 169.548 224.546 169.699 224.278C169.853 224.01 169.93 223.729 169.93 223.433V222.436C169.884 222.491 169.782 222.542 169.625 222.588C169.471 222.632 169.293 222.67 169.09 222.704C168.89 222.735 168.694 222.762 168.503 222.787C168.316 222.808 168.163 222.827 168.046 222.842C167.763 222.879 167.499 222.939 167.252 223.022C167.009 223.102 166.812 223.224 166.661 223.387C166.514 223.547 166.44 223.766 166.44 224.043C166.44 224.421 166.58 224.707 166.86 224.901C167.143 225.092 167.502 225.188 167.936 225.188ZM175.889 226.148C175.224 226.148 174.651 225.991 174.171 225.677C173.691 225.363 173.322 224.931 173.063 224.38C172.805 223.829 172.676 223.199 172.676 222.491C172.676 221.771 172.808 221.136 173.073 220.585C173.34 220.031 173.713 219.598 174.19 219.288C174.67 218.974 175.23 218.817 175.87 218.817C176.369 218.817 176.818 218.909 177.218 219.094C177.618 219.278 177.946 219.537 178.201 219.869C178.457 220.202 178.615 220.589 178.677 221.033H177.587C177.504 220.71 177.32 220.423 177.033 220.174C176.75 219.922 176.369 219.795 175.889 219.795C175.464 219.795 175.091 219.906 174.771 220.128C174.454 220.346 174.207 220.656 174.028 221.056C173.853 221.453 173.765 221.919 173.765 222.455C173.765 223.002 173.851 223.479 174.024 223.886C174.199 224.292 174.445 224.607 174.762 224.832C175.082 225.057 175.458 225.169 175.889 225.169C176.172 225.169 176.429 225.12 176.66 225.021C176.89 224.923 177.086 224.781 177.246 224.597C177.406 224.412 177.52 224.19 177.587 223.932H178.677C178.615 224.35 178.463 224.727 178.22 225.063C177.98 225.395 177.661 225.66 177.264 225.857C176.87 226.051 176.412 226.148 175.889 226.148ZM183.243 226.148C182.559 226.148 181.97 225.997 181.475 225.695C180.982 225.391 180.602 224.966 180.334 224.421C180.07 223.873 179.937 223.236 179.937 222.51C179.937 221.784 180.07 221.143 180.334 220.589C180.602 220.032 180.974 219.598 181.451 219.288C181.932 218.974 182.492 218.817 183.132 218.817C183.501 218.817 183.866 218.878 184.226 219.001C184.586 219.125 184.914 219.325 185.209 219.602C185.505 219.875 185.74 220.239 185.916 220.691C186.091 221.143 186.179 221.701 186.179 222.362V222.824H180.713V221.882H185.071C185.071 221.482 184.991 221.125 184.831 220.811C184.674 220.497 184.449 220.249 184.157 220.068C183.867 219.886 183.526 219.795 183.132 219.795C182.698 219.795 182.322 219.903 182.005 220.119C181.692 220.331 181.45 220.608 181.281 220.95C181.111 221.291 181.027 221.657 181.027 222.048V222.676C181.027 223.212 181.119 223.666 181.304 224.038C181.491 224.407 181.752 224.689 182.084 224.883C182.416 225.074 182.803 225.169 183.243 225.169C183.529 225.169 183.787 225.129 184.018 225.049C184.252 224.966 184.454 224.843 184.623 224.68C184.792 224.513 184.923 224.307 185.015 224.061L186.068 224.357C185.957 224.714 185.771 225.027 185.509 225.298C185.248 225.566 184.925 225.775 184.54 225.926C184.155 226.074 183.723 226.148 183.243 226.148Z" fill="white"/>
<path d="M100.761 128.818H103.416L106.22 135.659H106.339L109.143 128.818H111.798V139H109.71V132.373H109.625L106.99 138.95H105.568L102.933 132.348H102.849V139H100.761V128.818ZM114.839 141.864C114.571 141.864 114.319 141.842 114.083 141.799C113.851 141.759 113.659 141.708 113.507 141.645L113.984 140.064C114.232 140.14 114.456 140.182 114.655 140.188C114.857 140.195 115.031 140.148 115.177 140.049C115.326 139.95 115.447 139.781 115.54 139.542L115.664 139.219L112.925 131.364H115.152L116.733 136.972H116.813L118.409 131.364H120.651L117.683 139.825C117.54 140.236 117.346 140.594 117.101 140.899C116.859 141.207 116.553 141.444 116.181 141.61C115.81 141.779 115.363 141.864 114.839 141.864ZM127.298 131.746C127.258 131.345 127.087 131.034 126.786 130.812C126.484 130.59 126.075 130.479 125.558 130.479C125.206 130.479 124.91 130.528 124.668 130.628C124.426 130.724 124.24 130.858 124.111 131.031C123.985 131.203 123.922 131.398 123.922 131.617C123.915 131.799 123.954 131.959 124.036 132.094C124.123 132.23 124.24 132.348 124.389 132.447C124.539 132.544 124.711 132.628 124.906 132.701C125.102 132.771 125.311 132.83 125.533 132.88L126.448 133.099C126.892 133.198 127.299 133.331 127.671 133.496C128.042 133.662 128.363 133.866 128.635 134.108C128.907 134.35 129.117 134.635 129.267 134.963C129.419 135.291 129.497 135.667 129.5 136.092C129.497 136.715 129.338 137.255 129.023 137.712C128.711 138.166 128.261 138.519 127.671 138.771C127.084 139.02 126.376 139.144 125.548 139.144C124.726 139.144 124.01 139.018 123.4 138.766C122.794 138.514 122.32 138.142 121.978 137.648C121.64 137.151 121.463 136.536 121.446 135.803H123.529C123.553 136.145 123.65 136.43 123.823 136.658C123.998 136.884 124.232 137.054 124.524 137.17C124.819 137.283 125.152 137.339 125.523 137.339C125.888 137.339 126.204 137.286 126.473 137.18C126.744 137.074 126.955 136.927 127.104 136.738C127.253 136.549 127.328 136.332 127.328 136.087C127.328 135.858 127.26 135.666 127.124 135.51C126.991 135.354 126.796 135.222 126.537 135.112C126.282 135.003 125.969 134.903 125.598 134.814L124.489 134.536C123.63 134.327 122.953 134 122.456 133.556C121.958 133.112 121.711 132.514 121.715 131.761C121.711 131.145 121.875 130.606 122.207 130.146C122.542 129.685 123.001 129.325 123.584 129.067C124.167 128.808 124.83 128.679 125.573 128.679C126.328 128.679 126.988 128.808 127.551 129.067C128.118 129.325 128.559 129.685 128.874 130.146C129.189 130.606 129.351 131.14 129.361 131.746H127.298ZM134.791 135.46H136.621L137.541 136.643L138.445 137.697L140.151 139.835H138.142L136.969 138.393L136.367 137.538L134.791 135.46ZM140.305 133.909C140.305 135.019 140.094 135.964 139.673 136.743C139.256 137.522 138.686 138.117 137.963 138.528C137.244 138.935 136.435 139.139 135.537 139.139C134.632 139.139 133.82 138.934 133.101 138.523C132.382 138.112 131.813 137.517 131.396 136.738C130.978 135.959 130.769 135.016 130.769 133.909C130.769 132.799 130.978 131.854 131.396 131.075C131.813 130.296 132.382 129.703 133.101 129.295C133.82 128.884 134.632 128.679 135.537 128.679C136.435 128.679 137.244 128.884 137.963 129.295C138.686 129.703 139.256 130.296 139.673 131.075C140.094 131.854 140.305 132.799 140.305 133.909ZM138.122 133.909C138.122 133.19 138.015 132.583 137.799 132.089C137.587 131.596 137.287 131.221 136.899 130.966C136.511 130.711 136.057 130.583 135.537 130.583C135.017 130.583 134.563 130.711 134.175 130.966C133.787 131.221 133.485 131.596 133.27 132.089C133.058 132.583 132.952 133.19 132.952 133.909C132.952 134.628 133.058 135.235 133.27 135.729C133.485 136.223 133.787 136.597 134.175 136.852C134.563 137.107 135.017 137.235 135.537 137.235C136.057 137.235 136.511 137.107 136.899 136.852C137.287 136.597 137.587 136.223 137.799 135.729C138.015 135.235 138.122 134.628 138.122 133.909ZM141.899 139V128.818H144.052V137.225H148.417V139H141.899Z" fill="white"/>
<g clip-path="url(#clip0_103_1726)">
<path fill-rule="evenodd" clip-rule="evenodd" d="M157.936 88.4209C153.675 88.3073 150.368 88.7254 147.597 89.8411C146.8 90.1478 145.519 90.1478 145.414 91.109C145.84 91.5124 145.892 92.1725 146.266 92.7315C146.905 93.7461 148.025 95.1129 149.037 95.8218L152.447 98.1544C154.525 99.3701 156.87 100.08 158.894 101.297C160.067 102.007 161.239 102.919 162.412 103.681C163.009 104.086 163.371 104.746 164.117 104.999V104.845C163.745 104.391 163.637 103.732 163.266 103.223L161.665 101.754C160.121 99.7768 158.201 98.0521 156.123 96.6342C154.418 95.5185 150.689 93.9983 149.996 92.1236L149.891 92.01C151.061 91.8964 152.447 91.5021 153.567 91.1977C155.38 90.7432 157.031 90.8432 158.894 90.3876L161.454 89.6775V89.223C160.495 88.3107 159.802 87.0938 158.79 86.2326C156.073 84.0023 153.087 81.822 149.996 79.9974C148.344 78.9839 146.212 78.3238 144.454 77.4637C143.812 77.1592 142.748 77.007 142.376 76.5003C141.414 75.3868 140.883 73.9155 140.19 72.5964L135.821 63.7764C134.861 61.7995 134.274 59.8225 133.103 57.9979C127.614 49.3801 121.644 44.1594 112.478 39.0387C110.508 37.9741 108.163 37.5163 105.67 36.9595L101.674 36.755C100.82 36.4006 99.9681 35.4371 99.2216 34.9804C96.1842 33.1557 88.3501 29.2018 86.1106 34.4123C84.6713 37.7071 88.2426 40.9509 89.4549 42.6245C90.3627 43.7902 91.5332 45.1081 92.1746 46.4261C92.5329 47.2873 92.6523 48.2007 93.0262 49.1131C93.8778 51.3434 94.6781 53.8281 95.7972 55.9073C96.3944 56.9719 97.0215 58.0888 97.768 59.0511C98.1944 59.6192 98.9409 59.8623 99.0997 60.7746C98.3532 61.7892 98.3019 63.3083 97.8755 64.5774C95.9561 70.3059 96.7026 77.4024 99.4198 81.6198C100.274 82.8866 102.286 85.6759 105.017 84.6102C107.415 83.6978 106.88 80.8086 107.573 78.2738C107.734 77.666 107.627 77.2604 107.946 76.8536V76.9672L110.131 81.1744C111.783 83.6581 114.662 86.244 117.059 87.9687C118.337 88.881 119.35 90.4535 120.948 91.0102V90.8568H120.843C120.523 90.4023 120.042 90.1978 119.616 89.8434C118.657 88.931 117.592 87.8153 116.845 86.8018C114.608 83.9637 112.637 80.82 110.878 77.5762C110.024 76.0049 109.277 74.2813 108.587 72.71C108.264 72.101 108.264 71.1876 107.733 70.8854C106.933 71.9988 105.762 72.9645 105.173 74.3325C104.16 76.5116 104.055 79.1986 103.683 81.9868C103.468 82.0379 103.563 81.9868 103.468 82.1004C101.764 81.6959 101.177 80.0212 100.538 78.6033C98.9397 75.0039 98.6721 69.2254 100.058 65.0682C100.43 64.0036 102.031 60.6576 101.392 59.6442C101.069 58.6807 100.006 58.124 99.4186 57.3628C98.7259 56.3993 97.9818 55.1836 97.5016 54.119C96.2236 51.2786 95.5846 48.1371 94.1979 45.2978C93.5565 43.9799 92.4385 42.6108 91.532 41.3951C90.5191 40.026 89.4024 39.0626 88.6021 37.4413C88.3357 36.8732 87.9631 35.9711 88.3895 35.3621C88.4946 34.9565 88.7096 34.794 89.1336 34.7031C89.8264 34.135 91.7995 34.8554 92.4923 35.1576C94.4631 35.9188 96.1149 36.6278 97.7668 37.6912C98.5133 38.198 99.3136 39.1614 100.273 39.4159H101.393C103.099 39.7704 105.016 39.5295 106.613 39.984C109.437 40.8475 111.995 42.1132 114.288 43.4834C121.268 47.6906 127.025 53.6725 130.914 60.8212C131.553 61.9869 131.819 63.0515 132.407 64.2683C133.527 66.7531 134.913 69.2868 136.03 71.7216C137.15 74.1041 138.215 76.5389 139.814 78.5158C140.614 79.5804 143.81 80.1371 145.248 80.695C146.315 81.1494 147.965 81.5585 148.927 82.1152C150.738 83.1798 152.549 84.3966 154.254 85.5623C155.105 86.169 157.771 87.437 157.93 88.4481L157.936 88.4209ZM103.591 44.3696C102.854 44.3634 102.12 44.4486 101.407 44.623V44.7366H101.512C101.939 45.5478 102.685 46.1057 103.218 46.8158L104.445 49.2494L104.55 49.1358C105.296 48.6291 105.67 47.8178 105.67 46.6022C105.35 46.2477 105.298 45.8921 105.031 45.5376C104.711 45.0308 104.018 44.7763 103.591 44.3719V44.3696Z" fill="#602EEF"/>
</g>
<defs>
<clipPath id="clip0_103_1726">
<rect width="78.3561" height="75" fill="white" transform="translate(85.7611 30)"/>
</clipPath>
</defs>
</svg>
