<svg width="250" height="288" viewBox="0 0 250 288" fill="none" xmlns="http://www.w3.org/2000/svg">
<rect x="0.207611" width="249.695" height="288" rx="25" fill="#181823"/>
<path d="M38.7937 182.545H39.9386V188.805C39.9386 189.452 39.7862 190.029 39.4815 190.537C39.1799 191.041 38.7537 191.44 38.2028 191.732C37.6519 192.022 37.0056 192.166 36.2638 192.166C35.5221 192.166 34.8758 192.022 34.3249 191.732C33.774 191.44 33.3462 191.041 33.0415 190.537C32.7399 190.029 32.5891 189.452 32.5891 188.805V182.545H33.734V188.713C33.734 189.175 33.8356 189.586 34.0387 189.946C34.2418 190.303 34.5311 190.584 34.9066 190.79C35.2851 190.994 35.7376 191.095 36.2638 191.095C36.7901 191.095 37.2425 190.994 37.6211 190.79C37.9996 190.584 38.2889 190.303 38.489 189.946C38.6921 189.586 38.7937 189.175 38.7937 188.713V182.545ZM42.0771 192V184.909H43.1297V186.017H43.222C43.3698 185.638 43.6083 185.345 43.9376 185.135C44.2669 184.923 44.6624 184.817 45.124 184.817C45.5918 184.817 45.9811 184.923 46.292 185.135C46.6059 185.345 46.8506 185.638 47.026 186.017H47.0999C47.2814 185.651 47.5538 185.36 47.917 185.145C48.2801 184.926 48.7156 184.817 49.2234 184.817C49.8574 184.817 50.376 185.015 50.7792 185.412C51.1824 185.806 51.384 186.42 51.384 187.254V192H50.2945V187.254C50.2945 186.731 50.1514 186.357 49.8651 186.132C49.5789 185.908 49.2419 185.795 48.8541 185.795C48.3555 185.795 47.9693 185.946 47.6954 186.248C47.4215 186.546 47.2845 186.925 47.2845 187.384V192H46.1766V187.143C46.1766 186.74 46.0458 186.416 45.7842 186.169C45.5226 185.92 45.1856 185.795 44.7732 185.795C44.49 185.795 44.2253 185.871 43.9791 186.022C43.736 186.172 43.539 186.382 43.3882 186.65C43.2405 186.914 43.1666 187.22 43.1666 187.568V192H42.0771ZM55.4626 192.166C55.0133 192.166 54.6055 192.082 54.2392 191.912C53.873 191.74 53.5822 191.492 53.3667 191.169C53.1513 190.843 53.0436 190.449 53.0436 189.987C53.0436 189.581 53.1236 189.252 53.2836 188.999C53.4437 188.744 53.6576 188.544 53.9253 188.399C54.1931 188.254 54.4885 188.147 54.8117 188.076C55.1379 188.002 55.4657 187.944 55.795 187.901C56.2259 187.845 56.5752 187.804 56.8429 187.776C57.1138 187.745 57.3107 187.694 57.4338 187.624C57.56 187.553 57.6231 187.43 57.6231 187.254V187.217C57.6231 186.762 57.4985 186.408 57.2492 186.156C57.003 185.903 56.629 185.777 56.1274 185.777C55.6073 185.777 55.1995 185.891 54.904 186.119C54.6086 186.346 54.4008 186.589 54.2808 186.848L53.2467 186.479C53.4314 186.048 53.6776 185.712 53.9853 185.472C54.2962 185.229 54.6347 185.06 55.001 184.964C55.3703 184.866 55.7334 184.817 56.0905 184.817C56.3182 184.817 56.5798 184.844 56.8753 184.9C57.1738 184.952 57.4615 185.061 57.7385 185.228C58.0186 185.394 58.251 185.645 58.4356 185.98C58.6203 186.316 58.7126 186.765 58.7126 187.328V192H57.6231V191.04H57.5677C57.4939 191.194 57.3708 191.358 57.1984 191.534C57.0261 191.709 56.7968 191.858 56.5106 191.982C56.2243 192.105 55.875 192.166 55.4626 192.166ZM55.6288 191.188C56.0597 191.188 56.4228 191.103 56.7183 190.934C57.0168 190.764 57.2415 190.546 57.3923 190.278C57.5462 190.01 57.6231 189.729 57.6231 189.433V188.436C57.577 188.491 57.4754 188.542 57.3184 188.588C57.1646 188.632 56.9861 188.67 56.7829 188.704C56.5829 188.735 56.3874 188.762 56.1966 188.787C56.0089 188.808 55.8566 188.827 55.7396 188.842C55.4565 188.879 55.1918 188.939 54.9456 189.022C54.7024 189.102 54.5055 189.224 54.3547 189.387C54.2069 189.547 54.1331 189.766 54.1331 190.043C54.1331 190.421 54.2731 190.707 54.5532 190.901C54.8363 191.092 55.1949 191.188 55.6288 191.188ZM67.4412 184.909V185.832H63.7665V184.909H67.4412ZM64.8375 183.21H65.927V189.969C65.927 190.277 65.9716 190.507 66.0609 190.661C66.1532 190.812 66.2702 190.914 66.4117 190.966C66.5564 191.015 66.7087 191.04 66.8688 191.04C66.9888 191.04 67.0873 191.034 67.1642 191.021C67.2412 191.006 67.3027 190.994 67.3489 190.984L67.5705 191.963C67.4966 191.991 67.3935 192.018 67.2612 192.046C67.1288 192.077 66.9611 192.092 66.758 192.092C66.4502 192.092 66.1486 192.026 65.8532 191.894C65.5608 191.761 65.3176 191.56 65.1237 191.289C64.9329 191.018 64.8375 190.677 64.8375 190.264V183.21ZM71.9769 192.148C71.2937 192.148 70.7043 191.997 70.2088 191.695C69.7164 191.391 69.3363 190.966 69.0685 190.421C68.8038 189.873 68.6715 189.236 68.6715 188.51C68.6715 187.784 68.8038 187.143 69.0685 186.589C69.3363 186.032 69.7087 185.598 70.1857 185.288C70.6658 184.974 71.226 184.817 71.8661 184.817C72.2354 184.817 72.6001 184.878 72.9602 185.001C73.3203 185.125 73.6481 185.325 73.9435 185.602C74.239 185.875 74.4744 186.239 74.6498 186.691C74.8253 187.143 74.913 187.701 74.913 188.362V188.824H69.4471V187.882H73.805C73.805 187.482 73.725 187.125 73.565 186.811C73.408 186.497 73.1833 186.249 72.891 186.068C72.6017 185.886 72.2601 185.795 71.8661 185.795C71.4322 185.795 71.0567 185.903 70.7397 186.119C70.4258 186.331 70.1842 186.608 70.0149 186.95C69.8456 187.291 69.761 187.657 69.761 188.048V188.676C69.761 189.212 69.8533 189.666 70.038 190.038C70.2257 190.407 70.4858 190.689 70.8182 190.883C71.1506 191.074 71.5368 191.169 71.9769 191.169C72.2631 191.169 72.5217 191.129 72.7525 191.049C72.9864 190.966 73.188 190.843 73.3572 190.68C73.5265 190.513 73.6573 190.307 73.7496 190.061L74.8022 190.357C74.6914 190.714 74.5052 191.027 74.2436 191.298C73.982 191.566 73.6588 191.775 73.2741 191.926C72.8894 192.074 72.457 192.148 71.9769 192.148ZM79.451 192.148C78.7862 192.148 78.2138 191.991 77.7337 191.677C77.2535 191.363 76.8842 190.931 76.6257 190.38C76.3672 189.829 76.2379 189.199 76.2379 188.491C76.2379 187.771 76.3703 187.136 76.6349 186.585C76.9027 186.031 77.2751 185.598 77.7521 185.288C78.2322 184.974 78.7924 184.817 79.4325 184.817C79.9311 184.817 80.3804 184.909 80.7805 185.094C81.1806 185.278 81.5084 185.537 81.7638 185.869C82.0193 186.202 82.1778 186.589 82.2393 187.033H81.1498C81.0668 186.71 80.8821 186.423 80.5959 186.174C80.3127 185.922 79.9311 185.795 79.451 185.795C79.0263 185.795 78.6539 185.906 78.3338 186.128C78.0168 186.346 77.769 186.656 77.5905 187.056C77.4151 187.453 77.3274 187.919 77.3274 188.455C77.3274 189.002 77.4136 189.479 77.5859 189.886C77.7614 190.292 78.0076 190.607 78.3246 190.832C78.6446 191.057 79.0201 191.169 79.451 191.169C79.7341 191.169 79.9911 191.12 80.2219 191.021C80.4528 190.923 80.6482 190.781 80.8082 190.597C80.9683 190.412 81.0821 190.19 81.1498 189.932H82.2393C82.1778 190.35 82.0254 190.727 81.7823 191.063C81.5422 191.395 81.2237 191.66 80.8267 191.857C80.4328 192.051 79.9742 192.148 79.451 192.148ZM84.9215 187.734V192H83.832V184.909H84.8846V186.017H84.9769C85.1431 185.657 85.3955 185.368 85.734 185.149C86.0726 184.928 86.5096 184.817 87.0451 184.817C87.5252 184.817 87.9453 184.915 88.3054 185.112C88.6655 185.306 88.9455 185.602 89.1456 185.999C89.3456 186.393 89.4457 186.891 89.4457 187.494V192H88.3562V187.568C88.3562 187.011 88.2115 186.577 87.9222 186.266C87.6329 185.952 87.2359 185.795 86.7312 185.795C86.3834 185.795 86.0726 185.871 85.7986 186.022C85.5278 186.172 85.3139 186.393 85.1569 186.682C85 186.971 84.9215 187.322 84.9215 187.734ZM94.3172 192.148C93.677 192.148 93.1154 191.995 92.6322 191.691C92.1521 191.386 91.7766 190.96 91.5058 190.412C91.238 189.864 91.1041 189.224 91.1041 188.491C91.1041 187.753 91.238 187.108 91.5058 186.557C91.7766 186.006 92.1521 185.578 92.6322 185.274C93.1154 184.969 93.677 184.817 94.3172 184.817C94.9573 184.817 95.5175 184.969 95.9976 185.274C96.4808 185.578 96.8563 186.006 97.124 186.557C97.3948 187.108 97.5303 187.753 97.5303 188.491C97.5303 189.224 97.3948 189.864 97.124 190.412C96.8563 190.96 96.4808 191.386 95.9976 191.691C95.5175 191.995 94.9573 192.148 94.3172 192.148ZM94.3172 191.169C94.8035 191.169 95.2036 191.044 95.5175 190.795C95.8314 190.546 96.0638 190.218 96.2146 189.812C96.3654 189.406 96.4408 188.965 96.4408 188.491C96.4408 188.018 96.3654 187.576 96.2146 187.167C96.0638 186.757 95.8314 186.426 95.5175 186.174C95.2036 185.922 94.8035 185.795 94.3172 185.795C93.8309 185.795 93.4308 185.922 93.1169 186.174C92.803 186.426 92.5706 186.757 92.4198 187.167C92.269 187.576 92.1936 188.018 92.1936 188.491C92.1936 188.965 92.269 189.406 92.4198 189.812C92.5706 190.218 92.803 190.546 93.1169 190.795C93.4308 191.044 93.8309 191.169 94.3172 191.169ZM100.283 182.545V192H99.1933V182.545H100.283ZM105.159 192.148C104.519 192.148 103.957 191.995 103.474 191.691C102.994 191.386 102.618 190.96 102.348 190.412C102.08 189.864 101.946 189.224 101.946 188.491C101.946 187.753 102.08 187.108 102.348 186.557C102.618 186.006 102.994 185.578 103.474 185.274C103.957 184.969 104.519 184.817 105.159 184.817C105.799 184.817 106.359 184.969 106.839 185.274C107.323 185.578 107.698 186.006 107.966 186.557C108.237 187.108 108.372 187.753 108.372 188.491C108.372 189.224 108.237 189.864 107.966 190.412C107.698 190.96 107.323 191.386 106.839 191.691C106.359 191.995 105.799 192.148 105.159 192.148ZM105.159 191.169C105.645 191.169 106.045 191.044 106.359 190.795C106.673 190.546 106.906 190.218 107.056 189.812C107.207 189.406 107.283 188.965 107.283 188.491C107.283 188.018 107.207 187.576 107.056 187.167C106.906 186.757 106.673 186.426 106.359 186.174C106.045 185.922 105.645 185.795 105.159 185.795C104.673 185.795 104.273 185.922 103.959 186.174C103.645 186.426 103.412 186.757 103.262 187.167C103.111 187.576 103.035 188.018 103.035 188.491C103.035 188.965 103.111 189.406 103.262 189.812C103.412 190.218 103.645 190.546 103.959 190.795C104.273 191.044 104.673 191.169 105.159 191.169ZM112.897 194.807C112.371 194.807 111.919 194.739 111.54 194.604C111.162 194.471 110.846 194.296 110.594 194.077C110.344 193.862 110.146 193.631 109.998 193.385L110.866 192.776C110.965 192.905 111.089 193.053 111.24 193.219C111.391 193.388 111.597 193.534 111.859 193.657C112.123 193.783 112.47 193.847 112.897 193.847C113.47 193.847 113.942 193.708 114.315 193.431C114.687 193.154 114.873 192.72 114.873 192.129V190.689H114.781C114.701 190.818 114.587 190.978 114.439 191.169C114.295 191.357 114.085 191.525 113.811 191.672C113.541 191.817 113.174 191.889 112.713 191.889C112.14 191.889 111.626 191.754 111.171 191.483C110.718 191.212 110.36 190.818 110.095 190.301C109.834 189.784 109.703 189.156 109.703 188.418C109.703 187.691 109.83 187.059 110.086 186.52C110.341 185.979 110.697 185.56 111.152 185.265C111.608 184.966 112.134 184.817 112.731 184.817C113.193 184.817 113.559 184.894 113.83 185.048C114.104 185.198 114.313 185.371 114.458 185.565C114.605 185.755 114.719 185.912 114.799 186.036H114.91V184.909H115.963V192.203C115.963 192.812 115.824 193.308 115.547 193.69C115.273 194.074 114.904 194.356 114.439 194.534C113.978 194.716 113.464 194.807 112.897 194.807ZM112.86 190.911C113.297 190.911 113.667 190.81 113.968 190.61C114.27 190.41 114.499 190.123 114.656 189.747C114.813 189.372 114.892 188.922 114.892 188.399C114.892 187.888 114.815 187.437 114.661 187.047C114.507 186.656 114.279 186.349 113.978 186.128C113.676 185.906 113.304 185.795 112.86 185.795C112.399 185.795 112.014 185.912 111.706 186.146C111.402 186.38 111.172 186.694 111.018 187.088C110.868 187.482 110.792 187.919 110.792 188.399C110.792 188.892 110.869 189.327 111.023 189.706C111.18 190.081 111.411 190.377 111.716 190.592C112.023 190.804 112.405 190.911 112.86 190.911ZM117.957 192V184.909H119.047V192H117.957ZM118.511 183.727C118.299 183.727 118.116 183.655 117.962 183.51C117.811 183.366 117.735 183.192 117.735 182.989C117.735 182.786 117.811 182.612 117.962 182.467C118.116 182.322 118.299 182.25 118.511 182.25C118.723 182.25 118.905 182.322 119.056 182.467C119.21 182.612 119.287 182.786 119.287 182.989C119.287 183.192 119.21 183.366 119.056 183.51C118.905 183.655 118.723 183.727 118.511 183.727ZM123.129 192.166C122.679 192.166 122.272 192.082 121.905 191.912C121.539 191.74 121.248 191.492 121.033 191.169C120.817 190.843 120.71 190.449 120.71 189.987C120.71 189.581 120.79 189.252 120.95 188.999C121.11 188.744 121.324 188.544 121.591 188.399C121.859 188.254 122.155 188.147 122.478 188.076C122.804 188.002 123.132 187.944 123.461 187.901C123.892 187.845 124.241 187.804 124.509 187.776C124.78 187.745 124.977 187.694 125.1 187.624C125.226 187.553 125.289 187.43 125.289 187.254V187.217C125.289 186.762 125.164 186.408 124.915 186.156C124.669 185.903 124.295 185.777 123.793 185.777C123.273 185.777 122.865 185.891 122.57 186.119C122.275 186.346 122.067 186.589 121.947 186.848L120.913 186.479C121.097 186.048 121.344 185.712 121.651 185.472C121.962 185.229 122.301 185.06 122.667 184.964C123.036 184.866 123.399 184.817 123.756 184.817C123.984 184.817 124.246 184.844 124.541 184.9C124.84 184.952 125.128 185.061 125.405 185.228C125.685 185.394 125.917 185.645 126.102 185.98C126.286 186.316 126.379 186.765 126.379 187.328V192H125.289V191.04H125.234C125.16 191.194 125.037 191.358 124.864 191.534C124.692 191.709 124.463 191.858 124.177 191.982C123.89 192.105 123.541 192.166 123.129 192.166ZM123.295 191.188C123.726 191.188 124.089 191.103 124.384 190.934C124.683 190.764 124.908 190.546 125.058 190.278C125.212 190.01 125.289 189.729 125.289 189.433V188.436C125.243 188.491 125.141 188.542 124.984 188.588C124.831 188.632 124.652 188.67 124.449 188.704C124.249 188.735 124.053 188.762 123.863 188.787C123.675 188.808 123.523 188.827 123.406 188.842C123.122 188.879 122.858 188.939 122.612 189.022C122.368 189.102 122.171 189.224 122.021 189.387C121.873 189.547 121.799 189.766 121.799 190.043C121.799 190.421 121.939 190.707 122.219 190.901C122.502 191.092 122.861 191.188 123.295 191.188ZM136.861 194.659V190.911H136.769C136.689 191.04 136.575 191.203 136.428 191.4C136.28 191.594 136.069 191.768 135.795 191.922C135.521 192.072 135.156 192.148 134.701 192.148C134.11 192.148 133.588 191.998 133.136 191.7C132.684 191.398 132.33 190.974 132.074 190.426C131.819 189.875 131.691 189.224 131.691 188.473C131.691 187.728 131.819 187.082 132.074 186.534C132.33 185.986 132.685 185.563 133.141 185.265C133.596 184.966 134.122 184.817 134.719 184.817C135.181 184.817 135.546 184.894 135.814 185.048C136.084 185.198 136.291 185.371 136.432 185.565C136.577 185.755 136.689 185.912 136.769 186.036H136.898V184.909H137.951V194.659H136.861ZM134.849 191.169C135.286 191.169 135.655 191.055 135.957 190.827C136.258 190.597 136.488 190.278 136.645 189.872C136.801 189.462 136.88 188.99 136.88 188.455C136.88 187.925 136.803 187.462 136.649 187.065C136.495 186.665 136.268 186.354 135.966 186.132C135.664 185.908 135.292 185.795 134.849 185.795C134.387 185.795 134.002 185.914 133.695 186.151C133.39 186.385 133.161 186.703 133.007 187.107C132.856 187.507 132.781 187.956 132.781 188.455C132.781 188.959 132.857 189.418 133.011 189.83C133.168 190.24 133.399 190.566 133.704 190.809C134.012 191.049 134.393 191.169 134.849 191.169ZM144.414 189.101V184.909H145.504V192H144.414V190.8H144.34C144.174 191.16 143.915 191.466 143.565 191.718C143.214 191.968 142.771 192.092 142.235 192.092C141.792 192.092 141.398 191.995 141.053 191.801C140.709 191.605 140.438 191.309 140.241 190.915C140.044 190.518 139.945 190.018 139.945 189.415V184.909H141.035V189.341C141.035 189.858 141.179 190.27 141.469 190.578C141.761 190.886 142.134 191.04 142.586 191.04C142.857 191.04 143.132 190.971 143.412 190.832C143.695 190.694 143.932 190.481 144.123 190.195C144.317 189.909 144.414 189.544 144.414 189.101ZM150.472 192.148C149.789 192.148 149.199 191.997 148.704 191.695C148.211 191.391 147.831 190.966 147.564 190.421C147.299 189.873 147.167 189.236 147.167 188.51C147.167 187.784 147.299 187.143 147.564 186.589C147.831 186.032 148.204 185.598 148.681 185.288C149.161 184.974 149.721 184.817 150.361 184.817C150.731 184.817 151.095 184.878 151.455 185.001C151.815 185.125 152.143 185.325 152.439 185.602C152.734 185.875 152.97 186.239 153.145 186.691C153.32 187.143 153.408 187.701 153.408 188.362V188.824H147.942V187.882H152.3C152.3 187.482 152.22 187.125 152.06 186.811C151.903 186.497 151.678 186.249 151.386 186.068C151.097 185.886 150.755 185.795 150.361 185.795C149.927 185.795 149.552 185.903 149.235 186.119C148.921 186.331 148.679 186.608 148.51 186.95C148.341 187.291 148.256 187.657 148.256 188.048V188.676C148.256 189.212 148.348 189.666 148.533 190.038C148.721 190.407 148.981 190.689 149.313 190.883C149.646 191.074 150.032 191.169 150.472 191.169C150.758 191.169 151.017 191.129 151.248 191.049C151.481 190.966 151.683 190.843 151.852 190.68C152.022 190.513 152.152 190.307 152.245 190.061L153.297 190.357C153.187 190.714 153 191.027 152.739 191.298C152.477 191.566 152.154 191.775 151.769 191.926C151.385 192.074 150.952 192.148 150.472 192.148ZM158.722 192V184.909H159.811V192H158.722ZM159.276 183.727C159.063 183.727 158.88 183.655 158.726 183.51C158.575 183.366 158.5 183.192 158.5 182.989C158.5 182.786 158.575 182.612 158.726 182.467C158.88 182.322 159.063 182.25 159.276 182.25C159.488 182.25 159.67 182.322 159.82 182.467C159.974 182.612 160.051 182.786 160.051 182.989C160.051 183.192 159.974 183.366 159.82 183.51C159.67 183.655 159.488 183.727 159.276 183.727ZM162.896 187.734V192H161.807V184.909H162.859V186.017H162.952C163.118 185.657 163.37 185.368 163.709 185.149C164.047 184.928 164.484 184.817 165.02 184.817C165.5 184.817 165.92 184.915 166.28 185.112C166.64 185.306 166.92 185.602 167.12 185.999C167.32 186.393 167.42 186.891 167.42 187.494V192H166.331V187.568C166.331 187.011 166.186 186.577 165.897 186.266C165.608 185.952 165.211 185.795 164.706 185.795C164.358 185.795 164.047 185.871 163.773 186.022C163.502 186.172 163.289 186.393 163.132 186.682C162.975 186.971 162.896 187.322 162.896 187.734ZM172.495 184.909V185.832H168.82V184.909H172.495ZM169.891 183.21H170.981V189.969C170.981 190.277 171.025 190.507 171.115 190.661C171.207 190.812 171.324 190.914 171.465 190.966C171.61 191.015 171.762 191.04 171.922 191.04C172.043 191.04 172.141 191.034 172.218 191.021C172.295 191.006 172.356 190.994 172.403 190.984L172.624 191.963C172.55 191.991 172.447 192.018 172.315 192.046C172.183 192.077 172.015 192.092 171.812 192.092C171.504 192.092 171.202 192.026 170.907 191.894C170.614 191.761 170.371 191.56 170.177 191.289C169.987 191.018 169.891 190.677 169.891 190.264V183.21ZM177.031 192.148C176.347 192.148 175.758 191.997 175.263 191.695C174.77 191.391 174.39 190.966 174.122 190.421C173.858 189.873 173.725 189.236 173.725 188.51C173.725 187.784 173.858 187.143 174.122 186.589C174.39 186.032 174.762 185.598 175.239 185.288C175.72 184.974 176.28 184.817 176.92 184.817C177.289 184.817 177.654 184.878 178.014 185.001C178.374 185.125 178.702 185.325 178.997 185.602C179.293 185.875 179.528 186.239 179.704 186.691C179.879 187.143 179.967 187.701 179.967 188.362V188.824H174.501V187.882H178.859C178.859 187.482 178.779 187.125 178.619 186.811C178.462 186.497 178.237 186.249 177.945 186.068C177.655 185.886 177.314 185.795 176.92 185.795C176.486 185.795 176.11 185.903 175.793 186.119C175.479 186.331 175.238 186.608 175.069 186.95C174.899 187.291 174.815 187.657 174.815 188.048V188.676C174.815 189.212 174.907 189.666 175.092 190.038C175.279 190.407 175.54 190.689 175.872 190.883C176.204 191.074 176.591 191.169 177.031 191.169C177.317 191.169 177.575 191.129 177.806 191.049C178.04 190.966 178.242 190.843 178.411 190.68C178.58 190.513 178.711 190.307 178.803 190.061L179.856 190.357C179.745 190.714 179.559 191.027 179.297 191.298C179.036 191.566 178.713 191.775 178.328 191.926C177.943 192.074 177.511 192.148 177.031 192.148ZM181.624 192V184.909H182.677V185.98H182.75C182.88 185.629 183.114 185.345 183.452 185.126C183.791 184.908 184.172 184.798 184.597 184.798C184.677 184.798 184.777 184.8 184.897 184.803C185.017 184.806 185.108 184.811 185.169 184.817V185.925C185.133 185.915 185.048 185.902 184.916 185.883C184.786 185.862 184.649 185.851 184.505 185.851C184.16 185.851 183.852 185.923 183.581 186.068C183.314 186.209 183.101 186.406 182.944 186.659C182.79 186.908 182.714 187.193 182.714 187.513V192H181.624ZM186.461 194.659V184.909H187.513V186.036H187.643C187.723 185.912 187.834 185.755 187.975 185.565C188.12 185.371 188.326 185.198 188.594 185.048C188.865 184.894 189.231 184.817 189.692 184.817C190.29 184.817 190.816 184.966 191.271 185.265C191.727 185.563 192.082 185.986 192.338 186.534C192.593 187.082 192.721 187.728 192.721 188.473C192.721 189.224 192.593 189.875 192.338 190.426C192.082 190.974 191.728 191.398 191.276 191.7C190.824 191.998 190.302 192.148 189.711 192.148C189.255 192.148 188.891 192.072 188.617 191.922C188.343 191.768 188.132 191.594 187.984 191.4C187.837 191.203 187.723 191.04 187.643 190.911H187.55V194.659H186.461ZM187.532 188.455C187.532 188.99 187.61 189.462 187.767 189.872C187.924 190.278 188.154 190.597 188.455 190.827C188.757 191.055 189.126 191.169 189.563 191.169C190.019 191.169 190.399 191.049 190.703 190.809C191.011 190.566 191.242 190.24 191.396 189.83C191.553 189.418 191.631 188.959 191.631 188.455C191.631 187.956 191.554 187.507 191.401 187.107C191.25 186.703 191.02 186.385 190.713 186.151C190.408 185.914 190.025 185.795 189.563 185.795C189.12 185.795 188.748 185.908 188.446 186.132C188.144 186.354 187.917 186.665 187.763 187.065C187.609 187.462 187.532 187.925 187.532 188.455ZM194.383 192V184.909H195.435V185.98H195.509C195.638 185.629 195.872 185.345 196.211 185.126C196.549 184.908 196.931 184.798 197.356 184.798C197.436 184.798 197.536 184.8 197.656 184.803C197.776 184.806 197.867 184.811 197.928 184.817V185.925C197.891 185.915 197.807 185.902 197.674 185.883C197.545 185.862 197.408 185.851 197.263 185.851C196.919 185.851 196.611 185.923 196.34 186.068C196.072 186.209 195.86 186.406 195.703 186.659C195.549 186.908 195.472 187.193 195.472 187.513V192H194.383ZM201.977 192.148C201.294 192.148 200.704 191.997 200.209 191.695C199.716 191.391 199.336 190.966 199.069 190.421C198.804 189.873 198.672 189.236 198.672 188.51C198.672 187.784 198.804 187.143 199.069 186.589C199.336 186.032 199.709 185.598 200.186 185.288C200.666 184.974 201.226 184.817 201.866 184.817C202.235 184.817 202.6 184.878 202.96 185.001C203.32 185.125 203.648 185.325 203.944 185.602C204.239 185.875 204.474 186.239 204.65 186.691C204.825 187.143 204.913 187.701 204.913 188.362V188.824H199.447V187.882H203.805C203.805 187.482 203.725 187.125 203.565 186.811C203.408 186.497 203.183 186.249 202.891 186.068C202.602 185.886 202.26 185.795 201.866 185.795C201.432 185.795 201.057 185.903 200.74 186.119C200.426 186.331 200.184 186.608 200.015 186.95C199.846 187.291 199.761 187.657 199.761 188.048V188.676C199.761 189.212 199.853 189.666 200.038 190.038C200.226 190.407 200.486 190.689 200.818 190.883C201.151 191.074 201.537 191.169 201.977 191.169C202.263 191.169 202.522 191.129 202.752 191.049C202.986 190.966 203.188 190.843 203.357 190.68C203.527 190.513 203.657 190.307 203.75 190.061L204.802 190.357C204.691 190.714 204.505 191.027 204.244 191.298C203.982 191.566 203.659 191.775 203.274 191.926C202.889 192.074 202.457 192.148 201.977 192.148ZM209.654 184.909V185.832H205.979V184.909H209.654ZM207.05 183.21H208.14V189.969C208.14 190.277 208.185 190.507 208.274 190.661C208.366 190.812 208.483 190.914 208.625 190.966C208.769 191.015 208.922 191.04 209.082 191.04C209.202 191.04 209.3 191.034 209.377 191.021C209.454 191.006 209.516 190.994 209.562 190.984L209.783 191.963C209.71 191.991 209.606 192.018 209.474 192.046C209.342 192.077 209.174 192.092 208.971 192.092C208.663 192.092 208.362 192.026 208.066 191.894C207.774 191.761 207.531 191.56 207.337 191.289C207.146 191.018 207.05 190.677 207.05 190.264V183.21ZM213.38 192.166C212.93 192.166 212.522 192.082 212.156 191.912C211.79 191.74 211.499 191.492 211.284 191.169C211.068 190.843 210.961 190.449 210.961 189.987C210.961 189.581 211.041 189.252 211.201 188.999C211.361 188.744 211.575 188.544 211.842 188.399C212.11 188.254 212.406 188.147 212.729 188.076C213.055 188.002 213.383 187.944 213.712 187.901C214.143 187.845 214.492 187.804 214.76 187.776C215.031 187.745 215.228 187.694 215.351 187.624C215.477 187.553 215.54 187.43 215.54 187.254V187.217C215.54 186.762 215.415 186.408 215.166 186.156C214.92 185.903 214.546 185.777 214.044 185.777C213.524 185.777 213.116 185.891 212.821 186.119C212.526 186.346 212.318 186.589 212.198 186.848L211.164 186.479C211.348 186.048 211.595 185.712 211.902 185.472C212.213 185.229 212.552 185.06 212.918 184.964C213.287 184.866 213.65 184.817 214.007 184.817C214.235 184.817 214.497 184.844 214.792 184.9C215.091 184.952 215.379 185.061 215.656 185.228C215.936 185.394 216.168 185.645 216.353 185.98C216.537 186.316 216.63 186.765 216.63 187.328V192H215.54V191.04H215.485C215.411 191.194 215.288 191.358 215.115 191.534C214.943 191.709 214.714 191.858 214.428 191.982C214.141 192.105 213.792 192.166 213.38 192.166ZM213.546 191.188C213.977 191.188 214.34 191.103 214.635 190.934C214.934 190.764 215.158 190.546 215.309 190.278C215.463 190.01 215.54 189.729 215.54 189.433V188.436C215.494 188.491 215.392 188.542 215.235 188.588C215.082 188.632 214.903 188.67 214.7 188.704C214.5 188.735 214.304 188.762 214.114 188.787C213.926 188.808 213.774 188.827 213.657 188.842C213.373 188.879 213.109 188.939 212.863 189.022C212.619 189.102 212.422 189.224 212.272 189.387C212.124 189.547 212.05 189.766 212.05 190.043C212.05 190.421 212.19 190.707 212.47 190.901C212.753 191.092 213.112 191.188 213.546 191.188ZM30.1591 198.545H31.304V205.304C31.304 205.907 31.1932 206.42 30.9716 206.841C30.75 207.263 30.4377 207.583 30.0345 207.801C29.6313 208.02 29.1558 208.129 28.608 208.129C28.0909 208.129 27.6308 208.035 27.2277 207.848C26.8245 207.657 26.5075 207.386 26.2767 207.035C26.0458 206.684 25.9304 206.267 25.9304 205.784H27.0569C27.0569 206.052 27.123 206.286 27.2554 206.486C27.3908 206.683 27.5754 206.837 27.8093 206.947C28.0432 207.058 28.3095 207.114 28.608 207.114C28.9373 207.114 29.2174 207.044 29.4482 206.906C29.679 206.767 29.8544 206.564 29.9745 206.297C30.0976 206.026 30.1591 205.695 30.1591 205.304V198.545ZM35.5373 208.166C35.088 208.166 34.6802 208.082 34.314 207.912C33.9477 207.74 33.6569 207.492 33.4414 207.169C33.226 206.843 33.1183 206.449 33.1183 205.987C33.1183 205.581 33.1983 205.252 33.3583 204.999C33.5184 204.744 33.7323 204.544 34 204.399C34.2678 204.254 34.5632 204.147 34.8864 204.076C35.2126 204.002 35.5404 203.944 35.8697 203.901C36.3006 203.845 36.6499 203.804 36.9176 203.776C37.1885 203.745 37.3855 203.694 37.5086 203.624C37.6347 203.553 37.6978 203.43 37.6978 203.254V203.217C37.6978 202.762 37.5732 202.408 37.3239 202.156C37.0777 201.903 36.7038 201.777 36.2021 201.777C35.682 201.777 35.2742 201.891 34.9787 202.119C34.6833 202.346 34.4755 202.589 34.3555 202.848L33.3214 202.479C33.5061 202.048 33.7523 201.712 34.06 201.472C34.3709 201.229 34.7094 201.06 35.0757 200.964C35.445 200.866 35.8082 200.817 36.1652 200.817C36.3929 200.817 36.6545 200.844 36.95 200.9C37.2485 200.952 37.5363 201.061 37.8132 201.228C38.0933 201.394 38.3257 201.645 38.5103 201.98C38.695 202.316 38.7873 202.765 38.7873 203.328V208H37.6978V207.04H37.6424C37.5686 207.194 37.4455 207.358 37.2731 207.534C37.1008 207.709 36.8715 207.858 36.5853 207.982C36.299 208.105 35.9497 208.166 35.5373 208.166ZM35.7035 207.188C36.1344 207.188 36.4975 207.103 36.793 206.934C37.0915 206.764 37.3162 206.546 37.467 206.278C37.6209 206.01 37.6978 205.729 37.6978 205.433V204.436C37.6517 204.491 37.5501 204.542 37.3931 204.588C37.2393 204.632 37.0608 204.67 36.8576 204.704C36.6576 204.735 36.4622 204.762 36.2713 204.787C36.0836 204.808 35.9313 204.827 35.8143 204.842C35.5312 204.879 35.2665 204.939 35.0203 205.022C34.7771 205.102 34.5802 205.224 34.4294 205.387C34.2816 205.547 34.2078 205.766 34.2078 206.043C34.2078 206.421 34.3478 206.707 34.6279 206.901C34.911 207.092 35.2696 207.188 35.7035 207.188ZM46.3203 200.909L43.6981 208H42.5901L39.968 200.909H41.1498L43.1072 206.56H43.1811L45.1384 200.909H46.3203ZM49.6291 208.166C49.1798 208.166 48.772 208.082 48.4058 207.912C48.0395 207.74 47.7487 207.492 47.5332 207.169C47.3178 206.843 47.2101 206.449 47.2101 205.987C47.2101 205.581 47.2901 205.252 47.4501 204.999C47.6102 204.744 47.8241 204.544 48.0918 204.399C48.3596 204.254 48.655 204.147 48.9782 204.076C49.3044 204.002 49.6322 203.944 49.9615 203.901C50.3924 203.845 50.7417 203.804 51.0094 203.776C51.2803 203.745 51.4772 203.694 51.6004 203.624C51.7265 203.553 51.7896 203.43 51.7896 203.254V203.217C51.7896 202.762 51.665 202.408 51.4157 202.156C51.1695 201.903 50.7955 201.777 50.2939 201.777C49.7738 201.777 49.366 201.891 49.0705 202.119C48.7751 202.346 48.5673 202.589 48.4473 202.848L47.4132 202.479C47.5979 202.048 47.8441 201.712 48.1518 201.472C48.4627 201.229 48.8012 201.06 49.1675 200.964C49.5368 200.866 49.9 200.817 50.257 200.817C50.4847 200.817 50.7463 200.844 51.0418 200.9C51.3403 200.952 51.6281 201.061 51.905 201.228C52.1851 201.394 52.4175 201.645 52.6021 201.98C52.7868 202.316 52.8791 202.765 52.8791 203.328V208H51.7896V207.04H51.7342C51.6604 207.194 51.5373 207.358 51.3649 207.534C51.1926 207.709 50.9633 207.858 50.6771 207.982C50.3908 208.105 50.0415 208.166 49.6291 208.166ZM49.7953 207.188C50.2262 207.188 50.5893 207.103 50.8848 206.934C51.1833 206.764 51.408 206.546 51.5588 206.278C51.7127 206.01 51.7896 205.729 51.7896 205.433V204.436C51.7435 204.491 51.6419 204.542 51.4849 204.588C51.3311 204.632 51.1526 204.67 50.9494 204.704C50.7494 204.735 50.554 204.762 50.3631 204.787C50.1754 204.808 50.0231 204.827 49.9061 204.842C49.623 204.879 49.3583 204.939 49.1121 205.022C48.8689 205.102 48.672 205.224 48.5212 205.387C48.3734 205.547 48.2996 205.766 48.2996 206.043C48.2996 206.421 48.4396 206.707 48.7197 206.901C49.0028 207.092 49.3614 207.188 49.7953 207.188ZM60.1858 200.909C60.1304 200.441 59.9058 200.078 59.5118 199.82C59.1179 199.561 58.6347 199.432 58.0623 199.432C57.6437 199.432 57.2775 199.5 56.9635 199.635C56.6527 199.77 56.4096 199.957 56.2341 200.194C56.0618 200.431 55.9756 200.7 55.9756 201.001C55.9756 201.254 56.0356 201.471 56.1557 201.652C56.2788 201.831 56.4357 201.98 56.6265 202.1C56.8174 202.217 57.0174 202.314 57.2267 202.391C57.436 202.465 57.6283 202.525 57.8037 202.571L58.764 202.83C59.0102 202.894 59.2841 202.983 59.5857 203.097C59.8904 203.211 60.1812 203.367 60.4582 203.564C60.7383 203.757 60.9691 204.007 61.1507 204.311C61.3323 204.616 61.4231 204.99 61.4231 205.433C61.4231 205.944 61.2892 206.406 61.0214 206.818C60.7568 207.231 60.369 207.558 59.8581 207.801C59.3503 208.045 58.7332 208.166 58.0069 208.166C57.3298 208.166 56.7435 208.057 56.248 207.838C55.7556 207.62 55.3678 207.315 55.0846 206.924C54.8046 206.533 54.6461 206.08 54.6091 205.562H55.791C55.8217 205.92 55.9418 206.215 56.151 206.449C56.3634 206.68 56.6312 206.852 56.9543 206.966C57.2805 207.077 57.6314 207.132 58.0069 207.132C58.4439 207.132 58.8363 207.061 59.1841 206.92C59.5318 206.775 59.8073 206.575 60.0104 206.32C60.2135 206.061 60.3151 205.759 60.3151 205.415C60.3151 205.101 60.2274 204.845 60.052 204.648C59.8765 204.451 59.6457 204.291 59.3595 204.168C59.0733 204.045 58.764 203.937 58.4316 203.845L57.2682 203.513C56.5296 203.3 55.9448 202.997 55.514 202.603C55.0831 202.209 54.8677 201.694 54.8677 201.057C54.8677 200.527 55.0108 200.066 55.297 199.672C55.5863 199.275 55.9741 198.967 56.4604 198.749C56.9497 198.527 57.496 198.416 58.0992 198.416C58.7086 198.416 59.2502 198.525 59.7242 198.744C60.1982 198.959 60.5736 199.255 60.8506 199.63C61.1307 200.006 61.2784 200.432 61.2938 200.909H60.1858ZM66.0384 208.148C65.3736 208.148 64.8012 207.991 64.3211 207.677C63.8409 207.363 63.4716 206.931 63.2131 206.38C62.9546 205.829 62.8253 205.199 62.8253 204.491C62.8253 203.771 62.9577 203.136 63.2223 202.585C63.4901 202.031 63.8625 201.598 64.3395 201.288C64.8196 200.974 65.3798 200.817 66.0199 200.817C66.5185 200.817 66.9678 200.909 67.3679 201.094C67.768 201.278 68.0958 201.537 68.3512 201.869C68.6067 202.202 68.7652 202.589 68.8267 203.033H67.7373C67.6542 202.71 67.4695 202.423 67.1833 202.174C66.9001 201.922 66.5185 201.795 66.0384 201.795C65.6137 201.795 65.2413 201.906 64.9212 202.128C64.6042 202.346 64.3564 202.656 64.1779 203.056C64.0025 203.453 63.9148 203.919 63.9148 204.455C63.9148 205.002 64.001 205.479 64.1733 205.886C64.3488 206.292 64.595 206.607 64.912 206.832C65.232 207.057 65.6075 207.169 66.0384 207.169C66.3215 207.169 66.5785 207.12 66.8093 207.021C67.0402 206.923 67.2356 206.781 67.3956 206.597C67.5557 206.412 67.6695 206.19 67.7373 205.932H68.8267C68.7652 206.35 68.6128 206.727 68.3697 207.063C68.1297 207.395 67.8111 207.66 67.4141 207.857C67.0202 208.051 66.5616 208.148 66.0384 208.148ZM70.4194 208V200.909H71.472V201.98H71.5458C71.6751 201.629 71.909 201.345 72.2475 201.126C72.5861 200.908 72.9677 200.798 73.3924 200.798C73.4725 200.798 73.5725 200.8 73.6925 200.803C73.8125 200.806 73.9033 200.811 73.9649 200.817V201.925C73.9279 201.915 73.8433 201.902 73.711 201.883C73.5817 201.862 73.4448 201.851 73.3001 201.851C72.9554 201.851 72.6476 201.923 72.3768 202.068C72.1091 202.209 71.8967 202.406 71.7397 202.659C71.5859 202.908 71.5089 203.193 71.5089 203.513V208H70.4194ZM75.2563 208V200.909H76.3458V208H75.2563ZM75.8103 199.727C75.598 199.727 75.4148 199.655 75.261 199.51C75.1101 199.366 75.0347 199.192 75.0347 198.989C75.0347 198.786 75.1101 198.612 75.261 198.467C75.4148 198.322 75.598 198.25 75.8103 198.25C76.0227 198.25 76.2043 198.322 76.3551 198.467C76.5089 198.612 76.5859 198.786 76.5859 198.989C76.5859 199.192 76.5089 199.366 76.3551 199.51C76.2043 199.655 76.0227 199.727 75.8103 199.727ZM78.3413 210.659V200.909H79.3939V202.036H79.5231C79.6031 201.912 79.7139 201.755 79.8555 201.565C80.0002 201.371 80.2064 201.198 80.4741 201.048C80.7449 200.894 81.1112 200.817 81.5728 200.817C82.1699 200.817 82.6962 200.966 83.1517 201.265C83.6072 201.563 83.9626 201.986 84.2181 202.534C84.4735 203.082 84.6012 203.728 84.6012 204.473C84.6012 205.224 84.4735 205.875 84.2181 206.426C83.9626 206.974 83.6087 207.398 83.1563 207.7C82.7039 207.998 82.1822 208.148 81.5913 208.148C81.1358 208.148 80.7711 208.072 80.4972 207.922C80.2233 207.768 80.0125 207.594 79.8647 207.4C79.717 207.203 79.6031 207.04 79.5231 206.911H79.4308V210.659H78.3413ZM79.4123 204.455C79.4123 204.99 79.4908 205.462 79.6478 205.872C79.8047 206.278 80.034 206.597 80.3356 206.827C80.6372 207.055 81.0065 207.169 81.4436 207.169C81.8991 207.169 82.2792 207.049 82.5838 206.809C82.8916 206.566 83.1224 206.24 83.2763 205.83C83.4333 205.418 83.5118 204.959 83.5118 204.455C83.5118 203.956 83.4348 203.507 83.2809 203.107C83.1301 202.703 82.9008 202.385 82.5931 202.151C82.2884 201.914 81.9052 201.795 81.4436 201.795C81.0004 201.795 80.628 201.908 80.3264 202.132C80.0248 202.354 79.797 202.665 79.6431 203.065C79.4893 203.462 79.4123 203.925 79.4123 204.455ZM89.347 200.909V201.832H85.6723V200.909H89.347ZM86.7433 199.21H87.8328V205.969C87.8328 206.277 87.8774 206.507 87.9667 206.661C88.059 206.812 88.1759 206.914 88.3175 206.966C88.4622 207.015 88.6145 207.04 88.7745 207.04C88.8946 207.04 88.9931 207.034 89.07 207.021C89.1469 207.006 89.2085 206.994 89.2547 206.984L89.4762 207.963C89.4024 207.991 89.2993 208.018 89.1669 208.046C89.0346 208.077 88.8669 208.092 88.6637 208.092C88.356 208.092 88.0544 208.026 87.7589 207.894C87.4665 207.761 87.2234 207.56 87.0295 207.289C86.8387 207.018 86.7433 206.677 86.7433 206.264V199.21ZM95.7316 203.734V208H94.6421V200.909H95.6946V202.017H95.787C95.9532 201.657 96.2055 201.368 96.5441 201.149C96.8826 200.928 97.3196 200.817 97.8551 200.817C98.3353 200.817 98.7554 200.915 99.1154 201.112C99.4755 201.306 99.7556 201.602 99.9556 201.999C100.156 202.393 100.256 202.891 100.256 203.494V208H99.1662V203.568C99.1662 203.011 99.0216 202.577 98.7323 202.266C98.443 201.952 98.046 201.795 97.5412 201.795C97.1935 201.795 96.8826 201.871 96.6087 202.022C96.3379 202.172 96.124 202.393 95.967 202.682C95.81 202.971 95.7316 203.322 95.7316 203.734ZM105.127 208.148C104.487 208.148 103.925 207.995 103.442 207.691C102.962 207.386 102.587 206.96 102.316 206.412C102.048 205.864 101.914 205.224 101.914 204.491C101.914 203.753 102.048 203.108 102.316 202.557C102.587 202.006 102.962 201.578 103.442 201.274C103.925 200.969 104.487 200.817 105.127 200.817C105.767 200.817 106.328 200.969 106.808 201.274C107.291 201.578 107.666 202.006 107.934 202.557C108.205 203.108 108.34 203.753 108.34 204.491C108.34 205.224 108.205 205.864 107.934 206.412C107.666 206.96 107.291 207.386 106.808 207.691C106.328 207.995 105.767 208.148 105.127 208.148ZM105.127 207.169C105.614 207.169 106.014 207.044 106.328 206.795C106.641 206.546 106.874 206.218 107.025 205.812C107.175 205.406 107.251 204.965 107.251 204.491C107.251 204.018 107.175 203.576 107.025 203.167C106.874 202.757 106.641 202.426 106.328 202.174C106.014 201.922 105.614 201.795 105.127 201.795C104.641 201.795 104.241 201.922 103.927 202.174C103.613 202.426 103.381 202.757 103.23 203.167C103.079 203.576 103.004 204.018 103.004 204.491C103.004 204.965 103.079 205.406 103.23 205.812C103.381 206.218 103.613 206.546 103.927 206.795C104.241 207.044 104.641 207.169 105.127 207.169ZM114.749 198.545V208H113.66V198.545H114.749ZM118.831 208.166C118.382 208.166 117.974 208.082 117.608 207.912C117.242 207.74 116.951 207.492 116.735 207.169C116.52 206.843 116.412 206.449 116.412 205.987C116.412 205.581 116.492 205.252 116.652 204.999C116.812 204.744 117.026 204.544 117.294 204.399C117.562 204.254 117.857 204.147 118.18 204.076C118.507 204.002 118.834 203.944 119.164 203.901C119.595 203.845 119.944 203.804 120.212 203.776C120.482 203.745 120.679 203.694 120.803 203.624C120.929 203.553 120.992 203.43 120.992 203.254V203.217C120.992 202.762 120.867 202.408 120.618 202.156C120.372 201.903 119.998 201.777 119.496 201.777C118.976 201.777 118.568 201.891 118.273 202.119C117.977 202.346 117.769 202.589 117.649 202.848L116.615 202.479C116.8 202.048 117.046 201.712 117.354 201.472C117.665 201.229 118.003 201.06 118.37 200.964C118.739 200.866 119.102 200.817 119.459 200.817C119.687 200.817 119.948 200.844 120.244 200.9C120.542 200.952 120.83 201.061 121.107 201.228C121.387 201.394 121.62 201.645 121.804 201.98C121.989 202.316 122.081 202.765 122.081 203.328V208H120.992V207.04H120.936C120.863 207.194 120.739 207.358 120.567 207.534C120.395 207.709 120.165 207.858 119.879 207.982C119.593 208.105 119.244 208.166 118.831 208.166ZM118.997 207.188C119.428 207.188 119.791 207.103 120.087 206.934C120.385 206.764 120.61 206.546 120.761 206.278C120.915 206.01 120.992 205.729 120.992 205.433V204.436C120.946 204.491 120.844 204.542 120.687 204.588C120.533 204.632 120.355 204.67 120.152 204.704C119.952 204.735 119.756 204.762 119.565 204.787C119.378 204.808 119.225 204.827 119.108 204.842C118.825 204.879 118.56 204.939 118.314 205.022C118.071 205.102 117.874 205.224 117.723 205.387C117.576 205.547 117.502 205.766 117.502 206.043C117.502 206.421 117.642 206.707 117.922 206.901C118.205 207.092 118.564 207.188 118.997 207.188ZM126.747 208.148C126.156 208.148 125.635 207.998 125.182 207.7C124.73 207.398 124.376 206.974 124.121 206.426C123.865 205.875 123.737 205.224 123.737 204.473C123.737 203.728 123.865 203.082 124.121 202.534C124.376 201.986 124.732 201.563 125.187 201.265C125.642 200.966 126.169 200.817 126.766 200.817C127.227 200.817 127.592 200.894 127.86 201.048C128.131 201.198 128.337 201.371 128.479 201.565C128.623 201.755 128.736 201.912 128.816 202.036H128.908V198.545H129.997V208H128.945V206.911H128.816C128.736 207.04 128.622 207.203 128.474 207.4C128.326 207.594 128.115 207.768 127.841 207.922C127.568 208.072 127.203 208.148 126.747 208.148ZM126.895 207.169C127.332 207.169 127.701 207.055 128.003 206.827C128.305 206.597 128.534 206.278 128.691 205.872C128.848 205.462 128.926 204.99 128.926 204.455C128.926 203.925 128.849 203.462 128.696 203.065C128.542 202.665 128.314 202.354 128.012 202.132C127.711 201.908 127.338 201.795 126.895 201.795C126.433 201.795 126.049 201.914 125.741 202.151C125.436 202.385 125.207 202.703 125.053 203.107C124.902 203.507 124.827 203.956 124.827 204.455C124.827 204.959 124.904 205.418 125.058 205.83C125.215 206.24 125.446 206.566 125.75 206.809C126.058 207.049 126.44 207.169 126.895 207.169ZM135.025 208.148C134.385 208.148 133.823 207.995 133.34 207.691C132.86 207.386 132.484 206.96 132.213 206.412C131.946 205.864 131.812 205.224 131.812 204.491C131.812 203.753 131.946 203.108 132.213 202.557C132.484 202.006 132.86 201.578 133.34 201.274C133.823 200.969 134.385 200.817 135.025 200.817C135.665 200.817 136.225 200.969 136.705 201.274C137.188 201.578 137.564 202.006 137.832 202.557C138.102 203.108 138.238 203.753 138.238 204.491C138.238 205.224 138.102 205.864 137.832 206.412C137.564 206.96 137.188 207.386 136.705 207.691C136.225 207.995 135.665 208.148 135.025 208.148ZM135.025 207.169C135.511 207.169 135.911 207.044 136.225 206.795C136.539 206.546 136.771 206.218 136.922 205.812C137.073 205.406 137.148 204.965 137.148 204.491C137.148 204.018 137.073 203.576 136.922 203.167C136.771 202.757 136.539 202.426 136.225 202.174C135.911 201.922 135.511 201.795 135.025 201.795C134.538 201.795 134.138 201.922 133.824 202.174C133.511 202.426 133.278 202.757 133.127 203.167C132.977 203.576 132.901 204.018 132.901 204.491C132.901 204.965 132.977 205.406 133.127 205.812C133.278 206.218 133.511 206.546 133.824 206.795C134.138 207.044 134.538 207.169 135.025 207.169ZM146.235 208.148C145.644 208.148 145.122 207.998 144.67 207.7C144.217 207.398 143.863 206.974 143.608 206.426C143.352 205.875 143.225 205.224 143.225 204.473C143.225 203.728 143.352 203.082 143.608 202.534C143.863 201.986 144.219 201.563 144.674 201.265C145.13 200.966 145.656 200.817 146.253 200.817C146.715 200.817 147.079 200.894 147.347 201.048C147.618 201.198 147.824 201.371 147.966 201.565C148.111 201.755 148.223 201.912 148.303 202.036H148.395V198.545H149.485V208H148.432V206.911H148.303C148.223 207.04 148.109 207.203 147.961 207.4C147.814 207.594 147.603 207.768 147.329 207.922C147.055 208.072 146.69 208.148 146.235 208.148ZM146.382 207.169C146.819 207.169 147.189 207.055 147.49 206.827C147.792 206.597 148.021 206.278 148.178 205.872C148.335 205.462 148.414 204.99 148.414 204.455C148.414 203.925 148.337 203.462 148.183 203.065C148.029 202.665 147.801 202.354 147.5 202.132C147.198 201.908 146.826 201.795 146.382 201.795C145.921 201.795 145.536 201.914 145.228 202.151C144.924 202.385 144.694 202.703 144.54 203.107C144.39 203.507 144.314 203.956 144.314 204.455C144.314 204.959 144.391 205.418 144.545 205.83C144.702 206.24 144.933 206.566 145.238 206.809C145.545 207.049 145.927 207.169 146.382 207.169ZM154.512 208.148C153.872 208.148 153.31 207.995 152.827 207.691C152.347 207.386 151.971 206.96 151.701 206.412C151.433 205.864 151.299 205.224 151.299 204.491C151.299 203.753 151.433 203.108 151.701 202.557C151.971 202.006 152.347 201.578 152.827 201.274C153.31 200.969 153.872 200.817 154.512 200.817C155.152 200.817 155.712 200.969 156.192 201.274C156.676 201.578 157.051 202.006 157.319 202.557C157.59 203.108 157.725 203.753 157.725 204.491C157.725 205.224 157.59 205.864 157.319 206.412C157.051 206.96 156.676 207.386 156.192 207.691C155.712 207.995 155.152 208.148 154.512 208.148ZM154.512 207.169C154.998 207.169 155.398 207.044 155.712 206.795C156.026 206.546 156.259 206.218 156.409 205.812C156.56 205.406 156.636 204.965 156.636 204.491C156.636 204.018 156.56 203.576 156.409 203.167C156.259 202.757 156.026 202.426 155.712 202.174C155.398 201.922 154.998 201.795 154.512 201.795C154.026 201.795 153.626 201.922 153.312 202.174C152.998 202.426 152.765 202.757 152.615 203.167C152.464 203.576 152.388 204.018 152.388 204.491C152.388 204.965 152.464 205.406 152.615 205.812C152.765 206.218 152.998 206.546 153.312 206.795C153.626 207.044 154.026 207.169 154.512 207.169ZM168.067 202.497L167.088 202.774C167.027 202.611 166.936 202.453 166.816 202.299C166.699 202.142 166.539 202.012 166.336 201.911C166.133 201.809 165.873 201.759 165.556 201.759C165.122 201.759 164.76 201.859 164.471 202.059C164.185 202.256 164.042 202.506 164.042 202.811C164.042 203.082 164.14 203.296 164.337 203.453C164.534 203.61 164.842 203.741 165.26 203.845L166.313 204.104C166.947 204.258 167.419 204.493 167.73 204.81C168.041 205.124 168.196 205.529 168.196 206.024C168.196 206.43 168.079 206.794 167.846 207.114C167.615 207.434 167.292 207.686 166.876 207.871C166.461 208.055 165.977 208.148 165.427 208.148C164.703 208.148 164.105 207.991 163.631 207.677C163.157 207.363 162.857 206.904 162.731 206.301L163.765 206.043C163.863 206.424 164.049 206.71 164.323 206.901C164.6 207.092 164.962 207.188 165.408 207.188C165.916 207.188 166.319 207.08 166.618 206.864C166.919 206.646 167.07 206.384 167.07 206.08C167.07 205.833 166.984 205.627 166.811 205.461C166.639 205.292 166.374 205.165 166.017 205.082L164.836 204.805C164.186 204.652 163.709 204.413 163.405 204.09C163.103 203.764 162.952 203.356 162.952 202.866C162.952 202.466 163.064 202.112 163.289 201.805C163.517 201.497 163.826 201.255 164.217 201.08C164.611 200.904 165.057 200.817 165.556 200.817C166.257 200.817 166.808 200.971 167.208 201.278C167.612 201.586 167.898 201.992 168.067 202.497ZM172.809 208.148C172.126 208.148 171.537 207.997 171.041 207.695C170.549 207.391 170.169 206.966 169.901 206.421C169.636 205.873 169.504 205.236 169.504 204.51C169.504 203.784 169.636 203.143 169.901 202.589C170.169 202.032 170.541 201.598 171.018 201.288C171.498 200.974 172.058 200.817 172.699 200.817C173.068 200.817 173.433 200.878 173.793 201.001C174.153 201.125 174.481 201.325 174.776 201.602C175.072 201.875 175.307 202.239 175.482 202.691C175.658 203.143 175.746 203.701 175.746 204.362V204.824H170.28V203.882H174.638C174.638 203.482 174.558 203.125 174.398 202.811C174.241 202.497 174.016 202.249 173.723 202.068C173.434 201.886 173.093 201.795 172.699 201.795C172.265 201.795 171.889 201.903 171.572 202.119C171.258 202.331 171.017 202.608 170.847 202.95C170.678 203.291 170.594 203.657 170.594 204.048V204.676C170.594 205.212 170.686 205.666 170.871 206.038C171.058 206.407 171.318 206.689 171.651 206.883C171.983 207.074 172.369 207.169 172.809 207.169C173.096 207.169 173.354 207.129 173.585 207.049C173.819 206.966 174.02 206.843 174.19 206.68C174.359 206.513 174.49 206.307 174.582 206.061L175.635 206.357C175.524 206.714 175.338 207.027 175.076 207.298C174.815 207.566 174.491 207.775 174.107 207.926C173.722 208.074 173.29 208.148 172.809 208.148ZM177.403 208V200.909H178.455V201.98H178.529C178.659 201.629 178.892 201.345 179.231 201.126C179.569 200.908 179.951 200.798 180.376 200.798C180.456 200.798 180.556 200.8 180.676 200.803C180.796 200.806 180.887 200.811 180.948 200.817V201.925C180.911 201.915 180.827 201.902 180.694 201.883C180.565 201.862 180.428 201.851 180.284 201.851C179.939 201.851 179.631 201.923 179.36 202.068C179.092 202.209 178.88 202.406 178.723 202.659C178.569 202.908 178.492 203.193 178.492 203.513V208H177.403ZM188.254 200.909L185.632 208H184.524L181.902 200.909H183.083L185.041 206.56H185.115L187.072 200.909H188.254ZM189.692 208V200.909H190.781V208H189.692ZM190.246 199.727C190.034 199.727 189.85 199.655 189.697 199.51C189.546 199.366 189.47 199.192 189.47 198.989C189.47 198.786 189.546 198.612 189.697 198.467C189.85 198.322 190.034 198.25 190.246 198.25C190.458 198.25 190.64 198.322 190.791 198.467C190.944 198.612 191.021 198.786 191.021 198.989C191.021 199.192 190.944 199.366 190.791 199.51C190.64 199.655 190.458 199.727 190.246 199.727ZM195.454 208.148C194.864 208.148 194.342 207.998 193.889 207.7C193.437 207.398 193.083 206.974 192.828 206.426C192.572 205.875 192.444 205.224 192.444 204.473C192.444 203.728 192.572 203.082 192.828 202.534C193.083 201.986 193.439 201.563 193.894 201.265C194.35 200.966 194.876 200.817 195.473 200.817C195.935 200.817 196.299 200.894 196.567 201.048C196.838 201.198 197.044 201.371 197.186 201.565C197.33 201.755 197.443 201.912 197.523 202.036H197.615V198.545H198.704V208H197.652V206.911H197.523C197.443 207.04 197.329 207.203 197.181 207.4C197.033 207.594 196.822 207.768 196.549 207.922C196.275 208.072 195.91 208.148 195.454 208.148ZM195.602 207.169C196.039 207.169 196.408 207.055 196.71 206.827C197.012 206.597 197.241 206.278 197.398 205.872C197.555 205.462 197.633 204.99 197.633 204.455C197.633 203.925 197.556 203.462 197.403 203.065C197.249 202.665 197.021 202.354 196.719 202.132C196.418 201.908 196.045 201.795 195.602 201.795C195.14 201.795 194.756 201.914 194.448 202.151C194.143 202.385 193.914 202.703 193.76 203.107C193.609 203.507 193.534 203.956 193.534 204.455C193.534 204.959 193.611 205.418 193.765 205.83C193.922 206.24 194.153 206.566 194.457 206.809C194.765 207.049 195.147 207.169 195.602 207.169ZM203.732 208.148C203.092 208.148 202.53 207.995 202.047 207.691C201.567 207.386 201.191 206.96 200.92 206.412C200.653 205.864 200.519 205.224 200.519 204.491C200.519 203.753 200.653 203.108 200.92 202.557C201.191 202.006 201.567 201.578 202.047 201.274C202.53 200.969 203.092 200.817 203.732 200.817C204.372 200.817 204.932 200.969 205.412 201.274C205.895 201.578 206.271 202.006 206.539 202.557C206.809 203.108 206.945 203.753 206.945 204.491C206.945 205.224 206.809 205.864 206.539 206.412C206.271 206.96 205.895 207.386 205.412 207.691C204.932 207.995 204.372 208.148 203.732 208.148ZM203.732 207.169C204.218 207.169 204.618 207.044 204.932 206.795C205.246 206.546 205.478 206.218 205.629 205.812C205.78 205.406 205.855 204.965 205.855 204.491C205.855 204.018 205.78 203.576 205.629 203.167C205.478 202.757 205.246 202.426 204.932 202.174C204.618 201.922 204.218 201.795 203.732 201.795C203.245 201.795 202.845 201.922 202.531 202.174C202.218 202.426 201.985 202.757 201.834 203.167C201.684 203.576 201.608 204.018 201.608 204.491C201.608 204.965 201.684 205.406 201.834 205.812C201.985 206.218 202.218 206.546 202.531 206.795C202.845 207.044 203.245 207.169 203.732 207.169ZM208.608 208V200.909H209.66V201.98H209.734C209.864 201.629 210.097 201.345 210.436 201.126C210.775 200.908 211.156 200.798 211.581 200.798C211.661 200.798 211.761 200.8 211.881 200.803C212.001 200.806 212.092 200.811 212.153 200.817V201.925C212.116 201.915 212.032 201.902 211.899 201.883C211.77 201.862 211.633 201.851 211.489 201.851C211.144 201.851 210.836 201.923 210.565 202.068C210.298 202.209 210.085 202.406 209.928 202.659C209.774 202.908 209.697 203.193 209.697 203.513V208H208.608ZM220.074 208.148C219.391 208.148 218.801 207.997 218.306 207.695C217.814 207.391 217.433 206.966 217.166 206.421C216.901 205.873 216.769 205.236 216.769 204.51C216.769 203.784 216.901 203.143 217.166 202.589C217.433 202.032 217.806 201.598 218.283 201.288C218.763 200.974 219.323 200.817 219.963 200.817C220.333 200.817 220.697 200.878 221.057 201.001C221.417 201.125 221.745 201.325 222.041 201.602C222.336 201.875 222.572 202.239 222.747 202.691C222.922 203.143 223.01 203.701 223.01 204.362V204.824H217.544V203.882H221.902C221.902 203.482 221.822 203.125 221.662 202.811C221.505 202.497 221.281 202.249 220.988 202.068C220.699 201.886 220.357 201.795 219.963 201.795C219.529 201.795 219.154 201.903 218.837 202.119C218.523 202.331 218.281 202.608 218.112 202.95C217.943 203.291 217.858 203.657 217.858 204.048V204.676C217.858 205.212 217.951 205.666 218.135 206.038C218.323 206.407 218.583 206.689 218.915 206.883C219.248 207.074 219.634 207.169 220.074 207.169C220.36 207.169 220.619 207.129 220.85 207.049C221.084 206.966 221.285 206.843 221.454 206.68C221.624 206.513 221.754 206.307 221.847 206.061L222.899 206.357C222.789 206.714 222.602 207.027 222.341 207.298C222.079 207.566 221.756 207.775 221.371 207.926C220.987 208.074 220.554 208.148 220.074 208.148ZM45.7374 219.734V224H44.6479V216.909H45.7005V218.017H45.7928C45.959 217.657 46.2114 217.368 46.5499 217.149C46.8885 216.928 47.3255 216.817 47.861 216.817C48.3411 216.817 48.7612 216.915 49.1213 217.112C49.4814 217.306 49.7615 217.602 49.9615 217.999C50.1616 218.393 50.2616 218.891 50.2616 219.494V224H49.1721V219.568C49.1721 219.011 49.0274 218.577 48.7381 218.266C48.4488 217.952 48.0518 217.795 47.5471 217.795C47.1993 217.795 46.8885 217.871 46.6146 218.022C46.3437 218.172 46.1298 218.393 45.9729 218.682C45.8159 218.971 45.7374 219.322 45.7374 219.734ZM55.1331 224.148C54.493 224.148 53.9313 223.995 53.4481 223.691C52.968 223.386 52.5925 222.96 52.3217 222.412C52.0539 221.864 51.92 221.224 51.92 220.491C51.92 219.753 52.0539 219.108 52.3217 218.557C52.5925 218.006 52.968 217.578 53.4481 217.274C53.9313 216.969 54.493 216.817 55.1331 216.817C55.7733 216.817 56.3334 216.969 56.8135 217.274C57.2967 217.578 57.6722 218.006 57.9399 218.557C58.2108 219.108 58.3462 219.753 58.3462 220.491C58.3462 221.224 58.2108 221.864 57.9399 222.412C57.6722 222.96 57.2967 223.386 56.8135 223.691C56.3334 223.995 55.7733 224.148 55.1331 224.148ZM55.1331 223.169C55.6194 223.169 56.0195 223.044 56.3334 222.795C56.6473 222.546 56.8797 222.218 57.0305 221.812C57.1813 221.406 57.2567 220.965 57.2567 220.491C57.2567 220.018 57.1813 219.576 57.0305 219.167C56.8797 218.757 56.6473 218.426 56.3334 218.174C56.0195 217.922 55.6194 217.795 55.1331 217.795C54.6468 217.795 54.2467 217.922 53.9328 218.174C53.6189 218.426 53.3865 218.757 53.2357 219.167C53.0849 219.576 53.0095 220.018 53.0095 220.491C53.0095 220.965 53.0849 221.406 53.2357 221.812C53.3865 222.218 53.6189 222.546 53.9328 222.795C54.2467 223.044 54.6468 223.169 55.1331 223.169ZM65.032 218.497L64.0533 218.774C63.9917 218.611 63.901 218.453 63.7809 218.299C63.664 218.142 63.5039 218.012 63.3008 217.911C63.0977 217.809 62.8376 217.759 62.5206 217.759C62.0867 217.759 61.7251 217.859 61.4358 218.059C61.1495 218.256 61.0064 218.506 61.0064 218.811C61.0064 219.082 61.1049 219.296 61.3019 219.453C61.4989 219.61 61.8066 219.741 62.2252 219.845L63.2777 220.104C63.9117 220.258 64.3841 220.493 64.695 220.81C65.0058 221.124 65.1613 221.529 65.1613 222.024C65.1613 222.43 65.0443 222.794 64.8104 223.114C64.5796 223.434 64.2564 223.686 63.8409 223.871C63.4255 224.055 62.9423 224.148 62.3914 224.148C61.6681 224.148 61.0695 223.991 60.5956 223.677C60.1216 223.363 59.8215 222.904 59.6953 222.301L60.7294 222.043C60.8279 222.424 61.0141 222.71 61.288 222.901C61.565 223.092 61.9266 223.188 62.3729 223.188C62.8807 223.188 63.2839 223.08 63.5824 222.864C63.884 222.646 64.0348 222.384 64.0348 222.08C64.0348 221.833 63.9487 221.627 63.7763 221.461C63.604 221.292 63.3393 221.165 62.9823 221.082L61.8005 220.805C61.1511 220.652 60.674 220.413 60.3694 220.09C60.0677 219.764 59.9169 219.356 59.9169 218.866C59.9169 218.466 60.0293 218.112 60.2539 217.805C60.4817 217.497 60.791 217.255 61.1819 217.08C61.5758 216.904 62.0221 216.817 62.5206 216.817C63.2223 216.817 63.7732 216.971 64.1733 217.278C64.5765 217.586 64.8627 217.992 65.032 218.497ZM70.4575 226.659V216.909H71.5101V218.036H71.6393C71.7193 217.912 71.8301 217.755 71.9717 217.565C72.1164 217.371 72.3226 217.198 72.5903 217.048C72.8612 216.894 73.2274 216.817 73.689 216.817C74.2861 216.817 74.8124 216.966 75.2679 217.265C75.7234 217.563 76.0788 217.986 76.3343 218.534C76.5897 219.082 76.7175 219.728 76.7175 220.473C76.7175 221.224 76.5897 221.875 76.3343 222.426C76.0788 222.974 75.7249 223.398 75.2725 223.7C74.8201 223.998 74.2984 224.148 73.7075 224.148C73.252 224.148 72.8873 224.072 72.6134 223.922C72.3395 223.768 72.1287 223.594 71.9809 223.4C71.8332 223.203 71.7193 223.04 71.6393 222.911H71.547V226.659H70.4575ZM71.5285 220.455C71.5285 220.99 71.607 221.462 71.764 221.872C71.9209 222.278 72.1502 222.597 72.4518 222.827C72.7534 223.055 73.1228 223.169 73.5598 223.169C74.0153 223.169 74.3954 223.049 74.7001 222.809C75.0078 222.566 75.2386 222.24 75.3925 221.83C75.5495 221.418 75.628 220.959 75.628 220.455C75.628 219.956 75.551 219.507 75.3971 219.107C75.2463 218.703 75.0171 218.385 74.7093 218.151C74.4046 217.914 74.0214 217.795 73.5598 217.795C73.1166 217.795 72.7442 217.908 72.4426 218.132C72.141 218.354 71.9132 218.665 71.7594 219.065C71.6055 219.462 71.5285 219.925 71.5285 220.455ZM81.3524 224.148C80.6692 224.148 80.0798 223.997 79.5843 223.695C79.0919 223.391 78.7118 222.966 78.444 222.421C78.1793 221.873 78.047 221.236 78.047 220.51C78.047 219.784 78.1793 219.143 78.444 218.589C78.7118 218.032 79.0842 217.598 79.5612 217.288C80.0413 216.974 80.6014 216.817 81.2416 216.817C81.6109 216.817 81.9756 216.878 82.3357 217.001C82.6958 217.125 83.0236 217.325 83.319 217.602C83.6145 217.875 83.8499 218.239 84.0253 218.691C84.2008 219.143 84.2885 219.701 84.2885 220.362V220.824H78.8226V219.882H83.1805C83.1805 219.482 83.1005 219.125 82.9405 218.811C82.7835 218.497 82.5588 218.249 82.2665 218.068C81.9772 217.886 81.6355 217.795 81.2416 217.795C80.8077 217.795 80.4322 217.903 80.1152 218.119C79.8013 218.331 79.5597 218.608 79.3904 218.95C79.2211 219.291 79.1365 219.657 79.1365 220.048V220.676C79.1365 221.212 79.2288 221.666 79.4135 222.038C79.6012 222.407 79.8613 222.689 80.1937 222.883C80.526 223.074 80.9123 223.169 81.3524 223.169C81.6386 223.169 81.8971 223.129 82.128 223.049C82.3619 222.966 82.5635 222.843 82.7327 222.68C82.902 222.513 83.0328 222.307 83.1251 222.061L84.1777 222.357C84.0669 222.714 83.8807 223.027 83.6191 223.298C83.3575 223.566 83.0343 223.775 82.6496 223.926C82.2649 224.074 81.8325 224.148 81.3524 224.148ZM85.9458 224V216.909H86.9983V217.98H87.0722C87.2015 217.629 87.4354 217.345 87.7739 217.126C88.1125 216.908 88.4941 216.798 88.9188 216.798C88.9988 216.798 89.0988 216.8 89.2189 216.803C89.3389 216.806 89.4297 216.811 89.4912 216.817V217.925C89.4543 217.915 89.3697 217.902 89.2373 217.883C89.1081 217.862 88.9711 217.851 88.8265 217.851C88.4818 217.851 88.174 217.923 87.9032 218.068C87.6354 218.209 87.4231 218.406 87.2661 218.659C87.1122 218.908 87.0353 219.193 87.0353 219.513V224H85.9458ZM90.7827 224V216.909H91.8353V218.017H91.9276C92.0753 217.638 92.3138 217.345 92.6431 217.135C92.9725 216.923 93.3679 216.817 93.8296 216.817C94.2974 216.817 94.6867 216.923 94.9975 217.135C95.3115 217.345 95.5561 217.638 95.7316 218.017H95.8054C95.987 217.651 96.2594 217.36 96.6225 217.145C96.9857 216.926 97.4212 216.817 97.929 216.817C98.563 216.817 99.0816 217.015 99.4848 217.412C99.8879 217.806 100.09 218.42 100.09 219.254V224H99V219.254C99 218.731 98.8569 218.357 98.5707 218.132C98.2845 217.908 97.9475 217.795 97.5597 217.795C97.0611 217.795 96.6749 217.946 96.401 218.248C96.127 218.546 95.9901 218.925 95.9901 219.384V224H94.8821V219.143C94.8821 218.74 94.7513 218.416 94.4897 218.169C94.2281 217.92 93.8911 217.795 93.4787 217.795C93.1956 217.795 92.9309 217.871 92.6847 218.022C92.4416 218.172 92.2446 218.382 92.0938 218.65C91.9461 218.914 91.8722 219.22 91.8722 219.568V224H90.7827ZM102.082 224V216.909H103.171V224H102.082ZM102.636 215.727C102.423 215.727 102.24 215.655 102.086 215.51C101.935 215.366 101.86 215.192 101.86 214.989C101.86 214.786 101.935 214.612 102.086 214.467C102.24 214.322 102.423 214.25 102.636 214.25C102.848 214.25 103.029 214.322 103.18 214.467C103.334 214.612 103.411 214.786 103.411 214.989C103.411 215.192 103.334 215.366 103.18 215.51C103.029 215.655 102.848 215.727 102.636 215.727ZM108.25 216.909V217.832H104.576V216.909H108.25ZM105.647 215.21H106.736V221.969C106.736 222.277 106.781 222.507 106.87 222.661C106.962 222.812 107.079 222.914 107.221 222.966C107.365 223.015 107.518 223.04 107.678 223.04C107.798 223.04 107.896 223.034 107.973 223.021C108.05 223.006 108.112 222.994 108.158 222.984L108.38 223.963C108.306 223.991 108.203 224.018 108.07 224.046C107.938 224.077 107.77 224.092 107.567 224.092C107.259 224.092 106.958 224.026 106.662 223.894C106.37 223.761 106.127 223.56 105.933 223.289C105.742 223.018 105.647 222.677 105.647 222.264V215.21ZM112.786 224.148C112.103 224.148 111.513 223.997 111.018 223.695C110.525 223.391 110.145 222.966 109.878 222.421C109.613 221.873 109.481 221.236 109.481 220.51C109.481 219.784 109.613 219.143 109.878 218.589C110.145 218.032 110.518 217.598 110.995 217.288C111.475 216.974 112.035 216.817 112.675 216.817C113.045 216.817 113.409 216.878 113.769 217.001C114.129 217.125 114.457 217.325 114.753 217.602C115.048 217.875 115.284 218.239 115.459 218.691C115.634 219.143 115.722 219.701 115.722 220.362V220.824H110.256V219.882H114.614C114.614 219.482 114.534 219.125 114.374 218.811C114.217 218.497 113.992 218.249 113.7 218.068C113.411 217.886 113.069 217.795 112.675 217.795C112.241 217.795 111.866 217.903 111.549 218.119C111.235 218.331 110.993 218.608 110.824 218.95C110.655 219.291 110.57 219.657 110.57 220.048V220.676C110.57 221.212 110.662 221.666 110.847 222.038C111.035 222.407 111.295 222.689 111.627 222.883C111.96 223.074 112.346 223.169 112.786 223.169C113.072 223.169 113.331 223.129 113.562 223.049C113.795 222.966 113.997 222.843 114.166 222.68C114.336 222.513 114.466 222.307 114.559 222.061L115.611 222.357C115.5 222.714 115.314 223.027 115.053 223.298C114.791 223.566 114.468 223.775 114.083 223.926C113.699 224.074 113.266 224.148 112.786 224.148ZM123.916 224.148C123.252 224.148 122.679 223.991 122.199 223.677C121.719 223.363 121.35 222.931 121.091 222.38C120.833 221.829 120.703 221.199 120.703 220.491C120.703 219.771 120.836 219.136 121.1 218.585C121.368 218.031 121.74 217.598 122.217 217.288C122.698 216.974 123.258 216.817 123.898 216.817C124.396 216.817 124.846 216.909 125.246 217.094C125.646 217.278 125.974 217.537 126.229 217.869C126.485 218.202 126.643 218.589 126.705 219.033H125.615C125.532 218.71 125.347 218.423 125.061 218.174C124.778 217.922 124.396 217.795 123.916 217.795C123.492 217.795 123.119 217.906 122.799 218.128C122.482 218.346 122.234 218.656 122.056 219.056C121.88 219.453 121.793 219.919 121.793 220.455C121.793 221.002 121.879 221.479 122.051 221.886C122.227 222.292 122.473 222.607 122.79 222.832C123.11 223.057 123.485 223.169 123.916 223.169C124.199 223.169 124.456 223.12 124.687 223.021C124.918 222.923 125.114 222.781 125.274 222.597C125.434 222.412 125.547 222.19 125.615 221.932H126.705C126.643 222.35 126.491 222.727 126.248 223.063C126.008 223.395 125.689 223.66 125.292 223.857C124.898 224.051 124.44 224.148 123.916 224.148ZM131.178 224.148C130.538 224.148 129.976 223.995 129.493 223.691C129.013 223.386 128.637 222.96 128.367 222.412C128.099 221.864 127.965 221.224 127.965 220.491C127.965 219.753 128.099 219.108 128.367 218.557C128.637 218.006 129.013 217.578 129.493 217.274C129.976 216.969 130.538 216.817 131.178 216.817C131.818 216.817 132.378 216.969 132.858 217.274C133.342 217.578 133.717 218.006 133.985 218.557C134.256 219.108 134.391 219.753 134.391 220.491C134.391 221.224 134.256 221.864 133.985 222.412C133.717 222.96 133.342 223.386 132.858 223.691C132.378 223.995 131.818 224.148 131.178 224.148ZM131.178 223.169C131.664 223.169 132.064 223.044 132.378 222.795C132.692 222.546 132.925 222.218 133.075 221.812C133.226 221.406 133.302 220.965 133.302 220.491C133.302 220.018 133.226 219.576 133.075 219.167C132.925 218.757 132.692 218.426 132.378 218.174C132.064 217.922 131.664 217.795 131.178 217.795C130.692 217.795 130.292 217.922 129.978 218.174C129.664 218.426 129.431 218.757 129.281 219.167C129.13 219.576 129.054 220.018 129.054 220.491C129.054 220.965 129.13 221.406 129.281 221.812C129.431 222.218 129.664 222.546 129.978 222.795C130.292 223.044 130.692 223.169 131.178 223.169ZM137.144 219.734V224H136.054V216.909H137.107V218.017H137.199C137.365 217.657 137.618 217.368 137.956 217.149C138.295 216.928 138.732 216.817 139.267 216.817C139.747 216.817 140.167 216.915 140.528 217.112C140.888 217.306 141.168 217.602 141.368 217.999C141.568 218.393 141.668 218.891 141.668 219.494V224H140.578V219.568C140.578 219.011 140.434 218.577 140.144 218.266C139.855 217.952 139.458 217.795 138.953 217.795C138.606 217.795 138.295 217.871 138.021 218.022C137.75 218.172 137.536 218.393 137.379 218.682C137.222 218.971 137.144 219.322 137.144 219.734ZM148.681 218.497L147.703 218.774C147.641 218.611 147.55 218.453 147.43 218.299C147.313 218.142 147.153 218.012 146.95 217.911C146.747 217.809 146.487 217.759 146.17 217.759C145.736 217.759 145.374 217.859 145.085 218.059C144.799 218.256 144.656 218.506 144.656 218.811C144.656 219.082 144.754 219.296 144.951 219.453C145.148 219.61 145.456 219.741 145.875 219.845L146.927 220.104C147.561 220.258 148.034 220.493 148.344 220.81C148.655 221.124 148.811 221.529 148.811 222.024C148.811 222.43 148.694 222.794 148.46 223.114C148.229 223.434 147.906 223.686 147.49 223.871C147.075 224.055 146.592 224.148 146.041 224.148C145.318 224.148 144.719 223.991 144.245 223.677C143.771 223.363 143.471 222.904 143.345 222.301L144.379 222.043C144.477 222.424 144.664 222.71 144.937 222.901C145.214 223.092 145.576 223.188 146.022 223.188C146.53 223.188 146.933 223.08 147.232 222.864C147.533 222.646 147.684 222.384 147.684 222.08C147.684 221.833 147.598 221.627 147.426 221.461C147.253 221.292 146.989 221.165 146.632 221.082L145.45 220.805C144.8 220.652 144.323 220.413 144.019 220.09C143.717 219.764 143.566 219.356 143.566 218.866C143.566 218.466 143.679 218.112 143.903 217.805C144.131 217.497 144.44 217.255 144.831 217.08C145.225 216.904 145.671 216.817 146.17 216.817C146.872 216.817 147.423 216.971 147.823 217.278C148.226 217.586 148.512 217.992 148.681 218.497ZM153.534 216.909V217.832H149.86V216.909H153.534ZM150.931 215.21H152.02V221.969C152.02 222.277 152.065 222.507 152.154 222.661C152.246 222.812 152.363 222.914 152.505 222.966C152.65 223.015 152.802 223.04 152.962 223.04C153.082 223.04 153.181 223.034 153.257 223.021C153.334 223.006 153.396 222.994 153.442 222.984L153.664 223.963C153.59 223.991 153.487 224.018 153.354 224.046C153.222 224.077 153.054 224.092 152.851 224.092C152.543 224.092 152.242 224.026 151.946 223.894C151.654 223.761 151.411 223.56 151.217 223.289C151.026 223.018 150.931 222.677 150.931 222.264V215.21ZM155.173 224V216.909H156.226V217.98H156.3C156.429 217.629 156.663 217.345 157.001 217.126C157.34 216.908 157.722 216.798 158.146 216.798C158.226 216.798 158.326 216.8 158.446 216.803C158.566 216.806 158.657 216.811 158.719 216.817V217.925C158.682 217.915 158.597 217.902 158.465 217.883C158.336 217.862 158.199 217.851 158.054 217.851C157.709 217.851 157.402 217.923 157.131 218.068C156.863 218.209 156.651 218.406 156.494 218.659C156.34 218.908 156.263 219.193 156.263 219.513V224H155.173ZM164.479 221.101V216.909H165.568V224H164.479V222.8H164.405C164.239 223.16 163.98 223.466 163.63 223.718C163.279 223.968 162.836 224.092 162.3 224.092C161.857 224.092 161.463 223.995 161.118 223.801C160.774 223.605 160.503 223.309 160.306 222.915C160.109 222.518 160.01 222.018 160.01 221.415V216.909H161.1V221.341C161.1 221.858 161.244 222.27 161.534 222.578C161.826 222.886 162.198 223.04 162.651 223.04C162.922 223.04 163.197 222.971 163.477 222.832C163.76 222.694 163.997 222.481 164.188 222.195C164.382 221.909 164.479 221.544 164.479 221.101ZM167.564 224V216.909H168.653V224H167.564ZM168.118 215.727C167.906 215.727 167.722 215.655 167.569 215.51C167.418 215.366 167.342 215.192 167.342 214.989C167.342 214.786 167.418 214.612 167.569 214.467C167.722 214.322 167.906 214.25 168.118 214.25C168.33 214.25 168.512 214.322 168.663 214.467C168.817 214.612 168.894 214.786 168.894 214.989C168.894 215.192 168.817 215.366 168.663 215.51C168.512 215.655 168.33 215.727 168.118 215.727ZM170.649 224V216.909H171.701V217.98H171.775C171.905 217.629 172.139 217.345 172.477 217.126C172.816 216.908 173.197 216.798 173.622 216.798C173.702 216.798 173.802 216.8 173.922 216.803C174.042 216.806 174.133 216.811 174.194 216.817V217.925C174.157 217.915 174.073 217.902 173.94 217.883C173.811 217.862 173.674 217.851 173.53 217.851C173.185 217.851 172.877 217.923 172.606 218.068C172.339 218.209 172.126 218.406 171.969 218.659C171.815 218.908 171.738 219.193 171.738 219.513V224H170.649ZM179.678 224H178.477L181.949 214.545H183.131L186.602 224H185.402L182.577 216.041H182.503L179.678 224ZM180.121 220.307H184.959V221.322H180.121V220.307ZM188.075 224V214.545H191.27C192.011 214.545 192.618 214.679 193.088 214.947C193.562 215.212 193.913 215.57 194.141 216.023C194.369 216.475 194.483 216.98 194.483 217.537C194.483 218.094 194.369 218.6 194.141 219.056C193.916 219.511 193.569 219.874 193.098 220.145C192.627 220.413 192.024 220.547 191.288 220.547H188.998V219.531H191.251C191.759 219.531 192.167 219.444 192.474 219.268C192.782 219.093 193.005 218.856 193.144 218.557C193.285 218.256 193.356 217.915 193.356 217.537C193.356 217.158 193.285 216.82 193.144 216.521C193.005 216.223 192.781 215.989 192.47 215.82C192.159 215.647 191.747 215.561 191.233 215.561H189.22V224H188.075ZM197.472 214.545V224H196.327V214.545H197.472ZM204.642 218.497L203.664 218.774C203.602 218.611 203.511 218.453 203.391 218.299C203.274 218.142 203.114 218.012 202.911 217.911C202.708 217.809 202.448 217.759 202.131 217.759C201.697 217.759 201.335 217.859 201.046 218.059C200.76 218.256 200.617 218.506 200.617 218.811C200.617 219.082 200.715 219.296 200.912 219.453C201.109 219.61 201.417 219.741 201.836 219.845L202.888 220.104C203.522 220.258 203.995 220.493 204.305 220.81C204.616 221.124 204.772 221.529 204.772 222.024C204.772 222.43 204.655 222.794 204.421 223.114C204.19 223.434 203.867 223.686 203.451 223.871C203.036 224.055 202.553 224.148 202.002 224.148C201.278 224.148 200.68 223.991 200.206 223.677C199.732 223.363 199.432 222.904 199.306 222.301L200.34 222.043C200.438 222.424 200.624 222.71 200.898 222.901C201.175 223.092 201.537 223.188 201.983 223.188C202.491 223.188 202.894 223.08 203.193 222.864C203.494 222.646 203.645 222.384 203.645 222.08C203.645 221.833 203.559 221.627 203.387 221.461C203.214 221.292 202.95 221.165 202.593 221.082L201.411 220.805C200.761 220.652 200.284 220.413 199.98 220.09C199.678 219.764 199.527 219.356 199.527 218.866C199.527 218.466 199.64 218.112 199.864 217.805C200.092 217.497 200.401 217.255 200.792 217.08C201.186 216.904 201.632 216.817 202.131 216.817C202.833 216.817 203.384 216.971 203.784 217.278C204.187 217.586 204.473 217.992 204.642 218.497Z" fill="white"/>
<path d="M107.937 128.818V139H106.077L101.648 132.592H101.573V139H99.4205V128.818H101.31L105.705 135.222H105.794V128.818H107.937ZM113.126 139.149C112.354 139.149 111.686 138.985 111.122 138.657C110.562 138.326 110.13 137.865 109.825 137.275C109.52 136.682 109.367 135.994 109.367 135.212C109.367 134.423 109.52 133.733 109.825 133.143C110.13 132.55 110.562 132.089 111.122 131.761C111.686 131.43 112.354 131.264 113.126 131.264C113.898 131.264 114.564 131.43 115.125 131.761C115.688 132.089 116.122 132.55 116.427 133.143C116.732 133.733 116.884 134.423 116.884 135.212C116.884 135.994 116.732 136.682 116.427 137.275C116.122 137.865 115.688 138.326 115.125 138.657C114.564 138.985 113.898 139.149 113.126 139.149ZM113.136 137.509C113.487 137.509 113.781 137.409 114.016 137.21C114.251 137.008 114.428 136.733 114.548 136.385C114.67 136.037 114.732 135.641 114.732 135.197C114.732 134.753 114.67 134.357 114.548 134.009C114.428 133.661 114.251 133.385 114.016 133.183C113.781 132.981 113.487 132.88 113.136 132.88C112.781 132.88 112.483 132.981 112.241 133.183C112.002 133.385 111.822 133.661 111.699 134.009C111.58 134.357 111.52 134.753 111.52 135.197C111.52 135.641 111.58 136.037 111.699 136.385C111.822 136.733 112.002 137.008 112.241 137.21C112.483 137.409 112.781 137.509 113.136 137.509ZM121.075 139.124C120.495 139.124 119.97 138.975 119.5 138.677C119.032 138.375 118.661 137.933 118.386 137.349C118.114 136.763 117.978 136.044 117.978 135.192C117.978 134.317 118.119 133.589 118.401 133.009C118.683 132.426 119.057 131.99 119.524 131.702C119.995 131.41 120.51 131.264 121.071 131.264C121.498 131.264 121.854 131.337 122.139 131.483C122.428 131.625 122.66 131.804 122.835 132.02C123.014 132.232 123.15 132.441 123.243 132.646H123.308V128.818H125.421V139H123.333V137.777H123.243C123.144 137.989 123.003 138.2 122.821 138.408C122.642 138.614 122.408 138.785 122.12 138.92C121.834 139.056 121.486 139.124 121.075 139.124ZM121.747 137.439C122.088 137.439 122.376 137.346 122.612 137.161C122.85 136.972 123.033 136.708 123.159 136.37C123.288 136.032 123.352 135.636 123.352 135.182C123.352 134.728 123.29 134.333 123.164 133.999C123.038 133.664 122.855 133.405 122.617 133.223C122.378 133.041 122.088 132.95 121.747 132.95C121.399 132.95 121.105 133.044 120.867 133.233C120.628 133.422 120.447 133.684 120.325 134.018C120.202 134.353 120.141 134.741 120.141 135.182C120.141 135.626 120.202 136.019 120.325 136.36C120.451 136.698 120.631 136.963 120.867 137.156C121.105 137.344 121.399 137.439 121.747 137.439ZM130.642 139.149C129.857 139.149 129.18 138.99 128.614 138.672C128.05 138.35 127.616 137.896 127.311 137.31C127.006 136.72 126.854 136.022 126.854 135.217C126.854 134.431 127.006 133.742 127.311 133.148C127.616 132.555 128.045 132.093 128.599 131.761C129.156 131.43 129.809 131.264 130.558 131.264C131.061 131.264 131.53 131.345 131.965 131.508C132.402 131.667 132.783 131.907 133.108 132.229C133.436 132.55 133.691 132.955 133.874 133.442C134.056 133.926 134.147 134.492 134.147 135.142V135.724H127.699V134.411H132.153C132.153 134.106 132.087 133.836 131.955 133.601C131.822 133.366 131.638 133.182 131.403 133.049C131.171 132.913 130.901 132.845 130.592 132.845C130.271 132.845 129.986 132.92 129.737 133.069C129.492 133.215 129.3 133.412 129.161 133.661C129.021 133.906 128.95 134.179 128.947 134.481V135.729C128.947 136.107 129.016 136.433 129.156 136.708C129.298 136.983 129.499 137.195 129.757 137.344C130.016 137.494 130.322 137.568 130.677 137.568C130.912 137.568 131.128 137.535 131.323 137.469C131.519 137.402 131.686 137.303 131.825 137.17C131.965 137.038 132.071 136.875 132.144 136.683L134.102 136.812C134.003 137.283 133.799 137.694 133.491 138.045C133.186 138.393 132.791 138.665 132.308 138.861C131.827 139.053 131.272 139.149 130.642 139.149ZM136.767 139.129C136.439 139.129 136.157 139.013 135.922 138.781C135.69 138.546 135.574 138.264 135.574 137.936C135.574 137.611 135.69 137.333 135.922 137.101C136.157 136.869 136.439 136.753 136.767 136.753C137.085 136.753 137.364 136.869 137.602 137.101C137.841 137.333 137.96 137.611 137.96 137.936C137.96 138.155 137.904 138.355 137.791 138.538C137.682 138.717 137.538 138.861 137.359 138.97C137.18 139.076 136.983 139.129 136.767 139.129ZM139.699 131.364H141.817V139.378C141.817 139.968 141.701 140.445 141.469 140.81C141.237 141.174 140.904 141.441 140.47 141.61C140.039 141.779 139.523 141.864 138.924 141.864C138.851 141.864 138.781 141.862 138.715 141.859C138.645 141.859 138.572 141.857 138.496 141.854V140.198C138.552 140.201 138.602 140.203 138.645 140.203C138.685 140.206 138.728 140.208 138.774 140.208C139.116 140.208 139.354 140.135 139.49 139.989C139.629 139.847 139.699 139.631 139.699 139.343V131.364ZM140.753 130.379C140.442 130.379 140.173 130.275 139.948 130.066C139.722 129.854 139.61 129.6 139.61 129.305C139.61 129.014 139.722 128.763 139.948 128.555C140.173 128.343 140.442 128.237 140.753 128.237C141.071 128.237 141.341 128.343 141.563 128.555C141.789 128.763 141.901 129.014 141.901 129.305C141.901 129.6 141.789 129.854 141.563 130.066C141.341 130.275 141.071 130.379 140.753 130.379ZM149.867 133.541L147.928 133.661C147.895 133.495 147.824 133.346 147.715 133.213C147.605 133.077 147.461 132.969 147.282 132.89C147.106 132.807 146.896 132.766 146.651 132.766C146.322 132.766 146.046 132.835 145.82 132.974C145.595 133.11 145.482 133.293 145.482 133.521C145.482 133.704 145.555 133.858 145.701 133.984C145.847 134.11 146.097 134.211 146.452 134.287L147.834 134.565C148.576 134.718 149.13 134.963 149.494 135.301C149.859 135.639 150.041 136.083 150.041 136.634C150.041 137.134 149.894 137.573 149.599 137.951C149.307 138.329 148.906 138.624 148.396 138.836C147.889 139.045 147.304 139.149 146.641 139.149C145.63 139.149 144.824 138.939 144.224 138.518C143.628 138.094 143.278 137.517 143.175 136.788L145.259 136.678C145.322 136.987 145.474 137.222 145.716 137.384C145.958 137.543 146.268 137.623 146.646 137.623C147.017 137.623 147.315 137.552 147.541 137.409C147.769 137.263 147.885 137.076 147.889 136.847C147.885 136.655 147.804 136.498 147.645 136.375C147.486 136.249 147.241 136.153 146.909 136.087L145.587 135.823C144.841 135.674 144.286 135.415 143.921 135.048C143.56 134.68 143.379 134.211 143.379 133.641C143.379 133.15 143.512 132.728 143.777 132.373C144.045 132.018 144.422 131.745 144.906 131.553C145.393 131.36 145.963 131.264 146.616 131.264C147.58 131.264 148.339 131.468 148.893 131.876C149.45 132.283 149.774 132.839 149.867 133.541Z" fill="white"/>
<path d="M150.602 49.0532L126.815 35.3979C125.961 34.9317 124.995 34.6865 124.011 34.6865C123.028 34.6865 122.061 34.9317 121.207 35.3979L97.4181 49.0518C96.5609 49.5546 95.8536 50.2606 95.3646 51.1014C94.8756 51.9423 94.6215 52.8897 94.6267 53.852V81.123C94.6216 82.086 94.8757 83.0339 95.3646 83.8755C95.8536 84.7171 96.5608 85.4239 97.4181 85.9277L103.656 89.4932L103.691 89.5122C106.841 91.0547 108.047 91.0547 109.444 91.0547C114.363 91.0547 117.419 88.0078 117.419 83.1021V56.6602C117.422 56.33 117.288 56.0123 117.046 55.7767C116.804 55.5411 116.475 55.4068 116.13 55.4033H112.705C112.36 55.4068 112.031 55.5411 111.789 55.7767C111.548 56.0123 111.414 56.33 111.417 56.6602V83.1021C111.429 83.4806 111.339 83.8558 111.155 84.1912C110.972 84.5267 110.701 84.811 110.368 85.0166C109.465 85.5439 108.154 85.4326 106.674 84.7017L100.696 81.2578C100.673 81.2429 100.655 81.2228 100.642 81.1992C100.629 81.1757 100.622 81.1496 100.623 81.123V54.2373C100.624 54.2064 100.632 54.1762 100.648 54.1491C100.664 54.1221 100.686 54.0991 100.713 54.082L123.951 40.459C123.968 40.4507 123.987 40.4464 124.006 40.4464C124.026 40.4464 124.045 40.4507 124.062 40.459L147.314 54.082C147.34 54.1005 147.361 54.1248 147.376 54.1528C147.391 54.1808 147.398 54.2118 147.398 54.2432V81.123C147.398 81.1508 147.392 81.1784 147.38 81.2037C147.369 81.229 147.351 81.2515 147.329 81.2695L124.058 94.5483C124.018 94.5615 123.975 94.5615 123.935 94.5483L117.993 91.1704C117.816 91.06 117.613 90.9963 117.402 90.9858C117.192 90.9752 116.982 91.0182 116.794 91.1103L116.742 91.1396C115.102 92.0698 114.661 92.3115 113.14 92.8418C112.892 92.9282 112.309 93.1348 112.258 93.687C112.208 94.2393 112.762 94.6318 113.255 94.9058L121.197 99.5742C122.044 100.059 123.011 100.316 123.998 100.317H124.087C125.049 100.302 125.99 100.046 126.815 99.5742L150.602 85.9321C151.459 85.4267 152.166 84.719 152.655 83.8768C153.144 83.0347 153.398 82.0864 153.394 81.123V53.852C153.399 52.89 153.144 51.9429 152.655 51.1024C152.166 50.2618 151.459 49.556 150.602 49.0532V49.0532Z" fill="#602EEF"/>
<path d="M131.95 76.5894C126.243 76.5894 125.026 75.063 124.665 72.5991C124.625 72.3058 124.475 72.0362 124.244 71.8393C124.013 71.6425 123.716 71.5317 123.407 71.5269H120.377C120.036 71.5338 119.711 71.6699 119.474 71.9055C119.237 72.141 119.107 72.4568 119.113 72.7837C119.113 74.9194 119.897 81.8906 131.956 81.8906C135.687 81.8906 138.791 81.0557 140.929 79.4751C143.067 77.8945 144.211 75.5947 144.211 72.854C144.211 67.3535 140.462 65.8477 133.078 64.8633C125.571 63.8643 125.571 63.356 125.571 62.2427C125.571 61.4414 125.571 59.5649 130.998 59.5649C134.859 59.5649 136.927 60.0322 137.588 62.4946C137.646 62.7676 137.801 63.0133 138.025 63.191C138.249 63.3687 138.53 63.4677 138.821 63.4717H141.862C142.041 63.47 142.218 63.4317 142.381 63.3595C142.543 63.2873 142.688 63.1827 142.805 63.0527C143.039 62.7915 143.155 62.4525 143.129 62.1094C142.736 56.9019 138.759 54.2607 131.003 54.2607C123.954 54.2607 119.747 57.3003 119.747 62.3906C119.747 67.9717 124.107 69.5493 130.657 70.2026C138.309 70.96 138.309 72.0645 138.309 73.04C138.313 74.5605 137.654 76.5894 131.95 76.5894Z" fill="#602EEF"/>
</svg>
