<svg width="296" height="438" viewBox="0 0 296 438" fill="none" xmlns="http://www.w3.org/2000/svg">
<rect width="296" height="438" rx="38" fill="white"/>
<path d="M59.0114 306V294.364H61.4716V299.165H66.4659V294.364H68.9205V306H66.4659V301.193H61.4716V306H59.0114ZM70.5057 296.392V294.364H80.0625V296.392H76.5V306H74.0682V296.392H70.5057ZM81.6364 294.364H84.6705L87.875 302.182H88.0114L91.2159 294.364H94.25V306H91.8636V298.426H91.767L88.7557 305.943H87.1307L84.1193 298.398H84.0227V306H81.6364V294.364ZM96.277 306V294.364H98.7372V303.972H103.726V306H96.277ZM109.537 306.159C108.734 306.159 108.018 306.011 107.389 305.716C106.764 305.42 106.268 305.013 105.901 304.494C105.533 303.975 105.342 303.381 105.327 302.71H107.713C107.74 303.161 107.929 303.527 108.281 303.807C108.634 304.087 109.052 304.227 109.537 304.227C109.923 304.227 110.264 304.142 110.56 303.972C110.859 303.797 111.092 303.557 111.259 303.25C111.429 302.939 111.514 302.583 111.514 302.182C111.514 301.773 111.427 301.413 111.253 301.102C111.082 300.792 110.846 300.549 110.543 300.375C110.24 300.201 109.893 300.112 109.503 300.108C109.162 300.108 108.83 300.178 108.509 300.318C108.19 300.458 107.942 300.65 107.764 300.892L105.577 300.5L106.128 294.364H113.241V296.375H108.156L107.855 299.29H107.923C108.128 299.002 108.437 298.763 108.849 298.574C109.262 298.384 109.724 298.29 110.236 298.29C110.937 298.29 111.562 298.455 112.111 298.784C112.66 299.114 113.094 299.566 113.412 300.142C113.73 300.714 113.887 301.373 113.884 302.119C113.887 302.903 113.705 303.6 113.338 304.21C112.974 304.816 112.465 305.294 111.81 305.642C111.158 305.987 110.401 306.159 109.537 306.159ZM117.878 304.409L117.815 305.034C117.766 305.534 117.671 306.032 117.531 306.528C117.395 307.028 117.251 307.481 117.099 307.886C116.952 308.292 116.832 308.61 116.741 308.841H115.173C115.23 308.617 115.308 308.305 115.406 307.903C115.505 307.506 115.598 307.059 115.685 306.562C115.772 306.066 115.827 305.561 115.849 305.045L115.878 304.409H117.878ZM133.56 298.438H131.071C131.026 298.116 130.933 297.83 130.793 297.58C130.652 297.326 130.473 297.11 130.253 296.932C130.033 296.754 129.779 296.617 129.491 296.523C129.207 296.428 128.899 296.381 128.565 296.381C127.963 296.381 127.438 296.53 126.991 296.83C126.545 297.125 126.198 297.557 125.952 298.125C125.705 298.689 125.582 299.375 125.582 300.182C125.582 301.011 125.705 301.708 125.952 302.273C126.202 302.837 126.55 303.263 126.997 303.551C127.444 303.839 127.961 303.983 128.548 303.983C128.878 303.983 129.183 303.939 129.463 303.852C129.747 303.765 129.999 303.638 130.219 303.472C130.438 303.301 130.62 303.095 130.764 302.852C130.912 302.61 131.014 302.333 131.071 302.023L133.56 302.034C133.495 302.568 133.334 303.083 133.077 303.58C132.823 304.072 132.48 304.513 132.048 304.903C131.62 305.29 131.109 305.597 130.514 305.824C129.923 306.047 129.255 306.159 128.509 306.159C127.471 306.159 126.543 305.924 125.724 305.455C124.91 304.985 124.266 304.305 123.793 303.415C123.323 302.525 123.088 301.447 123.088 300.182C123.088 298.913 123.327 297.833 123.804 296.943C124.281 296.053 124.929 295.375 125.747 294.909C126.565 294.439 127.486 294.205 128.509 294.205C129.183 294.205 129.808 294.299 130.384 294.489C130.963 294.678 131.476 294.955 131.923 295.318C132.37 295.678 132.734 296.119 133.014 296.642C133.298 297.165 133.48 297.763 133.56 298.438ZM141.636 297.71C141.591 297.252 141.396 296.896 141.051 296.642C140.706 296.388 140.239 296.261 139.648 296.261C139.246 296.261 138.907 296.318 138.631 296.432C138.354 296.542 138.142 296.695 137.994 296.892C137.85 297.089 137.778 297.312 137.778 297.562C137.771 297.771 137.814 297.953 137.909 298.108C138.008 298.263 138.142 298.398 138.312 298.511C138.483 298.621 138.68 298.718 138.903 298.801C139.127 298.881 139.366 298.949 139.619 299.006L140.665 299.256C141.172 299.369 141.638 299.521 142.062 299.71C142.487 299.9 142.854 300.133 143.165 300.409C143.475 300.686 143.716 301.011 143.886 301.386C144.061 301.761 144.15 302.191 144.153 302.676C144.15 303.388 143.968 304.006 143.608 304.528C143.252 305.047 142.737 305.451 142.062 305.739C141.392 306.023 140.583 306.165 139.636 306.165C138.697 306.165 137.879 306.021 137.182 305.733C136.489 305.445 135.947 305.019 135.557 304.455C135.17 303.886 134.968 303.184 134.949 302.347H137.33C137.356 302.737 137.468 303.062 137.665 303.324C137.866 303.581 138.133 303.777 138.466 303.909C138.803 304.038 139.184 304.102 139.608 304.102C140.025 304.102 140.386 304.042 140.693 303.92C141.004 303.799 141.244 303.631 141.415 303.415C141.585 303.199 141.67 302.951 141.67 302.67C141.67 302.409 141.593 302.189 141.438 302.011C141.286 301.833 141.063 301.682 140.767 301.557C140.475 301.432 140.117 301.318 139.693 301.216L138.426 300.898C137.445 300.659 136.67 300.286 136.102 299.778C135.534 299.271 135.252 298.587 135.256 297.727C135.252 297.023 135.439 296.407 135.818 295.881C136.201 295.354 136.725 294.943 137.392 294.648C138.059 294.352 138.816 294.205 139.665 294.205C140.528 294.205 141.282 294.352 141.926 294.648C142.574 294.943 143.078 295.354 143.438 295.881C143.797 296.407 143.983 297.017 143.994 297.71H141.636ZM152.121 297.71C152.075 297.252 151.88 296.896 151.536 296.642C151.191 296.388 150.723 296.261 150.132 296.261C149.731 296.261 149.392 296.318 149.115 296.432C148.839 296.542 148.626 296.695 148.479 296.892C148.335 297.089 148.263 297.312 148.263 297.562C148.255 297.771 148.299 297.953 148.393 298.108C148.492 298.263 148.626 298.398 148.797 298.511C148.967 298.621 149.164 298.718 149.388 298.801C149.611 298.881 149.85 298.949 150.104 299.006L151.149 299.256C151.657 299.369 152.123 299.521 152.547 299.71C152.971 299.9 153.339 300.133 153.649 300.409C153.96 300.686 154.2 301.011 154.371 301.386C154.545 301.761 154.634 302.191 154.638 302.676C154.634 303.388 154.452 304.006 154.092 304.528C153.736 305.047 153.221 305.451 152.547 305.739C151.876 306.023 151.068 306.165 150.121 306.165C149.181 306.165 148.363 306.021 147.666 305.733C146.973 305.445 146.431 305.019 146.041 304.455C145.655 303.886 145.452 303.184 145.433 302.347H147.814C147.84 302.737 147.952 303.062 148.149 303.324C148.35 303.581 148.617 303.777 148.95 303.909C149.287 304.038 149.668 304.102 150.092 304.102C150.509 304.102 150.871 304.042 151.178 303.92C151.488 303.799 151.729 303.631 151.899 303.415C152.07 303.199 152.155 302.951 152.155 302.67C152.155 302.409 152.077 302.189 151.922 302.011C151.77 301.833 151.547 301.682 151.251 301.557C150.96 301.432 150.602 301.318 150.178 301.216L148.911 300.898C147.929 300.659 147.155 300.286 146.587 299.778C146.018 299.271 145.736 298.587 145.74 297.727C145.736 297.023 145.924 296.407 146.303 295.881C146.685 295.354 147.21 294.943 147.876 294.648C148.543 294.352 149.301 294.205 150.149 294.205C151.013 294.205 151.767 294.352 152.411 294.648C153.058 294.943 153.562 295.354 153.922 295.881C154.282 296.407 154.467 297.017 154.479 297.71H152.121ZM158.878 304.409L158.815 305.034C158.766 305.534 158.671 306.032 158.531 306.528C158.395 307.028 158.251 307.481 158.099 307.886C157.952 308.292 157.832 308.61 157.741 308.841H156.173C156.23 308.617 156.308 308.305 156.406 307.903C156.505 307.506 156.598 307.059 156.685 306.562C156.772 306.066 156.827 305.561 156.849 305.045L156.878 304.409H158.878ZM164.293 306V294.364H171.997V296.392H166.753V299.165H171.486V301.193H166.753V306H164.293ZM173.652 306V294.364H176.112V303.972H181.101V306H173.652ZM182.73 306V294.364H190.571V296.392H185.19V299.165H190.168V301.193H185.19V303.972H190.594V306H182.73ZM194.834 294.364L197.18 298.33H197.271L199.629 294.364H202.408L198.857 300.182L202.487 306H199.658L197.271 302.028H197.18L194.794 306H191.976L195.618 300.182L192.044 294.364H194.834ZM203.964 306V294.364H208.624C209.48 294.364 210.194 294.491 210.766 294.744C211.338 294.998 211.768 295.35 212.055 295.801C212.343 296.248 212.487 296.763 212.487 297.347C212.487 297.801 212.396 298.201 212.214 298.545C212.033 298.886 211.783 299.167 211.464 299.386C211.15 299.602 210.79 299.756 210.385 299.847V299.96C210.828 299.979 211.243 300.104 211.629 300.335C212.019 300.566 212.336 300.89 212.578 301.307C212.821 301.72 212.942 302.212 212.942 302.784C212.942 303.402 212.788 303.953 212.482 304.438C212.179 304.919 211.73 305.299 211.135 305.58C210.54 305.86 209.807 306 208.936 306H203.964ZM206.425 303.989H208.43C209.116 303.989 209.616 303.858 209.93 303.597C210.245 303.331 210.402 302.979 210.402 302.54C210.402 302.218 210.324 301.934 210.169 301.688C210.014 301.441 209.792 301.248 209.504 301.108C209.22 300.968 208.881 300.898 208.487 300.898H206.425V303.989ZM206.425 299.233H208.249C208.586 299.233 208.885 299.174 209.146 299.057C209.411 298.936 209.62 298.765 209.771 298.545C209.927 298.326 210.004 298.062 210.004 297.756C210.004 297.335 209.855 296.996 209.555 296.739C209.26 296.481 208.839 296.352 208.294 296.352H206.425V299.233ZM225.236 300.182C225.236 301.451 224.995 302.53 224.514 303.42C224.037 304.311 223.385 304.991 222.56 305.46C221.738 305.926 220.813 306.159 219.787 306.159C218.753 306.159 217.825 305.924 217.003 305.455C216.181 304.985 215.531 304.305 215.054 303.415C214.577 302.525 214.338 301.447 214.338 300.182C214.338 298.913 214.577 297.833 215.054 296.943C215.531 296.053 216.181 295.375 217.003 294.909C217.825 294.439 218.753 294.205 219.787 294.205C220.813 294.205 221.738 294.439 222.56 294.909C223.385 295.375 224.037 296.053 224.514 296.943C224.995 297.833 225.236 298.913 225.236 300.182ZM222.741 300.182C222.741 299.36 222.618 298.667 222.372 298.102C222.13 297.538 221.787 297.11 221.344 296.818C220.901 296.527 220.382 296.381 219.787 296.381C219.192 296.381 218.673 296.527 218.23 296.818C217.787 297.11 217.442 297.538 217.196 298.102C216.954 298.667 216.832 299.36 216.832 300.182C216.832 301.004 216.954 301.697 217.196 302.261C217.442 302.826 217.787 303.254 218.23 303.545C218.673 303.837 219.192 303.983 219.787 303.983C220.382 303.983 220.901 303.837 221.344 303.545C221.787 303.254 222.13 302.826 222.372 302.261C222.618 301.697 222.741 301.004 222.741 300.182ZM228.818 294.364L231.165 298.33H231.256L233.614 294.364H236.392L232.841 300.182L236.472 306H233.642L231.256 302.028H231.165L228.778 306H225.96L229.602 300.182L226.028 294.364H228.818Z" fill="black" fill-opacity="0.61"/>
<path d="M48.6413 63.0909V82H44.6435V63.0909H48.6413ZM55.79 73.8011V82H51.8567V67.8182H55.6053V70.3203H55.7715C56.0854 69.4955 56.6117 68.843 57.3503 68.3629C58.089 67.8767 58.9846 67.6335 60.0371 67.6335C61.022 67.6335 61.8806 67.849 62.6131 68.2798C63.3456 68.7107 63.915 69.3262 64.3212 70.1264C64.7275 70.9205 64.9306 71.8684 64.9306 72.9702V82H60.9973V73.6719C61.0035 72.804 60.7819 72.1269 60.3326 71.6406C59.8832 71.1482 59.2646 70.902 58.4767 70.902C57.9474 70.902 57.4796 71.0159 57.0733 71.2436C56.6732 71.4714 56.3593 71.8037 56.1316 72.2408C55.91 72.6716 55.7961 73.1918 55.79 73.8011ZM79.8303 71.8622L76.2294 72.0838C76.1679 71.776 76.0355 71.4991 75.8324 71.2528C75.6293 71.0005 75.3615 70.8004 75.0291 70.6527C74.7029 70.4988 74.312 70.4219 73.8565 70.4219C73.2472 70.4219 72.7332 70.5511 72.3146 70.8097C71.8961 71.062 71.6868 71.4006 71.6868 71.8253C71.6868 72.1638 71.8222 72.45 72.093 72.6839C72.3639 72.9179 72.8286 73.1056 73.4872 73.2472L76.054 73.7642C77.4328 74.0473 78.4607 74.5028 79.1378 75.1307C79.8149 75.7585 80.1534 76.5833 80.1534 77.6051C80.1534 78.5346 79.8795 79.3501 79.3317 80.0518C78.79 80.7536 78.0452 81.3014 77.0973 81.6953C76.1555 82.0831 75.0691 82.277 73.8381 82.277C71.9607 82.277 70.465 81.8861 69.3509 81.1044C68.2429 80.3165 67.5935 79.2455 67.4027 77.8913L71.2713 77.6882C71.3883 78.2607 71.6714 78.6977 72.1207 78.9993C72.5701 79.2947 73.1456 79.4425 73.8473 79.4425C74.5367 79.4425 75.0907 79.3101 75.5092 79.0455C75.9339 78.7746 76.1494 78.4268 76.1555 78.0021C76.1494 77.6451 75.9986 77.3527 75.7031 77.125C75.4077 76.8911 74.9522 76.7126 74.3366 76.5895L71.8807 76.1001C70.4957 75.8232 69.4647 75.343 68.7876 74.6598C68.1167 73.9766 67.7812 73.1056 67.7812 72.0469C67.7812 71.1359 68.0275 70.3511 68.5199 69.6925C69.0185 69.0339 69.7171 68.526 70.6158 68.169C71.5206 67.812 72.5793 67.6335 73.7919 67.6335C75.5831 67.6335 76.9927 68.0121 78.0206 68.7692C79.0547 69.5263 79.6579 70.5573 79.8303 71.8622ZM90.1735 67.8182V70.7727H81.633V67.8182H90.1735ZM83.5719 64.4205H87.5051V77.642C87.5051 78.0052 87.5605 78.2884 87.6713 78.4915C87.7821 78.6884 87.936 78.8269 88.133 78.907C88.3361 78.987 88.57 79.027 88.8347 79.027C89.0194 79.027 89.204 79.0116 89.3887 78.9808C89.5733 78.9439 89.7149 78.9162 89.8134 78.8977L90.432 81.8246C90.235 81.8861 89.958 81.9569 89.601 82.0369C89.244 82.1231 88.8101 82.1754 88.2992 82.1939C87.3513 82.2308 86.5203 82.1046 85.8063 81.8153C85.0984 81.526 84.5475 81.0767 84.1536 80.4673C83.7596 79.858 83.5658 79.0885 83.5719 78.1591V64.4205ZM96.7797 82.2678C95.8748 82.2678 95.0685 82.1108 94.3606 81.7969C93.6528 81.4768 93.0926 81.0059 92.6802 80.3842C92.274 79.7564 92.0708 78.9747 92.0708 78.0391C92.0708 77.2512 92.2155 76.5895 92.5048 76.054C92.7941 75.5185 93.188 75.0876 93.6866 74.7614C94.1852 74.4351 94.7515 74.1889 95.3855 74.0227C96.0256 73.8565 96.6966 73.7396 97.3983 73.6719C98.2231 73.5857 98.8878 73.5057 99.3926 73.4318C99.8973 73.3518 100.264 73.2348 100.491 73.081C100.719 72.9271 100.833 72.6993 100.833 72.3977V72.3423C100.833 71.7576 100.648 71.3052 100.279 70.9851C99.9158 70.665 99.3987 70.505 98.7278 70.505C98.0199 70.505 97.4567 70.6619 97.0382 70.9759C96.6196 71.2836 96.3426 71.6714 96.2072 72.1392L92.5694 71.8438C92.7541 70.982 93.1172 70.2372 93.6589 69.6094C94.2006 68.9754 94.8992 68.4891 95.7548 68.1506C96.6165 67.8059 97.6137 67.6335 98.7463 67.6335C99.5342 67.6335 100.288 67.7259 101.008 67.9105C101.735 68.0952 102.378 68.3814 102.938 68.7692C103.504 69.157 103.951 69.6555 104.277 70.2649C104.603 70.8681 104.766 71.5914 104.766 72.4347V82H101.036V80.0334H100.925C100.698 80.4766 100.393 80.8674 100.011 81.206C99.6296 81.5384 99.171 81.8 98.6355 81.9908C98.1 82.1754 97.4814 82.2678 96.7797 82.2678ZM97.9061 79.5533C98.4847 79.5533 98.9956 79.4394 99.4387 79.2116C99.8819 78.9777 100.23 78.6638 100.482 78.2699C100.734 77.8759 100.861 77.4297 100.861 76.9311V75.4261C100.738 75.5062 100.568 75.58 100.353 75.6477C100.144 75.7093 99.9065 75.7678 99.6419 75.8232C99.3772 75.8724 99.1125 75.9186 98.8478 75.9616C98.5832 75.9986 98.3431 76.0324 98.1277 76.0632C97.666 76.1309 97.2628 76.2386 96.9181 76.3864C96.5734 76.5341 96.3057 76.7341 96.1149 76.9865C95.9241 77.2327 95.8287 77.5405 95.8287 77.9098C95.8287 78.4453 96.0225 78.8546 96.4103 79.1378C96.8043 79.4148 97.3029 79.5533 97.9061 79.5533ZM114.207 87.6136C112.933 87.6136 111.84 87.4382 110.929 87.0874C110.024 86.7427 109.304 86.2718 108.769 85.6747C108.233 85.0777 107.885 84.4067 107.725 83.6619L111.363 83.1726C111.474 83.4557 111.649 83.7204 111.889 83.9666C112.129 84.2128 112.446 84.4098 112.84 84.5575C113.24 84.7114 113.727 84.7884 114.299 84.7884C115.155 84.7884 115.86 84.5791 116.414 84.1605C116.974 83.7481 117.254 83.0556 117.254 82.0831V79.4886H117.088C116.915 79.8826 116.657 80.255 116.312 80.6058C115.967 80.9567 115.524 81.2429 114.982 81.4645C114.441 81.6861 113.794 81.7969 113.044 81.7969C111.979 81.7969 111.009 81.5507 110.135 81.0582C109.267 80.5597 108.575 79.7995 108.058 78.7777C107.547 77.7498 107.291 76.451 107.291 74.8814C107.291 73.2749 107.553 71.933 108.076 70.8558C108.599 69.7786 109.295 68.9723 110.163 68.4368C111.037 67.9013 111.994 67.6335 113.034 67.6335C113.828 67.6335 114.493 67.7689 115.029 68.0398C115.564 68.3045 115.995 68.6368 116.321 69.0369C116.654 69.4309 116.909 69.8187 117.088 70.2003H117.235V67.8182H121.141V82.1385C121.141 83.3449 120.845 84.3544 120.254 85.1669C119.664 85.9794 118.845 86.5888 117.798 86.995C116.758 87.4074 115.561 87.6136 114.207 87.6136ZM114.29 78.8423C114.924 78.8423 115.459 78.6854 115.896 78.3714C116.34 78.0514 116.678 77.5959 116.912 77.005C117.152 76.4079 117.272 75.6939 117.272 74.8629C117.272 74.032 117.155 73.3118 116.921 72.7024C116.687 72.0869 116.349 71.6098 115.906 71.2713C115.463 70.9328 114.924 70.7635 114.29 70.7635C113.644 70.7635 113.099 70.9389 112.656 71.2898C112.213 71.6345 111.877 72.1146 111.649 72.7301C111.422 73.3456 111.308 74.0566 111.308 74.8629C111.308 75.6816 111.422 76.3894 111.649 76.9865C111.883 77.5774 112.219 78.036 112.656 78.3622C113.099 78.6823 113.644 78.8423 114.29 78.8423ZM124.271 82V67.8182H128.084V70.2926H128.232C128.49 69.4124 128.924 68.7476 129.534 68.2983C130.143 67.8428 130.845 67.6151 131.639 67.6151C131.836 67.6151 132.048 67.6274 132.276 67.652C132.503 67.6766 132.704 67.7105 132.876 67.7536V71.2436C132.691 71.1882 132.436 71.139 132.11 71.0959C131.783 71.0528 131.485 71.0312 131.214 71.0312C130.635 71.0312 130.118 71.1574 129.663 71.4098C129.213 71.656 128.856 72.0007 128.592 72.4439C128.333 72.8871 128.204 73.398 128.204 73.9766V82H124.271ZM138.547 82.2678C137.642 82.2678 136.836 82.1108 136.128 81.7969C135.42 81.4768 134.86 81.0059 134.448 80.3842C134.042 79.7564 133.838 78.9747 133.838 78.0391C133.838 77.2512 133.983 76.5895 134.272 76.054C134.562 75.5185 134.956 75.0876 135.454 74.7614C135.953 74.4351 136.519 74.1889 137.153 74.0227C137.793 73.8565 138.464 73.7396 139.166 73.6719C139.991 73.5857 140.655 73.5057 141.16 73.4318C141.665 73.3518 142.031 73.2348 142.259 73.081C142.487 72.9271 142.6 72.6993 142.6 72.3977V72.3423C142.6 71.7576 142.416 71.3052 142.047 70.9851C141.683 70.665 141.166 70.505 140.495 70.505C139.788 70.505 139.224 70.6619 138.806 70.9759C138.387 71.2836 138.11 71.6714 137.975 72.1392L134.337 71.8438C134.522 70.982 134.885 70.2372 135.426 69.6094C135.968 68.9754 136.667 68.4891 137.522 68.1506C138.384 67.8059 139.381 67.6335 140.514 67.6335C141.302 67.6335 142.056 67.7259 142.776 67.9105C143.502 68.0952 144.145 68.3814 144.706 68.7692C145.272 69.157 145.718 69.6555 146.044 70.2649C146.371 70.8681 146.534 71.5914 146.534 72.4347V82H142.804V80.0334H142.693C142.465 80.4766 142.16 80.8674 141.779 81.206C141.397 81.5384 140.939 81.8 140.403 81.9908C139.868 82.1754 139.249 82.2678 138.547 82.2678ZM139.674 79.5533C140.252 79.5533 140.763 79.4394 141.206 79.2116C141.65 78.9777 141.997 78.6638 142.25 78.2699C142.502 77.8759 142.628 77.4297 142.628 76.9311V75.4261C142.505 75.5062 142.336 75.58 142.12 75.6477C141.911 75.7093 141.674 75.7678 141.409 75.8232C141.145 75.8724 140.88 75.9186 140.615 75.9616C140.351 75.9986 140.111 76.0324 139.895 76.0632C139.434 76.1309 139.03 76.2386 138.686 76.3864C138.341 76.5341 138.073 76.7341 137.882 76.9865C137.692 77.2327 137.596 77.5405 137.596 77.9098C137.596 78.4453 137.79 78.8546 138.178 79.1378C138.572 79.4148 139.07 79.5533 139.674 79.5533ZM149.585 82V67.8182H153.334V70.3203H153.5C153.795 69.4893 154.288 68.8338 154.977 68.3537C155.667 67.8736 156.491 67.6335 157.452 67.6335C158.424 67.6335 159.252 67.8767 159.935 68.3629C160.619 68.843 161.074 69.4955 161.302 70.3203H161.45C161.739 69.5078 162.262 68.8584 163.019 68.3722C163.782 67.8797 164.684 67.6335 165.724 67.6335C167.048 67.6335 168.122 68.0552 168.947 68.8984C169.778 69.7356 170.193 70.9235 170.193 72.4624V82H166.269V73.2379C166.269 72.45 166.06 71.8591 165.641 71.4652C165.223 71.0713 164.7 70.8743 164.072 70.8743C163.358 70.8743 162.801 71.102 162.401 71.5575C162 72.0069 161.8 72.6009 161.8 73.3395V82H157.987V73.1548C157.987 72.4593 157.787 71.9053 157.387 71.4929C156.993 71.0805 156.473 70.8743 155.827 70.8743C155.39 70.8743 154.996 70.9851 154.645 71.2067C154.3 71.4221 154.026 71.7268 153.823 72.1207C153.62 72.5085 153.518 72.964 153.518 73.4872V82H149.585ZM196.075 69.7109H192.031C191.958 69.1877 191.807 68.723 191.579 68.3168C191.351 67.9044 191.059 67.5535 190.702 67.2642C190.345 66.9749 189.932 66.7533 189.465 66.5994C189.003 66.4455 188.501 66.3686 187.96 66.3686C186.981 66.3686 186.128 66.6117 185.402 67.098C184.676 67.5781 184.113 68.2798 183.713 69.2031C183.312 70.1203 183.112 71.2344 183.112 72.5455C183.112 73.8935 183.312 75.026 183.713 75.9432C184.119 76.8603 184.685 77.5528 185.411 78.0206C186.138 78.4884 186.978 78.7223 187.932 78.7223C188.468 78.7223 188.963 78.6515 189.419 78.5099C189.88 78.3684 190.289 78.1622 190.646 77.8913C191.003 77.6143 191.299 77.2789 191.533 76.8849C191.773 76.491 191.939 76.0417 192.031 75.5369L196.075 75.5554C195.971 76.4233 195.709 77.2604 195.291 78.0668C194.878 78.867 194.321 79.584 193.619 80.218C192.924 80.8459 192.093 81.3445 191.127 81.7138C190.166 82.0769 189.08 82.2585 187.867 82.2585C186.181 82.2585 184.673 81.8769 183.343 81.1136C182.02 80.3504 180.973 79.2455 180.204 77.799C179.441 76.3525 179.059 74.6013 179.059 72.5455C179.059 70.4834 179.447 68.7292 180.222 67.2827C180.998 65.8362 182.051 64.7344 183.38 63.9773C184.71 63.214 186.205 62.8324 187.867 62.8324C188.963 62.8324 189.979 62.9863 190.914 63.294C191.856 63.6018 192.69 64.0511 193.416 64.642C194.143 65.2268 194.734 65.9439 195.189 66.7933C195.651 67.6428 195.946 68.6153 196.075 69.7109ZM202.802 63.0909V82H198.868V63.0909H202.802ZM212.36 82.277C210.926 82.277 209.686 81.9723 208.639 81.3629C207.599 80.7474 206.796 79.8918 206.229 78.7962C205.663 77.6944 205.38 76.4171 205.38 74.9645C205.38 73.4995 205.663 72.2192 206.229 71.1236C206.796 70.0218 207.599 69.1662 208.639 68.5568C209.686 67.9413 210.926 67.6335 212.36 67.6335C213.794 67.6335 215.031 67.9413 216.072 68.5568C217.118 69.1662 217.924 70.0218 218.491 71.1236C219.057 72.2192 219.34 73.4995 219.34 74.9645C219.34 76.4171 219.057 77.6944 218.491 78.7962C217.924 79.8918 217.118 80.7474 216.072 81.3629C215.031 81.9723 213.794 82.277 212.36 82.277ZM212.379 79.2301C213.031 79.2301 213.576 79.0455 214.013 78.6761C214.45 78.3007 214.779 77.7898 215.001 77.1435C215.228 76.4972 215.342 75.7616 215.342 74.9368C215.342 74.112 215.228 73.3764 215.001 72.7301C214.779 72.0838 214.45 71.5729 214.013 71.1974C213.576 70.822 213.031 70.6342 212.379 70.6342C211.72 70.6342 211.166 70.822 210.717 71.1974C210.273 71.5729 209.938 72.0838 209.71 72.7301C209.489 73.3764 209.378 74.112 209.378 74.9368C209.378 75.7616 209.489 76.4972 209.71 77.1435C209.938 77.7898 210.273 78.3007 210.717 78.6761C211.166 79.0455 211.72 79.2301 212.379 79.2301ZM225.831 73.8011V82H221.898V67.8182H225.646V70.3203H225.812C226.126 69.4955 226.653 68.843 227.391 68.3629C228.13 67.8767 229.026 67.6335 230.078 67.6335C231.063 67.6335 231.922 67.849 232.654 68.2798C233.387 68.7107 233.956 69.3262 234.362 70.1264C234.768 70.9205 234.972 71.8684 234.972 72.9702V82H231.038V73.6719C231.045 72.804 230.823 72.1269 230.374 71.6406C229.924 71.1482 229.306 70.902 228.518 70.902C227.988 70.902 227.521 71.0159 227.114 71.2436C226.714 71.4714 226.4 71.8037 226.173 72.2408C225.951 72.6716 225.837 73.1918 225.831 73.8011ZM244.535 82.277C243.076 82.277 241.82 81.9815 240.768 81.3906C239.721 80.7936 238.915 79.9503 238.349 78.8608C237.782 77.7652 237.499 76.4695 237.499 74.9737C237.499 73.5149 237.782 72.2346 238.349 71.1328C238.915 70.031 239.712 69.1723 240.74 68.5568C241.774 67.9413 242.987 67.6335 244.378 67.6335C245.313 67.6335 246.184 67.7843 246.991 68.0859C247.803 68.3814 248.511 68.8277 249.114 69.4247C249.724 70.0218 250.198 70.7727 250.536 71.6776C250.875 72.5762 251.044 73.6288 251.044 74.8352V75.9155H239.069V73.478H247.341C247.341 72.9117 247.218 72.41 246.972 71.973C246.726 71.536 246.384 71.1944 245.947 70.9482C245.516 70.6958 245.015 70.5696 244.442 70.5696C243.845 70.5696 243.316 70.7081 242.854 70.9851C242.399 71.2559 242.042 71.6222 241.783 72.0838C241.525 72.5393 241.392 73.0471 241.386 73.6072V75.9247C241.386 76.6264 241.515 77.2327 241.774 77.7436C242.039 78.2545 242.411 78.6484 242.891 78.9254C243.371 79.2024 243.941 79.3409 244.599 79.3409C245.036 79.3409 245.436 79.2794 245.8 79.1562C246.163 79.0331 246.474 78.8485 246.732 78.6023C246.991 78.3561 247.188 78.0545 247.323 77.6974L250.961 77.9375C250.776 78.8116 250.398 79.5748 249.825 80.2273C249.259 80.8736 248.526 81.3783 247.628 81.7415C246.735 82.0985 245.704 82.277 244.535 82.277Z" fill="black"/>
<path d="M83.5 96.5H202" stroke="black" stroke-width="2"/>
<path d="M162.275 152.947C167.251 152.962 172.018 154.945 175.537 158.463C179.055 161.982 181.038 166.749 181.053 171.725V209.275C181.038 214.251 179.055 219.018 175.537 222.537C172.018 226.055 167.251 228.038 162.275 228.053H124.725C119.749 228.038 114.982 226.055 111.463 222.537C107.945 219.018 105.962 214.251 105.947 209.275V171.725C105.962 166.749 107.945 161.982 111.463 158.463C114.982 154.945 119.749 152.962 124.725 152.947H162.275M162.275 145.438H124.725C110.266 145.438 98.4375 157.266 98.4375 171.725V209.275C98.4375 223.734 110.266 235.562 124.725 235.562H162.275C176.734 235.562 188.562 223.734 188.562 209.275V171.725C188.562 157.266 176.734 145.438 162.275 145.438V145.438Z" fill="black" fill-opacity="0.59"/>
<path d="M167.908 171.725C166.794 171.725 165.705 171.394 164.779 170.775C163.852 170.156 163.13 169.277 162.704 168.247C162.278 167.218 162.166 166.086 162.384 164.993C162.601 163.9 163.137 162.897 163.925 162.109C164.713 161.321 165.717 160.785 166.809 160.567C167.902 160.35 169.035 160.461 170.064 160.888C171.093 161.314 171.973 162.036 172.592 162.962C173.211 163.889 173.541 164.978 173.541 166.092C173.543 166.832 173.398 167.565 173.115 168.249C172.833 168.933 172.418 169.555 171.895 170.078C171.371 170.602 170.75 171.017 170.066 171.299C169.382 171.582 168.648 171.726 167.908 171.725V171.725ZM143.5 175.478C146.471 175.478 149.375 176.359 151.846 178.01C154.316 179.661 156.241 182.007 157.378 184.752C158.515 187.496 158.812 190.517 158.233 193.431C157.653 196.344 156.223 199.021 154.122 201.122C152.021 203.223 149.344 204.653 146.431 205.233C143.517 205.812 140.496 205.515 137.752 204.378C135.007 203.241 132.661 201.316 131.01 198.845C129.36 196.375 128.479 193.471 128.479 190.5C128.483 186.517 130.067 182.699 132.883 179.883C135.699 177.067 139.517 175.483 143.5 175.478M143.5 167.969C139.044 167.969 134.688 169.29 130.982 171.766C127.277 174.242 124.389 177.761 122.684 181.878C120.979 185.995 120.532 190.525 121.402 194.896C122.271 199.266 124.417 203.281 127.568 206.432C130.719 209.583 134.734 211.729 139.104 212.598C143.475 213.468 148.005 213.021 152.122 211.316C156.239 209.611 159.758 206.723 162.234 203.018C164.71 199.312 166.031 194.956 166.031 190.5C166.031 184.524 163.657 178.793 159.432 174.568C155.207 170.343 149.476 167.969 143.5 167.969V167.969Z" fill="black" fill-opacity="0.59"/>
<rect x="30" y="358" width="233" height="53" rx="23" fill="url(#paint0_linear_110_1805)"/>
<path d="M95.1136 378.364L97.9261 387.205H98.0341L100.852 378.364H103.58L99.5682 390H96.3977L92.3807 378.364H95.1136ZM107.928 390.17C107.03 390.17 106.257 389.989 105.609 389.625C104.965 389.258 104.469 388.739 104.121 388.068C103.772 387.394 103.598 386.597 103.598 385.676C103.598 384.778 103.772 383.991 104.121 383.312C104.469 382.634 104.96 382.106 105.592 381.727C106.229 381.348 106.975 381.159 107.831 381.159C108.407 381.159 108.943 381.252 109.439 381.438C109.939 381.619 110.375 381.894 110.746 382.261C111.121 382.629 111.412 383.091 111.621 383.648C111.829 384.201 111.933 384.848 111.933 385.591V386.256H104.564V384.756H109.655C109.655 384.407 109.579 384.098 109.428 383.83C109.276 383.561 109.066 383.35 108.797 383.199C108.532 383.044 108.223 382.966 107.871 382.966C107.503 382.966 107.178 383.051 106.893 383.222C106.613 383.388 106.393 383.614 106.234 383.898C106.075 384.178 105.994 384.491 105.99 384.835V386.261C105.99 386.693 106.07 387.066 106.229 387.381C106.392 387.695 106.621 387.938 106.916 388.108C107.212 388.278 107.562 388.364 107.967 388.364C108.236 388.364 108.482 388.326 108.706 388.25C108.929 388.174 109.121 388.061 109.28 387.909C109.439 387.758 109.56 387.572 109.643 387.352L111.882 387.5C111.768 388.038 111.536 388.508 111.183 388.909C110.835 389.307 110.384 389.617 109.831 389.841C109.282 390.061 108.647 390.17 107.928 390.17ZM113.513 381.273H115.933V390.432C115.933 391.106 115.801 391.652 115.536 392.068C115.27 392.485 114.89 392.79 114.393 392.983C113.901 393.176 113.312 393.273 112.626 393.273C112.543 393.273 112.464 393.271 112.388 393.267C112.308 393.267 112.225 393.265 112.138 393.261V391.369C112.202 391.373 112.259 391.375 112.308 391.375C112.354 391.379 112.403 391.381 112.456 391.381C112.846 391.381 113.119 391.297 113.274 391.131C113.433 390.968 113.513 390.722 113.513 390.392V381.273ZM114.717 380.148C114.361 380.148 114.054 380.028 113.797 379.79C113.539 379.547 113.411 379.258 113.411 378.92C113.411 378.587 113.539 378.301 113.797 378.062C114.054 377.82 114.361 377.699 114.717 377.699C115.081 377.699 115.39 377.82 115.643 378.062C115.901 378.301 116.03 378.587 116.03 378.92C116.03 379.258 115.901 379.547 115.643 379.79C115.39 380.028 115.081 380.148 114.717 380.148ZM120.361 390.165C119.804 390.165 119.308 390.068 118.872 389.875C118.437 389.678 118.092 389.388 117.838 389.006C117.588 388.619 117.463 388.138 117.463 387.562C117.463 387.078 117.552 386.67 117.73 386.341C117.908 386.011 118.151 385.746 118.457 385.545C118.764 385.345 119.113 385.193 119.503 385.091C119.897 384.989 120.31 384.917 120.741 384.875C121.249 384.822 121.658 384.773 121.969 384.727C122.279 384.678 122.505 384.606 122.645 384.511C122.785 384.417 122.855 384.277 122.855 384.091V384.057C122.855 383.697 122.741 383.419 122.514 383.222C122.291 383.025 121.973 382.926 121.56 382.926C121.124 382.926 120.777 383.023 120.52 383.216C120.262 383.405 120.092 383.644 120.009 383.932L117.77 383.75C117.884 383.22 118.107 382.761 118.44 382.375C118.774 381.985 119.204 381.686 119.73 381.477C120.26 381.265 120.874 381.159 121.571 381.159C122.056 381.159 122.52 381.216 122.963 381.33C123.41 381.443 123.806 381.619 124.151 381.858C124.499 382.097 124.774 382.403 124.974 382.778C125.175 383.15 125.276 383.595 125.276 384.114V390H122.98V388.79H122.912C122.772 389.062 122.584 389.303 122.349 389.511C122.115 389.716 121.832 389.877 121.503 389.994C121.173 390.108 120.793 390.165 120.361 390.165ZM121.054 388.494C121.41 388.494 121.724 388.424 121.997 388.284C122.27 388.14 122.484 387.947 122.639 387.705C122.795 387.462 122.872 387.187 122.872 386.881V385.955C122.796 386.004 122.692 386.049 122.56 386.091C122.431 386.129 122.285 386.165 122.122 386.199C121.959 386.229 121.796 386.258 121.634 386.284C121.471 386.307 121.323 386.328 121.19 386.347C120.906 386.388 120.658 386.455 120.446 386.545C120.234 386.636 120.069 386.759 119.952 386.915C119.834 387.066 119.776 387.256 119.776 387.483C119.776 387.812 119.895 388.064 120.134 388.239C120.376 388.409 120.683 388.494 121.054 388.494ZM134.8 390.17C133.917 390.17 133.154 389.983 132.51 389.608C131.87 389.229 131.375 388.703 131.027 388.028C130.679 387.35 130.504 386.564 130.504 385.67C130.504 384.769 130.679 383.981 131.027 383.307C131.375 382.629 131.87 382.102 132.51 381.727C133.154 381.348 133.917 381.159 134.8 381.159C135.682 381.159 136.444 381.348 137.084 381.727C137.728 382.102 138.224 382.629 138.572 383.307C138.921 383.981 139.095 384.769 139.095 385.67C139.095 386.564 138.921 387.35 138.572 388.028C138.224 388.703 137.728 389.229 137.084 389.608C136.444 389.983 135.682 390.17 134.8 390.17ZM134.811 388.295C135.213 388.295 135.548 388.182 135.817 387.955C136.086 387.723 136.288 387.409 136.425 387.011C136.565 386.614 136.635 386.161 136.635 385.653C136.635 385.146 136.565 384.693 136.425 384.295C136.288 383.898 136.086 383.583 135.817 383.352C135.548 383.121 135.213 383.006 134.811 383.006C134.406 383.006 134.065 383.121 133.788 383.352C133.516 383.583 133.309 383.898 133.169 384.295C133.033 384.693 132.964 385.146 132.964 385.653C132.964 386.161 133.033 386.614 133.169 387.011C133.309 387.409 133.516 387.723 133.788 387.955C134.065 388.182 134.406 388.295 134.811 388.295ZM144.372 393.273V381.273H146.759V382.739H146.866C146.973 382.504 147.126 382.265 147.327 382.023C147.531 381.777 147.796 381.572 148.122 381.409C148.452 381.242 148.861 381.159 149.349 381.159C149.986 381.159 150.573 381.326 151.111 381.659C151.649 381.989 152.079 382.487 152.401 383.153C152.723 383.816 152.884 384.648 152.884 385.648C152.884 386.621 152.726 387.443 152.412 388.114C152.101 388.78 151.677 389.286 151.139 389.631C150.605 389.972 150.007 390.142 149.344 390.142C148.874 390.142 148.474 390.064 148.145 389.909C147.819 389.754 147.552 389.559 147.344 389.324C147.135 389.085 146.976 388.845 146.866 388.602H146.793V393.273H144.372ZM146.741 385.636C146.741 386.155 146.813 386.608 146.957 386.994C147.101 387.381 147.31 387.682 147.582 387.898C147.855 388.11 148.187 388.216 148.577 388.216C148.971 388.216 149.304 388.108 149.577 387.892C149.849 387.672 150.056 387.369 150.196 386.983C150.34 386.593 150.412 386.144 150.412 385.636C150.412 385.133 150.342 384.689 150.202 384.307C150.062 383.924 149.855 383.625 149.582 383.409C149.31 383.193 148.974 383.085 148.577 383.085C148.183 383.085 147.849 383.189 147.577 383.398C147.308 383.606 147.101 383.902 146.957 384.284C146.813 384.667 146.741 385.117 146.741 385.636ZM154.497 390V381.273H156.844V382.795H156.935C157.094 382.254 157.361 381.845 157.736 381.568C158.111 381.288 158.543 381.148 159.031 381.148C159.152 381.148 159.283 381.155 159.423 381.17C159.563 381.186 159.687 381.206 159.793 381.233V383.381C159.679 383.347 159.522 383.316 159.321 383.29C159.12 383.263 158.937 383.25 158.77 383.25C158.414 383.25 158.096 383.328 157.815 383.483C157.539 383.634 157.319 383.847 157.156 384.119C156.997 384.392 156.918 384.706 156.918 385.062V390H154.497ZM164.581 390.17C163.698 390.17 162.935 389.983 162.291 389.608C161.651 389.229 161.157 388.703 160.808 388.028C160.46 387.35 160.286 386.564 160.286 385.67C160.286 384.769 160.46 383.981 160.808 383.307C161.157 382.629 161.651 382.102 162.291 381.727C162.935 381.348 163.698 381.159 164.581 381.159C165.464 381.159 166.225 381.348 166.865 381.727C167.509 382.102 168.005 382.629 168.354 383.307C168.702 383.981 168.876 384.769 168.876 385.67C168.876 386.564 168.702 387.35 168.354 388.028C168.005 388.703 167.509 389.229 166.865 389.608C166.225 389.983 165.464 390.17 164.581 390.17ZM164.592 388.295C164.994 388.295 165.329 388.182 165.598 387.955C165.867 387.723 166.07 387.409 166.206 387.011C166.346 386.614 166.416 386.161 166.416 385.653C166.416 385.146 166.346 384.693 166.206 384.295C166.07 383.898 165.867 383.583 165.598 383.352C165.329 383.121 164.994 383.006 164.592 383.006C164.187 383.006 163.846 383.121 163.57 383.352C163.297 383.583 163.09 383.898 162.95 384.295C162.814 384.693 162.746 385.146 162.746 385.653C162.746 386.161 162.814 386.614 162.95 387.011C163.09 387.409 163.297 387.723 163.57 387.955C163.846 388.182 164.187 388.295 164.592 388.295ZM170.45 381.273H172.871V390.432C172.871 391.106 172.738 391.652 172.473 392.068C172.208 392.485 171.827 392.79 171.331 392.983C170.839 393.176 170.25 393.273 169.564 393.273C169.481 393.273 169.401 393.271 169.325 393.267C169.246 393.267 169.162 393.265 169.075 393.261V391.369C169.14 391.373 169.196 391.375 169.246 391.375C169.291 391.379 169.34 391.381 169.393 391.381C169.784 391.381 170.056 391.297 170.212 391.131C170.371 390.968 170.45 390.722 170.45 390.392V381.273ZM171.655 380.148C171.299 380.148 170.992 380.028 170.734 379.79C170.477 379.547 170.348 379.258 170.348 378.92C170.348 378.587 170.477 378.301 170.734 378.062C170.992 377.82 171.299 377.699 171.655 377.699C172.018 377.699 172.327 377.82 172.581 378.062C172.839 378.301 172.967 378.587 172.967 378.92C172.967 379.258 172.839 379.547 172.581 379.79C172.327 380.028 172.018 380.148 171.655 380.148ZM178.787 390.17C177.889 390.17 177.116 389.989 176.469 389.625C175.825 389.258 175.329 388.739 174.98 388.068C174.632 387.394 174.457 386.597 174.457 385.676C174.457 384.778 174.632 383.991 174.98 383.312C175.329 382.634 175.819 382.106 176.452 381.727C177.088 381.348 177.834 381.159 178.69 381.159C179.266 381.159 179.802 381.252 180.298 381.438C180.798 381.619 181.234 381.894 181.605 382.261C181.98 382.629 182.272 383.091 182.48 383.648C182.688 384.201 182.793 384.848 182.793 385.591V386.256H175.423V384.756H180.514C180.514 384.407 180.438 384.098 180.287 383.83C180.135 383.561 179.925 383.35 179.656 383.199C179.391 383.044 179.082 382.966 178.73 382.966C178.363 382.966 178.037 383.051 177.753 383.222C177.473 383.388 177.253 383.614 177.094 383.898C176.935 384.178 176.853 384.491 176.849 384.835V386.261C176.849 386.693 176.929 387.066 177.088 387.381C177.251 387.695 177.48 387.938 177.776 388.108C178.071 388.278 178.421 388.364 178.827 388.364C179.096 388.364 179.342 388.326 179.565 388.25C179.789 388.174 179.98 388.061 180.139 387.909C180.298 387.758 180.42 387.572 180.503 387.352L182.741 387.5C182.628 388.038 182.395 388.508 182.043 388.909C181.694 389.307 181.243 389.617 180.69 389.841C180.141 390.061 179.507 390.17 178.787 390.17ZM189.014 381.273V383.091H183.759V381.273H189.014ZM184.952 379.182H187.372V387.318C187.372 387.542 187.406 387.716 187.474 387.841C187.543 387.962 187.637 388.047 187.759 388.097C187.884 388.146 188.027 388.17 188.19 388.17C188.304 388.17 188.418 388.161 188.531 388.142C188.645 388.119 188.732 388.102 188.793 388.091L189.173 389.892C189.052 389.93 188.882 389.973 188.662 390.023C188.442 390.076 188.175 390.108 187.861 390.119C187.277 390.142 186.766 390.064 186.327 389.886C185.891 389.708 185.552 389.432 185.31 389.057C185.067 388.682 184.948 388.208 184.952 387.636V379.182ZM194.44 390.17C193.558 390.17 192.795 389.983 192.151 389.608C191.51 389.229 191.016 388.703 190.668 388.028C190.319 387.35 190.145 386.564 190.145 385.67C190.145 384.769 190.319 383.981 190.668 383.307C191.016 382.629 191.51 382.102 192.151 381.727C192.795 381.348 193.558 381.159 194.44 381.159C195.323 381.159 196.084 381.348 196.724 381.727C197.368 382.102 197.865 382.629 198.213 383.307C198.562 383.981 198.736 384.769 198.736 385.67C198.736 386.564 198.562 387.35 198.213 388.028C197.865 388.703 197.368 389.229 196.724 389.608C196.084 389.983 195.323 390.17 194.44 390.17ZM194.452 388.295C194.853 388.295 195.188 388.182 195.457 387.955C195.726 387.723 195.929 387.409 196.065 387.011C196.205 386.614 196.276 386.161 196.276 385.653C196.276 385.146 196.205 384.693 196.065 384.295C195.929 383.898 195.726 383.583 195.457 383.352C195.188 383.121 194.853 383.006 194.452 383.006C194.046 383.006 193.705 383.121 193.429 383.352C193.156 383.583 192.95 383.898 192.81 384.295C192.673 384.693 192.605 385.146 192.605 385.653C192.605 386.161 192.673 386.614 192.81 387.011C192.95 387.409 193.156 387.723 193.429 387.955C193.705 388.182 194.046 388.295 194.452 388.295Z" fill="white"/>
<defs>
<linearGradient id="paint0_linear_110_1805" x1="146.5" y1="358" x2="146.5" y2="411" gradientUnits="userSpaceOnUse">
<stop stop-color="#602EEF"/>
<stop offset="1" stop-color="#36226F"/>
</linearGradient>
</defs>
</svg>
