<svg width="250" height="288" viewBox="0 0 250 288" fill="none" xmlns="http://www.w3.org/2000/svg">
<rect x="0.0917664" width="249.695" height="288" rx="25" fill="#181823"/>
<path d="M148.608 56.4726C147.826 56.2167 147.038 55.9784 146.244 55.7577C146.375 55.245 146.497 54.7294 146.608 54.2109C148.399 45.8759 147.228 39.1611 143.232 36.9506C139.406 34.8295 133.131 37.04 126.802 42.3251C126.179 42.8466 125.57 43.3837 124.973 43.9364C124.575 43.5693 124.167 43.2099 123.748 42.8583C117.114 37.207 110.465 34.8266 106.473 37.0444C102.647 39.1698 101.51 45.4819 103.122 53.3818C103.283 54.163 103.464 54.9408 103.665 55.7153C102.751 55.9634 101.844 56.237 100.946 56.5356C93.1774 59.1357 88.2097 63.2123 88.2097 67.4399C88.2097 71.808 93.5416 76.1879 101.642 78.8437C102.299 79.0575 102.962 79.2563 103.631 79.4399C103.414 80.269 103.222 81.1073 103.055 81.955C101.524 89.7187 102.718 95.8813 106.536 97.9936C110.48 100.175 117.096 97.9335 123.545 92.5282C124.055 92.1005 124.565 91.6488 125.075 91.1733C125.72 91.7699 126.383 92.349 127.065 92.9106C133.309 98.0639 139.475 100.145 143.287 98.0273C147.228 95.8388 148.509 89.2177 146.845 81.1625C146.718 80.5473 146.571 79.9194 146.404 79.2787C146.87 79.1469 147.325 79.0107 147.771 78.87C156.188 76.1938 161.672 71.8666 161.672 67.4443C161.669 63.1962 156.542 59.0932 148.608 56.4726V56.4726ZM128.866 44.5956C134.288 40.0678 139.357 38.2807 141.668 39.558C144.127 40.9189 145.084 46.4062 143.538 53.603C143.436 54.0717 143.326 54.539 143.207 55.0048C139.972 54.3003 136.69 53.8031 133.385 53.5165C131.493 50.9075 129.419 48.4238 127.177 46.0824C127.725 45.5727 128.288 45.0771 128.863 44.5956H128.866ZM109.9 71.0522C110.564 72.2826 111.258 73.498 111.983 74.6982C112.72 75.9228 113.489 77.1293 114.289 78.3178C112.015 78.0811 109.755 77.7325 107.519 77.2734C108.168 75.2636 108.966 73.1762 109.9 71.0522V71.0522ZM109.9 63.9726C108.982 61.894 108.204 59.849 107.566 57.8744C109.663 57.4247 111.897 57.0571 114.226 56.7787C113.446 57.9447 112.695 59.1279 111.974 60.328C111.252 61.5282 110.56 62.7431 109.895 63.9726H109.9ZM111.568 67.5131C112.535 65.5824 113.577 63.6889 114.693 61.8324C115.808 59.977 116.995 58.164 118.254 56.3935C120.44 56.2353 122.68 56.1518 124.944 56.1518C127.207 56.1518 129.461 56.2353 131.645 56.3949C132.891 58.1615 134.071 59.9682 135.185 61.8149C136.299 63.6615 137.355 65.5463 138.352 67.4692C137.368 69.4067 136.315 71.308 135.193 73.1733C134.08 75.0287 132.906 76.8471 131.673 78.6283C129.492 78.7748 127.235 78.8554 124.939 78.8554C122.644 78.8554 120.429 78.7865 118.288 78.6532C117.02 76.8769 115.823 75.0561 114.698 73.1908C113.572 71.3256 112.528 69.433 111.564 67.5131H111.568ZM137.909 74.6777C138.649 73.4491 139.359 72.2045 140.04 70.9438C140.972 72.9683 141.796 75.0375 142.507 77.143C140.244 77.6307 137.956 78.0048 135.652 78.2636C136.429 77.0829 137.182 75.8876 137.909 74.6777V74.6777ZM140.009 63.974C139.331 62.7387 138.627 61.518 137.895 60.3119C137.181 59.1225 136.437 57.9477 135.663 56.7875C138.006 57.0717 140.254 57.4496 142.361 57.9111C141.684 59.9685 140.899 61.992 140.009 63.974V63.974ZM124.974 48.2343C126.503 49.8326 127.945 51.5037 129.298 53.2411C126.405 53.1093 123.511 53.1093 120.614 53.2411C122.042 51.4335 123.504 49.7563 124.974 48.2343V48.2343ZM108.053 39.6474C110.511 38.2822 115.945 40.2333 121.673 45.1069C122.039 45.4189 122.408 45.7455 122.775 46.0839C120.521 48.4249 118.432 50.9064 116.522 53.5121C113.224 53.7965 109.95 54.2858 106.718 54.977C106.532 54.2582 106.363 53.5346 106.213 52.8061C104.828 46.0341 105.745 40.9291 108.053 39.6474ZM104.47 76.5395C103.858 76.3725 103.253 76.1913 102.657 75.996C99.0755 74.8241 96.1173 73.2948 94.0864 71.6293C92.2683 70.1366 91.347 68.6469 91.347 67.4399C91.347 64.8749 95.3352 61.6025 101.986 59.3832C102.822 59.1049 103.665 58.8505 104.515 58.62C105.502 61.6586 106.699 64.6313 108.096 67.519C106.682 70.4465 105.471 73.4599 104.47 76.5395V76.5395ZM121.477 90.2607C118.626 92.6513 115.771 94.3461 113.253 95.2001C110.991 95.9662 109.19 95.9882 108.102 95.3862C105.785 94.1044 104.821 89.1547 106.135 82.516C106.291 81.7348 106.47 80.9535 106.671 80.1723C109.934 80.8452 113.242 81.3048 116.571 81.5478C118.5 84.1671 120.606 86.6626 122.876 89.0185C122.42 89.4477 121.953 89.8608 121.477 90.2607ZM125.062 86.8593C123.574 85.3198 122.09 83.6161 120.642 81.7851C122.049 81.8378 123.481 81.8642 124.939 81.8642C126.436 81.8642 127.917 81.8334 129.377 81.7704C128.03 83.5358 126.59 85.2343 125.062 86.8593V86.8593ZM144.118 91.0473C143.68 93.309 142.8 94.8178 141.712 95.4213C139.397 96.7074 134.446 95.0361 129.108 90.6283C128.496 90.1244 127.884 89.5839 127.261 89.017C129.486 86.652 131.543 84.1463 133.418 81.517C136.765 81.2456 140.088 80.7537 143.365 80.0448C143.515 80.6249 143.648 81.1933 143.763 81.7499C144.499 85.3095 144.605 88.5292 144.118 91.0473V91.0473ZM146.781 76.0121C146.38 76.1396 145.967 76.2626 145.547 76.3827C144.52 73.3299 143.277 70.3475 141.827 67.456C143.223 64.6031 144.417 61.6639 145.402 58.6581C146.153 58.8676 146.883 59.0873 147.586 59.3202C154.384 61.5644 158.531 64.8866 158.531 67.4399C158.531 70.1645 154.052 73.7006 146.781 76.0121V76.0121Z" fill="#602EEF"/>
<path d="M124.939 73.7329C126.242 73.7369 127.516 73.371 128.601 72.6813C129.686 71.9917 130.533 71.0093 131.034 69.8588C131.536 68.7082 131.669 67.441 131.417 66.2178C131.166 64.9946 130.541 63.8704 129.621 62.9874C128.702 62.1044 127.529 61.5025 126.252 61.2578C124.975 61.0131 123.651 61.1366 122.447 61.6128C121.244 62.0889 120.214 62.8962 119.49 63.9325C118.766 64.9688 118.38 66.1874 118.38 67.4341C118.378 68.26 118.546 69.0782 118.875 69.8418C119.204 70.6055 119.687 71.2996 120.296 71.8846C120.905 72.4696 121.629 72.9339 122.425 73.2511C123.222 73.5682 124.076 73.7319 124.939 73.7329Z" fill="#602EEF"/>
<path d="M86.3506 156.545H87.4954V162.805C87.4954 163.452 87.3431 164.029 87.0384 164.537C86.7368 165.041 86.3106 165.44 85.7597 165.732C85.2088 166.022 84.5624 166.166 83.8207 166.166C83.079 166.166 82.4327 166.022 81.8818 165.732C81.3309 165.44 80.9031 165.041 80.5984 164.537C80.2968 164.029 80.146 163.452 80.146 162.805V156.545H81.2909V162.713C81.2909 163.175 81.3925 163.586 81.5956 163.946C81.7987 164.303 82.088 164.584 82.4635 164.79C82.842 164.994 83.2945 165.095 83.8207 165.095C84.347 165.095 84.7994 164.994 85.178 164.79C85.5565 164.584 85.8458 164.303 86.0459 163.946C86.249 163.586 86.3506 163.175 86.3506 162.713V156.545ZM89.634 166V158.909H90.6866V160.017H90.7789C90.9266 159.638 91.1652 159.345 91.4945 159.135C91.8238 158.923 92.2193 158.817 92.6809 158.817C93.1487 158.817 93.538 158.923 93.8489 159.135C94.1628 159.345 94.4075 159.638 94.5829 160.017H94.6568C94.8383 159.651 95.1107 159.36 95.4739 159.145C95.837 158.926 96.2725 158.817 96.7803 158.817C97.4143 158.817 97.9329 159.015 98.3361 159.412C98.7393 159.806 98.9408 160.42 98.9408 161.254V166H97.8514V161.254C97.8514 160.731 97.7082 160.357 97.422 160.132C97.1358 159.908 96.7988 159.795 96.411 159.795C95.9124 159.795 95.5262 159.946 95.2523 160.248C94.9784 160.546 94.8414 160.925 94.8414 161.384V166H93.7335V161.143C93.7335 160.74 93.6027 160.416 93.3411 160.169C93.0795 159.92 92.7425 159.795 92.3301 159.795C92.0469 159.795 91.7822 159.871 91.536 160.022C91.2929 160.172 91.0959 160.382 90.9451 160.65C90.7974 160.914 90.7235 161.22 90.7235 161.568V166H89.634ZM103.02 166.166C102.57 166.166 102.162 166.082 101.796 165.912C101.43 165.74 101.139 165.492 100.924 165.169C100.708 164.843 100.6 164.449 100.6 163.987C100.6 163.581 100.68 163.252 100.841 162.999C101.001 162.744 101.214 162.544 101.482 162.399C101.75 162.254 102.045 162.147 102.369 162.076C102.695 162.002 103.023 161.944 103.352 161.901C103.783 161.845 104.132 161.804 104.4 161.776C104.671 161.745 104.868 161.694 104.991 161.624C105.117 161.553 105.18 161.43 105.18 161.254V161.217C105.18 160.762 105.055 160.408 104.806 160.156C104.56 159.903 104.186 159.777 103.684 159.777C103.164 159.777 102.756 159.891 102.461 160.119C102.165 160.346 101.958 160.589 101.838 160.848L100.804 160.479C100.988 160.048 101.234 159.712 101.542 159.472C101.853 159.229 102.192 159.06 102.558 158.964C102.927 158.866 103.29 158.817 103.647 158.817C103.875 158.817 104.137 158.844 104.432 158.9C104.731 158.952 105.018 159.061 105.295 159.228C105.575 159.394 105.808 159.645 105.993 159.98C106.177 160.316 106.27 160.765 106.27 161.328V166H105.18V165.04H105.125C105.051 165.194 104.928 165.358 104.755 165.534C104.583 165.709 104.354 165.858 104.067 165.982C103.781 166.105 103.432 166.166 103.02 166.166ZM103.186 165.188C103.617 165.188 103.98 165.103 104.275 164.934C104.574 164.764 104.798 164.546 104.949 164.278C105.103 164.01 105.18 163.729 105.18 163.433V162.436C105.134 162.491 105.032 162.542 104.875 162.588C104.721 162.632 104.543 162.67 104.34 162.704C104.14 162.735 103.944 162.762 103.754 162.787C103.566 162.808 103.413 162.827 103.296 162.842C103.013 162.879 102.749 162.939 102.502 163.022C102.259 163.102 102.062 163.224 101.912 163.387C101.764 163.547 101.69 163.766 101.69 164.043C101.69 164.421 101.83 164.707 102.11 164.901C102.393 165.092 102.752 165.188 103.186 165.188ZM112.062 166V156.545H113.152V160.036H113.244C113.324 159.912 113.435 159.755 113.576 159.565C113.721 159.371 113.927 159.198 114.195 159.048C114.466 158.894 114.832 158.817 115.294 158.817C115.891 158.817 116.417 158.966 116.872 159.265C117.328 159.563 117.683 159.986 117.939 160.534C118.194 161.082 118.322 161.728 118.322 162.473C118.322 163.224 118.194 163.875 117.939 164.426C117.683 164.974 117.329 165.398 116.877 165.7C116.425 165.998 115.903 166.148 115.312 166.148C114.857 166.148 114.492 166.072 114.218 165.922C113.944 165.768 113.733 165.594 113.585 165.4C113.438 165.203 113.324 165.04 113.244 164.911H113.115V166H112.062ZM113.133 162.455C113.133 162.99 113.212 163.462 113.368 163.872C113.525 164.278 113.755 164.597 114.056 164.827C114.358 165.055 114.727 165.169 115.164 165.169C115.62 165.169 116 165.049 116.305 164.809C116.612 164.566 116.843 164.24 116.997 163.83C117.154 163.418 117.232 162.959 117.232 162.455C117.232 161.956 117.156 161.507 117.002 161.107C116.851 160.703 116.622 160.385 116.314 160.151C116.009 159.914 115.626 159.795 115.164 159.795C114.721 159.795 114.349 159.908 114.047 160.132C113.746 160.354 113.518 160.665 113.364 161.065C113.21 161.462 113.133 161.925 113.133 162.455ZM119.989 166V158.909H121.078V166H119.989ZM120.542 157.727C120.33 157.727 120.147 157.655 119.993 157.51C119.842 157.366 119.767 157.192 119.767 156.989C119.767 156.786 119.842 156.612 119.993 156.467C120.147 156.322 120.33 156.25 120.542 156.25C120.755 156.25 120.936 156.322 121.087 156.467C121.241 156.612 121.318 156.786 121.318 156.989C121.318 157.192 121.241 157.366 121.087 157.51C120.936 157.655 120.755 157.727 120.542 157.727ZM123.221 166V156.545H124.311V160.036H124.403C124.483 159.912 124.594 159.755 124.735 159.565C124.88 159.371 125.086 159.198 125.354 159.048C125.625 158.894 125.991 158.817 126.453 158.817C127.05 158.817 127.576 158.966 128.032 159.265C128.487 159.563 128.843 159.986 129.098 160.534C129.353 161.082 129.481 161.728 129.481 162.473C129.481 163.224 129.353 163.875 129.098 164.426C128.843 164.974 128.489 165.398 128.036 165.7C127.584 165.998 127.062 166.148 126.471 166.148C126.016 166.148 125.651 166.072 125.377 165.922C125.103 165.768 124.892 165.594 124.745 165.4C124.597 165.203 124.483 165.04 124.403 164.911H124.274V166H123.221ZM124.292 162.455C124.292 162.99 124.371 163.462 124.528 163.872C124.685 164.278 124.914 164.597 125.216 164.827C125.517 165.055 125.886 165.169 126.323 165.169C126.779 165.169 127.159 165.049 127.464 164.809C127.772 164.566 128.002 164.24 128.156 163.83C128.313 163.418 128.392 162.959 128.392 162.455C128.392 161.956 128.315 161.507 128.161 161.107C128.01 160.703 127.781 160.385 127.473 160.151C127.168 159.914 126.785 159.795 126.323 159.795C125.88 159.795 125.508 159.908 125.206 160.132C124.905 160.354 124.677 160.665 124.523 161.065C124.369 161.462 124.292 161.925 124.292 162.455ZM132.237 156.545V166H131.148V156.545H132.237ZM134.233 166V158.909H135.322V166H134.233ZM134.787 157.727C134.574 157.727 134.391 157.655 134.237 157.51C134.086 157.366 134.011 157.192 134.011 156.989C134.011 156.786 134.086 156.612 134.237 156.467C134.391 156.322 134.574 156.25 134.787 156.25C134.999 156.25 135.181 156.322 135.331 156.467C135.485 156.612 135.562 156.786 135.562 156.989C135.562 157.192 135.485 157.366 135.331 157.51C135.181 157.655 134.999 157.727 134.787 157.727ZM140.198 166.148C139.558 166.148 138.996 165.995 138.513 165.691C138.033 165.386 137.658 164.96 137.387 164.412C137.119 163.864 136.985 163.224 136.985 162.491C136.985 161.753 137.119 161.108 137.387 160.557C137.658 160.006 138.033 159.578 138.513 159.274C138.996 158.969 139.558 158.817 140.198 158.817C140.838 158.817 141.399 158.969 141.879 159.274C142.362 159.578 142.737 160.006 143.005 160.557C143.276 161.108 143.411 161.753 143.411 162.491C143.411 163.224 143.276 163.864 143.005 164.412C142.737 164.96 142.362 165.386 141.879 165.691C141.399 165.995 140.838 166.148 140.198 166.148ZM140.198 165.169C140.685 165.169 141.085 165.044 141.399 164.795C141.713 164.546 141.945 164.218 142.096 163.812C142.246 163.406 142.322 162.965 142.322 162.491C142.322 162.018 142.246 161.576 142.096 161.167C141.945 160.757 141.713 160.426 141.399 160.174C141.085 159.922 140.685 159.795 140.198 159.795C139.712 159.795 139.312 159.922 138.998 160.174C138.684 160.426 138.452 160.757 138.301 161.167C138.15 161.576 138.075 162.018 138.075 162.491C138.075 162.965 138.15 163.406 138.301 163.812C138.452 164.218 138.684 164.546 138.998 164.795C139.312 165.044 139.712 165.169 140.198 165.169ZM148.158 158.909V159.832H144.484V158.909H148.158ZM145.555 157.21H146.644V163.969C146.644 164.277 146.689 164.507 146.778 164.661C146.87 164.812 146.987 164.914 147.129 164.966C147.273 165.015 147.426 165.04 147.586 165.04C147.706 165.04 147.804 165.034 147.881 165.021C147.958 165.006 148.02 164.994 148.066 164.984L148.288 165.963C148.214 165.991 148.111 166.018 147.978 166.046C147.846 166.077 147.678 166.092 147.475 166.092C147.167 166.092 146.866 166.026 146.57 165.894C146.278 165.761 146.035 165.56 145.841 165.289C145.65 165.018 145.555 164.677 145.555 164.264V157.21ZM152.694 166.148C152.011 166.148 151.421 165.997 150.926 165.695C150.433 165.391 150.053 164.966 149.786 164.421C149.521 163.873 149.389 163.236 149.389 162.51C149.389 161.784 149.521 161.143 149.786 160.589C150.053 160.032 150.426 159.598 150.903 159.288C151.383 158.974 151.943 158.817 152.583 158.817C152.952 158.817 153.317 158.878 153.677 159.001C154.037 159.125 154.365 159.325 154.661 159.602C154.956 159.875 155.191 160.239 155.367 160.691C155.542 161.143 155.63 161.701 155.63 162.362V162.824H150.164V161.882H154.522C154.522 161.482 154.442 161.125 154.282 160.811C154.125 160.497 153.9 160.249 153.608 160.068C153.319 159.886 152.977 159.795 152.583 159.795C152.149 159.795 151.774 159.903 151.457 160.119C151.143 160.331 150.901 160.608 150.732 160.95C150.563 161.291 150.478 161.657 150.478 162.048V162.676C150.478 163.212 150.57 163.666 150.755 164.038C150.943 164.407 151.203 164.689 151.535 164.883C151.868 165.074 152.254 165.169 152.694 165.169C152.98 165.169 153.239 165.129 153.47 165.049C153.703 164.966 153.905 164.843 154.074 164.68C154.244 164.513 154.374 164.307 154.467 164.061L155.519 164.357C155.408 164.714 155.222 165.027 154.961 165.298C154.699 165.566 154.376 165.775 153.991 165.926C153.606 166.074 153.174 166.148 152.694 166.148ZM160.168 166.148C159.503 166.148 158.931 165.991 158.451 165.677C157.971 165.363 157.601 164.931 157.343 164.38C157.084 163.829 156.955 163.199 156.955 162.491C156.955 161.771 157.087 161.136 157.352 160.585C157.62 160.031 157.992 159.598 158.469 159.288C158.949 158.974 159.509 158.817 160.15 158.817C160.648 158.817 161.097 158.909 161.498 159.094C161.898 159.278 162.225 159.537 162.481 159.869C162.736 160.202 162.895 160.589 162.956 161.033H161.867C161.784 160.71 161.599 160.423 161.313 160.174C161.03 159.922 160.648 159.795 160.168 159.795C159.743 159.795 159.371 159.906 159.051 160.128C158.734 160.346 158.486 160.656 158.308 161.056C158.132 161.453 158.044 161.919 158.044 162.455C158.044 163.002 158.131 163.479 158.303 163.886C158.478 164.292 158.725 164.607 159.042 164.832C159.362 165.057 159.737 165.169 160.168 165.169C160.451 165.169 160.708 165.12 160.939 165.021C161.17 164.923 161.365 164.781 161.525 164.597C161.685 164.412 161.799 164.19 161.867 163.932H162.956C162.895 164.35 162.742 164.727 162.499 165.063C162.259 165.395 161.941 165.66 161.544 165.857C161.15 166.051 160.691 166.148 160.168 166.148ZM166.636 166.166C166.186 166.166 165.779 166.082 165.412 165.912C165.046 165.74 164.755 165.492 164.54 165.169C164.324 164.843 164.217 164.449 164.217 163.987C164.217 163.581 164.297 163.252 164.457 162.999C164.617 162.744 164.831 162.544 165.098 162.399C165.366 162.254 165.662 162.147 165.985 162.076C166.311 162.002 166.639 161.944 166.968 161.901C167.399 161.845 167.748 161.804 168.016 161.776C168.287 161.745 168.484 161.694 168.607 161.624C168.733 161.553 168.796 161.43 168.796 161.254V161.217C168.796 160.762 168.672 160.408 168.422 160.156C168.176 159.903 167.802 159.777 167.3 159.777C166.78 159.777 166.373 159.891 166.077 160.119C165.782 160.346 165.574 160.589 165.454 160.848L164.42 160.479C164.604 160.048 164.851 159.712 165.158 159.472C165.469 159.229 165.808 159.06 166.174 158.964C166.543 158.866 166.907 158.817 167.264 158.817C167.491 158.817 167.753 158.844 168.048 158.9C168.347 158.952 168.635 159.061 168.912 159.228C169.192 159.394 169.424 159.645 169.609 159.98C169.793 160.316 169.886 160.765 169.886 161.328V166H168.796V165.04H168.741C168.667 165.194 168.544 165.358 168.372 165.534C168.199 165.709 167.97 165.858 167.684 165.982C167.397 166.105 167.048 166.166 166.636 166.166ZM166.802 165.188C167.233 165.188 167.596 165.103 167.891 164.934C168.19 164.764 168.415 164.546 168.565 164.278C168.719 164.01 168.796 163.729 168.796 163.433V162.436C168.75 162.491 168.649 162.542 168.492 162.588C168.338 162.632 168.159 162.67 167.956 162.704C167.756 162.735 167.561 162.762 167.37 162.787C167.182 162.808 167.03 162.827 166.913 162.842C166.63 162.879 166.365 162.939 166.119 163.022C165.876 163.102 165.679 163.224 165.528 163.387C165.38 163.547 165.306 163.766 165.306 164.043C165.306 164.421 165.446 164.707 165.726 164.901C166.009 165.092 166.368 165.188 166.802 165.188ZM61.6311 172.545H62.7759V179.304C62.7759 179.907 62.6651 180.42 62.4436 180.841C62.222 181.263 61.9096 181.583 61.5064 181.801C61.1032 182.02 60.6277 182.129 60.0799 182.129C59.5629 182.129 59.1028 182.035 58.6996 181.848C58.2964 181.657 57.9794 181.386 57.7486 181.035C57.5178 180.684 57.4024 180.267 57.4024 179.784H58.5288C58.5288 180.052 58.595 180.286 58.7273 180.486C58.8627 180.683 59.0474 180.837 59.2813 180.947C59.5152 181.058 59.7814 181.114 60.0799 181.114C60.4092 181.114 60.6893 181.044 60.9201 180.906C61.1509 180.767 61.3264 180.564 61.4464 180.297C61.5695 180.026 61.6311 179.695 61.6311 179.304V172.545ZM67.0093 182.166C66.5599 182.166 66.1521 182.082 65.7859 181.912C65.4196 181.74 65.1288 181.492 64.9134 181.169C64.6979 180.843 64.5902 180.449 64.5902 179.987C64.5902 179.581 64.6702 179.252 64.8303 178.999C64.9903 178.744 65.2042 178.544 65.472 178.399C65.7397 178.254 66.0352 178.147 66.3583 178.076C66.6846 178.002 67.0123 177.944 67.3416 177.901C67.7725 177.845 68.1218 177.804 68.3896 177.776C68.6604 177.745 68.8574 177.694 68.9805 177.624C69.1067 177.553 69.1698 177.43 69.1698 177.254V177.217C69.1698 176.762 69.0451 176.408 68.7958 176.156C68.5496 175.903 68.1757 175.777 67.674 175.777C67.1539 175.777 66.7461 175.891 66.4507 176.119C66.1552 176.346 65.9475 176.589 65.8274 176.848L64.7933 176.479C64.978 176.048 65.2242 175.712 65.532 175.472C65.8428 175.229 66.1814 175.06 66.5476 174.964C66.9169 174.866 67.2801 174.817 67.6371 174.817C67.8648 174.817 68.1264 174.844 68.4219 174.9C68.7204 174.952 69.0082 175.061 69.2852 175.228C69.5652 175.394 69.7976 175.645 69.9823 175.98C70.1669 176.316 70.2593 176.765 70.2593 177.328V182H69.1698V181.04H69.1144C69.0405 181.194 68.9174 181.358 68.745 181.534C68.5727 181.709 68.3434 181.858 68.0572 181.982C67.771 182.105 67.4217 182.166 67.0093 182.166ZM67.1754 181.188C67.6063 181.188 67.9695 181.103 68.2649 180.934C68.5635 180.764 68.7881 180.546 68.9389 180.278C69.0928 180.01 69.1698 179.729 69.1698 179.433V178.436C69.1236 178.491 69.022 178.542 68.8651 178.588C68.7112 178.632 68.5327 178.67 68.3296 178.704C68.1295 178.735 67.9341 178.762 67.7433 178.787C67.5555 178.808 67.4032 178.827 67.2862 178.842C67.0031 178.879 66.7384 178.939 66.4922 179.022C66.2491 179.102 66.0521 179.224 65.9013 179.387C65.7536 179.547 65.6797 179.766 65.6797 180.043C65.6797 180.421 65.8197 180.707 66.0998 180.901C66.383 181.092 66.7415 181.188 67.1754 181.188ZM77.7922 174.909L75.17 182H74.0621L71.4399 174.909H72.6217L74.5791 180.56H74.653L76.6104 174.909H77.7922ZM81.101 182.166C80.6517 182.166 80.2439 182.082 79.8777 181.912C79.5114 181.74 79.2206 181.492 79.0052 181.169C78.7897 180.843 78.682 180.449 78.682 179.987C78.682 179.581 78.762 179.252 78.9221 178.999C79.0821 178.744 79.296 178.544 79.5638 178.399C79.8315 178.254 80.127 178.147 80.4501 178.076C80.7764 178.002 81.1041 177.944 81.4334 177.901C81.8643 177.845 82.2136 177.804 82.4814 177.776C82.7522 177.745 82.9492 177.694 83.0723 177.624C83.1985 177.553 83.2616 177.43 83.2616 177.254V177.217C83.2616 176.762 83.1369 176.408 82.8876 176.156C82.6414 175.903 82.2675 175.777 81.7658 175.777C81.2457 175.777 80.8379 175.891 80.5425 176.119C80.247 176.346 80.0393 176.589 79.9192 176.848L78.8851 176.479C79.0698 176.048 79.316 175.712 79.6238 175.472C79.9346 175.229 80.2732 175.06 80.6394 174.964C81.0087 174.866 81.3719 174.817 81.7289 174.817C81.9566 174.817 82.2182 174.844 82.5137 174.9C82.8122 174.952 83.1 175.061 83.377 175.228C83.657 175.394 83.8894 175.645 84.0741 175.98C84.2587 176.316 84.351 176.765 84.351 177.328V182H83.2616V181.04H83.2062C83.1323 181.194 83.0092 181.358 82.8368 181.534C82.6645 181.709 82.4352 181.858 82.149 181.982C81.8628 182.105 81.5135 182.166 81.101 182.166ZM81.2672 181.188C81.6981 181.188 82.0613 181.103 82.3567 180.934C82.6553 180.764 82.8799 180.546 83.0307 180.278C83.1846 180.01 83.2616 179.729 83.2616 179.433V178.436C83.2154 178.491 83.1138 178.542 82.9569 178.588C82.803 178.632 82.6245 178.67 82.4214 178.704C82.2213 178.735 82.0259 178.762 81.8351 178.787C81.6473 178.808 81.495 178.827 81.378 178.842C81.0949 178.879 80.8302 178.939 80.584 179.022C80.3409 179.102 80.1439 179.224 79.9931 179.387C79.8454 179.547 79.7715 179.766 79.7715 180.043C79.7715 180.421 79.9115 180.707 80.1916 180.901C80.4747 181.092 80.8333 181.188 81.2672 181.188ZM91.6578 174.909C91.6024 174.441 91.3777 174.078 90.9838 173.82C90.5898 173.561 90.1066 173.432 89.5342 173.432C89.1156 173.432 88.7494 173.5 88.4355 173.635C88.1246 173.77 87.8815 173.957 87.7061 174.194C87.5337 174.431 87.4476 174.7 87.4476 175.001C87.4476 175.254 87.5076 175.471 87.6276 175.652C87.7507 175.831 87.9077 175.98 88.0985 176.1C88.2893 176.217 88.4893 176.314 88.6986 176.391C88.9079 176.465 89.1003 176.525 89.2757 176.571L90.2359 176.83C90.4821 176.894 90.756 176.983 91.0576 177.097C91.3623 177.211 91.6532 177.367 91.9302 177.564C92.2102 177.757 92.441 178.007 92.6226 178.311C92.8042 178.616 92.895 178.99 92.895 179.433C92.895 179.944 92.7611 180.406 92.4934 180.818C92.2287 181.231 91.8409 181.558 91.33 181.801C90.8222 182.045 90.2051 182.166 89.4788 182.166C88.8017 182.166 88.2154 182.057 87.7199 181.838C87.2275 181.62 86.8397 181.315 86.5566 180.924C86.2765 180.533 86.118 180.08 86.0811 179.562H87.2629C87.2937 179.92 87.4137 180.215 87.623 180.449C87.8353 180.68 88.1031 180.852 88.4262 180.966C88.7525 181.077 89.1033 181.132 89.4788 181.132C89.9158 181.132 90.3082 181.061 90.656 180.92C91.0038 180.775 91.2792 180.575 91.4824 180.32C91.6855 180.061 91.787 179.759 91.787 179.415C91.787 179.101 91.6993 178.845 91.5239 178.648C91.3485 178.451 91.1177 178.291 90.8314 178.168C90.5452 178.045 90.2359 177.937 89.9035 177.845L88.7402 177.513C88.0015 177.3 87.4168 176.997 86.9859 176.603C86.555 176.209 86.3396 175.694 86.3396 175.057C86.3396 174.527 86.4827 174.066 86.7689 173.672C87.0582 173.275 87.446 172.967 87.9323 172.749C88.4216 172.527 88.9679 172.416 89.5711 172.416C90.1805 172.416 90.7222 172.525 91.1961 172.744C91.6701 172.959 92.0456 173.255 92.3226 173.63C92.6026 174.006 92.7503 174.432 92.7657 174.909H91.6578ZM97.5103 182.148C96.8455 182.148 96.2731 181.991 95.793 181.677C95.3129 181.363 94.9436 180.931 94.685 180.38C94.4265 179.829 94.2972 179.199 94.2972 178.491C94.2972 177.771 94.4296 177.136 94.6943 176.585C94.962 176.031 95.3344 175.598 95.8115 175.288C96.2916 174.974 96.8517 174.817 97.4919 174.817C97.9904 174.817 98.4398 174.909 98.8399 175.094C99.24 175.278 99.5677 175.537 99.8232 175.869C100.079 176.202 100.237 176.589 100.299 177.033H99.2092C99.1261 176.71 98.9414 176.423 98.6552 176.174C98.3721 175.922 97.9904 175.795 97.5103 175.795C97.0856 175.795 96.7132 175.906 96.3931 176.128C96.0761 176.346 95.8284 176.656 95.6499 177.056C95.4745 177.453 95.3867 177.919 95.3867 178.455C95.3867 179.002 95.4729 179.479 95.6453 179.886C95.8207 180.292 96.0669 180.607 96.3839 180.832C96.704 181.057 97.0794 181.169 97.5103 181.169C97.7935 181.169 98.0504 181.12 98.2813 181.021C98.5121 180.923 98.7075 180.781 98.8676 180.597C99.0276 180.412 99.1415 180.19 99.2092 179.932H100.299C100.237 180.35 100.085 180.727 99.8416 181.063C99.6016 181.395 99.283 181.66 98.886 181.857C98.4921 182.051 98.0335 182.148 97.5103 182.148ZM101.891 182V174.909H102.944V175.98H103.018C103.147 175.629 103.381 175.345 103.719 175.126C104.058 174.908 104.44 174.798 104.864 174.798C104.944 174.798 105.044 174.8 105.164 174.803C105.284 174.806 105.375 174.811 105.437 174.817V175.925C105.4 175.915 105.315 175.902 105.183 175.883C105.054 175.862 104.917 175.851 104.772 175.851C104.427 175.851 104.12 175.923 103.849 176.068C103.581 176.209 103.369 176.406 103.212 176.659C103.058 176.908 102.981 177.193 102.981 177.513V182H101.891ZM106.728 182V174.909H107.818V182H106.728ZM107.282 173.727C107.07 173.727 106.887 173.655 106.733 173.51C106.582 173.366 106.507 173.192 106.507 172.989C106.507 172.786 106.582 172.612 106.733 172.467C106.887 172.322 107.07 172.25 107.282 172.25C107.495 172.25 107.676 172.322 107.827 172.467C107.981 172.612 108.058 172.786 108.058 172.989C108.058 173.192 107.981 173.366 107.827 173.51C107.676 173.655 107.495 173.727 107.282 173.727ZM109.813 184.659V174.909H110.866V176.036H110.995C111.075 175.912 111.186 175.755 111.327 175.565C111.472 175.371 111.678 175.198 111.946 175.048C112.217 174.894 112.583 174.817 113.045 174.817C113.642 174.817 114.168 174.966 114.624 175.265C115.079 175.563 115.435 175.986 115.69 176.534C115.945 177.082 116.073 177.728 116.073 178.473C116.073 179.224 115.945 179.875 115.69 180.426C115.435 180.974 115.081 181.398 114.628 181.7C114.176 181.998 113.654 182.148 113.063 182.148C112.608 182.148 112.243 182.072 111.969 181.922C111.695 181.768 111.484 181.594 111.337 181.4C111.189 181.203 111.075 181.04 110.995 180.911H110.903V184.659H109.813ZM110.884 178.455C110.884 178.99 110.963 179.462 111.12 179.872C111.277 180.278 111.506 180.597 111.808 180.827C112.109 181.055 112.478 181.169 112.916 181.169C113.371 181.169 113.751 181.049 114.056 180.809C114.364 180.566 114.594 180.24 114.748 179.83C114.905 179.418 114.984 178.959 114.984 178.455C114.984 177.956 114.907 177.507 114.753 177.107C114.602 176.703 114.373 176.385 114.065 176.151C113.76 175.914 113.377 175.795 112.916 175.795C112.472 175.795 112.1 175.908 111.798 176.132C111.497 176.354 111.269 176.665 111.115 177.065C110.961 177.462 110.884 177.925 110.884 178.455ZM120.819 174.909V175.832H117.144V174.909H120.819ZM118.215 173.21H119.305V179.969C119.305 180.277 119.349 180.507 119.439 180.661C119.531 180.812 119.648 180.914 119.789 180.966C119.934 181.015 120.086 181.04 120.246 181.04C120.366 181.04 120.465 181.034 120.542 181.021C120.619 181.006 120.68 180.994 120.727 180.984L120.948 181.963C120.874 181.991 120.771 182.018 120.639 182.046C120.507 182.077 120.339 182.092 120.136 182.092C119.828 182.092 119.526 182.026 119.231 181.894C118.938 181.761 118.695 181.56 118.501 181.289C118.311 181.018 118.215 180.677 118.215 180.264V173.21ZM128.995 182.148C128.33 182.148 127.757 181.991 127.277 181.677C126.797 181.363 126.428 180.931 126.169 180.38C125.911 179.829 125.782 179.199 125.782 178.491C125.782 177.771 125.914 177.136 126.179 176.585C126.446 176.031 126.819 175.598 127.296 175.288C127.776 174.974 128.336 174.817 128.976 174.817C129.475 174.817 129.924 174.909 130.324 175.094C130.724 175.278 131.052 175.537 131.308 175.869C131.563 176.202 131.721 176.589 131.783 177.033H130.694C130.61 176.71 130.426 176.423 130.14 176.174C129.856 175.922 129.475 175.795 128.995 175.795C128.57 175.795 128.198 175.906 127.878 176.128C127.561 176.346 127.313 176.656 127.134 177.056C126.959 177.453 126.871 177.919 126.871 178.455C126.871 179.002 126.957 179.479 127.13 179.886C127.305 180.292 127.551 180.607 127.868 180.832C128.188 181.057 128.564 181.169 128.995 181.169C129.278 181.169 129.535 181.12 129.766 181.021C129.996 180.923 130.192 180.781 130.352 180.597C130.512 180.412 130.626 180.19 130.694 179.932H131.783C131.721 180.35 131.569 180.727 131.326 181.063C131.086 181.395 130.767 181.66 130.37 181.857C129.976 182.051 129.518 182.148 128.995 182.148ZM133.376 182V174.909H134.428V175.98H134.502C134.631 175.629 134.865 175.345 135.204 175.126C135.542 174.908 135.924 174.798 136.349 174.798C136.429 174.798 136.529 174.8 136.649 174.803C136.769 174.806 136.86 174.811 136.921 174.817V175.925C136.884 175.915 136.8 175.902 136.667 175.883C136.538 175.862 136.401 175.851 136.256 175.851C135.912 175.851 135.604 175.923 135.333 176.068C135.065 176.209 134.853 176.406 134.696 176.659C134.542 176.908 134.465 177.193 134.465 177.513V182H133.376ZM138.213 182V174.909H139.302V182H138.213ZM138.767 173.727C138.554 173.727 138.371 173.655 138.217 173.51C138.066 173.366 137.991 173.192 137.991 172.989C137.991 172.786 138.066 172.612 138.217 172.467C138.371 172.322 138.554 172.25 138.767 172.25C138.979 172.25 139.161 172.322 139.311 172.467C139.465 172.612 139.542 172.786 139.542 172.989C139.542 173.192 139.465 173.366 139.311 173.51C139.161 173.655 138.979 173.727 138.767 173.727ZM143.384 182.166C142.935 182.166 142.527 182.082 142.161 181.912C141.795 181.74 141.504 181.492 141.288 181.169C141.073 180.843 140.965 180.449 140.965 179.987C140.965 179.581 141.045 179.252 141.205 178.999C141.365 178.744 141.579 178.544 141.847 178.399C142.115 178.254 142.41 178.147 142.733 178.076C143.06 178.002 143.387 177.944 143.717 177.901C144.148 177.845 144.497 177.804 144.765 177.776C145.035 177.745 145.232 177.694 145.355 177.624C145.482 177.553 145.545 177.43 145.545 177.254V177.217C145.545 176.762 145.42 176.408 145.171 176.156C144.925 175.903 144.551 175.777 144.049 175.777C143.529 175.777 143.121 175.891 142.826 176.119C142.53 176.346 142.322 176.589 142.202 176.848L141.168 176.479C141.353 176.048 141.599 175.712 141.907 175.472C142.218 175.229 142.556 175.06 142.923 174.964C143.292 174.866 143.655 174.817 144.012 174.817C144.24 174.817 144.501 174.844 144.797 174.9C145.095 174.952 145.383 175.061 145.66 175.228C145.94 175.394 146.173 175.645 146.357 175.98C146.542 176.316 146.634 176.765 146.634 177.328V182H145.545V181.04H145.489C145.416 181.194 145.292 181.358 145.12 181.534C144.948 181.709 144.718 181.858 144.432 181.982C144.146 182.105 143.797 182.166 143.384 182.166ZM143.55 181.188C143.981 181.188 144.344 181.103 144.64 180.934C144.938 180.764 145.163 180.546 145.314 180.278C145.468 180.01 145.545 179.729 145.545 179.433V178.436C145.499 178.491 145.397 178.542 145.24 178.588C145.086 178.632 144.908 178.67 144.705 178.704C144.505 178.735 144.309 178.762 144.118 178.787C143.931 178.808 143.778 178.827 143.661 178.842C143.378 178.879 143.113 178.939 142.867 179.022C142.624 179.102 142.427 179.224 142.276 179.387C142.129 179.547 142.055 179.766 142.055 180.043C142.055 180.421 142.195 180.707 142.475 180.901C142.758 181.092 143.116 181.188 143.55 181.188ZM151.3 182.148C150.709 182.148 150.188 181.998 149.735 181.7C149.283 181.398 148.929 180.974 148.674 180.426C148.418 179.875 148.29 179.224 148.29 178.473C148.29 177.728 148.418 177.082 148.674 176.534C148.929 175.986 149.284 175.563 149.74 175.265C150.195 174.966 150.722 174.817 151.319 174.817C151.78 174.817 152.145 174.894 152.413 175.048C152.684 175.198 152.89 175.371 153.032 175.565C153.176 175.755 153.289 175.912 153.369 176.036H153.461V172.545H154.55V182H153.498V180.911H153.369C153.289 181.04 153.175 181.203 153.027 181.4C152.879 181.594 152.668 181.768 152.394 181.922C152.121 182.072 151.756 182.148 151.3 182.148ZM151.448 181.169C151.885 181.169 152.254 181.055 152.556 180.827C152.858 180.597 153.087 180.278 153.244 179.872C153.401 179.462 153.479 178.99 153.479 178.455C153.479 177.925 153.402 177.462 153.249 177.065C153.095 176.665 152.867 176.354 152.565 176.132C152.264 175.908 151.891 175.795 151.448 175.795C150.986 175.795 150.602 175.914 150.294 176.151C149.989 176.385 149.76 176.703 149.606 177.107C149.455 177.507 149.38 177.956 149.38 178.455C149.38 178.959 149.457 179.418 149.611 179.83C149.768 180.24 149.999 180.566 150.303 180.809C150.611 181.049 150.993 181.169 151.448 181.169ZM158.784 182.166C158.334 182.166 157.927 182.082 157.56 181.912C157.194 181.74 156.903 181.492 156.688 181.169C156.472 180.843 156.365 180.449 156.365 179.987C156.365 179.581 156.445 179.252 156.605 178.999C156.765 178.744 156.979 178.544 157.246 178.399C157.514 178.254 157.81 178.147 158.133 178.076C158.459 178.002 158.787 177.944 159.116 177.901C159.547 177.845 159.896 177.804 160.164 177.776C160.435 177.745 160.632 177.694 160.755 177.624C160.881 177.553 160.944 177.43 160.944 177.254V177.217C160.944 176.762 160.82 176.408 160.57 176.156C160.324 175.903 159.95 175.777 159.448 175.777C158.928 175.777 158.521 175.891 158.225 176.119C157.93 176.346 157.722 176.589 157.602 176.848L156.568 176.479C156.752 176.048 156.999 175.712 157.306 175.472C157.617 175.229 157.956 175.06 158.322 174.964C158.691 174.866 159.054 174.817 159.412 174.817C159.639 174.817 159.901 174.844 160.196 174.9C160.495 174.952 160.783 175.061 161.06 175.228C161.34 175.394 161.572 175.645 161.757 175.98C161.941 176.316 162.034 176.765 162.034 177.328V182H160.944V181.04H160.889C160.815 181.194 160.692 181.358 160.519 181.534C160.347 181.709 160.118 181.858 159.832 181.982C159.545 182.105 159.196 182.166 158.784 182.166ZM158.95 181.188C159.381 181.188 159.744 181.103 160.039 180.934C160.338 180.764 160.563 180.546 160.713 180.278C160.867 180.01 160.944 179.729 160.944 179.433V178.436C160.898 178.491 160.796 178.542 160.639 178.588C160.486 178.632 160.307 178.67 160.104 178.704C159.904 178.735 159.709 178.762 159.518 178.787C159.33 178.808 159.178 178.827 159.061 178.842C158.778 178.879 158.513 178.939 158.267 179.022C158.023 179.102 157.827 179.224 157.676 179.387C157.528 179.547 157.454 179.766 157.454 180.043C157.454 180.421 157.594 180.707 157.874 180.901C158.157 181.092 158.516 181.188 158.95 181.188ZM167.678 184.659V174.909H168.731V176.036H168.86C168.94 175.912 169.051 175.755 169.193 175.565C169.337 175.371 169.544 175.198 169.811 175.048C170.082 174.894 170.448 174.817 170.91 174.817C171.507 174.817 172.033 174.966 172.489 175.265C172.944 175.563 173.3 175.986 173.555 176.534C173.811 177.082 173.938 177.728 173.938 178.473C173.938 179.224 173.811 179.875 173.555 180.426C173.3 180.974 172.946 181.398 172.493 181.7C172.041 181.998 171.519 182.148 170.928 182.148C170.473 182.148 170.108 182.072 169.834 181.922C169.56 181.768 169.35 181.594 169.202 181.4C169.054 181.203 168.94 181.04 168.86 180.911H168.768V184.659H167.678ZM168.749 178.455C168.749 178.99 168.828 179.462 168.985 179.872C169.142 180.278 169.371 180.597 169.673 180.827C169.974 181.055 170.344 181.169 170.781 181.169C171.236 181.169 171.616 181.049 171.921 180.809C172.229 180.566 172.46 180.24 172.613 179.83C172.77 179.418 172.849 178.959 172.849 178.455C172.849 177.956 172.772 177.507 172.618 177.107C172.467 176.703 172.238 176.385 171.93 176.151C171.626 175.914 171.242 175.795 170.781 175.795C170.338 175.795 169.965 175.908 169.664 176.132C169.362 176.354 169.134 176.665 168.98 177.065C168.826 177.462 168.749 177.925 168.749 178.455ZM178.573 182.148C177.89 182.148 177.301 181.997 176.805 181.695C176.313 181.391 175.933 180.966 175.665 180.421C175.4 179.873 175.268 179.236 175.268 178.51C175.268 177.784 175.4 177.143 175.665 176.589C175.933 176.032 176.305 175.598 176.782 175.288C177.262 174.974 177.822 174.817 178.463 174.817C178.832 174.817 179.197 174.878 179.557 175.001C179.917 175.125 180.245 175.325 180.54 175.602C180.835 175.875 181.071 176.239 181.246 176.691C181.422 177.143 181.509 177.701 181.509 178.362V178.824H176.044V177.882H180.401C180.401 177.482 180.321 177.125 180.161 176.811C180.004 176.497 179.78 176.249 179.487 176.068C179.198 175.886 178.856 175.795 178.463 175.795C178.029 175.795 177.653 175.903 177.336 176.119C177.022 176.331 176.781 176.608 176.611 176.95C176.442 177.291 176.357 177.657 176.357 178.048V178.676C176.357 179.212 176.45 179.666 176.634 180.038C176.822 180.407 177.082 180.689 177.415 180.883C177.747 181.074 178.133 181.169 178.573 181.169C178.86 181.169 179.118 181.129 179.349 181.049C179.583 180.966 179.784 180.843 179.954 180.68C180.123 180.513 180.254 180.307 180.346 180.061L181.399 180.357C181.288 180.714 181.102 181.027 180.84 181.298C180.578 181.566 180.255 181.775 179.871 181.926C179.486 182.074 179.053 182.148 178.573 182.148ZM184.256 172.545V182H183.167V172.545H184.256ZM189.132 182.148C188.492 182.148 187.931 181.995 187.447 181.691C186.967 181.386 186.592 180.96 186.321 180.412C186.053 179.864 185.919 179.224 185.919 178.491C185.919 177.753 186.053 177.108 186.321 176.557C186.592 176.006 186.967 175.578 187.447 175.274C187.931 174.969 188.492 174.817 189.132 174.817C189.773 174.817 190.333 174.969 190.813 175.274C191.296 175.578 191.671 176.006 191.939 176.557C192.21 177.108 192.345 177.753 192.345 178.491C192.345 179.224 192.21 179.864 191.939 180.412C191.671 180.96 191.296 181.386 190.813 181.691C190.333 181.995 189.773 182.148 189.132 182.148ZM189.132 181.169C189.619 181.169 190.019 181.044 190.333 180.795C190.647 180.546 190.879 180.218 191.03 179.812C191.181 179.406 191.256 178.965 191.256 178.491C191.256 178.018 191.181 177.576 191.03 177.167C190.879 176.757 190.647 176.426 190.333 176.174C190.019 175.922 189.619 175.795 189.132 175.795C188.646 175.795 188.246 175.922 187.932 176.174C187.618 176.426 187.386 176.757 187.235 177.167C187.084 177.576 187.009 178.018 187.009 178.491C187.009 178.965 187.084 179.406 187.235 179.812C187.386 180.218 187.618 180.546 187.932 180.795C188.246 181.044 188.646 181.169 189.132 181.169ZM84.9143 190.909V191.832H81.0918V190.909H84.9143ZM82.2367 198V189.93C82.2367 189.524 82.3321 189.186 82.5229 188.915C82.7137 188.644 82.9615 188.441 83.2662 188.305C83.5709 188.17 83.8925 188.102 84.231 188.102C84.4988 188.102 84.7173 188.124 84.8866 188.167C85.0558 188.21 85.182 188.25 85.2651 188.287L84.9512 189.229C84.8958 189.21 84.8189 189.187 84.7204 189.159C84.625 189.132 84.4988 189.118 84.3418 189.118C83.9817 189.118 83.7217 189.209 83.5616 189.39C83.4047 189.572 83.3262 189.838 83.3262 190.189V198H82.2367ZM88.3247 198.166C87.8753 198.166 87.4676 198.082 87.1013 197.912C86.7351 197.74 86.4442 197.492 86.2288 197.169C86.0134 196.843 85.9056 196.449 85.9056 195.987C85.9056 195.581 85.9857 195.252 86.1457 194.999C86.3057 194.744 86.5196 194.544 86.7874 194.399C87.0552 194.254 87.3506 194.147 87.6738 194.076C88 194.002 88.3278 193.944 88.6571 193.901C89.0879 193.845 89.4373 193.804 89.705 193.776C89.9758 193.745 90.1728 193.694 90.2959 193.624C90.4221 193.553 90.4852 193.43 90.4852 193.254V193.217C90.4852 192.762 90.3605 192.408 90.1113 192.156C89.865 191.903 89.4911 191.777 88.9895 191.777C88.4693 191.777 88.0615 191.891 87.7661 192.119C87.4706 192.346 87.2629 192.589 87.1429 192.848L86.1088 192.479C86.2934 192.048 86.5396 191.712 86.8474 191.472C87.1583 191.229 87.4968 191.06 87.863 190.964C88.2324 190.866 88.5955 190.817 88.9525 190.817C89.1803 190.817 89.4419 190.844 89.7373 190.9C90.0359 190.952 90.3236 191.061 90.6006 191.228C90.8807 191.394 91.113 191.645 91.2977 191.98C91.4824 192.316 91.5747 192.765 91.5747 193.328V198H90.4852V197.04H90.4298C90.3559 197.194 90.2328 197.358 90.0605 197.534C89.8881 197.709 89.6588 197.858 89.3726 197.982C89.0864 198.105 88.7371 198.166 88.3247 198.166ZM88.4909 197.188C88.9217 197.188 89.2849 197.103 89.5804 196.934C89.8789 196.764 90.1036 196.546 90.2544 196.278C90.4083 196.01 90.4852 195.729 90.4852 195.433V194.436C90.439 194.491 90.3375 194.542 90.1805 194.588C90.0266 194.632 89.8481 194.67 89.645 194.704C89.4449 194.735 89.2495 194.762 89.0587 194.787C88.871 194.808 88.7186 194.827 88.6017 194.842C88.3185 194.879 88.0538 194.939 87.8076 195.022C87.5645 195.102 87.3675 195.224 87.2167 195.387C87.069 195.547 86.9951 195.766 86.9951 196.043C86.9951 196.421 87.1352 196.707 87.4152 196.901C87.6984 197.092 88.0569 197.188 88.4909 197.188ZM96.4439 198.148C95.7791 198.148 95.2067 197.991 94.7266 197.677C94.2465 197.363 93.8772 196.931 93.6186 196.38C93.3601 195.829 93.2308 195.199 93.2308 194.491C93.2308 193.771 93.3632 193.136 93.6279 192.585C93.8956 192.031 94.268 191.598 94.745 191.288C95.2252 190.974 95.7853 190.817 96.4254 190.817C96.924 190.817 97.3734 190.909 97.7735 191.094C98.1736 191.278 98.5013 191.537 98.7568 191.869C99.0122 192.202 99.1707 192.589 99.2323 193.033H98.1428C98.0597 192.71 97.875 192.423 97.5888 192.174C97.3057 191.922 96.924 191.795 96.4439 191.795C96.0192 191.795 95.6468 191.906 95.3267 192.128C95.0097 192.346 94.762 192.656 94.5835 193.056C94.408 193.453 94.3203 193.919 94.3203 194.455C94.3203 195.002 94.4065 195.479 94.5789 195.886C94.7543 196.292 95.0005 196.607 95.3175 196.832C95.6376 197.057 96.013 197.169 96.4439 197.169C96.7271 197.169 96.984 197.12 97.2149 197.021C97.4457 196.923 97.6411 196.781 97.8012 196.597C97.9612 196.412 98.0751 196.19 98.1428 195.932H99.2323C99.1707 196.35 99.0184 196.727 98.7752 197.063C98.5352 197.395 98.2166 197.66 97.8196 197.857C97.4257 198.051 96.9671 198.148 96.4439 198.148ZM103.798 198.148C103.115 198.148 102.525 197.997 102.03 197.695C101.537 197.391 101.157 196.966 100.89 196.421C100.625 195.873 100.493 195.236 100.493 194.51C100.493 193.784 100.625 193.143 100.89 192.589C101.157 192.032 101.53 191.598 102.007 191.288C102.487 190.974 103.047 190.817 103.687 190.817C104.056 190.817 104.421 190.878 104.781 191.001C105.141 191.125 105.469 191.325 105.765 191.602C106.06 191.875 106.295 192.239 106.471 192.691C106.646 193.143 106.734 193.701 106.734 194.362V194.824H101.268V193.882H105.626C105.626 193.482 105.546 193.125 105.386 192.811C105.229 192.497 105.004 192.249 104.712 192.068C104.423 191.886 104.081 191.795 103.687 191.795C103.253 191.795 102.878 191.903 102.561 192.119C102.247 192.331 102.005 192.608 101.836 192.95C101.667 193.291 101.582 193.657 101.582 194.048V194.676C101.582 195.212 101.674 195.666 101.859 196.038C102.047 196.407 102.307 196.689 102.639 196.883C102.972 197.074 103.358 197.169 103.798 197.169C104.084 197.169 104.343 197.129 104.574 197.049C104.807 196.966 105.009 196.843 105.178 196.68C105.348 196.513 105.478 196.307 105.571 196.061L106.623 196.357C106.512 196.714 106.326 197.027 106.065 197.298C105.803 197.566 105.48 197.775 105.095 197.926C104.71 198.074 104.278 198.148 103.798 198.148ZM108.539 198V188.545H109.629V192.036H109.721C109.801 191.912 109.912 191.755 110.053 191.565C110.198 191.371 110.404 191.198 110.672 191.048C110.943 190.894 111.309 190.817 111.771 190.817C112.368 190.817 112.894 190.966 113.349 191.265C113.805 191.563 114.16 191.986 114.416 192.534C114.671 193.082 114.799 193.728 114.799 194.473C114.799 195.224 114.671 195.875 114.416 196.426C114.16 196.974 113.806 197.398 113.354 197.7C112.902 197.998 112.38 198.148 111.789 198.148C111.334 198.148 110.969 198.072 110.695 197.922C110.421 197.768 110.21 197.594 110.063 197.4C109.915 197.203 109.801 197.04 109.721 196.911H109.592V198H108.539ZM109.61 194.455C109.61 194.99 109.689 195.462 109.846 195.872C110.003 196.278 110.232 196.597 110.533 196.827C110.835 197.055 111.204 197.169 111.641 197.169C112.097 197.169 112.477 197.049 112.782 196.809C113.089 196.566 113.32 196.24 113.474 195.83C113.631 195.418 113.71 194.959 113.71 194.455C113.71 193.956 113.633 193.507 113.479 193.107C113.328 192.703 113.099 192.385 112.791 192.151C112.486 191.914 112.103 191.795 111.641 191.795C111.198 191.795 110.826 191.908 110.524 192.132C110.223 192.354 109.995 192.665 109.841 193.065C109.687 193.462 109.61 193.925 109.61 194.455ZM119.346 198.148C118.706 198.148 118.144 197.995 117.661 197.691C117.181 197.386 116.806 196.96 116.535 196.412C116.267 195.864 116.133 195.224 116.133 194.491C116.133 193.753 116.267 193.108 116.535 192.557C116.806 192.006 117.181 191.578 117.661 191.274C118.144 190.969 118.706 190.817 119.346 190.817C119.986 190.817 120.547 190.969 121.027 191.274C121.51 191.578 121.885 192.006 122.153 192.557C122.424 193.108 122.559 193.753 122.559 194.491C122.559 195.224 122.424 195.864 122.153 196.412C121.885 196.96 121.51 197.386 121.027 197.691C120.547 197.995 119.986 198.148 119.346 198.148ZM119.346 197.169C119.833 197.169 120.233 197.044 120.547 196.795C120.86 196.546 121.093 196.218 121.244 195.812C121.394 195.406 121.47 194.965 121.47 194.491C121.47 194.018 121.394 193.576 121.244 193.167C121.093 192.757 120.86 192.426 120.547 192.174C120.233 191.922 119.833 191.795 119.346 191.795C118.86 191.795 118.46 191.922 118.146 192.174C117.832 192.426 117.6 192.757 117.449 193.167C117.298 193.576 117.223 194.018 117.223 194.491C117.223 194.965 117.298 195.406 117.449 195.812C117.6 196.218 117.832 196.546 118.146 196.795C118.46 197.044 118.86 197.169 119.346 197.169ZM127.103 198.148C126.463 198.148 125.901 197.995 125.418 197.691C124.938 197.386 124.562 196.96 124.292 196.412C124.024 195.864 123.89 195.224 123.89 194.491C123.89 193.753 124.024 193.108 124.292 192.557C124.562 192.006 124.938 191.578 125.418 191.274C125.901 190.969 126.463 190.817 127.103 190.817C127.743 190.817 128.303 190.969 128.783 191.274C129.267 191.578 129.642 192.006 129.91 192.557C130.181 193.108 130.316 193.753 130.316 194.491C130.316 195.224 130.181 195.864 129.91 196.412C129.642 196.96 129.267 197.386 128.783 197.691C128.303 197.995 127.743 198.148 127.103 198.148ZM127.103 197.169C127.589 197.169 127.989 197.044 128.303 196.795C128.617 196.546 128.85 196.218 129 195.812C129.151 195.406 129.227 194.965 129.227 194.491C129.227 194.018 129.151 193.576 129 193.167C128.85 192.757 128.617 192.426 128.303 192.174C127.989 191.922 127.589 191.795 127.103 191.795C126.617 191.795 126.217 191.922 125.903 192.174C125.589 192.426 125.357 192.757 125.206 193.167C125.055 193.576 124.98 194.018 124.98 194.491C124.98 194.965 125.055 195.406 125.206 195.812C125.357 196.218 125.589 196.546 125.903 196.795C126.217 197.044 126.617 197.169 127.103 197.169ZM132.995 195.415L132.976 194.067H133.198L136.3 190.909H137.648L134.343 194.251H134.251L132.995 195.415ZM131.979 198V188.545H133.069V198H131.979ZM136.485 198L133.715 194.491L134.491 193.734L137.87 198H136.485ZM142.707 200.659V190.909H143.759V192.036H143.889C143.969 191.912 144.079 191.755 144.221 191.565C144.366 191.371 144.572 191.198 144.84 191.048C145.11 190.894 145.477 190.817 145.938 190.817C146.535 190.817 147.062 190.966 147.517 191.265C147.973 191.563 148.328 191.986 148.584 192.534C148.839 193.082 148.967 193.728 148.967 194.473C148.967 195.224 148.839 195.875 148.584 196.426C148.328 196.974 147.974 197.398 147.522 197.7C147.069 197.998 146.548 198.148 145.957 198.148C145.501 198.148 145.137 198.072 144.863 197.922C144.589 197.768 144.378 197.594 144.23 197.4C144.082 197.203 143.969 197.04 143.889 196.911H143.796V200.659H142.707ZM143.778 194.455C143.778 194.99 143.856 195.462 144.013 195.872C144.17 196.278 144.399 196.597 144.701 196.827C145.003 197.055 145.372 197.169 145.809 197.169C146.265 197.169 146.645 197.049 146.949 196.809C147.257 196.566 147.488 196.24 147.642 195.83C147.799 195.418 147.877 194.959 147.877 194.455C147.877 193.956 147.8 193.507 147.646 193.107C147.496 192.703 147.266 192.385 146.959 192.151C146.654 191.914 146.271 191.795 145.809 191.795C145.366 191.795 144.993 191.908 144.692 192.132C144.39 192.354 144.163 192.665 144.009 193.065C143.855 193.462 143.778 193.925 143.778 194.455ZM152.715 198.166C152.266 198.166 151.858 198.082 151.492 197.912C151.126 197.74 150.835 197.492 150.619 197.169C150.404 196.843 150.296 196.449 150.296 195.987C150.296 195.581 150.376 195.252 150.536 194.999C150.696 194.744 150.91 194.544 151.178 194.399C151.446 194.254 151.741 194.147 152.064 194.076C152.391 194.002 152.718 193.944 153.048 193.901C153.479 193.845 153.828 193.804 154.096 193.776C154.366 193.745 154.563 193.694 154.687 193.624C154.813 193.553 154.876 193.43 154.876 193.254V193.217C154.876 192.762 154.751 192.408 154.502 192.156C154.256 191.903 153.882 191.777 153.38 191.777C152.86 191.777 152.452 191.891 152.157 192.119C151.861 192.346 151.654 192.589 151.533 192.848L150.499 192.479C150.684 192.048 150.93 191.712 151.238 191.472C151.549 191.229 151.887 191.06 152.254 190.964C152.623 190.866 152.986 190.817 153.343 190.817C153.571 190.817 153.832 190.844 154.128 190.9C154.426 190.952 154.714 191.061 154.991 191.228C155.271 191.394 155.504 191.645 155.688 191.98C155.873 192.316 155.965 192.765 155.965 193.328V198H154.876V197.04H154.82C154.747 197.194 154.623 197.358 154.451 197.534C154.279 197.709 154.049 197.858 153.763 197.982C153.477 198.105 153.128 198.166 152.715 198.166ZM152.882 197.188C153.312 197.188 153.676 197.103 153.971 196.934C154.27 196.764 154.494 196.546 154.645 196.278C154.799 196.01 154.876 195.729 154.876 195.433V194.436C154.83 194.491 154.728 194.542 154.571 194.588C154.417 194.632 154.239 194.67 154.036 194.704C153.836 194.735 153.64 194.762 153.449 194.787C153.262 194.808 153.109 194.827 152.992 194.842C152.709 194.879 152.444 194.939 152.198 195.022C151.955 195.102 151.758 195.224 151.607 195.387C151.46 195.547 151.386 195.766 151.386 196.043C151.386 196.421 151.526 196.707 151.806 196.901C152.089 197.092 152.448 197.188 152.882 197.188ZM157.954 198V190.909H159.006V191.98H159.08C159.21 191.629 159.443 191.345 159.782 191.126C160.121 190.908 160.502 190.798 160.927 190.798C161.007 190.798 161.107 190.8 161.227 190.803C161.347 190.806 161.438 190.811 161.499 190.817V191.925C161.462 191.915 161.378 191.902 161.245 191.883C161.116 191.862 160.979 191.851 160.835 191.851C160.49 191.851 160.182 191.923 159.911 192.068C159.643 192.209 159.431 192.406 159.274 192.659C159.12 192.908 159.043 193.193 159.043 193.513V198H157.954ZM164.877 198.166C164.428 198.166 164.02 198.082 163.654 197.912C163.288 197.74 162.997 197.492 162.782 197.169C162.566 196.843 162.458 196.449 162.458 195.987C162.458 195.581 162.538 195.252 162.698 194.999C162.858 194.744 163.072 194.544 163.34 194.399C163.608 194.254 163.903 194.147 164.226 194.076C164.553 194.002 164.88 193.944 165.21 193.901C165.641 193.845 165.99 193.804 166.258 193.776C166.529 193.745 166.726 193.694 166.849 193.624C166.975 193.553 167.038 193.43 167.038 193.254V193.217C167.038 192.762 166.913 192.408 166.664 192.156C166.418 191.903 166.044 191.777 165.542 191.777C165.022 191.777 164.614 191.891 164.319 192.119C164.023 192.346 163.816 192.589 163.696 192.848L162.662 192.479C162.846 192.048 163.092 191.712 163.4 191.472C163.711 191.229 164.05 191.06 164.416 190.964C164.785 190.866 165.148 190.817 165.505 190.817C165.733 190.817 165.995 190.844 166.29 190.9C166.589 190.952 166.876 191.061 167.153 191.228C167.433 191.394 167.666 191.645 167.85 191.98C168.035 192.316 168.127 192.765 168.127 193.328V198H167.038V197.04H166.983C166.909 197.194 166.786 197.358 166.613 197.534C166.441 197.709 166.212 197.858 165.925 197.982C165.639 198.105 165.29 198.166 164.877 198.166ZM165.044 197.188C165.474 197.188 165.838 197.103 166.133 196.934C166.432 196.764 166.656 196.546 166.807 196.278C166.961 196.01 167.038 195.729 167.038 195.433V194.436C166.992 194.491 166.89 194.542 166.733 194.588C166.579 194.632 166.401 194.67 166.198 194.704C165.998 194.735 165.802 194.762 165.611 194.787C165.424 194.808 165.271 194.827 165.154 194.842C164.871 194.879 164.607 194.939 164.36 195.022C164.117 195.102 163.92 195.224 163.769 195.387C163.622 195.547 163.548 195.766 163.548 196.043C163.548 196.421 163.688 196.707 163.968 196.901C164.251 197.092 164.61 197.188 165.044 197.188ZM84.7325 214.148C84.0677 214.148 83.4953 213.991 83.0152 213.677C82.535 213.363 82.1657 212.931 81.9072 212.38C81.6487 211.829 81.5194 211.199 81.5194 210.491C81.5194 209.771 81.6518 209.136 81.9164 208.585C82.1842 208.031 82.5566 207.598 83.0336 207.288C83.5137 206.974 84.0739 206.817 84.714 206.817C85.2126 206.817 85.6619 206.909 86.062 207.094C86.4621 207.278 86.7899 207.537 87.0453 207.869C87.3008 208.202 87.4593 208.589 87.5208 209.033H86.4313C86.3483 208.71 86.1636 208.423 85.8774 208.174C85.5942 207.922 85.2126 207.795 84.7325 207.795C84.3078 207.795 83.9354 207.906 83.6153 208.128C83.2983 208.346 83.0505 208.656 82.872 209.056C82.6966 209.453 82.6089 209.919 82.6089 210.455C82.6089 211.002 82.6951 211.479 82.8674 211.886C83.0429 212.292 83.2891 212.607 83.6061 212.832C83.9261 213.057 84.3016 213.169 84.7325 213.169C85.0156 213.169 85.2726 213.12 85.5034 213.021C85.7343 212.923 85.9297 212.781 86.0897 212.597C86.2498 212.412 86.3636 212.19 86.4313 211.932H87.5208C87.4593 212.35 87.3069 212.727 87.0638 213.063C86.8238 213.395 86.5052 213.66 86.1082 213.857C85.7143 214.051 85.2557 214.148 84.7325 214.148ZM91.9942 214.148C91.3541 214.148 90.7924 213.995 90.3092 213.691C89.8291 213.386 89.4536 212.96 89.1828 212.412C88.915 211.864 88.7811 211.224 88.7811 210.491C88.7811 209.753 88.915 209.108 89.1828 208.557C89.4536 208.006 89.8291 207.578 90.3092 207.274C90.7924 206.969 91.3541 206.817 91.9942 206.817C92.6344 206.817 93.1945 206.969 93.6746 207.274C94.1578 207.578 94.5333 208.006 94.801 208.557C95.0719 209.108 95.2073 209.753 95.2073 210.491C95.2073 211.224 95.0719 211.864 94.801 212.412C94.5333 212.96 94.1578 213.386 93.6746 213.691C93.1945 213.995 92.6344 214.148 91.9942 214.148ZM91.9942 213.169C92.4805 213.169 92.8806 213.044 93.1945 212.795C93.5084 212.546 93.7408 212.218 93.8916 211.812C94.0424 211.406 94.1178 210.965 94.1178 210.491C94.1178 210.018 94.0424 209.576 93.8916 209.167C93.7408 208.757 93.5084 208.426 93.1945 208.174C92.8806 207.922 92.4805 207.795 91.9942 207.795C91.5079 207.795 91.1078 207.922 90.7939 208.174C90.48 208.426 90.2476 208.757 90.0968 209.167C89.946 209.576 89.8706 210.018 89.8706 210.491C89.8706 210.965 89.946 211.406 90.0968 211.812C90.2476 212.218 90.48 212.546 90.7939 212.795C91.1078 213.044 91.5079 213.169 91.9942 213.169ZM97.9598 209.734V214H96.8704V206.909H97.9229V208.017H98.0152C98.1814 207.657 98.4338 207.368 98.7723 207.149C99.1109 206.928 99.5479 206.817 100.083 206.817C100.564 206.817 100.984 206.915 101.344 207.112C101.704 207.306 101.984 207.602 102.184 207.999C102.384 208.393 102.484 208.891 102.484 209.494V214H101.395V209.568C101.395 209.011 101.25 208.577 100.961 208.266C100.671 207.952 100.274 207.795 99.7695 207.795C99.4217 207.795 99.1109 207.871 98.837 208.022C98.5661 208.172 98.3522 208.393 98.1953 208.682C98.0383 208.971 97.9598 209.322 97.9598 209.734ZM109.498 208.497L108.519 208.774C108.457 208.611 108.367 208.453 108.247 208.299C108.13 208.142 107.97 208.012 107.766 207.911C107.563 207.809 107.303 207.759 106.986 207.759C106.552 207.759 106.191 207.859 105.901 208.059C105.615 208.256 105.472 208.506 105.472 208.811C105.472 209.082 105.57 209.296 105.767 209.453C105.964 209.61 106.272 209.741 106.691 209.845L107.743 210.104C108.377 210.258 108.85 210.493 109.161 210.81C109.471 211.124 109.627 211.529 109.627 212.024C109.627 212.43 109.51 212.794 109.276 213.114C109.045 213.434 108.722 213.686 108.307 213.871C107.891 214.055 107.408 214.148 106.857 214.148C106.134 214.148 105.535 213.991 105.061 213.677C104.587 213.363 104.287 212.904 104.161 212.301L105.195 212.043C105.294 212.424 105.48 212.71 105.754 212.901C106.031 213.092 106.392 213.188 106.838 213.188C107.346 213.188 107.749 213.08 108.048 212.864C108.35 212.646 108.5 212.384 108.5 212.08C108.5 211.833 108.414 211.627 108.242 211.461C108.07 211.292 107.805 211.165 107.448 211.082L106.266 210.805C105.617 210.652 105.14 210.413 104.835 210.09C104.533 209.764 104.383 209.356 104.383 208.866C104.383 208.466 104.495 208.112 104.72 207.805C104.947 207.497 105.257 207.255 105.647 207.08C106.041 206.904 106.488 206.817 106.986 206.817C107.688 206.817 108.239 206.971 108.639 207.278C109.042 207.586 109.328 207.992 109.498 208.497ZM114.351 206.909V207.832H110.676V206.909H114.351ZM111.747 205.21H112.836V211.969C112.836 212.277 112.881 212.507 112.97 212.661C113.063 212.812 113.18 212.914 113.321 212.966C113.466 213.015 113.618 213.04 113.778 213.04C113.898 213.04 113.997 213.034 114.074 213.021C114.151 213.006 114.212 212.994 114.258 212.984L114.48 213.963C114.406 213.991 114.303 214.018 114.171 214.046C114.038 214.077 113.871 214.092 113.667 214.092C113.36 214.092 113.058 214.026 112.763 213.894C112.47 213.761 112.227 213.56 112.033 213.289C111.842 213.018 111.747 212.677 111.747 212.264V205.21ZM115.989 214V206.909H117.042V207.98H117.116C117.245 207.629 117.479 207.345 117.818 207.126C118.156 206.908 118.538 206.798 118.963 206.798C119.043 206.798 119.143 206.8 119.263 206.803C119.383 206.806 119.473 206.811 119.535 206.817V207.925C119.498 207.915 119.413 207.902 119.281 207.883C119.152 207.862 119.015 207.851 118.87 207.851C118.525 207.851 118.218 207.923 117.947 208.068C117.679 208.209 117.467 208.406 117.31 208.659C117.156 208.908 117.079 209.193 117.079 209.513V214H115.989ZM125.295 211.101V206.909H126.385V214H125.295V212.8H125.221C125.055 213.16 124.797 213.466 124.446 213.718C124.095 213.968 123.652 214.092 123.116 214.092C122.673 214.092 122.279 213.995 121.934 213.801C121.59 213.605 121.319 213.309 121.122 212.915C120.925 212.518 120.826 212.018 120.826 211.415V206.909H121.916V211.341C121.916 211.858 122.061 212.27 122.35 212.578C122.642 212.886 123.015 213.04 123.467 213.04C123.738 213.04 124.013 212.971 124.293 212.832C124.577 212.694 124.814 212.481 125.004 212.195C125.198 211.909 125.295 211.544 125.295 211.101ZM131.261 214.148C130.596 214.148 130.024 213.991 129.543 213.677C129.063 213.363 128.694 212.931 128.436 212.38C128.177 211.829 128.048 211.199 128.048 210.491C128.048 209.771 128.18 209.136 128.445 208.585C128.713 208.031 129.085 207.598 129.562 207.288C130.042 206.974 130.602 206.817 131.242 206.817C131.741 206.817 132.19 206.909 132.59 207.094C132.99 207.278 133.318 207.537 133.574 207.869C133.829 208.202 133.988 208.589 134.049 209.033H132.96C132.877 208.71 132.692 208.423 132.406 208.174C132.123 207.922 131.741 207.795 131.261 207.795C130.836 207.795 130.464 207.906 130.144 208.128C129.827 208.346 129.579 208.656 129.4 209.056C129.225 209.453 129.137 209.919 129.137 210.455C129.137 211.002 129.223 211.479 129.396 211.886C129.571 212.292 129.817 212.607 130.134 212.832C130.454 213.057 130.83 213.169 131.261 213.169C131.544 213.169 131.801 213.12 132.032 213.021C132.263 212.923 132.458 212.781 132.618 212.597C132.778 212.412 132.892 212.19 132.96 211.932H134.049C133.988 212.35 133.835 212.727 133.592 213.063C133.352 213.395 133.034 213.66 132.637 213.857C132.243 214.051 131.784 214.148 131.261 214.148ZM130.744 213.963H131.649L131.575 214.332C131.815 214.369 132.035 214.469 132.235 214.632C132.435 214.799 132.535 215.062 132.535 215.422C132.535 215.819 132.37 216.142 132.041 216.391C131.715 216.644 131.233 216.77 130.596 216.77L130.559 216.05C130.845 216.05 131.082 216.004 131.27 215.911C131.461 215.822 131.556 215.671 131.556 215.459C131.556 215.246 131.478 215.102 131.321 215.025C131.164 214.948 130.91 214.896 130.559 214.868L130.744 213.963ZM137.728 214.166C137.279 214.166 136.871 214.082 136.505 213.912C136.139 213.74 135.848 213.492 135.633 213.169C135.417 212.843 135.309 212.449 135.309 211.987C135.309 211.581 135.389 211.252 135.55 210.999C135.71 210.744 135.923 210.544 136.191 210.399C136.459 210.254 136.754 210.147 137.078 210.076C137.404 210.002 137.732 209.944 138.061 209.901C138.492 209.845 138.841 209.804 139.109 209.776C139.38 209.745 139.577 209.694 139.7 209.624C139.826 209.553 139.889 209.43 139.889 209.254V209.217C139.889 208.762 139.764 208.408 139.515 208.156C139.269 207.903 138.895 207.777 138.393 207.777C137.873 207.777 137.465 207.891 137.17 208.119C136.874 208.346 136.667 208.589 136.547 208.848L135.513 208.479C135.697 208.048 135.943 207.712 136.251 207.472C136.562 207.229 136.901 207.06 137.267 206.964C137.636 206.866 137.999 206.817 138.356 206.817C138.584 206.817 138.846 206.844 139.141 206.9C139.44 206.952 139.727 207.061 140.004 207.228C140.284 207.394 140.517 207.645 140.702 207.98C140.886 208.316 140.978 208.765 140.978 209.328V214H139.889V213.04H139.834C139.76 213.194 139.637 213.358 139.464 213.534C139.292 213.709 139.063 213.858 138.776 213.982C138.49 214.105 138.141 214.166 137.728 214.166ZM137.895 213.188C138.326 213.188 138.689 213.103 138.984 212.934C139.283 212.764 139.507 212.546 139.658 212.278C139.812 212.01 139.889 211.729 139.889 211.433V210.436C139.843 210.491 139.741 210.542 139.584 210.588C139.43 210.632 139.252 210.67 139.049 210.704C138.849 210.735 138.653 210.762 138.463 210.787C138.275 210.808 138.122 210.827 138.005 210.842C137.722 210.879 137.458 210.939 137.211 211.022C136.968 211.102 136.771 211.224 136.621 211.387C136.473 211.547 136.399 211.766 136.399 212.043C136.399 212.421 136.539 212.707 136.819 212.901C137.102 213.092 137.461 213.188 137.895 213.188ZM137.008 206.06L136.159 206.023C136.159 205.552 136.293 205.167 136.561 204.869C136.831 204.567 137.165 204.416 137.562 204.416C137.738 204.416 137.893 204.447 138.029 204.509C138.164 204.567 138.293 204.635 138.416 204.712C138.539 204.789 138.666 204.858 138.795 204.919C138.927 204.978 139.077 205.007 139.243 205.007C139.418 205.007 139.566 204.939 139.686 204.804C139.809 204.665 139.871 204.499 139.871 204.305L140.702 204.379C140.702 204.859 140.566 205.241 140.295 205.524C140.027 205.807 139.695 205.949 139.298 205.949C139.086 205.949 138.91 205.92 138.772 205.861C138.633 205.8 138.51 205.73 138.402 205.653C138.295 205.576 138.181 205.509 138.061 205.45C137.941 205.389 137.793 205.358 137.618 205.358C137.442 205.358 137.296 205.427 137.179 205.566C137.065 205.701 137.008 205.866 137.008 206.06ZM145.848 214.148C145.208 214.148 144.646 213.995 144.163 213.691C143.683 213.386 143.307 212.96 143.036 212.412C142.769 211.864 142.635 211.224 142.635 210.491C142.635 209.753 142.769 209.108 143.036 208.557C143.307 208.006 143.683 207.578 144.163 207.274C144.646 206.969 145.208 206.817 145.848 206.817C146.488 206.817 147.048 206.969 147.528 207.274C148.011 207.578 148.387 208.006 148.655 208.557C148.925 209.108 149.061 209.753 149.061 210.491C149.061 211.224 148.925 211.864 148.655 212.412C148.387 212.96 148.011 213.386 147.528 213.691C147.048 213.995 146.488 214.148 145.848 214.148ZM145.848 213.169C146.334 213.169 146.734 213.044 147.048 212.795C147.362 212.546 147.594 212.218 147.745 211.812C147.896 211.406 147.971 210.965 147.971 210.491C147.971 210.018 147.896 209.576 147.745 209.167C147.594 208.757 147.362 208.426 147.048 208.174C146.734 207.922 146.334 207.795 145.848 207.795C145.361 207.795 144.961 207.922 144.647 208.174C144.334 208.426 144.101 208.757 143.95 209.167C143.8 209.576 143.724 210.018 143.724 210.491C143.724 210.965 143.8 211.406 143.95 211.812C144.101 212.218 144.334 212.546 144.647 212.795C144.961 213.044 145.361 213.169 145.848 213.169ZM157.058 214.148C156.467 214.148 155.945 213.998 155.493 213.7C155.04 213.398 154.686 212.974 154.431 212.426C154.175 211.875 154.048 211.224 154.048 210.473C154.048 209.728 154.175 209.082 154.431 208.534C154.686 207.986 155.042 207.563 155.497 207.265C155.953 206.966 156.479 206.817 157.076 206.817C157.538 206.817 157.902 206.894 158.17 207.048C158.441 207.198 158.647 207.371 158.789 207.565C158.934 207.755 159.046 207.912 159.126 208.036H159.218V204.545H160.308V214H159.255V212.911H159.126C159.046 213.04 158.932 213.203 158.784 213.4C158.637 213.594 158.426 213.768 158.152 213.922C157.878 214.072 157.513 214.148 157.058 214.148ZM157.205 213.169C157.642 213.169 158.012 213.055 158.313 212.827C158.615 212.597 158.844 212.278 159.001 211.872C159.158 211.462 159.237 210.99 159.237 210.455C159.237 209.925 159.16 209.462 159.006 209.065C158.852 208.665 158.624 208.354 158.323 208.132C158.021 207.908 157.649 207.795 157.205 207.795C156.744 207.795 156.359 207.914 156.051 208.151C155.747 208.385 155.517 208.703 155.363 209.107C155.213 209.507 155.137 209.956 155.137 210.455C155.137 210.959 155.214 211.418 155.368 211.83C155.525 212.24 155.756 212.566 156.061 212.809C156.368 213.049 156.75 213.169 157.205 213.169ZM165.427 214.148C164.744 214.148 164.155 213.997 163.659 213.695C163.167 213.391 162.787 212.966 162.519 212.421C162.254 211.873 162.122 211.236 162.122 210.51C162.122 209.784 162.254 209.143 162.519 208.589C162.787 208.032 163.159 207.598 163.636 207.288C164.116 206.974 164.676 206.817 165.317 206.817C165.686 206.817 166.051 206.878 166.411 207.001C166.771 207.125 167.099 207.325 167.394 207.602C167.689 207.875 167.925 208.239 168.1 208.691C168.276 209.143 168.363 209.701 168.363 210.362V210.824H162.898V209.882H167.255C167.255 209.482 167.175 209.125 167.015 208.811C166.858 208.497 166.634 208.249 166.341 208.068C166.052 207.886 165.71 207.795 165.317 207.795C164.883 207.795 164.507 207.903 164.19 208.119C163.876 208.331 163.635 208.608 163.465 208.95C163.296 209.291 163.211 209.657 163.211 210.048V210.676C163.211 211.212 163.304 211.666 163.488 212.038C163.676 212.407 163.936 212.689 164.269 212.883C164.601 213.074 164.987 213.169 165.427 213.169C165.714 213.169 165.972 213.129 166.203 213.049C166.437 212.966 166.638 212.843 166.808 212.68C166.977 212.513 167.108 212.307 167.2 212.061L168.253 212.357C168.142 212.714 167.956 213.027 167.694 213.298C167.432 213.566 167.109 213.775 166.725 213.926C166.34 214.074 165.907 214.148 165.427 214.148ZM59.4128 230V222.909H60.5023V230H59.4128ZM59.9668 221.727C59.7545 221.727 59.5713 221.655 59.4175 221.51C59.2667 221.366 59.1912 221.192 59.1912 220.989C59.1912 220.786 59.2667 220.612 59.4175 220.467C59.5713 220.322 59.7545 220.25 59.9668 220.25C60.1792 220.25 60.3608 220.322 60.5116 220.467C60.6654 220.612 60.7424 220.786 60.7424 220.989C60.7424 221.192 60.6654 221.366 60.5116 221.51C60.3608 221.655 60.1792 221.727 59.9668 221.727ZM63.5873 225.734V230H62.4978V222.909H63.5504V224.017H63.6427C63.8089 223.657 64.0612 223.368 64.3998 223.149C64.7383 222.928 65.1754 222.817 65.7109 222.817C66.191 222.817 66.6111 222.915 66.9712 223.112C67.3313 223.306 67.6113 223.602 67.8114 223.999C68.0114 224.393 68.1114 224.891 68.1114 225.494V230H67.0219V225.568C67.0219 225.011 66.8773 224.577 66.588 224.266C66.2987 223.952 65.9017 223.795 65.3969 223.795C65.0492 223.795 64.7383 223.871 64.4644 224.022C64.1936 224.172 63.9797 224.393 63.8227 224.682C63.6658 224.971 63.5873 225.322 63.5873 225.734ZM73.1861 222.909V223.832H69.5114V222.909H73.1861ZM70.5824 221.21H71.6719V227.969C71.6719 228.277 71.7165 228.507 71.8058 228.661C71.8981 228.812 72.0151 228.914 72.1566 228.966C72.3013 229.015 72.4536 229.04 72.6137 229.04C72.7337 229.04 72.8322 229.034 72.9091 229.021C72.9861 229.006 73.0476 228.994 73.0938 228.984L73.3154 229.963C73.2415 229.991 73.1384 230.018 73.0061 230.046C72.8737 230.077 72.706 230.092 72.5029 230.092C72.1951 230.092 71.8935 230.026 71.598 229.894C71.3057 229.761 71.0625 229.56 70.8686 229.289C70.6778 229.018 70.5824 228.677 70.5824 228.264V221.21ZM77.7218 230.148C77.0385 230.148 76.4492 229.997 75.9537 229.695C75.4613 229.391 75.0812 228.966 74.8134 228.421C74.5487 227.873 74.4164 227.236 74.4164 226.51C74.4164 225.784 74.5487 225.143 74.8134 224.589C75.0812 224.032 75.4536 223.598 75.9306 223.288C76.4107 222.974 76.9708 222.817 77.611 222.817C77.9803 222.817 78.345 222.878 78.7051 223.001C79.0652 223.125 79.393 223.325 79.6884 223.602C79.9839 223.875 80.2193 224.239 80.3947 224.691C80.5702 225.143 80.6579 225.701 80.6579 226.362V226.824H75.192V225.882H79.5499C79.5499 225.482 79.4699 225.125 79.3099 224.811C79.1529 224.497 78.9282 224.249 78.6359 224.068C78.3466 223.886 78.0049 223.795 77.611 223.795C77.177 223.795 76.8016 223.903 76.4846 224.119C76.1707 224.331 75.9291 224.608 75.7598 224.95C75.5905 225.291 75.5059 225.657 75.5059 226.048V226.676C75.5059 227.212 75.5982 227.666 75.7829 228.038C75.9706 228.407 76.2307 228.689 76.5631 228.883C76.8954 229.074 77.2817 229.169 77.7218 229.169C78.008 229.169 78.2665 229.129 78.4974 229.049C78.7313 228.966 78.9328 228.843 79.1021 228.68C79.2714 228.513 79.4022 228.307 79.4945 228.061L80.5471 228.357C80.4363 228.714 80.2501 229.027 79.9885 229.298C79.7269 229.566 79.4037 229.775 79.019 229.926C78.6343 230.074 78.2019 230.148 77.7218 230.148ZM82.3152 230V222.909H83.3677V223.98H83.4416C83.5709 223.629 83.8048 223.345 84.1433 223.126C84.4818 222.908 84.8635 222.798 85.2882 222.798C85.3682 222.798 85.4682 222.8 85.5883 222.803C85.7083 222.806 85.7991 222.811 85.8606 222.817V223.925C85.8237 223.915 85.7391 223.902 85.6067 223.883C85.4775 223.862 85.3405 223.851 85.1959 223.851C84.8512 223.851 84.5434 223.923 84.2726 224.068C84.0048 224.209 83.7925 224.406 83.6355 224.659C83.4816 224.908 83.4047 225.193 83.4047 225.513V230H82.3152ZM90.7541 222.909V223.832H86.9317V222.909H90.7541ZM88.0765 230V221.93C88.0765 221.524 88.172 221.186 88.3628 220.915C88.5536 220.644 88.8013 220.441 89.106 220.305C89.4107 220.17 89.7323 220.102 90.0709 220.102C90.3386 220.102 90.5571 220.124 90.7264 220.167C90.8957 220.21 91.0219 220.25 91.105 220.287L90.791 221.229C90.7356 221.21 90.6587 221.187 90.5602 221.159C90.4648 221.132 90.3386 221.118 90.1817 221.118C89.8216 221.118 89.5615 221.209 89.4015 221.39C89.2445 221.572 89.166 221.838 89.166 222.189V230H88.0765ZM94.1645 230.166C93.7152 230.166 93.3074 230.082 92.9412 229.912C92.5749 229.74 92.2841 229.492 92.0686 229.169C91.8532 228.843 91.7455 228.449 91.7455 227.987C91.7455 227.581 91.8255 227.252 91.9855 226.999C92.1456 226.744 92.3595 226.544 92.6272 226.399C92.895 226.254 93.1904 226.147 93.5136 226.076C93.8398 226.002 94.1676 225.944 94.4969 225.901C94.9278 225.845 95.2771 225.804 95.5449 225.776C95.8157 225.745 96.0127 225.694 96.1358 225.624C96.2619 225.553 96.325 225.43 96.325 225.254V225.217C96.325 224.762 96.2004 224.408 95.9511 224.156C95.7049 223.903 95.331 223.777 94.8293 223.777C94.3092 223.777 93.9014 223.891 93.6059 224.119C93.3105 224.346 93.1027 224.589 92.9827 224.848L91.9486 224.479C92.1333 224.048 92.3795 223.712 92.6873 223.472C92.9981 223.229 93.3366 223.06 93.7029 222.964C94.0722 222.866 94.4354 222.817 94.7924 222.817C95.0201 222.817 95.2817 222.844 95.5772 222.9C95.8757 222.952 96.1635 223.061 96.4404 223.228C96.7205 223.394 96.9529 223.645 97.1375 223.98C97.3222 224.316 97.4145 224.765 97.4145 225.328V230H96.325V229.04H96.2696C96.1958 229.194 96.0727 229.358 95.9003 229.534C95.728 229.709 95.4987 229.858 95.2125 229.982C94.9262 230.105 94.5769 230.166 94.1645 230.166ZM94.3307 229.188C94.7616 229.188 95.1248 229.103 95.4202 228.934C95.7187 228.764 95.9434 228.546 96.0942 228.278C96.2481 228.01 96.325 227.729 96.325 227.433V226.436C96.2789 226.491 96.1773 226.542 96.0203 226.588C95.8665 226.632 95.688 226.67 95.4848 226.704C95.2848 226.735 95.0894 226.762 94.8985 226.787C94.7108 226.808 94.5585 226.827 94.4415 226.842C94.1584 226.879 93.8937 226.939 93.6475 227.022C93.4043 227.102 93.2074 227.224 93.0566 227.387C92.9088 227.547 92.835 227.766 92.835 228.043C92.835 228.421 92.975 228.707 93.2551 228.901C93.5382 229.092 93.8968 229.188 94.3307 229.188ZM102.284 230.148C101.619 230.148 101.047 229.991 100.566 229.677C100.086 229.363 99.717 228.931 99.4585 228.38C99.1999 227.829 99.0707 227.199 99.0707 226.491C99.0707 225.771 99.203 225.136 99.4677 224.585C99.7355 224.031 100.108 223.598 100.585 223.288C101.065 222.974 101.625 222.817 102.265 222.817C102.764 222.817 103.213 222.909 103.613 223.094C104.013 223.278 104.341 223.537 104.597 223.869C104.852 224.202 105.011 224.589 105.072 225.033H103.983C103.9 224.71 103.715 224.423 103.429 224.174C103.145 223.922 102.764 223.795 102.284 223.795C101.859 223.795 101.487 223.906 101.167 224.128C100.85 224.346 100.602 224.656 100.423 225.056C100.248 225.453 100.16 225.919 100.16 226.455C100.16 227.002 100.246 227.479 100.419 227.886C100.594 228.292 100.84 228.607 101.157 228.832C101.477 229.057 101.853 229.169 102.284 229.169C102.567 229.169 102.824 229.12 103.055 229.021C103.286 228.923 103.481 228.781 103.641 228.597C103.801 228.412 103.915 228.19 103.983 227.932H105.072C105.011 228.35 104.858 228.727 104.615 229.063C104.375 229.395 104.056 229.66 103.659 229.857C103.266 230.051 102.807 230.148 102.284 230.148ZM109.638 230.148C108.955 230.148 108.365 229.997 107.87 229.695C107.377 229.391 106.997 228.966 106.729 228.421C106.465 227.873 106.332 227.236 106.332 226.51C106.332 225.784 106.465 225.143 106.729 224.589C106.997 224.032 107.37 223.598 107.847 223.288C108.327 222.974 108.887 222.817 109.527 222.817C109.896 222.817 110.261 222.878 110.621 223.001C110.981 223.125 111.309 223.325 111.604 223.602C111.9 223.875 112.135 224.239 112.311 224.691C112.486 225.143 112.574 225.701 112.574 226.362V226.824H107.108V225.882H111.466C111.466 225.482 111.386 225.125 111.226 224.811C111.069 224.497 110.844 224.249 110.552 224.068C110.263 223.886 109.921 223.795 109.527 223.795C109.093 223.795 108.718 223.903 108.401 224.119C108.087 224.331 107.845 224.608 107.676 224.95C107.507 225.291 107.422 225.657 107.422 226.048V226.676C107.422 227.212 107.514 227.666 107.699 228.038C107.887 228.407 108.147 228.689 108.479 228.883C108.811 229.074 109.198 229.169 109.638 229.169C109.924 229.169 110.183 229.129 110.413 229.049C110.647 228.966 110.849 228.843 111.018 228.68C111.187 228.513 111.318 228.307 111.411 228.061L112.463 228.357C112.352 228.714 112.166 229.027 111.904 229.298C111.643 229.566 111.32 229.775 110.935 229.926C110.55 230.074 110.118 230.148 109.638 230.148ZM119.254 224.497L118.275 224.774C118.214 224.611 118.123 224.453 118.003 224.299C117.886 224.142 117.726 224.012 117.523 223.911C117.32 223.809 117.06 223.759 116.743 223.759C116.309 223.759 115.947 223.859 115.658 224.059C115.371 224.256 115.228 224.506 115.228 224.811C115.228 225.082 115.327 225.296 115.524 225.453C115.721 225.61 116.029 225.741 116.447 225.845L117.5 226.104C118.134 226.258 118.606 226.493 118.917 226.81C119.228 227.124 119.383 227.529 119.383 228.024C119.383 228.43 119.266 228.794 119.032 229.114C118.802 229.434 118.478 229.686 118.063 229.871C117.647 230.055 117.164 230.148 116.613 230.148C115.89 230.148 115.291 229.991 114.817 229.677C114.344 229.363 114.043 228.904 113.917 228.301L114.951 228.043C115.05 228.424 115.236 228.71 115.51 228.901C115.787 229.092 116.149 229.188 116.595 229.188C117.103 229.188 117.506 229.08 117.804 228.864C118.106 228.646 118.257 228.384 118.257 228.08C118.257 227.833 118.171 227.627 117.998 227.461C117.826 227.292 117.561 227.165 117.204 227.082L116.022 226.805C115.373 226.652 114.896 226.413 114.591 226.09C114.29 225.764 114.139 225.356 114.139 224.866C114.139 224.466 114.251 224.112 114.476 223.805C114.704 223.497 115.013 223.255 115.404 223.08C115.798 222.904 116.244 222.817 116.743 222.817C117.444 222.817 117.995 222.971 118.395 223.278C118.798 223.586 119.085 223.992 119.254 224.497ZM127.357 230.148C126.766 230.148 126.244 229.998 125.792 229.7C125.34 229.398 124.986 228.974 124.73 228.426C124.475 227.875 124.347 227.224 124.347 226.473C124.347 225.728 124.475 225.082 124.73 224.534C124.986 223.986 125.341 223.563 125.797 223.265C126.252 222.966 126.778 222.817 127.375 222.817C127.837 222.817 128.202 222.894 128.47 223.048C128.74 223.198 128.947 223.371 129.088 223.565C129.233 223.755 129.345 223.912 129.425 224.036H129.518V220.545H130.607V230H129.554V228.911H129.425C129.345 229.04 129.231 229.203 129.084 229.4C128.936 229.594 128.725 229.768 128.451 229.922C128.177 230.072 127.812 230.148 127.357 230.148ZM127.505 229.169C127.942 229.169 128.311 229.055 128.613 228.827C128.914 228.597 129.144 228.278 129.301 227.872C129.457 227.462 129.536 226.99 129.536 226.455C129.536 225.925 129.459 225.462 129.305 225.065C129.151 224.665 128.924 224.354 128.622 224.132C128.32 223.908 127.948 223.795 127.505 223.795C127.043 223.795 126.658 223.914 126.351 224.151C126.046 224.385 125.817 224.703 125.663 225.107C125.512 225.507 125.437 225.956 125.437 226.455C125.437 226.959 125.513 227.418 125.667 227.83C125.824 228.24 126.055 228.566 126.36 228.809C126.668 229.049 127.049 229.169 127.505 229.169ZM135.727 230.148C135.043 230.148 134.454 229.997 133.959 229.695C133.466 229.391 133.086 228.966 132.818 228.421C132.554 227.873 132.421 227.236 132.421 226.51C132.421 225.784 132.554 225.143 132.818 224.589C133.086 224.032 133.458 223.598 133.935 223.288C134.416 222.974 134.976 222.817 135.616 222.817C135.985 222.817 136.35 222.878 136.71 223.001C137.07 223.125 137.398 223.325 137.693 223.602C137.989 223.875 138.224 224.239 138.4 224.691C138.575 225.143 138.663 225.701 138.663 226.362V226.824H133.197V225.882H137.555C137.555 225.482 137.475 225.125 137.315 224.811C137.158 224.497 136.933 224.249 136.641 224.068C136.351 223.886 136.01 223.795 135.616 223.795C135.182 223.795 134.806 223.903 134.489 224.119C134.176 224.331 133.934 224.608 133.765 224.95C133.595 225.291 133.511 225.657 133.511 226.048V226.676C133.511 227.212 133.603 227.666 133.788 228.038C133.975 228.407 134.236 228.689 134.568 228.883C134.9 229.074 135.287 229.169 135.727 229.169C136.013 229.169 136.271 229.129 136.502 229.049C136.736 228.966 136.938 228.843 137.107 228.68C137.276 228.513 137.407 228.307 137.499 228.061L138.552 228.357C138.441 228.714 138.255 229.027 137.993 229.298C137.732 229.566 137.409 229.775 137.024 229.926C136.639 230.074 136.207 230.148 135.727 230.148ZM148.445 227.101V222.909H149.535V230H148.445V228.8H148.371C148.205 229.16 147.946 229.466 147.596 229.718C147.245 229.968 146.802 230.092 146.266 230.092C145.823 230.092 145.429 229.995 145.084 229.801C144.74 229.605 144.469 229.309 144.272 228.915C144.075 228.518 143.976 228.018 143.976 227.415V222.909H145.066V227.341C145.066 227.858 145.21 228.27 145.5 228.578C145.792 228.886 146.165 229.04 146.617 229.04C146.888 229.04 147.163 228.971 147.443 228.832C147.726 228.694 147.963 228.481 148.154 228.195C148.348 227.909 148.445 227.544 148.445 227.101ZM156.553 224.497L155.574 224.774C155.513 224.611 155.422 224.453 155.302 224.299C155.185 224.142 155.025 224.012 154.822 223.911C154.618 223.809 154.358 223.759 154.041 223.759C153.607 223.759 153.246 223.859 152.957 224.059C152.67 224.256 152.527 224.506 152.527 224.811C152.527 225.082 152.626 225.296 152.823 225.453C153.02 225.61 153.327 225.741 153.746 225.845L154.798 226.104C155.432 226.258 155.905 226.493 156.216 226.81C156.527 227.124 156.682 227.529 156.682 228.024C156.682 228.43 156.565 228.794 156.331 229.114C156.1 229.434 155.777 229.686 155.362 229.871C154.946 230.055 154.463 230.148 153.912 230.148C153.189 230.148 152.59 229.991 152.116 229.677C151.642 229.363 151.342 228.904 151.216 228.301L152.25 228.043C152.349 228.424 152.535 228.71 152.809 228.901C153.086 229.092 153.447 229.188 153.894 229.188C154.401 229.188 154.805 229.08 155.103 228.864C155.405 228.646 155.556 228.384 155.556 228.08C155.556 227.833 155.469 227.627 155.297 227.461C155.125 227.292 154.86 227.165 154.503 227.082L153.321 226.805C152.672 226.652 152.195 226.413 151.89 226.09C151.589 225.764 151.438 225.356 151.438 224.866C151.438 224.466 151.55 224.112 151.775 223.805C152.002 223.497 152.312 223.255 152.703 223.08C153.097 222.904 153.543 222.817 154.041 222.817C154.743 222.817 155.294 222.971 155.694 223.278C156.097 223.586 156.383 223.992 156.553 224.497ZM162.791 227.101V222.909H163.88V230H162.791V228.8H162.717C162.551 229.16 162.292 229.466 161.941 229.718C161.59 229.968 161.147 230.092 160.612 230.092C160.169 230.092 159.775 229.995 159.43 229.801C159.085 229.605 158.814 229.309 158.617 228.915C158.421 228.518 158.322 228.018 158.322 227.415V222.909H159.412V227.341C159.412 227.858 159.556 228.27 159.845 228.578C160.138 228.886 160.51 229.04 160.963 229.04C161.233 229.04 161.509 228.971 161.789 228.832C162.072 228.694 162.309 228.481 162.5 228.195C162.694 227.909 162.791 227.544 162.791 227.101ZM167.962 230.166C167.513 230.166 167.105 230.082 166.739 229.912C166.373 229.74 166.082 229.492 165.866 229.169C165.651 228.843 165.543 228.449 165.543 227.987C165.543 227.581 165.623 227.252 165.783 226.999C165.943 226.744 166.157 226.544 166.425 226.399C166.693 226.254 166.988 226.147 167.311 226.076C167.638 226.002 167.965 225.944 168.295 225.901C168.726 225.845 169.075 225.804 169.343 225.776C169.614 225.745 169.811 225.694 169.934 225.624C170.06 225.553 170.123 225.43 170.123 225.254V225.217C170.123 224.762 169.998 224.408 169.749 224.156C169.503 223.903 169.129 223.777 168.627 223.777C168.107 223.777 167.699 223.891 167.404 224.119C167.108 224.346 166.901 224.589 166.781 224.848L165.746 224.479C165.931 224.048 166.177 223.712 166.485 223.472C166.796 223.229 167.134 223.06 167.501 222.964C167.87 222.866 168.233 222.817 168.59 222.817C168.818 222.817 169.08 222.844 169.375 222.9C169.674 222.952 169.961 223.061 170.238 223.228C170.518 223.394 170.751 223.645 170.935 223.98C171.12 224.316 171.212 224.765 171.212 225.328V230H170.123V229.04H170.067C169.994 229.194 169.871 229.358 169.698 229.534C169.526 229.709 169.297 229.858 169.01 229.982C168.724 230.105 168.375 230.166 167.962 230.166ZM168.129 229.188C168.559 229.188 168.923 229.103 169.218 228.934C169.517 228.764 169.741 228.546 169.892 228.278C170.046 228.01 170.123 227.729 170.123 227.433V226.436C170.077 226.491 169.975 226.542 169.818 226.588C169.664 226.632 169.486 226.67 169.283 226.704C169.083 226.735 168.887 226.762 168.696 226.787C168.509 226.808 168.356 226.827 168.239 226.842C167.956 226.879 167.692 226.939 167.445 227.022C167.202 227.102 167.005 227.224 166.854 227.387C166.707 227.547 166.633 227.766 166.633 228.043C166.633 228.421 166.773 228.707 167.053 228.901C167.336 229.092 167.695 229.188 168.129 229.188ZM168.166 221.949L169.292 219.807H170.566L169.126 221.949H168.166ZM173.201 230V222.909H174.253V223.98H174.327C174.457 223.629 174.691 223.345 175.029 223.126C175.368 222.908 175.749 222.798 176.174 222.798C176.254 222.798 176.354 222.8 176.474 222.803C176.594 222.806 176.685 222.811 176.746 222.817V223.925C176.709 223.915 176.625 223.902 176.492 223.883C176.363 223.862 176.226 223.851 176.082 223.851C175.737 223.851 175.429 223.923 175.158 224.068C174.891 224.209 174.678 224.406 174.521 224.659C174.367 224.908 174.29 225.193 174.29 225.513V230H173.201ZM178.038 230V222.909H179.127V230H178.038ZM178.592 221.727C178.379 221.727 178.196 221.655 178.042 221.51C177.892 221.366 177.816 221.192 177.816 220.989C177.816 220.786 177.892 220.612 178.042 220.467C178.196 220.322 178.379 220.25 178.592 220.25C178.804 220.25 178.986 220.322 179.137 220.467C179.29 220.612 179.367 220.786 179.367 220.989C179.367 221.192 179.29 221.366 179.137 221.51C178.986 221.655 178.804 221.727 178.592 221.727ZM184.003 230.148C183.363 230.148 182.802 229.995 182.318 229.691C181.838 229.386 181.463 228.96 181.192 228.412C180.924 227.864 180.79 227.224 180.79 226.491C180.79 225.753 180.924 225.108 181.192 224.557C181.463 224.006 181.838 223.578 182.318 223.274C182.802 222.969 183.363 222.817 184.003 222.817C184.644 222.817 185.204 222.969 185.684 223.274C186.167 223.578 186.543 224.006 186.81 224.557C187.081 225.108 187.217 225.753 187.217 226.491C187.217 227.224 187.081 227.864 186.81 228.412C186.543 228.96 186.167 229.386 185.684 229.691C185.204 229.995 184.644 230.148 184.003 230.148ZM184.003 229.169C184.49 229.169 184.89 229.044 185.204 228.795C185.518 228.546 185.75 228.218 185.901 227.812C186.052 227.406 186.127 226.965 186.127 226.491C186.127 226.018 186.052 225.576 185.901 225.167C185.75 224.757 185.518 224.426 185.204 224.174C184.89 223.922 184.49 223.795 184.003 223.795C183.517 223.795 183.117 223.922 182.803 224.174C182.489 224.426 182.257 224.757 182.106 225.167C181.955 225.576 181.88 226.018 181.88 226.491C181.88 226.965 181.955 227.406 182.106 227.812C182.257 228.218 182.489 228.546 182.803 228.795C183.117 229.044 183.517 229.169 184.003 229.169ZM189.674 230.074C189.446 230.074 189.25 229.992 189.087 229.829C188.924 229.666 188.843 229.471 188.843 229.243C188.843 229.015 188.924 228.82 189.087 228.657C189.25 228.493 189.446 228.412 189.674 228.412C189.901 228.412 190.097 228.493 190.26 228.657C190.423 228.82 190.505 229.015 190.505 229.243C190.505 229.394 190.466 229.532 190.389 229.658C190.315 229.785 190.215 229.886 190.089 229.963C189.966 230.037 189.828 230.074 189.674 230.074Z" fill="white"/>
<path d="M96.5418 131V120.818H100.559C101.328 120.818 101.984 120.956 102.528 121.231C103.074 121.503 103.49 121.889 103.775 122.389C104.064 122.886 104.208 123.471 104.208 124.144C104.208 124.82 104.062 125.402 103.77 125.889C103.479 126.373 103.056 126.744 102.503 127.003C101.953 127.261 101.286 127.391 100.504 127.391H97.8145V125.661H100.156C100.567 125.661 100.908 125.604 101.18 125.491C101.452 125.379 101.654 125.21 101.787 124.984C101.923 124.759 101.991 124.479 101.991 124.144C101.991 123.806 101.923 123.521 101.787 123.289C101.654 123.057 101.45 122.881 101.175 122.762C100.904 122.639 100.56 122.578 100.146 122.578H98.6945V131H96.5418ZM102.04 126.366L104.571 131H102.194L99.7186 126.366H102.04ZM109.047 131.149C108.261 131.149 107.585 130.99 107.018 130.672C106.455 130.35 106.021 129.896 105.716 129.31C105.411 128.72 105.258 128.022 105.258 127.217C105.258 126.431 105.411 125.742 105.716 125.148C106.021 124.555 106.45 124.093 107.003 123.761C107.56 123.43 108.213 123.264 108.962 123.264C109.466 123.264 109.935 123.345 110.369 123.508C110.807 123.667 111.188 123.907 111.512 124.229C111.841 124.55 112.096 124.955 112.278 125.442C112.46 125.926 112.552 126.492 112.552 127.142V127.724H106.103V126.411H110.558C110.558 126.106 110.492 125.836 110.359 125.601C110.226 125.366 110.043 125.182 109.807 125.049C109.575 124.913 109.305 124.845 108.997 124.845C108.675 124.845 108.39 124.92 108.142 125.069C107.896 125.215 107.704 125.412 107.565 125.661C107.426 125.906 107.355 126.179 107.351 126.481V127.729C107.351 128.107 107.421 128.433 107.56 128.708C107.703 128.983 107.903 129.195 108.162 129.344C108.42 129.494 108.727 129.568 109.081 129.568C109.317 129.568 109.532 129.535 109.728 129.469C109.923 129.402 110.091 129.303 110.23 129.17C110.369 129.038 110.475 128.875 110.548 128.683L112.507 128.812C112.407 129.283 112.204 129.694 111.895 130.045C111.59 130.393 111.196 130.665 110.712 130.861C110.231 131.053 109.676 131.149 109.047 131.149ZM116.111 131.144C115.624 131.144 115.19 131.06 114.809 130.891C114.427 130.718 114.126 130.465 113.904 130.13C113.685 129.792 113.576 129.371 113.576 128.867C113.576 128.443 113.654 128.087 113.809 127.798C113.965 127.51 114.177 127.278 114.446 127.102C114.714 126.927 115.019 126.794 115.36 126.705C115.705 126.615 116.066 126.552 116.444 126.516C116.888 126.469 117.246 126.426 117.518 126.386C117.79 126.343 117.987 126.28 118.11 126.197C118.232 126.115 118.294 125.992 118.294 125.83V125.8C118.294 125.485 118.194 125.241 117.995 125.069C117.8 124.897 117.521 124.81 117.16 124.81C116.779 124.81 116.476 124.895 116.25 125.064C116.025 125.23 115.876 125.438 115.803 125.69L113.844 125.531C113.944 125.067 114.139 124.666 114.431 124.328C114.722 123.987 115.099 123.725 115.559 123.543C116.023 123.357 116.56 123.264 117.17 123.264C117.594 123.264 118 123.314 118.388 123.413C118.779 123.513 119.126 123.667 119.427 123.876C119.732 124.085 119.972 124.353 120.148 124.681C120.324 125.006 120.412 125.395 120.412 125.849V131H118.403V129.941H118.343C118.221 130.18 118.057 130.39 117.851 130.572C117.646 130.751 117.399 130.892 117.11 130.995C116.822 131.094 116.489 131.144 116.111 131.144ZM116.718 129.683C117.029 129.683 117.304 129.621 117.543 129.499C117.782 129.373 117.969 129.204 118.105 128.991C118.241 128.779 118.309 128.539 118.309 128.271V127.46C118.242 127.503 118.151 127.543 118.035 127.58C117.923 127.613 117.795 127.644 117.652 127.674C117.51 127.701 117.367 127.725 117.225 127.749C117.082 127.768 116.953 127.787 116.837 127.803C116.588 127.84 116.371 127.898 116.186 127.977C116 128.057 115.856 128.165 115.753 128.3C115.651 128.433 115.599 128.599 115.599 128.798C115.599 129.086 115.704 129.306 115.912 129.459C116.124 129.608 116.393 129.683 116.718 129.683ZM125.505 131.149C124.723 131.149 124.05 130.983 123.487 130.652C122.926 130.317 122.496 129.853 122.194 129.26C121.896 128.667 121.746 127.984 121.746 127.212C121.746 126.429 121.897 125.743 122.199 125.153C122.504 124.56 122.936 124.098 123.496 123.766C124.057 123.432 124.723 123.264 125.495 123.264C126.161 123.264 126.745 123.385 127.245 123.627C127.746 123.869 128.142 124.209 128.433 124.646C128.725 125.084 128.886 125.598 128.916 126.188H126.917C126.861 125.806 126.711 125.5 126.47 125.268C126.231 125.032 125.918 124.915 125.53 124.915C125.202 124.915 124.915 125.004 124.67 125.183C124.428 125.359 124.239 125.616 124.103 125.954C123.967 126.292 123.899 126.701 123.899 127.182C123.899 127.669 123.965 128.083 124.098 128.425C124.234 128.766 124.425 129.026 124.67 129.205C124.915 129.384 125.202 129.474 125.53 129.474C125.772 129.474 125.989 129.424 126.181 129.325C126.377 129.225 126.537 129.081 126.663 128.892C126.793 128.7 126.877 128.469 126.917 128.201H128.916C128.882 128.784 128.723 129.298 128.438 129.742C128.157 130.183 127.767 130.528 127.27 130.776C126.773 131.025 126.184 131.149 125.505 131.149ZM134.333 123.364V124.955H129.735V123.364H134.333ZM130.779 121.534H132.897V128.653C132.897 128.849 132.926 129.001 132.986 129.111C133.046 129.217 133.129 129.291 133.235 129.335C133.344 129.378 133.47 129.399 133.612 129.399C133.712 129.399 133.811 129.391 133.911 129.374C134.01 129.354 134.086 129.339 134.139 129.33L134.473 130.906C134.366 130.939 134.217 130.977 134.025 131.02C133.833 131.066 133.599 131.094 133.324 131.104C132.814 131.124 132.366 131.056 131.982 130.901C131.601 130.745 131.304 130.503 131.092 130.175C130.88 129.847 130.775 129.432 130.779 128.932V121.534ZM143.07 120.818H145.197V127.918C145.197 128.574 145.05 129.144 144.755 129.628C144.463 130.112 144.057 130.485 143.537 130.746C143.017 131.008 142.412 131.139 141.722 131.139C141.109 131.139 140.552 131.031 140.052 130.816C139.555 130.597 139.16 130.266 138.869 129.822C138.577 129.374 138.433 128.812 138.436 128.136H140.579C140.586 128.405 140.64 128.635 140.743 128.827C140.849 129.016 140.993 129.162 141.175 129.265C141.361 129.364 141.58 129.414 141.832 129.414C142.097 129.414 142.321 129.358 142.503 129.245C142.688 129.129 142.829 128.96 142.925 128.738C143.022 128.516 143.07 128.242 143.07 127.918V120.818ZM152.501 123.746C152.461 123.345 152.29 123.034 151.989 122.812C151.687 122.59 151.278 122.479 150.761 122.479C150.409 122.479 150.113 122.528 149.871 122.628C149.629 122.724 149.443 122.858 149.314 123.031C149.188 123.203 149.125 123.398 149.125 123.617C149.118 123.799 149.157 123.959 149.239 124.094C149.326 124.23 149.443 124.348 149.592 124.447C149.742 124.544 149.914 124.628 150.109 124.701C150.305 124.771 150.514 124.83 150.736 124.88L151.651 125.099C152.095 125.198 152.502 125.331 152.874 125.496C153.245 125.662 153.566 125.866 153.838 126.108C154.11 126.35 154.32 126.635 154.47 126.963C154.622 127.291 154.7 127.667 154.703 128.092C154.7 128.715 154.541 129.255 154.226 129.712C153.914 130.166 153.464 130.519 152.874 130.771C152.287 131.02 151.579 131.144 150.751 131.144C149.929 131.144 149.213 131.018 148.603 130.766C147.996 130.514 147.523 130.142 147.181 129.648C146.843 129.151 146.666 128.536 146.649 127.803H148.732C148.755 128.145 148.853 128.43 149.026 128.658C149.201 128.884 149.435 129.054 149.727 129.17C150.022 129.283 150.355 129.339 150.726 129.339C151.09 129.339 151.407 129.286 151.675 129.18C151.947 129.074 152.158 128.927 152.307 128.738C152.456 128.549 152.531 128.332 152.531 128.087C152.531 127.858 152.463 127.666 152.327 127.51C152.194 127.354 151.999 127.222 151.74 127.112C151.485 127.003 151.172 126.903 150.8 126.814L149.692 126.536C148.833 126.327 148.156 126 147.658 125.556C147.161 125.112 146.914 124.514 146.918 123.761C146.914 123.145 147.078 122.606 147.41 122.146C147.745 121.685 148.204 121.325 148.787 121.067C149.37 120.808 150.033 120.679 150.776 120.679C151.531 120.679 152.191 120.808 152.754 121.067C153.321 121.325 153.762 121.685 154.077 122.146C154.392 122.606 154.554 123.14 154.564 123.746H152.501Z" fill="white"/>
</svg>
